<svg width="120" height="120" viewBox="0 0 120 120" fill="none" xmlns="http://www.w3.org/2000/svg">
<g clip-path="url(#clip0_436_924)">
<path d="M0 60V120H60H120V60V-1.2219e-05H60H0V60ZM64.5 21.51C66.9 22.71 70.26 24.09 72 24.6C75.42 25.62 80.34 26.7 81.48 26.7C82.32 26.7 82.32 26.58 81.78 30.75C81.54 32.58 81.18 35.67 81 37.65C80.43 43.5 79.5 50.37 78.9 53.19C78.15 56.67 77.16 58.38 74.43 60.99C71.28 63.99 60.33 72.66 59.88 72.51C59.13 72.21 47.43 62.7 45.42 60.72C42.87 58.23 41.97 56.58 41.16 52.8C40.59 50.19 39.3 40.26 38.85 35.25C38.61 32.64 38.13 28.62 37.92 27.57C37.77 26.79 37.83 26.79 39.66 26.58C44.73 25.98 54.12 22.8 58.35 20.16C59.19 19.65 59.91 19.26 60 19.32C60.09 19.35 62.1 20.34 64.5 21.51ZM59.94 80.16C60.9 80.67 61.62 81.33 62.25 82.35C63.06 83.64 63.15 84.06 63.15 86.07C63.15 89.19 62.04 91.2 59.7 92.4C56.07 94.26 51.36 92.76 49.77 89.28C48.69 86.88 49.17 83.1 50.79 81.36C52.83 79.17 56.97 78.63 59.94 80.16ZM74.58 80.1L75.96 80.79L75.21 81.51C74.52 82.23 74.43 82.23 73.56 81.78C72.54 81.24 69.87 81.15 69.03 81.6C68.28 81.99 68.04 82.71 68.4 83.4C68.58 83.7 69.93 84.45 71.58 85.08C73.17 85.68 74.79 86.46 75.18 86.82C76.68 88.14 76.59 90.54 75 91.89C73.92 92.82 71.25 93.42 69.51 93.15C68.13 92.94 65.1 91.68 65.1 91.32C65.1 91.2 65.4 90.78 65.76 90.39L66.39 89.7L67.41 90.33C68.04 90.72 69.15 91.02 70.29 91.11C71.88 91.23 72.27 91.17 72.99 90.6C74.64 89.28 73.95 88.38 70.2 87C68.79 86.49 67.44 85.92 67.2 85.71C66.3 85.02 65.7 83.85 65.7 82.86C65.7 81.18 66.48 80.4 69.3 79.38C70.2 79.05 73.23 79.47 74.58 80.1ZM32.31 80.19C34.17 81.18 34.5 83.43 33.03 84.9L32.16 85.77L33.27 86.34C35.16 87.3 35.43 89.73 33.84 91.41C32.82 92.49 30.63 93 26.79 93H23.4V86.22V79.44L27.39 79.56C30.36 79.65 31.59 79.8 32.31 80.19ZM46.8 80.4V81.27L43.44 81.36L40.05 81.45L39.96 83.16L39.87 84.9H42.9H45.9V85.95V87H42.9H39.87L39.96 89.01L40.05 91.05L43.59 91.14L47.1 91.23V92.1V93H42.3H37.5V86.25V79.5H42.15H46.8V80.4ZM81.6 86.25L81.63 93H80.25H78.9V86.25V79.5H80.22H81.57L81.6 86.25ZM91.17 84.6C93.06 87.42 94.62 89.7 94.65 89.7C94.65 89.7 94.62 87.39 94.56 84.6L94.44 79.5H95.67H96.9V86.25V93H95.64C94.17 92.97 94.62 93.48 90.45 87.3C88.83 84.9 87.51 82.92 87.48 82.89C87.45 82.86 87.48 85.11 87.54 87.93L87.66 93H86.28H84.9V86.25V79.5H86.34L87.75 79.53L91.17 84.6Z" fill="black"/>
<path d="M57.63 23.64C54.81 25.17 47.94 27.48 43.92 28.23C40.71 28.86 40.47 28.95 40.62 29.52C40.71 29.88 41.25 34.05 41.85 38.85C42.96 47.64 43.71 51.87 44.49 53.73C45.12 55.26 47.61 57.84 50.88 60.33C52.44 61.56 55.11 63.6 56.76 64.86C58.41 66.15 59.91 67.2 60.12 67.2C60.45 67.2 65.82 63.15 70.74 59.22C73.29 57.18 74.88 55.44 75.69 53.82C76.44 52.32 77.31 47.61 78.45 38.4C79.05 33.69 79.59 29.64 79.68 29.34C79.8 28.95 79.44 28.8 77.64 28.5C72.63 27.66 66.78 25.77 62.37 23.55C61.2 22.98 60.12 22.53 59.91 22.53C59.7 22.56 58.68 23.04 57.63 23.64ZM56.64 37.05C56.73 42.21 56.79 42.3 60.18 42.3C63.51 42.3 63.6 42.15 63.6 36.9V32.67L68.34 32.76L73.05 32.85L73.14 37.56L73.23 42.3H69.21C63.96 42.3 63.9 42.33 63.9 45.78C63.9 49.32 64.02 49.5 66.6 49.5H68.7V52.05V54.6H66.3H63.9V53.28C63.9 51.63 63.39 50.16 62.7 49.8C62.4 49.62 61.2 49.5 60.06 49.5C57.15 49.5 56.64 49.95 56.46 52.62L56.34 54.6H53.97H51.6V52.05V49.5H53.52C56.16 49.5 56.4 49.23 56.4 46.02C56.4 42.36 56.31 42.3 51.15 42.3H47.1V37.71C47.1 35.16 47.19 33 47.31 32.88C47.43 32.79 49.56 32.73 52.02 32.76L56.55 32.85L56.64 37.05Z" fill="black"/>
<path d="M49.2 37.5V40.2H51.9H54.6V37.5V34.8H51.9H49.2V37.5Z" fill="black"/>
<path d="M65.7 37.5V40.2H68.4H71.1V37.5V34.8H68.4H65.7V37.5Z" fill="black"/>
<path d="M57.8999 45.9V48H59.9999H62.0999V45.9V43.8H59.9999H57.8999V45.9Z" fill="black"/>
<path d="M54.12 81.5999C52.17 82.3799 51.27 86.2499 52.44 88.8599C53.4 91.0499 56.28 91.9199 58.41 90.5999C60.99 89.0399 61.26 84.2699 58.92 82.1999C58.05 81.4499 57.63 81.2999 56.31 81.3299C55.44 81.3299 54.45 81.4499 54.12 81.5999Z" fill="black"/>
<path d="M25.86 83.13L25.95 85.05L27.99 84.99C30.3 84.96 31.5 84.36 31.5 83.31C31.5 81.87 30.84 81.48 28.2 81.36L25.77 81.24L25.86 83.13Z" fill="black"/>
<path d="M26.04 86.88C25.89 87 25.8 88.02 25.8 89.16V91.2H27.69C30.39 91.2 31.65 90.78 32.1 89.73C32.52 88.65 32.28 87.72 31.44 87.27C30.69 86.85 26.34 86.55 26.04 86.88Z" fill="black"/>
</g>
<defs>
<clipPath id="clip0_436_924">
<rect width="120" height="120" rx="60" fill="white"/>
</clipPath>
</defs>
</svg>
