<svg width="120" height="120" viewBox="0 0 120 120" fill="none" xmlns="http://www.w3.org/2000/svg">
<rect width="120" height="120" rx="60" fill="black"/>
<path fill-rule="evenodd" clip-rule="evenodd" d="M91.0765 34.7453L91.48 37.184C91.7979 39.4527 91.9451 41.742 91.9206 44.0327C91.9179 49.095 91.3073 54.1384 90.1016 59.0549C88.4713 65.7345 85.6314 72.0589 81.7229 77.7152C77.2064 84.2113 70.6757 90.6007 61.1566 95.7345L59.9919 96.3622L58.8275 95.7345C49.3083 90.6007 42.7804 84.2113 38.2611 77.7152C34.3526 72.0589 31.5128 65.7345 29.8824 59.0549C28.677 54.1393 28.0663 49.0967 28.0634 44.0354C28.0388 41.7447 28.1862 39.4553 28.5042 37.1867L28.9075 34.7479C28.9419 34.5491 28.9366 34.3453 28.892 34.1485C28.8473 33.9517 28.7641 33.7656 28.6472 33.6011C28.5303 33.4365 28.382 33.2967 28.2109 33.1898C28.0397 33.0828 27.8491 33.0108 27.65 32.9778C27.4508 32.9448 27.2472 32.9516 27.0507 32.9978C26.8542 33.0439 26.6688 33.1284 26.5051 33.2466C26.3414 33.3647 26.2028 33.514 26.0971 33.6859C25.9914 33.8579 25.9208 34.0491 25.8893 34.2485L25.486 36.6872C25.1391 39.1208 24.9775 41.5772 25.0025 44.0354C25.0044 49.346 25.6447 54.637 26.9096 59.7949C28.6314 66.8383 31.6287 73.5068 35.7531 79.4701C40.5208 86.3323 47.4359 93.0794 57.3878 98.4349L59.2788 99.4525C59.5017 99.5731 59.7508 99.6361 60.004 99.6361C60.2572 99.6361 60.5065 99.5731 60.7292 99.4525L62.6175 98.4349C72.5589 93.0768 79.4766 86.3323 84.2523 79.4701C88.3747 73.5071 91.3701 66.8397 93.0904 59.7976C94.3553 54.6397 94.9956 49.3487 94.9975 44.0381C95.0226 41.5799 94.8608 39.1235 94.5141 36.6898L94.1107 34.2511C94.0793 34.0517 94.0086 33.8606 93.903 33.6886C93.7974 33.5167 93.6586 33.3673 93.4949 33.2492C93.3313 33.1311 93.1458 33.0466 92.9493 33.0004C92.7529 32.9543 92.5492 32.9475 92.35 32.9805C92.1509 33.0134 91.9602 33.0855 91.7891 33.1924C91.6179 33.2994 91.4696 33.4392 91.3529 33.6037C91.236 33.7683 91.1528 33.9543 91.1082 34.1512C91.0635 34.348 91.0581 34.5517 91.0926 34.7506L91.0765 34.7453Z" fill="white"/>
<path fill-rule="evenodd" clip-rule="evenodd" d="M37.2672 33.086L59.9977 26.1412L83.2357 33.2356C83.6247 33.3519 84.044 33.3093 84.4018 33.1173C84.7595 32.9252 85.0266 32.5992 85.1445 32.2106C85.2625 31.8221 85.2217 31.4027 85.0312 31.0441C84.8407 30.6855 84.5159 30.417 84.1278 30.2974L60.4437 23.0668C60.1531 22.9777 59.8423 22.9777 59.5515 23.0668L36.3724 30.1425C36.1787 30.2004 35.9983 30.296 35.8417 30.4238C35.685 30.5516 35.5551 30.7091 35.4595 30.8872C35.3639 31.0653 35.3044 31.2606 35.2844 31.4617C35.2644 31.6629 35.2843 31.8661 35.3431 32.0595C35.4018 32.253 35.4982 32.4329 35.6267 32.5891C35.7551 32.7452 35.9131 32.8744 36.0917 32.9692C36.2702 33.0641 36.4657 33.1228 36.667 33.1419C36.8682 33.161 37.0713 33.1402 37.2645 33.0807L37.2672 33.086Z" fill="white"/>
<path fill-rule="evenodd" clip-rule="evenodd" d="M26.0397 35.1971L58.6275 98.8012C58.7545 99.0498 58.9473 99.2589 59.1848 99.4055C59.4222 99.5523 59.6953 99.6313 59.9746 99.6338C60.2536 99.6362 60.5281 99.5623 60.7682 99.4197C61.0081 99.2771 61.2046 99.0715 61.336 98.8252L81.2092 61.6569L81.2385 61.5983L93.9586 35.1544C94.1309 34.7894 94.1524 34.3712 94.018 33.9906C93.8839 33.61 93.6048 33.2977 93.2415 33.1218C92.8783 32.9458 92.4603 32.9203 92.0783 33.0508C91.6964 33.1813 91.3815 33.4574 91.2019 33.8188L78.5033 60.2412L60.0351 94.8052L28.7616 33.7975C28.6715 33.6163 28.5463 33.4549 28.3933 33.3225C28.2403 33.19 28.0626 33.0893 27.8704 33.0261C27.6782 32.9628 27.4754 32.9384 27.2737 32.9541C27.072 32.9698 26.8754 33.0254 26.6953 33.1177C26.5152 33.2099 26.3552 33.337 26.2246 33.4915C26.094 33.646 25.9954 33.8249 25.9344 34.0178C25.8734 34.2107 25.8513 34.4138 25.8694 34.6153C25.8875 34.8169 25.9454 35.0128 26.0397 35.1918V35.1971Z" fill="white"/>
<path fill-rule="evenodd" clip-rule="evenodd" d="M41.643 63.5232H77.8813C78.2868 63.5232 78.6757 63.3622 78.9626 63.0753C79.2493 62.7886 79.4104 62.3997 79.4104 61.994C79.4104 61.5885 79.2493 61.1996 78.9626 60.9127C78.6757 60.626 78.2868 60.4648 77.8813 60.4648H41.643C41.2374 60.4648 40.8484 60.626 40.5617 60.9127C40.2749 61.1996 40.1138 61.5885 40.1138 61.994C40.1138 62.3997 40.2749 62.7886 40.5617 63.0753C40.8484 63.3622 41.2374 63.5232 41.643 63.5232Z" fill="white"/>
</svg>
