<svg width="120" height="120" viewBox="0 0 120 120" fill="none" xmlns="http://www.w3.org/2000/svg">
<rect width="120" height="120" rx="60" fill="#37357C"/>
<path d="M78.6568 73.7291C74.4417 73.7291 70.2675 72.0068 68.0159 69.7553C65.7644 67.5037 63.6084 64.1468 63.6084 60.3324C63.6084 56.5179 64.9949 53.3375 68.1116 50.2208C71.2282 47.1042 76.0114 46.2311 78.8321 46.2311C81.6528 46.2311 83.8748 47.3637 83.8748 47.3637L87.3625 44.436C87.3625 44.436 83.2544 42.1605 78.864 42.1605C72.8389 42.1605 68.4792 44.4678 65.3068 46.9038C62.1343 49.3398 59.185 54.4678 59.185 60.3324C59.185 66.1969 62.5828 70.6522 64.8902 72.7353C67.1975 74.8184 72.1446 77.8099 79.152 77.8099C86.1594 77.8099 90.6898 73.6084 90.6898 73.6084L93.7427 76.2629C92.3961 77.8008 86.1389 81.613 78.9915 81.613C71.2999 81.613 66.4917 79.177 61.9089 75.2988C57.3261 71.4206 55.0825 64.9141 55.0825 60.3312C55.0825 54.9789 57.0063 48.3665 62.9562 43.8361C68.576 39.5572 74.1047 38.4143 78.8958 38.5384C88.7035 38.7934 93.6801 43.8179 93.6801 43.8179L84.3347 51.6562C81.6528 49.9363 78.7262 50.0968 78.7262 50.0968C71.7393 50.0968 67.679 55.5879 67.679 60.3312C67.679 65.0746 72.4064 69.8179 78.4644 69.8179C84.5225 69.8179 87.8497 65.6779 87.8497 65.6779L84.7581 62.9869C80.6079 66.8332 76.8674 65.9829 75.1952 64.9937C73.7052 64.1127 72.2094 62.4132 72.2094 60.3301C72.2094 58.247 73.5936 55.2658 76.2049 54.5828C81.2134 53.2715 84.7627 56.6386 84.7627 56.6386L100 43.8509C100 43.8509 94.313 37.8953 86.6534 35.4593C78.9937 33.0233 71.6005 35.1281 71.6005 35.1281L58.4815 22L20 60.3324L58.4815 98.9152L72.3597 85.0427C74.4109 85.5879 80.8526 86.2925 87.6471 84.3051C94.4417 82.3176 99.9943 76.2368 99.9943 76.2368L90.6306 68.0956C87.3455 71.7814 82.8719 73.7279 78.6568 73.7279V73.7291ZM58.5236 30.148L65.5549 37.177C65.5549 37.177 61.6949 39.2863 57.1679 43.8133L50.9812 37.6255L58.5236 30.148ZM46.9061 41.6665L53.7097 48.5065C53.218 49.1258 52.568 50.6215 52.568 50.6215L46.8276 56.3381L39.4969 49.0131L46.9061 41.6653V41.6665ZM28.082 60.3324L35.4365 53.0415L42.7331 60.3802L35.4024 67.6631L28.082 60.3312V60.3324ZM39.4832 71.745L46.782 64.4565L52.3961 70.0945C52.9516 71.5367 53.7063 72.6466 53.7063 72.6466L47.0256 79.2874L39.4832 71.745ZM58.4861 90.7513L51.103 83.3682L57.1736 77.292C57.1736 77.292 60.0239 80.4622 64.8958 82.7274L65.745 83.5424L58.4872 90.7513H58.4861Z" fill="white"/>
</svg>
