<svg width="120" height="120" viewBox="0 0 120 120" fill="none" xmlns="http://www.w3.org/2000/svg">
<g clip-path="url(#clip0_435_903)">
<path d="M60.0024 120.005C93.1408 120.005 120.005 93.1408 120.005 60.0024C120.005 26.864 93.1408 0 60.0024 0C26.864 0 0 26.864 0 60.0024C0 93.1408 26.864 120.005 60.0024 120.005Z" fill="#616161"/>
<path d="M60.0024 98.1845C38.9121 98.1845 21.8204 81.0927 21.8204 60.0024C21.8204 38.9121 38.9121 21.8204 60.0024 21.8204C70.5427 21.8204 80.087 26.0945 87.0011 33.0037L102.43 17.5752C91.5702 6.71582 76.5671 0 60.0024 0C26.8633 0 0 26.8633 0 60.0024C0 93.1415 26.8633 120.005 60.0024 120.005C76.572 120.005 91.5702 113.289 102.434 102.434L87.0059 87.0059C80.087 93.9103 70.5427 98.1845 60.0024 98.1845Z" fill="#9E9E9E"/>
<path d="M98.1844 60.0024H79.091C79.091 49.4621 70.5427 40.9089 59.9975 40.9089C49.4524 40.9089 40.9089 49.4572 40.9089 60.0024C40.9089 65.1372 42.9396 69.7933 46.2419 73.2309L46.2274 73.2455L69.8658 96.8838L69.8706 96.8886C86.1743 92.5371 98.1844 77.6743 98.1844 60.0024Z" fill="#424242"/>
<path d="M120 60.0024H98.1796C98.1796 77.6744 86.1646 92.5372 69.8706 96.8887L86.7206 113.739C106.447 103.909 120 83.5392 120 60.0024Z" fill="#616161"/>
<path d="M60.0024 119.318C26.9793 119.318 0.1934 92.6388 0.00483502 59.6592C0.00483502 59.7752 0 59.8864 0 60.0025C0 93.1416 26.8633 120.005 60.0024 120.005C93.1415 120.005 120.005 93.1416 120.005 60.0025C120.005 59.8864 120 59.7752 120 59.6592C119.811 92.6388 93.0207 119.318 60.0024 119.318Z" fill="#212121" fill-opacity="0.1"/>
<path d="M69.8755 96.8887L70.4073 97.4205C86.4305 92.895 98.1844 78.1676 98.1844 60.6842V60.0024C98.1844 77.6744 86.1695 92.5372 69.8755 96.8887Z" fill="white" fill-opacity="0.05"/>
<path d="M109.095 54.5464H60.0003C56.9881 54.5464 54.5464 56.9881 54.5464 60.0003C54.5464 63.0125 56.9881 65.4542 60.0003 65.4542H109.09C112.102 65.4542 114.544 63.0125 114.544 60.0003C114.549 56.9881 112.107 54.5464 109.095 54.5464Z" fill="#9E9E9E"/>
<path opacity="0.5" d="M109.095 54.5464H60.0003C56.9881 54.5464 54.5464 56.9881 54.5464 60.0003C54.5464 63.0125 56.9881 65.4542 60.0003 65.4542H109.09C112.102 65.4542 114.544 63.0125 114.544 60.0003C114.549 56.9881 112.107 54.5464 109.095 54.5464Z" fill="#BDBDBD"/>
<path d="M10.9078 64.0929C13.1669 64.0929 14.9982 62.2616 14.9982 60.0025C14.9982 57.7434 13.1669 55.9121 10.9078 55.9121C8.64872 55.9121 6.81738 57.7434 6.81738 60.0025C6.81738 62.2616 8.64872 64.0929 10.9078 64.0929Z" fill="#BDBDBD"/>
<path d="M60.0025 14.9982C62.2616 14.9982 64.0929 13.1669 64.0929 10.9078C64.0929 8.64872 62.2616 6.81738 60.0025 6.81738C57.7434 6.81738 55.9121 8.64872 55.9121 10.9078C55.9121 13.1669 57.7434 14.9982 60.0025 14.9982Z" fill="#BDBDBD"/>
<path d="M60.0025 113.183C62.2616 113.183 64.0929 111.351 64.0929 109.092C64.0929 106.833 62.2616 105.002 60.0025 105.002C57.7434 105.002 55.9121 106.833 55.9121 109.092C55.9121 111.351 57.7434 113.183 60.0025 113.183Z" fill="#BDBDBD"/>
<path d="M25.2291 29.3776C27.4882 29.3776 29.3195 27.5463 29.3195 25.2872C29.3195 23.0281 27.4882 21.1968 25.2291 21.1968C22.97 21.1968 21.1387 23.0281 21.1387 25.2872C21.1387 27.5463 22.97 29.3776 25.2291 29.3776Z" fill="#BDBDBD"/>
<path d="M25.2291 98.8661C27.4882 98.8661 29.3195 97.0348 29.3195 94.7757C29.3195 92.5166 27.4882 90.6853 25.2291 90.6853C22.97 90.6853 21.1387 92.5166 21.1387 94.7757C21.1387 97.0348 22.97 98.8661 25.2291 98.8661Z" fill="#BDBDBD"/>
<path d="M94.7757 98.8661C97.0348 98.8661 98.8661 97.0348 98.8661 94.7757C98.8661 92.5166 97.0348 90.6853 94.7757 90.6853C92.5166 90.6853 90.6853 92.5166 90.6853 94.7757C90.6853 97.0348 92.5166 98.8661 94.7757 98.8661Z" fill="#757575"/>
<path d="M60.0025 55.2303H109.092C111.988 55.2303 114.358 57.4931 114.527 60.3458C114.532 60.2297 114.546 60.1185 114.546 60.0025C114.546 56.9903 112.104 54.5486 109.092 54.5486H60.0025C56.9903 54.5486 54.5486 56.9903 54.5486 60.0025C54.5486 60.1185 54.5534 60.2297 54.5679 60.3458C54.7372 57.4931 57.1015 55.2303 60.0025 55.2303Z" fill="white" fill-opacity="0.2"/>
<path d="M114.527 60.3408C114.348 63.1886 111.984 65.4563 109.092 65.4563H60.0025C57.1063 65.4563 54.7372 63.1935 54.5679 60.3408C54.5534 60.4569 54.5486 60.5681 54.5486 60.6793C54.5486 63.6915 56.9903 66.1332 60.0025 66.1332H109.092C112.104 66.1332 114.546 63.6915 114.546 60.6793C114.546 60.5681 114.541 60.4569 114.527 60.3408Z" fill="#212121" fill-opacity="0.2"/>
<path d="M60.0024 22.502C70.5427 22.502 80.087 26.7762 87.001 33.6854L102.763 17.9136C102.647 17.7976 102.536 17.6815 102.425 17.5703L87.001 32.9988C80.087 26.0896 70.5427 21.8154 60.0024 21.8154C38.9121 21.8154 21.8203 38.9072 21.8203 59.9975C21.8203 60.1135 21.8251 60.2247 21.8251 60.3408C22.0089 39.41 39.0281 22.502 60.0024 22.502Z" fill="#212121" fill-opacity="0.1"/>
<path d="M60.0024 120.005C93.1408 120.005 120.005 93.1408 120.005 60.0024C120.005 26.864 93.1408 0 60.0024 0C26.864 0 0 26.864 0 60.0024C0 93.1408 26.864 120.005 60.0024 120.005Z" fill="url(#paint0_radial_435_903)"/>
</g>
<defs>
<radialGradient id="paint0_radial_435_903" cx="0" cy="0" r="1" gradientUnits="userSpaceOnUse" gradientTransform="translate(17.5961 17.4594) scale(119.798)">
<stop stop-color="white" stop-opacity="0.1"/>
<stop offset="1" stop-color="white" stop-opacity="0"/>
</radialGradient>
<clipPath id="clip0_435_903">
<rect width="120" height="120" fill="white"/>
</clipPath>
</defs>
</svg>
