<svg width="120" height="120" viewBox="0 0 120 120" fill="none" xmlns="http://www.w3.org/2000/svg">
<rect width="120" height="120" rx="60" fill="#64DDA3"/>
<path fill-rule="evenodd" clip-rule="evenodd" d="M33.3026 37H29V83.1399H33.3026V70.6752H37.4004V83.1399H41.7029V70.6752H45.8007V83.1399H50.1033V70.6752H70.7967V83.1399H75.0994V66.3839H70.7967H50.1033H45.8007H41.7029H37.4004H33.3026V62.338H79.1971V83.1397H83.4998V62.338H87.5975V83.1399H91.9V37H87.5975V49.6689H83.4998V37H79.1971V49.6689H75.0994V37H70.7967V49.6689H50.1033V37H45.8007V49.6689V53.9601H50.1033H87.5975V58.047H83.4998V58.0061H79.1971V58.047H41.7029V37H37.4003V58.047H33.3026V37Z" fill="white"/>
</svg>
