<svg width="120" height="120" viewBox="0 0 120 120" fill="none" xmlns="http://www.w3.org/2000/svg">
<rect width="120" height="120" rx="60" fill="black"/>
<path d="M57.52 32.2862C56.4 33.6462 52.56 36.1662 49.44 37.6062C45.28 39.5262 40.6 40.6862 34.72 41.2862L30 41.7662V44.0062C30 47.6862 30.8 54.7662 31.6 58.5662C34.24 70.6462 41.6 82.4462 51.2 89.8862C54.28 92.2862 57.56 94.4062 58.2 94.4062C59.56 94.4062 66.56 89.1262 70.56 85.0462L75 80.6062L73.08 80.4862C71.16 80.3662 71.12 80.4062 67.84 83.4862C66.04 85.2062 63.76 87.1262 62.76 87.7662C61.8 88.4062 60.52 89.2462 59.92 89.6862C59.32 90.0862 58.72 90.4062 58.6 90.4062C58.48 90.4062 58.4 78.2462 58.4 63.4062C58.4 48.5662 58.52 36.4062 58.64 36.4062C58.8 36.4062 59.6 37.0462 60.48 37.8062C61.32 38.6062 63.24 39.8062 64.72 40.5262C69.08 42.6862 68.8 42.6862 68.8 40.2062C68.8 38.7262 68.64 38.0062 68.32 38.0062C67.2 38.0062 62.88 35.5662 60.52 33.6862C58.32 31.8862 58 31.7262 57.52 32.2862Z" fill="white"/>
<path d="M70.88 37.4861C71 39.2461 71.08 39.4061 72.12 39.5261C73.12 39.6461 73.2 39.7661 73.2 41.6461C73.2 43.1261 73.04 43.6061 72.6 43.6061C72.12 43.6061 72 44.2461 72 46.8061V50.0061H68.8C65.64 50.0061 65.6 50.0061 65.6 49.0061C65.6 48.0461 65.72 48.0061 68 48.0061H70.4V45.6061V43.2061H67.8H65.2V46.6061V50.0061H63H60.8V53.0061V56.0061H64H67.2V53.1661V50.2861L70.88 50.5661C72.88 50.7261 74.68 50.9261 74.88 51.0461C75.04 51.1661 75.2 52.3261 75.2 53.6461C75.2 55.4061 75.04 56.0861 74.6 56.2461C74.28 56.4061 74 56.9261 74 57.4861C74 58.3261 74.16 58.4461 75.12 58.3261C75.88 58.2461 76.24 57.9661 76.32 57.2861C76.4 56.8061 76.28 56.4061 76.04 56.4061C75.8 56.4061 75.6 56.1261 75.6 55.8061C75.6 55.3661 76.12 55.2061 77.76 55.2061H79.96L80.08 56.6861L80.2 58.2061L85.72 58.0861L91.2 57.9661V59.9261C91.2 61.0461 90.96 62.0861 90.72 62.3261C90.44 62.5261 88.72 62.8461 86.92 63.0061C83.96 63.2461 83.6 63.2061 83.6 62.6061C83.6 62.0861 83.28 61.9661 81.92 62.0861C80.32 62.2061 80.2 62.2861 80.08 63.4861C79.96 64.6861 79.84 64.8061 78.56 64.8061H77.2V62.2061V59.6061H72.8H68.4V63.5261C68.4 67.8061 68.16 68.4061 66.32 68.4061C65.4 68.4061 65.2 68.5661 65.2 69.4061C65.2 70.2461 65.4 70.4061 66.4 70.4061C67.28 70.4061 67.6 70.2061 67.6 69.6861C67.6 68.3261 68.92 67.5661 71.04 67.6861L73 67.8061V70.0061V72.2061L71.32 72.3261C69.6 72.4461 69.6 72.4461 69.6 74.0461V75.6061H71.6H73.6V71.6061V67.6061H75.4C77.12 67.6061 77.2 67.5661 77.2 66.4061V65.2061H80.4C83.32 65.2061 83.6 65.1261 83.6 64.4061C83.6 63.7261 83.88 63.6061 85.2 63.6061C86.76 63.6061 86.8 63.6461 86.8 65.0061C86.8 66.0061 86.96 66.4061 87.44 66.4061C87.92 66.4061 88 66.7661 87.92 67.8861L87.8 69.4061L85.72 69.5261L83.6 69.6461V71.2461V72.8061H80.4H77.2V75.4061V78.0461L80.12 77.9261L83 77.8061L83.12 75.4861L83.24 73.2061H85.8H88.4V69.8061V66.4061H89.8H91.2V64.4061V62.4061H94.6H98V59.2061V56.0061H96.6H95.2V51.6061V47.2061H96.2C97.12 47.2061 97.2 47.0461 97.2 45.5661V43.9661L95.72 44.0861C94.32 44.2061 94.2 44.3261 94.08 45.4861C93.96 46.6861 93.84 46.8061 92.56 46.8061C91.8 46.8061 91.2 46.6061 91.2 46.4061C91.2 46.1661 90.48 46.0061 89.6 46.0061C88.04 46.0061 88 46.0461 88 47.4061C88 48.7661 88.04 48.8061 89.6 48.8061C90.92 48.8061 91.2 48.6861 91.2 48.0061C91.2 47.3261 91.48 47.2061 93 47.2061H94.8V51.6061V56.0061H93C91.68 56.0061 91.2 56.1661 91.2 56.6061C91.2 57.0861 90.68 57.2061 88.8 57.2061H86.4V55.0061V52.8061H84.8H83.2V48.2061C83.2 43.8861 83.24 43.6061 84 43.6061C84.68 43.6061 84.8 43.3261 84.8 41.6061V39.6061H82.2H79.6V41.6061V43.6061H76.6H73.6V41.6061C73.6 39.8861 73.72 39.6061 74.4 39.6061C75.08 39.6061 75.2 39.3261 75.2 37.6061V35.6061H72.96H70.76L70.88 37.4861ZM82.6 48.2061V52.6061L81.32 52.7261C80.24 52.8461 80 53.0061 80 53.8461C80 54.7661 79.88 54.8061 77.8 54.8061H75.6V52.8061V50.8061H77.8H80V47.1661V43.5661L81.32 43.6861L82.6 43.8061V48.2061Z" fill="white"/>
</svg>
