<svg width="120" height="120" viewBox="0 0 120 120" fill="none" xmlns="http://www.w3.org/2000/svg">
<g clip-path="url(#clip0_434_794)">
<path d="M54.75 0.412482C33.9 2.36248 15.675 14.7375 6.56246 33.1875C2.88746 40.6125 1.23746 46.2375 0.337458 54.5625C-1.61254 72.675 6.26246 92.5125 20.25 104.85C36.45 119.1 58.575 123.6 79.0875 116.775C98.625 110.287 113.737 93.6375 118.35 73.5C119.737 67.3125 120.225 60.9 119.7 55.2C118.875 46.575 117.262 40.875 113.437 33.1875C106.387 18.9 93.525 7.91248 78.225 3.03748C71.175 0.787484 61.875 -0.262518 54.75 0.412482ZM64.575 18.3C65.3625 18.7875 66 19.4625 66 19.7625C66 20.0625 66.1875 20.175 66.4125 20.0625C66.825 19.8 70.875 21.75 70.875 22.2C70.875 22.3875 71.0625 22.5 71.2875 22.5C72.0375 22.5 76.125 24.1875 76.125 24.45C76.125 24.6375 74.5125 24.75 72.5625 24.75H69V23.4375C69 22.725 68.85 22.125 68.7 22.125C68.55 22.125 68.475 22.725 68.55 23.4375C68.7 24.5625 68.5875 24.75 67.9125 24.75C67.05 24.75 64.5375 23.4375 63.9375 22.725C63.75 22.4625 63.4125 22.2 63.1875 22.125C63 22.05 62.175 21.6 61.425 21.075C60.0375 20.175 60 20.0625 60 17.925V15.75L61.575 16.5375C62.475 16.9875 63.825 17.775 64.575 18.3ZM58.2 19.3125C58.05 21.375 58.0125 21.45 55.95 23.0625C53.025 25.35 46.6875 28.575 41.85 30.1875C37.4625 31.65 30.375 33 27.1875 33H25.2L24.9375 36.975C24.075 49.6125 27.4125 63.525 34.0875 74.9625C39.075 83.475 48.975 93.7125 56.5125 98.1375C58.125 99.075 58.125 99.075 58.125 101.287C58.125 102.637 57.975 103.5 57.7125 103.5C57.1125 103.5 52.8 100.537 49.3125 97.725C45.4875 94.65 39.075 88.0875 36.0375 84.075C25.875 70.65 20.625 54.8625 20.625 37.725C20.625 35.4375 20.7375 32.7 20.85 31.6875L21.075 29.775L25.65 29.325C36.7125 28.275 49.2375 23.55 56.5875 17.6625C57.3375 17.0625 58.0125 16.6875 58.125 16.875C58.2375 17.025 58.2375 18.1125 58.2 19.3125ZM78.15 24.975C78.6 25.1625 78.75 25.7625 78.75 27.4125C78.75 28.6125 78.675 29.625 78.6 29.625C78.4875 29.625 78 29.475 77.5125 29.2875C76.725 28.9875 76.575 28.6875 76.575 27.15C76.5 24.7875 76.7625 24.45 78.15 24.975ZM61.6125 25.95C62.2875 26.3625 63 26.925 63.1875 27.15C63.6375 27.6375 65.25 28.575 67.2 29.5125C68.5875 30.15 68.5875 30.15 68.5875 32.5125V34.875H65.925C64.4625 34.875 63.375 34.9875 63.525 35.1375C63.675 35.2875 64.875 35.3625 66.1875 35.325L68.625 35.25V36.375C68.625 37.4625 68.625 37.4625 66.4875 37.4625C65.2875 37.425 64.2 37.2375 64.05 36.975C63.825 36.675 63.75 36.675 63.75 37.0125C63.75 37.3125 63.2625 37.5 62.625 37.5C61.6125 37.5 61.5 37.3875 61.5 36.375C61.5 35.475 61.65 35.25 62.3625 35.2125L63.1875 35.1375L62.3625 34.9875C61.8 34.875 61.5 34.5375 61.4625 34.0125C61.425 33.225 61.3875 33.225 61.2375 33.9375C61.125 34.35 60.8625 34.8 60.6 34.95C60.3 35.175 60.3375 35.25 60.675 35.25C60.9375 35.25 61.125 35.7375 61.125 36.375C61.125 37.125 60.9375 37.5 60.5625 37.5C60.075 37.5 60 36.6 60.0375 31.3125C60.075 27.9 60.15 25.125 60.2625 25.125C60.375 25.125 60.975 25.5 61.6125 25.95ZM76.125 26.9625V28.8375L75.0375 28.4625C74.25 28.2 73.9875 27.9 74.1375 27.4875C74.325 27.0375 74.175 26.9625 73.5 27.1875C73.05 27.3375 72.3 27.3 71.85 27.075C71.4375 26.8875 70.6125 26.55 70.05 26.2875C68.0625 25.5 68.925 25.125 72.5625 25.125H76.125V26.9625ZM80.85 25.8C81.075 25.95 81.3 26.85 81.3375 27.825C81.375 29.5875 81.3375 29.625 80.25 29.625C79.1625 29.625 79.1625 29.5875 79.1625 27.5625C79.2 25.9125 79.3125 25.5 79.8375 25.5C80.175 25.5 80.625 25.65 80.85 25.8ZM58.125 60.225C58.125 82.2375 58.0125 94.125 57.75 94.05C57.5625 93.975 55.8375 92.85 53.925 91.5C50.625 89.175 42 81.075 42 80.25C42 80.0625 42.6375 79.875 43.425 79.875C51.7125 79.875 57.4875 75.0375 57.4875 68.0625C57.525 62.625 55.1625 59.6625 47.925 56.1C42.7875 53.55 41.625 52.425 42.225 50.7375C42.825 48.9 44.625 48.375 50.9625 48.1125L56.625 47.8875V44.175V40.5H51.3C43.1625 40.5 39.5625 41.5125 36.675 44.5125C34.725 46.5375 33.75 48.825 33.75 51.6C33.75 57.1875 36.75 60.7875 43.425 63.225C49.2375 65.3625 50.8875 69.2625 46.875 71.3625C44.1375 72.7875 37.6125 71.2875 35.1375 68.7C33.2625 66.7125 30.525 58.275 29.4375 51.075C28.875 47.325 28.6875 37.6125 29.175 36.9C29.325 36.675 31.2 36.3 33.375 36.0375C41.925 35.025 49.425 32.25 56.0625 27.6C57.1125 26.8875 57.975 26.2875 58.05 26.2875C58.0875 26.25 58.125 41.55 58.125 60.225ZM83.25 26.55C83.55 26.7 83.85 27.4125 83.925 28.2C84.0375 29.55 84 29.625 82.9125 29.625C81.8625 29.625 81.75 29.5125 81.75 28.5C81.75 27.6 81.9 27.375 82.6125 27.3375L83.4375 27.2625L82.6125 27.1125C82.125 27.0375 81.75 26.775 81.75 26.5875C81.75 26.2125 82.425 26.175 83.25 26.55ZM86.25 27.7875C86.25 28.0875 86.4 28.0875 86.8125 27.75C87.6 27.075 88.875 27.6375 88.875 28.6875C88.875 29.5125 88.725 29.55 86.625 29.55C84.375 29.55 84.375 29.55 84.375 28.4625C84.375 27.5625 84.525 27.375 85.3125 27.375C85.8375 27.375 86.25 27.5625 86.25 27.7875ZM90.9 27.975C91.2375 28.0875 91.5 28.5375 91.5 28.9125C91.5 29.4375 91.2375 29.625 90.375 29.625C89.4375 29.625 89.25 29.475 89.25 28.6875C89.25 27.75 89.7375 27.525 90.9 27.975ZM94.05 28.95C94.1625 29.475 93.9375 29.625 93.0375 29.625C92.1 29.625 91.875 29.475 91.875 28.8375C91.875 28.2375 92.0625 28.0875 92.8875 28.2C93.525 28.275 93.975 28.575 94.05 28.95ZM96.675 28.95C96.4125 29.7 94.5 29.8125 94.5 29.1C94.5 28.6875 94.875 28.5 95.6625 28.5C96.4125 28.5 96.75 28.65 96.675 28.95ZM84 30.375C84 30.5625 83.5875 30.75 83.1 30.75C82.575 30.75 82.05 30.5625 81.9375 30.375C81.7875 30.15 82.2 30 82.8375 30C83.475 30 84 30.15 84 30.375ZM86.3625 30.525C86.6625 31.2375 86.4 31.425 85.3125 31.2C84.7875 31.125 84.375 30.7875 84.375 30.525C84.375 29.85 86.1 29.85 86.3625 30.525ZM88.875 30.75C88.875 31.3125 88.6125 31.5 87.9375 31.5C87.2625 31.5 87 31.3125 87 30.75C87 30.1875 87.2625 30 87.9375 30C88.6125 30 88.875 30.1875 88.875 30.75ZM91.5 30.975C91.5 31.8 91.35 31.9125 90.4875 31.8C89.7375 31.725 89.4 31.4625 89.325 30.825C89.2125 30.1125 89.3625 30 90.3375 30C91.35 30 91.5 30.15 91.5 30.975ZM94.125 30.8625C94.125 32.025 93.9375 32.175 92.8125 31.95C92.1375 31.8375 91.875 31.5375 91.875 30.9C91.875 30.15 92.0625 30 93 30C93.9375 30 94.125 30.15 94.125 30.8625ZM96.675 30.9C96.675 31.5 96.4125 31.875 95.8875 32.025C94.8375 32.2875 94.5 31.9875 94.5 30.9C94.5 30.15 94.6875 30 95.5875 30C96.45 30 96.675 30.15 96.675 30.9ZM97.875 30.9375C97.875 31.4625 97.725 31.875 97.5 31.875C97.3125 31.875 97.125 31.4625 97.125 30.9375C97.125 30.4125 97.3125 30 97.5 30C97.725 30 97.875 30.4125 97.875 30.9375ZM71.25 31.875C71.25 32.1 70.7625 32.25 70.125 32.25C69.1875 32.25 69 32.1 69 31.3125C69 30.375 69 30.375 70.125 30.9375C70.7625 31.275 71.25 31.6875 71.25 31.875ZM72.75 32.1C72.75 32.175 72.4875 32.25 72.1875 32.25C71.8875 32.25 71.625 32.1 71.625 31.875C71.625 31.6875 71.8875 31.6125 72.1875 31.725C72.4875 31.875 72.75 32.025 72.75 32.1ZM71.25 33.75C71.25 34.7625 71.1375 34.875 70.125 34.875C69.1125 34.875 69 34.7625 69 33.75C69 32.7375 69.1125 32.625 70.125 32.625C71.1375 32.625 71.25 32.7375 71.25 33.75ZM73.875 33.75C73.875 34.7625 73.7625 34.875 72.75 34.875C71.7375 34.875 71.625 34.7625 71.625 33.75C71.625 32.7375 71.7375 32.625 72.75 32.625C73.7625 32.625 73.875 32.7375 73.875 33.75ZM77.1 33.4125C79.575 34.05 79.2375 34.8 76.5 34.8375H74.25V33.675C74.25 32.775 74.3625 32.5875 74.85 32.775C75.1875 32.925 76.2 33.1875 77.1 33.4125ZM94.125 33.5625C94.125 34.0875 94.05 34.5 93.975 34.5C93.9 34.5 93.75 34.0875 93.675 33.5625C93.5625 33.0375 93.6375 32.625 93.7875 32.625C93.975 32.625 94.125 33.0375 94.125 33.5625ZM96.75 33.5625C96.75 34.35 96.5625 34.5 95.625 34.5C94.6875 34.5 94.5 34.35 94.5 33.5625C94.5 32.775 94.6875 32.625 95.625 32.625C96.5625 32.625 96.75 32.775 96.75 33.5625ZM97.875 33.5625C97.875 34.0875 97.725 34.5 97.5 34.5C97.3125 34.5 97.125 34.0875 97.125 33.5625C97.125 33.0375 97.3125 32.625 97.5 32.625C97.725 32.625 97.875 33.0375 97.875 33.5625ZM81.1875 34.5C81.3375 34.725 80.925 34.875 80.2875 34.875C79.65 34.875 79.125 34.6875 79.125 34.5C79.125 34.275 79.5375 34.125 80.025 34.125C80.55 34.125 81.075 34.275 81.1875 34.5ZM96.675 36.075C96.7875 37.0125 96.675 37.125 95.6625 37.125C94.6875 37.125 94.5 36.975 94.5 36.2625C94.5 35.775 94.6125 35.25 94.7625 35.1C95.4 34.4625 96.5625 35.1 96.675 36.075ZM98.025 35.7375C97.9125 36.975 97.875 37.125 97.5 37.125C97.3125 37.125 97.125 36.6 97.125 35.9625C97.125 35.2125 97.275 34.875 97.6125 34.95C97.8375 35.0625 98.025 35.4 98.025 35.7375ZM71.25 36.375C71.25 37.3875 71.1375 37.5 70.125 37.5C69.1125 37.5 69 37.3875 69 36.375C69 35.3625 69.1125 35.25 70.125 35.25C71.1375 35.25 71.25 35.3625 71.25 36.375ZM73.875 36.375C73.875 37.3875 73.7625 37.5 72.75 37.5C71.7375 37.5 71.625 37.3875 71.625 36.375C71.625 35.3625 71.7375 35.25 72.75 35.25C73.7625 35.25 73.875 35.3625 73.875 36.375ZM76.425 36.2625C76.35 37.0875 76.0875 37.35 75.3 37.425C74.3625 37.5375 74.25 37.425 74.25 36.4125C74.25 35.3625 74.3625 35.25 75.4125 35.25C76.425 35.25 76.5375 35.3625 76.425 36.2625ZM78.75 36.375C78.75 37.3125 78.6 37.5 77.8125 37.5C77.025 37.5 76.875 37.3125 76.875 36.375C76.875 35.4375 77.025 35.25 77.8125 35.25C78.6 35.25 78.75 35.4375 78.75 36.375ZM81.3 36.2625C81.225 37.0875 81 37.3125 80.25 37.3125C79.5 37.3125 79.275 37.0875 79.2 36.2625C79.0875 35.3625 79.2 35.25 80.25 35.25C81.3 35.25 81.4125 35.3625 81.3 36.2625ZM84 36.15C84 36.7875 83.7375 37.0875 83.0625 37.2C81.9375 37.425 81.75 37.275 81.75 36.1125C81.75 35.4 81.9375 35.25 82.875 35.25C83.8125 35.25 84 35.4 84 36.15ZM86.625 36.1875C86.625 36.975 86.4375 37.125 85.5 37.125C84.5625 37.125 84.375 36.975 84.375 36.1875C84.375 35.4 84.5625 35.25 85.5 35.25C86.4375 35.25 86.625 35.4 86.625 36.1875ZM88.875 35.5875C88.875 35.775 88.9875 36.1875 89.1 36.525C89.2875 37.0125 89.0625 37.125 88.1625 37.125C87.1875 37.125 87 36.975 87 36.1875C87 35.4375 87.1875 35.25 87.9375 35.25C88.4625 35.25 88.875 35.4 88.875 35.5875ZM94.0125 36.6375C93.9 37.0125 93.825 36.7875 93.825 36.1875C93.825 35.55 93.9 35.2875 94.0125 35.5125C94.0875 35.775 94.0875 36.3 94.0125 36.6375ZM86.55 38.7C86.6625 39.6375 86.55 39.75 85.5375 39.75C84.5625 39.75 84.375 39.6 84.375 38.8875C84.375 38.4 84.4875 37.875 84.6375 37.725C85.275 37.0875 86.4375 37.725 86.55 38.7ZM88.875 38.625C88.875 39.5625 88.725 39.75 87.9375 39.75C87.15 39.75 87 39.5625 87 38.625C87 37.6875 87.15 37.5 87.9375 37.5C88.725 37.5 88.875 37.6875 88.875 38.625ZM96.75 38.625C96.75 39.6375 96.6375 39.75 95.625 39.75C94.6125 39.75 94.5 39.6375 94.5 38.625C94.5 37.6125 94.6125 37.5 95.625 37.5C96.6375 37.5 96.75 37.6125 96.75 38.625ZM97.875 38.625C97.875 39.225 97.725 39.75 97.5 39.75C97.3125 39.75 97.125 39.225 97.125 38.625C97.125 37.9875 97.3125 37.5 97.5 37.5C97.725 37.5 97.875 37.9875 97.875 38.625ZM61.125 39C61.125 39.75 60.9375 40.125 60.5625 40.125C60.1875 40.125 60 39.75 60 39C60 38.25 60.1875 37.875 60.5625 37.875C60.9375 37.875 61.125 38.25 61.125 39ZM63.75 39C63.75 40.0125 63.6375 40.125 62.625 40.125C61.6125 40.125 61.5 40.0125 61.5 39C61.5 37.9875 61.6125 37.875 62.625 37.875C63.6375 37.875 63.75 37.9875 63.75 39ZM68.625 38.9625C68.625 40.05 68.625 40.05 66.375 40.05C64.125 40.05 64.125 40.05 64.125 38.9625C64.125 37.875 64.125 37.875 66.375 37.875C68.625 37.875 68.625 37.875 68.625 38.9625ZM71.25 39C71.25 40.0125 71.1375 40.125 70.125 40.125C69.1125 40.125 69 40.0125 69 39C69 37.9875 69.1125 37.875 70.125 37.875C71.1375 37.875 71.25 37.9875 71.25 39ZM73.8 38.8875C73.725 39.7125 73.4625 39.975 72.675 40.05C71.7375 40.1625 71.625 40.05 71.625 39.0375C71.625 37.9875 71.7375 37.875 72.7875 37.875C73.8 37.875 73.9125 37.9875 73.8 38.8875ZM76.5 38.8125C76.5 39.45 76.275 39.75 75.8625 39.75C75.3 39.75 75.3375 39.825 75.975 40.3125C76.65 40.8375 76.65 40.8375 75.5625 40.875C74.5125 40.875 74.4375 40.7625 74.325 39.375C74.25 37.95 74.2875 37.875 75.375 37.875C76.3125 37.875 76.5 38.025 76.5 38.8125ZM78.75 38.8125C78.75 39.5625 78.5625 39.75 77.8125 39.75C77.0625 39.75 76.875 39.5625 76.875 38.8125C76.875 38.0625 77.0625 37.875 77.8125 37.875C78.5625 37.875 78.75 38.0625 78.75 38.8125ZM81.375 38.8125C81.375 39.6 81.1875 39.75 80.25 39.75C79.3125 39.75 79.125 39.6 79.125 38.8125C79.125 38.025 79.3125 37.875 80.25 37.875C81.1875 37.875 81.375 38.025 81.375 38.8125ZM84 38.8125C84 39.6 83.8125 39.75 82.875 39.75C81.9375 39.75 81.75 39.6 81.75 38.8125C81.75 38.025 81.9375 37.875 82.875 37.875C83.8125 37.875 84 38.025 84 38.8125ZM78.75 40.9125C78.75 41.5125 78.6 41.625 77.925 41.4C76.8375 41.1 76.7625 41.025 77.0625 40.5375C77.5125 39.7875 78.75 40.05 78.75 40.9125ZM81.375 41.25C81.375 42.1125 81.1875 42.375 80.6625 42.375C79.7625 42.375 78.975 41.4375 79.275 40.6875C79.3875 40.3875 79.9125 40.125 80.4375 40.125C81.225 40.125 81.375 40.3125 81.375 41.25ZM84 41.25C84 42.2625 83.8875 42.375 82.875 42.375C81.9375 42.375 81.75 42.225 81.75 41.5125C81.75 41.025 81.8625 40.5 82.0125 40.3875C82.125 40.2375 82.65 40.125 83.1375 40.125C83.85 40.125 84 40.3125 84 41.25ZM86.55 41.325C86.6625 42.2625 86.55 42.375 85.5375 42.375C84.4875 42.375 84.375 42.2625 84.375 41.2125C84.375 40.2 84.4875 40.0875 85.425 40.2C86.2125 40.275 86.475 40.5375 86.55 41.325ZM89.0625 41.25C89.0625 42 88.8375 42.225 88.05 42.3C87.1125 42.4125 87 42.3 87 41.25C87 40.2 87.1125 40.0875 88.05 40.2C88.8375 40.275 89.0625 40.5 89.0625 41.25ZM96.675 41.1375C96.6 41.9625 96.375 42.1875 95.625 42.1875C94.875 42.1875 94.65 41.9625 94.575 41.1375C94.4625 40.2375 94.575 40.125 95.625 40.125C96.675 40.125 96.7875 40.2375 96.675 41.1375ZM97.875 41.0625C97.875 41.5875 97.725 42 97.5 42C97.3125 42 97.125 41.5875 97.125 41.0625C97.125 40.5375 97.3125 40.125 97.5 40.125C97.725 40.125 97.875 40.5375 97.875 41.0625ZM61.125 41.625C61.125 42.375 60.9375 42.75 60.5625 42.75C60.1875 42.75 60 42.375 60 41.625C60 40.875 60.1875 40.5 60.5625 40.5C60.9375 40.5 61.125 40.875 61.125 41.625ZM94.0125 41.7C93.9 41.9625 93.825 41.775 93.825 41.25C93.825 40.725 93.9 40.5375 94.0125 40.7625C94.0875 41.025 94.0875 41.475 94.0125 41.7ZM84 43.875C84 45.225 83.775 45.2625 82.6125 44.175C81.45 43.0875 81.525 42.75 82.875 42.75C83.8875 42.75 84 42.8625 84 43.875ZM86.55 43.7625C86.475 44.5875 86.2125 44.85 85.425 44.925C84.4875 45.0375 84.375 44.925 84.375 43.9125C84.375 42.8625 84.4875 42.75 85.5375 42.75C86.55 42.75 86.6625 42.8625 86.55 43.7625ZM89.0625 43.5C89.4 44.5125 89.025 45 87.9 45C87.15 45 87 44.8125 87 43.875C87 42.9375 87.15 42.75 87.9 42.75C88.5 42.75 88.9125 43.0125 89.0625 43.5ZM94.0125 44.1375C93.9 44.5125 93.825 44.2875 93.825 43.6875C93.825 43.05 93.9 42.7875 94.0125 43.0125C94.0875 43.275 94.0875 43.8 94.0125 44.1375ZM96.75 43.6875C96.75 44.475 96.5625 44.625 95.625 44.625C94.6875 44.625 94.5 44.475 94.5 43.6875C94.5 42.9 94.6875 42.75 95.625 42.75C96.5625 42.75 96.75 42.9 96.75 43.6875ZM97.875 43.6875C97.875 44.2125 97.725 44.625 97.5 44.625C97.3125 44.625 97.125 44.2125 97.125 43.6875C97.125 43.1625 97.3125 42.75 97.5 42.75C97.725 42.75 97.875 43.1625 97.875 43.6875ZM61.0875 45.375C61.0875 47.1 60.975 47.625 60.525 47.625C60.1125 47.625 60 47.1 60 45.375C60 43.6875 60.15 43.125 60.525 43.125C60.9375 43.125 61.05 43.6875 61.0875 45.375ZM86.625 46.3125C86.625 47.0625 86.4375 47.25 85.725 47.25C84.9 47.25 84.375 46.65 84.375 45.7125C84.375 45.525 84.9 45.375 85.5 45.375C86.4375 45.375 86.625 45.525 86.625 46.3125ZM89.25 46.3125C89.25 47.1 89.0625 47.25 88.125 47.25C87.1875 47.25 87 47.1 87 46.3125C87 45.525 87.1875 45.375 88.125 45.375C89.0625 45.375 89.25 45.525 89.25 46.3125ZM94.125 46.3125C94.125 46.8375 93.975 47.25 93.75 47.25C93.3375 47.25 93.225 46.0125 93.6375 45.6375C94.05 45.225 94.125 45.3375 94.125 46.3125ZM96.75 46.3125C96.75 47.0625 96.5625 47.25 95.85 47.25C95.025 47.25 94.5 46.65 94.5 45.7125C94.5 45.525 95.025 45.375 95.625 45.375C96.5625 45.375 96.75 45.525 96.75 46.3125ZM97.3875 46.2C97.275 46.5 97.1625 46.3875 97.1625 45.975C97.125 45.5625 97.2375 45.3375 97.35 45.4875C97.4625 45.6 97.5 45.9375 97.3875 46.2ZM96.675 48.825C96.7875 49.725 96.675 49.875 95.85 49.875C95.025 49.875 94.875 49.6875 94.875 48.7875C94.875 47.925 95.025 47.7375 95.7375 47.775C96.3375 47.8125 96.6 48.075 96.675 48.825ZM61.125 49.125C61.125 49.875 60.9375 50.25 60.5625 50.25C60.1875 50.25 60 49.875 60 49.125C60 48.375 60.1875 48 60.5625 48C60.9375 48 61.125 48.375 61.125 49.125ZM63.75 49.125C63.75 50.1375 63.6375 50.25 62.625 50.25C61.6125 50.25 61.5 50.1375 61.5 49.125C61.5 48.1125 61.6125 48 62.625 48C63.6375 48 63.75 48.1125 63.75 49.125ZM66.375 49.125C66.375 50.1375 66.2625 50.25 65.25 50.25C64.2375 50.25 64.125 50.1375 64.125 49.125C64.125 48.1125 64.2375 48 65.25 48C66.2625 48 66.375 48.1125 66.375 49.125ZM68.8125 49.125C68.8125 49.875 68.5875 50.1 67.8 50.175C66.8625 50.2875 66.75 50.175 66.75 49.125C66.75 48.075 66.8625 47.9625 67.7625 48.075C68.5875 48.15 68.8125 48.375 68.8125 49.125ZM71.25 49.125C71.25 50.0625 71.1 50.25 70.3125 50.25C69.525 50.25 69.375 50.0625 69.375 49.125C69.375 48.1875 69.525 48 70.3125 48C71.1 48 71.25 48.1875 71.25 49.125ZM73.875 49.35C73.875 50.0625 73.6875 50.25 72.9375 50.25C71.925 50.25 71.4 49.5 71.7375 48.6C71.85 48.2625 72.3 48.15 72.9 48.2625C73.6125 48.4125 73.875 48.675 73.875 49.35ZM86.625 48.9375C86.625 49.9875 86.0625 50.2125 85.725 49.275C85.35 48.3375 85.4625 48 86.0625 48C86.4 48 86.625 48.3375 86.625 48.9375ZM89.25 48.9375C89.25 49.725 89.0625 49.875 88.125 49.875C87.1875 49.875 87 49.725 87 48.9375C87 48.15 87.1875 48 88.125 48C89.0625 48 89.25 48.15 89.25 48.9375ZM94.125 48.9375C94.125 49.5375 93.9 49.875 93.525 49.875C93.1125 49.875 93 49.6875 93.15 49.275C93.2625 48.9375 93.375 48.525 93.375 48.3375C93.375 48.15 93.5625 48 93.75 48C93.975 48 94.125 48.4125 94.125 48.9375ZM76.35 49.8375C76.2375 50.025 75.75 50.1375 75.3 50.1C74.7 50.0625 74.4 49.8 74.325 49.2C74.175 48.3375 74.2125 48.3375 75.375 48.9375C76.0125 49.275 76.425 49.6875 76.35 49.8375ZM88.95 50.4375C89.0625 50.55 89.0625 51.075 88.95 51.5625C88.725 52.875 87 52.9125 87 51.6375C87 51.15 87.1125 50.625 87.2625 50.5125C87.5625 50.2125 88.65 50.175 88.95 50.4375ZM94.125 51.4125C94.125 52.275 93.975 52.5375 93.4875 52.425C93.15 52.35 92.8875 52.2 92.925 52.0125C92.9625 51.8625 93 51.4125 93 51C93 50.5875 93.2625 50.25 93.5625 50.25C93.9375 50.25 94.125 50.625 94.125 51.4125ZM96.675 51.2625C96.6 52.0125 96.3375 52.35 95.7375 52.425C94.9875 52.5375 94.875 52.3875 94.875 51.4125C94.875 50.4 95.025 50.25 95.85 50.25C96.675 50.25 96.7875 50.4 96.675 51.2625ZM61.125 51.75C61.125 52.5 60.9375 52.875 60.5625 52.875C60.1875 52.875 60 52.5 60 51.75C60 51 60.1875 50.625 60.5625 50.625C60.9375 50.625 61.125 51 61.125 51.75ZM63.75 51.75C63.75 52.7625 63.6375 52.875 62.625 52.875C61.6125 52.875 61.5 52.7625 61.5 51.75C61.5 50.7375 61.6125 50.625 62.625 50.625C63.6375 50.625 63.75 50.7375 63.75 51.75ZM66.3 51.6375C66.225 52.4625 65.9625 52.725 65.175 52.8C64.2375 52.9125 64.125 52.8 64.125 51.7875C64.125 50.7375 64.2375 50.625 65.2875 50.625C66.3 50.625 66.4125 50.7375 66.3 51.6375ZM68.925 51.6375C68.85 52.4625 68.5875 52.725 67.8 52.8C66.8625 52.9125 66.75 52.8 66.75 51.7875C66.75 50.7375 66.8625 50.625 67.9125 50.625C68.925 50.625 69.0375 50.7375 68.925 51.6375ZM71.25 51.5625C71.25 52.3125 71.0625 52.5 70.3125 52.5C69.5625 52.5 69.375 52.3125 69.375 51.5625C69.375 50.8125 69.5625 50.625 70.3125 50.625C71.0625 50.625 71.25 50.8125 71.25 51.5625ZM73.875 51.5625C73.875 52.35 73.6875 52.5 72.75 52.5C71.8125 52.5 71.625 52.35 71.625 51.5625C71.625 50.775 71.8125 50.625 72.75 50.625C73.6875 50.625 73.875 50.775 73.875 51.5625ZM76.5 51.5625C76.5 52.35 76.3125 52.5 75.375 52.5C74.4375 52.5 74.25 52.35 74.25 51.5625C74.25 50.775 74.4375 50.625 75.375 50.625C76.3125 50.625 76.5 50.775 76.5 51.5625ZM77.625 51.7875C77.625 52.1625 77.475 52.5 77.25 52.5C77.0625 52.5 76.875 52.05 76.875 51.525C76.875 51 77.025 50.6625 77.25 50.8125C77.475 50.925 77.625 51.375 77.625 51.7875ZM86.5875 51.6375C86.5875 52.575 86.55 52.6125 86.25 51.9375C85.8 50.925 85.8 50.625 86.25 50.625C86.475 50.625 86.625 51.075 86.5875 51.6375ZM73.875 54.225C73.875 54.9375 73.6875 55.125 72.975 55.125C71.7375 55.125 71.325 53.3625 72.525 53.1375C73.6125 52.9875 73.875 53.175 73.875 54.225ZM76.425 54.075C76.5375 55.0125 76.425 55.125 75.4125 55.125C74.4375 55.125 74.25 54.975 74.25 54.2625C74.25 53.775 74.3625 53.25 74.5125 53.1C75.15 52.4625 76.3125 53.1 76.425 54.075ZM86.625 54.075C86.625 54.8625 86.5125 55.1625 86.25 54.9C86.0625 54.7125 85.9875 54.1875 86.1 53.7C86.4375 52.5375 86.625 52.6875 86.625 54.075ZM88.425 53.8875C88.3125 55.0125 87.4875 55.4625 87.15 54.6C86.8125 53.775 87.225 52.875 87.9375 52.875C88.3875 52.875 88.5 53.175 88.425 53.8875ZM94.125 53.8125C94.125 54.5625 93.9375 54.75 93.1875 54.75C92.2125 54.75 92.1 54.4875 92.475 53.475C92.85 52.4625 94.125 52.725 94.125 53.8125ZM96.375 53.2125C96.375 54 95.8875 54.75 95.4 54.75C95.1 54.75 94.875 54.375 94.875 53.8125C94.875 53.1375 95.0625 52.875 95.625 52.875C96.0375 52.875 96.375 53.025 96.375 53.2125ZM61.125 54.375C61.125 55.125 60.9375 55.5 60.5625 55.5C60.1875 55.5 60 55.125 60 54.375C60 53.625 60.1875 53.25 60.5625 53.25C60.9375 53.25 61.125 53.625 61.125 54.375ZM63.75 54.15C63.75 54.75 63.4875 55.125 62.925 55.2375C61.8375 55.5375 61.5 55.275 61.5 54.15C61.5 53.4 61.6875 53.25 62.625 53.25C63.5625 53.25 63.75 53.4 63.75 54.15ZM66.375 54.1875C66.375 54.975 66.1875 55.125 65.25 55.125C64.3125 55.125 64.125 54.975 64.125 54.1875C64.125 53.4 64.3125 53.25 65.25 53.25C66.1875 53.25 66.375 53.4 66.375 54.1875ZM69 54.1875C69 54.975 68.8125 55.125 67.875 55.125C66.9375 55.125 66.75 54.975 66.75 54.1875C66.75 53.4 66.9375 53.25 67.875 53.25C68.8125 53.25 69 53.4 69 54.1875ZM71.25 54.1875C71.25 54.9375 71.0625 55.125 70.3125 55.125C69.5625 55.125 69.375 54.9375 69.375 54.1875C69.375 53.4375 69.5625 53.25 70.3125 53.25C71.0625 53.25 71.25 53.4375 71.25 54.1875ZM77.625 53.7C77.625 53.9625 77.4375 54.45 77.25 54.75C76.95 55.2 76.875 55.0875 76.875 54.2625C76.875 53.7 77.0625 53.25 77.25 53.25C77.475 53.25 77.625 53.475 77.625 53.7ZM66.3 56.7C66.4125 57.6375 66.3 57.75 65.2875 57.75C64.3125 57.75 64.125 57.6 64.125 56.8875C64.125 56.4 64.2 55.9125 64.3125 55.8C64.425 55.6875 64.9125 55.6125 65.3625 55.65C65.9625 55.6875 66.225 55.95 66.3 56.7ZM68.925 56.7C69.0375 57.6375 68.925 57.75 67.9125 57.75C66.9375 57.75 66.75 57.6 66.75 56.8875C66.75 56.4 66.8625 55.875 67.0125 55.725C67.65 55.0875 68.8125 55.725 68.925 56.7ZM71.25 56.625C71.25 57.5625 71.1 57.75 70.3125 57.75C69.525 57.75 69.375 57.5625 69.375 56.625C69.375 55.6875 69.525 55.5 70.3125 55.5C71.1 55.5 71.25 55.6875 71.25 56.625ZM73.875 56.625C73.875 57.5625 73.725 57.75 72.9375 57.75C72.15 57.75 72 57.5625 72 56.625C72 55.6875 72.15 55.5 72.9375 55.5C73.725 55.5 73.875 55.6875 73.875 56.625ZM76.5 55.8375C76.5 56.25 75.0375 57.375 74.55 57.375C74.175 57.375 74.1375 56.1 74.5125 55.7625C74.8875 55.35 76.5 55.4625 76.5 55.8375ZM86.625 56.4375C86.625 57.0375 86.4 57.375 86.0625 57.375C85.4625 57.375 85.35 57.0375 85.725 56.1C86.0625 55.1625 86.625 55.3875 86.625 56.4375ZM88.125 55.8375C88.125 56.475 87.675 57.375 87.3375 57.375C86.9625 57.375 86.8875 56.1375 87.2625 55.7625C87.6 55.3875 88.125 55.425 88.125 55.8375ZM94.125 56.4375C94.125 57.1875 93.9375 57.375 93.1875 57.375C92.4375 57.375 92.25 57.1875 92.25 56.4375C92.25 55.6875 92.4375 55.5 93.1875 55.5C93.9375 55.5 94.125 55.6875 94.125 56.4375ZM95.7375 56.25C95.4375 57.4125 94.875 57.525 94.875 56.475C94.875 55.875 95.1 55.5 95.4 55.5C95.7375 55.5 95.85 55.7625 95.7375 56.25ZM61.125 56.8125C61.125 57.4125 60.9 57.75 60.5625 57.75C60.225 57.75 60 57.4125 60 56.8125C60 56.2125 60.225 55.875 60.5625 55.875C60.9 55.875 61.125 56.2125 61.125 56.8125ZM63.75 56.8125C63.75 57.6 63.5625 57.75 62.625 57.75C61.6875 57.75 61.5 57.6 61.5 56.8125C61.5 56.025 61.6875 55.875 62.625 55.875C63.5625 55.875 63.75 56.025 63.75 56.8125ZM61.05 59.3625C61.125 60.075 61.0125 60.375 60.6 60.375C60.1875 60.375 60 60 60 59.2125C60 57.7875 60.9 57.9 61.05 59.3625ZM86.625 59.0625C86.625 59.8125 86.4375 60 85.6875 60C85.0125 60 84.75 59.8125 84.75 59.325C84.75 58.95 84.8625 58.5 85.0125 58.3875C85.125 58.2375 85.575 58.125 85.95 58.125C86.4375 58.125 86.625 58.3875 86.625 59.0625ZM91.875 59.0625C91.875 59.5875 91.65 60 91.35 60C91.0125 60 90.9 59.7 91.05 59.0625C91.125 58.5375 91.35 58.125 91.5375 58.125C91.725 58.125 91.875 58.5375 91.875 59.0625ZM94.125 59.0625C94.125 59.8125 93.9375 60 93.1875 60C92.4375 60 92.25 59.8125 92.25 59.0625C92.25 58.3125 92.4375 58.125 93.1875 58.125C93.9375 58.125 94.125 58.3125 94.125 59.0625ZM61.125 61.875C61.125 62.625 60.9375 63 60.5625 63C60.1875 63 60 62.625 60 61.875C60 61.125 60.1875 60.75 60.5625 60.75C60.9375 60.75 61.125 61.125 61.125 61.875ZM84 61.6875C84 62.4375 83.8125 62.625 83.0625 62.625C81.975 62.625 81.9 62.3625 82.7625 61.425C83.5875 60.4875 84 60.5625 84 61.6875ZM86.625 61.0875C86.625 61.95 86.1 62.625 85.4625 62.625C84.9375 62.625 84.75 62.3625 84.75 61.6875C84.75 60.9375 84.9375 60.75 85.6875 60.75C86.2125 60.75 86.625 60.9 86.625 61.0875ZM91.8 61.575C91.725 62.1375 91.3875 62.475 90.7875 62.55C90.075 62.6625 89.9625 62.55 90.15 62.0625C90.2625 61.725 90.375 61.275 90.375 61.0875C90.375 60.9 90.7125 60.75 91.1625 60.75C91.725 60.75 91.9125 60.9375 91.8 61.575ZM94.05 61.575C93.975 62.1375 93.675 62.4375 93.1875 62.4375C92.7 62.4375 92.4 62.1375 92.325 61.575C92.2125 60.9 92.3625 60.75 93.1875 60.75C94.0125 60.75 94.1625 60.9 94.05 61.575ZM85.6125 64.125C85.5 64.5375 85.275 64.9875 85.0875 65.1C84.7125 65.325 84.6375 63.6375 84.975 63.2625C85.425 62.8125 85.8 63.375 85.6125 64.125ZM91.6875 64.125C91.6875 64.8 91.4625 65.1 90.8625 65.175C90.1125 65.2875 90 65.1375 90 64.125C90 63.1125 90.1125 62.9625 90.8625 63.075C91.4625 63.15 91.6875 63.45 91.6875 64.125ZM93.375 63.3375C93.375 63.975 92.925 64.875 92.5875 64.875C92.2125 64.875 92.1375 63.6375 92.5125 63.2625C92.85 62.8875 93.375 62.925 93.375 63.3375ZM61.05 64.3875C60.9 65.85 60 65.9625 60 64.5375C60 63.75 60.1875 63.375 60.6 63.375C61.0125 63.375 61.125 63.675 61.05 64.3875ZM81.75 64.3125C81.75 65.1 81.5625 65.25 80.625 65.25C79.8 65.25 79.5 65.0625 79.5 64.575C79.5 63.6375 79.8375 63.375 80.8875 63.375C81.5625 63.375 81.75 63.5625 81.75 64.3125ZM84 64.3125C84 65.0625 83.8125 65.25 83.0625 65.25C82.3125 65.25 82.125 65.0625 82.125 64.3125C82.125 63.5625 82.3125 63.375 83.0625 63.375C83.8125 63.375 84 63.5625 84 64.3125ZM79.125 64.6875C79.125 65.025 78.7875 65.25 78.1875 65.25C77.1 65.25 76.9125 64.65 77.925 64.3875C79.05 64.0875 79.125 64.125 79.125 64.6875ZM73.875 66.825C73.875 67.6875 73.725 67.875 72.9375 67.875C72.1875 67.875 72 67.6875 72 67.0125C72 65.925 72.1125 65.775 73.125 65.775C73.6875 65.775 73.875 66.0375 73.875 66.825ZM76.425 66.8625C76.5375 67.725 76.425 67.875 75.6 67.875C74.8125 67.875 74.625 67.6875 74.625 66.975C74.625 65.3625 76.2375 65.25 76.425 66.8625ZM79.05 66.825C79.1625 67.725 79.05 67.875 78.225 67.875C77.4 67.875 77.25 67.725 77.25 66.7125C77.25 65.7375 77.3625 65.5875 78.1125 65.7C78.7125 65.775 78.975 66.1125 79.05 66.825ZM81.5625 66.75C81.5625 67.425 81.3375 67.725 80.7 67.8C79.8 67.95 79.275 67.125 79.65 66.15C79.7625 65.8125 80.2125 65.625 80.7 65.7C81.3375 65.775 81.5625 66.075 81.5625 66.75ZM84 66.75C84 67.6125 83.85 67.875 83.25 67.875C82.8375 67.875 82.3875 67.6125 82.275 67.3125C81.9375 66.45 82.3875 65.625 83.25 65.625C83.85 65.625 84 65.8875 84 66.75ZM89.25 66.5625C89.25 67.1625 89.025 67.5 88.6875 67.5C88.0125 67.5 88.0125 67.3125 88.5 66.3375C89.025 65.3625 89.25 65.4375 89.25 66.5625ZM91.8 66.6375C91.9125 67.35 91.7625 67.5 90.975 67.5C90.1875 67.5 90 67.3125 90 66.525C90 65.7375 90.15 65.5875 90.8625 65.7C91.3875 65.775 91.725 66.1125 91.8 66.6375ZM61.125 66.9375C61.125 67.5375 60.9 67.875 60.5625 67.875C60.225 67.875 60 67.5375 60 66.9375C60 66.3375 60.225 66 60.5625 66C60.9 66 61.125 66.3375 61.125 66.9375ZM71.625 66.9375C71.625 67.725 71.4375 67.875 70.5 67.875C69.5625 67.875 69.375 67.725 69.375 66.9375C69.375 66.15 69.5625 66 70.5 66C71.4375 66 71.625 66.15 71.625 66.9375ZM71.55 69.45C71.6625 70.3875 71.55 70.5 70.5375 70.5C69.5625 70.5 69.375 70.35 69.375 69.6375C69.375 69.15 69.4875 68.625 69.6375 68.475C70.275 67.8375 71.4375 68.475 71.55 69.45ZM73.875 69.375C73.875 70.3125 73.725 70.5 72.9375 70.5C72.1875 70.5 72 70.3125 72 69.6375C72 68.5875 72.2625 68.25 73.2 68.25C73.6875 68.25 73.875 68.55 73.875 69.375ZM76.5 69.375C76.5 70.3125 76.35 70.5 75.5625 70.5C74.775 70.5 74.625 70.3125 74.625 69.375C74.625 68.4375 74.775 68.25 75.5625 68.25C76.35 68.25 76.5 68.4375 76.5 69.375ZM79.05 69.2625C78.975 69.9375 78.675 70.275 78.1125 70.35C77.3625 70.4625 77.25 70.3125 77.25 69.375C77.25 68.4 77.4 68.25 78.225 68.25C79.05 68.25 79.1625 68.4 79.05 69.2625ZM81.75 69.1875C81.75 69.9375 81.5625 70.125 80.85 70.125C80.2875 70.125 79.875 69.8625 79.7625 69.4125C79.5375 68.475 79.7625 68.25 80.8875 68.25C81.5625 68.25 81.75 68.4375 81.75 69.1875ZM83.625 68.5125C83.5875 68.925 82.65 70.125 82.35 70.125C82.2375 70.125 82.125 69.7125 82.125 69.1875C82.125 68.5125 82.3125 68.25 82.875 68.25C83.2875 68.25 83.625 68.3625 83.625 68.5125ZM89.25 69.1875C89.25 69.9375 89.0625 70.125 88.3125 70.125C87.5625 70.125 87.375 69.9375 87.375 69.1875C87.375 68.4375 87.5625 68.25 88.3125 68.25C89.0625 68.25 89.25 68.4375 89.25 69.1875ZM91.05 69.1875C90.825 69.7125 90.4875 70.125 90.3 70.125C90.15 70.125 90 69.7125 90 69.1875C90 68.5125 90.1875 68.25 90.75 68.25C91.3875 68.25 91.425 68.3625 91.05 69.1875ZM61.125 69.5625C61.125 70.1625 60.9 70.5 60.5625 70.5C60.225 70.5 60 70.1625 60 69.5625C60 68.9625 60.225 68.625 60.5625 68.625C60.9 68.625 61.125 68.9625 61.125 69.5625ZM60.9375 71.25C61.2375 71.7375 60.7875 73.125 60.3375 73.125C60.15 73.125 60 72.6 60 72C60 70.875 60.4875 70.5 60.9375 71.25ZM71.55 71.8875C71.4375 73.0875 69.9 73.6125 69.525 72.6C69.15 71.625 69.675 70.875 70.6875 70.875C71.55 70.875 71.6625 71.025 71.55 71.8875ZM74.175 71.8875C74.2875 72.6375 74.1375 72.75 73.1625 72.75C72.15 72.75 72 72.6 72 71.775C72 70.95 72.15 70.8375 73.05 70.95C73.7625 71.025 74.1 71.2875 74.175 71.8875ZM76.5 71.8125C76.5 72.5625 76.3125 72.75 75.5625 72.75C74.8125 72.75 74.625 72.5625 74.625 71.8125C74.625 71.0625 74.8125 70.875 75.5625 70.875C76.3125 70.875 76.5 71.0625 76.5 71.8125ZM79.125 71.8125C79.125 72.5625 78.9375 72.75 78.1875 72.75C77.4375 72.75 77.25 72.5625 77.25 71.8125C77.25 71.0625 77.4375 70.875 78.1875 70.875C78.9375 70.875 79.125 71.0625 79.125 71.8125ZM81.675 71.7C81.6 72.2625 81.2625 72.6 80.7375 72.675C80.025 72.7875 79.875 72.6375 79.875 71.85C79.875 71.0625 80.0625 70.875 80.85 70.875C81.6375 70.875 81.7875 71.025 81.675 71.7ZM86.625 71.8125C86.625 72.4125 86.4 72.75 86.0625 72.75C85.3875 72.75 85.3875 72.5625 85.875 71.5875C86.4 70.6125 86.625 70.6875 86.625 71.8125ZM89.25 71.8125C89.25 72.5625 89.0625 72.75 88.3125 72.75C87.5625 72.75 87.375 72.5625 87.375 71.8125C87.375 71.0625 87.5625 70.875 88.3125 70.875C89.0625 70.875 89.25 71.0625 89.25 71.8125ZM60.7875 73.9875C60.75 74.1375 60.75 74.5875 60.75 75C60.75 75.4125 60.6 75.75 60.375 75.75C60.1875 75.75 60 75.225 60 74.5875C60 73.95 60.1875 73.5 60.4125 73.575C60.6375 73.65 60.7875 73.8375 60.7875 73.9875ZM71.625 74.4375C71.625 75.1875 71.4375 75.375 70.725 75.375C69.825 75.375 69.1875 74.5125 69.6 73.8375C69.7125 73.65 70.2 73.5 70.725 73.5C71.4375 73.5 71.625 73.6875 71.625 74.4375ZM74.1 74.5125C74.2125 75.2625 74.0625 75.375 73.125 75.375C72.15 75.375 72 75.225 72 74.4C72 73.575 72.15 73.4625 73.0125 73.575C73.6875 73.65 74.025 73.95 74.1 74.5125ZM76.5 74.4375C76.5 75.1875 76.3125 75.375 75.5625 75.375C74.8125 75.375 74.625 75.1875 74.625 74.4375C74.625 73.6875 74.8125 73.5 75.5625 73.5C76.3125 73.5 76.5 73.6875 76.5 74.4375ZM79.125 74.4375C79.125 75.1875 78.9375 75.375 78.1875 75.375C77.4375 75.375 77.25 75.1875 77.25 74.4375C77.25 73.6875 77.4375 73.5 78.1875 73.5C78.9375 73.5 79.125 73.6875 79.125 74.4375ZM80.625 73.8375C80.625 74.0625 80.475 74.325 80.25 74.4375C80.0625 74.55 79.875 74.4 79.875 74.1C79.875 73.7625 80.0625 73.5 80.25 73.5C80.475 73.5 80.625 73.65 80.625 73.8375ZM86.625 74.475C86.625 75.2625 86.475 75.4125 85.8 75.3C85.2375 75.225 84.9 74.8875 84.825 74.325C84.7125 73.65 84.8625 73.5 85.65 73.5C86.4375 73.5 86.625 73.6875 86.625 74.475ZM88.5 74.2125C87.9 75.4125 87.375 75.4875 87.375 74.475C87.375 73.7625 87.5625 73.5 88.125 73.5C88.7625 73.5 88.8375 73.6125 88.5 74.2125ZM60.75 77.0625C60.75 77.5875 60.6 78 60.375 78C60.1875 78 60 77.5875 60 77.0625C60 76.5375 60.1875 76.125 60.375 76.125C60.6 76.125 60.75 76.5375 60.75 77.0625ZM71.625 77.0625C71.625 77.8125 71.4375 78 70.6875 78C69.9375 78 69.75 77.8125 69.75 77.0625C69.75 76.3125 69.9375 76.125 70.6875 76.125C71.4375 76.125 71.625 76.3125 71.625 77.0625ZM74.25 77.0625C74.25 77.85 74.0625 78 73.125 78C72.1875 78 72 77.85 72 77.0625C72 76.275 72.1875 76.125 73.125 76.125C74.0625 76.125 74.25 76.275 74.25 77.0625ZM76.5 77.0625C76.5 77.8125 76.3125 78 75.5625 78C74.8125 78 74.625 77.8125 74.625 77.0625C74.625 76.3125 74.8125 76.125 75.5625 76.125C76.3125 76.125 76.5 76.3125 76.5 77.0625ZM78.75 76.3875C78.7125 76.8 77.775 78 77.475 78C77.3625 78 77.25 77.5875 77.25 77.0625C77.25 76.3875 77.4375 76.125 78 76.125C78.4125 76.125 78.75 76.2375 78.75 76.3875ZM84.3 76.95C84.225 77.5125 83.8875 77.85 83.3625 77.925C82.3875 78.075 82.3125 77.8875 82.875 76.8375C83.4375 75.825 84.45 75.9 84.3 76.95ZM86.625 76.8375C86.625 77.2125 86.2875 77.625 85.9125 77.7375C85.0125 77.9625 84.75 77.7375 84.75 76.8C84.75 76.3125 85.0125 76.125 85.6875 76.125C86.3625 76.125 86.625 76.3125 86.625 76.8375ZM76.5 79.125C76.5 79.95 75.5625 80.775 75 80.4375C74.475 80.1 74.5125 78.8625 75.1125 78.6375C76.0125 78.3375 76.5 78.525 76.5 79.125ZM84.3 79.3875C84.4125 80.1 84.2625 80.25 83.475 80.25C82.6875 80.25 82.5 80.0625 82.5 79.275C82.5 78.4875 82.65 78.3375 83.3625 78.45C83.8875 78.525 84.225 78.8625 84.3 79.3875ZM85.875 78.7125C85.875 79.1625 85.125 79.65 84.8625 79.3875C84.6 79.125 85.0875 78.375 85.5375 78.375C85.725 78.375 85.875 78.525 85.875 78.7125ZM61.425 79.8C61.5375 80.4375 61.35 80.625 60.7875 80.625C60.1875 80.625 60 80.4 60 79.65C60 78.4125 61.2375 78.525 61.425 79.8ZM64.05 79.7625C64.1625 80.5125 64.0125 80.625 63.0375 80.625C62.175 80.625 61.875 80.4375 61.875 79.95C61.875 79.0125 62.25 78.7125 63.1875 78.825C63.6375 78.9 63.975 79.275 64.05 79.7625ZM66.375 79.6875C66.375 80.4375 66.1875 80.625 65.4375 80.625C64.2 80.625 64.125 79.2375 65.3625 79.0125C65.8125 78.9375 66.225 78.825 66.3 78.7875C66.3375 78.7875 66.375 79.1625 66.375 79.6875ZM71.625 79.6875C71.625 80.4375 71.4375 80.625 70.6875 80.625C69.9375 80.625 69.75 80.4375 69.75 79.6875C69.75 78.9375 69.9375 78.75 70.6875 78.75C71.4375 78.75 71.625 78.9375 71.625 79.6875ZM74.175 79.575C74.1 80.2125 73.8 80.4375 73.125 80.4375C72.45 80.4375 72.15 80.2125 72.075 79.575C71.9625 78.8625 72.1125 78.75 73.125 78.75C74.1375 78.75 74.2875 78.8625 74.175 79.575ZM81.3375 80.2875C80.5875 80.7375 80.5125 80.4375 81.0375 79.425C81.4875 78.6375 81.525 78.6375 81.675 79.275C81.75 79.65 81.6 80.1 81.3375 80.2875ZM69 79.875C69 80.4375 68.7375 80.625 68.0625 80.625C67.3875 80.625 67.125 80.4375 67.125 79.875C67.125 79.3125 67.3875 79.125 68.0625 79.125C68.7375 79.125 69 79.3125 69 79.875ZM66.375 82.35C66.375 83.0625 66.1875 83.25 65.4375 83.25C64.6875 83.25 64.5 83.0625 64.5 82.35C64.5 81.8625 64.725 81.375 64.9875 81.2625C65.8125 81 66.375 81.4125 66.375 82.35ZM69 82.125C69 83.0625 68.85 83.25 68.0625 83.25C67.3125 83.25 67.125 83.0625 67.125 82.3875C67.125 81.3375 67.3875 81 68.325 81C68.8125 81 69 81.3 69 82.125ZM71.4375 82.125C71.4375 82.8 71.2125 83.1 70.6125 83.175C69.8625 83.2875 69.75 83.1375 69.75 82.125C69.75 81.1125 69.8625 80.9625 70.6125 81.075C71.2125 81.15 71.4375 81.45 71.4375 82.125ZM74.175 81.975C74.25 82.575 74.0625 82.8375 73.35 82.95C72.4875 83.1375 72.375 83.025 72.375 82.05C72.375 81.1125 72.525 80.9625 73.2375 81.075C73.725 81.15 74.1 81.4875 74.175 81.975ZM81.75 81.9375C81.75 82.6875 81.5625 82.875 80.8125 82.875C80.0625 82.875 79.875 82.6875 79.875 81.9375C79.875 81.1875 80.0625 81 80.8125 81C81.5625 81 81.75 81.1875 81.75 81.9375ZM84 81.2625C83.9625 81.675 83.025 82.875 82.725 82.875C82.6125 82.875 82.5 82.4625 82.5 81.9375C82.5 81.2625 82.6875 81 83.25 81C83.6625 81 84 81.1125 84 81.2625ZM61.5 82.3125C61.5 82.9875 61.3125 83.25 60.75 83.25C60.1875 83.25 60 82.9875 60 82.3125C60 81.6375 60.1875 81.375 60.75 81.375C61.3125 81.375 61.5 81.6375 61.5 82.3125ZM64.125 82.35C64.125 83.175 63.975 83.2875 63.1125 83.175C62.3625 83.1 62.025 82.8375 61.95 82.2C61.8375 81.4875 61.9875 81.375 62.9625 81.375C63.975 81.375 64.125 81.525 64.125 82.35ZM79.125 82.5C79.125 82.6875 78.9375 82.875 78.7125 82.875C78.525 82.875 78.45 82.6875 78.5625 82.5C78.675 82.275 78.8625 82.125 78.975 82.125C79.05 82.125 79.125 82.275 79.125 82.5ZM61.5 84.75C61.5 85.6125 61.35 85.875 60.75 85.875C60.15 85.875 60 85.6125 60 84.75C60 83.8875 60.15 83.625 60.75 83.625C61.35 83.625 61.5 83.8875 61.5 84.75ZM63.9375 84.75C63.9375 85.425 63.7125 85.725 63.075 85.8C62.175 85.95 61.65 85.125 62.025 84.15C62.1375 83.8125 62.5875 83.625 63.075 83.7C63.7125 83.775 63.9375 84.075 63.9375 84.75ZM66.5625 84.75C66.5625 85.425 66.3 85.725 65.7 85.8C64.8 85.95 64.275 85.125 64.65 84.15C64.7625 83.8125 65.2125 83.625 65.7 83.7C66.3 83.775 66.5625 84.075 66.5625 84.75ZM69 84.5625C69 85.3125 68.8125 85.5 68.0625 85.5C67.3125 85.5 67.125 85.3125 67.125 84.5625C67.125 83.8125 67.3125 83.625 68.0625 83.625C68.8125 83.625 69 83.8125 69 84.5625ZM71.55 84.45C71.475 85.0125 71.1375 85.35 70.6125 85.425C69.9 85.5375 69.75 85.3875 69.75 84.6C69.75 83.8125 69.9375 83.625 70.725 83.625C71.5125 83.625 71.6625 83.775 71.55 84.45ZM79.125 84.5625C79.125 85.3125 78.9375 85.5 78.1875 85.5C77.5125 85.5 77.25 85.3125 77.25 84.825C77.25 83.925 77.55 83.625 78.45 83.625C78.9375 83.625 79.125 83.8875 79.125 84.5625ZM81.75 84.1125C81.75 84.75 81 85.5 80.3625 85.5C80.1 85.5 79.875 85.0875 79.875 84.5625C79.875 83.8125 80.0625 83.625 80.8125 83.625C81.3375 83.625 81.75 83.85 81.75 84.1125ZM61.5 87.1875C61.5 87.8625 61.3125 88.125 60.75 88.125C60.1875 88.125 60 87.8625 60 87.1875C60 86.5125 60.1875 86.25 60.75 86.25C61.3125 86.25 61.5 86.5125 61.5 87.1875ZM64.125 87.1875C64.125 87.9375 63.9375 88.125 63.225 88.125C62.6625 88.125 62.25 87.8625 62.1375 87.4125C61.9125 86.475 62.1375 86.25 63.2625 86.25C63.9375 86.25 64.125 86.4375 64.125 87.1875ZM66.375 87.1875C66.375 87.9375 66.1875 88.125 65.4375 88.125C64.6875 88.125 64.5 87.9375 64.5 87.1875C64.5 86.4375 64.6875 86.25 65.4375 86.25C66.1875 86.25 66.375 86.4375 66.375 87.1875ZM69 86.7375C69 87.375 68.25 88.125 67.6125 88.125C67.35 88.125 67.125 87.7125 67.125 87.1875C67.125 86.4375 67.3125 86.25 68.0625 86.25C68.5875 86.25 69 86.475 69 86.7375ZM76.6125 86.9625C76.8375 87.8625 76.6125 88.125 75.675 88.125C75.2625 88.125 75 87.8625 75 87.45C75 86.1 76.275 85.7625 76.6125 86.9625ZM79.05 87.075C78.975 87.6375 78.675 87.9375 78.1875 87.9375C77.7 87.9375 77.4 87.6375 77.325 87.075C77.2125 86.4 77.3625 86.25 78.1875 86.25C79.0125 86.25 79.1625 86.4 79.05 87.075ZM61.5 89.8125C61.5 90.4875 61.3125 90.75 60.75 90.75C60.1875 90.75 60 90.4875 60 89.8125C60 89.1375 60.1875 88.875 60.75 88.875C61.3125 88.875 61.5 89.1375 61.5 89.8125ZM64.125 89.8125C64.125 90.5625 63.9375 90.75 63.1875 90.75C62.4375 90.75 62.25 90.5625 62.25 89.8125C62.25 89.0625 62.4375 88.875 63.1875 88.875C63.9375 88.875 64.125 89.0625 64.125 89.8125ZM66 89.8125C65.0625 90.825 64.5 90.75 64.5 89.5875C64.5 89.025 64.7625 88.875 65.7 88.875H66.8625L66 89.8125ZM74.175 89.7C74.025 90.825 72.375 91.1625 72.375 90.075C72.375 89.175 72.675 88.875 73.575 88.875C74.1 88.875 74.2875 89.1 74.175 89.7ZM76.8 89.7C76.725 90.2625 76.3875 90.6 75.8625 90.675C75.15 90.7875 75 90.6375 75 89.85C75 89.0625 75.1875 88.875 75.975 88.875C76.7625 88.875 76.9125 89.025 76.8 89.7ZM61.425 92.325C61.2375 93.6 60 93.7125 60 92.475C60 91.725 60.1875 91.5 60.7875 91.5C61.35 91.5 61.5375 91.6875 61.425 92.325ZM63.1875 91.875C63.075 92.0625 62.8125 92.25 62.5875 92.25C62.4 92.25 62.25 92.0625 62.25 91.875C62.25 91.65 62.5125 91.5 62.85 91.5C63.15 91.5 63.3 91.65 63.1875 91.875ZM71.625 92.475C71.625 93.2625 71.475 93.4125 70.8 93.3C70.2375 93.225 69.9 92.8875 69.825 92.325C69.7125 91.65 69.8625 91.5 70.65 91.5C71.4375 91.5 71.625 91.6875 71.625 92.475ZM74.175 92.325C74.1 92.8875 73.8 93.1875 73.3125 93.1875C72.825 93.1875 72.525 92.8875 72.45 92.325C72.3375 91.65 72.4875 91.5 73.3125 91.5C74.1375 91.5 74.2875 91.65 74.175 92.325ZM69 93C69 93.1875 68.8125 93.375 68.5875 93.375C68.4 93.375 68.325 93.1875 68.4375 93C68.55 92.775 68.7375 92.625 68.85 92.625C68.925 92.625 69 92.775 69 93ZM69 94.65C69 95.6625 67.575 96.2625 67.2375 95.4C66.9375 94.575 67.35 93.9375 68.2125 93.8625C68.8125 93.825 69 94.0125 69 94.65ZM71.625 94.6875C71.625 95.4375 71.4375 95.625 70.6875 95.625C70.0125 95.625 69.75 95.4375 69.75 94.95C69.75 94.05 70.05 93.75 70.95 93.75C71.4375 93.75 71.625 94.0125 71.625 94.6875ZM66.675 95.1375C66.6 95.5125 66.15 95.8875 65.625 95.9625C64.6875 96.075 64.6875 96.075 65.4 95.2875C66.2625 94.3125 66.8625 94.275 66.675 95.1375ZM64.125 97.3125C64.125 98.0625 63.9375 98.25 63.1875 98.25C62.025 98.25 61.9875 97.725 63.075 96.975C64.1625 96.225 64.125 96.1875 64.125 97.3125ZM66.675 97.3875C66.7875 98.1 66.6375 98.25 65.85 98.25C65.0625 98.25 64.875 98.0625 64.875 97.275C64.875 96.4875 65.025 96.3375 65.7375 96.45C66.2625 96.525 66.6 96.8625 66.675 97.3875ZM69 96.8625C69 97.3875 68.25 98.25 67.8 98.25C67.65 98.25 67.5 97.8375 67.5 97.3125C67.5 96.6375 67.6875 96.375 68.25 96.375C68.6625 96.375 69 96.6 69 96.8625ZM61.5 99.9375C61.5 100.612 61.3125 100.875 60.75 100.875C60.1875 100.875 60 100.612 60 99.9375C60 99.2625 60.1875 99 60.75 99C61.3125 99 61.5 99.2625 61.5 99.9375ZM64.125 99.9375C64.125 100.687 63.9375 100.875 63.1875 100.875C62.4375 100.875 62.25 100.687 62.25 99.9375C62.25 99.1875 62.4375 99 63.1875 99C63.9375 99 64.125 99.1875 64.125 99.9375ZM66.375 99.3C66.375 99.45 66.0375 99.7875 65.625 100.05C64.95 100.462 64.875 100.425 64.875 99.75C64.875 99.2625 65.1375 99 65.625 99C66.0375 99 66.375 99.1125 66.375 99.3ZM61.5 102.112C61.5 102.637 60.75 103.5 60.3 103.5C60.15 103.5 60 103.087 60 102.562C60 101.887 60.1875 101.625 60.75 101.625C61.1625 101.625 61.5 101.85 61.5 102.112Z" fill="black"/>
<path d="M66.0374 21.2249C66.0374 21.6374 66.1499 21.7499 66.2624 21.4499C66.3749 21.1874 66.3374 20.8499 66.2249 20.7374C66.1124 20.5874 65.9999 20.8124 66.0374 21.2249Z" fill="black"/>
<path d="M61.2376 27.6376C61.5751 27.7126 62.1751 27.7126 62.5501 27.6376C62.8876 27.5251 62.5876 27.4501 61.8751 27.4501C61.1626 27.4501 60.8626 27.5251 61.2376 27.6376Z" fill="black"/>
<path d="M66 31.3124C66 32.3249 66.1125 32.9999 66.2625 32.8874C66.375 32.7374 66.4875 32.0249 66.4875 31.3124C66.4875 30.5999 66.375 29.8874 66.2625 29.7374C66.1125 29.6249 66 30.2999 66 31.3124Z" fill="black"/>
<path d="M63.375 32.625C63.375 32.8125 63.5625 33 63.75 33C63.975 33 64.125 32.8125 64.125 32.625C64.125 32.4 63.975 32.25 63.75 32.25C63.5625 32.25 63.375 32.4 63.375 32.625Z" fill="black"/>
<path d="M55.0124 112.012C54.4499 112.537 54.7499 113.625 55.4624 113.625C56.3249 113.625 56.7374 112.762 56.1374 112.162C55.6499 111.675 55.3499 111.637 55.0124 112.012Z" fill="black"/>
<path d="M49.5375 112.275C48.9375 112.987 49.3125 113.625 50.2875 113.625C50.85 113.625 51.0375 113.4 50.925 112.8C50.775 111.787 50.1375 111.562 49.5375 112.275Z" fill="black"/>
</g>
<defs>
<clipPath id="clip0_434_794">
<rect width="120" height="120" fill="white"/>
</clipPath>
</defs>
</svg>
