<svg width="120" height="120" viewBox="0 0 120 120" fill="none" xmlns="http://www.w3.org/2000/svg">
<rect width="120" height="120" rx="60" fill="#EDF0F4"/>
<path d="M33.5138 60.8898C33.3323 60.7091 33.1884 60.4943 33.0903 60.2577C32.9922 60.0211 32.9418 59.7674 32.9422 59.5113C32.6591 49.031 40.5648 43.651 48.5765 43.877C48.8326 43.8769 49.0863 43.9272 49.3229 44.0252C49.5596 44.1231 49.7747 44.2668 49.9558 44.4479C50.1369 44.629 50.2805 44.8441 50.3785 45.0807C50.4765 45.3174 50.5268 45.5711 50.5267 45.8272V59.5113C50.5267 60.0285 50.3212 60.5245 49.9555 60.8903C49.5897 61.256 49.0937 61.4615 48.5765 61.4615H34.8924C34.6363 61.4618 34.3826 61.4115 34.146 61.3134C33.9094 61.2153 33.6946 61.0713 33.5138 60.8898ZM28.017 66.3867C28.9176 67.2927 29.9891 68.0109 31.1693 68.4999C32.3495 68.9888 33.6149 69.2387 34.8924 69.2351H48.5759C51.154 69.2322 53.6256 68.2068 55.4485 66.3839C57.2715 64.5609 58.2969 62.0893 58.2998 59.5113V45.8278C58.3032 44.5503 58.0532 43.2848 57.5644 42.1046C57.0755 40.9243 56.3575 39.8527 55.4519 38.9518C53.5995 37.1716 51.1445 36.1548 48.5759 36.1039C45.46 36.016 42.3586 36.561 39.4594 37.706C36.5602 38.851 33.9233 40.5721 31.7082 42.7652C27.3231 47.1449 24.9892 52.9716 25.1713 59.7215C25.2049 62.2314 26.2275 64.6265 28.017 66.3867Z" fill="#21C2FD"/>
<g filter="url(#filter0_d_447_760)">
<path d="M50.5365 58.3273C50.5028 58.3018 53.2795 59.8298 53.4947 62.5978C53.7098 65.3658 52.6204 69.0641 48.7129 69.2695C44.8125 69.3162 39.0722 69.3031 34.9745 69.2695C27.8491 69.3167 24.736 63.3189 25.0208 57.9758C25.1012 51.0107 29.1462 44.5911 33.208 41.4221C37.0964 38.1786 44.0947 39.2535 48.439 43.8478C48.439 43.8255 33.1868 43.3897 32.9325 59.2071C32.9325 59.2071 32.7357 61.3806 35.4467 61.311C39.3971 61.273 49.2568 61.3942 49.3302 61.1241C50.4642 60.703 50.5517 59.688 50.5365 58.3273Z" fill="url(#paint0_linear_447_760)"/>
</g>
<path d="M49.7975 87.41C49.6167 87.5915 49.4019 87.7354 49.1653 87.8336C48.9287 87.9317 48.675 87.982 48.4189 87.9816C37.9387 88.2647 32.5586 80.3596 32.7847 72.3474C32.7845 72.0913 32.8349 71.8376 32.9328 71.6009C33.0308 71.3642 33.1744 71.1492 33.3555 70.968C33.5367 70.7869 33.7517 70.6433 33.9884 70.5453C34.2251 70.4474 34.4787 70.397 34.7349 70.3972H48.4189C48.9361 70.3972 49.4322 70.6026 49.7979 70.9684C50.1636 71.3341 50.3691 71.8302 50.3691 72.3474V86.0314C50.3695 86.2876 50.3192 86.5412 50.2211 86.7778C50.1229 87.0144 49.979 87.2293 49.7975 87.41ZM55.2944 92.9069C56.2003 92.0062 56.9186 90.9348 57.4075 89.7546C57.8964 88.5744 58.1464 87.3089 58.1428 86.0314V72.3479C58.1399 69.7699 57.1145 67.2983 55.2915 65.4753C53.4686 63.6523 50.997 62.6269 48.4189 62.6241H34.7349C33.4574 62.6207 32.1919 62.8706 31.0117 63.3595C29.8315 63.8483 28.7599 64.5663 27.8589 65.4719C26.079 67.3244 25.0623 69.7794 25.0115 72.3479C24.913 75.4772 25.4472 78.5942 26.5821 81.5122C27.717 84.4301 29.4293 87.0889 31.6164 89.3292C35.9961 93.7143 41.8793 95.9352 48.6292 95.7526C51.139 95.7189 53.5342 94.6963 55.2944 92.9069Z" fill="#FEC92E"/>
<g filter="url(#filter1_d_447_760)">
<path d="M50.355 73.3983C50.3213 73.4238 53.0784 71.8822 53.2925 69.0887C53.5066 66.2951 52.4008 62.8723 48.5184 62.6658C44.6359 62.4594 39.0091 62.5947 34.9387 62.6289C27.5486 62.5463 24.7371 68.3611 25.0197 73.7531C25.094 76.9171 25.8222 80.0315 27.1583 82.9005C28.4944 85.7695 30.4097 88.3311 32.7836 90.4241C36.6449 93.6975 43.9664 92.6134 48.2804 87.9789C48.2804 88.0012 33.283 88.5489 32.7836 72.5245C32.7836 72.5245 32.6814 70.32 35.3728 70.3884C39.295 70.427 49.0851 70.3042 49.1579 70.577C50.2838 71.0008 50.4273 72.2245 50.355 73.3983Z" fill="url(#paint1_linear_447_760)"/>
</g>
<path d="M58.9513 86.5562C59.132 86.7377 59.3469 86.8817 59.5835 86.9798C59.8201 87.0779 60.0737 87.1282 60.3298 87.1279C70.8101 87.411 76.1902 79.5053 75.9641 71.4936C75.9642 71.2375 75.9139 70.9838 75.816 70.7471C75.718 70.5105 75.5743 70.2954 75.3932 70.1143C75.2121 69.9332 74.997 69.7895 74.7604 69.6916C74.5237 69.5936 74.27 69.5433 74.0139 69.5434H60.3282C60.0721 69.5434 59.8185 69.5938 59.5819 69.6919C59.3453 69.7899 59.1303 69.9335 58.9492 70.1146C58.7681 70.2957 58.6245 70.5107 58.5265 70.7473C58.4285 70.9839 58.378 71.2375 58.378 71.4936V85.1777C58.3779 85.4339 58.4285 85.6876 58.5269 85.9242C58.6253 86.1608 58.7695 86.3756 58.9513 86.5562ZM53.4544 92.0531C52.5485 91.1525 51.8302 90.081 51.3413 88.9008C50.8523 87.7206 50.6024 86.4551 50.606 85.1777V71.4942C50.6089 68.9161 51.6342 66.4445 53.4572 64.6215C55.2802 62.7986 57.7518 61.7732 60.3298 61.7703H74.0139C75.2914 61.7669 76.5568 62.0169 77.7371 62.5057C78.9173 62.9945 79.9889 63.7125 80.8899 64.6182C82.6698 66.4706 83.6864 68.9257 83.7372 71.4942C83.8358 74.6235 83.3016 77.7405 82.1667 80.6584C81.0317 83.5763 79.3194 86.2351 77.1324 88.4755C72.7527 92.8606 66.87 95.0814 60.1196 94.8988C57.6092 94.8656 55.2134 93.843 53.4528 92.0531H53.4544Z" fill="#FC491E"/>
<g filter="url(#filter2_d_447_760)">
<path d="M58.3916 72.5445C58.4253 72.57 55.6681 71.0284 55.454 68.2349C55.2399 65.4414 56.3457 62.0186 60.2282 61.8121C64.1107 61.6056 69.7374 61.7409 73.8079 61.7751C81.1979 61.6925 84.0094 67.5073 83.7269 72.8993C83.647 79.9285 79.7862 86.2372 75.9255 89.5106C72.0647 92.7839 64.7861 91.7928 60.4738 87.1572C60.4738 87.1794 75.4647 87.6935 75.9635 71.6707C75.9635 71.6707 76.0657 69.4662 73.3743 69.5347C69.4522 69.5727 59.662 69.4505 59.5892 69.7232C58.4633 70.1471 58.3198 71.3708 58.3916 72.5445Z" fill="url(#paint2_linear_447_760)"/>
</g>
<path d="M86.4879 49.7951C86.6694 49.6144 86.8133 49.3996 86.9114 49.163C87.0095 48.9264 87.0599 48.6727 87.0595 48.4166C87.3415 37.9363 79.4369 32.5563 71.4252 32.7829C71.1691 32.7827 70.9154 32.8331 70.6788 32.931C70.4421 33.029 70.227 33.1726 70.0459 33.3537C69.8648 33.5349 69.7211 33.7499 69.6232 33.9866C69.5252 34.2233 69.4749 34.4769 69.475 34.7331V48.4171C69.475 48.9343 69.6805 49.4304 70.0462 49.7961C70.412 50.1618 70.908 50.3673 71.4252 50.3673H85.1093C85.3654 50.3676 85.6191 50.3173 85.8557 50.2192C86.0923 50.1211 86.3071 49.9766 86.4879 49.7951ZM91.9842 55.292C91.0835 56.1979 90.0121 56.9162 88.8319 57.4051C87.6517 57.8941 86.3862 58.144 85.1087 58.1404H71.4252C68.8473 58.1375 66.3757 57.1122 64.5528 55.2894C62.7299 53.4666 61.7044 50.9951 61.7014 48.4171V34.7331C61.698 33.4556 61.948 32.1901 62.4368 31.0099C62.9256 29.8296 63.6436 28.758 64.5493 27.8571C66.4016 26.077 68.8567 25.0601 71.4252 25.0092C74.5412 24.9211 77.6426 25.466 80.542 26.6109C83.4413 27.7558 86.0784 29.4768 88.2935 31.67C92.6786 36.0502 95.0125 41.8769 94.8304 48.6269C94.7967 51.1367 93.7738 53.5319 91.9842 55.292Z" fill="#25BB21"/>
<g filter="url(#filter3_d_447_760)">
<path d="M69.4665 47.2338C69.5001 47.2083 66.7235 48.7363 66.5083 51.5043C66.2931 54.2723 67.3831 57.9711 71.2928 58.1759C75.1926 58.2227 80.9335 58.2096 85.0312 58.1759C92.1538 58.2232 95.2669 52.2248 94.9821 46.8817C94.9017 39.9171 90.8568 33.4971 86.795 30.3308C82.9065 27.0873 75.9083 28.1621 71.5639 32.7564C71.5639 32.7342 86.8162 32.2984 87.0699 48.1157C87.0699 48.1157 87.2666 50.2893 84.5557 50.2197C80.6053 50.1817 70.7461 50.3029 70.6722 50.0328C69.5387 49.6095 69.4512 48.5944 69.4665 47.2338Z" fill="url(#paint3_linear_447_760)"/>
</g>
<defs>
<filter id="filter0_d_447_760" x="12.0029" y="27.5503" width="52.5176" height="53.7495" filterUnits="userSpaceOnUse" color-interpolation-filters="sRGB">
<feFlood flood-opacity="0" result="BackgroundImageFix"/>
<feColorMatrix in="SourceAlpha" type="matrix" values="0 0 0 0 0 0 0 0 0 0 0 0 0 0 0 0 0 0 127 0" result="hardAlpha"/>
<feOffset dx="-1"/>
<feGaussianBlur stdDeviation="6"/>
<feColorMatrix type="matrix" values="0 0 0 0 0 0 0 0 0 0 0 0 0 0 0 0 0 0 0.161 0"/>
<feBlend mode="normal" in2="BackgroundImageFix" result="effect1_dropShadow_447_760"/>
<feBlend mode="normal" in="SourceGraphic" in2="effect1_dropShadow_447_760" result="shape"/>
</filter>
<filter id="filter1_d_447_760" x="12.0005" y="50.5537" width="52.3174" height="53.7598" filterUnits="userSpaceOnUse" color-interpolation-filters="sRGB">
<feFlood flood-opacity="0" result="BackgroundImageFix"/>
<feColorMatrix in="SourceAlpha" type="matrix" values="0 0 0 0 0 0 0 0 0 0 0 0 0 0 0 0 0 0 127 0" result="hardAlpha"/>
<feOffset dx="-1"/>
<feGaussianBlur stdDeviation="6"/>
<feColorMatrix type="matrix" values="0 0 0 0 0 0 0 0 0 0 0 0 0 0 0 0 0 0 0.161 0"/>
<feBlend mode="normal" in2="BackgroundImageFix" result="effect1_dropShadow_447_760"/>
<feBlend mode="normal" in="SourceGraphic" in2="effect1_dropShadow_447_760" result="shape"/>
</filter>
<filter id="filter2_d_447_760" x="42.4287" y="49.7" width="52.3174" height="53.7317" filterUnits="userSpaceOnUse" color-interpolation-filters="sRGB">
<feFlood flood-opacity="0" result="BackgroundImageFix"/>
<feColorMatrix in="SourceAlpha" type="matrix" values="0 0 0 0 0 0 0 0 0 0 0 0 0 0 0 0 0 0 127 0" result="hardAlpha"/>
<feOffset dx="-1"/>
<feGaussianBlur stdDeviation="6"/>
<feColorMatrix type="matrix" values="0 0 0 0 0 0 0 0 0 0 0 0 0 0 0 0 0 0 0.161 0"/>
<feBlend mode="normal" in2="BackgroundImageFix" result="effect1_dropShadow_447_760"/>
<feBlend mode="normal" in="SourceGraphic" in2="effect1_dropShadow_447_760" result="shape"/>
</filter>
<filter id="filter3_d_447_760" x="53.4824" y="16.459" width="52.5176" height="53.7473" filterUnits="userSpaceOnUse" color-interpolation-filters="sRGB">
<feFlood flood-opacity="0" result="BackgroundImageFix"/>
<feColorMatrix in="SourceAlpha" type="matrix" values="0 0 0 0 0 0 0 0 0 0 0 0 0 0 0 0 0 0 127 0" result="hardAlpha"/>
<feOffset dx="-1"/>
<feGaussianBlur stdDeviation="6"/>
<feColorMatrix type="matrix" values="0 0 0 0 0 0 0 0 0 0 0 0 0 0 0 0 0 0 0.161 0"/>
<feBlend mode="normal" in2="BackgroundImageFix" result="effect1_dropShadow_447_760"/>
<feBlend mode="normal" in="SourceGraphic" in2="effect1_dropShadow_447_760" result="shape"/>
</filter>
<linearGradient id="paint0_linear_447_760" x1="39.2617" y1="69.2998" x2="39.2617" y2="39.5503" gradientUnits="userSpaceOnUse">
<stop stop-color="#21C2FD"/>
<stop offset="1" stop-color="#1FD2FB"/>
</linearGradient>
<linearGradient id="paint1_linear_447_760" x1="39.1592" y1="62.5537" x2="39.1592" y2="92.3135" gradientUnits="userSpaceOnUse">
<stop stop-color="#FEB22A"/>
<stop offset="1" stop-color="#FEE07F"/>
</linearGradient>
<linearGradient id="paint2_linear_447_760" x1="69.5874" y1="61.7" x2="69.5874" y2="91.4316" gradientUnits="userSpaceOnUse">
<stop stop-color="#FE9125"/>
<stop offset="1" stop-color="#FC491E"/>
</linearGradient>
<linearGradient id="paint3_linear_447_760" x1="80.7412" y1="58.2063" x2="80.7412" y2="28.459" gradientUnits="userSpaceOnUse">
<stop stop-color="#2EBE21"/>
<stop offset="1" stop-color="#7BDB27"/>
</linearGradient>
</defs>
</svg>
