<svg width="120" height="120" viewBox="0 0 120 120" fill="none" xmlns="http://www.w3.org/2000/svg">
<g clip-path="url(#clip0_436_934)">
<path d="M0 60V120H60H120V60V-1.52588e-05H60H0V60ZM51.75 27.9L52.29 28.5L39.42 28.44C27.45 28.35 26.55 28.32 26.46 27.81C26.37 27.33 27.12 27.3 38.79 27.3C50.85 27.3 51.21 27.33 51.75 27.9ZM69.84 27.81C69.75 28.29 69.36 28.35 66.45 28.35C63.54 28.35 63.15 28.29 63.06 27.81C62.97 27.36 63.27 27.3 66.45 27.3C69.63 27.3 69.93 27.36 69.84 27.81ZM54.84 30.96C55.05 31.17 55.2 31.44 55.2 31.56C55.2 31.68 48.72 31.8 40.8 31.8C26.61 31.8 26.4 31.8 26.4 31.2C26.4 30.6 26.61 30.6 40.44 30.6C50.97 30.6 54.57 30.69 54.84 30.96ZM69.9 31.2C69.9 31.77 69.69 31.8 66.63 31.8C64.74 31.8 63.27 31.68 63.15 31.5C62.73 30.81 63.48 30.6 66.63 30.6C69.69 30.6 69.9 30.63 69.9 31.2ZM33 34.53C33 35.07 32.79 35.1 29.79 35.04C27.03 34.95 26.55 34.89 26.46 34.44C26.37 33.99 26.7 33.9 28.86 33.84C32.28 33.72 33 33.84 33 34.53ZM57 34.5C57 35.1 56.85 35.13 53.64 35.04C50.7 34.95 50.25 34.89 50.16 34.41C50.07 33.96 50.37 33.9 53.52 33.9C56.82 33.9 57 33.93 57 34.5ZM69.75 34.5C69.75 34.86 69.15 34.98 66.63 35.04C63.6 35.13 62.7 34.92 63.15 34.23C63.27 33.99 64.41 33.9 66.54 33.96C69.15 34.02 69.75 34.14 69.75 34.5ZM32.94 37.74C33.03 38.4 33 38.4 29.73 38.4C26.64 38.4 26.4 38.37 26.4 37.83C26.4 37.11 26.7 37.05 30.12 37.05C32.73 37.05 32.85 37.08 32.94 37.74ZM69.81 37.32C69.9 37.41 69.9 37.68 69.81 37.95C69.66 38.31 69.06 38.4 66.78 38.4C65.22 38.4 63.75 38.31 63.48 38.22C62.7 37.92 62.94 37.26 63.84 37.14C65.04 37.02 69.63 37.14 69.81 37.32ZM57 37.8C57 38.37 56.79 38.4 53.58 38.4C50.31 38.4 50.16 38.37 50.31 37.8C50.46 37.26 50.73 37.2 53.73 37.2C56.79 37.2 57 37.23 57 37.8ZM55.5 40.5C55.83 40.5 55.74 40.68 55.23 41.1C54.54 41.7 54.09 41.7 40.53 41.64C27.78 41.55 26.55 41.52 26.46 41.04C26.4 40.77 26.58 40.5 26.88 40.44C27.33 40.38 54.12 40.41 55.5 40.5ZM69.66 40.74C70.38 41.46 69.45 41.73 66.27 41.64C63.63 41.55 63.15 41.46 63.06 41.04C63 40.65 63.21 40.53 64.11 40.44C66.6 40.23 69.3 40.38 69.66 40.74ZM51.45 43.74C54.69 43.8 55.08 43.86 55.44 44.4C55.8 45 55.77 45 41.19 44.94C27.6 44.85 26.55 44.82 26.46 44.34C26.37 43.86 26.82 43.8 31.26 43.74C36.45 43.65 45.48 43.65 51.45 43.74ZM69.84 44.31C69.75 44.79 69.36 44.85 66.45 44.85C63.54 44.85 63.15 44.79 63.06 44.31C62.97 43.86 63.27 43.8 66.45 43.8C69.63 43.8 69.93 43.86 69.84 44.31ZM32.94 47.64C33.03 48.33 33.03 48.33 29.79 48.24C27.03 48.15 26.55 48.06 26.46 47.64C26.34 47.07 27.21 46.92 30.75 46.95C32.7 46.95 32.85 47.01 32.94 47.64ZM56.76 47.16C57.06 47.31 57.21 47.61 57.12 47.85C56.97 48.21 56.28 48.3 53.67 48.3H50.4V47.52V46.74L53.34 46.83C54.93 46.89 56.49 47.01 56.76 47.16ZM69.75 47.16C69.87 47.28 69.9 47.58 69.81 47.85C69.66 48.21 69.03 48.3 66.48 48.3C63.24 48.3 62.37 48 63.45 47.22C64.02 46.8 69.36 46.74 69.75 47.16ZM32.94 50.79C32.85 51.39 32.67 51.45 30.3 51.54C27.39 51.63 26.4 51.48 26.4 50.88C26.4 50.25 26.82 50.16 30.09 50.16C32.94 50.16 33.03 50.16 32.94 50.79ZM56.82 50.49C57.93 51.03 56.73 51.39 53.43 51.48C50.67 51.6 50.1 51.54 50.1 51.18C50.1 50.94 50.34 50.58 50.64 50.4C51.24 50.04 56.01 50.1 56.82 50.49ZM71.19 50.67C71.46 50.88 71.61 51.21 71.52 51.36C71.31 51.69 63.33 51.6 63.12 51.24C63.03 51.09 63.03 50.79 63.12 50.55C63.33 49.98 70.47 50.07 71.19 50.67ZM55.02 53.67C55.11 53.82 54.96 54.12 54.69 54.33C54.3 54.66 51.63 54.72 40.41 54.69C32.85 54.66 26.55 54.57 26.49 54.48C26.4 54.39 26.4 54.12 26.49 53.85C26.67 53.46 28.35 53.4 40.77 53.4C48.63 53.4 54.93 53.52 55.02 53.67ZM93.24 53.64C93.42 53.7 93.6 54 93.6 54.27C93.6 54.72 92.49 54.75 79.77 54.69C66.15 54.63 65.1 54.57 65.1 53.67C65.1 53.43 92.52 53.37 93.24 53.64ZM51.9 56.97C51.9 57.84 50.94 57.9 38.79 57.9C28.26 57.9 26.4 57.84 26.4 57.48C26.4 57.24 26.64 56.97 26.94 56.91C27.78 56.7 51.9 56.76 51.9 56.97ZM93.6 57.33C93.6 57.87 93.27 57.9 82.74 57.96C76.74 57.99 71.25 57.99 70.53 57.96C69.24 57.9 68.4 57.51 68.4 56.97C68.4 56.79 73.68 56.7 81 56.7C93.27 56.73 93.6 56.76 93.6 57.33ZM33 62.7C33 63.36 32.97 63.36 28.95 63.3C27.63 63.27 26.52 63.21 26.43 63.15C26.37 63.09 26.4 62.82 26.49 62.55C26.64 62.19 27.27 62.1 29.85 62.1C32.79 62.1 33 62.13 33 62.7ZM57 62.7C57 63.27 56.79 63.3 53.7 63.3C51.15 63.3 50.4 63.21 50.4 62.91C50.4 62.19 50.76 62.1 53.91 62.1C56.79 62.1 57 62.13 57 62.7ZM88.29 62.7C88.8 63.3 88.8 63.3 75.99 63.24C64.05 63.15 63.15 63.12 63.06 62.61C62.97 62.13 63.72 62.1 75.36 62.1C87.42 62.1 87.78 62.13 88.29 62.7ZM33 66C33 66.57 32.79 66.6 29.7 66.6C27.15 66.6 26.4 66.51 26.4 66.21C26.4 65.49 26.76 65.4 29.91 65.4C32.79 65.4 33 65.43 33 66ZM57 66C57 66.54 56.79 66.6 54.69 66.63C52.08 66.66 50.61 66.6 50.43 66.42C50.37 66.36 50.4 66.12 50.49 65.85C50.64 65.49 51.27 65.4 53.85 65.4C56.79 65.4 57 65.43 57 66ZM91.65 66C92.19 66.6 92.16 66.6 77.61 66.6C63.21 66.6 63 66.6 63 66C63 65.4 63.21 65.4 77.04 65.4C90.72 65.4 91.11 65.43 91.65 66ZM33 69.3C33 69.87 32.79 69.9 29.7 69.9C27.15 69.9 26.4 69.81 26.4 69.51C26.4 68.79 26.76 68.7 29.91 68.7C32.79 68.7 33 68.73 33 69.3ZM57 69.3C57 69.87 56.79 69.9 53.7 69.9C51.15 69.9 50.4 69.81 50.4 69.51C50.4 68.79 50.76 68.7 53.91 68.7C56.79 68.7 57 68.73 57 69.3ZM69.75 69.3C69.75 69.66 69.15 69.78 66.39 69.84C63.15 69.93 63 69.9 63 69.3C63 68.7 63.15 68.67 66.39 68.76C69.15 68.82 69.75 68.94 69.75 69.3ZM93.6 69.3C93.6 69.87 93.39 69.9 90.3 69.9C88.5 69.9 87 69.84 87 69.78C87 69.72 86.91 69.45 86.82 69.18C86.67 68.76 87.06 68.7 90.12 68.7C93.39 68.7 93.6 68.73 93.6 69.3ZM33 72.6C33 73.17 32.79 73.2 29.7 73.2C27.15 73.2 26.4 73.11 26.4 72.81C26.4 72.09 26.76 72 29.91 72C32.79 72 33 72.03 33 72.6ZM57 72.6C57 73.17 56.79 73.2 53.7 73.2C50.61 73.2 50.4 73.17 50.4 72.6C50.4 72.03 50.61 72 53.7 72C56.79 72 57 72.03 57 72.6ZM69.84 72.69C69.93 73.17 69.66 73.2 66.54 73.14C63.57 73.05 63.15 72.99 63.06 72.51C62.97 72.03 63.24 72 66.36 72.06C69.33 72.15 69.75 72.21 69.84 72.69ZM93.69 72.42C93.78 72.66 93.78 72.93 93.69 73.02C93.57 73.11 92.04 73.2 90.24 73.2C87.21 73.2 87 73.17 87 72.6C87 72.03 87.21 72 90.27 72C92.79 72 93.57 72.09 93.69 72.42ZM33 75.9C33 76.47 32.79 76.5 29.7 76.5C27.15 76.5 26.4 76.41 26.4 76.11C26.4 75.39 26.76 75.3 29.91 75.3C32.79 75.3 33 75.33 33 75.9ZM57 75.9C57 76.47 56.79 76.5 53.7 76.5C50.61 76.5 50.4 76.47 50.4 75.9C50.4 75.33 50.61 75.3 53.7 75.3C56.79 75.3 57 75.33 57 75.9ZM92.1 75.6C92.1 76.41 90.48 76.5 76.98 76.5C63.21 76.5 63 76.5 63 75.9C63 75.3 63.21 75.3 77.55 75.3C86.7 75.3 92.1 75.42 92.1 75.6ZM33 79.2C33 79.77 32.79 79.8 29.7 79.8C26.61 79.8 26.4 79.77 26.4 79.2C26.4 78.63 26.61 78.6 29.7 78.6C32.79 78.6 33 78.63 33 79.2ZM57 79.2C57 79.77 56.79 79.8 53.7 79.8C50.61 79.8 50.4 79.77 50.4 79.2C50.4 78.63 50.61 78.6 53.7 78.6C56.79 78.6 57 78.63 57 79.2ZM91.95 79.2L92.49 79.8L77.82 79.74C64.14 79.65 63.15 79.62 63.06 79.11C62.97 78.63 63.78 78.6 77.19 78.6C91.05 78.6 91.41 78.63 91.95 79.2ZM33.09 82.08C33.18 82.17 33.18 82.44 33.09 82.68C32.88 83.28 26.4 83.31 26.4 82.71C26.4 82.47 26.49 82.2 26.61 82.11C26.85 81.84 32.82 81.84 33.09 82.08ZM57 82.5C57 83.07 56.79 83.1 53.7 83.1C50.61 83.1 50.4 83.07 50.4 82.5C50.4 81.93 50.61 81.9 53.7 81.9C56.79 81.9 57 81.93 57 82.5ZM69.75 82.5C69.75 82.86 69.15 82.98 66.39 83.04C63.15 83.13 63 83.1 63 82.5C63 81.9 63.15 81.87 66.39 81.96C69.15 82.02 69.75 82.14 69.75 82.5ZM93.69 82.08C93.78 82.17 93.78 82.44 93.69 82.68C93.57 83.01 92.79 83.1 90.3 83.1C87.33 83.1 87.06 83.04 86.91 82.5C86.76 81.93 86.91 81.9 90.12 81.9C91.98 81.9 93.57 81.99 93.69 82.08ZM69.84 85.32C69.87 85.38 69.84 85.65 69.72 85.92C69.45 86.64 63.36 86.64 63.09 85.92C63 85.65 63.09 85.32 63.3 85.2C63.66 84.99 69.6 85.11 69.84 85.32ZM91.89 85.14C93.39 85.2 93.6 85.29 93.6 85.8C93.6 86.37 93.39 86.4 90.45 86.4C87.81 86.4 87.24 86.31 87.09 85.92C86.76 85.05 87.18 84.99 91.89 85.14ZM34.74 85.8C35.1 86.4 35.04 86.4 30.75 86.4C26.61 86.4 26.4 86.37 26.4 85.8C26.4 85.23 26.61 85.2 30.39 85.2C34.02 85.2 34.38 85.26 34.74 85.8ZM57 85.8C57 86.37 56.79 86.4 52.59 86.4C48.24 86.4 48.21 86.4 48.75 85.8C49.23 85.26 49.68 85.2 53.16 85.2C56.79 85.2 57 85.23 57 85.8ZM69.75 88.83C70.38 89.46 69.3 89.73 66.27 89.64C63.66 89.55 63.15 89.46 63.06 89.04C63 88.77 63.18 88.5 63.51 88.44C64.53 88.23 69.45 88.53 69.75 88.83ZM93.51 88.62C93.6 88.71 93.6 88.98 93.51 89.25C93.24 89.94 87.36 89.91 87.09 89.22C87 88.95 87.06 88.65 87.24 88.53C87.6 88.32 93.27 88.38 93.51 88.62ZM55.2 88.68C55.2 88.8 54.96 89.07 54.69 89.28C54.27 89.61 51.57 89.67 41.7 89.7C29.34 89.7 28.5 89.64 28.5 88.74C28.5 88.62 34.5 88.5 41.85 88.5C49.2 88.5 55.2 88.59 55.2 88.68ZM69.51 91.71C69.69 91.8 69.78 92.04 69.69 92.28C69.57 92.61 68.82 92.7 66.27 92.7C63.09 92.7 62.64 92.58 63.33 91.89C63.66 91.56 68.7 91.44 69.51 91.71ZM93.39 91.83C94.47 92.43 93.48 92.7 90.27 92.7C87.66 92.7 87 92.61 87 92.28C87 92.04 87.15 91.8 87.33 91.74C88.05 91.5 92.88 91.59 93.39 91.83ZM51.48 92.37C51 92.91 50.43 92.94 41.76 92.88C36.69 92.85 32.37 92.73 32.19 92.61C31.08 91.92 32.4 91.8 41.91 91.8C51.78 91.8 51.99 91.8 51.48 92.37Z" fill="black"/>
</g>
<defs>
<clipPath id="clip0_436_934">
<rect width="120" height="120" rx="60" fill="white"/>
</clipPath>
</defs>
</svg>
