<svg width="120" height="120" viewBox="0 0 120 120" fill="none" xmlns="http://www.w3.org/2000/svg">
<path fill-rule="evenodd" clip-rule="evenodd" d="M27.43 0C20.1551 0 13.1782 2.88994 8.03406 8.03406C2.88994 13.1782 0 20.1551 0 27.43L0 92.57C0 96.1722 0.709498 99.739 2.08798 103.067C3.46647 106.395 5.48695 109.419 8.03406 111.966C10.5812 114.513 13.605 116.534 16.933 117.912C20.261 119.291 23.8278 120 27.43 120H92.57C96.1722 120 99.739 119.291 103.067 117.912C106.395 116.534 109.419 114.513 111.966 111.966C114.513 109.419 116.534 106.395 117.912 103.067C119.291 99.739 120 96.1722 120 92.57V27.43C120 23.8278 119.291 20.261 117.912 16.933C116.534 13.605 114.513 10.5812 111.966 8.03406C109.419 5.48695 106.395 3.46647 103.067 2.08798C99.739 0.709498 96.1722 0 92.57 0L27.43 0ZM89.65 86.055C94.56 80.89 89.84 73.635 82.715 73.635C79.795 73.635 77.1 75.01 74.73 76.715C71.3528 79.1503 67.2937 80.459 63.13 80.455C52.015 80.455 43.01 71.295 43.01 60C43.01 48.7 52.015 39.55 63.125 39.55C67.2882 39.5445 71.3472 40.8514 74.725 43.285C77.1 44.99 79.795 46.365 82.715 46.365C89.84 46.365 94.565 39.11 89.65 33.945C86.2419 30.3333 82.1324 27.4553 77.5731 25.4873C73.0139 23.5194 68.1009 22.5028 63.135 22.5C42.765 22.5 26.25 39.29 26.25 60C26.25 80.71 42.765 97.5 63.13 97.5C68.0984 97.4992 73.0142 96.4837 77.5762 94.5156C82.1382 92.5476 86.2502 89.6685 89.66 86.055H89.65Z" fill="#44927A"/>
</svg>
