<svg width="120" height="120" viewBox="0 0 120 120" fill="none" xmlns="http://www.w3.org/2000/svg">
<rect width="120" height="120" rx="60" fill="#EDF0F4"/>
<path d="M44.4589 32H83.3855L59.8088 52.5286H95L40.6436 88.0423L56.1282 62.5921H25L44.4589 32Z" fill="#183D96"/>
<path d="M56.1272 62.5923H67.7784L52.1508 80.5237L40.6426 88.0426L56.1272 62.5923Z" fill="#183D96"/>
<path d="M56.1277 62.5923H67.7789L65.4711 65.2403H54.5166L56.1277 62.5923Z" fill="#183D96"/>
<path d="M44.4589 32H56.069L36.5908 62.5922H25L44.4589 32Z" fill="#183D96"/>
<path d="M46.611 36.188H75.4802L57.9949 53.1806H84.0939L43.7815 82.5771L55.2654 61.5106H32.1797L46.611 36.188Z" fill="#EFC20E"/>
<path d="M55.2651 61.5105H63.906L52.3161 76.3532L43.7812 82.577L55.2651 61.5105Z" fill="#F19B11"/>
<path d="M55.2652 61.5105H63.906L62.1945 63.7024H54.0703L55.2652 61.5105Z" fill="#E47D21"/>
<path d="M46.611 36.188H55.2214L40.7758 61.5106H32.1797L46.611 36.188Z" fill="#F19B11"/>
</svg>
