<svg width="120" height="120" viewBox="0 0 120 120" fill="none" xmlns="http://www.w3.org/2000/svg">
<path d="M60 0C75.913 0 91.1742 6.32141 102.426 17.5736C113.679 28.8258 120 44.087 120 60C120 75.913 113.679 91.1742 102.426 102.426C91.1742 113.679 75.913 120 60 120C44.087 120 28.8258 113.679 17.5736 102.426C6.32141 91.1742 0 75.913 0 60C0 44.087 6.32141 28.8258 17.5736 17.5736C28.8258 6.32141 44.087 0 60 0ZM43.35 65.625C44.3006 76.7152 47.7989 87.4361 53.5725 96.9525C55.485 100.147 57.6375 103.193 60 106.065C61.8375 103.845 64.1325 100.778 66.4275 96.9525C72.2011 87.4361 75.6994 76.7152 76.65 65.625H43.35ZM76.65 54.375C75.6994 43.2848 72.2011 32.5639 66.4275 23.0475C64.125 19.2225 61.8375 16.155 60 13.935C57.6327 16.8076 55.4842 19.8536 53.5725 23.0475C47.7989 32.5639 44.3006 43.2848 43.35 54.375H76.65ZM32.07 65.625H11.5725C12.6877 75.1854 16.605 84.2025 22.8318 91.5423C29.0585 98.882 37.3167 104.217 46.5675 106.875C45.645 105.518 44.7675 104.137 43.9275 102.735C38.565 93.795 33.15 81.18 32.07 65.625ZM11.5725 54.375H32.07C33.15 38.82 38.565 26.205 43.92 17.265C44.82 15.7875 45.6975 14.4075 46.5675 13.125C37.3167 15.7834 29.0585 21.118 22.8318 28.4577C16.605 35.7975 12.6877 44.8146 11.5725 54.375ZM87.93 65.625C86.85 81.18 81.435 93.795 76.08 102.735C75.18 104.213 74.3025 105.592 73.4325 106.875C82.6833 104.217 90.9415 98.882 97.1682 91.5423C103.395 84.2025 107.312 75.1854 108.427 65.625H87.93ZM108.427 54.375C107.312 44.8146 103.395 35.7975 97.1682 28.4577C90.9415 21.118 82.6833 15.7834 73.4325 13.125C74.355 14.4825 75.2325 15.8625 76.08 17.265C81.435 26.205 86.85 38.82 87.93 54.375H108.427Z" fill="black"/>
</svg>
