<svg width="120" height="120" viewBox="0 0 120 120" fill="none" xmlns="http://www.w3.org/2000/svg">
<rect width="120" height="120" rx="60" fill="black"/>
<path d="M69.3333 83.3333V85.6667C69.9522 85.6667 70.5457 85.4208 70.9832 84.9832C71.4208 84.5457 71.6667 83.9522 71.6667 83.3333H69.3333ZM50.6667 83.3333H48.3333C48.3333 83.9522 48.5792 84.5457 49.0168 84.9832C49.4543 85.4208 50.0478 85.6667 50.6667 85.6667V83.3333ZM53 95H67V90.3333H53V95ZM41.7067 54.8667L41.66 55.1933L46.28 55.8467L46.3313 55.52L41.7067 54.8667ZM60 39C55.5515 38.9993 51.252 40.6036 47.8914 43.5184C44.5308 46.4332 42.3348 50.4627 41.7067 54.8667L46.3313 55.52C46.802 52.2293 48.4394 49.2189 50.9511 47.0414C53.4629 44.864 56.6758 43.6658 60 43.6667V39ZM78.2933 54.8667C77.6652 50.4627 75.4692 46.4332 72.1086 43.5184C68.748 40.6036 64.4485 38.9993 60 39V43.6667C63.3239 43.6667 66.5363 44.8653 69.0479 47.0426C71.5594 49.2198 73.2017 52.2297 73.6733 55.52L78.2933 54.8667ZM78.34 55.1933L78.2933 54.8667L73.6733 55.52L73.7153 55.8467L78.34 55.1933ZM74.6533 69.142C77.5933 65.3433 79.0773 60.3967 78.34 55.1933L73.72 55.8513C73.9873 57.6864 73.8812 59.5565 73.408 61.3496C72.9349 63.1427 72.1045 64.8217 70.9667 66.286L74.6533 69.142ZM67 75.8667V83.3333H71.6667V75.8713H67V75.8667ZM69.3333 81H50.6667V85.6667H69.3333V81ZM53 83.3333V75.8713H48.3333V83.3333H53ZM41.66 55.1933C41.3053 57.6468 41.4489 60.1466 42.0824 62.5432C42.7158 64.9399 43.826 67.1842 45.3467 69.142L49.038 66.286C47.9001 64.8217 47.0651 63.1427 46.592 61.3496C46.1188 59.5565 46.0127 57.6817 46.28 55.8467L41.66 55.1933ZM53 75.8667C53 72.026 50.956 68.7593 49.0333 66.2813L45.3467 69.142C47.134 71.452 48.3333 73.6547 48.3333 75.8667H53ZM70.9667 66.2813C69.0393 68.764 67 72.026 67 75.8667H71.6667C71.6667 73.6547 72.866 71.452 74.6533 69.142L70.9667 66.2813ZM57.6667 25V34.3333H62.3333V25H57.6667ZM25 62.3333H34.3333V57.6667H25V62.3333ZM85.6667 62.3333H95V57.6667H85.6667V62.3333ZM40.652 42.0147L33.652 35.0147L30.348 38.3187L37.348 45.3187L40.652 42.0147ZM82.652 45.3187L89.652 38.3187L86.348 35.0147L79.348 42.0147L82.652 45.3187Z" fill="#F4D800"/>
<path d="M59.0653 68.8182V50.6364H60.2301V68.8182H59.0653ZM62.1548 56.6378C62.098 56.0649 61.8542 55.6198 61.4233 55.3026C60.9924 54.9853 60.4077 54.8267 59.669 54.8267C59.1671 54.8267 58.7434 54.8977 58.3977 55.0398C58.0521 55.1771 57.7869 55.3688 57.6023 55.6151C57.4223 55.8613 57.3324 56.1406 57.3324 56.4531C57.3229 56.7135 57.3774 56.9408 57.4957 57.1349C57.6188 57.3291 57.7869 57.4972 58 57.6392C58.2131 57.7765 58.4593 57.8973 58.7386 58.0014C59.018 58.1009 59.3163 58.1861 59.6335 58.2571L60.9403 58.5696C61.5748 58.7116 62.1572 58.901 62.6875 59.1378C63.2178 59.3745 63.6771 59.6657 64.0653 60.0114C64.4536 60.357 64.7543 60.7642 64.9673 61.233C65.1851 61.7017 65.2964 62.2391 65.3011 62.8452C65.2964 63.7353 65.0691 64.5071 64.6193 65.1605C64.1742 65.8092 63.5303 66.3134 62.6875 66.6733C61.8494 67.0284 60.8385 67.206 59.6548 67.206C58.4806 67.206 57.4579 67.026 56.5866 66.6662C55.7202 66.3063 55.0431 65.7737 54.5554 65.0682C54.0724 64.358 53.8191 63.4796 53.7955 62.4332H56.7713C56.8045 62.9209 56.9441 63.3281 57.1903 63.6548C57.4413 63.9768 57.7751 64.2206 58.1918 64.3864C58.6132 64.5473 59.089 64.6278 59.6193 64.6278C60.1402 64.6278 60.5923 64.5521 60.9759 64.4006C61.3641 64.2491 61.6648 64.0384 61.8778 63.7685C62.0909 63.4986 62.1974 63.1884 62.1974 62.8381C62.1974 62.5114 62.1004 62.2367 61.9062 62.0142C61.7169 61.7917 61.4375 61.6023 61.0682 61.446C60.7036 61.2898 60.2562 61.1477 59.7259 61.0199L58.142 60.6222C56.9157 60.3239 55.9474 59.8575 55.2372 59.223C54.527 58.5885 54.1742 57.7339 54.179 56.6591C54.1742 55.7784 54.4086 55.009 54.8821 54.3509C55.3603 53.6927 56.0161 53.179 56.8494 52.8097C57.6828 52.4403 58.6297 52.2557 59.6903 52.2557C60.7699 52.2557 61.7121 52.4403 62.517 52.8097C63.3267 53.179 63.9564 53.6927 64.4062 54.3509C64.8561 55.009 65.0881 55.7713 65.1023 56.6378H62.1548Z" fill="#F4D800"/>
</svg>
