<svg width="120" height="120" viewBox="0 0 120 120" fill="none" xmlns="http://www.w3.org/2000/svg">
<rect width="120" height="120" rx="60" fill="black"/>
<g clip-path="url(#clip0_454_570)">
<path fill-rule="evenodd" clip-rule="evenodd" d="M70.5613 51.8927C70.4102 52.0439 70.5151 52.3091 70.7288 52.3091H90.1186C90.8849 52.3091 91.506 52.9307 91.506 53.6977V59.252C91.506 60.0189 90.8849 60.6406 90.1186 60.6406H29.9982C29.232 60.6406 28.6108 60.0189 28.6108 59.252V53.6977C28.6108 52.9307 29.232 52.3091 29.9982 52.3091H49.465C49.6787 52.3091 49.7837 52.044 49.6325 51.8927L35.8981 38.1464C35.3563 37.6042 35.3563 36.7249 35.8981 36.1826L39.8221 32.2551C40.364 31.7128 41.2424 31.7128 41.7842 32.2551L55.5188 46.0014C55.6618 46.1445 55.8963 46.0386 55.8963 45.836V26.3886C55.8963 25.6217 56.5174 25 57.2836 25H62.8333C63.5994 25 64.2206 25.6217 64.2206 26.3886V45.8001C64.2206 46.0451 64.502 46.1746 64.675 46.0014L78.4096 32.2549C78.9514 31.7126 79.8299 31.7126 80.3717 32.2549L84.2958 36.1824C84.8376 36.7247 84.8376 37.6038 84.2958 38.1461L70.5613 51.8927Z" fill="white"/>
<path d="M33.0053 74.9303C35.0066 74.9303 36.3767 76.3607 36.4691 78.4455H29.4645C29.6184 76.4063 31.0347 74.9303 33.0053 74.9303ZM36.5307 83.315C36.115 84.5629 34.8527 85.3694 33.2054 85.3694C30.9116 85.3694 29.4183 83.7716 29.4183 81.4433V81.1694H40.7951V79.815C40.7951 74.8542 37.7622 71.6433 32.9591 71.6433C28.079 71.6433 25 75.0216 25 80.2259C25 85.4455 28.0482 88.6563 33.1284 88.6563C37.2081 88.6563 40.1638 86.5107 40.6565 83.315H36.5307Z" fill="white"/>
<path d="M49.4929 85.3542C47.9688 85.3542 46.9528 84.5933 46.9528 83.3759C46.9528 82.2194 47.9073 81.4737 49.5853 81.352L53.0645 81.139V82.3259C53.0645 84.0911 51.448 85.3542 49.4929 85.3542ZM48.015 88.565C50.0779 88.565 52.1253 87.5455 53.0491 85.8107H53.1414V88.3063H57.4827V77.0911C57.4827 73.8042 54.7271 71.6433 50.4936 71.6433C46.1214 71.6433 43.3965 73.8194 43.2272 76.9846H47.3376C47.5531 75.7824 48.6154 74.9607 50.2935 74.9607C51.9868 74.9607 53.0645 75.8433 53.0645 77.365V78.4455L48.9079 78.689C44.7975 78.9324 42.4883 80.652 42.4883 83.6194C42.4883 86.5563 44.8745 88.565 48.015 88.565Z" fill="white"/>
<path d="M60.3926 88.3063H64.888V79.1911C64.888 76.8933 66.181 75.5542 68.398 75.5542C69.0445 75.5542 69.6603 75.6607 70.0297 75.8129V71.902C69.7219 71.8107 69.2755 71.7346 68.752 71.7346C66.8123 71.7346 65.4114 72.8607 64.8263 74.9303H64.734V71.9933H60.3926V88.3063Z" fill="white"/>
<path d="M71.9849 88.3063H76.4801V66.3477H71.9849V88.3063Z" fill="white"/>
<path d="M81.6371 94.3478C85.8399 94.3478 87.9183 92.8564 89.3192 88.6717L94.9998 71.9934H90.2582L86.7636 84.7456H86.6712L83.1612 71.9934H78.2349L83.9772 88.3217C83.9926 88.3825 83.8232 89.0368 83.8232 89.0978C83.5154 90.3912 82.6994 90.9087 81.0676 90.9087C80.8982 90.9087 80.0822 90.9087 79.9284 90.8782V94.3021C80.0822 94.3325 81.4678 94.3478 81.6371 94.3478Z" fill="white"/>
</g>
<defs>
<clipPath id="clip0_454_570">
<rect width="70" height="69.4176" fill="white" transform="translate(25 25)"/>
</clipPath>
</defs>
</svg>
