<svg width="120" height="120" viewBox="0 0 120 120" fill="none" xmlns="http://www.w3.org/2000/svg">
<path d="M24.981 57.0643C24.981 54.2947 27.2562 52.0195 30.021 52.0195H38.5218C41.2914 52.0195 43.6626 54.2947 43.6626 57.1651V89.2243C44.6514 88.9267 45.837 88.6291 47.2242 88.3315C49.101 87.8371 50.4882 86.1571 50.4882 84.1747V44.3971C50.4882 41.6275 52.7634 39.2515 55.629 39.2515H64.1298C66.8994 39.2515 69.2706 41.5267 69.2706 44.3971V81.3091C69.2706 81.3091 71.349 80.4163 73.4226 79.5283C75.0066 78.8371 75.9954 77.3539 75.9954 75.5683V31.5379C75.9954 28.7683 78.2706 26.3923 81.0402 26.3923H89.541C92.3106 26.3923 94.5858 28.6675 94.5858 31.5379V67.8547C101.901 62.5123 109.418 56.0803 115.351 48.3619C117.131 46.0867 117.626 43.1155 116.637 40.3459C105.76 9.07872 71.5554 -7.54848 40.3122 3.33792C9.06903 14.2243 -7.53897 48.4579 3.33303 79.7299C4.51863 83.2915 6.10263 86.6563 7.97943 89.9203C9.46263 92.4931 12.2322 93.9763 15.1986 93.6787C16.7826 93.5779 18.7602 93.3811 21.2274 93.0835C23.4018 92.8867 24.9858 91.0051 24.9858 88.8259L24.981 57.0643Z" fill="#21325B"/>
<path d="M24.7793 108.52C51.5729 128.013 89.0465 122.076 108.52 95.2627C115.936 84.9715 119.987 72.6019 119.987 59.9395C119.987 58.5523 119.886 57.1699 119.79 55.7827C97.9457 88.5331 57.5057 103.869 24.7793 108.52Z" fill="#979695"/>
</svg>
