<svg width="120" height="120" viewBox="0 0 120 120" fill="none" xmlns="http://www.w3.org/2000/svg">
<rect width="120" height="119.667" rx="59.8333" fill="#EDF0F4"/>
<path d="M94.9785 37.2742C94.9769 37.2649 94.9776 37.2556 94.9755 37.2455C94.9739 37.24 94.9732 37.2346 94.9715 37.2292C94.9662 37.2082 94.9554 37.1888 94.9477 37.1678C94.9323 37.1259 94.9186 37.0832 94.8962 37.0444C94.8878 37.0297 94.877 37.018 94.8677 37.0041C94.8563 36.9878 94.8446 36.9722 94.8322 36.9567C94.8138 36.9327 94.7977 36.9078 94.7769 36.8861C94.7585 36.8675 94.7347 36.8527 94.7146 36.8356C94.6876 36.8139 94.6647 36.7883 94.6346 36.7705L77.5196 26.1153C77.2718 25.9616 76.9589 25.9616 76.7111 26.1153L59.997 36.519L43.2865 26.1153C43.0396 25.9616 42.7258 25.9616 42.4788 26.1153L25.3654 36.7697C25.1385 36.9109 25 37.1609 25 37.4302V80.0526C25 80.3219 25.1385 80.5718 25.3654 80.7129L42.4796 91.3674C42.4842 91.3704 42.4896 91.3714 42.4942 91.3737C42.4996 91.3774 42.5035 91.3821 42.5088 91.3854C42.5458 91.4061 42.5858 91.4178 42.6242 91.4327C42.6412 91.4388 42.6581 91.4498 42.675 91.4551C42.6781 91.4558 42.6812 91.4558 42.6842 91.4568C42.7465 91.4731 42.8096 91.4815 42.8735 91.4822C42.8766 91.4822 42.8796 91.4838 42.8827 91.4838C42.9142 91.4838 42.9458 91.4754 42.9773 91.4715C43.0096 91.4675 43.0427 91.4675 43.0742 91.4591C43.0773 91.4582 43.0804 91.4558 43.0842 91.4551C43.1035 91.4498 43.1219 91.4388 43.1404 91.4327C43.1796 91.4187 43.2196 91.4061 43.2558 91.3854C43.2566 91.3854 43.2573 91.3854 43.2581 91.3844C43.2635 91.3814 43.2681 91.3767 43.2735 91.3728C43.2781 91.3704 43.2835 91.3697 43.2881 91.3667L94.6346 59.4035C94.8616 59.2621 95 59.0122 95 58.743V37.4302C94.9984 37.3774 94.9886 37.3254 94.9785 37.2742ZM43.6519 48.5224L59.2277 38.8211V58.3099L43.6519 68.0079V48.5224ZM60.7663 59.1777L76.3464 49.4771V68.9634L60.7663 78.6624V59.1777ZM43.6519 69.8312L59.2277 60.1346V79.6193L43.6519 89.3159V69.8312ZM93.46 58.3106L77.885 68.0065V48.5193L93.46 38.8219V58.3106Z" fill="black"/>
</svg>
