<svg width="120" height="120" viewBox="0 0 120 120" fill="none" xmlns="http://www.w3.org/2000/svg">
<rect width="120" height="120" rx="60" fill="#EDF0F4"/>
<path d="M94.7457 40.7609C94.2966 40.3043 93.3985 40.1522 92.9495 40C92.3508 40 91.1534 40 89.0578 40.1522C85.7649 40.3043 74.0899 42.7391 60.9181 42.7391C47.7464 42.7391 36.0714 40.3043 32.7785 40.1522C30.6829 40 29.4855 40 28.8868 40.1522C28.4378 40.1522 27.5397 40.3043 27.0906 40.913C25.2945 43.0435 28.2881 48.5217 32.3294 50.3478C33.0778 58.2609 34.1256 67.2391 37.5682 73.1739C37.5682 73.1739 37.5682 73.3261 37.8675 73.7826C40.5618 78.0435 44.7528 79.5652 49.2432 79.5652C51.638 79.5652 56.1284 79.5652 60.7685 79.5652C65.4085 79.5652 69.8989 79.5652 72.2938 79.5652C76.7841 79.5652 81.1248 77.8913 83.6694 73.7826C83.9688 73.3261 83.9688 73.1739 83.9688 73.1739C87.4114 67.2391 88.6088 58.2609 89.2075 50.1956C93.6979 48.3696 96.6915 42.8913 94.7457 40.7609ZM49.8419 54.913C49.9916 55.5217 49.5425 56.1304 48.9438 56.2826H48.7941C48.3451 56.2826 47.7464 55.9783 47.7464 55.3696C47.1477 52.0217 48.7941 50.0435 50.74 49.587C53.1348 48.8261 55.8291 49.8913 56.7271 52.0217C57.0265 52.6304 56.7271 53.2391 56.1284 53.5435C55.5297 53.8478 54.931 53.5435 54.6316 52.9348C54.1826 51.8696 52.5361 51.413 51.3387 51.7174C49.9916 52.0217 49.5425 53.2391 49.8419 54.913ZM71.8447 67.0869C71.695 67.2391 69.0008 71.9565 61.6665 71.9565C54.3323 71.9565 51.638 67.2391 51.4884 67.0869C51.189 66.4783 51.3387 65.8696 51.9374 65.5652C52.5361 65.2609 53.1348 65.413 53.4342 66.0217C53.5839 66.1739 55.6794 69.8261 61.6665 69.8261C67.6537 69.8261 69.8989 66.1739 69.8989 66.0217C70.1983 65.413 70.9467 65.2609 71.3957 65.5652C71.9944 65.7174 72.1441 66.4783 71.8447 67.0869ZM75.2874 55.3696C75.1377 55.9783 74.6886 56.2826 74.2396 56.2826H74.0899C73.4912 56.1304 73.0422 55.5217 73.1918 54.913C73.4912 53.2391 73.0422 52.0217 71.8447 51.7174C70.797 51.413 69.1505 51.7174 68.5518 52.9348C68.2524 53.5435 67.6537 53.6956 67.055 53.5435C66.4563 53.2391 66.1569 52.6304 66.4563 52.0217C67.3544 49.8913 70.0486 48.8261 72.4435 49.587C74.2396 50.0435 75.8861 52.0217 75.2874 55.3696Z" fill="#332B48"/>
</svg>
