<svg width="120" height="120" viewBox="0 0 120 120" fill="none" xmlns="http://www.w3.org/2000/svg">
<rect width="120" height="120" rx="60" fill="#EDF0F4"/>
<g clip-path="url(#clip0_457_672)">
<path opacity="0.2" d="M92.4754 75.2827L77.3616 60.1689L60.0369 77.6079L59.9585 77.6863L75.0342 92.762C78.7168 96.4446 86.7386 96.2117 91.3509 91.6419C95.8848 86.9871 96.1177 78.9273 92.4754 75.2827Z" fill="#22315E"/>
<path opacity="0.2" d="M77.3191 60.131L92.4328 45.0172C96.1155 41.3345 95.8825 33.3128 91.3128 28.7005C86.7385 24.1263 78.6407 23.8552 74.9961 27.5379L59.9204 42.6136L59.9988 42.692L77.3191 60.131Z" fill="#22315E"/>
<path d="M57.705 75.4799L42.3964 60.1332L59.869 42.6606L59.907 42.6225L48.8993 31.6148C48.8993 31.6148 43.0595 25.0581 37.363 25.0581C30.8511 25.0581 25 30.6 25 35.7925V84.7023C25 89.8947 30.8511 95.4367 37.3204 95.4367C43.0572 95.4367 48.8299 88.8105 48.8299 88.8105L59.8757 77.6886L59.8376 77.6505L57.705 75.4799Z" fill="#22315E"/>
<path opacity="0.6" d="M75.1888 62.3018L77.3214 60.1311L59.9586 42.6922L59.9182 42.6519L59.8802 42.6899L42.4009 60.1244L57.7095 75.4711L59.8802 77.6037L59.9182 77.6418L59.9967 77.5634L75.1888 62.3018Z" fill="#22315E"/>
</g>
<defs>
<clipPath id="clip0_457_672">
<rect width="70" height="70.4368" fill="white" transform="translate(25 25)"/>
</clipPath>
</defs>
</svg>
