<svg width="120" height="120" viewBox="0 0 120 120" fill="none" xmlns="http://www.w3.org/2000/svg">
<g clip-path="url(#clip0_438_425)">
<path d="M0 60V60C0 93.1371 26.8629 120 60 120V120V120C93.1371 120 120 93.1371 120 60V60V60C120 26.8629 93.1371 -7.62939e-06 60 -7.62939e-06V-7.62939e-06V-7.62939e-06C26.8629 -7.62939e-06 0 26.8629 0 60V60ZM65.9625 34.65V34.65C69.1855 37.873 69.2802 43.0684 66.177 46.4068L61.8375 51.075L60.4304 52.5833C57.3674 55.8668 51.8656 53.7277 51.825 49.2375V49.2375L51.7838 42.3716C51.7622 38.7782 53.1977 35.3294 55.7625 32.8125V32.8125C58.0125 30.6375 59.8875 28.875 60 28.875C60.1125 28.875 62.775 31.4625 65.9625 34.65ZM45.1875 61.4625L45.1266 64.8792C45.0509 69.1297 39.9131 71.2115 36.9 68.2125V68.2125C32.475 63.7875 28.9125 60.075 28.9875 59.8875C29.025 59.7375 32.7 55.9875 37.125 51.5625L44.071 44.6165C44.5079 44.1796 45.256 44.4587 45.3 45.075V45.075C45.375 45.975 45.3375 53.325 45.1875 61.4625ZM87.8625 56.55C89.55 58.275 90.9375 59.85 90.9375 60.0375C90.9375 60.225 87.7875 63.525 83.8875 67.425V67.425C80.1905 71.1615 74.0388 70.7471 70.8763 66.5486L70.35 65.85L69.0895 64.1839C66.0561 60.1742 66.3837 54.5551 69.8625 50.925V50.925L71.5652 49.1377C73.9451 46.6395 77.9125 46.5831 80.3625 49.0125V49.0125C82.8 51.45 86.175 54.825 87.8625 56.55ZM67.1668 72.2957C70.596 76.8812 70.1467 81.2866 66.075 85.3125V85.3125L64.3392 87.0269C61.9384 89.3981 58.0736 89.386 55.6875 87V87L55.4657 86.7801C52.8274 84.1646 51.3646 80.5897 51.4125 76.875V76.875C51.45 73.6875 51.6 70.725 51.75 70.3125C51.9 69.8625 53.7 67.8 55.6875 65.7V65.7C57.5918 63.6976 60.8382 63.884 62.5008 66.0912L65.85 70.5375C66.3016 71.1397 66.7421 71.7277 67.1668 72.2957Z" fill="black"/>
</g>
<defs>
<clipPath id="clip0_438_425">
<rect width="120" height="120" fill="white"/>
</clipPath>
</defs>
</svg>
