<svg width="120" height="120" viewBox="0 0 120 120" fill="none" xmlns="http://www.w3.org/2000/svg">
<rect width="120" height="120" rx="60" fill="#EDF0F4"/>
<path fill-rule="evenodd" clip-rule="evenodd" d="M60.5021 63.9518C54.0648 63.9518 48.847 58.7362 48.847 52.2967C48.847 45.8572 54.0648 40.6416 60.5021 40.6416C66.9357 40.6416 72.1572 45.8572 72.1572 52.2967C72.1572 58.7362 66.9357 63.9518 60.5021 63.9518ZM55.4326 52.2967C55.4326 55.0967 57.705 57.364 60.5021 57.364C63.2991 57.364 65.5679 55.0967 65.5679 52.2967C65.5679 49.4969 63.2991 47.2293 60.5021 47.2293C57.705 47.2293 55.4326 49.4969 55.4326 52.2967Z" fill="#04CD58"/>
<path fill-rule="evenodd" clip-rule="evenodd" d="M23 52.3123L45.297 30H75.703L98 52.3123L60.5018 89.7957L23 52.3123ZM77.7293 44.1887C68.2562 34.6734 52.7438 34.6735 43.2707 44.1888L35.1617 52.2968L43.2707 60.4047C52.7438 69.9201 68.2562 69.9201 77.7293 60.4047L85.8383 52.2968L77.7293 44.1887Z" fill="#04CD58"/>
</svg>
