<svg width="120" height="120" viewBox="0 0 120 120" fill="none" xmlns="http://www.w3.org/2000/svg">
<rect width="120" height="120" rx="60" fill="#151A28"/>
<path d="M92.2655 25C87.2027 24.9988 82.3518 27.0308 78.801 30.6398V25H76.0664C71.0011 24.9967 66.1469 27.0289 62.5946 30.6398V25H59.8676C49.4105 25.0082 40.9352 33.4833 40.927 43.9408V73.0392C40.6372 73.0392 40.3474 73.0392 40.0577 73.0392C39.3283 73.0382 38.6008 73.1154 37.8881 73.2696C36.5944 73.5334 35.3648 74.0484 34.2695 74.7853C33.4905 72.9827 31.7153 71.8149 29.7516 71.813C29.4041 71.8088 29.0574 71.8461 28.7188 71.9244C26.0907 72.5799 24.4914 75.2415 25.1469 77.8696C25.6765 79.9934 27.5494 81.5091 29.7368 81.5842H29.8781C29.6491 82.8874 29.6768 84.2226 29.9599 85.5151C31.0011 90.2623 35.1908 93.656 40.0506 93.6889C41.5074 93.6886 42.9479 93.3822 44.2786 92.7898C46.0891 94.3967 48.4266 95.2824 50.8472 95.2791H85.0282C90.5191 95.2957 94.9838 90.8577 95 85.3667C95 85.3594 95 85.3517 95 85.3444V25H92.2655ZM92.2655 85.3444C92.2533 89.3159 89.0367 92.5324 85.0652 92.5448H50.8472C48.4041 92.5411 46.1297 91.2988 44.8061 89.2455C43.8868 89.9973 42.8018 90.5194 41.6408 90.7689C41.1129 90.88 40.5751 90.9373 40.0358 90.9398C36.4545 90.9363 33.3606 88.4366 32.6052 84.9358C32.3926 83.9265 32.3926 82.8839 32.6052 81.8744C32.6577 81.5825 32.7297 81.2946 32.8206 81.0124C32.8354 80.828 32.8202 80.6422 32.7759 80.4625C32.5675 79.4598 31.6822 78.7422 30.6581 78.746C30.5034 78.7469 30.3494 78.7619 30.1974 78.7905C30.0465 78.8266 29.8917 78.844 29.7366 78.8426C28.5383 78.8431 27.5665 77.872 27.5661 76.6737C27.5658 75.6438 28.2895 74.7553 29.2982 74.5476C29.4494 74.5145 29.6043 74.4995 29.759 74.5031C30.7787 74.5044 31.6601 75.2157 31.8768 76.2123C32.0852 77.2149 32.9705 77.9325 33.9947 77.9287C34.1499 77.9297 34.3044 77.9123 34.4554 77.8766C34.6371 77.8415 34.8127 77.7789 34.9756 77.6908C35.1963 77.4959 35.427 77.3124 35.6666 77.1408C36.5077 76.5415 37.4642 76.1238 38.4754 75.9149C38.9975 75.7998 39.5308 75.7425 40.0656 75.744C41.3246 75.7416 42.5638 76.0558 43.6695 76.658V43.9631C43.653 35.0166 50.8922 27.751 59.8387 27.7345C59.8486 27.7345 59.8584 27.7345 59.8683 27.7345V43.9408C59.8641 34.9943 67.1133 27.7387 76.0598 27.7345C76.0622 27.7345 76.0648 27.7345 76.0671 27.7345V43.9408C76.0629 34.9943 83.3121 27.7387 92.2586 27.7345C92.261 27.7345 92.2636 27.7345 92.2659 27.7345L92.2655 85.3444Z" fill="white"/>
<path d="M86.8707 69.6584V83.0336C86.8585 85.3009 85.0214 87.1347 82.7541 87.1427H81.4685V84.4454C81.3903 82.9535 80.1174 81.8078 78.6258 81.886C77.2435 81.9585 76.1389 83.063 76.0664 84.4454V87.1502H59.8676V84.4454C59.8594 82.9574 58.651 81.7555 57.1628 81.7555C55.6772 81.7513 54.4696 82.9525 54.4655 84.438C54.4655 84.4405 54.4655 84.4431 54.4655 84.4454V87.1502H53.1801C50.9083 87.146 49.0677 85.3054 49.0635 83.0336V69.6584C49.0677 67.3865 50.9083 65.5459 53.1801 65.5417H54.4655V68.2392C54.4655 69.7302 55.6718 70.9399 57.1628 70.9441C58.655 70.9399 59.8634 69.7314 59.8676 68.2392V65.5419H76.0664V68.2392C75.9881 69.7311 77.134 71.0037 78.6258 71.082C80.1176 71.1603 81.3903 70.0144 81.4685 68.5226C81.4736 68.4281 81.4736 68.3336 81.4685 68.2391V65.5417H82.7541C85.0243 65.5498 86.8625 67.3881 86.8707 69.6584Z" fill="white"/>
<path d="M63.8195 57.6485C64.0649 58.358 65.5881 60.0108 65.5881 60.0108C61.1213 60.0108 58.2456 58.7509 58.2456 57.4338C58.2456 56.5058 58.2456 53.7219 58.2456 53.7219C58.2456 52.8723 58.6765 52.4415 59.5261 52.4415H62.5242C63.3778 52.4374 63.7295 52.6966 63.7337 53.5502C63.7337 53.5502 63.4847 56.68 63.8195 57.6485Z" fill="white"/>
<path d="M76.4242 53.5499C76.4284 52.6963 76.7799 52.4374 77.6337 52.4412H80.6318C81.4814 52.4412 81.9123 52.8721 81.9123 53.7217C81.9123 53.7217 81.9123 56.5055 81.9123 57.4336C81.9123 58.7508 79.0368 60.0106 74.5698 60.0106C74.5698 60.0106 76.093 58.3578 76.3384 57.6482C76.673 56.6799 76.4242 53.5499 76.4242 53.5499Z" fill="white"/>
<path d="M57.0369 30.2683C55.3627 30.9477 53.7959 31.8662 52.3855 32.9953C51.0375 34.092 49.8844 35.4082 48.975 36.889C48.0671 38.3737 47.4258 40.0059 47.0801 41.7115C47.043 41.9269 46.9835 42.1426 46.9539 42.358C46.9242 42.5733 46.9017 42.7964 46.8721 43.0192C46.7976 43.4503 46.768 43.9183 46.716 44.3791C46.6046 45.3005 46.5007 46.2217 46.3223 47.1433C46.1366 46.2219 46.0324 45.3007 45.9135 44.3791C45.8689 43.9183 45.8169 43.4651 45.8021 42.9821C45.7613 42.5024 45.7613 42.0202 45.8021 41.5405C45.9303 39.5888 46.5348 37.6982 47.5632 36.0344C48.5711 34.3628 49.9616 32.9545 51.6203 31.9253C53.2506 30.9109 55.1177 30.3396 57.0369 30.2683Z" fill="white"/>
<path d="M73.2357 30.2683C71.6417 30.9294 70.1425 31.7989 68.7773 32.854C67.4719 33.877 66.3403 35.1039 65.4262 36.4876C64.5179 37.8722 63.8287 39.3884 63.3828 40.9832C63.2639 41.3919 63.2119 41.808 63.1003 42.2167C62.9889 42.6255 62.9741 43.0564 62.8996 43.4799C62.7955 44.3567 62.6842 45.2262 62.5058 46.1105C62.3201 45.2262 62.216 44.3569 62.1046 43.4799C62.1046 43.0341 62.0451 42.5733 62.0301 42.1128C62.0153 41.6521 62.0748 41.1989 62.1342 40.7457C62.3714 38.888 63.0295 37.1088 64.0587 35.5442C65.0783 33.9893 66.4474 32.694 68.0564 31.7621C69.6251 30.8256 71.4094 30.3112 73.2357 30.2683Z" fill="white"/>
<path d="M89.4418 30.2683C87.8482 30.9299 86.349 31.7994 84.9834 32.854C83.6822 33.8792 82.5532 35.1058 81.6397 36.4876C80.7313 37.8722 80.0422 39.3884 79.5963 40.9832C79.47 41.3919 79.4179 41.808 79.3138 42.2167C79.2097 42.6255 79.18 43.0564 79.1131 43.4799C79.0016 44.3567 78.8977 45.2262 78.7193 46.1105C78.5336 45.2262 78.4295 44.3569 78.3106 43.4799C78.3106 43.0341 78.2584 42.5733 78.2438 42.1128C78.2289 41.6521 78.2809 41.1989 78.3404 40.7457C78.58 38.8873 79.2407 37.1082 80.2723 35.5442C81.2982 33.9988 82.6725 32.7163 84.2849 31.799C85.8445 30.8556 87.6202 30.3285 89.4418 30.2683Z" fill="white"/>
</svg>
