<svg width="120" height="120" viewBox="0 0 120 120" fill="none" xmlns="http://www.w3.org/2000/svg">
<rect width="120" height="120" rx="60" fill="#EDF0F4"/>
<path fill-rule="evenodd" clip-rule="evenodd" d="M95 60.1455C95 72.3761 85.1336 82.2909 72.963 82.2909C60.7921 82.2909 50.926 72.3761 50.926 60.1455C50.926 47.9149 60.7921 38 72.963 38C85.1336 38 95 47.9149 95 60.1455ZM86.7036 60.1455C86.7036 67.7719 80.552 73.9538 72.963 73.9538C65.374 73.9538 59.2221 67.7719 59.2221 60.1455C59.2221 52.5193 65.374 46.3371 72.963 46.3371C80.552 46.3371 86.7036 52.5193 86.7036 60.1455ZM37.963 51.2873C37.963 48.8412 39.9362 46.8582 42.3704 46.8582C44.8045 46.8582 46.7778 48.8412 46.7778 51.2873V69.0036C46.7778 71.4496 44.8045 73.4327 42.3704 73.4327C39.9362 73.4327 37.963 71.4496 37.963 69.0036V51.2873ZM25 54.4136C25 51.9676 26.9733 49.9846 29.4074 49.9846C31.8415 49.9846 33.8148 51.9676 33.8148 54.4136V66.3984C33.8148 68.8443 31.8415 70.8275 29.4074 70.8275C26.9733 70.8275 25 68.8443 25 66.3984V54.4136Z" fill="url(#paint0_linear_460_484)"/>
<defs>
<linearGradient id="paint0_linear_460_484" x1="30.6452" y1="159.398" x2="100.645" y2="159.398" gradientUnits="userSpaceOnUse">
<stop stop-color="#21549C"/>
<stop offset="1" stop-color="#63EB92"/>
</linearGradient>
</defs>
</svg>
