<svg width="120" height="120" viewBox="0 0 120 120" fill="none" xmlns="http://www.w3.org/2000/svg">
<rect width="120" height="120" rx="60" fill="#EDF0F4"/>
<path d="M45.8207 70.5215L25.2602 33.9923C24.3414 32.3448 26.0205 30.4439 27.7313 31.236L46.7078 39.7584C47.2147 39.9802 47.7533 39.9802 48.2602 39.7584L67.7128 31.1726C69.4236 30.4123 71.1028 32.3132 70.1523 33.9606L49.179 70.5215C48.4186 71.8204 46.5811 71.8204 45.8207 70.5215Z" fill="#93C5FE"/>
<path d="M74.1785 49.3257L94.74 85.8549C95.6587 87.5023 93.9796 89.4032 92.2688 88.6112L73.2914 80.0888C72.7845 79.867 72.2459 79.867 71.739 80.0888L52.318 88.6429C50.6072 89.4032 48.9281 87.5023 49.8785 85.8549L70.8519 49.294C71.6122 47.9951 73.4498 47.9951 74.2102 49.294L74.1785 49.3257Z" fill="#0099FA"/>
</svg>
