<svg width="120" height="120" viewBox="0 0 120 120" fill="none" xmlns="http://www.w3.org/2000/svg">
<rect width="120" height="120" rx="60" fill="#EDF0F4"/>
<path d="M105.521 60.3095C105.521 76.3144 93.8823 89.6 78.6045 92.1667V60.3044C78.6045 49.8955 70.1675 41.4534 59.7534 41.4534C49.3394 41.4534 41.1667 49.6312 40.9126 59.8165C41.1769 42.2005 55.5352 28 73.2172 28C90.8992 28 105.526 42.4648 105.526 60.3095H105.521Z" fill="black"/>
<path d="M14 59.8572C14 43.8524 25.6389 30.5667 40.9169 28V59.8572C40.9169 70.266 49.3539 78.708 59.7679 78.708C70.182 78.708 78.3549 70.5305 78.6088 60.3451C78.3494 77.961 63.9866 92.1667 46.3095 92.1667C28.6325 92.1667 14 77.702 14 59.8572Z" fill="black"/>
</svg>
