<svg width="120" height="120" viewBox="0 0 120 120" fill="none" xmlns="http://www.w3.org/2000/svg">
<rect width="120" height="120" rx="60" fill="#EDF0F4"/>
<g clip-path="url(#clip0_454_510)">
<path d="M60 25L33.1875 51.8125L60 77.502L86.8125 51.8125L60 25Z" fill="url(#paint0_linear_454_510)"/>
<path d="M46.5063 74.6284C47.0968 73.8379 47.6563 73.0874 48.3263 72.3579C40.2678 74.2999 34.7183 78.3669 34.7183 83.0739C34.7183 83.2494 34.7278 83.4239 34.7428 83.5969C35.5333 83.2969 36.3673 82.9379 37.2533 82.5024C42.5763 79.8874 44.6643 77.0934 46.5063 74.6284Z" fill="black"/>
<path d="M54.9002 83.28C56.5117 81.1235 57.9032 79.2615 61.8367 77.33C65.7702 75.3985 68.0952 75.4345 70.7867 75.476C72.5897 75.5045 74.5342 75.534 76.9062 75.026C74.0137 73.472 70.2947 72.2965 66.0912 71.666L60.0002 77.5L55.7427 73.421C52.7087 75.464 51.1542 77.5415 49.7427 79.427C48.1312 81.5835 46.7397 83.446 42.8062 85.377C40.0472 86.732 38.0802 87.1185 36.2222 87.214C37.6877 89.1575 40.1552 90.864 43.3152 92.176C44.0512 91.8905 44.8252 91.5525 45.6427 91.151C50.9687 88.539 53.0567 85.745 54.9002 83.28Z" fill="black"/>
<path d="M79.2778 77.6945C76.2008 77.6445 72.7138 77.591 67.3903 80.2065C62.0668 82.822 59.9788 85.6155 58.1368 88.081C56.5253 90.237 55.1338 92.0995 51.1998 94.031C51.0218 94.1185 50.8498 94.201 50.6758 94.281C53.4205 94.7652 56.2027 95.0058 58.9898 95C59.6044 95 60.2129 94.9889 60.8153 94.9665C61.7998 93.9245 62.5653 92.9025 63.2903 91.932C64.9013 89.7755 66.2933 87.913 70.2268 85.982C74.1603 84.051 76.4858 84.087 79.1768 84.1285C80.4158 84.148 81.7218 84.168 83.1873 84.015C83.2367 83.7043 83.2616 83.3902 83.2618 83.0755C83.2618 81.144 82.3263 79.3205 80.6678 77.707C80.2088 77.709 79.7498 77.7 79.2778 77.6945Z" fill="black"/>
<path d="M68.7217 94C75.0802 92.631 80.0147 89.9615 82.1327 86.6765C80.3142 87.0085 78.2452 87.646 75.7827 88.8565C72.3502 90.544 70.2652 92.3035 68.7217 94Z" fill="black"/>
<path opacity="0.5" d="M60 51.8125H33.1875L60 25V51.8125Z" fill="url(#paint1_linear_454_510)"/>
</g>
<defs>
<linearGradient id="paint0_linear_454_510" x1="72.923" y1="38.8895" x2="48.0365" y2="63.776" gradientUnits="userSpaceOnUse">
<stop offset="0.09" stop-color="#FF6D41"/>
<stop offset="0.5" stop-color="#FA297F"/>
<stop offset="1" stop-color="#FA297F"/>
</linearGradient>
<linearGradient id="paint1_linear_454_510" x1="66.0295" y1="32.377" x2="41.0405" y2="57.3655" gradientUnits="userSpaceOnUse">
<stop stop-color="#652CB4"/>
<stop offset="0.07" stop-color="#652CB4" stop-opacity="0.82"/>
<stop offset="0.19" stop-color="#652CB4" stop-opacity="0.53"/>
<stop offset="0.3" stop-color="#652CB4" stop-opacity="0.3"/>
<stop offset="0.4" stop-color="#652CB4" stop-opacity="0.14"/>
<stop offset="0.49" stop-color="#652CB4" stop-opacity="0.04"/>
<stop offset="0.55" stop-color="#652CB4" stop-opacity="0"/>
</linearGradient>
<clipPath id="clip0_454_510">
<rect width="70" height="70" fill="white" transform="translate(25 25)"/>
</clipPath>
</defs>
</svg>
