<svg width="120" height="120" viewBox="0 0 120 120" fill="none" xmlns="http://www.w3.org/2000/svg">
<path d="M0 61.9354C0 29.8672 25.9964 3.87085 58.0645 3.87085H61.9355C94.0036 3.87085 120 29.8672 120 61.9354C120 94.0035 94.0036 120 61.9355 120H58.0645C25.9964 120 0 94.0035 0 61.9354Z" fill="#EDF0F4"/>
<path d="M29.4821 80.5C28.0821 80.5 27.0421 80.16 26.3621 79.48C25.7221 78.8 25.4021 77.72 25.4021 76.24C25.4021 74.48 25.9221 70.86 26.9621 65.38C28.0421 59.86 29.2621 54.4 30.6221 49L27.9221 46C28.8821 45.16 30.0021 44.48 31.2821 43.96C32.6021 43.44 33.7821 43.18 34.8221 43.18C36.0221 43.18 36.8621 43.42 37.3421 43.9C37.8221 44.38 38.0621 45.24 38.0621 46.48C38.0621 47.52 37.8821 48.7 37.5221 50.02C37.2021 51.34 36.7621 52.56 36.2021 53.68L36.8021 53.98C40.8421 46.66 46.0821 43 52.5221 43C55.1221 43 57.0421 43.66 58.2821 44.98C59.5621 46.26 60.2021 48.26 60.2021 50.98C60.2021 52.58 60.0221 54.24 59.6621 55.96C59.3421 57.68 58.8621 59.84 58.2221 62.44C57.4621 65.48 56.9021 67.98 56.5421 69.94C56.1821 71.86 56.0021 73.78 56.0021 75.7C56.0021 77.14 56.2621 78.18 56.7821 78.82C55.5821 79.94 54.3021 80.5 52.9421 80.5C51.5821 80.5 50.5621 80.16 49.8821 79.48C49.2421 78.8 48.9221 77.72 48.9221 76.24C48.9221 74.72 49.0821 73.02 49.4021 71.14C49.7621 69.22 50.2621 66.74 50.9021 63.7C51.5021 61.18 51.9421 59.08 52.2221 57.4C52.5421 55.68 52.7021 54.2 52.7021 52.96C52.7021 49.72 51.4821 48.1 49.0421 48.1C46.2021 48.1 43.5021 49.46 40.9421 52.18C38.4221 54.86 36.3821 58.34 34.8221 62.62C33.3021 66.9 32.5421 71.26 32.5421 75.7C32.5421 77.18 32.7821 78.22 33.2621 78.82C32.0621 79.94 30.8021 80.5 29.4821 80.5ZM83.4109 80.5C79.0109 80.5 75.5509 79.22 73.0309 76.66C70.5509 74.1 69.3109 70.54 69.3109 65.98C69.3109 61.66 70.2709 57.76 72.1909 54.28C74.1109 50.76 76.7309 48 80.0509 46C83.3709 44 87.0109 43 90.9709 43C93.4909 43 95.4709 43.42 96.9109 44.26C98.3909 45.06 99.1309 46.18 99.1309 47.62C99.1309 48.82 98.6509 49.84 97.6909 50.68C96.7709 51.48 95.6109 51.88 94.2109 51.88C92.7309 51.88 91.3909 51.54 90.1909 50.86C88.9909 50.18 88.0109 49.08 87.2509 47.56C85.2109 48.44 83.3909 49.8 81.7909 51.64C80.1909 53.48 78.9309 55.68 78.0109 58.24C77.1309 60.76 76.6909 63.46 76.6909 66.34C76.6909 69.5 77.2709 71.98 78.4309 73.78C79.6309 75.58 81.2709 76.48 83.3509 76.48C85.0309 76.48 86.5309 76.06 87.8509 75.22C89.1709 74.38 90.2109 73.24 90.9709 71.8C91.7309 70.32 92.1709 68.68 92.2909 66.88C93.8509 66.88 95.0509 67.18 95.8909 67.78C96.7309 68.38 97.1509 69.3 97.1509 70.54C97.1509 72.34 96.5309 74 95.2909 75.52C94.0509 77.04 92.3709 78.24 90.2509 79.12C88.1709 80.04 85.8909 80.5 83.4109 80.5Z" fill="black"/>
</svg>
