<svg width="120" height="121" viewBox="0 0 120 121" fill="none" xmlns="http://www.w3.org/2000/svg">
<path d="M120 60.0688C120 71.9494 116.481 83.5632 109.888 93.4415C103.295 103.32 93.9247 111.019 82.9611 115.565C71.9974 120.112 59.9334 121.301 48.2945 118.984C36.6557 116.666 25.9648 110.945 17.5736 102.544C9.18249 94.1432 3.46802 83.4399 1.15292 71.7877C-1.1622 60.1356 0.0259744 48.0576 4.56724 37.0814C9.10849 26.1053 16.7988 16.7239 26.6658 10.1235C36.5328 3.52302 48.1331 0 59.9999 0C75.9131 0 91.1742 6.32875 102.426 17.5939C113.679 28.8591 120 44.1376 120 60.0688ZM90.8866 36.6925L79.5909 67.7654L54.4646 21.8768C47.7059 22.8419 41.3174 25.562 35.9349 29.7665C30.5522 33.9708 26.3632 39.5132 23.7845 45.8416C21.2058 52.1703 20.3273 59.0645 21.2364 65.8387C22.1456 72.6128 24.8106 79.0304 28.9664 84.4531L40.4285 52.9225L65.8066 99.296C72.5329 98.2695 78.8754 95.5034 84.2068 91.2711C89.5383 87.0388 93.674 81.4866 96.2055 75.1639C98.7371 68.841 99.5765 61.9663 98.6408 55.2191C97.7053 48.4718 95.0271 42.086 90.8711 36.6925H90.8866Z" fill="#1892F0"/>
</svg>
