<svg width="120" height="120" viewBox="0 0 120 120" fill="none" xmlns="http://www.w3.org/2000/svg">
<rect width="120" height="120" rx="60" fill="#EDF0F4"/>
<g clip-path="url(#clip0_454_550)">
<path fill-rule="evenodd" clip-rule="evenodd" d="M44.8 80C50.906 80 56.368 77.206 60 72.814C63.632 77.206 69.094 80 75.2 80C86.136 80 95 71.046 95 60C95 48.954 86.136 40 75.2 40C69.094 40 63.632 42.794 60 47.186C56.368 42.794 50.906 40 44.8 40C33.862 40 25 48.954 25 60C25 71.046 33.864 80 44.8 80ZM55 62.818C53.778 67.35 49.672 70.682 44.8 70.682C38.96 70.682 34.226 65.9 34.226 60C34.226 54.1 38.958 49.32 44.798 49.32C49.672 49.32 53.778 52.65 55 57.182H65C66.222 52.65 70.328 49.318 75.2 49.318C81.04 49.318 85.774 54.1 85.774 60C85.774 65.9 81.04 70.68 75.202 70.68C70.328 70.68 66.222 67.35 65 62.818H55Z" fill="black"/>
</g>
<defs>
<clipPath id="clip0_454_550">
<rect width="70" height="70" fill="white" transform="translate(25 25)"/>
</clipPath>
</defs>
</svg>
