<svg width="120" height="120" viewBox="0 0 120 120" fill="none" xmlns="http://www.w3.org/2000/svg">
<rect width="120" height="120" rx="60" fill="#EDF0F4"/>
<mask id="mask0_437_1030" style="mask-type:luminance" maskUnits="userSpaceOnUse" x="0" y="7" width="120" height="107">
<path d="M120 7H0V113.112H120V7Z" fill="white"/>
</mask>
<g mask="url(#mask0_437_1030)">
<mask id="mask1_437_1030" style="mask-type:luminance" maskUnits="userSpaceOnUse" x="13" y="18" width="94" height="84">
<path d="M106.143 56.3612L85.8419 21.1993C84.6989 19.2196 82.5866 18 80.3011 18H39.6995C37.4136 18 35.3011 19.2196 34.1583 21.1993L13.8573 56.3612C12.7142 58.3409 12.7142 60.7801 13.8573 62.7598L34.158 97.9216C35.3011 99.9013 37.4133 101.121 39.6992 101.121H80.3005C82.5866 101.121 84.6989 99.9013 85.8419 97.9216L106.142 62.7598C107.285 60.7801 107.286 58.3409 106.143 56.3612ZM47.1255 36.9413C49.9409 40.5188 51.6205 45.032 51.6205 49.9379C51.6205 54.1863 50.3577 58.1381 48.1918 61.4452H32.9608L47.1255 36.9413ZM93.5743 66.8659V66.8757C93.5743 67.0783 93.4641 67.2576 93.275 67.3364C92.2428 67.7786 88.8381 69.3541 87.4185 71.3311C83.765 76.4183 80.9726 84.4218 74.7336 84.4218H48.6992C39.482 84.4218 31.7652 77.1045 31.7748 67.3597C31.7748 67.1158 31.978 66.9164 32.2217 66.9164H44.5616C44.9835 66.9164 45.3256 67.2587 45.3256 67.6808V70.0625C45.3256 71.3289 46.3522 72.3552 47.6182 72.3552L56.9778 72.3524V66.9083H50.5814C54.2558 62.2479 56.4499 56.3663 56.4499 49.9712C56.4499 42.8268 53.7129 36.3222 49.2313 31.4464C51.942 31.7603 54.5335 32.3 56.9778 33.0208V31.5066C56.9778 29.9335 58.253 28.6586 59.8261 28.6586C61.3993 28.6586 62.6745 29.9338 62.6745 31.5066V35.1599C71.4153 39.2377 77.1327 46.004 77.1327 53.6625C77.1327 58.1528 75.1666 62.3366 71.7782 65.8522C71.1262 66.5285 70.2228 66.9088 69.2835 66.9088H62.6745V72.3519L70.9622 72.3497C72.7523 72.3497 75.9581 68.9619 77.4804 66.9175C77.4804 66.9175 77.545 66.8159 77.72 66.7654C77.8949 66.7149 92.943 63.2589 92.943 63.2589C93.256 63.1713 93.5743 63.4109 93.5743 63.7382V66.867V66.8659Z" fill="white"/>
</mask>
<g mask="url(#mask1_437_1030)">
<path d="M49.5795 -8.55957L-4.20068 84.5908L12.828 94.4224L66.6081 1.27196L49.5795 -8.55957Z" fill="url(#paint0_linear_437_1030)"/>
<path d="M64.5083 0.0610352L10.728 93.2114L27.3702 102.82L81.1502 9.66941L64.5083 0.0610352Z" fill="url(#paint1_linear_437_1030)"/>
<path d="M79.4256 8.67529L25.645 101.826L42.8012 111.731L96.5817 18.5804L79.4256 8.67529Z" fill="url(#paint2_linear_437_1030)"/>
<path d="M94.353 17.2952L40.5728 110.446L58.0603 120.542L111.84 27.3916L94.353 17.2952Z" fill="url(#paint3_linear_437_1030)"/>
<path d="M109.277 25.9097L55.4971 119.06L70.4223 127.677L124.203 34.5269L109.277 25.9097Z" fill="url(#paint4_linear_437_1030)"/>
</g>
</g>
<defs>
<linearGradient id="paint0_linear_437_1030" x1="24.4282" y1="33.9937" x2="37.3184" y2="50.9977" gradientUnits="userSpaceOnUse">
<stop stop-color="#E272E4"/>
<stop offset="0.995" stop-color="#E15BD3"/>
</linearGradient>
<linearGradient id="paint1_linear_437_1030" x1="56.7444" y1="47.5077" x2="30.7894" y2="56.9545" gradientUnits="userSpaceOnUse">
<stop stop-color="#F3708B"/>
<stop offset="0.313" stop-color="#F26F8D"/>
<stop offset="0.511" stop-color="#F06C96"/>
<stop offset="0.678" stop-color="#EC69A4"/>
<stop offset="0.827" stop-color="#E863B9"/>
<stop offset="0.963" stop-color="#E15CD4"/>
<stop offset="1" stop-color="#E05ADD"/>
</linearGradient>
<linearGradient id="paint2_linear_437_1030" x1="51.9773" y1="46.5799" x2="67.8376" y2="70.2305" gradientUnits="userSpaceOnUse">
<stop stop-color="#F47E7C"/>
<stop offset="1" stop-color="#F76DA1"/>
</linearGradient>
<linearGradient id="paint3_linear_437_1030" x1="66.036" y1="53.444" x2="82.7655" y2="78.8976" gradientUnits="userSpaceOnUse">
<stop stop-color="#FFC846"/>
<stop offset="1" stop-color="#F771A2"/>
</linearGradient>
<linearGradient id="paint4_linear_437_1030" x1="82.0244" y1="68.0854" x2="96.7504" y2="84.4716" gradientUnits="userSpaceOnUse">
<stop stop-color="#FCB145"/>
<stop offset="1" stop-color="#F89E85"/>
</linearGradient>
</defs>
</svg>
