<svg width="120" height="120" viewBox="0 0 120 120" fill="none" xmlns="http://www.w3.org/2000/svg">
<g clip-path="url(#clip0_440_647)">
<path d="M120 60C120 93.1352 93.1352 120 60 120C26.8648 120 0 93.1352 0 60C0 26.8648 26.8648 0 60 0C93.1422 0 120 26.8648 120 60Z" fill="#2081E2"/>
<path d="M29.6014 62.016L29.8602 61.6091L45.4686 37.1917C45.6967 36.8343 46.233 36.8712 46.4056 37.2595C49.0132 43.1034 51.2632 50.3713 50.2091 54.8961C49.7591 56.7577 48.5262 59.2789 47.1391 61.6091C46.9604 61.9482 46.7632 62.2811 46.5535 62.6016C46.4549 62.7496 46.2884 62.8359 46.1096 62.8359H30.0575C29.626 62.8359 29.3732 62.3674 29.6014 62.016Z" fill="white"/>
<path d="M99.1735 66.5532V70.4183C99.1735 70.6402 99.0379 70.8374 98.8406 70.9237C97.6324 71.4415 93.496 73.3402 91.7762 75.732C87.3871 81.841 84.0337 90.576 76.5376 90.576H45.2654C34.1818 90.576 25.2002 81.5636 25.2002 70.4429V70.0854C25.2002 69.7895 25.4406 69.5491 25.7365 69.5491H43.1696C43.5147 69.5491 43.7674 69.8696 43.7367 70.2086C43.6134 71.3429 43.823 72.5018 44.3593 73.5559C45.3949 75.6581 47.5401 76.9711 49.8579 76.9711H58.4882V70.2334H49.9566C49.5189 70.2334 49.2601 69.7278 49.5128 69.3703C49.6052 69.2285 49.7101 69.0806 49.821 68.9142C50.6286 67.7676 51.7813 65.9861 52.9279 63.958C53.7108 62.5895 54.4689 61.1285 55.0792 59.6614C55.2026 59.3963 55.3011 59.125 55.3998 58.8599C55.5662 58.3914 55.7389 57.9538 55.8621 57.5161C55.9855 57.1462 56.084 56.7578 56.1826 56.3941C56.4724 55.1489 56.5957 53.8297 56.5957 52.4612C56.5957 51.925 56.5711 51.364 56.5218 50.8277C56.497 50.2421 56.4231 49.6564 56.3491 49.0708C56.2998 48.553 56.2074 48.0413 56.1087 47.505C55.9855 46.7221 55.8128 45.9455 55.6155 45.1625L55.5477 44.8667C55.3998 44.3303 55.2765 43.8187 55.104 43.2824C54.6169 41.5994 54.056 39.9598 53.4642 38.4248C53.2484 37.8145 53.0018 37.2289 52.7552 36.6433C52.3916 35.7618 52.0216 34.9604 51.6826 34.2022C51.5101 33.8569 51.3621 33.5425 51.2142 33.222C51.0477 32.8583 50.8752 32.4946 50.7025 32.1494C50.5792 31.8844 50.4374 31.6378 50.3388 31.3912L49.2847 29.4432C49.1367 29.1781 49.3833 28.8637 49.673 28.9439L56.269 30.7315H56.2875C56.2998 30.7315 56.306 30.7378 56.3121 30.7378L57.1813 30.9781L58.1368 31.2494L58.4882 31.348V27.4274C58.4882 25.5349 60.0046 24 61.8787 24C62.8156 24 63.6663 24.3822 64.2766 25.0048C64.8868 25.6274 65.269 26.4781 65.269 27.4274V33.2467L65.9719 33.4439C66.0273 33.4625 66.0828 33.4871 66.1321 33.524C66.3048 33.6535 66.5512 33.8446 66.8656 34.0789C67.1122 34.2761 67.3773 34.5166 67.6978 34.7632C68.3328 35.2747 69.091 35.9344 69.9232 36.6926C70.1451 36.8837 70.3609 37.081 70.5582 37.2782C71.6308 38.2769 72.8329 39.4481 73.9795 40.7426C74.3 41.1064 74.6144 41.4762 74.9349 41.8645C75.2554 42.2591 75.5946 42.6474 75.8904 43.0358C76.2788 43.5536 76.698 44.0899 77.0617 44.6509C77.2342 44.916 77.4315 45.1872 77.598 45.4523C78.0664 46.1611 78.4795 46.8948 78.874 47.6284C79.0405 47.9674 79.213 48.3372 79.361 48.7009C79.7986 49.6811 80.1439 50.6797 80.3658 51.6784C80.4336 51.8941 80.4829 52.1284 80.5076 52.338V52.3873C80.5815 52.6831 80.6062 52.9975 80.6308 53.318C80.7295 54.3414 80.6802 55.3646 80.4583 56.3941C80.3658 56.8319 80.2425 57.2448 80.0946 57.6826C79.9466 58.1017 79.7986 58.5394 79.6076 58.9524C79.2378 59.8092 78.8 60.6661 78.2822 61.4675C78.1158 61.7634 77.9185 62.0778 77.7212 62.3737C77.5054 62.688 77.2836 62.9839 77.0863 63.2737C76.8151 63.6436 76.5254 64.0319 76.2295 64.3771C75.9644 64.7408 75.6932 65.1046 75.3973 65.4251C74.9842 65.912 74.5897 66.3744 74.1766 66.8183C73.9302 67.108 73.6651 67.4039 73.3938 67.669C73.1288 67.9648 72.8575 68.2298 72.6109 68.4764C72.198 68.8895 71.8527 69.21 71.5629 69.4751L70.8849 70.0978C70.7863 70.184 70.6568 70.2334 70.5212 70.2334H65.269V76.9711H71.8773C73.3568 76.9711 74.7624 76.4471 75.8966 75.4854C76.2849 75.1464 77.9802 73.6793 79.9836 71.4662C80.0514 71.3922 80.1378 71.3368 80.2364 71.3122L98.4892 66.0354C98.8284 65.9368 99.1735 66.1956 99.1735 66.5532Z" fill="white"/>
</g>
<defs>
<clipPath id="clip0_440_647">
<rect width="120" height="120" fill="white"/>
</clipPath>
</defs>
</svg>
