<svg width="120" height="120" viewBox="0 0 120 120" fill="none" xmlns="http://www.w3.org/2000/svg">
<rect width="120" height="120" rx="60" fill="#EDF0F4"/>
<mask id="mask0_454_545" style="mask-type:luminance" maskUnits="userSpaceOnUse" x="36" y="25" width="48" height="70">
<path d="M83.1919 25H36V95H83.1919V25Z" fill="white"/>
</mask>
<g mask="url(#mask0_454_545)">
<path d="M64.3735 87.738H73.6927V90.2499C73.6927 92.819 71.6048 94.9047 69.0331 94.9047C66.4614 94.9047 64.3735 92.819 64.3735 90.2499V87.738Z" fill="#603F99"/>
<path d="M74.8007 82.783L76.0783 87.8926L61.7539 87.8569L63.5892 82.7545L61.7539 82.7497L63.5916 77.6426H74.7937L76.0783 82.7854L74.8007 82.783Z" fill="#CE3F8F"/>
<path d="M43.4385 87.738H52.7576V90.2499C52.7576 92.819 50.6698 94.9047 48.0981 94.9047C45.5264 94.9047 43.4385 92.819 43.4385 90.2499V87.738Z" fill="#603F99"/>
<path d="M53.8624 82.783L55.1398 87.8926L40.8154 87.8569L42.6507 82.7545L40.8154 82.7497L42.6531 77.6426H53.8552L55.1398 82.7854L53.8624 82.783Z" fill="#CE3F8F"/>
<path d="M74.0634 72.9562L76.3444 77.9418L41.4033 77.6324L44.3921 72.6918L41.4033 72.6656L44.6281 67.3347L42.3329 67.3085L45.1453 61.6418L54.2262 62.88H73.4604L75.4148 67.6895L73.9205 67.6728L76.3444 72.9752L74.0634 72.9562Z" fill="#FFDD00"/>
<path d="M73.2397 57.9046L74.9509 62.9521H54.4487L56.4341 57.9046H54.4487L56.4722 52.7617H73.2063L74.9509 57.9046H73.2397Z" fill="#1DB9D2"/>
<path d="M75.5656 52.7856H54.1147L56.9034 47.0475L54.5914 46.9998L58.7862 38.6665L75.5894 42.3808L75.5656 52.7856Z" fill="#FFDD00"/>
<path d="M45.1454 61.6425C45.1454 60.1211 44.8665 58.1187 44.1515 56.9759C43.1981 55.4521 41.482 54.4045 38.1452 54.3806L38.0976 56.2855C39.2893 56.2378 40.4333 56.3568 41.4105 56.9759C42.2447 57.4997 42.9359 58.3568 43.4603 59.7855C40.5525 58.7855 38.8841 59.0949 37.7162 59.8568C37.0965 60.2616 36.6198 60.7616 36.167 61.3092L37.4779 62.5235C37.5494 62.4045 37.6447 62.3092 37.7162 62.214C39.1463 60.5235 40.7908 60.5711 42.5307 61.4997C38.7411 63.3092 38.1452 66.4997 38.3359 68.8092C38.5028 68.833 40.195 68.8092 40.195 68.8092C40.0281 66.5711 41.3605 63.4878 44.6973 62.583L45.1454 61.6425Z" fill="#603F99"/>
<path d="M70.2732 41.2142C75.8743 33.4523 78.639 29.619 76.4224 27.7381C74.9685 26.5 72.8282 27.5452 69.6344 29.9261C69.5152 32.4738 69.0863 35.9642 68.2759 40.7737L70.2708 41.2142H70.2732Z" fill="#008599"/>
<path d="M67.938 25.2136C64.911 24.4755 63.1711 29.285 58.7856 38.6659L68.5363 40.8302C69.3466 36.0208 69.7923 32.5112 69.7732 29.785C69.8924 27.0469 69.4158 25.5707 67.938 25.2136Z" fill="#1DB9D2"/>
<path d="M70.8949 72.8308L70.6113 72.8117L70.6089 72.8093L70.8949 72.8308Z" fill="#F99D2A"/>
<path d="M68.9628 48.1855C70.2396 48.1855 71.2747 47.1515 71.2747 45.876C71.2747 44.6004 70.2396 43.5664 68.9628 43.5664C67.6859 43.5664 66.6509 44.6004 66.6509 45.876C66.6509 47.1515 67.6859 48.1855 68.9628 48.1855Z" fill="white"/>
<path d="M70.8949 72.8308L70.6113 72.8117L70.6089 72.8093L70.8949 72.8308Z" fill="#FFE600"/>
<path d="M75.5649 52.7851L75.5888 42.3804C75.5888 42.3804 81.7189 43.7636 83.0418 47.1874C83.1372 47.4351 83.1777 47.6993 83.1777 47.9636C83.4255 52.6184 75.5649 52.7851 75.5649 52.7851Z" fill="#CE3F8F"/>
<path d="M75.5651 52.3881V52.7857H74.2948L71.5419 51.5976C71.3297 51.5118 71.0509 51.2024 71.1653 50.9809C71.2344 50.8428 71.5085 50.6786 71.9542 50.8524L75.5651 52.3881Z" fill="#000006"/>
<path d="M44.1641 68.103L46.1734 69.9911L49.5102 66.8483L52.7516 70.0626L56.0646 66.9197L59.3775 70.0626L62.619 66.8483L65.932 69.9911L69.2688 66.8245L69.8861 67.4411L72.0121 69.4459L73.9212 67.6745L74.5219 68.9864L72.036 71.4697L72.0192 71.453L69.2211 68.6816L65.9082 71.9911L62.5952 68.6816L59.2822 71.9911L56.0408 68.753L52.7277 71.8959L49.5102 68.7054L46.1972 72.015L43.4443 69.2864" fill="#000006"/>
<path d="M69.0344 47.0289C69.6827 46.9813 70.1641 46.4289 70.1164 45.8027C70.0688 45.1551 69.5158 44.6742 68.889 44.7218C68.2408 44.7694 67.7593 45.3218 67.807 45.948C67.8308 46.5718 68.3837 47.0765 69.0344 47.0289Z" fill="#000006"/>
</g>
</svg>
