<svg width="120" height="120" viewBox="0 0 120 120" fill="none" xmlns="http://www.w3.org/2000/svg">
<rect width="120" height="120" rx="60" fill="black"/>
<path d="M68.4716 37.668C73.7499 42.1753 78.8848 44.9728 79.8177 45.4387L80.5946 45.8277L82.7748 42.3302L81.9142 41.9423C80.5934 41.2424 69.1693 34.9428 63.1852 25.4659L62.8754 25H59.9976V28.3414L60.1536 28.5709C62.2535 31.684 65.0521 34.7925 68.4716 37.668Z" fill="white"/>
<path d="M59.8449 28.5744L59.9998 28.3449V25H57.1288L56.8179 25.4659C50.8293 34.9474 39.4051 41.2424 38.0809 41.9423L37.2295 42.3267L39.4097 45.8242L40.1877 45.4352C41.1205 44.9693 46.2497 42.1718 51.5338 37.6646C54.9487 34.7925 57.7462 31.684 59.8449 28.5744Z" fill="white"/>
<path d="M47.3548 47.4214C41.3076 53.503 34.3069 57.3584 33.2719 57.9069L32.3838 58.3097L34.6443 61.9483L35.4475 61.5444C36.416 61.0602 41.746 58.1536 47.2366 53.4697C49.4291 51.6347 51.4578 49.6125 53.2998 47.426L47.3548 47.4214Z" fill="white"/>
<path d="M72.6464 47.4214C78.6935 53.503 85.6942 57.3584 86.7292 57.9069L87.6173 58.3097L85.3568 61.9483L84.5536 61.5444C83.584 61.0602 78.2552 58.1536 72.7634 53.4697C70.5712 51.6344 68.5425 49.6123 66.7002 47.426L72.6464 47.4214Z" fill="white"/>
<path d="M94.0085 78.7703C92.7348 78.0956 83.3646 72.9366 76.2491 64.8975H69.9243C72.1963 67.9532 75.042 70.979 78.4087 73.8098C84.5407 79.0457 90.4915 82.2862 91.5736 82.8323L92.4755 83.2833L94.9999 79.2259L94.0085 78.7703Z" fill="white"/>
<path d="M25.9914 78.7703C27.2662 78.0956 36.6364 72.9366 43.7507 64.8975H50.0767C47.8036 67.9532 44.959 70.979 41.5924 73.8098C35.4603 79.0457 29.5084 82.2862 28.4263 82.8323L27.5244 83.2787L25 79.2213L25.9914 78.7703Z" fill="white"/>
<path d="M68.1011 40.6548H51.7784C49.3079 42.4907 47.7416 43.956 45.9849 44.9945H64.6197L74.0152 45.0335C72.2595 43.9951 70.5728 42.4919 68.1011 40.6548Z" fill="white"/>
<path d="M72.9642 57.2209H47.0532C44.2546 59.3013 42.4795 60.9617 40.4897 62.1378H61.6043H79.5151C77.5208 60.964 75.7571 59.3013 72.9642 57.2209Z" fill="white"/>
<path d="M79.3747 79.9075L72.794 73.3267C72.794 73.3267 69.0487 72.2837 59.9344 72.2837C50.8935 72.2837 47.2813 73.3566 47.2813 73.3566L40.626 79.9075C40.626 79.9075 49.7736 76.8655 59.9344 76.8655C71.4297 76.8655 79.3747 79.9075 79.3747 79.9075Z" fill="white"/>
<path d="M66.4509 80.7231C65.0257 80.5808 63.5111 80.4764 61.9149 80.4282C62.2133 82.6417 63.2919 85.8638 64.2386 88.41C62.8247 88.2449 61.4026 88.1614 59.9792 88.1598C58.5544 88.1642 57.131 88.2515 55.7163 88.4215C56.6699 85.8752 57.7451 82.6486 58.0468 80.4317C56.484 80.4867 54.9579 80.6072 53.5006 80.769C52.9487 83.2625 51.364 87.5746 50.1729 90.4077L48.4644 94.4778L52.749 93.4129C55.1218 92.8769 57.5455 92.5984 59.978 92.5822C62.4014 92.5781 64.8171 92.8538 67.1772 93.4038L71.5376 94.5684L69.7877 90.4066C68.5898 87.5574 66.9971 83.2085 66.4509 80.7231Z" fill="white"/>
</svg>
