<svg width="120" height="120" viewBox="0 0 120 120" fill="none" xmlns="http://www.w3.org/2000/svg">
<rect width="120" height="120" rx="60" fill="#FADA01"/>
<path fill-rule="evenodd" clip-rule="evenodd" d="M94.2363 47.7832C94.2363 54.499 90.3126 57.8393 85.9029 58.9996C91.1806 60.5819 95 64.9067 95 71.7632V84.351H74.861V72.3961C74.861 68.7393 72.7083 67.2625 69.0278 67.2625H45.1389V84.351H25V34H72.8472C84.8611 34 94.2363 36.6019 94.2363 47.7832ZM45.1479 48.0675H72.3734C72.4139 48.0661 72.4548 48.0675 72.4957 48.0675C74.3677 48.0675 75.8856 49.6043 75.8856 51.5C75.8856 53.3957 74.3677 54.9325 72.4957 54.9325C72.4548 54.9325 72.4139 54.9318 72.3734 54.9303L45.1479 54.9325V48.0675Z" fill="black"/>
</svg>
