<svg width="120" height="120" viewBox="0 0 120 120" fill="none" xmlns="http://www.w3.org/2000/svg">
<rect width="120" height="120" rx="60" fill="#EDF0F4"/>
<path d="M34.9798 37.6801C31.0798 38.6401 27.4798 41.4901 25.8598 44.9101C25.1098 46.5001 25.0498 46.9801 25.0498 50.2501C25.0498 53.5801 25.1098 53.9701 25.8898 55.5601C27.4798 58.8001 30.9898 61.1401 37.9498 63.6301C47.7598 67.1101 50.3998 69.2701 50.0098 73.5301C49.3198 81.0601 39.6898 82.4401 33.1498 75.9601C31.0498 73.8901 28.8598 70.6501 27.0598 66.9001L25.6498 64.0501L25.5598 72.2701C25.5298 76.8001 25.5598 80.5501 25.6198 80.6101C25.6798 80.7001 26.3698 80.5201 27.1198 80.2801C29.0098 79.6201 31.6498 79.6801 36.2098 80.4301C44.3998 81.7801 50.0698 80.2501 53.4598 75.7501C55.1698 73.4701 55.6498 71.8201 55.6498 67.9501C55.6498 64.9501 55.5898 64.5001 54.8098 62.9401C53.1298 59.5201 49.7098 57.2401 41.8498 54.3001C34.5898 51.5701 32.1598 50.1301 31.0198 47.9701C30.3298 46.5901 30.4798 43.8601 31.3798 42.0601C33.2398 38.3401 38.5798 37.0201 43.0798 39.1801C46.1698 40.6801 50.5198 45.7501 52.8598 50.5201C53.6698 52.2001 54.1198 52.2901 53.8798 50.7601C53.7898 50.1601 53.6398 47.6101 53.5498 45.1501C53.4598 42.6601 53.3098 39.9901 53.2198 39.2101L53.0398 37.7701L51.4798 37.9501C50.6098 38.0701 48.3898 37.9501 46.3498 37.6801C41.9998 37.1101 37.3798 37.1101 34.9798 37.6801Z" fill="black"/>
<path d="M59.1896 38.8501C60.0896 39.5401 60.8396 40.4701 61.4096 41.6101L62.2496 43.3501V58.9501C62.2496 77.0101 62.3396 76.2901 59.5196 78.9001L57.8396 80.4001H67.1096L76.3496 80.3701L75.4496 79.7101C74.0396 78.6901 73.1696 77.6401 72.5696 76.3501C72.0596 75.2701 71.9996 74.2801 71.9996 67.1401C71.9996 59.4301 72.0296 59.1601 72.5696 59.3101C73.4696 59.5501 74.1896 60.5101 76.2596 64.2301C77.3096 66.1201 79.8596 70.5601 81.9296 74.0401L85.6496 80.4001H92.0696H98.4896L97.1096 79.2001C96.3596 78.5401 95.0696 77.1001 94.2596 75.9601C92.9096 74.1301 83.3996 59.2501 83.3996 58.9801C83.3996 58.8901 84.1196 58.6201 84.9896 58.3501C88.1396 57.3001 90.5396 55.3801 91.6796 52.9501C92.6396 50.9401 92.6696 47.5501 91.7696 45.1801C90.5996 41.9701 87.2996 39.3301 83.2496 38.2501C81.8096 37.8901 79.2896 37.8001 69.6296 37.8001H57.8096L59.1896 38.8501ZM76.8896 39.6001C83.9696 43.1401 84.7496 55.3201 78.1196 58.0801C77.5196 58.3201 76.0496 58.5001 74.5496 58.5001H71.9996V48.5701V38.6401L73.7396 38.7601C74.7296 38.8201 76.0496 39.1801 76.8896 39.6001Z" fill="black"/>
</svg>
