<svg width="120" height="120" viewBox="0 0 120 120" fill="none" xmlns="http://www.w3.org/2000/svg">
<path d="M0 60C0 26.8629 26.8629 0 60 0C93.1371 0 120 26.8629 120 60C120 93.1371 93.1371 120 60 120C26.8629 120 0 93.1371 0 60Z" fill="#EDF0F4"/>
<path d="M66.6042 69.6807C66.8733 68.0303 66.8843 66.9315 66.8838 66.7994C66.8825 65.923 66.1715 65.2153 65.2952 65.2148H65.2942C64.4183 65.2148 63.7074 65.9257 63.7051 66.8016C63.7051 66.8893 63.6027 75.6033 56.7906 81.5392C51.5039 86.1463 43.6239 87.9653 33.3469 86.9582C35.3829 83.1937 39.0707 74.8576 39.0707 63.85C39.0707 62.9723 38.3584 62.2608 37.4811 62.2608C36.6034 62.2608 35.8919 62.9723 35.8919 63.85C35.8919 64.8402 35.8513 65.8015 35.7904 66.7455C30.7247 65.0078 27.6788 62.6812 27.6788 60.038C27.6788 33.9601 41.0606 30.2815 44.9361 29.7638C45.1957 30.5325 45.328 31.3385 45.3277 32.1498C45.3277 34.2805 44.3792 36.3243 42.7252 37.7557C42.553 37.905 42.4149 38.0896 42.3202 38.297C42.2255 38.5043 42.1765 38.7296 42.1764 38.9576C42.1764 39.4181 42.377 39.8568 42.7252 40.1587C44.3796 41.5912 45.3282 43.634 45.3277 45.7646C45.3277 46.6027 45.1934 47.4123 44.9285 48.1799C42.4985 47.9135 40.2756 46.7037 38.7189 44.7695C38.1683 44.0832 37.1667 43.9753 36.4846 44.5282C35.8005 45.0784 35.6923 46.079 36.2433 46.7625C38.623 49.7189 42.1617 51.4149 45.9524 51.4149C46.2457 51.4149 46.5333 51.3337 46.7832 51.1802C47.0332 51.0267 47.2357 50.807 47.3684 50.5454C47.8742 49.5517 48.2036 48.4673 48.3722 47.3538H78.6208C85.6235 47.3538 91.3213 53.0438 91.3213 60.038C91.3213 64.9096 81.0831 68.7276 66.6042 69.6807ZM78.6208 44.175H48.3645C48.0675 42.2619 47.2602 40.4548 45.9944 38.9574C47.6059 37.0508 48.5066 34.645 48.5066 32.1508C48.5075 30.4876 48.1137 28.8339 47.3683 27.3691C47.2356 27.1076 47.033 26.888 46.7831 26.7346C46.5332 26.5812 46.2457 26.5 45.9525 26.5C45.7381 26.5 24.5 26.8834 24.5 60.038C24.5 66.9438 26.4991 73.6011 30.2764 79.2861C30.8782 80.2004 31.5342 81.0639 32.2123 81.9056C30.7717 85.3284 29.4499 87.3123 29.4206 87.3553C29.2676 87.5792 29.1745 87.8385 29.15 88.1086C29.1255 88.3787 29.1705 88.6506 29.2808 88.8983C29.3909 89.1458 29.5624 89.361 29.779 89.5237C29.9956 89.6863 30.2501 89.7909 30.5185 89.8277C33.3692 90.2128 36.0656 90.4056 38.6106 90.4056C39.7373 90.4056 40.8303 90.3623 41.8968 90.2868C47.1546 93.351 53.1982 95.0379 59.5001 95.0379C71.3092 95.0379 82.2336 89.1497 88.7187 79.2925C92.5011 73.602 94.5 66.9438 94.5 60.038C94.5 51.2911 87.3772 44.175 78.6208 44.175Z" fill="#47BAE6"/>
<path d="M76.5272 53.085C72.85 53.085 69.8589 56.076 69.8589 59.7533C69.8589 60.631 70.5708 61.3424 71.4485 61.3424C72.3258 61.3424 73.0377 60.631 73.0377 59.7533C73.0377 57.8292 74.6031 56.2638 76.5271 56.2638C78.4517 56.2638 80.0172 57.8292 80.0172 59.7532C80.0172 60.631 80.7291 61.3424 81.6068 61.3424C82.4846 61.3424 83.1959 60.631 83.1959 59.7533C83.1959 56.076 80.2045 53.085 76.5272 53.085Z" fill="#47BAE6"/>
</svg>
