<svg width="120" height="120" viewBox="0 0 120 120" fill="none" xmlns="http://www.w3.org/2000/svg">
<rect width="120" height="120" rx="60" fill="black"/>
<path d="M65.5206 58.8559H80.4292C80.3713 56.9981 80.0677 55.2034 79.5512 53.5033H66.2554L74.6104 45.1133C73.3623 43.8234 71.9489 42.6982 70.4026 41.7693L61.9658 50.2434C60.5223 51.6911 60.0947 53.8486 60.8767 55.7415C61.6568 57.6343 63.4789 58.8559 65.5192 58.8559H65.5206Z" fill="white"/>
<path d="M54.1325 58.8436C54.7801 58.8436 55.4363 58.7174 56.061 58.4563C57.946 57.6728 59.1627 55.843 59.1627 53.7942V38.8616C57.3127 38.9211 55.5252 39.2261 53.8325 39.7467V53.0581L45.504 44.6944C44.2195 45.9458 43.0971 47.3654 42.1724 48.9183L50.5862 57.3679C51.5496 58.3353 52.8287 58.8471 54.1325 58.8471V58.8436Z" fill="white"/>
<path d="M65.8106 65.9787L74.1738 74.3774C75.4619 73.128 76.586 71.7096 77.5107 70.1588L69.0583 61.6706C67.6152 60.2212 65.4666 59.7918 63.5817 60.577C61.6985 61.3604 60.4805 63.1902 60.4805 65.239V80.1945C62.3286 80.1401 64.1175 79.8388 65.8106 79.3232V65.9769V65.9787Z" fill="white"/>
<path d="M53.3874 65.5318L45.0504 73.9059C46.2944 75.1976 47.7065 76.3262 49.2492 77.2573L57.6793 68.7936C59.1209 67.3441 59.5485 65.1866 58.7666 63.2937C57.9865 61.4026 56.1662 60.1792 54.124 60.1792H39.2661C39.3223 62.037 39.6241 63.8317 40.1388 65.5318H53.3892H53.3874Z" fill="white"/>
<path d="M59.8485 96.0561C84.6176 96.0525 104.713 84.6515 104.697 59.5289C104.713 34.4045 84.6176 23.0035 59.8485 23C35.0794 23.0035 14.9843 34.4045 15 59.5271C14.9843 84.6515 35.0794 96.0525 59.8485 96.0543V96.0561ZM30.1979 34.6692C37.4319 29.3306 47.684 26.5088 59.8485 26.5071C72.013 26.5071 82.2651 29.3306 89.4992 34.6692C97.2726 40.4074 101.212 48.7693 101.205 59.5306C101.212 70.2868 97.2726 78.6504 89.4992 84.387C82.2651 89.7253 72.0112 92.5471 59.8485 92.5489C47.684 92.5489 37.4301 89.7253 30.1979 84.387C22.4245 78.6486 18.4852 70.2868 18.4919 59.5254C18.4852 48.7693 22.4245 40.4056 30.1979 34.6692Z" fill="white"/>
</svg>
