<svg width="120" height="120" viewBox="0 0 120 120" fill="none" xmlns="http://www.w3.org/2000/svg">
<rect width="120" height="120" rx="60" fill="#EDF0F4"/>
<g clip-path="url(#clip0_437_1029)">
<path d="M61.6845 29.0944C60.1707 28.5083 58.5835 28.2153 56.923 28.2153C55.2628 28.2153 53.6634 28.5083 52.1252 29.0944C50.6112 29.656 49.2561 30.4861 48.0596 31.5849C47.3898 32.2001 46.7964 32.8919 46.2796 33.6601V28.7647H25V34.808H32.2153V53.1942H39.0643V34.808H45.5943C45.4565 35.0692 45.326 35.3378 45.2029 35.6138C44.5192 37.2009 44.1773 39.0078 44.1773 41.0344C44.1773 43.061 44.5192 44.8679 45.2029 46.455C45.911 48.0422 46.8631 49.3851 48.0596 50.4839C49.2561 51.5826 50.6112 52.4251 52.1252 53.0111C53.6634 53.5727 55.2628 53.8535 56.923 53.8535C58.5835 53.8535 60.1707 53.5727 61.6845 53.0111C63.2228 52.4251 64.5902 51.5826 65.7866 50.4839C66.9831 49.3851 67.9231 48.0422 68.6067 46.455C69.3148 44.8679 69.6689 43.061 69.6689 41.0344C69.6689 39.0078 69.3148 37.2009 68.6067 35.6138C67.9231 34.0266 66.9831 32.6837 65.7866 31.5849C64.5902 30.4861 63.2228 29.656 61.6845 29.0944ZM53.9931 35.4673C54.8476 34.9057 55.8244 34.6249 56.923 34.6249C58.0218 34.6249 58.9986 34.9057 59.8532 35.4673C60.7323 36.0289 61.4159 36.798 61.9041 37.7747C62.3925 38.727 62.6368 39.8135 62.6368 41.0344C62.6368 42.2553 62.3925 43.354 61.9041 44.3307C61.4159 45.283 60.7323 46.0398 59.8532 46.6015C58.9986 47.1631 58.0218 47.444 56.923 47.444C55.8244 47.444 54.8476 47.1631 53.9931 46.6015C53.1384 46.0398 52.4547 45.283 51.9419 44.3307C51.4537 43.354 51.2094 42.2553 51.2094 41.0344C51.2094 39.8135 51.4537 38.727 51.9419 37.7747C52.4547 36.798 53.1384 36.0289 53.9931 35.4673Z" fill="black"/>
<path d="M68.7167 69.2974V54.3906H61.8676V68.8212C61.8676 70.0909 61.5259 71.1287 60.8422 71.9344C60.1586 72.7157 59.0841 73.1187 57.6192 73.1431C56.154 73.1675 55.0798 72.7768 54.3959 71.971C53.7123 71.1409 53.3705 70.0909 53.3705 68.8212V54.3906H46.5215V69.2974C46.5215 71.4216 47.0221 73.2529 48.0231 74.7913C49.0243 76.3295 50.3672 77.5138 52.052 78.3439C53.7367 79.1498 55.5924 79.5526 57.6192 79.5526C59.6702 79.5526 61.5259 79.1498 63.1863 78.3439C64.871 77.5138 66.2139 76.3295 67.2151 74.7913C68.2163 73.2529 68.7167 71.4216 68.7167 69.2974Z" fill="black"/>
<path d="M42.9469 70.7258V64.6824H34.2299V60.5072H44.7782V54.4639H27.3809V79.0032H34.2299V70.7258H42.9469Z" fill="black"/>
<path d="M84.7343 69.9908H78.6912V61.2739H70.4136V54.4248H94.9531V92.8308H88.9097V85.6154H70.5234V78.7663H88.9097V61.2739H84.7343V69.9908Z" fill="black"/>
<path d="M70.4106 51.1773H94.953V44.9872H82.3169L94.953 31.1795V28.7622H70.4106V35.0982H82.0972L70.4106 48.7599V51.1773Z" fill="black"/>
</g>
<defs>
<clipPath id="clip0_437_1029">
<rect width="70" height="64.6154" fill="white" transform="translate(25 28)"/>
</clipPath>
</defs>
</svg>
