<svg width="120" height="120" viewBox="0 0 120 120" fill="none" xmlns="http://www.w3.org/2000/svg">
<rect width="120" height="120" rx="60" fill="black"/>
<path d="M85.9306 36H34.0695L25 52.4925L59.9999 92.8194L95 52.4925L85.9306 36ZM83.5375 40.4414L88.85 50.1043H79.278L83.5375 40.4414ZM79.0101 40.2308L75.143 49.0945L65.4561 40.25L79.0101 40.2308ZM69.9836 50.1043H50.0069L59.9999 40.9583L69.9836 50.1043ZM54.5632 40.2308L44.857 49.0945L40.9804 40.25L54.5632 40.2308ZM36.472 40.4414L40.6838 50.1043H31.1404L36.472 40.4414ZM32.2221 54.3208H42.5646L53.1178 78.3991L32.2221 54.3208ZM47.1831 54.3208H72.8551L60.0192 83.6015L47.1831 54.3208ZM66.9206 78.3991L77.4545 54.3591H87.8018L66.9206 78.3991Z" fill="white"/>
</svg>
