<svg width="120" height="120" viewBox="0 0 120 120" fill="none" xmlns="http://www.w3.org/2000/svg">
<rect width="120" height="120" rx="60" fill="#EDF0F4"/>
<path d="M41.8841 38.8817C32.369 48.3992 32.369 63.8256 41.8841 73.3432L34.9909 80.234C21.6697 66.9128 21.6697 45.312 34.9909 31.9909C48.3144 18.6697 69.9129 18.6697 83.2364 31.9909L71.5162 35.1317C62.1692 29.5981 49.9177 30.8456 41.8841 38.8817Z" fill="#29BDCC"/>
<path d="M80.1388 43.5451C87.5779 54.8852 86.3132 70.2653 76.3425 80.2336C64.9244 91.6517 46.409 91.6521 34.9909 80.234L28.0993 87.1245C42.7436 101.771 66.1476 102.329 81.4594 88.796L86.6812 94.0177C87.5953 94.9315 88.8349 95.4447 90.1274 95.4445C91.42 95.4443 92.6594 94.9306 93.5732 94.0165C94.487 93.1024 95.0002 91.8627 95 90.5702C94.9998 89.2777 94.4861 88.0382 93.572 87.1245L87.919 81.4714C98.2552 66.2984 96.6909 45.4481 83.2333 31.9905L80.1388 43.5451Z" fill="#29BDCC"/>
<path d="M66.8662 51.8055C67.4319 51.2398 67.8807 50.5682 68.1869 49.829C68.493 49.0898 68.6506 48.2976 68.6506 47.4975C68.6506 46.6975 68.493 45.9052 68.1869 45.1661C67.8807 44.4269 67.4319 43.7553 66.8662 43.1895C66.3005 42.6238 65.6288 42.175 64.8897 41.8689C64.1505 41.5627 63.3583 41.4051 62.5582 41.4051C61.7581 41.4051 60.9659 41.5627 60.2267 41.8689C59.4876 42.175 58.816 42.6238 58.2502 43.1895C57.1077 44.3321 56.4658 45.8817 56.4658 47.4975C56.4658 49.1133 57.1077 50.663 58.2502 51.8055C59.3928 52.9481 60.9424 53.59 62.5582 53.59C64.174 53.59 65.7237 52.9481 66.8662 51.8055Z" fill="#29BDCC"/>
</svg>
