<svg width="120" height="120" viewBox="0 0 120 120" fill="none" xmlns="http://www.w3.org/2000/svg">
<g clip-path="url(#clip0_438_428)">
<path d="M0 60V120H60H120V60V-1.52588e-05H60H0V60ZM24.42 52.11C28.23 63.6 29.76 67.86 30.03 67.59C30.15 67.47 31.89 62.7 33.9 57C35.91 51.3 37.71 46.29 37.86 45.81C38.16 45 38.19 45 40.68 45C42.06 45 43.2 45.06 43.2 45.15C43.2 45.24 41.16 50.88 38.67 57.66C36.18 64.47 33.75 71.16 33.24 72.51L32.34 75H29.91H27.45L22.2 60.24C19.32 52.14 16.92 45.39 16.86 45.24C16.8 45.12 17.94 45 19.41 45H22.05L24.42 52.11ZM51.6 60V75H49.2H46.8V60V45H49.2H51.6V60ZM63.57 54.96C67.5 66.69 67.89 67.8 68.13 67.8C68.22 67.8 70.11 62.67 72.33 56.4L76.35 45H78.93H81.51L77.04 57.21C74.58 63.96 72.12 70.65 71.58 72.15L70.59 74.85L68.16 74.94L65.76 75.03L65.28 73.74C65.01 73.02 62.58 66.27 59.88 58.71L54.99 45H57.6H60.24L63.57 54.96ZM103.2 47.25V49.5H94.2H85.2V47.25V45H94.2H103.2V47.25ZM102.15 60V62.25H94.35H86.55L86.46 60.33C86.4 59.28 86.43 58.23 86.52 57.99C86.67 57.66 88.08 57.6 94.41 57.66L102.15 57.75V60ZM103.2 72.75V75H94.2H85.2V72.75V70.5H94.2H103.2V72.75Z" fill="black"/>
</g>
<defs>
<clipPath id="clip0_438_428">
<rect width="120" height="120" rx="60" fill="white"/>
</clipPath>
</defs>
</svg>
