<svg width="120" height="120" viewBox="0 0 120 120" fill="none" xmlns="http://www.w3.org/2000/svg">
<path d="M53.4002 0.330078C40.2602 1.86008 27.9002 7.68008 18.3302 16.9201C-0.209789 34.8301 -5.24979 62.5201 5.85021 85.7101C8.94021 92.1901 12.0002 96.5401 17.1002 101.82C33.0602 118.29 56.7602 124.11 78.7502 116.97C91.3202 112.86 102.78 104.07 110.19 92.8501C121.62 75.5101 123.12 53.0701 114.15 34.2901C105.09 15.3601 87.0902 2.61008 66.2402 0.330078C62.8802 -0.0599213 56.6702 -0.0299225 53.4002 0.330078ZM91.8002 28.4101C91.8002 28.5301 91.0502 29.9101 90.1502 31.5301L88.5002 34.4401V37.1401V39.8401L85.8902 41.4001L83.2502 42.9601L78.6002 50.6101C76.0502 54.8401 73.9202 58.3801 73.8602 58.5301C73.7402 58.8301 77.9102 65.8501 78.4202 66.2401C78.6002 66.3901 80.5802 67.0201 82.8002 67.6501C85.0202 68.2501 86.8802 68.8201 86.9402 68.8501C87.0002 68.9101 86.2202 70.1701 85.2002 71.7001C82.8002 75.2701 82.9802 75.8701 87.4502 78.6301L90.0002 80.1901V83.0401V85.8901L91.6502 88.7101C92.5502 90.2701 93.3002 91.5901 93.3002 91.6801C93.3002 91.7401 78.3302 91.8001 60.0002 91.8001C41.7002 91.8001 26.7002 91.7401 26.7002 91.6501C26.7002 91.5901 27.4802 90.2701 28.4102 88.7401L30.1502 85.9501L30.3002 82.9801L30.4502 80.0101L33.0002 78.4201L35.5202 76.8301L40.7402 68.0401C43.5902 63.2101 46.0202 59.1001 46.0802 58.9201C46.1702 58.7401 45.6002 57.5701 44.8502 56.3401L43.4702 54.0901L39.2702 52.9201C36.9302 52.2901 34.9202 51.6601 34.7402 51.5701C34.5602 51.4501 35.2202 50.1901 36.3902 48.4801L38.3702 45.5701L37.5902 44.3101C37.0202 43.3501 36.1802 42.6901 34.0202 41.4301L31.2002 39.7801V36.8401V33.9001L29.6102 31.4101C28.7402 30.0601 27.9302 28.7701 27.7802 28.5601C27.6002 28.2901 34.0802 28.2001 59.6702 28.2001C77.3402 28.2001 91.8002 28.2901 91.8002 28.4101Z" fill="black"/>
<path d="M38.7002 35.4V37.8L40.8902 39.06C42.9302 40.26 43.2002 40.53 44.6702 42.99L46.2602 45.66L45.1802 47.22C44.5802 48.09 44.1002 48.87 44.1002 48.96C44.1002 49.05 45.2402 49.44 46.6502 49.83L49.2002 50.55L51.6002 54.54L54.0002 58.53L53.4602 59.52C53.1902 60.06 50.4002 64.8 47.2802 70.08L41.6402 79.65L39.6302 80.88L37.6502 82.08L37.5602 84.54L37.4702 87H47.5502H57.6302L57.5402 84.54L57.4502 82.08L55.8002 81.09C54.9002 80.55 54.1202 79.98 54.0602 79.8C53.8802 79.29 60.1202 68.67 60.3602 69.06C60.4802 69.27 62.7902 73.35 65.4602 78.15L70.3802 86.85L76.5902 86.94L82.8002 87V84.6V82.2L80.5802 80.94C78.5102 79.74 78.2402 79.47 76.8602 77.1L75.3602 74.58L76.4402 72.99C77.0102 72.12 77.4302 71.34 77.3702 71.31C77.3102 71.25 76.2602 70.92 75.0302 70.56C73.8002 70.2 72.7802 69.87 72.7502 69.84C72.6902 69.78 71.1602 67.26 69.3002 64.2C66.8102 60.09 66.0302 58.53 66.2402 58.2C66.3902 57.96 68.9102 53.82 71.8202 48.99L77.1302 40.23L79.2302 38.94L81.3002 37.65V35.34V33H71.4002H61.5002V35.4V37.8L62.8802 38.64C63.6302 39.09 64.4402 39.57 64.6802 39.75C65.0702 40.05 64.5602 41.07 60.4202 48.39C60.1502 48.84 59.3702 47.61 55.6202 40.98L51.1502 33H44.9402H38.7002V35.4Z" fill="black"/>
</svg>
