<svg width="120" height="120" viewBox="0 0 120 120" fill="none" xmlns="http://www.w3.org/2000/svg">
<path d="M120 60C120 26.862 93.138 0 60 0C26.862 0 0 26.862 0 60C0 93.138 26.862 120 60 120C93.138 120 120 93.138 120 60Z" fill="#EDF0F4"/>
<path d="M98.112 30.816C90.4975 23.3571 80.259 19.1859 69.6 19.2C47.067 19.2 28.8 37.467 28.8 60C28.8 82.533 47.067 100.8 69.6 100.8C80.697 100.8 90.756 96.372 98.112 89.184C93.6346 95.0405 87.8664 99.785 81.2562 103.048C74.6459 106.312 67.3719 108.006 60 108C33.489 108 12 86.511 12 60C12 33.489 33.489 12 60 12C75.531 12 89.34 19.377 98.112 30.816Z" fill="url(#paint0_linear_437_1023)"/>
<path d="M39.1113 83.3459C45.2026 89.3132 53.3932 92.6506 61.9203 92.6399C79.9473 92.6399 94.5603 78.0269 94.5603 59.9999C94.5603 41.9729 79.9473 27.3599 61.9203 27.3599C53.3932 27.3491 45.2026 30.6865 39.1113 36.6539C42.6932 31.9687 47.3076 28.173 52.5957 25.562C57.8837 22.951 63.7028 21.5952 69.6003 21.5999C90.8103 21.5999 108 38.7899 108 59.9999C108 81.2099 90.8103 98.3999 69.6003 98.3999C63.7028 98.4046 57.8837 97.0487 52.5957 94.4377C47.3076 91.8267 42.6932 88.031 39.1113 83.3459Z" fill="url(#paint1_linear_437_1023)"/>
<path fill-rule="evenodd" clip-rule="evenodd" d="M88.7997 59.9997C88.7997 63.7818 88.0548 67.5268 86.6074 71.021C85.1601 74.5152 83.0387 77.6901 80.3644 80.3644C77.6901 83.0387 74.5152 85.1601 71.021 86.6074C67.5268 88.0548 63.7818 88.7997 59.9997 88.7997C56.2176 88.7997 52.4726 88.0548 48.9784 86.6074C45.4842 85.1601 42.3094 83.0387 39.635 80.3644C36.9607 77.6901 34.8393 74.5152 33.392 71.021C31.9446 67.5268 31.1997 63.7818 31.1997 59.9997C31.1997 52.3615 34.234 45.0361 39.635 39.635C45.0361 34.234 52.3615 31.1997 59.9997 31.1997C67.6379 31.1997 74.9633 34.234 80.3644 39.635C85.7654 45.0361 88.7997 52.3615 88.7997 59.9997ZM79.1997 59.9997C79.1997 65.0919 77.1769 69.9755 73.5762 73.5762C69.9755 77.1769 65.0919 79.1997 59.9997 79.1997C54.9076 79.1997 50.024 77.1769 46.4233 73.5762C42.8226 69.9755 40.7997 65.0919 40.7997 59.9997C40.7997 54.9075 42.8226 50.024 46.4233 46.4233C50.024 42.8226 54.9076 40.7997 59.9997 40.7997C65.0919 40.7997 69.9755 42.8226 73.5762 46.4233C77.1769 50.024 79.1997 54.9075 79.1997 59.9997Z" fill="url(#paint2_linear_437_1023)"/>
<defs>
<linearGradient id="paint0_linear_437_1023" x1="12" y1="58.344" x2="108" y2="58.344" gradientUnits="userSpaceOnUse">
<stop stop-color="#00E0FF"/>
<stop offset="1" stop-color="#562EC8"/>
</linearGradient>
<linearGradient id="paint1_linear_437_1023" x1="12.0003" y1="58.3439" x2="108" y2="58.3439" gradientUnits="userSpaceOnUse">
<stop stop-color="#00E0FF"/>
<stop offset="1" stop-color="#562EC8"/>
</linearGradient>
<linearGradient id="paint2_linear_437_1023" x1="11.9997" y1="58.3437" x2="108" y2="58.3437" gradientUnits="userSpaceOnUse">
<stop stop-color="#00E0FF"/>
<stop offset="1" stop-color="#562EC8"/>
</linearGradient>
</defs>
</svg>
