<svg width="120" height="120" viewBox="0 0 120 120" fill="none" xmlns="http://www.w3.org/2000/svg">
<rect width="120" height="120" rx="30" fill="#2D6CFF"/>
<path fill-rule="evenodd" clip-rule="evenodd" d="M88.2152 66.9335C86.8876 67.7441 85.3243 67.8445 84.136 67.1971C82.6265 66.3741 81.7965 64.4464 81.7965 61.7655V53.7445C81.7965 49.8712 80.2109 47.115 77.5595 46.3709C73.0663 45.1066 69.6871 50.4163 68.4171 52.4104L60.4926 64.8194V49.6524C60.4035 46.1628 59.23 44.0755 57.002 43.4461C55.5278 43.0301 53.322 43.1969 51.1793 46.3637L33.4254 73.8966C31.0486 69.5387 29.8096 64.6862 29.816 59.7607C29.816 43.1754 43.578 29.6833 60.4926 29.6833C77.4073 29.6833 91.1674 43.1754 91.1674 59.7607C91.1674 59.7894 91.1748 59.8145 91.1767 59.8414C91.1767 59.8701 91.1711 59.8952 91.1729 59.9239C91.3326 63.1355 90.2557 65.6891 88.2152 66.9335ZM97.9834 59.7625V59.6782L97.9815 59.5957C97.8868 39.3971 81.1077 23 60.4908 23C39.82 23 23 39.4903 23 59.7607C23 80.0293 39.82 96.5214 60.4926 96.5214C69.9786 96.5214 79.0319 93.039 85.9816 86.718C87.363 85.4627 87.4447 83.3486 86.1635 81.9965C85.862 81.6753 85.4971 81.4155 85.0903 81.2323C84.6835 81.0491 84.2429 80.9461 83.7944 80.9294C83.3458 80.9127 82.8984 80.9826 82.4782 81.135C82.0579 81.2875 81.6734 81.5194 81.3472 81.8171C75.7141 86.969 68.2506 89.8396 60.4926 89.8382C51.4356 89.8382 43.2864 85.9666 37.6662 79.8267L53.6766 54.998V66.444C53.6766 71.942 55.8842 73.719 57.7354 74.2391C59.5884 74.7591 62.4199 74.404 65.3925 69.7417L74.1989 55.9537C74.4811 55.509 74.741 55.1253 74.9787 54.7935V61.7655C74.9787 66.9049 77.1102 71.0149 80.8255 73.0394C84.175 74.8649 88.386 74.6999 91.8172 72.609C95.9763 70.0717 98.2173 65.3968 97.9834 59.7625Z" fill="white"/>
</svg>
