<svg width="120" height="120" viewBox="0 0 120 120" fill="none" xmlns="http://www.w3.org/2000/svg">
<circle cx="60" cy="60" r="60" fill="url(#paint0_linear_204_30260)"/>
<path fill-rule="evenodd" clip-rule="evenodd" d="M101.765 59.2088C101.075 59.2088 100.507 59.7768 100.507 60.4664C100.507 61.3995 100.487 62.2717 100.426 63.1033C100.244 64.8478 99.6757 66.3893 98.9049 67.1804C98.2152 67.9512 97.0185 68.0121 96.2477 67.3021C96.2328 67.2872 96.2166 67.2723 96.2002 67.2571C96.1495 67.2102 96.0957 67.1605 96.0651 67.0993C94.8684 65.7605 94.5032 62.7991 94.7669 60.5881C94.8278 59.8985 94.3004 59.29 93.6108 59.2494C92.9617 59.1885 92.3734 59.6551 92.272 60.3041C92.1503 61.4603 92.1503 62.6165 92.272 63.7524C92.272 63.8538 92.2517 63.9553 92.2314 64.0567C91.6838 68.4177 89.8176 69.3305 88.3572 69.3305C87.8907 69.3102 87.4241 69.2291 86.9982 69.0668L87.0793 68.9857C88.4789 67.4035 89.3308 65.3346 89.3308 63.4887C89.3308 62.292 88.986 61.2575 88.3166 60.507C87.7893 59.8985 86.8359 59.1885 85.1726 59.1885C83.7933 59.1885 82.5357 59.8985 81.8258 61.0749C80.7101 62.8194 80.6087 65.3954 81.5621 67.505C81.8258 68.0526 82.1503 68.58 82.556 69.0263C82.0286 69.2088 81.4809 69.3102 80.913 69.3305C79.1483 69.3305 76.6128 67.1804 75.1523 65.6185C76.7548 64.3407 78.1746 62.8599 79.3511 61.1764C79.7568 60.6084 79.6148 59.8376 79.0469 59.4319C78.4789 59.0263 77.7081 59.1682 77.3024 59.7362C76.126 61.44 74.6452 62.9208 72.9617 64.1378V60.4664C72.9414 59.7768 72.3531 59.2291 71.6635 59.2697C71.0144 59.2899 70.487 59.8173 70.4667 60.4664L70.4465 67.8092C70.4262 67.7889 70.5682 71.3183 70.7507 71.4806H70.771C70.9536 71.6632 71.197 71.7646 71.4404 71.8052C71.5215 71.8254 71.6229 71.8254 71.7041 71.8254C72.3937 71.8254 72.9617 71.2575 72.9617 70.5678V66.8762C74.341 68.4177 77.7284 71.8254 80.913 71.8254C82.272 71.8254 83.631 71.4806 84.8075 70.8112C85.9028 71.4401 87.1199 71.7849 88.3775 71.8254C90.771 71.8254 92.6168 70.507 93.7325 68.1338C93.8745 68.3569 94.0367 68.5597 94.2193 68.7626C95.0509 69.7362 96.268 70.2839 97.5458 70.2839C97.769 70.2839 98.3166 70.2027 98.56 69.9593C98.4256 70.0938 98.3268 70.4242 98.24 70.7145L98.24 70.7146C98.1959 70.8622 98.1548 70.9995 98.1138 71.0952L97.5661 72.2514C97.1807 73.0222 96.7548 73.7524 96.268 74.4624C95.3146 75.9025 94.1787 77.2413 92.9008 78.3975C90.0813 80.9329 86.6939 82.3528 83.0022 83.0222C81.0753 83.367 79.1077 83.4684 77.1604 83.3467C75.1523 83.225 73.1645 82.9411 71.197 82.5151C67.2213 81.6835 63.2862 80.3447 59.3917 78.8234C57.1402 77.9512 54.8886 76.9979 52.6371 76.0242C53.8136 74.9289 54.9698 73.793 56.0651 72.6165C57.627 70.9329 59.1077 69.1885 60.4667 67.3427C61.8663 65.4766 63.1239 63.509 64.2396 61.4603C65.3957 59.3508 66.3491 57.1398 67.0793 54.868C67.8501 52.4745 68.2964 49.9999 68.4181 47.4847C68.4586 46.1865 68.3978 44.868 68.2355 43.5699C68.0529 42.2514 67.769 40.9735 67.343 39.7159C66.5316 37.2413 65.3349 34.9086 63.773 32.8194C62.1503 30.6287 60.0813 28.8031 57.7081 27.4644C55.3146 26.1256 52.6777 25.3143 49.9394 25.0912C49.27 25.0303 48.6209 24.9897 47.9718 24.9897C47.6473 24.9897 47.3227 24.9897 46.9982 25.01L46.5114 25.0303C46.3655 25.0303 46.2196 25.0467 46.059 25.0648L46.0043 25.0709C44.6655 25.1723 43.3268 25.4157 42.0286 25.7808C39.4728 26.5313 37.0793 27.7281 34.9495 29.3508C32.9414 30.8924 31.1564 32.6774 29.6351 34.7058C28.8846 35.6794 28.2152 36.6936 27.5864 37.7484C27.2619 38.2758 26.9779 38.8031 26.6939 39.3508C26.5519 39.6145 26.4099 39.8985 26.268 40.1824L26.0651 40.6287L25.9637 40.8518L25.842 41.1358C24.9495 43.2453 25.9637 45.6794 28.0732 46.5719C30.1219 47.4238 32.4749 46.5313 33.4282 44.5232L33.5296 44.3204L33.631 44.1175L33.773 43.8336C33.8237 43.7321 33.8744 43.6358 33.9252 43.5394L33.9252 43.5393C33.9759 43.443 34.0266 43.3467 34.0773 43.2453C34.2801 42.8396 34.5235 42.4542 34.7669 42.0689C35.2538 41.2981 35.7609 40.5273 36.3288 39.8173C37.4039 38.4177 38.6412 37.1601 40.0408 36.0851C41.3389 35.0912 42.7994 34.3609 44.3613 33.8944C45.1118 33.6713 45.9028 33.5496 46.6736 33.4887C46.7243 33.4887 46.7751 33.4837 46.8258 33.4786C46.8765 33.4735 46.9272 33.4684 46.9779 33.4684L47.3024 33.4482C47.3693 33.4482 47.4384 33.446 47.5082 33.4437C47.6502 33.4392 47.7953 33.4346 47.9312 33.4482C48.3572 33.4482 48.7629 33.4684 49.1686 33.509C50.7304 33.6307 52.2314 34.077 53.5905 34.8275C54.9495 35.5983 56.1463 36.6327 57.0793 37.8701C58.0935 39.2291 58.8643 40.7301 59.3917 42.3325C59.6554 43.1033 59.8379 43.9147 59.9596 44.7261C60.0813 45.5577 60.1219 46.3893 60.1016 47.221C60.0408 48.9857 59.7365 50.7504 59.2091 52.434C58.6412 54.2392 57.9312 55.9634 57.0387 57.6267C55.1726 61.0952 52.8805 64.3204 50.2233 67.2413C48.5195 69.148 46.6736 70.933 44.7264 72.576C43.7325 72.15 42.7183 71.724 41.6838 71.3183C39.5742 70.4461 37.4241 69.7159 35.2335 69.1074C34.0164 68.7828 32.7994 68.5597 31.5418 68.4177C30.8318 68.3569 30.1422 68.3366 29.4323 68.3569C28.6209 68.3975 27.8298 68.5394 27.0387 68.7626C26.1463 69.0263 25.2943 69.4522 24.5438 70.0202C23.773 70.6084 23.1239 71.3183 22.6168 72.1297C22.1706 72.8396 21.8258 73.6307 21.5824 74.4421C21.3795 75.152 21.2172 75.862 21.1361 76.6125C21.055 77.2818 21.0144 77.9309 20.9941 78.6003C20.9738 79.3305 21.0347 80.0607 21.1361 80.791C21.2578 81.6429 21.5012 82.4542 21.846 83.2453C22.2314 84.1581 22.7994 84.9897 23.5093 85.6794C24.2396 86.3893 25.0915 86.937 26.0245 87.3224C26.8359 87.6469 27.7081 87.8701 28.5803 87.9512C30.0205 88.0729 31.4809 87.9918 32.9008 87.6672C35.4972 87.1196 37.7284 86.1865 39.8379 85.1317C41.9069 84.077 43.8947 82.8802 45.8014 81.5618C46.3085 81.2169 46.8156 80.8518 47.3227 80.4664C50.629 81.7849 53.9759 83.1033 57.4241 84.2798C61.5621 85.6997 65.8217 86.937 70.2639 87.6672C72.5154 88.0526 74.7872 88.2555 77.059 88.2757C79.3917 88.296 81.7041 88.0526 83.9759 87.5252C88.6209 86.4705 92.7994 83.9553 95.9231 80.365C97.4241 78.6409 98.702 76.7342 99.7568 74.7058C100.67 72.9411 101.501 71.1358 102.049 69.1682C102.558 67.3287 102.764 65.3193 102.96 63.4131L102.961 63.413L102.982 63.2048C103.043 62.6977 103.063 62.1703 103.063 61.6632C103.083 61.2575 103.083 60.8518 103.083 60.4258C103.023 59.797 102.475 59.2291 101.765 59.2088ZM84.7467 67.7687C84.3613 67.4035 84.0367 66.9776 83.8136 66.4908C83.2051 65.1723 83.2456 63.4684 83.915 62.4543C84.1584 62.008 84.6452 61.724 85.1523 61.724C85.7203 61.724 86.1463 61.8863 86.4099 62.1703C86.7345 62.5557 86.7953 63.1033 86.7953 63.509C86.7953 65.294 85.9231 66.7545 84.7467 67.7687ZM29.6351 80.7301C30.203 80.7301 30.771 80.6693 31.3187 80.5678C33.9556 80.1013 36.2882 78.6206 38.5195 77.2007C38.2558 77.079 36.0448 76.3285 35.416 76.1256C34.1179 75.6794 32.7588 75.3549 31.3998 75.152C31.3795 75.1494 31.3591 75.1467 31.3386 75.144C30.4192 75.0237 29.3551 74.8844 28.6209 75.6185C28.0732 76.2271 27.7081 76.9979 27.6067 77.8092C27.4444 78.9046 28.0124 80.7301 29.6351 80.7301Z" fill="white"/>
<defs>
<linearGradient id="paint0_linear_204_30260" x1="255.998" y1="226.399" x2="230.097" y2="-140.275" gradientUnits="userSpaceOnUse">
<stop offset="0.3" stop-color="#17936F"/>
<stop offset="0.41" stop-color="#14A073"/>
<stop offset="0.63" stop-color="#0BC27E"/>
<stop offset="0.79" stop-color="#04E087"/>
</linearGradient>
</defs>
</svg>
