<svg width="120" height="120" viewBox="0 0 120 120" fill="none" xmlns="http://www.w3.org/2000/svg">
<path fill-rule="evenodd" clip-rule="evenodd" d="M60 120C93.1371 120 120 93.1371 120 60C120 26.8629 93.1371 0 60 0C26.8629 0 0 26.8629 0 60C0 93.1371 26.8629 120 60 120ZM60.2449 114.367C90.2711 114.367 114.612 90.0262 114.612 60C114.612 29.9738 90.2711 5.63265 60.2449 5.63265C30.2187 5.63265 5.87755 29.9738 5.87755 60C5.87755 90.0262 30.2187 114.367 60.2449 114.367ZM60 110.204C87.7269 110.204 110.204 87.7269 110.204 60C110.204 32.2731 87.7269 9.79592 60 9.79592C32.2731 9.79592 9.79592 32.2731 9.79592 60C9.79592 87.7269 32.2731 110.204 60 110.204ZM60.1224 104.082C84.5356 104.082 104.327 84.2907 104.327 59.8776C104.327 35.4644 84.5356 15.6735 60.1224 15.6735C35.7093 15.6735 15.9184 35.4644 15.9184 59.8776C15.9184 84.2907 35.7093 104.082 60.1224 104.082ZM57.6277 24.1626L89.6297 79.68L93.0612 73.7265L64.4909 24.1626H57.6277ZM26.9388 73.6264L54.3287 26.1098L54.3852 26.2078L54.4391 26.1142L86.8979 82.4241H80.0346L71.8345 68.1984C68.1083 67.0205 64.1412 66.3852 60.0255 66.3852C57.9039 66.3852 55.8336 66.5334 53.8207 66.829L57.7734 59.9826C58.5196 59.9461 59.2705 59.9278 60.0255 59.9278C62.5398 59.9278 65.0064 60.1313 67.4101 60.5229L54.3828 37.9227L30.3705 79.5796L26.9388 73.6264ZM45.5596 72.9042L57.8672 51.5525L54.4357 45.5993L33.2089 82.4238H40.0722L40.1373 82.3107C46.0239 78.7665 52.7787 76.9751 60.1545 76.9751C64.8644 76.9751 69.3798 77.807 73.562 79.3322L68.964 71.3682C66.0618 70.8012 63.1116 70.5164 60.1545 70.5179C55.0504 70.5179 50.1419 71.3567 45.5596 72.9042Z" fill="url(#paint0_linear_410_426)"/>
<defs>
<linearGradient id="paint0_linear_410_426" x1="113.265" y1="120" x2="24.7347" y2="10.6531" gradientUnits="userSpaceOnUse">
<stop stop-color="#5A81FF"/>
<stop offset="0.524" stop-color="#E40C5B"/>
<stop offset="1" stop-color="#FF4C3B"/>
</linearGradient>
</defs>
</svg>
