<svg width="120" height="120" viewBox="0 0 120 120" fill="none" xmlns="http://www.w3.org/2000/svg">
<circle cx="60" cy="60" r="60" fill="#EDF0F4"/>
<path d="M29.0428 92.7056C28.9756 92.0341 28.5055 86.957 33.3676 80.2282C37.7059 74.2243 48.236 70.2621 57.7587 67.0117L58.6049 66.7297C65.0115 64.5404 74.0776 60.4439 76.1729 58.4561L82.7675 65.4134C78.4696 69.4831 66.1129 74.2914 61.7209 75.7957L60.8613 76.0912C56.2678 77.6627 44.0454 81.8264 41.1443 85.8557C38.4581 89.5761 38.5924 92.6652 38.5924 92.692L29.0428 92.7056Z" fill="url(#paint0_linear_204_30291)"/>
<path d="M73.7951 93.0146H64.2053C64.2053 89.1196 62.889 85.8421 61.8414 83.1962C61.6936 82.8337 61.5593 82.4843 61.425 82.1485C60.8475 80.6579 58.4298 77.0582 56.4957 74.1839C55.4078 72.5588 54.2662 70.8799 53.3394 69.389C53.0305 68.9055 52.7081 68.4085 52.3858 67.8981C49.5115 63.4793 45.5762 57.4218 45.5762 48.3423C45.5762 43.1579 47.6043 37.9734 51.1501 34.1052L58.2149 40.5925C56.3077 42.6743 55.1661 45.5755 55.1661 48.3423C55.1661 54.5744 57.8389 58.6978 60.4311 62.6734C60.7937 63.2241 61.1429 63.7613 61.4653 64.2851C62.3249 65.6551 63.3725 67.1997 64.4739 68.8383C67.0124 72.6259 69.4166 76.1986 70.3836 78.6834C70.5045 78.9922 70.6254 79.3148 70.7597 79.6506C71.9551 82.6857 73.7951 87.2796 73.7951 93.0146Z" fill="url(#paint1_linear_204_30291)"/>
<path d="M82.7673 65.3998L76.1725 58.4425C78.7243 56.0249 80.5244 53.9162 80.5244 48.6646C80.5244 41.2102 74.3727 36.6033 68.6779 36.6033C64.1381 36.6033 60.6192 37.9465 58.2015 40.579L51.1367 34.0917C54.105 30.8548 59.5581 27 68.6913 27C74.7488 27 80.3229 29.4713 84.379 33.944C88.0322 37.9867 90.1408 43.3458 90.1408 48.6511C90.114 57.2605 86.5815 61.7868 82.7673 65.3998Z" fill="url(#paint2_linear_204_30291)"/>
<defs>
<linearGradient id="paint0_linear_204_30291" x1="29" y1="58.4561" x2="29" y2="92.7056" gradientUnits="userSpaceOnUse">
<stop stop-color="#4D4D4D"/>
<stop offset="1" stop-color="#8F8F8F"/>
</linearGradient>
<linearGradient id="paint1_linear_204_30291" x1="45.5762" y1="34.1052" x2="45.5762" y2="93.0146" gradientUnits="userSpaceOnUse">
<stop stop-color="#393939"/>
<stop offset="1" stop-color="#B8B8B8"/>
</linearGradient>
<linearGradient id="paint2_linear_204_30291" x1="51.1367" y1="27" x2="51.1367" y2="65.3998" gradientUnits="userSpaceOnUse">
<stop stop-color="#FF21B3"/>
<stop offset="1" stop-color="#FF21B3"/>
</linearGradient>
</defs>
</svg>
