<svg width="120" height="120" viewBox="0 0 120 120" fill="none" xmlns="http://www.w3.org/2000/svg">
<circle cx="60" cy="60" r="60" fill="#EDF0F4"/>
<path fill-rule="evenodd" clip-rule="evenodd" d="M74.4368 33.4913C73.5788 33.2545 72.7456 32.9356 71.9487 32.5391C71.7644 32.4777 71.3651 32.2627 72.6245 31.9248C73.7426 31.6248 74.4976 32.027 74.9968 32.293L74.9969 32.293C75.0599 32.3266 75.1189 32.358 75.174 32.3855C75.5118 32.5391 75.174 33.0613 74.9282 33.3378C74.7986 33.4649 74.6157 33.5221 74.4368 33.4913ZM64.761 33.1535C64.4845 33.1535 64.3924 33.4913 64.3924 33.4913C64.2695 33.7064 65.6211 33.7678 65.8668 33.7678C66.1125 33.7678 66.2047 33.307 65.9897 33.1535C65.8375 33.0448 65.4237 33.0899 65.0968 33.1256C64.9619 33.1403 64.8418 33.1535 64.761 33.1535ZM32.447 51.9521C32.447 51.9521 31.7098 51.9828 31.8327 51.1227C31.9555 50.2627 32.9385 49.2183 33.5221 48.819C34.1057 48.4197 34.4129 48.1125 34.4129 47.4982C34.4129 47.0734 34.8387 46.7074 35.1726 46.4204C35.3216 46.2923 35.4523 46.18 35.5187 46.0852C35.7337 45.778 36.5323 45.3787 36.4095 45.9009C36.3621 46.1023 36.2872 46.258 36.2132 46.4121C36.0953 46.6575 35.9794 46.8988 35.9794 47.3139C35.9794 47.9896 36.1023 48.4504 36.4402 47.7439C36.7781 47.0374 38.8668 43.7507 40.9862 42.0306C43.1057 40.3105 45.9316 38.406 46.3002 38.3446C46.6688 38.2832 46.8839 38.5289 46.8839 38.9282C46.8839 39.1835 46.4696 39.4387 46.0424 39.702C45.8013 39.8506 45.556 40.0017 45.3787 40.1569C45.3335 40.1965 45.2414 40.2727 45.1102 40.3814C43.8155 41.4539 38.7085 45.6844 37.1467 49.0033C36.7943 49.4934 36.3929 49.9462 35.9487 50.3548C35.6654 50.5934 35.4979 50.8826 35.3093 51.2084C35.1092 51.5538 34.8853 51.9404 34.4743 52.3514C34.0489 52.7768 33.8588 53.211 33.7137 53.5424C33.5864 53.8332 33.4937 54.0449 33.3071 54.1023C32.9077 54.2251 32.3856 53.7337 32.6927 52.6893C32.915 51.9334 33.4753 51.3867 34.024 50.8512L34.0241 50.8512C34.2335 50.6468 34.4412 50.4441 34.6279 50.232C35.3037 49.464 35.5494 48.7883 35.3651 48.7883C35.1808 48.7883 34.1978 49.0033 33.9214 49.7712C33.8397 49.9983 33.7821 50.1878 33.7328 50.3499C33.6154 50.7363 33.545 50.9678 33.3071 51.1842C33.1649 51.3154 33.0422 51.4544 32.9335 51.5776C32.7367 51.8006 32.5855 51.9719 32.447 51.9521ZM47.0374 38.2524C47.0622 38.0911 47.1659 37.9528 47.3139 37.8838C48.1125 37.4538 50.1091 36.9623 50.1091 36.9623C49.3908 37.3777 48.6936 37.8288 48.0204 38.3139C47.7132 38.5903 47.2832 38.7746 47.0989 38.5289C47.0497 38.4456 47.0282 38.3488 47.0374 38.2524Z" fill="black"/>
<path fill-rule="evenodd" clip-rule="evenodd" d="M59.9695 34.075C61.3518 33.7679 66.0821 33.0614 73.4542 35.918C73.4542 35.918 73.6999 36.133 73.3927 36.5324C73.2819 36.7542 73.0571 36.8962 72.8091 36.901C72.8091 36.901 72.1333 36.6552 70.5361 36.0409C68.9388 35.4266 66.2664 35.1194 65.2221 35.1501C64.5964 35.1685 63.8273 35.0546 62.9678 34.9273C62.3927 34.8421 61.777 34.7509 61.1368 34.6894C60.7305 34.664 60.3285 34.5919 59.9388 34.4743C59.856 34.4383 59.8051 34.3538 59.8121 34.2637C59.819 34.1737 59.8822 34.098 59.9695 34.075ZM33.676 55.4846C34.0753 55.9146 34.3518 55.4846 34.3518 55.4846C34.8956 55.0826 35.6033 53.9708 36.0404 53.284C36.1711 53.0786 36.2776 52.9112 36.3484 52.8122C36.6555 52.3822 38.4064 49.9556 38.9593 49.2798C39.0855 49.1255 39.1573 48.984 39.2445 48.8122C39.5392 48.2315 40.0097 47.3043 43.3518 44.3651C47.6828 40.5562 52.5361 36.5938 58.4951 36.3788C64.4542 36.1638 71.3347 40.4641 71.3347 40.4641C71.7326 40.2852 71.911 39.8184 71.734 39.4197C65.0071 35.2423 59.5088 34.8122 56.8364 35.3344C54.1641 35.8566 51.6453 37.2388 49.8023 38.2832C47.9894 39.3105 44.4525 42.1509 42.4079 43.7929L42.3074 43.8737C40.5232 45.3706 38.9431 47.0952 37.6077 49.0033C37.0856 49.8634 35.1504 52.9351 34.4746 53.5494C33.7989 54.1638 33.2767 55.0545 33.676 55.4846Z" fill="black"/>
<path fill-rule="evenodd" clip-rule="evenodd" d="M67.6485 32.877C67.5641 32.9071 67.5077 32.987 67.5077 33.0767C67.5077 33.1663 67.5641 33.2463 67.6485 33.2763C68.1681 33.5086 68.7152 33.6737 69.2765 33.7678C70.1366 33.8292 72.4711 34.5664 73.5769 35.1501C74.2833 35.5187 74.652 34.2286 74.1912 34.075C74.0576 34.0255 73.8913 33.9633 73.7036 33.893L73.7036 33.893L73.7035 33.893C72.7262 33.5272 71.1692 32.9444 70.6281 32.8156C70.0444 32.662 68.5086 32.5699 67.6485 32.877ZM72.6861 37.546C72.6861 37.546 72.9625 38.5289 72.041 38.5903C71.5872 38.6206 70.4479 38.0846 69.236 37.5145C67.9871 36.9269 66.6611 36.3031 65.9284 36.2252C64.4847 36.0716 65.4676 35.1501 67.3414 35.6723C69.2151 36.1944 72.6861 37.546 72.6861 37.546ZM69.6284 41.5262C67.6159 40.3639 62.7473 37.5522 54.9011 38.6211C54.2077 38.7051 53.6149 39.1628 53.1621 39.5125C52.9529 39.674 52.7736 39.8125 52.6281 39.8804C51.727 40.3084 50.8639 40.8119 50.0479 41.3856C48.3976 42.5666 46.8649 43.9038 45.4711 45.3787C44.0888 46.9146 42.338 50.1091 41.9386 50.9077C41.5393 51.7064 39.9728 53.4572 39.5427 53.918C39.1127 54.3787 38.0376 56.7132 37.3311 58.3719C36.6246 60.0306 35.7031 59.8156 35.8567 58.5562C36.0103 57.2968 38.5598 53.7951 39.1434 53.0886C39.727 52.3821 42.8909 47.8054 43.0444 47.406C43.198 47.0067 42.7373 46.9146 42.338 47.406C42.1733 47.6086 41.7373 48.255 41.2385 48.9942C40.5274 50.0482 39.6888 51.2911 39.3277 51.7064C38.7134 52.4129 35.9796 56.8975 35.9796 56.8975C35.9796 56.8975 35.611 57.8804 35.0274 57.5733C34.4438 57.2661 34.6281 56.4982 35.3038 55.6688C35.6056 55.2985 36.808 53.5619 38.0791 51.726C39.6544 49.4509 41.3353 47.0231 41.5393 46.8531C41.6715 46.743 41.9223 46.6367 42.2307 46.5061C42.7821 46.2725 43.5176 45.961 44.0888 45.4095C44.3996 45.1094 44.7141 44.7383 45.0402 44.3536C45.6487 43.6355 46.2976 42.8699 47.0376 42.4299C47.2782 42.2869 47.604 42.0076 48.0219 41.6495C49.5784 40.3157 52.4113 37.8879 56.867 37.331C62.5188 36.6245 68.6008 39.0818 71.0888 41.1705C71.0888 41.1705 71.2731 41.877 70.6281 41.9999C70.4931 42.0256 70.1607 41.8336 69.6284 41.5262Z" fill="black"/>
<path d="M43.9966 48.604C43.9966 48.604 46.3925 44.9795 48.942 43.2286C51.4915 41.4778 52.9659 40.2491 53.7645 39.9419C54.5631 39.6348 57.2969 38.2218 63.5017 39.6348C69.7065 41.0477 70.4437 43.075 70.1672 43.4743C69.8908 43.8737 68.9078 43.2593 67.4949 42.4914C66.0819 41.7235 63.4096 40.5255 61.2594 40.587C59.1092 40.6484 54.8703 42.1228 54.5939 42.3685C54.3174 42.6143 54.2867 41.8771 55.0239 41.7235C55.7611 41.5699 56.2218 40.9863 56.6826 40.9249C57.1433 40.8634 57.8191 40.7098 57.8191 40.3412C57.8191 39.9726 56.2833 40.0341 55.5154 40.3412C54.7474 40.6484 51.7679 42.3378 51.215 42.645C50.6621 42.9522 49.9249 43.1672 49.802 43.6279C49.6792 44.0887 48.7577 45.1638 48.2969 45.4095C47.8362 45.6552 45.5324 47.4675 45.2867 47.8976C45.0689 48.4004 44.5376 48.6913 43.9966 48.604Z" fill="black"/>
<path fill-rule="evenodd" clip-rule="evenodd" d="M52.6588 44.3346C51.9524 44.8568 52.321 44.9489 52.321 44.9489C53.3644 45.1637 53.7946 44.888 54.9901 44.1216L54.9933 44.1196C56.1913 43.3516 59.1093 42.2458 61.9967 42.338C64.435 42.4158 67.7931 44.684 68.8899 45.4248C69.0919 45.5612 69.2172 45.6458 69.2459 45.6554C69.4302 45.7168 69.9216 44.5496 69.2459 43.966C68.5701 43.3824 64.6998 41.4165 61.3517 41.2322C58.0035 41.0479 53.3653 43.8124 52.6588 44.3346ZM50.3551 45.2254C49.065 46.2083 48.7578 45.7476 48.7578 45.7476C48.7799 45.4378 50.045 44.6501 50.8428 44.1532C51.1527 43.9602 51.3921 43.8111 51.4609 43.751C51.7066 43.5359 52.0445 44.0274 51.9216 44.0274C51.8562 44.0274 51.7821 44.0884 51.5324 44.2937C51.313 44.4741 50.9583 44.7658 50.3551 45.2254Z" fill="black"/>
<path d="M56.0684 44.7646C55.9977 44.7452 55.9444 44.687 55.9313 44.615C55.9182 44.5429 55.9476 44.4697 56.0069 44.4267C57.9974 43.0852 60.447 42.6086 62.7953 43.1059C66.9421 43.9966 68.6622 45.9625 68.7544 46.4233C68.8465 46.884 68.6929 47.9591 68.0786 47.7441C67.4643 47.5291 65.4677 44.4881 62.2424 44.2117C59.14 43.9352 58.4335 45.3175 56.0684 44.7646Z" fill="black"/>
<path fill-rule="evenodd" clip-rule="evenodd" d="M60.3377 45.5016L59.9691 45.3787C59.9076 45.348 59.9383 45.2866 59.9691 45.2866C60.4913 45.1637 62.2421 44.8258 63.8394 45.4095C64.9751 45.8785 66.0004 46.5795 66.8496 47.4675C66.8799 47.4973 66.8858 47.544 66.8639 47.5805C66.8421 47.617 66.7981 47.6337 66.7575 47.6211L60.3377 45.5016ZM37.9759 61.1671C37.9759 61.1671 37.7916 61.7508 37.2694 61.3207C36.7976 60.9322 37.0279 60.343 37.2127 59.8704L37.2127 59.8703L37.2128 59.8702C37.2325 59.8198 37.2517 59.7708 37.2694 59.7235C37.4537 59.232 38.8667 56.3446 39.2046 56.0067C39.5424 55.6689 40.8018 54.1637 40.8018 53.8258C40.8018 53.488 41.1397 54.7781 39.8496 56.7439C39.2152 57.7591 39.0394 58.3893 38.8612 59.0278C38.6944 59.6259 38.5255 60.2313 37.9759 61.1671ZM38.5595 63.1023C38.8974 63.5016 39.0817 63.1023 39.0817 63.1023C39.4677 62.4825 39.7869 61.8235 40.0339 61.1364C40.506 59.97 40.476 58.6278 40.4659 58.1769C40.4648 58.129 40.4639 58.0913 40.4639 58.0648C40.4639 57.7883 40.4332 56.8361 40.1568 57.2661C40.007 57.4992 39.7759 58.2375 39.5322 59.0165C39.3261 59.6749 39.111 60.3624 38.9281 60.7985C38.5288 61.7508 38.2216 62.703 38.5595 63.1023ZM40.679 64.976C40.679 64.976 40.3104 65.5904 39.8496 64.8532C39.5299 64.3465 39.5299 63.7011 39.8496 63.1944C39.9241 63.0605 40.0129 62.7822 40.0987 62.5134C40.19 62.2277 40.2778 61.9528 40.3411 61.8736C40.4639 61.72 40.6175 62.0886 40.679 62.5494C40.712 62.7968 40.807 63.062 40.8878 63.2878C40.9576 63.4824 41.0168 63.6478 41.0168 63.7474C41.0168 63.9624 40.9554 64.6689 40.679 64.976ZM41.324 65.2218C41.4305 65.3721 41.5133 65.5378 41.5697 65.7132C41.607 65.8749 41.607 66.043 41.5697 66.2047C41.5083 66.5119 41.2626 66.8497 41.2319 66.5733C41.2179 66.4476 41.1405 66.3537 41.063 66.2598C40.9701 66.1471 40.8772 66.0343 40.894 65.8668C40.9247 65.5596 41.2319 65.1603 41.324 65.2218ZM42.522 56.4982C42.8277 54.7744 43.5677 53.157 44.6721 51.7985C46.4537 49.7098 47.2831 49.3719 47.2831 49.3719C47.2831 49.3719 47.5288 49.3105 47.4059 49.802C47.3296 50.1074 46.9447 50.6621 46.6274 51.1193L46.6274 51.1193L46.6274 51.1193C46.4342 51.3977 46.2661 51.64 46.208 51.7678C46.1338 51.9309 45.8379 52.2729 45.5515 52.6038C45.2445 52.9585 44.9486 53.3005 44.9486 53.3958C44.9486 53.5031 45.1152 53.4959 45.2666 53.4893C45.3751 53.4846 45.4758 53.4802 45.5015 53.5187C45.5089 53.5299 45.5186 53.5415 45.5295 53.5544C45.6078 53.6483 45.7444 53.8119 45.5015 54.3787C45.4426 54.5163 45.3473 54.7278 45.2337 54.9802C44.8141 55.912 44.1434 57.4016 44.1192 57.7883C44.0885 58.2798 42.4913 61.9658 42.3377 61.9658C42.1841 61.9658 41.8462 61.9351 41.8769 60.7985C41.9076 59.662 43.5971 55.3924 44.0578 54.6859C44.1305 54.5745 44.1925 54.4806 44.2446 54.4017C44.4252 54.1281 44.4875 54.0338 44.4665 54.0084C44.4554 53.9951 44.4214 54.0007 44.3694 54.0094L44.365 54.0101C44.1807 54.0409 43.0442 55.2695 42.8906 56.1296C42.737 56.9897 42.522 56.4982 42.522 56.4982ZM45.5015 57.174C46.3923 57.2354 46.8223 56.2218 46.8223 56.2218C46.8223 56.2218 47.4059 53.9794 47.4981 53.3037C47.5736 52.7498 48.2887 51.3708 48.7303 50.5191C48.8275 50.3316 48.9115 50.1696 48.9725 50.0477C49.1147 49.7632 49.3114 49.5223 49.48 49.3157C49.7119 49.0316 49.8908 48.8126 49.8018 48.6347C49.6482 48.3276 48.7267 48.6962 48.3889 49.0033C48.051 49.3105 46.3923 52.9658 46.1773 53.918C46.1107 54.2128 45.9352 54.6313 45.751 55.0705C45.3403 56.0497 44.8865 57.1316 45.5015 57.174Z" fill="black"/>
<path d="M45.9624 58.3721C46.0209 58.2217 46.0144 58.0537 45.9445 57.9082C45.8747 57.7628 45.7477 57.6527 45.5938 57.6042C45.0102 57.3584 44.9795 57.5427 44.703 58.0035C44.4266 58.4642 42.645 62.7646 42.645 63.4096C42.645 64.0547 42.8293 65.2526 43.0443 65.4369C43.2594 65.6212 43.4744 65.2833 43.4744 64.8226C43.5473 64.2563 43.782 63.7231 44.1501 63.2868C44.5207 62.7723 44.6547 62.1244 44.5187 61.5052C44.3959 60.768 45.5631 59.57 45.5631 59.57C45.5681 60.4317 45.5271 61.293 45.4402 62.1502C45.3174 62.9182 44.5187 63.5325 44.3344 63.8704C44.1501 64.2083 44.058 65.5291 43.9044 65.9284C43.7517 66.4151 43.7201 66.9318 43.8123 67.4335C43.9044 67.8328 44.1501 68.8158 44.3037 68.1093C44.4573 67.4028 45.0102 65.3141 45.1638 65.3448C45.3174 65.3755 45.2867 67.6485 45.1945 68.1093C45.1024 68.57 44.9795 70.8124 44.9795 71.0888C44.9795 71.3653 44.1501 72.6246 43.9966 73.0854C43.843 73.5461 42.9215 75.2356 42.9215 75.3277C42.9215 75.4199 43.843 75.3277 44.4266 74.867C44.8733 74.4784 45.14 73.9227 45.1638 73.3311C45.1638 72.9625 45.1024 72.0717 45.3174 71.5496C45.5324 71.0274 46.0853 69.7987 46.1774 69.3072C46.2544 68.049 46.2544 66.7873 46.1774 65.5291C46.116 64.8226 46.2696 61.8431 46.4846 61.2287C46.6996 60.6144 46.7303 60.3072 46.8839 60.3072C47.0375 60.3072 46.9454 62.181 46.8839 62.7646C46.8225 63.3482 46.6689 65.2526 46.6689 65.5291C46.4062 67.8775 46.7774 70.2533 47.744 72.4096C47.744 72.4096 47.8976 73.0854 48.6348 72.6246C49.372 72.1639 48.2969 70.1059 48.1126 69.5223C47.9283 68.9386 47.314 65.8977 47.529 65.4676C47.744 65.0376 48.9727 69.7066 49.0034 70.1673C49.0341 70.6281 49.1877 72.0717 49.4334 72.1025C49.6791 72.1332 50.6928 71.5188 50.6928 71.396C50.6916 71.0686 50.5955 70.7485 50.4164 70.4745C50.1399 70.0137 48.6655 66.2356 48.389 63.1025C48.1126 59.9694 48.6041 54.6246 48.8498 54.0717C49.0955 53.5188 50.232 51.0001 50.5085 50.6008C50.785 50.2014 51.5836 48.5427 51.7372 48.4813C51.8908 48.4199 52.0443 48.4199 52.0443 48.6042C51.8565 49.2416 51.6309 49.8673 51.3686 50.4779C51.1843 51.0001 50.2013 52.5666 50.017 53.0888C49.4556 54.7483 49.1047 56.4716 48.9727 58.2185C48.6962 60.983 49.3413 65.652 49.5256 66.5735C49.7099 67.495 50.8771 70.6281 51.5222 70.9045C52.1672 71.181 52.7201 70.3516 52.628 70.198C52.5358 70.0444 51.1843 67.5871 50.8771 66.5735C50.5699 65.5598 50.017 63.1332 50.1092 62.5803C50.2013 62.0274 50.9078 67.1878 53.3344 69.8909C53.3344 69.8909 53.6416 70.0752 54.1945 69.7066C54.7474 69.338 54.7167 69.0308 54.1945 68.4472C53.6723 67.8636 51.8908 64.4233 51.645 63.5325C51.3993 62.6417 50.3242 59.6929 50.2628 59.6008C50.1451 58.5562 50.1865 57.4998 50.3856 56.4677C50.6621 55.1775 51.0614 53.3653 51.0921 52.8738C51.1228 52.3823 51.9215 51.2765 52.1058 51.0308C52.2901 50.7851 52.7201 49.6178 52.9351 48.7885C53.1501 47.9591 53.5802 47.4062 53.2116 47.3448C52.843 47.2833 51.4914 47.4984 51.2457 47.7748C51 48.0513 50.017 48.6349 47.9283 53.396C47.9283 53.396 47.3447 54.5018 47.3447 55.1468C47.3443 55.9822 47.087 56.7972 46.6075 57.4813C46.4324 57.8052 46.2156 58.1047 45.9624 58.3721Z" fill="black"/>
<path fill-rule="evenodd" clip-rule="evenodd" d="M55.638 47.4061C55.7609 47.5289 55.3001 48.0818 55.3001 48.0818C55.3001 48.0818 54.2865 50.3242 54.0407 50.7235C53.795 51.1842 52.2592 54.348 52.597 55.6381C52.8899 56.7562 52.7674 57.9203 52.6696 58.8507C52.6545 58.9939 52.64 59.1316 52.6278 59.2627C52.5356 60.2457 53.8564 63.2559 54.1022 63.6552C54.3479 64.0545 56.2523 67.4948 56.2523 67.4948L57.0202 68.3856C57.0202 68.3856 56.0373 69.5221 55.0237 68.3856C54.01 67.2491 51.7063 61.8736 51.3377 59.232C51.0738 57.5511 51.0945 55.8378 51.3991 54.1637C51.4559 53.9082 51.7751 53.2131 52.1263 52.4483C52.535 51.5583 52.9871 50.574 53.1192 50.0784C53.4694 49.0501 53.966 48.0777 54.5936 47.191C54.8394 46.8839 55.5151 47.2832 55.638 47.4061ZM46.0354 71.0928C46.1565 71.0063 46.307 70.9717 46.4537 70.9965C47.0373 70.9965 47.2216 71.7644 47.2216 72.2866C47.1833 72.8469 46.9559 73.3776 46.5766 73.7917C46.2387 74.191 45.5322 74.3753 45.44 74.3139C45.3897 74.2804 45.4768 74.0361 45.5712 73.7713C45.6497 73.5512 45.7333 73.3168 45.7472 73.1774C45.7255 72.6033 45.7461 72.0284 45.8086 71.4573C45.8327 71.3104 45.9143 71.1793 46.0354 71.0928Z" fill="black"/>
<path d="M54.471 54.8395C54.4933 54.3475 54.5864 53.8612 54.7474 53.3958C54.9624 52.7814 55.2082 51.7678 54.7474 51.5221C54.2867 51.2763 53.488 51.4606 53.488 53.1808C53.488 54.9009 53.0887 56.8668 53.488 59.447C53.8873 62.0272 55.8225 66.5733 58.4027 68.9077C60.9829 71.2422 60.5222 70.4436 61.7815 71.5801C63.0409 72.7166 69.43 73.9146 71.2116 73.6995C72.9931 73.4845 73.4539 72.6244 73.546 72.3173C73.6382 72.0101 73.3925 71.4879 73.1467 71.7337C72.901 71.9794 71.5802 73.1774 67.2491 72.2251C62.9181 71.2729 61.7815 70.1978 61.5358 69.9828C61.2901 69.7678 58.8634 67.2797 58.587 67.034C58.3105 66.7883 55.5153 62.9794 55.5153 62.4265C55.5153 61.8736 59.1399 68.7849 63.9624 70.6279C68.785 72.4709 70.5665 72.1637 71.488 71.8565C72.4095 71.5494 73.3617 71.2729 73.3617 70.935C73.3617 70.5971 73.331 69.9521 73.0239 69.9521C72.7167 69.9521 70.9044 71.0272 70.0443 70.935C69.1843 70.8429 67.9249 70.29 66.7576 70.29C65.5904 70.29 63.1331 68.8463 62.5187 68.2627C61.9044 67.6791 58.6484 66.0204 55.5153 59.2934C55.4846 59.3241 54.3174 55.8531 54.471 54.8395Z" fill="black"/>
<path d="M62.9486 72.8089C62.9486 72.8089 61.6585 71.9488 61.4128 71.9796C61.1671 72.0103 61.1978 72.4403 61.2285 72.9011C61.2592 73.3618 61.4435 73.8533 61.7507 73.9147C62.0578 73.9762 62.8872 73.7919 63.0715 73.9147C64.5534 74.6617 66.1751 75.0907 67.8326 75.1741C70.3206 75.2663 70.8121 75.3584 71.5186 75.297C72.2251 75.2355 73.423 74.8055 73.5152 74.5291C73.6073 74.2526 73.5459 73.3925 73.3002 73.3925C73.0544 73.3925 72.778 74.6212 68.0783 74.0683C63.4401 73.454 62.9486 72.8089 62.9486 72.8089Z" fill="black"/>
<path d="M63.5631 74.7133C63.5631 74.7133 62.6109 74.0375 62.3344 74.314C62.058 74.5904 61.9966 75.4198 62.9488 75.6348C63.901 75.8498 66.0512 76.4642 66.5426 76.5563C67.5056 76.7361 68.4814 76.8388 69.4607 76.8635C70.5051 76.8635 71.5495 76.372 71.9795 76.372C72.4095 76.372 73.6996 76.372 73.7611 76.0956C73.7679 75.7715 73.7159 75.4488 73.6075 75.1433C73.5768 75.0205 73.2082 75.0512 72.9624 75.1741C72.1702 75.4875 71.3462 75.7141 70.5051 75.8498C69.095 75.9328 67.68 75.8295 66.2969 75.5427C65.3686 75.3259 64.4554 75.0489 63.5631 74.7133Z" fill="black"/>
<path d="M72.8087 77.3855C72.8087 77.3855 70.8428 78.7371 65.3753 77.877C59.9077 77.0169 61.3207 74.8668 61.4435 74.9589C61.5664 75.0511 62.0271 75.6961 62.365 75.819C62.7029 75.9419 66.7882 77.2934 67.9248 77.3241C69.0613 77.3548 70.5357 77.2934 71.1807 77.0784C71.8258 76.8634 72.6859 76.3105 73.0237 76.7712C73.3616 77.1705 72.8087 77.3855 72.8087 77.3855Z" fill="black"/>
<path d="M62.1502 77.4472C62.1502 77.4472 61.6587 77.1093 61.6587 77.4472C61.7075 77.9398 62.0104 78.3709 62.4573 78.5837C62.8864 78.7998 63.3591 78.9154 63.8396 78.9216C64.4207 78.968 64.9857 79.1354 65.4983 79.4131C65.959 79.6281 67.587 80.2731 70.413 79.7509C73.2389 79.2288 73.9454 78.553 74.0682 78.3687C74.1606 78.0894 74.1606 77.7879 74.0682 77.5086C74.0068 77.2015 73.7918 77.0786 73.5461 77.3243C73.3003 77.5701 71.6416 79.0445 67.587 78.768C63.5324 78.4916 62.1502 77.4472 62.1502 77.4472Z" fill="black"/>
<path d="M64.9147 79.6587C64.9147 79.6587 64.5768 79.1673 63.6553 79.413C62.7338 79.6587 66.0205 81.4096 66.2048 81.5632C66.3891 81.7167 66.6041 81.8089 67.4028 81.7167C68.2014 81.6246 70.4744 81.5017 71.2731 81.3174C72.0717 81.1331 73.669 80.6724 74.1604 80.058C74.6519 79.4437 74.4676 79.0444 74.0069 79.1058C73.5461 79.1673 70.7202 80.9181 67.8942 80.6724C65.0683 80.4266 64.9147 79.6587 64.9147 79.6587Z" fill="black"/>
<path fill-rule="evenodd" clip-rule="evenodd" d="M58.1877 47.7748C58.037 47.9984 57.8618 48.2044 57.6655 48.3892C57.1433 49.0035 56.4675 50.7544 56.4061 51.1844C56.3447 51.6144 56.529 52.8124 56.7133 53.5496C56.7956 53.879 56.9639 54.8341 57.1467 55.8722C57.373 57.157 57.6217 58.5689 57.7576 59.0786C57.9009 59.616 58.3262 60.498 58.6681 61.207C58.9125 61.7139 59.1143 62.1323 59.1399 62.2731C59.2013 62.611 61.9658 65.4677 62.3344 65.6213C62.4748 65.6797 62.9002 66.0411 63.4327 66.4934C64.2984 67.2287 65.4469 68.2043 66.1126 68.5086C67.1877 69.0001 70.4129 69.5837 71.0273 69.6144C71.6416 69.6452 71.2116 70.0445 71.2116 70.0445C68.2637 70.6417 65.2029 69.899 62.8566 68.0172C56.8361 63.2868 55.7303 58.8943 55.2389 54.6247C54.7474 50.3551 56.3139 47.2834 56.7747 47.1912C57.2354 47.0991 58.1877 47.6827 58.1877 47.7748ZM67.5255 82.454C67.4641 82.1776 68.8464 82.1469 68.8464 82.1469C70.7663 82.3742 73.1226 81.1264 74.0697 80.6249C74.2742 80.5166 74.413 80.4431 74.4675 80.4267C74.7747 80.3346 74.8976 80.826 74.8976 81.2561C74.8976 81.5685 74.5896 81.7025 74.1503 81.8938C73.9848 81.9659 73.8007 82.046 73.6075 82.1469C73.0369 82.4446 70.6831 82.8625 69.475 83.077C69.1873 83.128 68.9645 83.1676 68.8464 83.1912C68.2956 83.2441 67.7696 82.9506 67.5255 82.454ZM70.075 84.0206C70.075 83.867 71.5802 83.3755 71.5802 83.3755C72.0716 83.3448 74.1604 82.2083 74.3754 82.0854C74.5803 81.9924 74.8155 81.9924 75.0204 82.0854C75.2078 82.4218 75.2831 82.8091 75.2354 83.1912C75.1909 83.4584 74.4846 83.6288 73.8887 83.7725C73.6626 83.827 73.4524 83.8777 73.3003 83.9284C73.0776 84.0027 72.7703 84.1616 72.4504 84.3269C71.9761 84.5722 71.4744 84.8316 71.1808 84.8499C70.6894 84.8806 70.075 84.1742 70.075 84.0206ZM73.0238 85.71C72.6845 85.8751 72.2881 85.8751 71.9488 85.71C71.3651 85.4335 71.5802 85.0957 72.0716 84.8499C72.3762 84.6976 72.846 84.5099 73.2396 84.3527C73.4811 84.2562 73.694 84.1711 73.8225 84.1127C74.1604 83.9591 75.0819 83.6213 75.2354 83.7441C75.3973 83.9134 75.5043 84.1275 75.5426 84.3585C75.5426 84.512 73.0238 85.71 73.0238 85.71ZM72.9317 86.4779C72.9317 86.6008 73.8532 87.0923 73.8532 87.0923C74.2218 87.1537 76.2184 86.6315 76.2184 86.1707C76.2184 85.71 75.7269 85.2492 75.7269 85.2492C75.7269 85.2492 73.8532 86.0172 73.5767 86.0172C73.2981 86.053 73.056 86.226 72.9317 86.4779ZM76.2184 88.1059C75.9545 88.1558 75.6836 88.1558 75.4197 88.1059C75.2726 88.0569 75.0993 87.9208 74.9509 87.8042C74.8205 87.7018 74.7093 87.6144 74.6518 87.6144C74.529 87.6144 74.9283 87.3687 75.2354 87.338C75.4251 87.319 75.6966 87.2415 75.9201 87.1778L75.9201 87.1777C76.0586 87.1382 76.1786 87.104 76.2491 87.0923C76.4334 87.0615 76.6791 87.3073 76.6791 87.6144C76.6791 87.9216 76.2184 88.1059 76.2184 88.1059Z" fill="black"/>
<path d="M59.7848 48.8498C59.7848 48.8498 60.3377 48.6962 60.3685 48.5119C60.3992 48.3276 60.307 47.8976 59.5698 47.7747C58.8326 47.6519 58.1261 48.1741 57.6347 49.4949C57.1432 50.8157 57.3582 53.6109 58.0033 55.3311C58.6483 57.0512 58.2797 58.4334 59.4777 60.7372C60.6756 63.041 60.6449 63.041 61.1057 63.4096C61.5664 63.7782 63.778 65.9283 64.1159 66.2662C64.4538 66.6041 66.4196 67.8942 66.7882 67.8942C67.1569 67.8942 67.3412 67.2799 67.3104 66.9727C67.2797 66.6655 67.249 66.5119 66.7268 66.4812C66.2046 66.4505 65.4674 65.5904 65.4674 65.5904C65.4674 65.5904 62.6722 62.9488 62.4572 62.8259C62.2422 62.7031 59.9691 60.1229 59.9691 59.8157C59.9691 59.5085 59.9999 59.0785 60.1842 59.3242C60.3685 59.57 61.6893 61.4744 62.5493 62.273C63.4094 63.0717 66.1432 65.3754 66.7882 65.6519C67.4333 65.9283 67.7405 65.959 67.8019 65.4369C67.8633 64.9147 68.1705 64.6689 68.447 64.8225C68.7234 64.9761 70.7814 66.1741 71.4265 66.0819C72.0715 65.9898 73.0237 65.0375 73.3309 65.099C73.6381 65.1604 72.778 66.1126 72.5016 66.2662C72.2251 66.4198 72.7166 66.7577 72.8087 66.8191C73.1573 67.0083 73.5869 66.9592 73.8838 66.6962C74.3753 66.2662 74.4367 65.6826 74.0988 64.9147C73.7609 64.1468 73.6688 62.8567 73.5766 62.6109C73.4845 62.3652 73.3616 61.9966 73.1159 62.6109C72.8702 63.2253 72.4094 64.4846 70.8121 64.5461C68.9169 64.7007 67.027 64.1902 65.4674 63.1024C63.5016 61.8123 61.1364 60.0307 59.2934 54.7782C57.4504 49.5256 59.7848 48.8498 59.7848 48.8498Z" fill="black"/>
<path fill-rule="evenodd" clip-rule="evenodd" d="M72.8701 60.0308C72.7037 59.9513 72.505 59.9886 72.3786 60.123C72.2865 60.2765 72.1636 59.5701 72.3479 58.8943C72.5322 58.2185 72.3786 57.2049 72.1636 57.2663C72.1216 57.2783 72.0246 57.3887 71.8819 57.5511C71.2937 58.2201 69.93 59.7714 68.4469 58.9557C66.6039 57.9421 64.3001 55.0547 63.6551 53.7646C63.5969 53.6482 63.5375 53.5304 63.4776 53.4116L63.4776 53.4116C62.8734 52.2135 62.2225 50.9225 62.3343 50.14C62.3343 50.14 62.4264 49.4643 62.4571 49.28C62.4878 49.0957 62.0885 48.3585 61.5971 48.5428C61.1056 48.7271 59.9076 49.4028 59.7541 49.8943C59.719 50.0066 59.6663 50.1172 59.6087 50.238C59.4144 50.6459 59.1651 51.1693 59.3547 52.2595C59.5436 53.3453 60.0227 54.667 60.3599 55.5972C60.4614 55.8774 60.5501 56.1221 60.6141 56.3141C60.8906 57.1434 61.7506 59.0172 62.6721 59.8465C63.5936 60.6759 65.4059 62.3039 66.2046 62.6725C66.3378 62.734 66.4959 62.8203 66.6769 62.9191L66.6769 62.9191C67.5807 63.4126 69.0565 64.2184 70.8735 63.809C73.0544 63.3175 73.0851 61.1366 73.0851 60.9216C73.0645 60.6146 72.9918 60.3134 72.8701 60.0308ZM63.0007 58.9599L63.0007 58.9598L63.0007 58.9598C62.6458 58.4249 62.0832 57.5772 61.9964 57.512C62.5798 57.9453 63.1245 58.4283 63.6244 58.9557C64.2387 59.6622 64.7916 60.4916 64.7916 60.7373C64.7916 60.7373 63.3786 59.5086 63.2865 59.3858C63.2595 59.3497 63.148 59.1817 63.0007 58.9599ZM67.1998 61.0628C67.6558 61.403 68.3438 61.9162 69.737 61.966C71.4571 62.0274 71.8872 61.1673 71.795 61.0445C71.7029 60.9216 71.365 60.9216 71.0578 61.0445C71.0378 61.0525 71.0139 61.0628 70.9862 61.0748C70.5879 61.2471 69.4 61.7611 67.6483 60.5837C65.7745 59.3243 63.6551 57.0206 63.4093 56.4984C63.3595 56.3925 63.244 56.1969 63.0919 55.9395C62.4944 54.9278 61.3331 52.9616 61.382 51.7373C61.3142 51.4136 61.2731 51.0848 61.2592 50.7544C61.2592 50.5701 60.6756 50.8772 60.7677 51.2458C60.8599 51.6144 61.7506 54.7783 62.0885 55.4233C62.4264 56.0684 63.225 56.9591 64.2387 58.0035C64.6464 58.4236 65.084 58.9232 65.4914 59.3884C66.0968 60.0797 66.6356 60.6949 66.9111 60.8602C66.9986 60.9127 67.0928 60.983 67.1998 61.0628Z" fill="black"/>
<path fill-rule="evenodd" clip-rule="evenodd" d="M71.9489 55.7919C71.8426 55.7919 71.6863 55.9008 71.5291 56.0105C71.2772 56.1862 71.0226 56.3637 70.9659 56.099C70.9217 55.8926 71.019 55.573 71.1321 55.2013C71.2547 54.7985 71.3959 54.3347 71.3959 53.8874C71.3959 53.0274 71.2116 51.3994 70.8123 50.6007C70.413 49.8021 70.0137 49.0956 69.3072 49.5256C68.6626 49.918 68.913 50.2337 69.1952 50.5893C69.2222 50.6234 69.2496 50.6579 69.2765 50.6929C69.3005 50.7241 69.3274 50.7584 69.3565 50.7955C69.6992 51.2326 70.3516 52.0647 70.3516 53.0274C70.3516 54.0717 70.198 55.4233 69.7987 55.5154C69.3994 55.6076 68.4471 55.3004 67.5871 54.6246C66.6684 53.9366 65.8149 53.1654 65.0376 52.3209C64.7611 51.9216 64.2082 51.0001 64.3618 50.8465C64.5154 50.6929 64.7611 50.6315 65.0069 51.0615C65.2526 51.4915 66.4506 52.7509 66.7577 53.0581C67.2711 53.5713 67.8148 54.0534 68.3857 54.5018C68.429 54.5306 68.4736 54.5621 68.5191 54.5941C68.8609 54.835 69.2548 55.1126 69.5529 54.6246C69.8908 54.0717 69.9523 52.7509 69.6758 52.2594C69.5981 52.1213 69.5059 51.9541 69.41 51.7802L69.4099 51.7801L69.4099 51.7801C69.1646 51.3354 68.8954 50.8475 68.785 50.6929L68.7737 50.6769C68.6193 50.4603 68.373 50.1145 67.8635 50.3243C67.3413 50.5393 67.3721 50.9693 67.5564 51.1229C67.5834 51.1455 67.6244 51.1773 67.6749 51.2165L67.6749 51.2165C67.9678 51.444 68.579 51.9188 68.6314 52.2594C68.6426 52.3319 68.6578 52.4145 68.6734 52.4991C68.7436 52.8808 68.8214 53.3039 68.57 53.0274C68.4557 52.9016 68.2732 52.6694 68.0781 52.421C67.7491 52.0024 67.3842 51.5379 67.2492 51.4608C67.0342 51.3379 65.5598 50.4164 65.5598 50.4164C65.5598 50.4164 63.7782 49.6792 63.6553 49.4949C63.5325 49.3106 63.1639 49.2799 63.4403 50.3243C63.4899 50.5117 63.5366 50.706 63.5841 50.9043L63.5841 50.9043L63.5841 50.9043C63.8017 51.8108 64.0389 52.7989 64.669 53.5803C65.0995 54.0785 65.4143 54.6659 65.5905 55.3004C65.7441 55.7611 67.2799 58.0342 69.2458 58.5257C71.0448 58.9754 71.7891 57.1101 71.9731 56.6489C71.9902 56.6061 72.0025 56.5754 72.0103 56.5598C72.1024 56.3755 72.2253 55.7919 71.9489 55.7919ZM70.0751 57.1741C70.0349 57.4757 69.6527 57.3694 69.29 57.2685C69.0985 57.2152 68.9124 57.1635 68.785 57.1741C68.4164 57.2048 67.7407 56.5905 67.3106 56.099C66.8806 55.6076 66.5427 55.0854 66.6656 55.0239C66.7256 54.994 66.888 55.1396 67.1029 55.3324C67.3283 55.5344 67.6112 55.7882 67.8942 55.9454L67.9849 55.9959L67.9849 55.9959C68.5256 56.2974 69.2107 56.6793 69.6758 56.6212C70.1673 56.5598 70.0751 57.1741 70.0751 57.1741ZM73.884 67.5257C73.884 67.3414 74.2833 66.8806 74.2833 66.8806C74.6125 66.8046 74.6286 67.1252 74.6413 67.3778C74.644 67.4317 74.6465 67.4825 74.6519 67.5257C74.6826 67.7714 74.6826 67.9557 74.4676 68.1093C74.2526 68.2629 74.099 68.1707 74.099 67.9864C74.099 67.8943 74.0453 67.8251 73.9915 67.756C73.9378 67.6869 73.884 67.6178 73.884 67.5257ZM74.6826 68.5086C74.6826 68.5086 74.2833 68.7543 74.2833 69.0615C74.2678 69.3172 74.2678 69.5737 74.2833 69.8294C74.3206 69.9331 74.4189 70.0023 74.5291 70.0023C74.6392 70.0023 74.7376 69.9331 74.7748 69.8294C74.7976 69.7839 74.8214 69.7415 74.8443 69.7007L74.8443 69.7007C74.9451 69.5215 75.0285 69.3732 74.9284 69.1229C74.8807 69.0276 74.87 68.8816 74.8605 68.7509C74.8454 68.5447 74.8331 68.3769 74.6826 68.5086ZM74.4676 71.6724C74.4369 71.8874 74.9898 71.4881 74.9898 71.4881L75.0318 71.4631C75.3157 71.2943 75.4978 71.1861 75.2048 70.6588C74.9894 70.271 74.925 70.3365 74.8423 70.4208C74.807 70.4567 74.7684 70.496 74.7134 70.5052C74.5673 70.5295 74.5177 71.1134 74.4881 71.4616L74.4881 71.4617L74.4881 71.4618C74.4804 71.5529 74.474 71.6278 74.4676 71.6724ZM75.4506 72.1946C75.4506 72.1946 75.6041 71.611 75.1741 71.9796C74.9939 72.134 74.8676 72.2022 74.784 72.2473C74.6681 72.3099 74.6341 72.3283 74.6519 72.471C74.6826 72.7168 74.7748 73.1468 75.0205 73.0854C75.048 73.0762 75.081 73.0705 75.1165 73.0643C75.3194 73.0289 75.6074 72.9787 75.4506 72.1946ZM75.0512 74.1605C74.9898 73.7611 75.6963 73.4233 75.6963 73.4233C75.853 73.3253 75.8598 73.5273 75.8681 73.7741C75.8728 73.9143 75.8779 74.0688 75.9113 74.1912C76.0035 74.5291 75.7577 74.9591 75.6041 74.9591C75.4506 74.9591 75.1127 74.5598 75.0512 74.1605Z" fill="black"/>
<path fill-rule="evenodd" clip-rule="evenodd" d="M21.3584 60C21.3584 38.6588 38.6588 21.3584 60 21.3584C70.2492 21.356 80.0793 25.4263 87.3265 32.6736C94.5737 39.9208 98.6441 49.7509 98.6417 60C98.6417 81.3412 81.3412 98.6417 60 98.6417C38.6588 98.6417 21.3584 81.3412 21.3584 60ZM23.9079 60C23.9164 79.9247 40.0754 96.07 60 96.0615C69.5692 96.0607 78.7457 92.2569 85.5093 85.4876C92.2728 78.7183 96.0688 69.5385 96.0615 59.9693C96.053 40.0447 79.894 23.8994 59.9693 23.9079C40.0447 23.9164 23.8994 40.0754 23.9079 60Z" fill="black"/>
<path fill-rule="evenodd" clip-rule="evenodd" d="M15 60C15 35.1472 35.1472 15 60 15C84.8521 15.0017 104.998 35.1479 105 60C105 84.8528 84.8528 105 60 105C35.1472 105 15 84.8528 15 60ZM19.2082 60C19.2082 82.5287 37.4713 100.792 60 100.792C82.5245 100.782 100.782 82.5245 100.792 60C100.792 37.4713 82.5287 19.2082 60 19.2082C37.4713 19.2082 19.2082 37.4713 19.2082 60Z" fill="#151515"/>
</svg>
