<svg width="120" height="120" viewBox="0 0 120 120" fill="none" xmlns="http://www.w3.org/2000/svg">
<circle cx="60.0001" cy="60.0001" r="58.0645" fill="#F2E3EE"/>
<circle cx="60" cy="60" r="60" fill="#D9327C"/>
<path fill-rule="evenodd" clip-rule="evenodd" d="M57.677 31.6452C57.1932 32.0323 56.6125 32.7097 56.2254 33.9678C55.8383 35.2258 53.7093 41.4194 50.9996 49.1613H69.0964C66.3867 41.4194 64.2577 35.2258 63.8706 33.9678C63.4835 32.7097 62.9028 32.0323 62.419 31.6452C61.9351 31.2581 61.2577 30.9678 59.9996 30.9678C58.7416 30.9678 58.1609 31.2581 57.677 31.6452ZM30.9674 49.1613H43.2577C46.2577 40.3549 48.8706 33 49.2577 31.6452C50.0319 29.3226 51.2899 27.2904 53.2254 25.8387C55.1609 24.3871 57.4835 23.7097 59.9028 23.7097C62.3222 23.7097 64.6448 24.2904 66.5803 25.8387C68.5158 27.2904 69.7738 29.3226 70.548 31.6452C71.0319 33 73.548 40.2581 76.548 49.1613H89.0319C91.0641 49.1613 92.7093 50.8065 92.7093 52.8387C92.7093 54.871 91.0641 56.5162 89.0319 56.5162H79.2577H71.6125H48.4835H40.8383H30.9674C28.9351 56.5162 27.3867 54.871 27.3867 52.8387C27.3867 50.8065 29.0319 49.1613 30.9674 49.1613ZM30.9674 63.6775C28.9351 63.6775 27.3867 65.3226 27.3867 67.3549C27.3867 69.3871 29.0319 71.0323 30.9674 71.0323H35.8061L33.8706 76.6452L31.9351 82.2581L31.1609 84.3871C30.4835 86.3226 31.548 88.3549 33.3867 89.0323C35.3222 89.7097 37.3545 88.6452 38.0319 86.8065L38.8061 84.6775L40.7416 79.0646C41.5158 76.742 42.4835 74.0323 43.548 71.0323H76.6448C77.6125 73.9355 78.5803 76.742 79.4512 79.0646L81.3867 84.6775L82.1609 86.8065C82.8383 88.742 84.8706 89.7097 86.8061 89.0323C88.7416 88.3549 89.7093 86.3226 89.0319 84.3871L88.2577 82.2581L86.3222 76.6452L84.3867 71.0323H89.2254C91.2577 71.0323 92.9028 69.3871 92.9028 67.3549C92.9028 65.3226 91.2577 63.6775 89.2254 63.6775H81.8706H74.2254H46.1609H38.5158H30.9674ZM85.4512 85.4517L88.8383 84.2904C88.8383 84.2904 88.8383 84.2904 85.4512 85.4517ZM85.4512 85.4517C82.0641 86.6129 82.0641 86.6129 82.0641 86.6129L85.4512 85.4517ZM34.6448 85.4517L38.0319 86.6129C38.0319 86.6129 38.0319 86.6129 34.6448 85.4517ZM34.6448 85.4517C31.2577 84.2904 31.2577 84.2904 31.2577 84.2904L34.6448 85.4517Z" fill="white"/>
</svg>
