<svg width="120" height="120" viewBox="0 0 120 120" fill="none" xmlns="http://www.w3.org/2000/svg">
<path fill-rule="evenodd" clip-rule="evenodd" d="M60 120C27 120 0 93.0006 0 59.7012C0.3 26.7019 27 -0.297518 60.3 0.00247602C93.3 0.30247 120 27.0019 120 60.6012C119.7 93.3006 93 120 60 120Z" fill="#EDF0F4"/>
<path fill-rule="evenodd" clip-rule="evenodd" d="M43.112 35.8932C47.7075 31.4072 53.8348 29 60.2904 29C66.7459 29 72.8732 31.4072 77.4687 36.0026C82.0642 40.3793 84.5807 46.2877 84.5807 52.6339V90.9295H36V52.6339C36 46.2877 38.5166 40.3793 43.112 35.8932ZM76.5934 36.7685C72.3261 32.5013 66.4177 30.2036 60.2904 30.2036C54.0537 30.2036 48.2546 32.5013 43.9874 36.7685C39.6107 41.0358 37.2036 46.616 37.2036 52.6339V89.7259H83.3772V52.6339C83.3772 46.616 80.97 41.0358 76.5934 36.7685Z" fill="#070001"/>
<path fill-rule="evenodd" clip-rule="evenodd" d="M73.49 37.879L74.5842 38.9732C78.3043 42.8027 80.4927 47.8359 80.4927 53.3067V86.6786H40.2275V53.1973C40.2275 47.8359 42.3064 42.8027 46.136 38.9732C49.8562 35.1436 54.9987 33.0647 60.3601 33.0647C65.2838 33.0647 69.8793 34.7059 73.49 37.879ZM62.3296 85.5844C64.4085 85.5844 66.4874 85.2562 68.3475 84.5997C68.7851 84.4903 69.1134 84.3808 69.4416 84.2714V58.8869C69.4416 51.7748 65.1744 47.3982 61.6731 44.991C57.7341 42.2556 53.1386 41.0521 49.7467 40.7238C49.1997 40.6144 48.6526 40.6144 48.2149 40.6144C44.9324 44.2251 43.0724 48.8206 43.0724 53.7443V66.3272C43.0724 70.485 44.3854 74.5334 46.9019 77.8159C47.1208 78.1441 47.449 78.5818 47.7772 78.91V85.5844H62.3296Z" fill="#070001"/>
<path fill-rule="evenodd" clip-rule="evenodd" d="M61.7824 44.9911C57.8434 42.3652 53.2479 41.0522 49.856 40.7239C49.5672 40.7239 49.2785 40.6934 49.0058 40.6646C48.7619 40.6389 48.5308 40.6145 48.3242 40.6145C45.0417 44.2252 43.1816 48.8207 43.1816 53.7444V66.3273C43.1816 70.4851 44.4946 74.5335 47.0112 77.816C47.1753 77.9801 47.3121 78.1716 47.4489 78.363C47.5856 78.5545 47.7224 78.746 47.8865 78.9101V85.5845H62.4389C64.5178 85.5845 66.4873 85.2563 68.4568 84.5998C68.8944 84.4903 69.2227 84.3809 69.6603 84.1621V58.7776C69.5509 51.6655 65.2837 47.3983 61.7824 44.9911ZM48.9807 84.3809V80.1137C50.9502 81.9738 53.2479 83.5056 55.7645 84.3809H48.9807ZM62.3295 84.3809C64.4084 84.3809 66.4873 84.0527 68.3473 83.3962H68.2379V58.7776C68.2379 47.3983 56.3116 42.1463 48.6524 41.8181C45.8076 45.1006 44.1664 49.3678 44.1664 53.7444V66.2179C44.1664 70.0474 45.37 73.7676 47.6677 76.8312C47.9959 77.3783 48.4336 77.9254 48.8713 78.363L49.5278 79.0195C53.0291 82.5209 57.5151 84.3809 62.3295 84.3809Z" fill="#070001"/>
<path d="M55.6917 69.7464C55.3634 69.7464 55.0352 69.4182 55.0352 69.0899V57.9295C55.0352 54.9753 57.4423 52.5681 60.3965 52.5681C63.3508 52.5681 65.7579 54.9753 65.7579 57.9295C65.7579 58.2578 65.4297 58.586 65.1014 58.586C64.7732 58.586 64.4449 58.2578 64.4449 57.9295C64.4449 55.7412 62.5849 53.8811 60.3965 53.8811C58.2082 53.8811 56.3481 55.7412 56.3481 57.9295V69.0899C56.3481 69.4182 56.0199 69.7464 55.6917 69.7464Z" fill="#070001"/>
<path d="M62.366 61.1026C62.0377 61.1026 61.7095 60.7743 61.7095 60.4461C61.7095 59.6802 61.1624 59.1331 60.3965 59.1331C59.6306 59.1331 59.0835 59.6802 59.0835 60.4461C59.0835 60.7743 58.7553 61.1026 58.427 61.1026C58.0988 61.1026 57.7705 60.7743 57.7705 60.4461C57.7705 58.9143 58.9741 57.7107 60.5059 57.7107C62.0377 57.7107 63.2413 58.9143 63.2413 60.4461C63.0225 60.7743 62.6942 61.1026 62.366 61.1026Z" fill="#070001"/>
<path d="M55.6918 69.7465C53.7223 69.7465 52.0811 68.1052 52.0811 66.1357C52.0811 65.8075 52.4093 65.4792 52.7376 65.4792C53.0658 65.4792 53.394 65.8075 53.394 66.1357C53.394 67.3393 54.3788 68.3241 55.5824 68.3241C56.7859 68.3241 57.7707 67.3393 57.7707 66.1357C57.7707 65.8075 58.0989 65.4792 58.4272 65.4792C58.7554 65.4792 59.0837 65.8075 59.0837 66.1357C59.1931 68.1052 57.6613 69.7465 55.6918 69.7465Z" fill="#070001"/>
<path d="M51.8622 62.1967C51.6433 62.1967 51.5339 62.0873 51.4245 61.9779L48.4703 59.0237V61.5402C48.4703 61.8685 48.142 62.1967 47.8138 62.1967C47.4855 62.1967 47.0479 61.8685 47.0479 61.4308V57.3824C47.0479 57.0542 47.2667 56.8353 47.4855 56.7259C47.8138 56.6165 48.0326 56.6165 48.2514 56.8353L51.2057 59.7896V58.0389C51.2057 57.7107 51.5339 57.3824 51.8622 57.3824C52.1904 57.3824 52.5187 57.7107 52.5187 58.0389V61.4308C52.5187 61.7591 52.2998 61.9779 52.081 62.0873C52.081 62.1967 51.9716 62.1967 51.8622 62.1967Z" fill="#070001"/>
<path d="M55.5822 58.6954C55.254 58.6954 54.9257 58.3672 54.9257 58.0389C54.9257 57.9295 54.9257 55.1941 53.0657 55.1941C52.7374 55.1941 52.4092 54.8658 52.4092 54.5376C52.4092 54.2094 52.7374 53.8811 53.0657 53.8811C55.5822 53.8811 56.2387 56.6165 56.2387 58.0389C56.2387 58.3672 55.9105 58.6954 55.5822 58.6954Z" fill="#070001"/>
</svg>
