<svg width="120" height="120" viewBox="0 0 120 120" fill="none" xmlns="http://www.w3.org/2000/svg">
<g clip-path="url(#clip0_417_440)">
<path d="M92.7857 40.0715H82.1786C81 40.0715 79.8214 39.5358 78.9643 38.6786L74.6786 33.8572C73.3929 32.4644 71.3571 32.3572 69.8571 33.5358L69.5357 33.8572L65.8929 38.0358C64.7143 39.4286 62.8929 40.1786 61.0714 40.1786H3.10714C1.5 44.8929 0.428571 49.9286 0 54.9644H54.8571C55.8214 54.9644 56.7857 54.5358 57.4286 53.8929L62.5714 48.5358C63.2143 47.8929 64.0714 47.4644 65.0357 47.4644H65.25C66.2143 47.4644 67.1786 47.8929 67.8214 48.6429L72.1071 53.4644C72.9643 54.4286 74.1429 54.9644 75.3214 54.9644H120C119.571 49.9286 118.5 44.8929 116.893 40.1786H92.7857V40.0715ZM57.6429 69.6429L53.3571 64.8215C52.0714 63.4286 50.0357 63.3215 48.5357 64.5001L48.2143 64.8215L44.4643 69.0001C43.2857 70.3929 41.5714 71.1429 39.75 71.1429H0.857143C1.82143 76.2858 3.53571 81.3215 5.78571 86.1429H33.1071C34.0714 86.1429 34.9286 85.7144 35.6786 85.0715L40.8214 79.7144C41.4643 79.0715 42.3214 78.6429 43.2857 78.6429H43.5C44.4643 78.6429 45.4286 79.0715 46.0714 79.8215L50.3571 84.6429C51.2143 85.6072 52.3929 86.1429 53.5714 86.1429H114.214C116.464 81.4286 118.179 76.3929 119.143 71.1429H60.8571C59.5714 71.1429 58.3929 70.6072 57.6429 69.6429ZM78.6429 22.9286L83.7857 17.5715C84.4286 16.9286 85.2857 16.5001 86.25 16.5001H86.4643C87.4286 16.5001 88.3929 16.9286 89.0357 17.5715L93.3214 22.3929C94.1786 23.3572 95.3571 23.7858 96.5357 23.7858H108.107C87.9643 -2.78564 50.1429 -8.03564 23.4643 12.0001C19.0714 15.3215 15.1071 19.2858 11.6786 23.7858H76.0714C77.1429 24.0001 78 23.5715 78.6429 22.9286ZM37.1786 100.929C35.8929 100.929 34.7143 100.393 33.9643 99.5358L29.6786 94.7144C28.3929 93.3215 26.25 93.2143 24.8571 94.5001L24.6429 94.7144L20.8929 98.8929C19.7143 100.286 18 101.036 16.1786 101.036H15.9643C38.5714 125.25 76.8214 126.429 101.143 103.607C102.107 102.75 102.964 101.786 103.929 100.821H37.1786V100.929Z" fill="black"/>
</g>
<defs>
<clipPath id="clip0_417_440">
<rect width="120" height="120" fill="white"/>
</clipPath>
</defs>
</svg>
