<svg width="120" height="120" viewBox="0 0 120 120" fill="none" xmlns="http://www.w3.org/2000/svg">
<circle cx="60" cy="60" r="60" fill="#EDF0F4"/>
<path d="M91.0512 52.8786C91.3145 47.362 87.4612 43.7002 83.1054 41.1873L80.2812 57.8089C81.4611 57.6449 82.6539 58.0032 83.5481 58.7901C84.5974 59.8197 84.6908 61.4787 83.7635 62.6195C86.4919 62.1647 90.7401 59.544 91.0512 52.8786Z" fill="url(#paint0_linear_204_30585)"/>
<path fill-rule="evenodd" clip-rule="evenodd" d="M53.9562 33.5526L50.6056 30.1661C55.6794 29.5438 69.07 30.3336 82.0299 38.459C82.1485 39.1841 82.1485 39.9237 82.0299 40.6488L83.1188 41.1993C84.8775 44.1164 85.3865 47.6192 84.5309 50.9162C83.406 55.4156 81.4794 57.4021 80.6178 57.809C78.8827 57.809 75.9269 58.8142 74.9696 63.2657C74.0123 67.7173 72.1694 68.6866 71.3796 68.6148L52.233 68.8422L39.5963 61.399L37.7773 45.9979L41.3673 41.2113L47.7814 35.9699L52.3527 34.1031L53.9562 33.5526ZM76.5851 39.859C76.0444 40.4321 75.4139 40.9131 74.7183 41.2831C69.8 40.23 68.017 37.6931 68.017 37.6931C72.1993 37.5682 76.3365 38.5859 79.9836 40.6369C78.873 40.2884 77.7367 40.0283 76.5851 39.859Z" fill="url(#paint1_linear_204_30585)"/>
<path fill-rule="evenodd" clip-rule="evenodd" d="M74.8014 63.2659C71.1588 65.0177 67.164 65.9141 63.122 65.8866C51.0477 65.8866 41.271 58.2997 41.271 48.9538C41.271 42.0371 46.6081 36.1016 54.2548 33.469C39.7033 34.3067 28 45.998 28 60.4298C28 77.0873 42.8506 90.8489 61.1356 90.8489C74.0744 90.7418 85.9459 83.6528 92.177 72.3126C83.9798 74.1555 74.2988 70.6493 74.8014 63.2659Z" fill="url(#paint2_linear_204_30585)"/>
<defs>
<linearGradient id="paint0_linear_204_30585" x1="79.8398" y1="47.7345" x2="86.0592" y2="66.5475" gradientUnits="userSpaceOnUse">
<stop stop-color="#01E8F7"/>
<stop offset="1" stop-color="#00C2FF"/>
</linearGradient>
<linearGradient id="paint1_linear_204_30585" x1="32.4991" y1="43.2537" x2="46.8568" y2="76.8504" gradientUnits="userSpaceOnUse">
<stop stop-color="#01E8F7"/>
<stop offset="1" stop-color="#00B3EC"/>
</linearGradient>
<linearGradient id="paint2_linear_204_30585" x1="87.7501" y1="64.2916" x2="89.1565" y2="13.7587" gradientUnits="userSpaceOnUse">
<stop stop-color="#01E8F7"/>
<stop offset="1" stop-color="#00C2FF"/>
</linearGradient>
</defs>
</svg>
