<svg width="121" height="136" viewBox="0 0 121 136" fill="none" xmlns="http://www.w3.org/2000/svg">
<path d="M4.55615 41.1462V94.2118C4.55615 97.5998 6.36724 100.732 9.30051 102.421L55.2664 128.96C58.1996 130.648 61.8107 130.648 64.744 128.96L110.71 102.421C113.643 100.732 115.454 97.5998 115.454 94.2118V41.1462C115.454 37.7581 113.643 34.6255 110.71 32.937L64.744 6.3987C61.8107 4.7102 58.1996 4.7102 55.2664 6.3987L9.28941 32.937C6.35612 34.6255 4.55615 37.7581 4.55615 41.1462Z" fill="#213147"/>
<path d="M70.0327 77.9705L63.4773 95.9441C63.2995 96.4443 63.2995 96.9887 63.4773 97.4878L74.7548 128.415L87.7991 120.883L72.1437 77.9705C71.7883 76.9818 70.3882 76.9818 70.0327 77.9705Z" fill="#12AAFF"/>
<path d="M83.1761 47.7446C82.8206 46.756 81.4205 46.756 81.0651 47.7446L74.5096 65.7183C74.3318 66.2182 74.3318 66.7625 74.5096 67.2624L92.987 117.895L106.031 110.364L83.1761 47.7446Z" fill="#12AAFF"/>
<path d="M59.999 8.38695C60.3211 8.38695 60.6434 8.47582 60.9322 8.63135L110.676 37.3469C111.253 37.6802 111.61 38.3023 111.61 38.9577V96.3775C111.61 97.0447 111.253 97.6553 110.676 97.9884L60.9322 126.704C60.6545 126.87 60.3211 126.948 59.999 126.948C59.6768 126.948 59.3545 126.86 59.0657 126.704L9.32206 98.0105C8.7443 97.6774 8.38875 97.0553 8.38875 96.3996V38.9688C8.38875 38.3023 8.7443 37.6913 9.32206 37.358L59.0657 8.64245C59.3545 8.47582 59.6768 8.38695 59.999 8.38695ZM59.999 0C58.2323 0 56.4546 0.455451 54.8657 1.37746L5.13324 30.0819C1.95552 31.9148 0 35.303 0 38.9688V96.3891C0 100.054 1.95552 103.443 5.13324 105.276L54.8769 133.992C56.4656 134.903 58.2323 135.369 60.0101 135.369C61.7767 135.369 63.5544 134.913 65.1433 133.992L114.887 105.276C118.065 103.443 120.02 100.054 120.02 96.3891V38.9688C120.02 35.303 118.065 31.9148 114.887 30.0819L65.1322 1.37746C63.5433 0.455451 61.7656 0 59.999 0Z" fill="#9DCCED"/>
<path d="M27.0988 117.962L31.6765 105.431L40.8875 113.085L32.2765 120.95L27.0988 117.962Z" fill="#213147"/>
<path d="M55.8096 34.8584H43.1987C42.2543 34.8584 41.4099 35.4472 41.0876 36.3358L14.0547 110.43L27.099 117.962L56.8651 36.3691C57.1429 35.636 56.5985 34.8584 55.8096 34.8584Z" fill="white"/>
<path d="M77.8769 34.8584H65.266C64.3215 34.8584 63.4771 35.4472 63.1549 36.3358L32.2888 120.938L45.333 128.471L78.9324 36.3691C79.1991 35.636 78.6547 34.8584 77.8769 34.8584Z" fill="white"/>
</svg>
