<svg width="120" height="121" viewBox="0 0 120 121" fill="none" xmlns="http://www.w3.org/2000/svg">
<path d="M119.847 55.9323C117.601 22.8683 88.9805 -2.10367 55.9265 0.14233C39.4605 1.26433 25.0005 8.93433 14.9085 20.4243L14.8785 20.4043C14.8065 20.4963 14.7445 20.5883 14.6825 20.6803C4.66055 32.2423 -0.979446 47.6043 0.140554 64.0743C0.244554 65.6463 0.428554 67.1863 0.654554 68.7143C0.654554 68.7883 0.674554 68.8483 0.684554 68.9203C0.838554 69.9263 1.01455 70.9343 1.20855 71.9203C1.39245 72.8317 1.59784 73.7386 1.82455 74.6403C8.75655 102.272 34.6425 121.842 64.0705 119.84C97.1245 117.592 122.107 88.9743 119.859 55.9123L119.847 55.9323ZM106.787 56.8243C107.065 60.8923 106.807 64.8763 106.079 68.7163C106.079 68.6963 106.059 68.6763 106.059 68.6543C101.703 58.0263 93.0985 50.3463 85.5405 46.1043C87.0705 28.0943 80.9605 20.4963 74.0405 19.2643C72.6997 19.0124 71.3215 19.0373 69.9906 19.3374C68.6597 19.6375 67.4042 20.2065 66.3011 21.0095C65.1981 21.8124 64.2709 22.8324 63.5764 24.0067C62.8819 25.181 62.4348 26.4849 62.2625 27.8383C62.094 29.1439 62.1846 30.4699 62.5292 31.7403C62.8738 33.0108 63.4657 34.2009 64.2708 35.2423C65.076 36.2838 66.0786 37.1562 67.2214 37.8096C68.3642 38.463 69.6246 38.8847 70.9305 39.0503C71.4125 39.1123 71.8845 39.1323 72.3465 39.1223C72.3802 39.7651 72.3975 40.4086 72.3985 41.0523C66.0005 39.4723 60.0245 39.1523 54.5725 39.6463C52.5223 39.7808 50.482 40.0379 48.4625 40.4163C49.1425 34.3363 51.4305 27.4983 55.8565 22.5083C60.1365 17.6723 66.5045 14.9103 73.4445 15.6183C74.7605 15.7523 76.1665 16.0803 77.4285 16.5023C77.4905 16.5223 77.5525 16.5423 77.6045 16.5523C93.6845 23.1043 105.525 38.3723 106.777 56.8243H106.787ZM64.9645 65.9843C64.9645 65.9843 64.9645 65.9943 64.9545 66.0043C63.4376 68.1843 61.7186 70.2166 59.8205 72.0743C56.9458 69.0377 54.512 65.6122 52.5905 61.8983C52.4985 61.7023 52.3965 61.5283 52.3025 61.3323V61.3123C51.1765 58.9054 50.276 56.3994 49.6125 53.8263C53.8725 52.8203 58.0525 52.4503 62.0485 52.6463L62.6845 52.6763H62.7045C65.2105 52.8823 67.8185 53.3443 70.5185 54.0843C69.2651 58.2986 67.397 62.3051 64.9745 65.9743L64.9645 65.9843ZM44.4685 15.7423L44.4385 15.7823C37.4045 24.8603 35.0625 36.1443 35.1665 44.8103C18.7985 52.4903 15.2865 61.5783 17.6685 68.1903C17.7285 68.3763 17.8025 68.5503 17.8745 68.7263C18.9008 71.1777 20.8583 73.1214 23.317 74.1302C25.7756 75.139 28.5342 75.1304 30.9865 74.1063C33.438 73.08 35.3817 71.1225 36.3905 68.6639C37.3993 66.2052 37.3907 63.4466 36.3665 60.9943C36.1801 60.5588 35.9643 60.1365 35.7205 59.7303C36.2345 59.3903 36.7885 59.0543 37.3845 58.7043C39.2105 65.0403 41.9125 70.3903 45.0645 74.8663C46.2045 76.5603 47.4365 78.1923 48.7805 79.7643C43.1745 82.2183 36.1105 83.6563 29.5685 82.3203C23.2445 81.0283 17.6685 76.9003 14.8045 70.5323C14.2559 69.2834 13.8429 67.9793 13.5725 66.6423C13.4037 65.494 13.2769 64.3399 13.1925 63.1823C11.7326 41.6903 25.0625 22.5603 44.4685 15.7423ZM63.1765 106.79C50.4145 107.662 38.4825 103.31 29.4665 95.5663C40.8445 97.1183 51.7905 93.5023 59.2465 89.0783C74.0825 99.4183 83.7145 97.9183 88.2525 92.5483C89.1416 91.5119 89.8095 90.3046 90.2151 89.0008C90.6208 87.6969 90.7556 86.3239 90.6114 84.966C90.4672 83.6081 90.047 82.294 89.3765 81.1044C88.706 79.9148 87.7995 78.8748 86.7125 78.0483C85.6656 77.2501 84.4716 76.6661 83.1988 76.3297C81.926 75.9932 80.5994 75.9108 79.2948 76.0873C77.9902 76.2637 76.7331 76.6955 75.5955 77.358C74.4578 78.0205 73.4619 78.9007 72.6645 79.9483C72.3785 80.3283 72.1205 80.7403 71.8945 81.1503C71.3505 80.8723 70.7745 80.5643 70.1905 80.2263C74.3709 75.9135 77.7966 70.9287 80.3245 65.4803C81.2296 63.6362 82.025 61.7402 82.7065 59.8023C87.6365 63.4383 92.4205 68.8283 94.5365 75.1623C96.5805 81.2823 95.7985 88.1823 91.7125 93.8423C90.9053 94.9404 89.9827 95.9488 88.9605 96.8503L88.9205 96.8903C81.5367 102.706 72.5669 106.154 63.1885 106.78L63.1765 106.79Z" fill="url(#paint0_linear_416_437)"/>
<path style="mix-blend-mode:overlay" opacity="0.9" d="M74.0402 19.2543C72.9147 19.0406 71.7604 19.027 70.6302 19.2143C76.3722 22.3343 80.5502 31.0323 78.3542 48.2003C77.6271 53.7837 75.9865 59.2095 73.4982 64.2603C71.3538 68.8695 68.563 73.1492 65.2102 76.9703C66.7997 78.1659 68.463 79.2601 70.1902 80.2463C74.3711 75.9343 77.7975 70.9502 80.3262 65.5023C82.8204 60.4538 84.4613 55.027 85.1822 49.4423C87.8022 29.0083 81.3742 20.5683 74.0422 19.2623L74.0402 19.2543Z" fill="url(#paint1_radial_416_437)"/>
<g style="mix-blend-mode:overlay" opacity="0.8">
<path d="M78.3523 48.1901C80.5503 31.0301 76.3703 22.3241 70.6303 19.2021C70.4043 19.2321 70.1903 19.2841 69.9623 19.3361C75.5803 22.5701 79.6243 31.2561 77.4583 48.1901C76.7311 53.7735 75.0906 59.1992 72.6023 64.2501C70.5355 68.6962 67.8642 72.8353 64.6643 76.5501C64.8483 76.6941 65.0243 76.8281 65.2083 76.9601C68.5583 73.1365 71.3482 68.8564 73.4943 64.2481C75.9892 59.1997 77.6307 53.7749 78.3523 48.1901Z" fill="white"/>
</g>
<path style="mix-blend-mode:overlay" opacity="0.5" d="M56.5322 87.116C55.9882 86.706 55.4742 86.274 54.9522 85.842C46.4802 89.376 34.7422 91.592 23.0782 88.882C24.9778 91.315 27.1135 93.5539 29.4542 95.566C40.8322 97.118 51.7782 93.502 59.2342 89.078C58.3179 88.4379 57.4137 87.7804 56.5222 87.106L56.5322 87.116Z" fill="url(#paint2_radial_416_437)"/>
<path style="mix-blend-mode:overlay" opacity="0.6" d="M54.9604 85.8423C54.7044 85.6263 54.4384 85.4123 54.1924 85.1963C45.6583 88.6043 33.8603 90.6483 22.2263 87.7423C22.5143 88.1223 22.8023 88.5123 23.0883 88.8823C34.7443 91.5923 46.4883 89.3763 54.9604 85.8423Z" fill="url(#paint3_linear_416_437)"/>
<path style="mix-blend-mode:overlay" opacity="0.9" d="M17.6783 68.2023C17.7383 68.3863 17.8123 68.5623 17.8843 68.7363C18.2643 69.6403 18.7563 70.4503 19.3523 71.1803C19.1883 64.6503 24.6303 56.6703 40.5863 49.9963C45.7848 47.8341 51.3041 46.5434 56.9223 46.1763C61.9877 45.7246 67.0916 46.0014 72.0784 46.9983C72.3364 44.8423 72.4384 42.8303 72.4184 41.0523C66.594 39.586 60.5644 39.1107 54.5823 39.6463C48.9636 40.0143 43.4438 41.3049 38.2443 43.4663C19.2403 51.4143 15.1423 61.2003 17.6803 68.2123V68.2023H17.6783Z" fill="url(#paint4_radial_416_437)"/>
<g style="mix-blend-mode:overlay" opacity="0.8">
<path d="M40.5862 50.0063C24.6302 56.6823 19.1862 64.6603 19.3522 71.1903C19.4962 71.3643 19.6502 71.5303 19.8042 71.6943C19.7922 65.2143 25.2962 57.3703 41.0382 50.7763C46.2367 48.6142 51.756 47.3235 57.3742 46.9563C62.2582 46.5243 67.1783 46.7666 71.9962 47.6763C72.0286 47.4509 72.0559 47.2249 72.0782 46.9983C67.0907 46.0072 61.9875 45.7311 56.9222 46.1783C51.3042 46.5466 45.785 47.8372 40.5862 49.9983V50.0063Z" fill="white"/>
</g>
<path style="mix-blend-mode:overlay" opacity="0.4" d="M85.2023 49.4322C85.1223 50.1102 85.0083 50.7662 84.8943 51.4342C92.1843 57.0002 99.9783 66.0662 103.47 77.5142C104.624 74.6497 105.495 71.6788 106.068 68.6442C101.724 58.0162 93.1203 50.3442 85.5623 46.1042C85.4703 47.1842 85.3563 48.2822 85.2123 49.4322H85.2023Z" fill="url(#paint5_radial_416_437)"/>
<path style="mix-blend-mode:overlay" opacity="0.5" d="M84.8943 51.4343C84.8323 51.7623 84.7803 52.1023 84.7183 52.4303C91.9382 58.1183 99.6082 67.3103 102.904 78.8404C103.098 78.4004 103.284 77.9564 103.458 77.5164C99.9682 66.0663 92.1842 57.0103 84.8823 51.4343H84.8943Z" fill="url(#paint6_linear_416_437)"/>
<path style="mix-blend-mode:overlay" opacity="0.9" d="M88.2523 92.5382C88.9943 91.6639 89.5845 90.6715 89.9983 89.6022C84.4223 93.0101 74.7983 92.2821 61.0303 81.7962C56.5546 78.3774 52.6756 74.2415 49.5503 69.5562C46.6262 65.3965 44.3127 60.8396 42.6803 56.0242C40.6883 56.8762 38.8923 57.8002 37.3523 58.7042C38.9983 64.4806 41.601 69.9403 45.0523 74.8562C48.1323 79.4562 51.9723 83.6162 56.5323 87.0962C72.9203 99.5821 83.4463 98.2361 88.2403 92.5361H88.2523V92.5382Z" fill="url(#paint7_radial_416_437)"/>
<g style="mix-blend-mode:overlay" opacity="0.8">
<path d="M61.0403 81.7983C74.7983 92.2803 84.4303 93.0103 90.0043 89.6003C90.0863 89.3863 90.1583 89.1703 90.2203 88.9643C84.6143 92.2203 75.0643 91.3663 61.4903 81.0283C57.0147 77.6095 53.1356 73.4736 50.0103 68.7883C47.1942 64.7763 44.945 60.395 43.3263 55.7683C43.1103 55.8603 42.9063 55.9423 42.7003 56.0343C44.3319 60.8503 46.6447 65.4079 49.5683 69.5683C52.6483 74.1683 56.4883 78.3283 61.0483 81.8083L61.0383 81.7983H61.0403Z" fill="white"/>
</g>
<path style="mix-blend-mode:overlay" opacity="0.3" d="M38.2342 43.4462C38.8602 43.1882 39.4862 42.9522 40.1222 42.7162C41.2942 33.6182 45.2462 22.3342 53.4222 13.5962C50.3622 14.0362 47.3522 14.7562 44.4362 15.7722C37.4002 24.8502 35.0602 36.1342 35.1642 44.8022C36.1382 44.3422 37.1562 43.8882 38.2242 43.4482L38.2342 43.4462Z" fill="url(#paint8_radial_416_437)"/>
<path style="mix-blend-mode:overlay" opacity="0.4" d="M40.1202 42.7162C40.4402 42.6042 40.7482 42.4802 41.0662 42.3682C42.3802 33.2682 46.5082 22.0362 54.8362 13.4102C54.3642 13.4622 53.8902 13.5242 53.4182 13.5862C45.2442 22.3342 41.2922 33.6082 40.1222 42.7062V42.7162H40.1202Z" fill="url(#paint9_linear_416_437)"/>
<path style="mix-blend-mode:multiply" opacity="0.4" d="M55.9263 0.144269C39.4563 1.26427 25.0003 8.93426 14.9063 20.4242L14.6803 20.6802C16.6403 22.6322 23.0683 26.4722 25.6663 28.0742C30.8433 22.4969 37.3007 18.2643 44.4803 15.7422C44.9843 15.0842 45.5163 14.4383 46.0723 13.8123C52.8483 6.16226 62.1003 2.12627 72.8403 2.12627C74.0323 2.12627 76.4663 2.32227 76.5163 2.32227C69.8334 0.399822 62.8656 -0.337977 55.9283 0.142269L55.9263 0.144269Z" fill="url(#paint10_linear_416_437)"/>
<path style="mix-blend-mode:multiply" opacity="0.4" d="M63.1761 106.8C50.4141 107.672 38.4822 103.32 29.4662 95.5782C28.6194 95.4675 27.7769 95.3268 26.9402 95.1562C16.9282 93.1122 8.79621 87.1162 3.43622 77.8242C2.84602 76.7973 2.308 75.7413 1.82422 74.6602C8.75621 102.292 34.6422 121.864 64.0601 119.86C64.1941 116.832 63.3001 109.8 63.1661 106.8H63.1761Z" fill="url(#paint11_linear_416_437)"/>
<path style="mix-blend-mode:multiply" opacity="0.4" d="M119.848 55.9321C118 55.7461 109.004 56.4561 106.788 56.8241C107.064 60.8921 106.808 64.8761 106.078 68.7161C106.386 69.4761 106.684 70.2561 106.95 71.0461C110.186 80.7401 109.056 90.7721 103.696 100.074C103.103 101.099 102.459 102.093 101.766 103.054C101.766 103.054 101.796 103.032 101.806 103.012C113.996 91.1521 121.09 74.2301 119.848 55.9421V55.9321Z" fill="url(#paint12_linear_416_437)"/>
<path style="mix-blend-mode:multiply" opacity="0.5" d="M73.4563 15.6081C74.7703 15.7421 76.1763 16.0701 77.4403 16.4921C77.5003 16.5121 77.5643 16.5321 77.6143 16.5421C82.7651 18.6444 87.5035 21.6413 91.6103 25.3941C91.6103 25.3941 91.6303 25.4041 91.6403 25.4141C93.6123 23.1661 97.4003 20.6921 97.4003 20.6921C97.4003 20.6921 91.6003 14.7561 82.7183 12.9081C76.5063 11.6141 62.4903 10.3721 53.6483 25.4141L53.7303 25.3341C54.3883 24.3461 55.0763 23.3821 55.8663 22.4981C60.1483 17.6621 66.5143 14.8981 73.4563 15.6081Z" fill="url(#paint13_linear_416_437)"/>
<path style="mix-blend-mode:multiply" opacity="0.5" d="M91.7123 93.8521C90.9051 94.9502 89.9825 95.9586 88.9603 96.8601C88.9203 96.9001 88.8683 96.9421 88.8263 96.9841C84.4301 100.391 79.4665 102.994 74.1643 104.674C74.1543 104.674 74.1443 104.674 74.1323 104.684C75.0983 107.518 75.3443 112.036 75.3443 112.036C75.3443 112.036 83.3843 109.984 89.4243 103.216C93.6443 98.4821 101.734 86.9621 93.1283 71.7861C93.1283 71.7861 93.1403 71.8361 93.1603 71.8981C93.6943 72.9581 94.1763 74.0441 94.5463 75.1641C96.5903 81.2841 95.8083 88.1841 91.7223 93.8421L91.7123 93.8521Z" fill="url(#paint14_linear_416_437)"/>
<path style="mix-blend-mode:multiply" opacity="0.5" d="M14.8263 70.5544C14.2768 69.3049 13.8631 68.0001 13.5923 66.6624C13.5823 66.6024 13.5623 66.5384 13.5523 66.4764C12.7923 60.9424 13.0383 55.3364 14.2203 49.9364V49.9044C11.2823 49.3284 7.24831 47.2764 7.24831 47.2764C7.24831 47.2764 5.00831 55.2764 7.85431 63.8804C9.84631 69.9063 15.7703 82.6703 33.2143 82.8043C33.2143 82.8043 33.1643 82.7923 33.1023 82.7723C31.9223 82.7003 30.7423 82.5783 29.5823 82.3423C23.2563 81.0483 17.6803 76.9203 14.8143 70.5544H14.8263Z" fill="url(#paint15_linear_416_437)"/>
<path style="mix-blend-mode:multiply" opacity="0.6" d="M70.9302 39.0421C71.4122 39.1021 71.8842 39.1221 72.3462 39.1121C72.3462 39.1121 72.0282 32.8801 71.2682 29.6761C70.4982 26.4821 69.3682 24.3561 68.1362 23.1561C67.2442 22.2941 64.4402 21.2241 62.2642 27.8161C62.0953 29.1217 62.1857 30.4477 62.5301 31.7183C62.8744 32.9889 63.466 34.1791 64.271 35.2208C65.0759 36.2624 66.0785 37.1351 67.2211 37.7887C68.3638 38.4424 69.6242 38.8642 70.9302 39.0301V39.0401V39.0421Z" fill="url(#paint16_linear_416_437)"/>
<path style="mix-blend-mode:multiply" opacity="0.5" d="M36.3802 61.0142C36.193 60.5793 35.9765 60.1577 35.7322 59.7522C35.7322 59.7522 30.4842 63.1402 28.1022 65.3982C25.7202 67.6582 24.4462 69.7022 24.0262 71.3742C23.7282 72.5762 24.2002 75.5342 30.9982 74.1262C33.4496 73.1 35.3933 71.1424 36.4021 68.6838C37.4109 66.2251 37.4023 63.4665 36.3782 61.0142H36.3802Z" fill="url(#paint17_linear_416_437)"/>
<path style="mix-blend-mode:multiply" opacity="0.6" d="M72.6761 79.9382C72.3881 80.3182 72.1321 80.7302 71.9061 81.1382C71.9061 81.1382 77.4621 83.9842 80.6141 84.9182C83.7661 85.8542 86.1681 85.9362 87.8221 85.4622C89.0141 85.1242 91.3341 83.2242 86.7221 78.0502C85.6752 77.2524 84.4814 76.6686 83.2088 76.3323C81.9362 75.996 80.6099 75.9137 79.3055 76.0902C78.0011 76.2666 76.7443 76.6983 75.6068 77.3607C74.4693 78.023 73.4734 78.9029 72.6761 79.9502V79.9382Z" fill="url(#paint18_linear_416_437)"/>
<path style="mix-blend-mode:multiply" opacity="0.3" d="M70.5203 54.0942C69.2603 58.2842 67.4923 62.0942 65.3263 65.4502C65.2123 65.6242 65.1003 65.8002 64.9763 65.9842C64.9763 65.9842 64.9763 65.9942 64.9663 66.0042C63.4493 68.1843 61.7304 70.2166 59.8323 72.0742C61.2083 73.5322 62.6863 74.9482 64.3203 76.2942C66.1759 77.7538 68.1387 79.0715 70.1923 80.2362C74.3732 75.9242 77.7996 70.9401 80.3283 65.4922C81.2328 63.6474 82.0275 61.7508 82.7083 59.8122C80.5943 58.2622 78.4583 57.0202 76.4883 56.1782C74.5463 55.346 72.5488 54.6497 70.5103 54.0942H70.5223H70.5203Z" fill="url(#paint19_linear_416_437)"/>
<path style="mix-blend-mode:multiply" opacity="0.3" d="M29.4682 95.5781C40.8442 97.1281 51.7902 93.5141 59.2462 89.0881C58.3298 88.4479 57.4257 87.7904 56.5342 87.1161C53.6985 84.9468 51.0977 82.4868 48.7742 79.7761C43.1662 82.2281 36.1022 83.6661 29.5602 82.3301C23.2362 81.0381 17.6603 76.9101 14.7943 70.5441C14.2455 69.2946 13.8324 67.9898 13.5623 66.6521C15.2163 78.2541 21.0682 88.3781 29.4582 95.5761L29.4682 95.5781Z" fill="url(#paint20_linear_416_437)"/>
<path style="mix-blend-mode:multiply" opacity="0.3" d="M59.8302 72.0722C56.9563 69.036 54.5232 65.6112 52.6022 61.8982C52.5102 61.7022 52.4062 61.5282 52.3142 61.3322V61.3122C51.1881 58.9053 50.2876 56.3993 49.6242 53.8262C47.6722 54.2882 45.7122 54.8642 43.7402 55.6042C41.551 56.4789 39.4298 57.5151 37.3942 58.7042C39.2222 65.0402 41.9222 70.3902 45.0742 74.8662C46.2142 76.5602 47.4482 78.1922 48.7942 79.7642C51.1942 78.7162 53.3422 77.4742 55.0542 76.1902C56.7407 74.9236 58.3397 73.5445 59.8402 72.0622L59.8302 72.0722Z" fill="url(#paint21_linear_416_437)"/>
<path style="mix-blend-mode:multiply" opacity="0.3" d="M44.4402 15.7822C37.4062 24.8602 35.0642 36.1442 35.1682 44.8102C36.1819 44.3342 37.2055 43.8794 38.2382 43.4462C41.5296 42.0713 44.9574 41.0489 48.4642 40.3962C49.1442 34.3162 51.4322 27.4782 55.8582 22.4882C60.1382 17.6522 66.5062 14.8882 73.4482 15.5982C74.7622 15.7322 76.1682 16.0602 77.4322 16.4822C77.4922 16.5022 77.5542 16.5222 77.6062 16.5322C71.0173 13.8436 63.8994 12.7023 56.8002 13.1962C52.4882 13.4942 48.3602 14.3662 44.4582 15.7422C44.4482 15.7522 44.4382 15.7722 44.4282 15.7822H44.4402Z" fill="url(#paint22_linear_416_437)"/>
<path style="mix-blend-mode:multiply" opacity="0.3" d="M106.068 68.6342C101.716 58.0062 93.1101 50.3242 85.5521 46.0842C85.4601 47.1642 85.3481 48.2722 85.1921 49.4322C84.7339 52.9694 83.9047 56.4486 82.7181 59.8122C87.6481 63.4482 92.4321 68.8382 94.5481 75.1742C96.5901 81.2942 95.8101 88.1942 91.7241 93.8522C90.9169 94.9503 89.9943 95.9587 88.9721 96.8602L88.9321 96.9002C97.7421 89.9802 103.972 80.0002 106.11 68.7062C106.11 68.6862 106.09 68.6642 106.09 68.6442L106.068 68.6342Z" fill="url(#paint23_linear_416_437)"/>
<path style="mix-blend-mode:multiply" opacity="0.3" d="M48.4322 47.6241C48.6835 49.7159 49.0777 51.7881 49.6122 53.8261C53.8742 52.8201 58.0522 52.4501 62.0482 52.6461L62.6842 52.6761H62.7042C65.2102 52.8821 67.8182 53.3441 70.5202 54.0841C71.0942 52.1641 71.5782 50.1701 71.9262 48.0961C72.3062 45.5101 72.4182 43.1161 72.4082 41.0321C66.0122 39.4521 60.0362 39.1321 54.5842 39.6261C52.534 39.7605 50.4937 40.0176 48.4742 40.3961C48.1862 43.0041 48.1742 45.4781 48.4422 47.6161L48.4322 47.6241Z" fill="url(#paint24_linear_416_437)"/>
<defs>
<linearGradient id="paint0_linear_416_437" x1="19.0545" y1="100.948" x2="95.5525" y2="24.4403" gradientUnits="userSpaceOnUse">
<stop stop-color="#E6007A"/>
<stop offset="0.21" stop-color="#703AC2"/>
<stop offset="0.46" stop-color="#0070EB"/>
<stop offset="0.77" stop-color="#0297FB"/>
<stop offset="1" stop-color="#0AE2FF"/>
</linearGradient>
<radialGradient id="paint1_radial_416_437" cx="0" cy="0" r="1" gradientUnits="userSpaceOnUse" gradientTransform="translate(77.1002 47.8503) scale(22.816 22.816)">
<stop stop-color="white"/>
<stop offset="1" stop-color="white" stop-opacity="0"/>
</radialGradient>
<radialGradient id="paint2_radial_416_437" cx="0" cy="0" r="1" gradientUnits="userSpaceOnUse" gradientTransform="translate(43.3802 90.176) scale(13.2768 13.2768)">
<stop stop-color="white"/>
<stop offset="1" stop-color="white" stop-opacity="0"/>
</radialGradient>
<linearGradient id="paint3_linear_416_437" x1="23.4583" y1="87.9283" x2="36.2543" y2="87.7523" gradientUnits="userSpaceOnUse">
<stop stop-color="white" stop-opacity="0"/>
<stop offset="1" stop-color="white"/>
</linearGradient>
<radialGradient id="paint4_radial_416_437" cx="0" cy="0" r="1" gradientUnits="userSpaceOnUse" gradientTransform="translate(40.9288 51.2564) rotate(-120) scale(22.816 22.816)">
<stop stop-color="white"/>
<stop offset="1" stop-color="white" stop-opacity="0"/>
</radialGradient>
<radialGradient id="paint5_radial_416_437" cx="0" cy="0" r="1" gradientUnits="userSpaceOnUse" gradientTransform="translate(94.4457 59.2983) rotate(-120) scale(13.2767 13.2768)">
<stop stop-color="white"/>
<stop offset="1" stop-color="white" stop-opacity="0"/>
</radialGradient>
<linearGradient id="paint6_linear_416_437" x1="102.454" y1="77.6664" x2="95.9042" y2="66.6744" gradientUnits="userSpaceOnUse">
<stop stop-color="white" stop-opacity="0"/>
<stop offset="1" stop-color="white"/>
</linearGradient>
<radialGradient id="paint7_radial_416_437" cx="0" cy="0" r="1" gradientUnits="userSpaceOnUse" gradientTransform="translate(60.8816 79.8243) rotate(120) scale(22.816 22.816)">
<stop stop-color="white"/>
<stop offset="1" stop-color="white" stop-opacity="0"/>
</radialGradient>
<radialGradient id="paint8_radial_416_437" cx="0" cy="0" r="1" gradientUnits="userSpaceOnUse" gradientTransform="translate(42.165 30.5223) rotate(120) scale(13.2768 13.2768)">
<stop stop-color="white"/>
<stop offset="1" stop-color="white" stop-opacity="0"/>
</radialGradient>
<linearGradient id="paint9_linear_416_437" x1="54.0642" y1="14.3882" x2="47.8262" y2="25.5622" gradientUnits="userSpaceOnUse">
<stop stop-color="white" stop-opacity="0"/>
<stop offset="1" stop-color="white"/>
</linearGradient>
<linearGradient id="paint10_linear_416_437" x1="56.8523" y1="8.70826" x2="37.3003" y2="14.3963" gradientUnits="userSpaceOnUse">
<stop stop-color="#231F20"/>
<stop offset="1" stop-color="white"/>
</linearGradient>
<linearGradient id="paint11_linear_416_437" x1="19.9162" y1="83.2562" x2="36.2642" y2="100.32" gradientUnits="userSpaceOnUse">
<stop stop-color="#231F20"/>
<stop offset="1" stop-color="white"/>
</linearGradient>
<linearGradient id="paint12_linear_416_437" x1="107.65" y1="80.6881" x2="113.338" y2="63.3961" gradientUnits="userSpaceOnUse">
<stop stop-color="#231F20"/>
<stop offset="1" stop-color="white"/>
</linearGradient>
<linearGradient id="paint13_linear_416_437" x1="65.7543" y1="18.6061" x2="91.9603" y2="24.6041" gradientUnits="userSpaceOnUse">
<stop stop-color="#231F20"/>
<stop offset="1" stop-color="white"/>
</linearGradient>
<linearGradient id="paint14_linear_416_437" x1="92.9723" y1="85.6821" x2="74.6623" y2="105.382" gradientUnits="userSpaceOnUse">
<stop stop-color="#231F20"/>
<stop offset="1" stop-color="white"/>
</linearGradient>
<linearGradient id="paint15_linear_416_437" x1="21.2663" y1="75.7243" x2="13.3663" y2="50.0264" gradientUnits="userSpaceOnUse">
<stop stop-color="#231F20"/>
<stop offset="1" stop-color="white"/>
</linearGradient>
<linearGradient id="paint16_linear_416_437" x1="71.4842" y1="28.2681" x2="63.1982" y2="36.5661" gradientUnits="userSpaceOnUse">
<stop stop-color="#231F20"/>
<stop offset="1" stop-color="white"/>
</linearGradient>
<linearGradient id="paint17_linear_416_437" x1="26.7782" y1="65.9042" x2="38.1022" y2="68.9462" gradientUnits="userSpaceOnUse">
<stop stop-color="#231F20"/>
<stop offset="1" stop-color="white"/>
</linearGradient>
<linearGradient id="paint18_linear_416_437" x1="81.7221" y1="85.8082" x2="78.6881" y2="74.4882" gradientUnits="userSpaceOnUse">
<stop stop-color="#231F20"/>
<stop offset="1" stop-color="white"/>
</linearGradient>
<linearGradient id="paint19_linear_416_437" x1="64.4843" y1="75.7382" x2="69.4643" y2="68.8702" gradientUnits="userSpaceOnUse">
<stop stop-color="#231F20"/>
<stop offset="1" stop-color="white"/>
</linearGradient>
<linearGradient id="paint20_linear_416_437" x1="47.3562" y1="72.7621" x2="37.4062" y2="77.5061" gradientUnits="userSpaceOnUse">
<stop stop-color="#231F20"/>
<stop offset="1" stop-color="white"/>
</linearGradient>
<linearGradient id="paint21_linear_416_437" x1="43.7402" y1="56.1982" x2="46.8202" y2="62.5962" gradientUnits="userSpaceOnUse">
<stop stop-color="#231F20"/>
<stop offset="1" stop-color="white"/>
</linearGradient>
<linearGradient id="paint22_linear_416_437" x1="58.0662" y1="36.4422" x2="55.9402" y2="29.1002" gradientUnits="userSpaceOnUse">
<stop stop-color="#231F20"/>
<stop offset="1" stop-color="white"/>
</linearGradient>
<linearGradient id="paint23_linear_416_437" x1="81.0461" y1="70.0702" x2="87.2061" y2="71.4882" gradientUnits="userSpaceOnUse">
<stop stop-color="#231F20"/>
<stop offset="1" stop-color="white"/>
</linearGradient>
<linearGradient id="paint24_linear_416_437" x1="71.3822" y1="49.2581" x2="63.5682" y2="47.8401" gradientUnits="userSpaceOnUse">
<stop stop-color="#231F20"/>
<stop offset="1" stop-color="white"/>
</linearGradient>
</defs>
</svg>
