<svg width="120" height="120" viewBox="0 0 120 120" fill="none" xmlns="http://www.w3.org/2000/svg">
<rect width="120" height="120" rx="60" fill="#70D44B"/>
<path d="M60 27.1181C61.5689 27.1136 63.1078 27.4966 64.4425 28.2235C65.7773 28.9504 66.8545 29.9923 67.5522 31.2311L91.3012 73.1061C91.9454 74.2411 92.2498 75.5026 92.1854 76.7705C92.121 78.0384 91.69 79.2708 90.9332 80.3506C90.1765 81.4303 89.1192 82.3215 87.8618 82.9396C86.6044 83.5577 85.1886 83.8821 83.749 83.8819H36.251C34.8114 83.8821 33.3956 83.5577 32.1382 82.9396C30.8808 82.3215 29.8235 81.4303 29.0668 80.3506C28.3101 79.2708 27.879 78.0384 27.8146 76.7705C27.7502 75.5026 28.0546 74.2411 28.6988 73.1061L52.4478 31.2311C53.1455 29.9923 54.2227 28.9504 55.5575 28.2235C56.8922 27.4966 58.4311 27.1136 60 27.1181ZM60 22C57.354 21.9997 54.7601 22.649 52.509 23.8751C50.258 25.1012 48.4386 26.8557 47.2547 28.9419L23.5057 70.8169C22.4188 72.7323 21.9055 74.8609 22.0143 77.0005C22.1232 79.14 22.8507 81.2195 24.1278 83.0414C25.4048 84.8634 27.189 86.3672 29.3108 87.4101C31.4327 88.4529 33.8217 89.0002 36.251 89H83.749C86.1783 89.0002 88.5673 88.4529 90.6892 87.4101C92.811 86.3672 94.5952 84.8634 95.8723 83.0414C97.1493 81.2195 97.8768 79.14 97.9857 77.0005C98.0946 74.8609 97.5812 72.7323 96.4943 70.8169L72.7453 28.9419C71.5614 26.8557 69.7421 25.1012 67.491 23.8751C65.2399 22.649 62.646 21.9997 60 22Z" fill="white"/>
</svg>
