<svg width="120" height="120" viewBox="0 0 120 120" fill="none" xmlns="http://www.w3.org/2000/svg">
<circle cx="60" cy="60" r="60" fill="#E84142"/>
<path fill-rule="evenodd" clip-rule="evenodd" d="M63.591 17.8111C61.5123 14.2205 58.2052 14.2205 56.1264 17.8111L18.3784 84.2835C16.2997 87.9213 18.0005 90.8032 22.1579 90.8032H41.1028C44.9296 90.567 48.3784 88.5355 50.4571 85.3229L73.276 45.7796C74.9296 42.378 74.9296 38.3623 73.276 34.9607L66.4729 23.0079L63.591 17.8111ZM88.6776 61.5591C86.5989 57.9686 83.2445 57.9686 81.1658 61.5591L67.9847 84.2835C65.9532 87.8741 67.654 90.8032 71.7642 90.8032H97.843C102 90.8032 103.701 87.8741 101.622 84.2835L88.6776 61.5591Z" fill="white"/>
</svg>
