<svg width="120" height="120" viewBox="0 0 120 120" fill="none" xmlns="http://www.w3.org/2000/svg">
<path fill-rule="evenodd" clip-rule="evenodd" d="M60 0C93.132 0 120 26.868 120 60C120 93.132 93.132 120 60 120C26.868 120 0 93.132 0 60C0 26.868 26.868 0 60 0Z" fill="#0055D5"/>
<path fill-rule="evenodd" clip-rule="evenodd" d="M32.6399 39.6961C32.6399 39.6961 26.1839 34.5361 25.7399 47.2801C25.2959 57.1561 25.3079 76.3321 29.8799 85.3921C31.8119 88.8001 34.3919 87.7561 39.1919 84.3601C43.3679 81.2761 58.4759 67.3561 64.8719 61.2481C71.2679 55.1401 84.2399 37.6201 86.9399 49.5241C88.0079 54.5281 89.3279 58.7761 88.3199 69.8761C88.0079 73.2961 86.5439 75.8881 79.8719 71.2561C74.8319 68.0161 70.0439 64.5361 70.0439 64.5361C70.0439 64.5361 69.1199 62.8801 66.9359 65.5681C65.2199 67.7161 64.3559 68.2441 67.1039 69.8761C69.8639 71.5081 83.8199 81.1321 89.1719 82.6321C93.5879 83.9161 96.1079 83.8921 96.2399 75.2161C96.2159 68.3281 95.8199 48.6121 93.3119 40.2121C91.4159 34.9801 88.6319 32.6041 82.6199 38.4841C76.6079 44.3641 57.6479 62.7481 47.2799 71.0761C40.4039 76.2361 37.4639 80.8921 34.8719 72.2881C33.0479 65.7721 30.6839 45.4921 38.1479 49.3561C42.8159 51.5881 45.1439 51.5761 43.3199 52.9801C41.4959 54.3721 36.2519 59.1841 36.2519 59.1841C36.2519 59.1841 34.6319 60.4921 35.3879 63.3241C36.1439 65.3041 36.1439 66.2881 40.2119 62.4601C44.2799 58.6321 47.2799 55.7401 47.2799 55.7401C47.2799 55.7401 47.9279 54.7201 49.8599 56.6041C51.7919 58.4881 52.1039 59.0161 52.1039 59.0161C52.1039 59.0161 52.6199 60.4201 54.6839 57.9841C56.7599 55.5481 58.0919 54.0601 54.1679 51.7801C50.2559 49.4761 32.6399 39.6961 32.6399 39.6961Z" fill="white"/>
</svg>
