<svg width="120" height="120" viewBox="0 0 120 120" fill="none" xmlns="http://www.w3.org/2000/svg">
<rect width="120" height="120" rx="60" fill="#EDF0F4"/>
<path d="M83.624 64.2507C83.314 64.2379 83.0295 64.2294 82.6644 64.6286C81.951 65.4098 81.1867 66.1487 80.346 66.828L79.9214 67.1677L79.7855 67.2739C79.5392 67.4819 79.4416 67.7197 79.484 68.0297C79.4968 68.1104 79.5138 68.1825 79.5307 68.259C79.552 68.3354 79.569 68.4118 79.5902 68.4883C79.6624 68.7558 79.7388 69.019 79.794 69.278L79.8067 69.3247C79.8874 69.6984 79.9596 70.0763 80.019 70.4542L80.0445 70.6028C80.0912 70.934 80.1337 71.2864 80.1634 71.6516L80.1719 71.7408C80.1762 71.7875 80.1804 71.8342 80.1846 71.8809C80.2186 72.331 80.2313 72.7471 80.2313 73.1462C80.2313 82.8782 72.3124 90.8014 62.5761 90.8014H40.9466H40.9169C40.3139 90.7929 39.8299 90.3089 39.8214 89.7102V89.6762V71.0444V71.0189C39.8299 70.416 40.3182 69.9277 40.9211 69.9234H40.9423H62.5761C63.1239 69.9234 63.7013 69.898 64.3468 69.8513L64.5548 69.8385C65.0856 69.7961 65.6291 69.7281 66.215 69.6347L66.4656 69.5965C67.0133 69.5073 67.5568 69.3927 68.0876 69.2653L68.2829 69.2143C68.8561 69.07 69.4081 68.9129 69.9219 68.743L69.9686 68.726C71.098 68.3481 72.2105 67.8811 73.2763 67.3333C73.7985 67.0658 74.3208 66.7728 74.8346 66.4544L74.877 66.4289C75.3866 66.1147 75.8834 65.7793 76.3462 65.4438L77.6964 64.3823C79.3609 63.0405 80.7706 61.4865 81.9086 59.7413L81.951 59.6904C82.0784 59.4993 82.21 59.2828 82.3459 59.0662L82.4818 58.8454C84.8086 55.1174 86.04 50.8331 86.04 46.4638C86.04 33.526 75.514 23 62.5761 23H36.968H36.8321C35.2738 23.0382 34.0255 24.2951 34.0085 25.8576V25.9128V52.5527C34.0085 52.5612 34.0042 52.5697 34.0042 52.5782V52.6334C34.0042 52.6419 34.0085 52.6504 34.0085 52.6589C34.0382 54.2299 35.3078 55.4953 36.8873 55.4995H36.9043H62.5761C65.2979 55.4995 67.922 56.1194 70.3762 57.3381C70.3889 57.3423 70.3974 57.3508 70.4102 57.355C70.5418 57.4102 70.6819 57.44 70.8305 57.44C71.0895 57.44 71.3146 57.3381 71.5014 57.1894C71.5524 57.147 71.6033 57.1003 71.6543 57.0578C72.7965 56.0387 73.8325 54.8838 74.5628 53.8732C74.6817 53.7077 74.7242 53.5208 74.686 53.3298C74.6478 53.1429 74.5628 52.9986 74.427 52.9179L74.4312 52.9136C74.3633 52.8712 74.2911 52.8372 74.2189 52.799C73.9132 52.6249 73.6075 52.4551 73.2933 52.2937C73.1064 52.1961 72.9196 52.1069 72.7328 52.0177C72.5247 51.9201 72.3167 51.8224 72.1044 51.729C71.7604 51.5761 71.4165 51.4318 71.0683 51.2959C71.0216 51.2789 70.9749 51.2577 70.9239 51.2407C70.4781 51.0708 70.028 50.9137 69.5737 50.7736C69.5737 50.7736 69.5694 50.7736 69.5694 50.7694C67.3148 50.0645 64.9624 49.6866 62.5761 49.6866H40.9678H40.8829C40.2927 49.6654 39.8214 49.1856 39.8129 48.5911V48.5699V29.9381V29.8914C39.8256 29.2884 40.3139 28.8044 40.9211 28.8044H40.9254H62.5761C63.005 28.8044 63.4254 28.8341 63.833 28.8681L63.8924 28.8723C73.0512 29.5559 80.2271 37.2796 80.2271 46.4596C80.2271 48.8162 79.7643 51.1091 78.8514 53.2788C78.5924 53.8945 78.2951 54.4974 77.9724 55.0749L77.9427 55.1216C76.7963 56.9177 75.4588 58.5227 73.9429 59.9197C73.8835 59.9749 73.824 60.0258 73.7646 60.0768L73.6457 60.1787C73.0003 60.7009 72.3379 61.168 71.6712 61.5714C68.9198 63.2316 65.7734 64.1105 62.5677 64.1105H36.9086C36.9043 64.1105 36.8958 64.1063 36.8916 64.1063C36.8873 64.1063 36.8788 64.1105 36.8746 64.1105C35.2993 64.119 34.034 65.3844 34.0042 66.9512C34.0042 66.9597 34 66.9682 34 66.9767V67.0319C34 67.0403 34.0042 67.0488 34.0042 67.0573V93.6845C34.0042 93.693 34 93.7015 34 93.7142C34 93.7227 34.0042 93.7312 34.0042 93.7439C34.0212 95.332 35.3035 96.6143 36.8958 96.6143H62.5677C75.5055 96.6143 86.0315 86.0883 86.0315 73.1505C86.0315 70.365 85.539 67.6433 84.5666 65.0362C84.452 64.6923 84.1972 64.3356 83.624 64.2507Z" fill="url(#paint0_linear_417_464)"/>
<defs>
<linearGradient id="paint0_linear_417_464" x1="74.2275" y1="27.964" x2="34.6587" y2="95.7354" gradientUnits="userSpaceOnUse">
<stop stop-color="#00C7FF"/>
<stop offset="0.1262" stop-color="#0FA2F6"/>
<stop offset="0.4052" stop-color="#3545E1"/>
<stop offset="0.6026" stop-color="#5100D1"/>
<stop offset="0.6722" stop-color="#4803BE"/>
<stop offset="0.8131" stop-color="#310B8D"/>
<stop offset="1" stop-color="#0F1644"/>
</linearGradient>
</defs>
</svg>
