<svg width="120" height="120" viewBox="0 0 120 120" fill="none" xmlns="http://www.w3.org/2000/svg">
<circle cx="60" cy="60" r="60" fill="#EDF0F4"/>
<circle cx="60" cy="60" r="50" fill="#FB2EA3"/>
<path fill-rule="evenodd" clip-rule="evenodd" d="M80.8839 53.4586C80.1785 58.2675 77.5339 60.5952 74.0254 61.4097C78.8422 63.9379 81.2972 67.8195 78.9603 74.5425C76.0609 82.8947 69.1744 83.5964 60.0162 81.8514L57.7881 90.8333L52.4181 89.483L54.6121 80.6234C53.1807 80.2651 51.7531 79.8912 50.3298 79.5018L48.1296 88.4053L42.7627 87.0582L44.9877 78.0576C44.4538 77.9203 43.9164 77.7791 43.375 77.6368C42.6434 77.4446 41.9043 77.2504 41.156 77.0613L34.167 75.3069L36.8333 69.1039C36.8333 69.1039 40.7924 70.1691 40.7365 70.0876C42.2592 70.4667 42.9336 69.4673 43.2009 68.8032L46.7125 54.6052L47.2812 54.7462C47.0988 54.6743 46.912 54.6146 46.7218 54.5676L49.2265 44.4329C49.2918 43.28 48.9002 41.8326 46.7249 41.2812C46.8088 41.2249 42.8217 40.3038 42.8217 40.3038L44.2512 34.5206L51.6598 36.3846L51.6536 36.416C52.7661 36.6916 53.916 36.9579 55.0844 37.2274L57.2877 28.3333L62.6577 29.6804L60.501 38.4022L60.8333 38.4788L60.8334 38.4788C62.163 38.7855 63.4997 39.0938 64.802 39.4235L66.9462 30.7612L72.3162 32.1083L70.116 41.0056C76.9 43.3614 81.8597 46.8921 80.8839 53.4586ZM68.6088 70.8082C70.1736 64.504 60.8898 62.4017 56.3537 61.3746L56.3535 61.3745C55.8448 61.2593 55.3958 61.1576 55.0285 61.0651L52.0793 72.9855C52.3804 73.0609 52.7332 73.1548 53.1282 73.26L53.1288 73.2602L53.1291 73.2602L53.1291 73.2603L53.1291 73.2603C57.5139 74.4279 67.0897 76.978 68.6119 70.8082H68.6088ZM60.1693 45.0546C63.9562 45.901 71.6894 47.6295 70.2714 53.3614C68.8828 58.9752 60.899 56.822 57.2511 55.8382C56.9231 55.7497 56.6302 55.6707 56.3803 55.6077L59.0529 44.7963C59.3616 44.8741 59.74 44.9587 60.1691 45.0546L60.1693 45.0546ZM85.9027 77.2618C85.3768 77.1909 84.8445 77.334 84.4235 77.6597C84.0196 78.0088 83.7457 78.4861 83.6466 79.0131C83.5829 79.3061 83.5619 79.6068 83.5844 79.9059C83.6111 80.2467 83.7199 80.5758 83.9014 80.8646C84.0879 81.1779 84.3862 81.4724 84.7902 81.748C85.1942 82.0206 85.7536 82.2399 86.4683 82.4059C86.8537 82.4999 87.2514 82.5438 87.6585 82.5406C88.0688 82.5406 88.4479 82.4749 88.7959 82.3433C89.5447 82.0768 90.0995 81.4331 90.2565 80.6484C90.4046 80.0929 90.3263 79.5007 90.039 79.0037C89.7531 78.5212 89.2838 78.1515 88.6281 77.8947L89.1067 75.8082C90.2876 76.2875 91.1142 76.9736 91.5928 77.8602C92.0714 78.7499 92.1708 79.8057 91.8911 81.0275C91.7495 81.7051 91.469 82.3453 91.0676 82.9072C90.3378 83.91 89.2116 84.5434 87.9817 84.6428C87.3132 84.7037 86.6393 84.654 85.9866 84.4955C85.3153 84.3445 84.6708 84.0909 84.0755 83.7437C83.5266 83.4267 83.0476 83.0003 82.6677 82.4905C82.2982 81.984 82.0455 81.4007 81.9281 80.7831C81.8027 80.0745 81.8292 79.3471 82.0058 78.6497C82.1247 78.1201 82.3161 77.6098 82.5745 77.1334C82.8262 76.6697 83.1338 76.2781 83.5037 75.9586C83.8704 75.639 84.293 75.4072 84.7716 75.2631C85.2532 75.1158 85.7878 75.0876 86.3813 75.1722L85.9027 77.2618ZM93.4325 72.5814C93.8377 71.9982 94.122 71.3386 94.2685 70.6421C94.44 69.9518 94.4717 69.2336 94.3617 68.5306C94.2467 67.8821 94.0199 67.3026 93.678 66.7919C93.3362 66.2812 92.8887 65.8489 92.3293 65.4918C91.7352 65.1236 91.0839 64.8588 90.4026 64.7086C89.6878 64.5425 89.0042 64.4955 88.3516 64.5676C87.7261 64.6306 87.1206 64.8248 86.574 65.1378C86.0426 65.4448 85.5889 65.8677 85.2035 66.4003C84.7984 66.9835 84.5141 67.643 84.3676 68.3395C84.1965 69.0289 84.1648 69.7459 84.2743 70.4479C84.3765 71.071 84.6096 71.6649 84.958 72.1898C85.313 72.7121 85.7724 73.1539 86.3067 73.4868C86.8942 73.8548 87.5394 74.1196 88.2148 74.27C88.8928 74.4353 89.5936 74.4841 90.2876 74.4141C90.9131 74.3511 91.5186 74.1569 92.0652 73.8439C92.5935 73.5338 93.0503 73.114 93.4325 72.5814ZM86.1141 61.8765L86.5647 59.9185L88.3795 60.3414L88.3888 60.3038C88.1354 60.1723 87.9104 59.9912 87.7269 59.7712C87.3052 59.2769 87.0258 58.6756 86.9189 58.0325C86.8669 57.7077 86.8774 57.3758 86.95 57.0551C87.0063 56.7907 87.0853 56.5318 87.1862 56.2812L89.1844 56.7449C89.1262 56.8888 89.0713 57.034 89.0197 57.1804C88.9675 57.3249 88.9239 57.4724 88.8892 57.6221C88.7152 58.3185 88.8663 59.0569 89.2994 59.6271C89.5414 59.9424 89.841 60.2082 90.1819 60.4103C90.5518 60.639 90.9961 60.8145 91.5182 60.9366L95.987 61.9767L95.5084 64.0632L86.1141 61.8765ZM94.2871 55.1096C93.9235 55.1315 93.5599 55.1033 93.1994 55.0156L93.1963 55.0187L94.7905 48.0576C94.1069 47.8101 93.417 47.6973 92.7147 47.7223C92.0428 47.7376 91.3806 47.8867 90.7662 48.1609C90.1653 48.4383 89.6319 48.8446 89.203 49.3514C88.7453 49.8982 88.4284 50.5503 88.2801 51.2499C88.1216 51.9611 88.106 52.6252 88.2459 53.2455C88.3763 53.8557 88.6314 54.4319 88.9948 54.9373C89.3681 55.449 89.8342 55.8849 90.3684 56.2217C91.5368 56.9344 92.8979 57.2587 94.2591 57.149C95.5078 57.0665 96.6535 56.4223 97.3792 55.3947C97.7521 54.8777 98.0256 54.2449 98.1965 53.4993C98.3115 52.9855 98.355 52.478 98.3239 51.9767C98.2591 50.456 97.3522 49.101 95.9777 48.4711L95.5271 50.4479C95.9613 50.7027 96.3041 51.0899 96.506 51.5538C96.6846 52.0577 96.703 52.6052 96.5588 53.1202C96.4798 53.5126 96.3141 53.882 96.074 54.201C95.8613 54.4734 95.5904 54.694 95.2816 54.8464C94.9701 54.9983 94.6324 55.0877 94.2871 55.1096ZM92.6339 70.2631C92.8421 69.4473 92.6216 68.5808 92.0496 67.9667C91.7779 67.6679 91.456 67.4197 91.0987 67.2336C90.3572 66.8403 89.5278 66.6461 88.6903 66.6697C88.2884 66.6775 87.8914 66.7592 87.5187 66.9109C86.741 67.2133 86.1703 67.895 86.0053 68.7186C85.7949 69.5313 86.0106 70.396 86.5771 71.0118C86.835 71.3063 87.152 71.5475 87.528 71.7449C88.2701 72.1366 89.0991 72.3307 89.9364 72.3088C90.339 72.2988 90.7367 72.2171 91.1111 72.0676C91.8916 71.7684 92.4661 71.0877 92.6339 70.2631ZM91.9564 49.8182C92.2866 49.7726 92.6216 49.7758 92.9508 49.8276L91.8352 54.7023C91.1821 54.5288 90.6122 54.1254 90.2286 53.5651C90.0545 53.2988 89.9395 53.0012 89.8774 52.6722C89.7636 51.9838 89.9318 51.2784 90.3435 50.7173C90.7412 50.2134 91.3216 49.8898 91.9564 49.8182Z" fill="white"/>
</svg>
