<svg width="120" height="120" viewBox="0 0 120 120" fill="none" xmlns="http://www.w3.org/2000/svg">
<circle cx="60" cy="60" r="60" fill="#13C2C2"/>
<mask id="mask0_204_30455" style="mask-type:luminance" maskUnits="userSpaceOnUse" x="33" y="26" width="53" height="36">
<path fill-rule="evenodd" clip-rule="evenodd" d="M33 54.2079L68.6432 54.4956C68.6432 54.4956 76.51 55.4951 83.2298 61.3971C83.6122 61.7302 85.1075 61.3971 85.1075 61.3971L84.9258 26L33 26.0606V54.2079Z" fill="white"/>
</mask>
<g mask="url(#mask0_204_30455)">
<path d="M77.5362 33.9729C73.2961 30.4824 67.4622 28.7334 60.0345 28.7334C50.1044 28.7334 45.7015 28.7334 41.5296 28.7334V31.3191C41.5296 31.3191 51.5733 31.3191 59.6938 31.3191C66.0085 31.3191 71.725 32.6214 75.2155 35.6349C78.706 38.6522 81.3523 43.1421 81.3523 48.6845C81.3523 54.0338 79.0619 57.9975 75.4313 60.9959C71.8007 63.9942 65.327 65.3154 58.8458 65.3154C51.1114 65.3154 37.9785 65.3154 37.9785 65.3154V67.9011C37.9785 67.9011 55.7452 67.8973 58.9896 67.8973C66.8073 67.8973 72.9137 66.1975 77.309 62.8055C81.7043 59.4096 83.9001 54.6357 83.9001 48.4763C83.9001 42.3017 81.7801 37.4672 77.5362 33.9729Z" fill="white"/>
</g>
<mask id="mask1_204_30455" style="mask-type:luminance" maskUnits="userSpaceOnUse" x="33" y="26" width="53" height="36">
<path fill-rule="evenodd" clip-rule="evenodd" d="M33 54.2079L68.6432 54.4956C68.6432 54.4956 76.51 55.4951 83.2298 61.3971C83.6122 61.7302 85.1075 61.3971 85.1075 61.3971L84.9258 26L33 26.0606V54.2079Z" fill="white"/>
</mask>
<g mask="url(#mask1_204_30455)">
<path d="M75.9689 37.7209C73.3302 35.7182 70.2978 34.1055 61.7192 34.1055C52.4667 34.1093 51.3348 34.1055 47.4468 34.1055V36.6268C47.4468 36.6268 53.8334 36.5435 61.4012 36.6268C68.7153 36.7025 71.3994 37.5278 73.8602 39.3488C77.01 41.677 78.9634 44.5505 78.9634 48.571C78.9634 52.4476 76.9797 55.1923 73.8148 57.5205C70.5779 59.9056 65.6299 59.9321 63.6159 59.9775C62.8549 59.9965 53.0195 59.9775 53.0195 59.9775V62.4989C53.0195 62.4989 57.9145 62.567 60.9393 62.4951C67.8824 62.3399 72.0014 61.9272 75.8364 59.0765C79.4367 56.4075 81.3409 52.883 81.3409 48.4195C81.3409 42.5326 78.3956 39.5646 75.9689 37.7209Z" fill="white"/>
</g>
<mask id="mask2_204_30455" style="mask-type:luminance" maskUnits="userSpaceOnUse" x="33" y="26" width="53" height="36">
<path fill-rule="evenodd" clip-rule="evenodd" d="M33 54.2079L68.6432 54.4956C68.6432 54.4956 76.51 55.4951 83.2298 61.3971C83.6122 61.7302 85.1075 61.3971 85.1075 61.3971L84.9258 26L33 26.0606V54.2079Z" fill="white"/>
</mask>
<g mask="url(#mask2_204_30455)">
<path d="M74.6928 41.0486C72.7128 39.8069 70.9751 38.9702 62.7789 38.9702C54.4502 38.9702 56.0213 38.9702 52.5194 38.9702V40.6284C52.5194 40.6284 55.6844 40.6284 62.495 40.6284C69.7561 40.6284 72.5084 41.9193 73.3413 42.4304C74.9729 43.4299 77.1233 45.0578 77.1233 48.3741C77.1233 50.4941 75.8702 53.1556 74.0189 54.2004C72.3304 55.1507 69.245 56.0025 63.8086 56.0025C63.1234 56.0025 30.2969 56.0025 30.2969 56.0025V57.6606C30.2969 57.6606 61.2078 57.6606 63.9336 57.6606C70.4868 57.6606 72.7355 56.9338 75.0449 55.658C77.3618 54.3821 78.9064 51.7586 78.9064 48.3892C78.9064 44.6262 76.8052 42.3698 74.6928 41.0486Z" fill="white"/>
</g>
<path d="M81.2159 59.3415C76.9758 55.8472 71.1381 54.1019 63.7142 54.1019C53.7803 54.1019 55.5104 54.0981 51.3347 54.0981V56.6838C51.3347 56.6838 55.2492 56.6838 63.3697 56.6838C69.6844 56.6838 75.4047 57.9861 78.8952 60.9996C82.3857 64.0169 85.0282 68.5068 85.0282 74.053C85.0282 79.3985 82.7415 83.3623 79.111 86.3606C75.4804 89.3589 69.0029 90.6802 62.5217 90.6802C54.7911 90.6802 41.6582 90.6802 41.6582 90.6802V93.2659C41.6582 93.2659 59.4211 93.2621 62.6693 93.2621C70.487 93.2621 76.5896 91.5661 80.9849 88.1702C85.3802 84.7781 87.5798 80.0005 87.5798 73.8448C87.5798 67.6664 85.4597 62.832 81.2159 59.3415Z" fill="white"/>
<path d="M79.6484 63.0856C77.0097 61.0867 73.9773 59.4702 65.3987 59.4702C56.1425 59.474 49.8846 59.4702 45.9966 59.4702V61.9915C45.9966 61.9915 57.5092 61.9083 65.0807 61.9915C72.3949 62.0673 75.0752 62.8926 77.536 64.7135C80.6895 67.0456 82.643 69.9152 82.643 73.9357C82.643 77.8123 80.6592 80.557 77.4943 82.8891C74.2575 85.2703 69.3094 85.3006 67.2916 85.3461C66.5307 85.3612 56.6952 85.3461 56.6952 85.3461V87.8636C56.6952 87.8636 61.5902 87.9317 64.6189 87.8636C71.5582 87.7046 75.6809 87.292 79.5159 84.445C83.1124 81.7723 85.0167 78.2477 85.0167 73.7843C85.0167 67.9012 82.0751 64.9293 79.6484 63.0856Z" fill="white"/>
<path d="M50.1494 71.6415H68.3325V70.2332H50.1494V71.6415Z" fill="white"/>
<path d="M57.6494 76.5667H68.2269V75.3552H57.6494V76.5667Z" fill="white"/>
<path fill-rule="evenodd" clip-rule="evenodd" d="M48.7073 40.5184H42.3321V39.3562H48.7073V40.5184ZM47.0454 71.6414H41.6582V70.2331H47.0454V71.6414Z" fill="white"/>
<path d="M38.3003 76.6651H54.6625V75.2568H38.3003V76.6651Z" fill="white"/>
<path d="M37.8911 49.945H52.4929V48.5935H37.8911V49.945Z" fill="white"/>
<path d="M38.3003 87.6894H53.6971V86.001H38.3003V87.6894Z" fill="white"/>
<path d="M34.4614 93.1636H38.3116V90.718H34.4614V93.1636Z" fill="white"/>
<path d="M44.085 45.8186H68.261V44.467H44.085V45.8186Z" fill="white"/>
<path d="M56.1729 49.945H67.8028V48.5935H56.1729V49.945Z" fill="white"/>
<path d="M78.3725 66.6669C76.3887 65.4668 74.651 64.6604 66.4586 64.6604C58.1299 64.6604 56.8843 64.6604 53.3863 64.6604V66.2618C53.3863 66.2618 59.3603 66.2618 66.1709 66.2618C73.432 66.2618 76.1881 67.5073 77.0209 68.0032C78.6488 68.9686 80.8029 70.5359 80.8029 73.7387C80.8029 75.7868 79.5498 78.3536 77.6948 79.3606C76.0063 80.2806 72.9209 81.1021 67.4845 81.1021C66.7993 81.1021 33.9766 81.1021 33.9766 81.1021V82.7035C33.9766 82.7035 64.8875 82.6997 67.6095 82.6997C74.1665 82.6997 76.4152 81.9993 78.7245 80.7689C81.0377 79.5348 82.5823 77.0021 82.5823 73.7501C82.5823 70.1195 80.4849 67.9427 78.3725 66.6669Z" fill="white"/>
</svg>
