<svg width="120" height="120" viewBox="0 0 120 120" fill="none" xmlns="http://www.w3.org/2000/svg">
<circle cx="60" cy="60" r="60" fill="black"/>
<path fill-rule="evenodd" clip-rule="evenodd" d="M101.446 42.5081C102.599 45.2298 103.48 48.0591 104.076 50.9544C105.914 59.8622 104.996 69.1182 101.446 77.4919C100.292 80.1679 98.9052 82.7534 97.292 85.1505C95.68 87.5384 93.8409 89.765 91.8005 91.799C89.7664 93.8394 87.5398 95.6785 85.1519 97.2905C82.7057 98.9036 80.1692 100.336 77.4931 101.444C66.3136 106.185 53.6881 106.185 42.5086 101.444C39.8326 100.291 37.247 98.9036 34.8498 97.2905C32.4619 95.6785 30.2353 93.8394 28.2012 91.799C26.1611 89.7647 24.322 87.5382 22.7097 85.1505C21.0965 82.7045 19.6643 80.1679 18.5562 77.4919C13.8146 66.3126 13.8146 53.6874 18.5562 42.5081C19.7013 39.8313 21.0917 37.2662 22.7097 34.8457C24.3221 32.4604 26.1612 30.2364 28.2012 28.2047C32.2986 24.0901 37.1582 20.8128 42.5086 18.5561C53.6881 13.8146 66.3136 13.8146 77.4931 18.5561C80.1687 19.7014 82.7325 21.0918 85.1519 22.7095C87.5398 24.3215 89.7664 26.1606 91.8005 28.201C93.8408 30.2338 95.6798 32.4591 97.292 34.8457C98.918 37.2614 100.309 39.8272 101.446 42.5081ZM20.7234 60.0452C20.7234 81.7358 38.3061 99.3672 60.0423 99.3672C81.7371 99.3672 99.365 81.7358 99.365 60.0452C99.365 38.3546 81.7333 20.7233 60.0423 20.7233C38.3551 20.7233 20.7234 38.3546 20.7234 60.0452Z" fill="white"/>
<path d="M60.7398 95.9524H61.8026C61.9873 95.9524 62.1682 95.9524 62.3529 95.9034H62.4019C62.5866 95.9034 62.7223 95.9034 62.907 95.8582H63.0464C63.1859 95.8582 63.3253 95.8582 63.461 95.813H63.6005C63.7399 95.813 63.8794 95.7677 64.0641 95.7677H64.1545C64.3392 95.7677 64.5239 95.7187 64.7086 95.7187C64.8933 95.7187 65.0327 95.6735 65.2174 95.6283H65.3079C65.4473 95.6283 65.5868 95.583 65.7225 95.583H65.8167C66.0014 95.534 66.1408 95.534 66.3255 95.4888C66.6911 95.4436 67.0605 95.3494 67.3846 95.2589H67.4789C67.6145 95.2137 67.7992 95.2137 67.9387 95.1647H67.9839C68.3533 95.0742 68.6774 94.98 69.0468 94.8895C65.5899 94.9992 62.1329 94.6737 58.7572 93.9209C53.6765 92.8128 48.8333 90.8303 44.725 87.4118C38.1663 81.9538 34.4056 73.8389 34.4806 65.3067C34.5139 59.0208 36.7506 52.9457 40.8014 48.1389C46.063 41.9087 53.5408 38.6297 61.1996 38.445H62.2625V32.3091H61.0639C58.7339 32.3518 56.4143 32.6296 54.1401 33.1383C51.8516 33.6557 49.6243 34.4137 47.4952 35.3997C45.3243 36.4173 43.2927 37.6611 41.4007 39.0933C39.4455 40.5795 37.6651 42.2827 36.0938 44.1701C34.6143 45.917 33.3302 47.8203 32.2644 49.8462C31.21 51.7993 30.3588 53.8554 29.7241 55.9822C29.1015 58.0761 28.6849 60.2258 28.4803 62.4008L28.3408 64.4285V65.627C28.386 67.9827 28.665 70.2893 29.17 72.5507C29.6788 74.8611 30.4628 77.0735 31.4315 79.1992C32.5886 81.7357 34.6653 85.4746 37.756 88.29C44.0665 93.2647 51.8711 95.9645 59.9068 95.9524H60.7398Z" fill="white"/>
<path d="M70.7994 90.0426C68.523 89.9613 66.2556 89.7144 64.0151 89.3039C54.5095 87.5965 46.3381 81.781 43.3417 73.0143C39.6932 62.3518 45.279 50.8149 55.8927 47.3097C57.9154 46.6319 60.035 46.2882 62.1682 46.2921C64.8933 46.2921 67.6145 46.8461 70.1097 47.86L72.6915 42.3685C71.915 42.0573 71.1308 41.7657 70.3396 41.4941C67.6953 40.6642 64.9397 40.2435 62.1682 40.2466C59.3916 40.2518 56.6338 40.7036 54.0006 41.5846C50.64 42.693 47.5449 44.4844 44.9096 46.8461C43.6387 47.9782 42.48 49.2303 41.4496 50.585C40.431 51.9241 39.5497 53.3623 38.8188 54.8779C37.3306 57.9247 36.4523 61.2331 36.2332 64.6169C36.0033 68.1221 36.4632 71.6273 37.6165 74.9515C38.7916 78.3712 40.6802 81.5021 43.157 84.1366C45.4185 86.5827 48.0493 88.4295 51.2304 90.1368C54.5547 91.8894 58.663 92.8128 62.9522 93.4159C65.7225 93.7815 69.4161 93.8757 71.5834 93.8757C73.4754 93.1822 74.2594 92.8581 75.2771 92.4435C76.1552 92.0289 77.0297 91.6143 77.9079 91.1055C78.7861 90.5967 78.9255 90.5024 80.3992 89.5376C80.5305 89.4559 80.6541 89.3626 80.7686 89.2587C75.6916 90.1368 74.3989 90.0878 70.7994 90.0426Z" fill="white"/>
<path d="M82.1559 83.1679C80.7236 83.2584 78.6921 83.3941 76.3854 83.3941C72.2771 83.3941 67.2454 83.0285 62.9562 81.5963C56.3076 79.3839 50.0321 73.7077 50.0321 66.6899C50.0291 63.3353 51.3604 60.1172 53.7325 57.7452C56.1046 55.3731 59.3227 54.0419 62.6773 54.0449C67.4301 54.0449 71.5384 56.6756 73.7094 60.5049L79.2009 57.7837C78.3399 56.1626 77.2338 54.6841 75.9218 53.4004C72.4108 49.8833 67.6451 47.907 62.6754 47.907C57.7058 47.907 52.9401 49.8833 49.429 53.4004C45.9131 56.9112 43.9375 61.676 43.9375 66.6446C43.9498 69.223 44.5019 71.7702 45.5582 74.1223C46.5231 76.2443 47.8649 78.2305 49.5723 80.0773C52.5724 83.3036 56.677 85.8891 61.0642 87.3666C65.2629 88.7498 71.4479 89.2586 77.4483 88.844C79.1067 88.7046 80.3543 88.5651 82.4763 88.1053C84.524 86.4893 86.3827 84.6472 88.0168 82.6139C86.5845 82.7533 83.9537 83.0285 82.1559 83.1679Z" fill="white"/>
</svg>
