<svg width="120" height="120" viewBox="0 0 120 120" fill="none" xmlns="http://www.w3.org/2000/svg">
<circle cx="60" cy="60" r="60" fill="#EDF0F4"/>
<path d="M68.9946 23.1453C65.2414 22.2469 61.2725 22.0578 59.124 22.0105C58.134 21.9869 57.5429 22.0105 57.5429 22.0105H35.4139C28.0465 22.0105 22 28.0481 22 35.4629V58.6942C22 58.907 22 59.0961 22.0236 59.3118C22.0236 59.5246 22 59.7137 22 59.9265C22 80.8616 38.91 97.8189 59.786 97.8189C80.662 97.8189 97.572 80.8616 97.572 59.9265C97.5956 42.1654 85.4081 27.2679 68.9946 23.1453Z" fill="#4C66FF"/>
<path fill-rule="evenodd" clip-rule="evenodd" d="M46.0409 38.1846C46.0409 35.912 44.1997 34.0649 41.933 34.0649H41.9301C39.6634 34.0649 37.8223 35.909 37.8223 38.1846V51.0932C37.823 52.1946 38.2618 53.2506 39.0417 54.0283C39.8217 54.8061 40.8789 55.2418 41.9803 55.2394C43.6952 55.2398 45.2337 54.1852 45.8517 52.5856C48.9936 46.1563 56.156 42.7451 63.1279 44.3575C70.0998 45.9699 75.0372 52.1795 75.0372 59.3354C75.0372 66.4913 70.0998 72.7009 63.1279 74.3133C56.156 75.9257 48.9936 72.5145 45.8517 66.0852C45.8373 66.051 45.8229 66.016 45.8083 65.9804C45.751 65.8409 45.6907 65.694 45.6153 65.5621C44.906 64.2855 43.5377 63.4314 41.9803 63.4314C39.687 63.4314 37.8223 65.2784 37.8223 67.5776C37.8403 68.4232 38.1031 69.2455 38.5788 69.9448C43.0148 78.7645 52.4695 83.8935 62.2816 82.803C72.0936 81.7125 80.1915 74.6328 82.5828 65.0543C84.9741 55.4759 81.154 45.4208 73.0059 39.8465C64.8577 34.2722 54.1017 34.3554 46.0409 40.0553V38.1846ZM66.045 59.3324C66.045 55.8305 63.2109 53.0082 59.7385 53.0082C56.2424 53.0082 53.432 55.8541 53.432 59.3324C53.4432 62.8136 56.2573 65.6356 59.7385 65.6567C63.2346 65.6567 66.045 62.8167 66.045 59.3324Z" fill="white"/>
</svg>
