<svg width="120" height="120" viewBox="0 0 120 120" fill="none" xmlns="http://www.w3.org/2000/svg">
<circle cx="60" cy="60" r="60" fill="#1B2B57"/>
<path d="M69.4417 65.7948L60.3839 71.0648L69.4417 54.1021V65.7948Z" fill="#DF3121"/>
<path d="M59.5605 74.688V53.7727L83.6048 37.7981L70.5945 21L96.121 39.939L70.5945 63.8186V55.749L59.5605 74.688Z" fill="#EFBF43"/>
<path d="M59.5605 98.5675V79.1344L95.1329 44.3855L59.5605 98.5675Z" fill="#EFBF43"/>
<path d="M49.6793 65.7948L58.7371 71.0648L49.6793 54.1021V65.7948Z" fill="#DF3121"/>
<path d="M59.5605 74.688V53.7727L35.5162 37.7981L48.5265 21L23 39.939L48.5265 63.8186V55.749L59.5605 74.688Z" fill="#F8D749"/>
<path d="M59.5605 98.5675V79.1344L23.9881 44.3855L59.5605 98.5675Z" fill="#F8D749"/>
<path fill-rule="evenodd" clip-rule="evenodd" d="M63.3872 47.4762C65.483 46.4035 65.6605 46.0389 64.8473 44.474C64.0281 42.8979 61.3955 39.864 60.3714 39.3159C59.6326 38.9206 59.5523 38.9574 58.1472 40.3336C56.4815 41.9656 54.4125 44.9139 54.4125 45.6558C54.4125 45.9313 54.6518 46.3731 54.9441 46.6379C56.9677 48.469 60.7196 48.8417 63.3872 47.4762ZM53.5507 44.1485C53.56 43.1939 54.5236 41.2248 56.1475 38.8419L57.5787 36.7423L56.5932 35.8774C54.6356 34.1586 53.8187 34.4083 52.6568 37.0797C51.8289 38.9829 51.7598 41.5405 52.4846 43.4251C53.0475 44.8878 53.5403 45.2223 53.5507 44.1485ZM67.1529 43.5698C68.0235 41.6522 67.9246 38.7042 66.9233 36.7267C65.6826 34.2758 65.0986 34.1688 62.9893 36.0045L62.1613 36.7253L63.3506 38.4203C64.6803 40.3162 66.2765 43.5195 66.2768 44.2932C66.2771 45.113 66.5574 44.8818 67.1529 43.5698ZM61.1089 34.0996C61.8026 33.7848 62.6962 33.5191 63.094 33.5093C63.8114 33.4913 63.8104 33.4873 62.9491 33.0099C62.3556 32.6805 61.3945 32.5281 59.9106 32.5281C58.4271 32.5281 57.4657 32.6805 56.8722 33.0099C56.0076 33.4893 56.0069 33.4913 56.7276 33.5243C57.2816 33.5498 58.7055 34.0704 59.8069 34.6505C59.829 34.6624 60.4152 34.4144 61.1089 34.0996Z" fill="#F5BB43"/>
</svg>
