<svg width="120" height="120" viewBox="0 0 120 120" fill="none" xmlns="http://www.w3.org/2000/svg">
<circle cx="60" cy="60" r="60" fill="#000D17"/>
<path d="M71.5399 68.2962C69.3413 72.4633 64.984 75.3056 59.9592 75.3056C52.7244 75.3056 46.8596 69.4177 46.8596 62.1545C46.8596 54.8916 52.7244 49.0036 59.9592 49.0036C64.984 49.0036 69.3413 51.8459 71.5399 56.013H85.177C82.441 44.564 72.2043 36.0437 59.9592 36.0437C45.6221 36.0437 34 47.7116 34 62.1036C34 76.4964 45.6221 88.1631 59.9592 88.1631C72.1671 88.1631 82.3786 79.6933 85.1512 68.2962H71.5399Z" fill="#FFB0C2"/>
<path d="M80.4833 46.2124C83.411 43.815 85.2808 40.1642 85.2808 36.0755C85.2808 28.8539 79.4493 23 72.2559 23C65.0619 23 59.2305 28.8539 59.2305 36.0755V36.0854C59.4723 36.0788 59.7144 36.075 59.9578 36.075C68.3186 36.075 75.7432 40.0477 80.4833 46.2124Z" fill="#CC91F0"/>
<path d="M72.2647 49.1655C75.3855 49.1649 78.2498 48.0636 80.4927 46.2263C75.7535 40.062 68.3292 36.09 59.9678 36.0911C59.7246 36.0908 59.4825 36.0945 59.2412 36.1013C59.2454 43.3181 65.0746 49.166 72.2647 49.1655Z" fill="#CC66B8"/>
</svg>
