<svg width="120" height="120" viewBox="0 0 120 120" fill="none" xmlns="http://www.w3.org/2000/svg">
<path d="M60 120C93.138 120 120 93.138 120 60C120 26.862 93.138 0 60 0C26.862 0 0 26.862 0 60C0 93.138 26.862 120 60 120Z" fill="#EDF0F4"/>
<path fill-rule="evenodd" clip-rule="evenodd" d="M67.6265 28.1508C63.9372 26.8991 60.0502 26.0756 56.0315 26.0097C51.7822 25.9109 47.8293 26.5697 44.1729 27.9202C40.3848 29.3037 35.9378 32.0707 32.4791 36.0236C28.2298 40.8658 25.1993 47.2233 25.0345 52.9549C24.8698 58.7854 25.1334 64.0888 29.4815 72.851C32.3473 78.6814 37.6178 83.3919 41.2083 86.0601C45.5564 89.2882 54.1539 94.0975 63.0807 94.0975C74.1817 94.0975 80.1439 91.7917 87.6213 84.9072C93.2212 79.7684 94.8024 73.4439 95 63.5947C95 63.4135 94.9835 63.2488 94.9671 63.0841C94.9506 62.9194 94.9341 62.7547 94.9341 62.5736C94.7035 58.7525 93.7483 54.8655 92.1342 51.0444C90.586 47.2892 88.4449 43.9293 86.0402 40.9976C83.6026 38.0659 80.7368 35.4306 77.7392 33.2895C74.6099 31.1484 71.217 29.4025 67.6265 28.1508ZM68.0547 29.0731C71.4147 30.259 74.6428 31.939 77.5745 33.9154C80.5062 35.9906 83.1414 38.4612 85.4143 41.1293C87.786 43.9622 89.6637 47.1245 91.146 50.6491C92.6942 54.3384 93.4847 57.9948 93.7153 61.5853C93.9459 65.3405 93.4189 68.9969 92.3318 72.4557C91.0801 76.145 89.1695 79.5049 86.4684 82.3707C83.6026 85.4013 79.9462 87.8718 75.5322 89.3541C70.8547 90.9682 65.8477 91.3964 60.8737 90.6717C55.735 89.947 50.761 88.0365 46.2152 85.1707C41.6036 82.239 37.6507 78.4179 34.5543 73.8721C31.5238 69.491 29.5474 64.4841 28.8227 59.2136C28.098 54.1408 28.658 49.4633 30.1403 45.2798C31.5238 41.327 33.7308 37.9012 36.5966 35.1012C39.2319 32.4331 42.46 30.3908 46.0505 29.0731C49.4105 27.8214 53.1657 27.1626 57.0526 27.2285C60.8737 27.2285 64.596 27.8873 68.0547 29.0731Z" fill="#338FFF"/>
<path fill-rule="evenodd" clip-rule="evenodd" d="M59.6216 28.7766C58.8969 28.7107 58.1393 28.7107 57.3487 28.7107C56.6241 28.7107 55.8335 28.7766 55.0759 28.8754C55.4133 30.0144 55.7373 31.1669 56.0651 32.333L56.0653 32.3336L56.0654 32.3341C56.2494 32.9886 56.4346 33.6475 56.6241 34.3106C57.4146 34.1459 58.1723 34.08 58.9628 34.08C59.7534 34.08 60.511 34.08 61.3016 34.1459C61.0525 33.371 60.8209 32.6077 60.592 31.8536C60.2761 30.8125 59.9655 29.789 59.6216 28.7766ZM78.9247 37.0776C75.1036 33.7176 70.492 31.2142 65.5839 29.8307C66.0941 31.4816 66.7139 33.2146 67.3183 34.9051L67.3184 34.9053L67.3185 34.9055L67.4944 35.3976C69.6355 36.1552 71.6119 37.1764 73.5225 38.494C76.1577 40.2398 78.4965 42.6116 80.3412 45.3127C79.3903 45.4337 78.4305 45.5275 77.4567 45.6226L77.4567 45.6226L77.4567 45.6226C76.575 45.7088 75.6821 45.796 74.7742 45.9056C73.6543 44.588 72.4025 43.5009 71.019 42.5457C68.0214 40.4045 64.3321 39.2187 60.6757 39.4493C56.7888 39.7457 53.5606 41.4257 51.5183 44.0609C49.3113 46.8609 48.356 50.7478 49.3772 54.9313C50.3324 59.3453 53.1653 63.1005 56.9205 65.5051C60.6098 67.9427 64.9909 68.9639 69.1085 68.0745C73.0613 67.1851 75.9271 64.7146 77.4753 61.5523C78.1342 60.1029 78.4965 58.5547 78.5624 56.9406C79.7214 56.7668 80.8577 56.5703 81.9714 56.3777L81.9716 56.3777L81.9717 56.3776C82.7571 56.2418 83.5312 56.108 84.294 55.9854C84.6564 59.2794 84.2281 62.4417 83.0423 65.3075C82.1529 67.4157 80.9011 69.3262 79.2871 70.8744C80.1765 73.5755 81.0329 76.2108 81.9223 79.0107C86.1716 75.4202 88.8069 70.578 89.7621 65.3075C90.6515 60.3994 90.0586 54.9642 88.0163 49.8255C85.974 44.7197 82.8117 40.5363 78.9247 37.0776ZM76.1907 82.6342C75.3013 82.9965 74.5107 83.293 73.6213 83.5894C72.7319 83.8859 71.7767 84.1165 70.9202 84.3141L70.638 83.2907L70.6378 83.2899C69.9479 80.7869 69.2774 78.3543 68.5814 75.9473C69.5367 75.8814 70.4261 75.7167 71.2825 75.4202C71.8984 75.2605 72.4669 75.0693 73.0318 74.8792L73.032 74.8792C73.2827 74.7948 73.5328 74.7107 73.786 74.6296C74.2219 75.9895 74.6301 77.3863 75.0447 78.8053C75.4135 80.0674 75.7875 81.3472 76.1907 82.6342ZM43.6455 76.079C49.2125 81.086 56.097 84.1494 63.2121 84.7423C62.7635 82.9478 62.3361 81.1851 61.9179 79.4603C61.5991 78.1456 61.2856 76.8529 60.9722 75.5849C58.1064 74.9261 55.4053 73.7402 52.9018 72.1262C47.236 68.4368 42.9867 62.6393 41.6691 56.0512C40.4174 49.7596 42.0973 44.0939 45.5561 40.141C47.0055 38.4611 48.7842 37.1434 50.7607 36.1223C50.2336 33.9812 49.7395 32.0047 49.1466 29.9624C44.0408 31.6424 39.6268 34.9364 36.6951 39.3504C33.5328 44.1927 31.9846 50.1878 33.1705 57.2371C34.2575 64.3522 38.1445 71.105 43.6455 76.079Z" fill="#338FFF"/>
</svg>
