<svg width="120" height="120" viewBox="0 0 120 120" fill="none" xmlns="http://www.w3.org/2000/svg">
<path d="M60 120C93.138 120 120 93.138 120 60C120 26.862 93.138 0 60 0C26.862 0 0 26.862 0 60C0 93.138 26.862 120 60 120Z" fill="#EDF0F4"/>
<path d="M60.5 15C85.5459 15 106 35.2711 106 60.124C106 84.9769 85.5459 105.248 60.5 105.248C35.315 105.248 15 85.1157 15 60.124C15 35.1322 35.315 15 60.5 15Z" fill="#32407B"/>
<path d="M60.5 21.7686C81.8931 21.7686 99.2314 38.8927 99.2314 60.0543C99.2314 81.2159 81.7533 98.4793 60.5 98.4793C39.1068 98.4793 21.7686 81.2159 21.7686 60.0543C21.7686 38.8927 39.1068 21.7686 60.5 21.7686Z" fill="#32407B"/>
<path fill-rule="evenodd" clip-rule="evenodd" d="M21.0166 60.124C21.0166 81.6958 38.7353 99.2315 60.5001 99.2315C82.1253 99.2315 99.9835 81.6958 99.9835 60.124C99.9835 38.5523 82.2648 21.0166 60.5001 21.0166C38.7353 21.0166 21.0166 38.5523 21.0166 60.124ZM22.8303 60.124C22.8303 39.5265 39.712 22.6867 60.5001 22.6867C81.2882 22.6867 98.1698 39.5265 98.1698 60.124C98.1698 80.7215 81.2882 97.5614 60.5001 97.5614C39.712 97.5614 22.8303 80.7215 22.8303 60.124Z" fill="white"/>
<path fill-rule="evenodd" clip-rule="evenodd" d="M43.6644 75.1652H77.1953C77.7541 75.1652 78.0336 74.7528 78.1733 74.3403V45.4707C78.1733 40.6591 74.1216 36.8098 69.2317 36.8098H51.7677C46.7381 36.8098 42.8262 40.6591 42.8262 45.4707V74.3403C42.8262 74.7528 43.2453 75.1652 43.6644 75.1652ZM76.357 73.5155H44.6424V45.6082C44.6424 41.7589 47.8558 38.597 51.7677 38.597H69.2317C73.1437 38.597 76.357 41.7589 76.357 45.6082V73.5155Z" fill="white"/>
<path fill-rule="evenodd" clip-rule="evenodd" d="M55.5092 43.7072H65.5668C66.1179 43.7072 66.3935 43.299 66.3935 42.8909C66.3935 42.4827 65.9802 42.0745 65.5668 42.0745H55.5092C55.0959 42.0745 54.6826 42.4827 54.6826 42.8909C54.6826 43.299 55.0959 43.7072 55.5092 43.7072ZM51.7893 70.512C49.8604 70.512 48.3449 69.0153 48.3449 67.1103C48.3449 65.2054 49.8604 63.7087 51.7893 63.7087C53.7181 63.7087 55.2337 65.2054 55.2337 67.1103C55.2337 69.0153 53.5804 70.512 51.7893 70.512ZM51.7893 65.3415C50.8249 65.3415 49.9982 66.1579 49.9982 67.1103C49.9982 68.0628 50.8249 68.8792 51.7893 68.8792C52.7537 68.8792 53.5804 68.0628 53.5804 67.1103C53.4426 66.0218 52.7537 65.3415 51.7893 65.3415ZM65.9802 67.1103C65.9802 69.0153 67.4957 70.512 69.4245 70.512C71.3534 70.512 72.8689 69.0153 72.8689 67.1103C72.8689 65.2054 71.3534 63.7087 69.4245 63.7087C67.4957 63.7087 65.9802 65.2054 65.9802 67.1103ZM69.4245 65.3415C68.4601 65.3415 67.6335 66.1579 67.6335 67.1103C67.6335 68.0628 68.4601 68.8792 69.4245 68.8792C70.389 68.8792 71.2156 68.0628 71.2156 67.1103C71.2156 66.0218 70.389 65.3415 69.4245 65.3415ZM76.5889 83.4381C76.3133 83.4381 76.0378 83.302 75.9 83.166L70.5267 75.6824C70.2512 75.2742 70.389 74.866 70.8023 74.5939C71.2156 74.3218 71.6289 74.4578 71.9045 74.866L77.2777 82.3496C77.5533 82.7578 77.4155 83.166 77.0022 83.4381H76.5889ZM43.9361 83.302C44.2116 83.4381 44.3494 83.4381 44.4872 83.4381C44.7627 83.4381 45.0383 83.302 45.0383 83.0299L50.4115 75.5464C50.6871 75.2742 50.4115 74.73 50.136 74.4578C49.8604 74.1857 49.3093 74.3218 49.0338 74.73L43.6605 82.2135C43.5227 82.4856 43.5227 83.0299 43.9361 83.302Z" fill="white"/>
<path fill-rule="evenodd" clip-rule="evenodd" d="M77.3495 50.5006H44.4018C43.99 50.5006 43.5781 50.0862 43.5781 49.6718C43.5781 49.2574 43.99 48.843 44.4018 48.843H77.3495C77.7613 48.843 78.1732 49.2574 78.1732 49.6718C78.1732 50.0862 77.8986 50.5006 77.3495 50.5006ZM46.3238 82.686C46.1865 82.686 46.0492 82.686 45.7746 82.5479C45.3628 82.2716 45.3628 81.7191 45.5001 81.4428L49.4812 75.7793C49.7558 75.3649 50.3049 75.2267 50.5795 75.503C50.8541 75.7793 51.1286 76.3318 50.8541 76.6081L46.8729 82.2716C46.8729 82.5479 46.5983 82.686 46.3238 82.686ZM44.4018 61.137H77.3495C77.8986 61.137 78.1732 60.7226 78.1732 60.3082C78.1732 59.8938 77.7613 59.4794 77.3495 59.4794H44.4018C43.99 59.4794 43.5781 59.8938 43.5781 60.3082C43.5781 60.7226 43.99 61.137 44.4018 61.137Z" fill="white"/>
<path fill-rule="evenodd" clip-rule="evenodd" d="M56.1739 60.3192C56.3109 60.5928 56.4478 60.5928 56.7217 60.5928C56.9955 60.5928 57.1324 60.456 57.2694 60.3192L64.9372 51.7006C65.3479 51.427 65.211 50.8798 64.9372 50.6062C64.6633 50.1958 64.1156 50.3326 63.8418 50.6062L56.1739 59.2247C55.7632 59.4983 55.9001 60.0456 56.1739 60.3192ZM51.2446 60.3192C51.3816 60.5928 51.5185 60.5928 51.7923 60.5928C51.9293 60.5928 52.2031 60.456 52.2031 60.3192L56.037 56.0783C56.4478 55.8047 56.3109 55.2575 56.037 54.9839C55.7632 54.5735 55.2155 54.7103 54.9416 54.9839L51.1077 59.2247C50.8339 59.4983 50.8339 60.0456 51.2446 60.3192ZM72.4681 78.3771H48.5061C48.0954 78.3771 47.6846 77.9667 47.6846 77.5563C47.6846 77.1459 48.0954 76.7355 48.5061 76.7355H72.4681C72.8788 76.7355 73.2896 77.1459 73.2896 77.5563C73.2896 77.9667 73.0158 78.3771 72.4681 78.3771ZM45.9046 81.9339H75.0696C75.6173 81.9339 76.0281 81.5235 75.8912 81.1131C75.8912 80.7027 75.4804 80.2923 75.0696 80.2923H45.9046C45.4938 80.2923 45.083 80.7027 45.083 81.1131C45.083 81.5235 45.4938 81.9339 45.9046 81.9339Z" fill="white"/>
<path fill-rule="evenodd" clip-rule="evenodd" d="M26.2812 60.124C26.2812 78.8486 41.4761 93.967 60.2624 93.967C78.9105 93.967 93.9672 78.8486 93.9672 60.124C93.9672 41.3994 78.7724 26.281 60.1242 26.281C41.4761 26.281 26.2812 41.5381 26.2812 60.124ZM28.077 60.124C28.077 42.3703 42.443 27.9454 60.2624 27.9454C77.9436 27.9454 92.4477 42.3703 92.4477 60.124C92.4477 77.8777 77.9436 92.3025 60.2624 92.3025C42.5811 92.3025 28.077 77.8777 28.077 60.124Z" fill="white"/>
</svg>
