<svg width="120" height="120" viewBox="0 0 120 120" fill="none" xmlns="http://www.w3.org/2000/svg">
<path d="M60 120C93.138 120 120 93.138 120 60C120 26.862 93.138 0 60 0C26.862 0 0 26.862 0 60C0 93.138 26.862 120 60 120Z" fill="#070A0E"/>
<path fill-rule="evenodd" clip-rule="evenodd" d="M34.6615 80.1179C32.8675 79.0199 31.7695 77.0699 31.7695 74.9699V63.2459C31.7695 61.8539 32.9035 60.7259 34.2955 60.7319C34.7395 60.7319 35.1775 60.8519 35.5615 61.0739L62.0155 76.4999C63.5635 77.3999 64.5175 79.0559 64.5175 80.8499V92.9939C64.5235 94.6619 63.1735 96.0179 61.5055 96.0179C60.9475 96.0179 60.3955 95.8619 59.9215 95.5739L34.6615 80.1179ZM74.0935 57.8639C75.6415 58.7639 76.5895 60.4259 76.5955 62.2139V86.8619C76.5955 87.5879 76.2055 88.2599 75.5695 88.6139L69.7795 91.8719C69.7075 91.9139 69.6295 91.9439 69.5455 91.9679V78.2819C69.5455 76.5119 68.6155 74.8679 67.0915 73.9559L43.8595 60.0599V44.6099C43.8595 43.2179 44.9935 42.0899 46.3855 42.0959C46.8295 42.0959 47.2675 42.2159 47.6515 42.4379L74.0935 57.8639ZM85.6735 39.6599C87.2275 40.5599 88.1815 42.2219 88.1815 44.0159V80.0159C88.1755 80.7539 87.7675 81.4319 87.1195 81.7859L81.6295 84.7499V59.6879C81.6295 57.9179 80.6995 56.2799 79.1875 55.3679L55.4395 41.1239V26.4719C55.4395 26.0279 55.5595 25.5899 55.7755 25.2059C56.4775 24.0059 58.0195 23.5979 59.2195 24.2939L85.6735 39.6599Z" fill="#00D395"/>
</svg>
