<svg width="120" height="120" viewBox="0 0 120 120" fill="none" xmlns="http://www.w3.org/2000/svg">
<circle cx="60" cy="60" r="60" fill="#0648B3"/>
<path fill-rule="evenodd" clip-rule="evenodd" d="M74.243 12.3983C70.1009 11.0975 65.7255 10.3254 61.1961 10.1541L60.892 12.0584C65.3021 12.2056 69.6951 12.9558 73.9371 14.3128L74.243 12.3983ZM35.1028 16.3603C34.6866 16.0455 34.1683 15.8586 33.6061 15.8586H33.606C32.235 15.8586 31.1237 16.9699 31.1237 18.341C31.1237 18.4954 31.1379 18.6466 31.1649 18.7932C18.0251 27.7753 9.40027 42.8758 9.40027 59.994C9.40027 78.7172 19.7185 95.0282 34.9767 103.559L35.2983 101.544C31.7471 99.4914 28.4009 96.9491 25.3629 93.9111C6.6319 75.1801 6.6319 44.8074 25.3629 26.0764C27.5031 23.9361 29.7955 22.0409 32.205 20.3901C32.6039 20.6632 33.0861 20.8232 33.606 20.8232C34.9772 20.8232 36.0886 19.7118 36.0886 18.3409C36.0886 18.2274 36.0809 18.116 36.0661 18.0067C40.6099 15.4925 45.4753 13.7714 50.4592 12.8443L50.7797 10.8383C45.1793 11.8001 39.8991 13.6973 35.1028 16.3603ZM26.2519 86.9665C27.6228 86.9665 28.7341 88.0778 28.7341 89.4487C28.7341 89.8092 28.6572 90.1516 28.5191 90.4606C28.5418 90.4835 28.5642 90.5067 28.5865 90.5299C28.6123 90.5567 28.6382 90.5835 28.6647 90.6098C30.964 92.9091 33.4586 94.8927 36.0933 96.5667L35.7661 98.6156C32.6104 96.6902 29.71 94.3878 27.1254 91.773C26.8538 91.8751 26.5595 91.9311 26.252 91.9311C24.8808 91.9311 23.7695 90.8198 23.7695 89.4487C23.7695 89.0418 23.8676 88.6577 24.0411 88.3188C17.8029 80.5685 14.0695 70.7174 14.0695 59.994C14.0695 38.2063 29.4811 20.0204 49.9973 15.7384L49.6723 17.7734C41.9734 19.517 34.6585 23.3841 28.6647 29.3778C12.8874 45.1549 11.8347 70.0811 25.5019 87.0818C25.7385 87.007 25.9904 86.9664 26.2519 86.9664V86.9665ZM82.3847 96.6215C81.9714 96.3141 81.4591 96.132 80.9043 96.132H80.9041C79.5333 96.132 78.4219 97.2434 78.4219 98.6145C78.4219 98.6891 78.4255 98.7631 78.4318 98.8363C75.4726 100.295 72.3814 101.395 69.2229 102.137L68.8971 104.176C72.5567 103.383 76.0502 102.146 79.3202 100.526C79.7501 100.882 80.3021 101.097 80.9041 101.097C82.2754 101.097 83.3866 99.9853 83.3866 98.6144C83.3866 98.4937 83.3778 98.3748 83.3612 98.2588C96.0561 90.2543 104.492 76.1111 104.492 59.9939C104.492 51.7773 102.298 44.0741 98.4674 37.4348C98.7646 37.0256 98.94 36.5223 98.94 35.9777C98.94 34.6066 97.8287 33.4953 96.4577 33.4953C96.2841 33.4953 96.1146 33.5132 95.9512 33.547C92.4924 28.76 88.1193 24.6773 83.0877 21.5547L82.7596 23.6087C85.2871 25.2422 87.6824 27.164 89.8964 29.3779C91.5519 31.0334 93.0438 32.7904 94.374 34.6279C94.1217 35.0165 93.9752 35.4801 93.9752 35.9778C93.9752 37.3488 95.0865 38.4602 96.4577 38.4602C96.5861 38.4602 96.7122 38.4504 96.8354 38.4316C106.349 54.9783 104.037 76.469 89.8964 90.6098C87.573 92.9334 85.0507 94.937 82.3847 96.6215ZM67.5263 80.2998C67.4233 81.576 66.3553 82.5798 65.0524 82.5798C64.2355 82.5798 63.5111 82.1853 63.0587 81.5767C50.6426 83.6764 37.4133 74.5358 37.4133 59.9941C37.4133 47.9176 47.2041 38.1267 59.2806 38.1267C78.6986 38.1267 88.4853 61.7146 74.743 75.4563C72.5441 77.6552 70.0926 79.2487 67.5264 80.2999L67.5263 80.2998ZM66.9294 78.4727C66.4743 77.9473 65.8022 77.6149 65.0524 77.6149L65.0525 77.6148C63.8143 77.6148 62.788 78.5214 62.6007 79.7068C51.3091 81.5385 39.3276 73.2156 39.3276 59.994C39.3276 42.2722 60.8528 33.3477 73.3898 45.8847C81.1817 53.6762 81.1817 66.3116 73.3898 74.1031C71.4189 76.0738 69.2258 77.5134 66.9294 78.4727ZM64.8389 65.5523C69.7801 60.6111 66.2596 52.1329 59.2806 52.1329C54.9394 52.1329 51.4195 55.6529 51.4195 59.994C51.4195 66.9728 59.8977 70.4935 64.8389 65.5523ZM29.5412 39.2055C29.7017 39.2055 29.8587 39.2209 30.0107 39.25C34.4683 32.9724 40.8946 28.1904 48.3899 25.8051L48.0493 27.9368C43.3812 29.5681 38.9979 32.2497 35.2672 35.9803C33.9059 37.3416 32.6867 38.7908 31.6049 40.308C31.8694 40.7025 32.0237 41.1772 32.0237 41.6879C32.0237 43.0587 30.9124 44.1702 29.5413 44.1702C29.437 44.1702 29.3342 44.1637 29.2331 44.1511C22.4673 56.974 24.4785 73.2181 35.2672 84.0069C36.0631 84.8027 36.8894 85.5496 37.7411 86.25L37.395 88.417C28.8885 81.8575 23.4069 71.5664 23.4069 59.9939C23.4069 53.9262 24.9143 48.2112 27.5737 43.2014C27.251 42.7825 27.0591 42.2578 27.0591 41.6881C27.0591 40.3168 28.1704 39.2054 29.5413 39.2054L29.5412 39.2055ZM22.3722 71.4087C23.6634 71.4967 24.6834 72.5716 24.6834 73.8852C24.6834 74.5716 24.4048 75.1928 23.9547 75.6421C25.8275 79.8747 28.497 83.8399 31.9658 87.3086C33.519 88.8618 35.1733 90.2526 36.9048 91.486L36.57 93.5826C30.2961 89.3323 25.277 83.3701 22.1815 76.3672C20.8194 76.3566 19.7189 75.2496 19.7189 73.8852C19.7189 73.146 20.0419 72.4824 20.5546 72.0276C19.3741 68.2258 18.7381 64.1843 18.7381 59.9941C18.7381 41.0818 31.6874 25.1951 49.2029 20.7144L48.8713 22.7899C42.68 24.5155 36.8344 27.8107 31.9658 32.6793C21.4856 43.1594 18.2894 58.1653 22.3722 71.4087ZM108.883 54.7059C109.879 55.0286 110.599 55.964 110.599 57.0679C110.599 58.0685 110.008 58.9308 109.155 59.3237C109.157 59.5468 109.16 59.7699 109.16 59.994C109.16 84.5283 91.4473 104.925 68.1119 109.094L68.4331 107.083C77.5066 105.329 86.1713 100.938 93.1977 93.9114C102.717 84.3924 107.395 71.8668 107.239 59.3904C106.301 59.0356 105.635 58.1298 105.635 57.0679C105.635 56.111 106.176 55.2807 106.969 54.8663C105.846 44.3511 101.257 34.136 93.1976 26.0765C90.2434 23.1223 86.9991 20.6352 83.5571 18.613L83.8795 16.5943C97.5261 24.3456 107.158 38.3465 108.882 54.7058L108.883 54.7059ZM86.0039 68.1803C86.0039 67.3977 85.6417 66.7 85.0759 66.245H85.076C85.5601 64.2403 85.8169 62.147 85.8169 59.9939C85.8169 57.6858 85.5216 55.4467 84.9678 53.3116L83.3353 54.725C84.1242 58.3447 84.0894 62.1079 83.2309 65.715C81.9968 65.8588 81.0391 66.9075 81.0391 68.1803C81.0391 68.8816 81.33 69.5148 81.7976 69.9663C81.223 71.2644 80.5309 72.5233 79.7208 73.7263L80.8782 75.4134C81.9354 73.9354 82.8444 72.3443 83.5842 70.6619C84.9263 70.6286 86.0039 69.5304 86.0039 68.1803ZM52.1049 48.4312C52.6277 48.4312 53.1124 48.5928 53.5124 48.8686C55.2391 47.9716 57.2004 47.4639 59.2806 47.4639C70.4059 47.4639 76.0154 60.9788 68.1405 68.8536C60.2656 76.7285 46.7507 71.1194 46.7507 59.994C46.7507 56.8672 47.8964 54.0078 49.7906 51.8128C49.6822 51.534 49.6225 51.2308 49.6225 50.9137C49.6225 49.5425 50.7338 48.4314 52.1049 48.4314V48.4312ZM54.5873 50.9136C54.5873 50.7755 54.5758 50.6402 54.5542 50.5082L54.5543 50.5084C58.3613 48.6239 63.2479 48.948 66.7871 52.4873C70.9324 56.6327 70.9324 63.3553 66.7871 67.5006C60.1181 74.1698 48.665 69.4234 48.665 59.994C48.665 57.2862 49.6102 54.966 51.1143 53.1902C51.4178 53.3224 51.7527 53.3959 52.1049 53.3959C53.476 53.3959 54.5873 52.2847 54.5873 50.9136ZM59.2806 42.7952C65.8361 42.7952 70.9944 46.2146 73.8935 50.9716C73.9765 50.9631 74.0608 50.9587 74.146 50.9587C75.5171 50.9587 76.6285 52.07 76.6285 53.4411C76.6285 54.1785 76.3066 54.8408 75.7962 55.2954C77.4146 60.8897 76.2942 67.3024 71.4417 72.155C60.6338 82.9626 42.0821 75.2662 42.0821 59.9939C42.0821 50.4953 49.7821 42.7952 59.2806 42.7952ZM90.4854 59.9939C90.4854 56.4838 89.9059 53.1096 88.8372 49.961L87.2627 51.3244C90.0062 60.2083 88.4287 70.1396 82.5275 77.8173L83.6606 79.4692C87.9305 74.1309 90.4854 67.3613 90.4854 59.9939ZM59.2806 24.12C63.76 24.12 68.0463 24.9432 72.0002 26.4431L71.6913 28.3766C67.5152 26.7402 63.0808 25.9616 58.6588 26.0419L58.9651 24.1244C58.9938 24.1241 59.0226 24.1237 59.0513 24.1232L59.0912 24.1225C59.1542 24.1213 59.2172 24.1202 59.2805 24.1202L59.2806 24.12ZM72.7502 21.7457C68.6639 20.3068 64.2778 19.5044 59.7106 19.4568H59.7104L59.4054 21.3672C63.823 21.3817 68.2379 22.15 72.4426 23.6702L72.7502 21.7457ZM60.4546 14.7975C65.0013 14.9137 69.3799 15.703 73.4975 17.0661L73.1909 18.9852C68.9651 17.5557 64.5632 16.7956 60.1497 16.7072L60.4546 14.7975ZM74.014 55.9201C72.7041 55.8515 71.6635 54.768 71.6635 53.4413C71.6635 52.8428 71.8752 52.2938 72.2278 51.8652C71.6296 50.9137 70.9165 50.0141 70.0883 49.1857C60.4858 39.5835 43.9963 46.4172 43.9963 59.994C43.9963 73.5705 60.486 80.404 70.0883 70.802C74.1189 66.7713 75.4269 61.0493 74.014 55.9201ZM44.6249 107.684C48.7734 108.958 53.1532 109.703 57.6849 109.846H57.685L57.9892 107.941C53.5781 107.822 49.1805 107.098 44.9307 105.77L44.6249 107.684ZM58.4278 105.194C53.8792 105.11 49.4945 104.354 45.3696 103.021L45.6756 101.105C49.9105 102.503 54.318 103.228 58.7328 103.284L58.4278 105.194ZM99.823 59.994C99.823 46.1445 92.878 33.9189 82.2812 26.606L81.9452 28.7085C83.5721 29.8897 85.1283 31.2124 86.5952 32.6791C101.68 47.7638 101.68 72.224 86.5952 87.3086C81.8152 92.0887 76.0934 95.3521 70.0272 97.1023L69.6947 99.1838C87.0387 94.5867 99.823 78.7843 99.823 59.994ZM59.1721 100.535C54.6026 100.523 50.2112 99.755 46.1159 98.3493L46.4227 96.4284C50.638 97.9125 55.0596 98.642 59.478 98.6199L59.1722 100.535L59.1721 100.535ZM95.1541 59.994C95.1541 48.5511 89.7967 38.3592 81.4531 31.7911V31.7912L81.1042 33.9753C81.8556 34.6066 82.587 35.2739 83.2937 35.9807C96.5553 49.2421 96.5553 70.746 83.2937 84.0073C79.6544 87.6468 75.3936 90.2853 70.8537 91.9268L70.5113 94.0721C84.8226 89.3587 95.1541 75.8836 95.1541 59.994ZM59.8494 95.8607C59.6601 95.8642 59.4709 95.8677 59.2806 95.8677C54.916 95.8677 50.7335 95.0879 46.8649 93.6599L47.173 91.7298C51.3622 93.3254 55.8034 94.0609 60.2254 93.9389L59.9186 95.8595H59.9185L59.8494 95.8607ZM53.3338 59.9941C53.3338 54.711 59.75 52.0531 63.4858 55.7889V55.7888C65.8079 58.1109 65.8079 61.877 63.4858 64.1991C59.7501 67.9349 53.3338 65.277 53.3338 59.9941Z" fill="white"/>
</svg>
