<svg width="120" height="120" viewBox="0 0 120 120" fill="none" xmlns="http://www.w3.org/2000/svg">
<circle cx="60" cy="60" r="60" fill="#2992FB"/>
<path fill-rule="evenodd" clip-rule="evenodd" d="M72.2807 46.5699L71.1307 47.7199C68.2835 45.3617 64.6976 44.0803 61.0007 44.0999C52.6285 44.1006 45.6837 50.5781 45.1007 58.9299H43.4507C44.0073 49.6529 51.7071 42.4226 61.0007 42.4499C65.1282 42.4711 69.1197 43.9277 72.2907 46.5699H72.2807ZM61.0007 48.2999C64.7808 48.2995 68.3335 50.1056 70.5607 53.1599L71.7107 51.9999C68.2523 47.3896 62.232 45.5095 56.7646 47.3322C51.2972 49.155 47.6094 54.2717 47.6094 60.0349C47.6094 65.7981 51.2972 70.9148 56.7646 72.7376C62.232 74.5603 68.2523 72.6802 71.7107 68.0699L70.5607 66.9199C67.3195 71.4488 61.3477 73.0861 56.2499 70.8435C51.1521 68.6009 48.3239 63.0924 49.4723 57.6428C50.6208 52.1933 55.4315 48.2945 61.0007 48.2999ZM73.6107 47.8099L72.4507 48.9999C72.8307 49.3925 73.1879 49.8065 73.5207 50.2399L74.6707 48.9999C74.3381 48.5664 73.9808 48.1524 73.6007 47.7599L73.6107 47.8099ZM43.3607 61.1499C43.7726 67.7708 47.8783 73.5952 53.9756 76.2084C60.0729 78.8215 67.1222 77.7778 72.2007 73.5099L71.0007 72.3599C68.1669 74.7164 64.5963 76.0045 60.9107 75.9999C52.5275 76.0037 45.5739 69.5135 45.0007 61.1499H43.3607ZM72.4407 71.1499L73.5907 72.2999C73.976 71.8882 74.3366 71.4541 74.6707 70.9999L73.5207 69.8499C73.188 70.2833 72.8307 70.6973 72.4507 71.0899L72.4407 71.1499ZM61.0007 79.9399C49.9881 79.9399 41.0607 71.0125 41.0607 59.9999C41.0607 48.9873 49.9881 40.0599 61.0007 40.0599C66.9362 40.0569 72.5596 42.7181 76.3207 47.3099L77.4707 46.1599C71.041 38.5081 60.1954 36.2784 51.2686 40.7731C42.3417 45.2678 37.6743 55.3084 39.9924 65.0304C42.3104 74.7524 51.0062 81.6067 61.0007 81.5899C67.3781 81.6078 73.427 78.7632 77.4807 73.8399L76.3307 72.6899C72.5912 77.3147 66.9481 79.9835 61.0007 79.9399Z" fill="white"/>
</svg>
