<svg width="120" height="120" viewBox="0 0 120 120" fill="none" xmlns="http://www.w3.org/2000/svg">
<path d="M60 0C93.132 0 120 26.868 120 60C120 93.132 93.132 120 60 120C26.868 120 0 93.132 0 60C0 26.868 26.868 0 60 0Z" fill="#1E0B49"/>
<path d="M38.9511 48.0002C41.6031 43.4882 45.8511 40.8122 49.5831 40.8842L51.0951 38.3282C53.6991 33.9002 52.7991 28.5002 49.0791 26.3162C45.3591 24.1322 40.2111 25.9802 37.5951 30.3842L36.0951 32.9402C37.9671 36.1682 37.6791 41.1602 35.0271 45.6962C32.3751 50.2322 28.1271 52.8842 24.3951 52.8122L22.8831 55.3682C20.2791 59.7962 21.1791 65.1962 24.8991 67.3802C28.6071 69.5642 33.7671 67.7282 36.3831 63.3122L37.8831 60.7562C36.0111 57.5282 36.2991 52.5122 38.9511 48.0002Z" fill="#1E90FF"/>
<path d="M35.0388 73.908C32.3868 69.396 28.1388 66.72 24.4068 66.792L22.8948 64.236C20.2908 59.808 21.1908 54.408 24.9108 52.224C28.6308 50.04 33.7788 51.864 36.3948 56.292L37.8948 58.848C36.0228 62.076 36.3108 67.068 38.9628 71.604C41.6268 76.14 45.8628 78.792 49.5948 78.72L51.1068 81.276C53.7108 85.704 52.8108 91.104 49.0908 93.288C45.3828 95.472 40.2228 93.648 37.6068 89.22L36.1068 86.664C37.9668 83.436 37.6788 78.42 35.0388 73.908Z" fill="url(#paint0_linear_204_30223)"/>
<path d="M65.2439 73.908C62.5919 69.396 58.3439 66.72 54.6119 66.792L53.0999 64.236C50.4959 59.808 51.3959 54.408 55.1159 52.224C58.8359 50.04 63.9839 51.864 66.5879 56.292L68.0999 58.848C66.2279 62.076 66.5159 67.068 69.1679 71.604C71.8319 76.14 76.0679 78.792 79.7999 78.72L81.3119 81.276C83.9159 85.704 83.0159 91.104 79.2959 93.288C75.5879 95.472 70.4279 93.648 67.8119 89.22L66.3119 86.664C68.1959 83.436 67.9199 78.42 65.2439 73.908Z" fill="url(#paint1_linear_204_30223)"/>
<path d="M84.1307 74.3522C86.7827 69.8522 91.0307 67.1642 94.7627 67.2362L96.2747 64.6802C98.8787 60.2522 97.9787 54.8522 94.2587 52.6682C90.5387 50.4842 85.3907 52.3202 82.7747 56.7362L81.2747 59.2922C83.1467 62.5202 82.8587 67.5122 80.2067 72.0482C77.5427 76.5842 73.3067 79.2362 69.5747 79.1642L68.0627 81.7202C65.4587 86.1482 66.3587 91.5482 70.0787 93.7322C73.7987 95.9162 78.9467 94.0802 81.5627 89.6642L83.0627 87.1082C81.1667 83.8682 81.4787 78.8522 84.1307 74.3522Z" fill="url(#paint2_linear_204_30223)"/>
<path d="M44.627 24.6001C39.599 24.6001 35.531 28.7401 35.651 33.7921C35.759 38.5561 39.647 42.4321 44.411 42.5521C49.463 42.6721 53.603 38.6041 53.603 33.5761C53.603 28.6201 49.583 24.6001 44.627 24.6001Z" fill="#1E90FF"/>
<path d="M44.6268 77.28C39.5988 77.28 35.5428 81.42 35.6628 86.484C35.7828 91.344 39.8148 95.256 44.6748 95.232C49.6068 95.208 53.6028 91.212 53.6148 86.268C53.6148 81.312 49.5948 77.28 44.6268 77.28Z" fill="#4B0082"/>
<path d="M74.711 24.6001C69.683 24.6001 65.615 28.7401 65.735 33.7921C65.843 38.5561 69.731 42.4321 74.495 42.5521C79.547 42.6721 83.687 38.6041 83.687 33.5761C83.687 28.6201 79.667 24.6001 74.711 24.6001Z" fill="#1E90FF"/>
<path d="M74.711 77.28C69.683 77.28 65.615 81.42 65.735 86.472C65.843 91.332 69.887 95.256 74.747 95.232C79.679 95.208 83.675 91.212 83.687 86.268C83.687 81.312 79.679 77.292 74.711 77.28Z" fill="#4B0082"/>
<path d="M59.4591 50.9402C54.4311 50.9402 50.3631 55.0802 50.4831 60.1322C50.5911 64.8962 54.4791 68.7722 59.2431 68.8922C64.2951 69.0122 68.4351 64.9442 68.4351 59.9162C68.4351 54.9602 64.4151 50.9402 59.4591 50.9402Z" fill="#8B008B"/>
<path d="M89.879 50.9402C84.851 50.9402 80.783 55.0682 80.903 60.1322C81.011 64.8962 84.899 68.7842 89.651 68.8922C94.703 69.0122 98.843 64.9562 98.843 59.9282C98.843 54.9602 94.835 50.9522 89.879 50.9402Z" fill="#8B008B"/>
<path d="M29.0391 50.9402C24.0111 50.9402 19.9431 55.0802 20.0631 60.1322C20.1711 64.8962 24.0591 68.7722 28.8231 68.8922C33.8751 69.0122 38.0151 64.9442 38.0151 59.9162C38.0151 54.9602 33.9951 50.9402 29.0391 50.9402Z" fill="#1E90FF"/>
<defs>
<linearGradient id="paint0_linear_204_30223" x1="29.5975" y1="71.7812" x2="38.9516" y2="80.2374" gradientUnits="userSpaceOnUse">
<stop offset="0.21" stop-color="#1E90FF"/>
<stop offset="1" stop-color="#4B0082"/>
</linearGradient>
<linearGradient id="paint1_linear_204_30223" x1="60.0602" y1="71.4828" x2="68.8293" y2="79.437" gradientUnits="userSpaceOnUse">
<stop stop-color="#8B008B"/>
<stop offset="1" stop-color="#4B0082"/>
</linearGradient>
<linearGradient id="paint2_linear_204_30223" x1="81.9877" y1="63.336" x2="72.6425" y2="70.4222" gradientUnits="userSpaceOnUse">
<stop stop-color="#8B008B"/>
<stop offset="1" stop-color="#4B0082"/>
</linearGradient>
</defs>
</svg>
