<svg width="120" height="120" viewBox="0 0 120 120" fill="none" xmlns="http://www.w3.org/2000/svg">
<circle cx="60" cy="60" r="60" fill="#2A2463"/>
<path fill-rule="evenodd" clip-rule="evenodd" d="M50.8797 119.311C49.0106 109.751 48.9342 99.9212 52.6258 91.8201C56.0205 84.3711 59.9718 78.5915 63.4783 73.4632C71.2576 62.0848 76.8485 53.9079 69.3173 37.7998C67.281 33.4447 65.1715 29.427 63.1881 25.6503C58.2242 16.1983 54.0535 8.25604 53.8163 0.314767C55.8492 0.10664 57.9122 0 60 0C93.1369 0 120 26.8629 120 59.9999C120 93.1368 93.1369 120 60 120C56.8995 120 53.8535 119.765 50.8797 119.311Z" fill="#954C5D"/>
<path fill-rule="evenodd" clip-rule="evenodd" d="M54.5347 0.245531C55.1656 8.28813 57.8303 17.0934 64.4611 24.447C81.1531 42.9596 90.8647 54.1886 90.8647 70.5771C90.8647 83.9388 79.1634 106.38 58.0635 119.969C58.7063 119.99 59.3516 120 59.9998 120C93.1367 120 119.999 93.1368 119.999 59.9999C119.999 26.8629 93.1367 0 59.9998 0C58.1576 0 56.3348 0.0830223 54.5347 0.245531Z" fill="#ED7B69"/>
<path fill-rule="evenodd" clip-rule="evenodd" d="M112.069 89.8329C112.212 88.3102 112.328 86.7468 112.413 85.1443C113.619 62.4622 100.629 48.6057 89.763 37.0149C86.9626 34.0275 84.3028 31.1906 82.064 28.392C76.6192 21.5859 72.9328 10.5793 70.6831 0.947998C98.7233 5.98708 120 30.5087 120 59.9996C120 70.8595 117.115 81.0454 112.069 89.8329Z" fill="#EC877B"/>
</svg>
