<svg width="120" height="120" viewBox="0 0 120 120" fill="none" xmlns="http://www.w3.org/2000/svg">
<circle cx="60" cy="60" r="60" fill="#3C80F1"/>
<path d="M60 15C39.5772 15.0149 23.0224 31.546 23 51.9449C23.0187 53.9367 23.2427 55.921 23.6646 57.8681C23.7082 58.0552 23.8426 58.2081 24.0227 58.2755C24.2027 58.343 24.4046 58.316 24.5606 58.2037C25.9741 57.1926 27.6684 56.6476 29.4069 56.6446C29.577 56.6503 29.7407 56.5794 29.8528 56.4515C29.9649 56.3236 30.0137 56.1521 29.9856 55.9844C29.7397 54.6656 29.6123 53.3275 29.6047 51.986C29.6047 35.2177 43.2115 21.6244 59.9963 21.6244C76.781 21.6244 90.3878 35.2177 90.3878 51.986C90.3878 68.7333 68.942 90.1245 61.2657 97.6776C60.5628 98.3666 59.4372 98.3666 58.7343 97.6776C55.4845 94.5092 52.3307 91.244 49.2771 87.8865H49.1278C46.1909 87.5981 43.3078 86.9079 40.5591 85.835L40.0514 85.6299C39.8091 85.5183 39.5217 85.5904 39.361 85.8031C39.2002 86.0158 39.2094 86.3116 39.383 86.5139C44.1357 92.1877 49.1791 97.6121 54.4929 102.765C57.5513 105.745 62.4301 105.745 65.4884 102.765C79.004 89.427 97 69.6956 97 51.9449C96.9776 31.5422 80.4228 15.0149 60 15" fill="white"/>
<path fill-rule="evenodd" clip-rule="evenodd" d="M81.4861 49.9494C81.766 51.2639 81.9272 52.6008 81.9677 53.9441H81.9752C81.9762 54.0344 81.9786 54.1282 81.9811 54.2227C81.9875 54.4719 81.9941 54.725 81.9752 54.9251V55.8613C81.9528 56.4954 81.9192 57.0959 81.8669 57.7599C81.6847 60.4083 81.0731 63.0096 80.0561 65.4622C78.9832 67.8705 77.5478 70.1007 75.7998 72.0753L75.7587 72.0417C72.5903 75.7764 68.5748 78.701 64.0464 80.5721C59.5001 82.506 54.5437 83.2801 49.6235 82.825C47.145 82.5811 44.7116 81.9987 42.3915 81.0943C40.08 80.1887 37.9001 78.9781 35.91 77.4949C32.0512 74.5578 28.8533 70.8433 26.5237 66.5923C25.7524 65.1741 26.1221 63.4064 27.3975 62.4155C28.6728 61.4245 30.4788 61.5016 31.6649 62.5976C33.6645 64.4343 36.2083 65.5708 38.9118 65.8351C39.6697 65.906 40.4276 65.8463 41.1632 65.6598C41.6557 65.5478 42.1032 65.2905 42.4475 64.9213C42.5884 64.751 42.7018 64.5597 42.7835 64.3544C42.8881 64.0784 42.959 63.7949 42.9964 63.5039C43.0561 63.075 43.086 62.6423 43.086 62.2097V37.4802C43.2752 34.7331 44.8664 32.2767 47.2975 30.979C48.1674 30.5165 49.1157 30.2181 50.0902 30.1062C50.3329 30.054 50.5793 30.054 50.8182 30.054H58.278C58.6513 30.0913 58.9799 30.0913 59.3197 30.0913C62.0182 30.2975 64.6557 30.998 67.1005 32.1576C71.8851 34.4065 75.8863 38.0348 78.5888 42.5753C79.9521 44.8583 80.9309 47.3495 81.4861 49.9494ZM75.292 57.2227C75.3405 56.7155 75.3816 56.2045 75.3816 55.6823L75.3779 55.686V54.1717C75.3517 53.2131 75.2397 52.2582 75.0419 51.3183C74.844 50.3783 74.5677 49.4458 74.2205 48.5507C73.8583 47.648 73.4252 46.7752 72.9324 45.9397C70.9067 42.5415 67.9131 39.8235 64.3339 38.133C62.6164 37.3124 60.7608 36.8163 58.8642 36.6671H50.8631C50.2592 36.7473 49.7756 37.2064 49.6646 37.8047V37.9316C49.6628 37.9552 49.6628 37.9788 49.6646 38.0024V62.2097C49.6907 62.9258 49.672 63.6457 49.5974 64.3544C49.4779 65.2048 49.2576 66.0328 48.9328 66.8273C48.2374 68.5669 46.9884 70.0297 45.3784 70.9899C44.6337 71.4345 43.8325 71.777 42.9964 72.0082C42.0704 72.2655 41.1183 72.411 40.1588 72.4408C43.1298 74.5875 46.6171 75.9092 50.2657 76.2715C54.0944 76.609 57.947 75.9912 61.4777 74.4737C65.0429 72.9683 68.2305 70.6934 70.8117 67.812L70.7744 67.7784C72.0774 66.3126 73.1527 64.6602 73.9591 62.8699C74.7075 61.0723 75.1577 59.1649 75.292 57.2227Z" fill="white"/>
</svg>
