<svg width="120" height="120" viewBox="0 0 120 120" fill="none" xmlns="http://www.w3.org/2000/svg">
<path fill-rule="evenodd" clip-rule="evenodd" d="M0 59.9999C0 26.863 26.8633 0 60.0003 0C93.1373 0 120 26.863 120 59.9999C120 93.1367 93.1373 120 60.0003 120C26.8633 120 0 93.1367 0 59.9999Z" fill="#278DC1"/>
<path fill-rule="evenodd" clip-rule="evenodd" d="M42.8059 55.3129C38.8381 55.3129 35.6222 52.0969 35.6222 48.1291C35.6222 44.1617 38.8381 40.9456 42.8059 40.9456C46.7732 40.9456 49.9894 44.1617 49.9894 48.1291C49.9894 52.0969 46.7732 55.3129 42.8059 55.3129ZM55.7976 28.2598H50.0036V37.3138C47.943 35.9396 45.4686 35.1374 42.8059 35.1374C35.6307 35.1374 29.814 40.9542 29.814 48.1291C29.814 55.3044 35.6307 61.1206 42.8059 61.1206C49.9809 61.1206 55.7976 55.3044 55.7976 48.1291C55.7976 48.0909 55.7952 48.0527 55.7949 48.0147H55.7976V28.2598Z" fill="#FFFFFE"/>
<path fill-rule="evenodd" clip-rule="evenodd" d="M77.1944 64.6869C81.1617 64.6869 84.3778 67.9029 84.3778 71.8709C84.3778 75.8381 81.1617 79.0542 77.1944 79.0542C73.2265 79.0542 70.0104 75.8381 70.0104 71.8709C70.0104 67.9029 73.2265 64.6869 77.1944 64.6869ZM64.2021 91.74H69.9968V82.686C72.0573 84.0602 74.5315 84.8624 77.1944 84.8624C84.3691 84.8624 90.1861 79.0456 90.1861 71.8709C90.1861 64.6954 84.3691 58.8792 77.1944 58.8792C70.0189 58.8792 64.2021 64.6954 64.2021 71.8709C64.2021 71.9089 64.2052 71.9471 64.2054 71.9854H64.2021V91.74Z" fill="#FFFFFE"/>
<path fill-rule="evenodd" clip-rule="evenodd" d="M70.4575 37.5065C74.4248 37.5065 77.6415 40.7228 77.6415 44.6903C77.6415 48.6574 74.4248 51.874 70.4575 51.874C66.4902 51.874 63.2741 48.6574 63.2741 44.6903C63.2741 40.7228 66.4902 37.5065 70.4575 37.5065ZM70.5725 31.6985V31.7014C70.5343 31.7009 70.4963 31.6985 70.4575 31.6985C63.2828 31.6985 57.4658 37.5153 57.4658 44.6903C57.4658 51.8655 63.2828 57.6823 70.4575 57.6823C77.633 57.6823 83.4498 51.8655 83.4498 44.6903C83.4498 42.0277 82.6475 39.5532 81.2735 37.4928H90.3274V31.6985H70.5725Z" fill="#FFFFFE"/>
<path fill-rule="evenodd" clip-rule="evenodd" d="M49.5427 82.4934C45.5751 82.4934 42.3593 79.2768 42.3593 75.3096C42.3593 71.3422 45.5751 68.1259 49.5427 68.1259C53.51 68.1259 56.7264 71.3422 56.7264 75.3096C56.7264 79.2768 53.51 82.4934 49.5427 82.4934ZM49.4277 88.3017V88.2982C49.4662 88.2987 49.5045 88.3017 49.5427 88.3017C56.7179 88.3017 62.5341 82.4849 62.5341 75.3096C62.5341 68.1347 56.7179 62.3179 49.5427 62.3179C42.3677 62.3179 36.551 68.1347 36.551 75.3096C36.551 77.9719 37.3532 80.4465 38.7273 82.5071H29.6729V88.3017H49.4277Z" fill="#FFFFFE"/>
</svg>
