<svg width="120" height="120" viewBox="0 0 120 120" fill="none" xmlns="http://www.w3.org/2000/svg">
<circle cx="60" cy="60" r="60" fill="#988430"/>
<circle cx="60" cy="60" r="58.0781" fill="#7A6A2A"/>
<circle cx="60" cy="59.9999" r="56.8544" fill="#BA9F33"/>
<path fill-rule="evenodd" clip-rule="evenodd" d="M26.2329 53.5923C25.8931 53.2819 25.534 52.9709 25.2038 52.6605C24.8736 52.3501 24.5344 52.0391 24.1945 51.7287L23.1846 50.7687C23.0195 50.6035 22.8448 50.4583 22.6796 50.2925C22.5145 50.1472 22.3206 49.9821 22.1555 49.8362C20.8153 48.5645 19.4675 47.2928 18.1459 46.0205C19.5148 47.273 20.855 48.5165 22.224 49.7875L22.6995 50.2637C22.8646 50.4282 23.0393 50.5741 23.2044 50.7392L24.2137 51.6711C24.5536 51.9815 24.8838 52.2925 25.2236 52.6311C25.5635 52.9696 25.8937 53.2813 26.2336 53.5911L26.2329 53.5923ZM8.44668 53.4003C8.44668 53.4003 13.3203 53.9047 15.6992 54.2445C17.9027 54.5555 24.7961 55.6135 24.7961 55.6135L8.44668 53.4003ZM8.44668 53.4003C9.81564 53.5168 11.1846 53.6621 12.5536 53.808C13.2524 53.8759 13.9225 53.9533 14.5926 54.0211L15.6211 54.1383C15.9609 54.1863 16.2912 54.2349 16.631 54.2835L20.7091 54.9338L22.7475 55.2736C23.4176 55.3901 24.0876 55.5168 24.7865 55.6333C24.1164 55.5655 23.4176 55.4682 22.7475 55.3709L20.7091 55.0797L16.631 54.4781C16.2912 54.4295 15.9609 54.361 15.6211 54.313L14.592 54.1946C13.9219 54.1267 13.223 54.0295 12.5529 53.9514C11.184 53.7869 9.815 53.6115 8.44604 53.3984L8.44668 53.4003ZM24.311 56.8832C24.311 56.8832 19.1072 58.2042 17.3497 58.7091C15.6217 59.1847 10.3884 60.777 10.3884 60.777L24.3104 56.8839L24.311 56.8832Z" fill="#CFB66C"/>
<path fill-rule="evenodd" clip-rule="evenodd" d="M24.3104 56.8833C23.1552 57.2231 22.0064 57.5534 20.8345 57.8644L17.3587 58.7963C16.2035 59.1361 15.0547 59.4663 13.9027 59.8062L12.1747 60.2817C11.6019 60.4468 11.0195 60.5921 10.4275 60.7579C10.9997 60.5659 11.5827 60.3694 12.1555 60.2043L13.8835 59.6513C15.0387 59.2916 16.1875 58.9518 17.3395 58.5927C18.5139 58.3015 19.6697 57.9905 20.8441 57.7089C21.9603 57.4273 23.1353 57.1463 24.3104 56.8839V56.8833ZM11.1168 63.9809C11.6889 63.7671 18.2912 60.69 19.8252 59.9713C20.5933 59.6116 22.8256 58.8193 22.8256 58.8193L11.1168 63.9809Z" fill="#CFB66C"/>
<path fill-rule="evenodd" clip-rule="evenodd" d="M11.1169 63.9808C11.6212 63.7888 12.0973 63.5539 12.5825 63.3306L14.0193 62.6605L16.9031 61.2723C17.8631 60.816 18.7962 60.3123 19.7863 59.8835C20.2913 59.6704 20.7962 59.4957 21.3005 59.3306L22.0685 59.088C22.3303 59.0202 22.5735 58.9421 22.8365 58.8743C21.8765 59.3306 20.866 59.7191 19.9047 60.1651C18.9447 60.6413 17.9629 61.0298 16.9722 61.4567L14.0404 62.7475C13.0561 63.1463 12.0961 63.5731 11.1162 63.9808H11.1169ZM11.7569 66.6688C11.7569 66.6688 17.737 63.1642 19.7953 62.0378C20.873 61.4362 24.3585 59.7075 24.3585 59.7075L11.7569 66.6688Z" fill="#CFB66C"/>
<path fill-rule="evenodd" clip-rule="evenodd" d="M11.7574 66.6702C12.7667 66.0487 13.7958 65.4177 14.825 64.7771L16.361 63.8446C16.8851 63.5342 17.3901 63.243 17.9245 62.9326C18.4486 62.6215 18.9536 62.3111 19.4874 62.0199C19.7415 61.863 20.0077 61.7267 20.2835 61.6123L21.0989 61.2046C22.1766 60.6804 23.2544 60.146 24.3904 59.6897C23.3613 60.3406 22.3027 60.8942 21.2448 61.4663C20.7206 61.7575 20.1862 62.0199 19.6621 62.3111C19.1379 62.6023 18.633 62.9134 18.0986 63.195C17.5744 63.5054 17.0694 63.7966 16.5357 64.0782L14.953 64.9422L11.7587 66.6702H11.7574ZM24.3104 60.4756C24.3104 60.4756 20.592 63.33 19.3882 64.2427C18.1843 65.1553 14.6406 67.7185 14.6406 67.7185L24.3104 60.4756Z" fill="#CFB66C"/>
<path fill-rule="evenodd" clip-rule="evenodd" d="M45.6505 83.4951L43.7478 79.8932L44.8544 75.3882L52.7475 72.3399L49.3881 65.4471L51.0483 58.4858L54.1651 52.2522L63.7964 50.738L70.8736 43.9905L86.1555 45.1457L89.1552 61.4855L83.3785 82.0583L80.0876 92.7092L66.7475 93.2142L60.5536 88.923L53.3011 85.8932L45.6505 83.4951Z" fill="#E2CC85"/>
<path fill-rule="evenodd" clip-rule="evenodd" d="M69.0489 83.3784C69.0489 83.3784 67.2038 84.2232 64.0569 84.0287C63.1462 82.8056 56.768 82.2328 56.768 82.2328C56.768 82.2328 55.9718 81.9903 54.5638 82.5727C53.1468 83.1487 51.8067 83.0776 50.5542 83.388C49.3017 83.6984 48.0582 82.0677 47.0982 81.7279C46.1382 81.3688 44.8652 80.5048 44.8652 80.5048L42.1772 80.2424L36.7795 77.9608L28.2041 69.4175L25.8739 73.0655L25.1552 77.58L27.7478 82.9298L34.7283 89.2888L48.3398 92.7448L56.4076 90.3679L66.5145 86.0959L69.0489 83.3778V83.3784Z" fill="#F1D789"/>
<path fill-rule="evenodd" clip-rule="evenodd" d="M20.6892 53.1847L22.4172 47.9521L24.4761 44.5729L31.1065 44.0193L29.1161 49.8254L23.5731 59.6897L25.8739 68.4954L21.7964 70.5338L20.5433 68.6119L19.534 64.2042L19.4662 59.2526L20.6892 53.1847Z" fill="#F4ECB4"/>
<path fill-rule="evenodd" clip-rule="evenodd" d="M28.1261 83.0195L26.8544 81.2428C26.8544 81.2428 26.5146 80.398 26.7092 79.6601C26.9012 78.9126 26.8736 78.8639 26.777 78.5823C26.6804 78.3008 25.8644 77.3299 25.913 76.4947C25.961 75.6499 25.8452 75.3683 26.466 74.6988C27.1162 74.0486 26.9223 72.9222 26.9223 72.9222L27.7671 73.4464L27.9591 73.1551C27.9591 73.1551 28.2695 73.3977 28.2695 73.7766C28.3373 73.2524 28.0557 70.8249 28.6964 70.2719C29.337 69.719 30.473 72.864 30.473 72.864L29.7741 68.3007L27.9776 63.6217L24.7834 59.3497L24.5914 54.6406V54.2329C24.5914 54.2329 23.1252 56.4857 22.7175 58.2649C22.4263 59.488 23.1252 60.9734 22.9799 62.7308C22.8628 64.4787 22.7175 64.3424 23.1444 65.0348C23.5712 65.7273 24.6106 67.1513 24.2029 68.1804C23.8439 69.0643 22.6202 68.4428 22.6202 68.4428C22.6202 68.4428 22.3776 69.1609 22.0474 69.4233C21.9309 68.9964 21.8048 68.7244 21.5719 68.4633C21.552 68.6284 21.504 68.8518 21.504 68.8518C21.504 68.8518 21.2903 68.1817 21.0765 67.3369C20.786 66.2112 20.4749 64.7257 20.1933 63.9296C20.0768 64.3859 19.7856 65.774 19.7856 65.774L19.9508 67.9103L20.7469 70.8422L21.5149 72.7622L22.2624 75.1116L22.912 76.6899L23.4362 77.8937L23.8925 80.6028L26.096 82.9324L27.2711 83.4572L28.1248 83.0201L28.1261 83.0195Z" fill="#F3E19D"/>
<path fill-rule="evenodd" clip-rule="evenodd" d="M21.8444 48.9127C21.8444 48.9127 20.2617 51.6007 19.806 54.3104C19.3503 57.0202 18.942 59.8836 19.23 63.5725C19.5212 67.2916 20.0748 69.5725 20.5215 71.2039C21.2895 73.913 23.2787 77.68 23.2787 77.68L23.3465 77.5341C23.0122 76.9004 22.7453 76.2332 22.5503 75.5437C22.2879 74.5146 22.1907 73.2916 21.9481 72.738C21.7343 72.185 21.3753 71.7088 21.2006 71.0292C21.0355 70.3789 21.0086 69.3498 20.5017 68.5831C20.2879 68.272 20.0255 67.4567 19.9481 66.6413C19.8508 65.4176 19.9967 64.0487 19.8803 62.9229C19.6665 61.049 19.5212 59.7773 19.7151 58.7962C19.9091 57.8151 20.9196 55.0298 21.5411 52.816C21.9487 51.3984 21.7055 50.2042 22.4531 48.9709C23.2006 47.7479 23.6575 46.6701 23.822 45.9226C24.014 45.2429 21.8419 48.9127 21.8419 48.9127H21.8444Z" fill="#F2E8B0"/>
<path fill-rule="evenodd" clip-rule="evenodd" d="M29.3498 47.835C29.3498 47.835 28.5345 48.0782 28.146 48.505C27.7575 48.9127 27.5924 49.2526 27.0682 49.9418C26.5441 50.6311 26.5146 51.1943 26.0871 52.0583C25.6602 52.9031 24.7181 54.1748 24.6017 54.6311C24.4852 55.0874 24.2913 57.2231 24.0487 58.233C23.8349 59.243 24.2913 60.4858 24.2913 60.4858L24.8442 60.3687C24.8442 60.3687 24.8442 61.0874 25.3978 61.5732C25.9508 62.0487 26.0481 59.961 26.0481 59.961L28.1159 52.9806L31.2321 50.8641L31.5719 49.1553L29.3485 47.835H29.3498Z" fill="#F5EEC0"/>
<path fill-rule="evenodd" clip-rule="evenodd" d="M30.864 51.0003C30.864 51.0003 29.3978 51.0969 28.6797 51.6217C28.3885 51.8349 28.272 52.0096 27.9616 52.272C27.3888 52.7475 26.8058 53.1846 26.5248 53.808C26.2138 54.4288 25.8739 55.3709 25.641 57.1475C25.5437 57.895 25.5437 58.5843 25.4758 59.1865C25.3786 60.0019 25.2333 60.6521 25.3107 61.1065C25.408 62.0384 26.3693 62.5241 26.4627 63.5821L28.4531 62.5728L30.327 55.184L34.3078 52.688L32.055 50.1638L30.8614 50.9958L30.864 51.0003Z" fill="#E6DB9D"/>
<path fill-rule="evenodd" clip-rule="evenodd" d="M20.3636 100.754C20.3719 100.681 20.3802 100.609 20.3885 100.534C20.6791 98.0376 20.7284 96.1458 20.9415 94.9612C21.2519 93.2818 21.4656 92.6572 21.417 92.0287C21.3492 91.0194 21.2717 90.2815 21.369 89.5045C21.5143 88.4754 22.5242 87.2524 22.4954 86.4076C22.4756 85.7375 22.1357 85.301 21.8445 84.8933C21.5533 84.4856 21.3204 84.1458 21.3204 84.1458C21.3204 84.1458 23.3108 82.7768 23.2916 77.262C23.3322 77.2734 23.3713 77.2898 23.408 77.3106L24.3885 80.0965L25.0586 80.9119L27.6314 85.708L30.9421 88.9221L35.8349 92.213L38.9031 95.5519L39.2135 104.455L35.2039 109.659L34.5472 110.848C29.3304 108.229 24.5466 104.825 20.3629 100.754L20.3636 100.754Z" fill="#E5CB7A"/>
<path fill-rule="evenodd" clip-rule="evenodd" d="M32.6118 109.272C32.6118 109.272 32.6797 108.165 33.5923 107.446C33.7382 107.689 33.8349 107.923 33.8061 108.097C33.9712 107.806 35.1264 105.942 37.7382 105.456C40.3501 104.981 40.9811 103.078 40.9811 103.078L46.5241 98.0391L52.864 92.2042L60.5728 89.4951L64.1753 88.6112C64.1753 88.6112 64.2432 88.8736 64.1075 89.456C64.7769 89.408 66.2624 89.0682 67.8061 88.5242C68.4275 88.2816 69.0105 88.1844 69.3209 88.505C69.7773 88.9319 69.8451 89.9418 69.8739 90.5434C70.6214 90.3783 71.4854 89.6602 72.1779 89.728C73.2851 89.8445 74.2656 91.1456 75.392 91.1456C76.8774 91.1456 77.5469 90.233 78.5862 89.5143C79.2077 89.0874 80.1005 88.5543 80.6054 88.194C81.8093 87.3101 94.5472 83.417 94.5472 83.417L99.0131 83.7082L99.7318 88.5044L99.3478 101.042C99.3005 101.087 99.2531 101.135 99.2051 101.18L78.8992 111.786L50.752 116.101C44.4469 115.07 38.3624 112.978 32.7577 109.911L32.6137 109.271L32.6118 109.272Z" fill="#D8C173"/>
<path fill-rule="evenodd" clip-rule="evenodd" d="M22.0704 102.349C22.4704 101.513 22.8301 100.813 22.8935 100.563C22.9434 101.068 23.0349 102.174 23.2192 103.35C22.8322 103.021 22.4493 102.688 22.0704 102.349V102.349Z" fill="#F1D789"/>
<path fill-rule="evenodd" clip-rule="evenodd" d="M42.6317 114.148L46.272 113.136L46.5824 113.233C46.5824 113.233 46.7475 113.331 46.7475 113.66C47.2038 113.398 47.5923 113.446 47.8739 113.272C48.0192 113.583 48.1645 114.612 48.8058 114.738C49.4752 114.884 50.1939 114.447 50.9222 113.894C51.6403 113.321 52.4582 112.602 53.0771 112.311C53.3042 112.729 53.5053 113.16 53.6794 113.602C54.4947 112.952 55.9123 110.311 57.9315 110.359C58.5151 108.98 59.4901 107.802 60.736 106.971C62.6099 105.699 63.7843 105.602 65.2506 105.718C65.8329 104.962 66.5506 104.32 67.367 103.825C67.6096 103.923 68.2797 104.33 69.1149 103.942C69.9597 103.554 70.9107 102.049 72.1632 101.855C72.8381 101.762 73.5244 101.906 74.105 102.262C74.105 102.262 77.753 98.6406 80.2701 97.4368C80.1728 97.1456 79.9789 96.0486 82.9299 93.6211C83.095 93.767 82.9786 94.1747 83.095 94.1971C83.143 94.1971 83.863 93.8867 84.7744 93.1872C85.9008 92.343 87.2499 91.4592 88.0653 91.2166C89.6013 90.7603 91.2307 91.6921 91.2307 91.6921C91.3693 91.595 91.5237 91.5226 91.687 91.4784C92.0749 91.4105 92.3565 91.3619 92.5702 91.2864C92.551 91.7913 92.8326 92.6553 92.5702 93.4029C92.8742 93.5738 93.1962 93.7105 93.5302 93.8105C93.3658 94.1696 93.0061 95.0822 92.4045 95.5193C92.9088 95.7619 92.9766 96.0435 93.6954 96.2873C93.4042 96.695 92.9274 97.3945 92.7149 97.8233C92.5011 98.2797 91.7338 100.173 91.3939 100.891C91.0349 101.61 90.5498 102.93 90.3162 103.195C90.0826 103.46 89.2384 104.583 88.5882 105.136C89.1642 104.922 91.5206 104.204 92.5203 103.932C92.2227 104.369 90.7142 106.607 89.264 108.759C75.2171 117.178 58.2262 119.145 42.6272 114.158L42.6317 114.148Z" fill="#E0CD81"/>
<path fill-rule="evenodd" clip-rule="evenodd" d="M31.1041 50.738C31.1041 50.738 30.2599 50.738 30.0948 50.8545C29.9297 50.971 30.9396 51.2142 31.25 51.3306C31.5604 51.4471 32.2305 51.9809 32.4052 52.4084C32.5703 52.8161 38.473 55.1943 38.473 55.1943L42.6477 54.9806L44.0871 52.9921L41.3492 50.594L43.2692 44.9338L40.7258 45.3415L34.6093 48.9895L31.5412 50.1646L31.1041 50.738Z" fill="#DFC57C"/>
<path fill-rule="evenodd" clip-rule="evenodd" d="M40.272 52.6118C40.3948 52.8106 40.6143 52.9289 40.848 52.9222C41.712 52.9222 42.5075 53.1359 42.8377 53.5724C43.3913 54.2719 44.9254 56.5049 44.9254 56.5049L48.5952 57.8252L48.832 53.5039L44.8224 50.718L40.2592 52.3974V52.6111H40.2694L40.272 52.6118Z" fill="#E5CC7C"/>
<path fill-rule="evenodd" clip-rule="evenodd" d="M39.5521 54.2137C39.5521 54.2137 40.2215 54.2624 41.0663 53.9513C41.9111 53.6403 43.2993 52.9709 43.9015 53.2333C44.7457 53.5923 44.5709 54.7187 45.4842 55.7293C46.0372 56.3507 47.0471 56.3315 47.6199 57.0016C48.1927 57.6717 50.1633 57.3606 50.1633 57.3606L50.9108 61.3926L47.9111 65.2377L46.93 70.0141H42.8737L39.1681 68.544L37.3428 64.128L38.2554 59.6621L39.5521 54.2137Z" fill="#D2C281"/>
<path fill-rule="evenodd" clip-rule="evenodd" d="M47.3984 54.4076C47.499 54.4386 47.6035 54.455 47.7088 54.4562C47.5923 54.5535 47.3491 54.7666 47.4464 55.3202C47.5436 55.8738 47.854 56.5727 47.5923 56.9996C47.8012 57.2281 47.9571 57.5 48.0486 57.7958C48.2137 58.2719 48.2624 58.7084 49.3395 58.7769C49.184 58.8726 49.0407 58.9867 48.9126 59.1167C48.9126 59.1167 49.6601 59.767 50.039 60.3686C50.4268 60.3519 51.456 60.0319 51.456 60.0319L51.6697 60.1778L52.126 59.9858C52.126 59.9858 51.6992 59.8207 52.0096 58.782C52.3008 57.8694 52.5632 57.918 52.5856 57.8502C52.608 57.7823 52.7993 56.821 52.7993 56.4326C52.9446 55.9282 53.0611 54.3942 53.0611 54.3942L52.7507 51.006L51.0035 49.9474L49.5827 48.5759L48.2425 51.1001L47.36 51.9801L47.2921 54.1644L47.3984 54.4076Z" fill="#E2C270"/>
<path fill-rule="evenodd" clip-rule="evenodd" d="M51.6019 51.5731C51.6019 51.5731 51.9123 52.4563 52.0294 53.1359C52.0707 53.0038 52.0936 52.8666 52.0973 52.7283C52.0973 52.7283 52.3398 54.0684 52.3878 54.622C52.4851 54.6022 52.5798 54.5734 52.6016 54.67C52.6234 54.7667 52.8448 55.8451 52.7936 56.4467C53.1979 55.7797 53.7573 55.2202 54.4243 54.8159C54.8128 54.5727 55.2691 54.311 55.7453 54.2911C56.4928 54.2719 57.0362 54.7673 57.9296 54.7673C60.0845 54.7673 62.0365 53.1846 63.4733 52.6995C64.5312 52.3398 65.4438 52.078 66.0845 51.495C66.3955 51.2332 66.9491 50.6508 67.4534 49.7862C68.1235 48.6342 68.8224 47.6313 69.5219 47.5052C69.2054 47.5634 68.8835 47.5861 68.5619 47.5731C68.5619 47.5731 68.7757 47.3593 69.1379 47.0681C69.5002 46.7769 69.9341 46.4179 70.5549 46.4179C71.6621 46.4179 72.215 46.5823 72.8365 46.5823C73.4579 46.5631 73.817 46.4179 73.817 46.4179C73.817 46.4179 74.4678 46.8742 75.9334 46.8742C77.3997 46.8934 78.3802 47.0195 79.1475 47.0879C79.9149 47.1564 82.487 46.8742 83.225 46.8959C83.7061 46.9145 84.1785 47.0301 84.6138 47.2358L82.2349 40.3238L73.6896 32.855L68.6022 36.4569L60.7763 44.2822L53.2038 47.0879L51.6211 48.8646V51.5731H51.6019Z" fill="#CCB360"/>
<path fill-rule="evenodd" clip-rule="evenodd" d="M68.5927 47.6114C68.5927 47.6114 68.8064 47.3983 69.1648 47.1071C69.5232 46.8159 69.9616 46.4562 70.5824 46.4562C71.689 46.4562 72.2426 46.6213 72.864 46.6213C73.4855 46.6021 73.8445 46.4562 73.8445 46.4562C73.8445 46.4562 74.496 46.9119 75.961 46.9119C77.4272 46.9311 78.4077 47.0572 79.1751 47.125C79.9424 47.1929 82.5146 46.9119 83.2525 46.933C83.7335 46.9511 84.2057 47.0667 84.6407 47.2729L83.5629 44.1561L82.3111 41.7778L78.7379 37.8649C78.7379 37.8649 74.4499 35.3407 74.4173 35.3215C74.3981 35.3023 72.9319 34.9138 72.9319 34.9138L69.0483 37.2633L65.5245 46.3801L65.4567 48.3001L67.7376 49.3778C68.3104 48.4178 68.9421 47.6498 69.5341 47.5525C68.9997 47.6108 68.592 47.6108 68.592 47.6108L68.5927 47.6114Z" fill="#D5B457"/>
<path fill-rule="evenodd" clip-rule="evenodd" d="M68.544 48.2624C68.2041 48.2816 67.9232 48.2137 67.8451 47.9712C67.5539 47.1558 67.3209 47.0393 67.0771 47.0393C66.8332 47.0393 66.5043 47.5635 66.3091 47.6115C66.1139 47.6595 65.8822 47.0099 65.8822 47.0099L65.6684 46.9126C65.6684 46.9126 64.4159 47.728 63.5328 48.6892C62.6495 49.6505 61.2025 51.2819 60.5523 51.5724C59.902 51.863 57.6684 51.9609 56.9043 52.126C56.1401 52.2912 55.2927 52.8448 55.1763 52.9708C55.0598 53.0969 55.5167 53.2326 55.5846 53.3587C55.6524 53.4752 54.8364 53.4265 54.7686 53.5507C54.7206 53.648 54.9606 54.2009 55.0796 54.4825C55.2879 54.3789 55.5165 54.3226 55.7491 54.3174C56.4966 54.2982 57.0406 54.7936 57.9334 54.7936C60.0889 54.7936 62.0403 53.2108 63.4771 52.7251C64.5356 52.366 65.4483 52.1036 66.0889 51.5212C66.3993 51.2595 66.9529 50.6764 67.4579 49.8124C67.8265 49.2204 68.1862 48.6668 68.5459 48.2592L68.544 48.2624Z" fill="#D2B257"/>
<path fill-rule="evenodd" clip-rule="evenodd" d="M37.632 96.311C37.632 96.311 37.44 95.5923 35.6608 93.7382C35.1559 93.214 34.8455 92.7782 34.5056 92.4665C33.6608 91.6697 33.1655 91.4566 32.5639 91.0003C31.2435 90.0198 29.8067 90.0198 28.7002 88.8159C27.5936 87.6121 26.304 85.3119 25.408 82.9612C24.5248 80.6118 24.2816 79.8643 24.2816 79.7964C24.2816 79.7286 24.5248 79.2723 24.8352 79.3401C25.1456 79.4079 25.1456 80.0095 25.2237 80.1555C25.3783 80.3936 25.5537 80.6176 25.7479 80.8249C26.2042 81.3497 26.8544 81.9769 27.1847 82.9126C27.1168 82.1164 26.8448 81.2332 26.8448 81.2332C26.8448 81.2332 28.5536 82.311 30.0096 83.4367C31.4759 84.5631 32.0775 84.9516 32.5056 85.6697C32.9338 86.3878 33.9424 88.2815 34.4256 88.8351C34.9088 89.3887 41.5296 91.4758 41.5296 91.4758L44.6791 93.8239L46.2426 97.2511L45.0189 99.1711L42.6695 99.6761L38.8538 97.9673L37.632 96.3103V96.311Z" fill="#D2B159"/>
<path fill-rule="evenodd" clip-rule="evenodd" d="M29.1552 84.505C29.1552 84.505 29.9513 85.7767 31.8931 86.9805C33.6409 88.0391 36.4076 89.0004 38.8742 89.5732C40.2912 89.913 41.7088 90.1748 42.9804 90.1946C46.4076 90.2426 48.7667 89.2628 51.6896 88.9421C53.2723 88.777 55.214 88.6509 57.2332 88.1741C59.8252 87.5527 61.3593 86.8532 63.447 85.8701C64.9612 85.1712 66.35 84.6471 67.4758 83.977C69.0585 83.0452 70.2137 82.0064 71.5539 81.696C71.3888 82.1524 71.214 82.9677 69.8937 83.8125C70.5926 83.7927 71.5539 83.7447 71.5539 83.7447C71.5539 83.7447 70.622 84.2976 68.9811 85.5405C67.9712 86.3085 66.6316 87.6084 65.2627 88.4724C64.3788 89.026 63.4175 89.4324 62.7865 89.7639C61.2505 90.6087 60.631 91.0356 59.6217 92.0679C59.9808 92.0487 60.0102 92.0679 60.0102 92.0679C60.0102 92.0679 58.7379 92.233 57.8259 92.7181C57.6339 92.7181 57.3011 92.6503 56.7187 92.8154C56.2624 92.9607 55.6601 93.2916 55.0393 93.4656C54.1555 93.728 53.8649 93.6116 53.8649 93.6116L54.0102 93.9028C54.0102 93.9028 52.8582 93.8829 52.4742 93.922C52.542 93.9412 52.5228 93.9706 52.5228 93.9706C52.4554 93.9819 52.3904 94.0049 52.3308 94.0384C52.146 94.1582 51.9428 94.2466 51.7292 94.3002C51.6128 94.3194 51.5155 94.3194 51.3696 94.3488C51.4182 94.4653 51.7971 95.1168 51.9718 95.5008C51.8265 95.5981 49.6416 97.2487 49.6416 97.2487C49.7093 97.3553 49.7647 97.4693 49.8067 97.5885C49.8745 97.8016 49.904 98.1127 49.9718 98.258C50.1363 98.5492 50.2336 98.5978 50.2336 98.5978C50.2336 98.5978 49.9718 98.6464 49.5148 98.7629C49.127 98.8602 48.6508 99.0247 47.9788 99.122C47.7727 99.1488 47.5652 99.165 47.3574 99.1706C47.4547 99.3844 47.8816 100.2 47.095 101.141C46.3084 102.083 46.0659 102.22 45.8233 102.821C45.7012 102.729 45.5712 102.647 45.4348 102.578C45.1731 102.461 44.8134 102.287 44.6873 102.054C44.6138 102.365 44.5165 102.67 44.3961 102.966C44.1536 103.617 43.7945 104.258 43.7267 104.743C43.4643 104.452 42.9792 103.879 42.3091 103.996C41.639 104.112 41.1052 105.025 40.9888 105.287C40.9888 105.122 40.8723 104.996 40.8435 105.19C40.8236 105.404 40.455 107.636 38.3968 109.442C38.3776 108.986 38.3776 107.976 38.3289 107.646C38.1369 107.838 37.902 108.122 36.5036 108.724C35.1347 109.325 35.3516 109.928 35.3516 109.928C35.3516 109.928 35.2352 108.968 35.9731 107.957C36.7206 106.947 37.1769 106.471 37.1769 106.394C37.1648 106.315 37.1312 106.241 37.0796 106.18C36.9824 106.083 36.7884 105.966 36.7884 105.889C36.9049 105.841 38.0601 105.287 37.9923 104.141C37.9244 103.112 37.488 102.578 37.1769 102.2C37.1289 102.151 37.6339 101.792 37.5654 101.676C37.5168 101.608 36.896 101.151 36.8179 100.908C36.8362 100.762 36.8688 100.619 36.9152 100.481C36.983 100.267 37.0316 100.121 37.0124 99.9757C36.9638 99.7332 36.7014 99.0631 36.624 98.9952C36.6918 99.0144 37.1769 98.9952 37.1769 98.9952C37.1769 98.9952 36.7891 98.3738 36.7206 98.0826C36.6521 97.7914 36.5068 97.024 36.4294 96.8788C36.5945 96.898 37.0022 96.9268 37.0022 96.8788C37.022 96.7328 36.6432 96.4903 36.8102 96.3028C36.9267 96.322 37.15 96.4192 37.3632 96.6912C37.2467 96.3802 37.0528 95.7786 36.6444 95.536C36.8364 95.4682 37.4892 95.2928 38.062 95.6327C38.6348 95.9725 38.83 96.448 38.83 96.448C38.83 96.448 39.1699 96.7104 39.6947 97.0989C40.2963 97.5744 41.063 98.2509 42.2867 98.7296C42.5491 98.8756 43.2185 98.8756 43.7043 98.7783C43.9158 98.7279 44.1186 98.6461 44.3059 98.5357C44.3735 98.4959 44.4452 98.4633 44.5196 98.4384C44.4153 98.229 44.2952 98.0276 44.1606 97.8362C44.3257 97.8362 44.5196 97.856 44.5196 97.856C44.5196 97.856 44.6361 97.5936 44.112 97.088C44.2284 96.9716 44.3744 96.896 44.3744 96.6996C44.2092 96.6804 43.918 96.4378 43.8502 96.3405C43.9468 96.2727 44.0928 96.0493 44.2579 95.9815C44.112 95.865 43.7529 95.3792 43.5878 95.3312C43.7455 95.2727 43.8982 95.2012 44.0441 95.1175C44.0441 95.1175 43.2288 94.9037 42.9664 94.729C42.704 94.537 42.3161 94.2048 42.0832 94.1076C41.84 94.0103 41.4131 93.9623 41.2384 93.7677C41.4028 93.8164 41.6652 93.7677 41.8598 93.7677C42.0051 93.7677 42.0736 93.7869 42.1216 93.7869C42.1024 93.7191 42.1024 93.5732 42.4812 93.5252C42.6635 93.4977 42.8403 93.442 43.0054 93.36C43.0054 93.36 42.6457 93.3408 42.2374 92.9524C41.8291 92.5639 41.4899 92.2535 41.2569 92.2048C41.0144 92.1562 40.558 92.37 40.2764 92.3501C39.888 92.3021 39.7228 92.1076 39.7228 92.1076C39.7228 92.1076 38.432 92.224 35.568 90.4768C33.0918 88.962 32.014 87.6224 32.014 87.6224C31.7823 87.5383 31.5583 87.4343 31.3446 87.3114C30.4128 86.8263 29.1212 85.8164 29.1603 84.4954L29.1552 84.505Z" fill="#C2A44D"/>
<path fill-rule="evenodd" clip-rule="evenodd" d="M64.8736 26.2329C65.0982 26.3058 65.2978 26.4404 65.4496 26.6213C65.9059 27.1455 66.1971 28.1356 65.1584 29.1941C65.5661 29.3394 65.7344 29.3861 66.0902 29.3394C65.7312 29.7669 64.9158 30.6796 64.8672 31.4757C64.8185 32.126 65.2262 32.3205 65.2262 32.3205C65.2262 32.3205 64.6048 33.0386 64.576 34.2405C64.8694 33.9096 65.1906 33.6043 65.536 33.3279C66.2547 32.7551 67.2448 32.1049 67.9149 31.6972C67.9058 31.868 67.9288 32.0391 67.9827 32.2015C67.9827 32.2015 69.2345 31.1724 70.2867 31.6293C70.7622 31.8431 70.5485 32.5125 70.5485 32.5125C70.5485 32.5125 71.1993 32.27 71.6557 32.7263C72.112 33.1826 72.7571 34.3596 73.088 34.8159C73.2333 35.0297 73.6121 35.4373 74 36.0684C74.5298 36.9519 74.9722 37.8849 75.3209 38.8543C75.3401 38.3493 75.4662 37.5634 76.9037 38.0581C78.3405 38.5631 79.9712 39.6217 81.3401 41.7061C82.7091 43.7906 83.0483 46.1439 83.7376 47.0399C84.4365 47.9039 85.1552 49.3407 85.2038 49.9429C85.2525 50.5452 84.9901 52.4863 86.4269 57.7388C86.8345 56.1081 87.456 52.4863 87.456 52.4863L87.7958 49.2921L88.1843 39.4085L77.8637 30.8345L69.7958 24.9797L64.5433 25.4847L64.8729 26.2322L64.8736 26.2329Z" fill="#CAA13E"/>
<path fill-rule="evenodd" clip-rule="evenodd" d="M84.0486 40.9414C84.0486 40.9414 83.9027 39.9814 81.4758 38.3494C79.0483 36.7378 77.1552 36.7378 75.408 35.3689C74.0678 34.2911 72.67 31.815 71.76 30.9996C70.8761 30.1938 70.7308 27.8636 70.7308 27.8636L73.7113 25.3676L78.144 18.9606L81.8912 14.8345L83.687 17.3305L86.183 20.2623L87.5712 26.1458L88.0761 34.7577L84.0441 40.942L84.0486 40.9414Z" fill="#B59544"/>
<path fill-rule="evenodd" clip-rule="evenodd" d="M87.0489 51.264C87.1224 49.958 86.9611 48.6494 86.5728 47.4004C85.9328 45.41 84.5344 41.8759 83.8848 40.5524C83.6224 39.0861 83.8169 38.9696 84.0985 38.8045C84.3801 38.6394 85.4387 38.0365 86.0185 35.9213C86.5984 33.8061 88.3974 33.737 88.3974 33.737L89.504 32.9216L91.184 37.1252L92.6496 40.9216L93.1059 43.8247L93.4457 46.3002L92.6496 51.5335L88.7181 55.0868L87.0483 51.264H87.0489Z" fill="#C89D3A"/>
<path fill-rule="evenodd" clip-rule="evenodd" d="M32.1849 109.593V109.486C32.2666 109.434 32.3388 109.369 32.3981 109.294C32.4659 109.196 32.5152 109.08 32.5632 109.051C32.6605 109.002 33.1168 108.859 33.3593 108.905C33.6019 108.951 34.2432 109.215 34.583 109.196C35.2819 109.177 36.0973 108.643 37.3888 108.886C39.3305 109.245 39.7869 110.565 40.9133 111.313C41.6813 111.838 42.4761 111.604 42.5926 111.604H42.8544C42.903 111.604 43.2621 111.196 43.4566 111.216C43.8451 111.235 43.8835 111.556 44.1261 111.575C44.6989 111.643 45.8061 111.284 46.3597 111.43C46.6928 111.534 46.9539 111.795 47.0585 112.128C47.175 112.487 47.0777 112.943 46.7961 113.206C46.1945 113.759 45.6217 114.284 45.5053 114.742C45.6534 114.855 45.7957 114.975 45.9315 115.103C41.1278 113.879 36.5059 112.028 32.1849 109.599V109.593Z" fill="#CEB052"/>
<path fill-rule="evenodd" clip-rule="evenodd" d="M83.8835 90.1946C83.8835 90.1946 85.3978 88.1754 85.9226 87.175C86.4467 86.144 84.2624 73.088 84.2624 73.088L88.6509 58.7098L88.5338 54.0301C88.5338 54.0301 88.7475 49.7094 89.2525 47.8355C89.8547 48.9133 91.7287 50.2144 92.1363 50.9037C92.3283 49.5827 92.9805 46.7968 92.8839 43.8259C93.2429 44.3789 94.1069 49.9424 94.1069 49.9424L94.9709 53.6896L96.0973 57.6704L97.3498 61.8746L98.0973 64.7776L98.5242 65.4765L98.8839 66.6995L99.2237 68.0205L100.204 71.1174L100.78 73.6608L101.237 78.2726C101.336 78.6258 101.407 78.9861 101.45 79.3504C101.469 79.8554 101.382 80.1466 101.382 80.2342C101.382 80.3219 101.548 81.3408 101.48 82.1082C101.382 82.8762 101.382 83.4771 100.78 84.0282C100.178 84.5792 99.7997 87.8726 99.7997 87.8726L98.7219 87.1546C98.7219 87.1546 98.9357 86.1734 98.4307 85.2806C97.9258 84.3878 96.9453 84.2029 96.3917 84.3488C95.8387 84.4653 94.7322 84.6394 94.3725 84.9504C94.0327 85.2608 93.1981 86.2221 92.4307 86.6592C91.4707 87.2352 89.9066 87.2806 89.072 87.4746C88.2272 87.6666 87.2954 88.2426 86.3143 88.9114C85.545 89.4094 84.7328 89.8378 83.8874 90.1914L83.8835 90.1946Z" fill="#CCA847"/>
<path fill-rule="evenodd" clip-rule="evenodd" d="M83.8835 111.408C83.8835 111.408 83.9475 111.45 84.0711 111.518C90.9687 108.286 97.149 103.705 102.247 98.0455C102.191 96.0807 102.119 94.0666 102.04 93.3204C101.875 91.7377 101.992 90.1262 101.943 89.1943C101.894 88.2625 101.37 84.466 101.128 83.4855C100.865 82.505 100.36 82.0193 100.283 82.0193C100.215 82.0391 99.8067 83.8644 99.8067 84.3233C99.8067 84.7822 99.7095 85.8868 99.7095 86.1684C99.6416 86.1486 99.6128 85.9764 99.6128 85.906C99.5155 86.1486 99.3991 86.5761 99.3504 86.6247C99.3018 86.6734 99.4183 86.217 99.3504 86.1198C99.2826 86.0225 99.1584 86.0711 99.1853 85.8286C99.1968 85.6847 99.2195 85.542 99.2531 85.4017C99.2531 85.4017 98.9619 85.8286 98.7488 86.9159C98.5351 87.9937 98.5351 88.0231 98.4576 88.1198C98.3898 88.2369 98.0013 88.6247 97.9815 88.7706C97.9623 89.0324 98.3411 89.2948 98.3699 89.4401C98.3891 89.6833 98.0301 90.809 97.9136 91.3601C97.7971 91.9111 97.8458 92.9908 97.7216 93.5444C97.6243 94.0494 97.5296 94.3406 97.1975 94.5537C97.44 94.6023 97.673 94.6702 97.673 94.6702C97.673 94.6702 98.0128 96.107 97.1488 97.3306C96.8384 97.7575 96.761 97.9521 96.4307 98.3406C95.7799 99.0586 95.2749 99.8766 95.2263 100.408C95.1927 100.251 95.17 100.092 95.1584 99.9322C95.1584 99.9322 94.1491 101.107 93.7216 101.777C93.1687 102.641 92.4013 102.593 92.1856 102.806C91.9699 103.02 91.9232 103.408 91.9936 103.719C91.8016 103.767 91.4407 103.836 91.1975 104.583C91.081 104.971 90.7898 105.351 90.3335 105.612C89.8771 105.873 89.3235 105.952 89.0419 106.02C89.2845 106.088 89.3818 106.088 89.4983 106.165C89.353 106.408 88.6829 106.787 87.9354 107.272C87.1879 107.729 86.8282 108.398 86.6439 108.835C86.4519 109.243 86.1683 109.505 85.712 109.554C85.904 109.67 86.1882 109.942 86.3335 110.03C86.1197 110.078 85.7575 110.078 85.1104 110.632C84.4307 111.195 84.1978 111.36 83.8867 111.409L83.8835 111.408Z" fill="#C39D3C"/>
<path fill-rule="evenodd" clip-rule="evenodd" d="M70.3744 115.907C70.7462 115.646 71.1488 115.433 71.5731 115.272C73.0874 114.67 74.6893 114.553 75.3203 114.36C75.9226 114.168 76.3981 113.903 77.1456 113.757C77.1258 113.928 77.1091 114.088 77.0912 114.239C74.8874 114.931 72.6432 115.489 70.3712 115.907H70.3744Z" fill="#D2BA6B"/>
<path fill-rule="evenodd" clip-rule="evenodd" d="M98.304 76.078C98.304 76.078 97.9936 77.7574 97.44 78.816C96.8864 79.8745 96.288 81.3401 96.288 81.3401C96.2917 81.0099 96.3307 80.6809 96.4045 80.359C95.7056 80.7667 94.0064 81.7478 93.5245 82.1843C93.0682 82.592 92.3008 83.3107 92.1069 83.6505C92.5632 82.311 93.0388 81.1072 93.1168 80.5536C92.418 81.0585 89.1552 83.7478 87.4567 85.5244L82.1652 89.806C81.5545 90.1355 80.9257 90.4299 80.2816 90.688C79.3696 91.0758 78.2919 91.406 77.4957 91.7171C77.7095 91.1443 78.0487 90.6387 78.5248 90.1536C79.0298 89.678 80.544 88.0371 80.777 87.2736C80.9908 86.4774 81.0394 86.0019 80.7578 85.3318C80.4954 85.3996 79.8938 85.4291 79.4861 85.5456C79.0784 85.662 78.6413 86.0985 78.6413 86.0985C78.6413 86.0985 78.9517 84.3219 79.6218 82.6425C79.1168 82.6617 78.2528 82.807 78.2528 82.807C78.2528 82.807 79.4567 80.7878 81.5168 79.3804C80.8859 79.5147 80.2685 79.7062 79.6724 79.9526C78.4685 80.4576 77.1482 81.2051 76.1677 81.6128C76.7207 80.8448 80.6042 75.3024 82.9152 70.1369C85.2192 64.9817 86.08 63.6614 86.585 60.8947C86.8468 59.5257 86.777 57.5027 86.8468 55.6908C86.9146 53.8944 87.138 52.2828 86.9927 51.2051C87.5943 51.9526 89.8471 54.0595 89.9245 58.7686C89.9924 63.4771 87.7696 69.8368 85.41 73.2633C85.986 73.4284 87.4784 73.623 89.0119 70.9593C90.5453 68.2956 90.5268 67.552 91.0804 66.4448C91.1482 66.9984 91.1284 67.1923 91.1284 67.1923C91.1284 67.1923 93.362 64.4838 94.4199 61.0758C94.6336 62.542 95.2647 63.8336 94.274 66.5228C93.3908 68.9497 92.2356 69.5424 92.2356 69.5424C92.2356 69.5424 92.8084 69.4451 93.6525 68.9401C93.7984 69.2992 93.7696 69.7081 94.0122 69.8528C94.2548 69.9974 94.585 70.2412 94.6336 70.4742C94.8954 70.0857 95.3031 69.5904 95.4298 69.2217C95.3325 69.9897 95.2647 73.3478 95.6218 75.0566C96.37 74.9888 97.1367 74.9401 97.6608 73.5904C97.3018 74.9113 97.3018 75.7068 97.5444 76.8332C97.9424 76.5619 98.3015 76.0761 98.3015 76.0761L98.304 76.078Z" fill="#C0993A"/>
<path fill-rule="evenodd" clip-rule="evenodd" d="M73.0778 22.5633C73.0778 22.5633 72.3303 22.8737 71.0586 22.8737C69.952 22.8737 70.2624 22.4468 68.5344 22.4468C65.8746 22.4468 56.5831 23.9828 54.9517 23.961C53.8932 23.9418 58.5242 24.4173 58.5242 24.4173L70.3597 24.5825L72.738 24.3905L73.6218 22.5921L73.0778 22.5633Z" fill="#A88F33"/>
<path fill-rule="evenodd" clip-rule="evenodd" d="M42.3885 45.6991C42.3885 45.6991 40.8736 46.8543 40.233 47.7382C39.5923 48.622 39.2525 49.2038 38.5242 49.9225C38.6951 49.929 38.8659 49.9061 39.0291 49.8546C39.0291 49.8546 39.0291 50.0466 38.9126 50.0972C39.1165 50.0744 39.3198 50.145 39.4656 50.2892C39.2518 50.4057 38.6694 50.9887 39.1258 51.678C39.4656 52.2022 40.1843 52.2502 40.1843 52.2502C40.1843 52.2502 40.0192 52.7263 40.7085 52.6777C42.1939 52.6098 43.8541 51.959 44.6208 52.1241C45.3888 52.3161 45.8253 52.3865 46.3686 53.3286C46.9446 54.2604 47.4464 54.4063 47.4464 54.4063C47.4464 54.4063 47.7863 53.5417 47.7088 52.2508C47.9875 51.555 48.1419 50.8157 48.1651 50.0665L47.6602 46.3481L45.4566 43.5615L42.6023 45.1442L42.3885 45.6972V45.6991Z" fill="#E3C571"/>
<path fill-rule="evenodd" clip-rule="evenodd" d="M45.0969 45.1457C45.0969 45.1457 45.3107 45.6507 46.2041 45.6987C46.1068 45.9124 46.1068 45.9419 46.1363 46.1063C46.1555 46.2715 46.1843 46.514 46.1843 46.514C46.2826 46.4664 46.3716 46.4014 46.4467 46.322C46.4953 46.5358 46.398 46.875 46.4467 47.1182C46.4767 47.2661 46.5255 47.4096 46.592 47.5451C46.6061 47.5119 46.6224 47.4796 46.6406 47.4484C46.6598 47.3998 46.8326 47.9726 47.3107 48.4084C47.3103 48.3414 47.3268 48.2754 47.3587 48.2164C47.366 48.3382 47.4063 48.4556 47.4752 48.5563C47.4394 48.5392 47.4067 48.5163 47.3785 48.4884C47.3785 48.4884 47.4265 50.0244 47.6889 50.8187C47.7328 50.7673 47.7718 50.7121 47.8054 50.6535C47.8054 50.6055 47.7862 51.0811 47.7376 51.4215C47.6697 51.7614 47.7184 52.2369 47.7184 52.2369C47.8934 52.0991 48.0858 51.9848 48.2905 51.8971C48.5817 51.7799 49.0585 51.4209 49.3491 50.6247C49.5176 50.1739 49.6476 49.7095 49.7376 49.2366C49.8314 49.4173 49.8962 49.6117 49.9296 49.8126C49.9494 50.0551 50.4057 49.9291 50.4057 49.9291L50.503 48.8705L51.079 46.4724L51.6032 44.987L54.1273 41.0555L58.688 37.5431L62.6688 38.4558L66.0275 33.8926L60.2412 30.4167L54.7654 30.9895L49.7958 37.8727L45.8156 44.1159L45.0969 45.1451L45.0969 45.1457Z" fill="#D8B65B"/>
<path fill-rule="evenodd" clip-rule="evenodd" d="M73.7767 35.1847C73.7767 35.1847 73.4368 35.2525 72.4563 35.7607C71.4759 36.2688 70.7962 36.4301 70.4173 37.1776C70.0384 37.9252 70.0096 38.5178 70.0096 38.5178C70.0096 38.5178 70.6797 38.2266 71.0682 38.1293C71.4759 38.0327 71.9322 38.0615 71.8835 38.2266C71.8369 38.3398 71.772 38.4447 71.6915 38.537C71.6915 38.537 72.4595 38.5178 72.4391 38.8967C72.4186 39.2756 72.2938 39.6928 72.1485 39.8772C72.0026 40.0692 71.401 40.3533 71.3331 40.5767C71.168 41.033 71.401 41.0522 71.3133 41.4208C71.2455 41.7805 70.9255 42.4794 69.8765 43.7024C68.7987 44.9261 68.3405 45.7901 68.3405 45.7901C68.3405 45.7901 67.8163 44.8096 67.5443 43.9648C67.3523 44.0615 66.3213 44.6343 66.3213 44.6343L63.9328 36.3143L63.9808 35.7607C63.9808 35.7607 64.1946 35.4989 64.2432 35.0132C63.8842 34.8967 63.8355 34.7994 63.3594 34.3437C62.8832 33.888 62.4954 33.3338 61.6999 32.9549C61.5834 32.7412 61.4375 32.4506 60.8551 32.3335C60.2727 32.2164 59.9232 32.1204 59.9232 32.1204C59.9232 32.1204 60.2336 32.0032 60.3795 31.7607C60.0199 31.8093 59.7293 31.9258 58.9427 31.9066C58.1466 31.8868 58.0589 31.858 57.6224 31.9258C57.1859 31.9936 56.6624 32.1882 56.4672 31.5181C56.2535 31.353 55.7971 31.4989 55.4087 32.0711C55.0202 32.6432 54.8845 33.1002 54.137 33.3236C54.0844 33.6531 53.969 33.9694 53.7971 34.2554C53.5834 34.6151 53.2435 34.9741 52.7872 35.5079C52.0685 36.3527 52.185 37.7408 51.0394 38.7994C49.8842 39.8573 51.2314 35.8669 51.2314 35.8669L53.0759 31.4509L58.3283 26.3149L66.4839 25.762L67.28 29.986L71.2608 31.3549L73.7754 35.1898L73.7767 35.1847Z" fill="#D3AE4D"/>
<path fill-rule="evenodd" clip-rule="evenodd" d="M75.0682 36.1165L71.641 31.1751L69.2429 29.33C69.2429 29.33 67.5341 26.185 67.4176 26.0877C67.3203 26.0199 65.7088 25.8452 64.6797 25.7773L64.8717 26.2529C65.0963 26.3258 65.2959 26.4604 65.4477 26.6413C65.904 27.1655 66.1952 28.1556 65.1565 29.2141C65.5642 29.3594 65.7325 29.4061 66.0883 29.3594C65.7293 29.7869 64.9139 30.6996 64.8653 31.4957C64.8167 32.146 65.2243 32.3399 65.2243 32.3399C65.2243 32.3399 64.6029 33.0586 64.5741 34.2599C64.8676 33.929 65.1887 33.6236 65.5341 33.3473C66.2528 32.7713 67.2429 32.1236 67.913 31.7159C67.9038 31.887 67.9268 32.0583 67.9808 32.2209C67.9808 32.2209 69.2327 31.1917 70.2848 31.6481C70.7603 31.8618 70.5466 32.5319 70.5466 32.5319C70.5466 32.5319 71.1975 32.2893 71.6538 32.7457C72.1101 33.202 72.7603 34.3764 73.0906 34.8333C73.2359 35.0471 73.6147 35.4548 74.0026 36.0852C74.5325 36.9688 74.975 37.9021 75.3235 38.8717C75.3427 38.4833 75.4208 37.9399 76.0915 37.9399L75.072 36.1146L75.0682 36.1165Z" fill="#CAA13E"/>
<path fill-rule="evenodd" clip-rule="evenodd" d="M23.6896 50.1554C23.6896 50.1554 23.447 49.5532 23.6896 48.3788C23.9322 47.2044 24.311 46.6508 24.4371 44.9228C24.5632 43.1948 25.6896 41.0393 25.6896 41.0393L28.8058 39.6223L31.0099 40.2239L31.6602 43.1756L28.8736 44.7116C28.8736 44.7116 28.7283 45.3618 27.9418 45.886C27.1552 46.4102 26.0678 46.8178 25.8061 47.3522C25.6496 47.6795 25.5354 48.0253 25.4662 48.3814C25.4662 48.3814 24.6701 48.2162 24.1946 48.7404C23.6896 49.2748 23.7088 49.7503 23.6896 50.158V50.1554Z" fill="#F4EFC8"/>
<path fill-rule="evenodd" clip-rule="evenodd" d="M29.9808 49.3691C29.9808 49.3691 29.7184 49.5342 29.5245 49.9451C29.3325 49.6347 28.8736 47.7896 28.8544 46.1294C28.8352 44.4692 28.736 44.0577 29.12 43.4856C29.504 42.9134 31.0099 42.3105 30.7962 41.2801C30.5824 40.2996 29.689 39.892 28.592 40.1736C27.824 40.3656 27.2525 41.9988 26.4563 42.8142C25.8541 43.4356 25.136 43.3384 24.9421 43.6782C24.6797 44.1345 24.9223 44.5908 24.8448 44.882C24.825 44.9793 24.5824 45.5035 24.1453 46.1345C23.2621 47.4062 21.7671 49.2027 21.5725 50.8142C21.6403 49.9016 21.5923 49.8824 21.8349 48.8724L21.689 48.6299L22.649 45.4843L23.2704 42.8923L24.6592 38.5518L27.1053 34.1153L29.4842 31.4548L31.9597 31.62L32.2509 35.3384L33.6685 42.3195L36.649 45.9892L31.872 49.204L29.9789 49.3691H29.9808Z" fill="#EBCC73"/>
<path fill-rule="evenodd" clip-rule="evenodd" d="M31.4663 50.6879C31.4663 50.6879 31.0586 50.7852 30.9127 50.7078C30.7668 50.6303 30.6221 50.5427 30.6701 50.4454C30.7181 50.3481 30.9805 50.1836 30.9805 50.1055C30.9917 49.9589 30.8843 49.8298 30.738 49.8143C30.5146 49.7855 30.4468 49.9308 30.4468 49.9308C30.4468 49.9308 30.233 49.7663 30.0589 49.7388C30.1619 49.7262 30.2656 49.7196 30.3693 49.719C30.101 49.5975 29.8164 49.5157 29.5245 49.4764C29.7671 49.3311 30.2433 48.9036 30.5537 48.9036C30.8641 48.9036 31.0586 48.8556 31.01 48.6905C30.9613 48.5254 30.7188 48.2828 30.457 48.1855C30.5537 48.0691 30.6221 47.8943 30.3892 47.4175C30.146 46.942 30.2433 46.6214 30.3213 46.5055C30.3892 46.3596 30.6317 46.0979 30.7482 45.9327C30.8647 45.7676 30.962 45.5443 31.1559 45.4278C31.2532 45.3599 31.5636 45.2358 31.8746 45.1174C32.2145 45.0009 32.4961 44.855 32.69 45.0009C32.9037 45.1462 32.8065 45.3407 32.8065 45.3407C32.8065 45.3407 33.4765 45.0975 34.0781 45.4086C34.6804 45.6991 36.1466 45.8841 36.1466 45.8841L36.6721 46.9427L33.1962 49.9231L31.7594 50.6419L31.4682 50.6899L31.4663 50.6879Z" fill="#E5C66B"/>
<path fill-rule="evenodd" clip-rule="evenodd" d="M36.2912 45.8158C36.2912 45.8158 35.2134 46.5345 34.9708 46.7963C35.1161 46.8161 35.3587 46.9134 35.2614 47.0587C35.1449 47.204 34.446 47.7089 34.0576 48.1851C33.6499 48.6606 33.2614 49.2628 33.1257 49.554C32.9804 49.8158 31.8732 50.5832 31.495 50.6798C32.2912 50.6798 33.8931 49.6993 34.4947 49.6993C34.4755 49.9905 34.6598 50.3208 34.9996 50.3496C35.3395 50.3784 36.32 50.5633 37.6403 49.748C38.9606 48.9518 38.5241 48.3592 39.0771 47.9713C40.1356 47.2718 40.5625 46.6504 41.1449 46.2625C41.7273 45.8747 42.0288 45.7864 42.0288 45.7864C42.0288 45.7864 42.048 45.4952 42.2208 45.5246C42.3172 45.5356 42.3995 45.5992 42.4345 45.6897C42.4345 45.6897 43.4444 44.971 44.7385 44.7771C44.7083 44.7636 44.6842 44.7394 44.6707 44.7092C44.6707 44.7092 44.7673 44.6606 44.7872 44.612C44.7872 44.612 44.855 44.5147 44.9036 44.5633C44.9523 44.612 45.0201 44.971 45.1174 45.1169C45.3312 45.0196 45.7388 44.107 45.7388 44.107L46.72 41.3012V38.738L45.952 38.884L40.192 41.33L36.6963 44.9518L36.2886 45.8158H36.2912Z" fill="#E6BD62"/>
<path fill-rule="evenodd" clip-rule="evenodd" d="M52.8736 33.2428C53.1852 33.1672 53.4839 33.046 53.76 32.8831C53.6436 33.1942 53.6436 33.534 53.1386 34.2719C52.6336 35.0099 52.6144 35.1167 52.2068 35.8835C51.7991 36.6796 51.7504 37.8252 51.362 38.3295C51.5361 38.2449 51.7229 38.1894 51.9149 38.1651C51.9149 38.1651 51.5271 38.5049 51.362 38.8639C51.1968 39.223 50.9056 39.9705 50.1876 40.4275C49.4695 40.8844 48.5562 41.175 47.5757 42.2527C46.5946 43.3107 45.5853 44.6508 45.0797 45.1327C45.3421 44.6764 45.7012 43.7638 45.7984 43.1622C45.8957 42.5606 45.7786 41.8412 45.9437 41.0457C46.1088 40.2502 46.1088 39.6767 46.9037 38.2879C47.6986 36.8991 49.0592 32.0742 49.0592 32.0742L51.9911 31.1423L52.8749 33.2396L52.8736 33.2428Z" fill="#B6933F"/>
<path fill-rule="evenodd" clip-rule="evenodd" d="M50.7572 31.4663C50.7572 31.4663 49.874 32.7379 49.6314 33.8643C49.3889 34.9907 49.6116 34.8935 49.4663 35.4471C49.3794 35.7846 49.3794 36.1387 49.4663 36.4762C49.7722 35.9834 50.191 35.5705 50.6881 35.2717C51.5233 34.7674 52.2029 34.4077 52.6081 33.9808C53.0157 33.5245 53.3556 32.777 54.2388 32.2042C53.8797 32.1555 53.3748 31.9904 53.2788 32.0122C53.6385 31.6045 54.7156 30.9831 55.8029 30.2355C56.8807 29.4675 56.8129 29.1578 58.5607 28.3911C57.9879 28.4883 57.7159 28.3424 57.2397 28.3911C57.4317 27.9834 58.1037 27.7888 58.7757 27.1194C59.4477 26.4499 58.3489 25.4592 58.3489 25.4592L53.2289 28.5562L50.7533 31.4688L50.7572 31.4663Z" fill="#C49937"/>
<path fill-rule="evenodd" clip-rule="evenodd" d="M36.864 29.1553L36.9805 28.2234L38.4467 25.874L39.9808 21.7479V16.1069L39.8643 12.8448L40.1069 10.7085L40.2912 10.0295L40.4858 9.76709L41.7376 10.4173L43.4663 12.7668L43.6314 17.3012L41.9514 24.4564L37.1552 29.6896L36.864 29.1553Z" fill="#DFC068"/>
<path fill-rule="evenodd" clip-rule="evenodd" d="M40.6797 9.50453C40.6797 9.50453 39.9117 9.52437 39.7479 12.7186C39.584 15.9129 39.5047 17.5922 39.3882 19.1749C39.2717 20.7577 39.0004 21.7183 38.864 22.6508C38.7277 23.5833 38.6503 24.8543 38.2138 25.6313C38.0218 25.9903 37.6116 27.1167 36.6503 27.9615C35.5725 28.8933 33.9623 29.5442 33.7184 29.5929C33.2909 29.6895 31.1258 29.9033 30.2426 30.389C29.9322 30.5541 29.3978 30.7481 28.8058 31.3017C27.6308 32.3596 26.0679 34.2527 24.9415 36.5343C23.2135 39.9423 21.4855 49.5634 21.4855 49.5634L21.874 48.9132C21.874 48.9132 21.9226 48.0492 22.7866 46.5343C23.6314 45.0201 23.3888 43.3209 24.5632 40.4178C25.0196 39.3113 25.5924 37.8745 26.2912 36.6508C27.3984 34.6604 28.738 32.9516 30.0877 32.0197C32.2912 30.5055 34.7188 30.1753 34.7188 30.1753L37.3306 28.4473C37.3306 28.4473 37.7869 27.5641 38.3892 26.5541C39.2333 25.1372 40.3092 23.5545 40.544 21.2537C40.9037 17.8457 40.0391 15.6127 40.0877 13.5935C40.1364 11.5743 40.1556 10.0889 40.5639 9.72917C40.9722 9.36949 40.6804 9.50581 40.6804 9.50581L40.6797 9.50453Z" fill="#A88F33"/>
<path fill-rule="evenodd" clip-rule="evenodd" d="M40.6797 24.7475C40.6797 24.7475 41.8317 21.9123 42.3591 19.3978C42.4564 18.8928 42.6503 18.3885 42.6989 17.9808C42.9415 15.6019 43.0093 14.6214 42.6989 13.3203C42.4564 12.3603 41.5245 11.495 41.0388 10.8243C40.5633 10.1248 40.3399 9.86432 40.4372 9.71712C40.5345 9.56992 40.9127 9.32928 41.2813 9.35808C42.0732 9.38113 42.821 9.72817 43.3498 10.3181C44.0973 11.1821 44.6893 14.1146 44.6893 14.1146L45.3121 17.984L46.8948 22.8576L40.681 24.7514L40.6797 24.7475Z" fill="#C99E3D"/>
<path fill-rule="evenodd" clip-rule="evenodd" d="M51.5046 21.7965C51.5046 21.7965 51.2908 21.8932 50.903 21.7965C50.9367 22.1197 50.7867 22.4345 50.5145 22.6119C50.1068 22.4468 46.2905 22.777 46.2905 22.777C46.2905 22.777 44.5139 22.466 43.9603 20.1165C43.5724 18.553 44.2515 16.3981 44.0281 14.9805C43.6883 12.8929 43.2128 12.4845 43.1641 11.8349C43.1155 11.1853 43.0668 11.0196 43.0668 10.6119C42.8531 10.5633 42.727 10.4954 42.5139 10.4954C42.4652 10.3034 42.5619 10.1357 42.3488 9.7959C42.4652 9.84454 43.2614 9.94182 44.1932 10.825C44.9612 11.5437 44.9612 11.8055 45.0771 11.9514C45.2224 12.0967 46.3974 13.1034 46.9024 14.1069C47.4073 15.1105 48.3878 18.3105 48.6112 18.8346C48.679 19.0484 48.8249 19.2621 49.1872 19.7473C49.7504 20.4468 50.5753 21.6033 51.5072 21.7953L51.5046 21.7965Z" fill="#B58634"/>
<path fill-rule="evenodd" clip-rule="evenodd" d="M45.2141 12C45.8023 12.9501 46.3306 13.9359 46.7962 14.9517C47.369 16.2426 47.7088 17.3011 48.4276 18.1651C48.0391 17.0394 47.3498 14.8256 46.9421 14.039C46.4858 13.207 45.554 12.311 45.2141 12.0006V12Z" fill="#A88F33"/>
<path fill-rule="evenodd" clip-rule="evenodd" d="M38.6118 27.9616C38.6118 27.9616 37.6313 28.2041 35.8061 29.1654C35.2038 29.4758 34.6317 29.7376 34.0781 29.9808C32.64 30.631 31.0976 31.232 29.8739 31.5635C29.9712 31.68 30.0192 31.728 30.0192 31.728C30.0192 31.728 30.0192 32.2041 30.2816 32.4755C30.1363 32.6214 28.1939 33.9417 28.7673 38.359C29.1552 38.2137 29.6115 38.0192 29.6793 38.0192C29.7965 38.039 29.8253 38.359 29.9705 38.359C30.1158 38.359 30.592 38.167 31.0969 37.5142C31.0777 37.7766 30.7865 40.4173 32.3494 42.1939C32.6406 41.8541 33.3785 40.7277 33.3785 40.7277L33.3977 40.3686C33.3977 40.3686 33.4656 39.1161 33.8739 37.9705C34.2822 36.8249 35.0777 35.9801 35.0777 35.9801L39.232 30.048L38.6105 27.9609L38.6118 27.9616Z" fill="#E6C367"/>
<path fill-rule="evenodd" clip-rule="evenodd" d="M34.7283 36.672C34.5381 36.8064 34.3286 36.911 34.1069 36.9824C34.0391 36.7398 33.9418 35.9046 34.5146 35.0892C35.1847 34.1081 36.6503 32.8364 37.0579 31.8252C37.3203 31.1744 37.2039 29.5436 39.5341 27.456C41.8643 25.3683 42.7763 24.6502 42.7763 24.6502L46.5434 22.7571L51.1744 24.5824L48.8736 33.6L47.0874 37.824L39.9834 36.4844L34.7277 36.672H34.7283Z" fill="#DCBA5A"/>
<path fill-rule="evenodd" clip-rule="evenodd" d="M37.4399 34.2234L38.3238 33.1168V32.3303C38.3238 32.3303 39.3043 32.0679 40.3622 30.9901C41.4201 29.9124 42.8863 27.8445 44.1779 27.9706C45.4694 28.1165 45.5955 30.7764 45.6441 31.5245C45.6927 32.2727 45.8579 33.9706 46.1196 34.8839C46.4108 35.7965 42.974 39.2525 42.974 39.2525L40.6399 41.0292L37.4399 34.2234Z" fill="#E9CE77"/>
<path fill-rule="evenodd" clip-rule="evenodd" d="M40.1747 43.4368C40.1747 43.4368 40.8934 42.3104 40.3667 42.0678C40.6771 41.369 41.2499 40.631 41.2499 40.631C41.2499 40.631 41.6576 39.6218 42.9779 38.3789C44.2982 37.136 45.1142 36.3104 45.328 35.4758C45.4597 34.9319 45.5314 34.3752 45.5417 33.8157C45.6845 33.9323 45.8372 34.0362 45.998 34.1261C46.2118 34.2234 47.2211 35.0579 47.0758 36.7379C46.9305 38.4179 46.3078 39.1168 46.3078 39.1168C46.3078 39.1168 45.7062 39.7184 45.2793 40.0294C44.8224 40.3398 44.6579 40.6989 43.8905 40.7283C43.9694 40.6656 44.058 40.6163 44.1529 40.5824C44.1529 40.5824 43.3568 40.4858 42.9292 40.8736C42.5017 41.2614 41.5929 42.4563 41.1366 42.816C40.6803 43.1072 40.1766 43.4374 40.1766 43.4374L40.1747 43.4368Z" fill="#CDAE50"/>
<path fill-rule="evenodd" clip-rule="evenodd" d="M72.4563 24.5529C71.3093 24.1349 70.1039 23.8991 68.8839 23.8541C66.8448 23.7862 63.8643 23.9027 60.9421 23.9219C57.7965 23.9411 54.9421 22.8442 50.9811 22.6502C50.3309 22.2617 48.6771 20.5626 43.5149 24.1645C43.8253 24.1453 47.2627 23.3683 48.4563 24.864C49.6602 26.3494 49.3203 28.8736 49.1559 29.4752C48.8448 30.8154 47.8349 32.7667 47.4279 34.1357C47.0208 35.5046 47.1168 36.224 46.8256 37.184C46.5344 38.144 45.8938 38.6208 46.272 39.7274C46.777 39.417 47.04 39.417 47.8835 37.5238C48.7271 35.6307 48.5536 34.281 49.952 32.679C51.321 31.0675 53.6 28.8633 54.4666 28.3098C55.3331 27.7562 62.2138 24.1837 69.4183 27.5917C71.1559 27.4074 72.457 24.5523 72.457 24.5523L72.4563 24.5529Z" fill="#D2A83E"/>
<path fill-rule="evenodd" clip-rule="evenodd" d="M46.4173 23.2321C46.4101 23.1592 46.394 23.0874 46.3693 23.0184C46.3019 22.8764 46.2134 22.7454 46.1069 22.6299C46.1069 22.6299 44.3981 22.3195 43.5341 22.4161C42.0192 22.5812 40.6502 24.4552 40.0096 25.4164C39.3689 26.3777 38.5728 27.8625 37.7088 28.6299C37.7182 28.5551 37.701 28.4794 37.6601 28.4161C37.6601 28.4161 37.7088 28.484 37.6121 28.5812C37.5155 28.6785 37.5149 28.7265 37.5635 28.7732L37.7094 28.9185C37.7574 28.9185 39.0976 28.3163 40.9229 26.6145C42.8646 24.8379 44.3501 23.9265 45.127 23.6142C45.5414 23.4381 45.9745 23.3099 46.4179 23.2321H46.4173Z" fill="#C29637"/>
<path fill-rule="evenodd" clip-rule="evenodd" d="M79.5635 15.9321C79.5635 15.9321 79.2524 16.32 78.864 16.7475C78 17.6601 76.8736 18.6886 75.9123 19.7472C75.0003 20.7571 73.9712 21.5436 72.8153 22.864C71.6595 24.1843 70.3193 25.6499 69.9801 26.0774C69.6697 26.5049 69.4272 27.2038 69.4272 27.5628C69.262 27.4464 69.0681 27.3203 69.0681 27.3203C69.1498 27.4727 69.2474 27.616 69.3593 27.7478C69.6019 28.0876 69.9801 28.5158 70.1747 28.7769C70.4134 29.1093 70.5847 29.4853 70.679 29.8835C70.7955 29.9027 71.543 30.0486 72.4755 28.5145C73.408 26.9804 74.6304 25.3011 74.6304 25.3011L76.5721 22.4172L77.7958 19.9712L79.3318 17.2332L79.5654 15.9321H79.5635Z" fill="#AC8132"/>
<path fill-rule="evenodd" clip-rule="evenodd" d="M81.554 13.9712C81.554 13.9712 80.3789 14.9312 79.9226 15.5072C79.4663 16.0832 78.3866 17.5949 78.3866 17.5949L78.7751 17.5462L80.7463 15.799L81.5143 14.4301L81.5533 13.9738L81.554 13.9712Z" fill="#A88F33"/>
<path fill-rule="evenodd" clip-rule="evenodd" d="M81.1942 91.1264C81.1942 91.1264 81.175 90.3303 81.6217 89.8548C82.078 89.3786 83.2332 88.6797 84.3596 86.0583C85.486 83.4368 85.6115 82.8448 85.6115 82.8448C85.6115 82.8448 83.5923 84.5728 82.3475 84.9805C82.6387 84.3783 82.8038 83.9514 82.9497 83.6404C82.7846 83.4951 82.0857 83.33 82.0179 83.2525C82.4057 82.864 82.6195 81.9124 83.406 81.2813C84.416 80.5133 86.2604 79.1936 87.694 78.0173C89.1276 76.841 91.9462 74.105 92.3059 73.3088C92.5196 73.6192 92.5676 73.8132 92.5676 73.8132C92.5676 73.8132 91.1507 75.6583 90.4128 76.8327C89.7619 77.8426 89.8105 78.4154 89.8105 78.4154L91.1507 77.8394C91.1507 77.8394 91.5385 79.2762 89.7817 81.4612C90.5497 81.17 90.8595 81.3447 91.296 81.1015C90.5772 81.5584 89.5872 82.1799 88.6553 83.888C87.7427 85.5968 86.4998 87.5872 84.4032 88.8295C82.3641 90.1402 81.1891 91.1207 81.1891 91.1207L81.1942 91.1264Z" fill="#A67A2E"/>
<path fill-rule="evenodd" clip-rule="evenodd" d="M75.9322 25.5635C75.9322 25.5635 75.136 27.2231 75.0195 28.5146C75.0003 28.8256 74.9222 29.0682 74.9222 29.4272C74.903 30.5824 74.9901 31.8739 74.7302 32.4755C74.633 32.233 74.5843 32.0679 74.487 31.9712C74.3418 32.3789 74.0794 33.6506 73.8656 34.1261C73.769 33.8157 73.5552 32.7379 73.575 31.4663C73.5949 30.1946 73.623 29.9514 73.623 29.6896C73.575 30.0775 73.3126 30.6023 73.2154 30.9127C73.0701 30.6509 72.905 30.3111 72.7104 30.0295C72.5939 30.2215 72.4486 30.505 72.3226 30.6509C72.3027 30.5344 72.2547 30.2234 72.2253 29.7869C72.2061 29.2819 72.1766 28.6317 72.2061 28.4954C72.2541 28.2336 72.6624 27.2045 73.5264 26.2624C74.5555 25.136 75.6141 22.9715 75.9245 22.3015C76.2349 21.6314 77.5552 18.8455 77.5552 18.8455H78.5651L77.0989 22.185C77.0989 22.185 76.2157 24.0103 75.7594 24.681C75.303 25.3517 74.3418 27.2736 73.9142 28.0211C74.2246 27.6135 74.487 27.3997 74.7981 27.0112C75.0989 26.7392 75.9334 25.5648 75.9334 25.5648L75.9322 25.5635Z" fill="#8C6228"/>
<path fill-rule="evenodd" clip-rule="evenodd" d="M81.5731 13.8445C81.4082 14.3522 81.1475 14.8236 80.8051 15.2333C80.2029 15.952 78.9114 16.9126 78.281 17.6794C77.705 18.4269 76.553 20.4659 77.0765 22.8832C77.2685 22.359 77.6301 21.3203 78.5914 20.1453C79.5526 18.9702 80.5818 17.6211 81.0874 16.5728C81.5917 15.5142 81.6595 14.6797 81.6595 14.6797L81.8515 14.4371L81.735 13.8835L81.5699 13.8445L81.5731 13.8445Z" fill="#CBA94C"/>
<path fill-rule="evenodd" clip-rule="evenodd" d="M101.233 78.2425C101.233 78.2425 100.845 77.1846 100.728 76.2233C100.612 75.262 100.92 75.0713 100.563 73.9712C100.349 73.3011 99.9616 73.3952 99.8643 73.3011C99.767 73.207 99.6992 72.1945 99.7184 71.6409C99.7376 71.0873 99.6992 70.3692 99.6019 70.0582C99.4566 69.9417 99.3593 69.8444 99.1456 69.1264C98.903 68.4076 98.7865 68.0486 98.67 67.8355C98.5536 67.6224 98.2131 67.4278 98.2131 67.214C98.2131 66.7865 98.6016 66.5638 98.6016 66.446C98.5824 66.2035 98.2912 66.398 98.2131 66.3296C98.1164 66.2131 98.4563 65.5142 98.3302 65.4169C98.2816 65.3689 97.9417 65.7766 97.854 65.6601C97.7568 65.543 97.6403 64.3878 97.4656 63.6211C97.3011 62.8736 97.1257 62.3302 97.1065 62.1068C97.0873 61.8931 95.7664 58.126 95.4464 57.2134C95.1885 56.4422 94.9714 55.658 94.7961 54.864C94.6988 54.4076 94.631 53.4752 94.5824 53.5724C94.5337 53.6697 94.5632 54.1452 94.4851 54.126C94.4172 54.1062 94.1747 52.4467 94.0972 52.1843C94.0294 51.9219 93.6211 51.0323 93.5212 50.3884C93.424 49.7376 93.2108 48.0384 93.0649 46.8832C92.919 45.728 92.8512 45.2524 92.8512 44.9632C92.875 44.2556 92.836 43.5473 92.7347 42.8467C92.5427 41.623 92.1587 40.1376 91.822 39.2742C91.1718 37.6428 89.4432 33.4681 89.134 32.4294C89.134 32.167 89.4739 32.3129 89.4739 32.3129C89.4739 32.3129 90.318 34.4294 90.9395 36.0601C91.5417 37.6915 92.1145 39.1283 92.2604 39.2742C92.3769 39.4195 93.2896 41.0214 93.6972 43.6428C94.1049 46.2643 94.2502 48.6816 94.4934 50.2931C94.6099 51.0611 94.7072 51.8758 94.9497 52.6912C95.2115 53.575 95.6192 54.4876 96.1536 55.8854C96.6099 57.0604 96.9497 58.0409 97.134 58.8857C97.3478 59.9635 97.3478 60.7788 97.4739 61.3132C97.591 61.7696 97.7651 62.6816 98.1734 64.0012C98.5817 65.3209 99.1827 67.0208 99.5904 68.0787C100.387 70.1952 100.742 71.9622 100.863 72.9043C100.969 73.8752 101.329 77.2345 101.231 78.2438L101.233 78.2425Z" fill="#A88F33"/>
<path fill-rule="evenodd" clip-rule="evenodd" d="M81.6217 13.7281L81.5731 13.8446C81.5731 13.8446 81.7184 13.8932 81.6896 14.0878C81.6916 14.3539 81.6754 14.62 81.6409 14.8839C81.5929 15.2238 81.4956 15.4855 81.4764 15.6993C81.4764 16.1556 81.5443 16.6798 80.9004 17.9809C80.7084 18.3399 80.59 18.6503 80.4928 18.8641C80.2502 19.3882 80.2016 19.4663 79.9878 19.7089C80.3276 19.5169 81.5513 18.7489 82.1721 18.8641C81.7452 19.1066 81.0944 19.5828 80.6867 20.2042C80.784 20.2234 81.1916 20.3015 81.8387 20.2042C82.9164 20.0391 84.1203 19.6506 85.1782 19.7281C86.334 19.7959 85.8777 18.3399 85.8777 18.3399L84.544 15.4081L82.0198 13.6321L81.6217 13.7287V13.7281Z" fill="#BE9C44"/>
<path fill-rule="evenodd" clip-rule="evenodd" d="M88.2041 35.6897C88.2041 35.6897 87.0777 34.5633 86.6214 30.6977C86.1651 26.8142 86.2624 21.0977 86.2624 21.0977L85.3497 18.8647C85.3497 18.8647 85.1577 17.3793 84.6797 16.8263C84.2016 16.2734 83.2627 15.3409 82.8352 14.8846C82.4077 14.4283 81.9225 13.8068 81.6313 13.7095C81.7766 13.467 82.4275 12.098 84.9222 12.0788C87.4169 12.0596 88.1862 13.4478 88.4467 13.9527C88.7072 14.4577 89.8835 16.6407 90.32 20.8007C90.7277 24.9556 90.7475 25.2667 90.6797 26.7035C90.631 27.4996 90.3686 29.3441 89.9117 31.3146C89.4944 32.9851 89.0381 34.8494 88.2029 35.6935L88.2041 35.6897Z" fill="#A17C34"/>
<path fill-rule="evenodd" clip-rule="evenodd" d="M84.672 39.0003C85.0474 39.0274 85.4224 38.9428 85.7497 38.7571C86.1088 38.7379 87.4099 38.903 88.4096 37.6313C88.4774 37.9219 88.6528 38.7091 88.1958 39.408C88.439 39.1648 88.7981 39.0681 88.8467 39.0003C88.8659 39.3593 89.2057 40.4659 87.7689 43.1552C88.1568 42.7283 88.6131 42.7475 89.0208 42.6989C89.0406 43.2038 89.312 44.9024 88.5939 45.8157C88.1184 46.4371 87.3414 46.2425 87.3414 46.2425C87.3528 46.1069 87.3528 45.9705 87.3414 45.8349C87.3222 45.5725 87.2249 45.3107 87.2934 45.136C86.918 44.9645 86.576 44.7276 86.2835 44.4365C85.4387 43.6403 84.3417 42.2816 84.2643 41.2717C84.167 40.1453 85.1769 39.9027 85.1769 39.9027C85.0923 39.827 85.0202 39.7385 84.9632 39.6403C84.9145 39.4758 84.8659 39.2134 84.672 39.0003Z" fill="#8C6228"/>
<path fill-rule="evenodd" clip-rule="evenodd" d="M77.1839 26.7866C77.1839 26.7866 77.1353 26.7188 76.8735 27.0292C76.9222 26.7188 76.9708 26.4269 76.99 26.1453C77.1139 25.8846 77.2742 25.6429 77.4662 25.4273C77.3203 25.7178 77.223 25.9802 77.223 25.9802C77.223 25.9802 77.5827 25.3101 78.1068 24.9025C78.4659 24.6113 78.9222 24.4756 79.1161 24.2036C79.3299 23.9124 79.2812 23.8637 79.3299 23.8151C79.3299 23.8151 79.806 23.5047 80.5343 22.5914C80.631 22.4749 80.7769 22.3489 80.8742 22.2324C81.0387 22.1645 81.4271 21.9898 81.8835 21.7562C82.3596 21.4945 82.8934 21.1354 83.2236 20.9882C83.8739 20.697 84.5638 20.7265 84.8838 20.2695C85.1263 20.2017 85.3881 19.4733 85.3401 18.8525C85.6991 18.9978 87.5436 20.1434 88.1753 22.6484C88.6316 24.425 87.8156 27.1629 87.4758 28.4839C87.1359 29.8049 87.0879 30.7847 86.6118 31.3863C86.0095 32.1831 84.0684 33.3063 83.5923 33.8625C83.1846 34.3188 81.9615 35.474 82.0095 36.3085C82.0582 36.93 82.8249 37.2685 82.9907 37.3863C83.1564 37.5041 83.1551 37.6487 83.4662 37.5783C83.7772 37.5079 83.8931 37.3645 84.0198 37.3645C84.1651 37.3837 84.1651 37.4132 84.2329 37.4132C84.2821 37.4117 84.331 37.4051 84.3788 37.3933C84.3788 37.3933 84.3302 38.2772 82.2623 38.5453C82.1164 38.5652 81.9711 38.6132 81.7862 38.6426C82.0294 38.5261 82.1747 38.5261 82.4371 38.1671C82.1459 38.1185 81.3107 38.0698 81.0969 38.002C81.1647 37.8855 81.3881 37.5745 81.5724 37.4292C81.7375 37.2839 81.5532 37.2372 81.4079 37.3127C81.1578 37.4829 80.9178 37.6675 80.6892 37.8657C80.4467 38.0794 80.2329 38.3706 79.8444 38.6337C79.7279 38.2452 79.7471 37.5073 80.2041 36.9735C80.087 36.9927 79.8636 37.3325 79.6505 37.2647C79.612 36.9106 79.6349 36.5525 79.7183 36.2061C79.8348 35.769 80.4659 35.0023 80.4659 35.0023L83.5142 29.5553L84.1644 25.4292L77.1839 26.7853V26.7866Z" fill="#92723A"/>
<path fill-rule="evenodd" clip-rule="evenodd" d="M77.0195 27.0196C77.0195 27.0196 76.8544 27.1361 77.1846 27.3594C77.136 27.4273 77.0195 27.6698 76.8736 27.835C76.7091 28.027 76.5337 28.146 76.4659 28.3111C76.3206 28.651 76.2041 28.8839 76.2041 29.0298C76.2041 29.1758 76.1555 30.1076 75.7478 30.7092C75.6019 30.923 75.4368 31.282 75.3203 31.5246C75.0777 31.9514 74.864 32.2926 74.8153 32.4846C74.7187 32.8244 74.6508 33.7562 74.6508 33.7562C74.6508 33.7562 74.8646 33.4938 74.942 33.3972C74.8249 33.6398 74.6988 33.9015 74.5145 34.0961C74.631 33.9988 74.9708 33.7562 75.5436 33.2513C76.3398 32.5818 77.5827 31.4554 79.0976 30.5633C78.6406 30.7284 78.2528 30.7284 77.9424 30.777C78.1849 30.5345 80.3692 27.9713 81.5148 27.7287C81.5844 27.6405 81.619 27.5298 81.6121 27.4177L80.631 27.321L78.6406 27.7479L78.35 26.2119L77.0195 27.0177V27.0196Z" fill="#B18E3E"/>
<path fill-rule="evenodd" clip-rule="evenodd" d="M80.185 35.7575C80.185 35.7575 79.9226 36.0192 79.68 36.6701C79.4933 36.4751 79.3332 36.2563 79.2038 36.0192C78.8448 35.4176 78.2918 34.6503 77.0003 35.0874C76.9811 34.6797 76.9517 34.466 77.0003 34.1748C77.2141 34.1268 77.8643 33.6026 78.5146 32.8352C78.9715 32.3111 79.3984 31.7088 79.6896 30.9421C79.8816 30.7962 80.2138 30.5536 80.6496 30.272C81.271 29.8452 82.0186 29.2621 82.135 28.6119C81.8438 28.7284 81.2224 29.0196 80.2899 28.9716C80.6496 28.8064 81.2026 28.6317 81.1347 27.913C81.2806 27.8157 81.3971 27.7479 81.3971 27.7479C81.2877 27.7114 81.1726 27.6949 81.0573 27.6992C81.0374 27.6314 81.0086 27.5348 80.8435 27.5828C80.6784 27.6308 80.6515 27.6314 80.6298 27.6992C80.5619 27.7191 80.3386 27.6992 80.1734 27.8164C80.0083 27.9335 79.552 28.3207 79.3773 28.3885C79.4451 28.272 79.5418 28.098 79.5418 28.098C79.5418 28.098 79.0662 28.146 78.7264 28.29C78.105 28.5037 77.3869 28.8922 76.6586 29.2704C76.7264 29.154 76.7558 29.0784 76.8038 29.0567C76.8518 29.0349 76.969 29.0087 76.969 28.9888C76.969 28.969 76.921 28.7968 76.9498 28.7271C77.1675 28.2658 77.4244 27.8241 77.7178 27.4068C78.0576 26.9498 78.1254 26.2996 78.1254 26.2996L79.6109 25.552L83.7856 24.592L86.4947 24.7572L86.1549 26.6311L84.5549 29.9028L83.1859 32.8832L81.6224 34.7092L80.1856 35.7575H80.185Z" fill="#543E26"/>
<path fill-rule="evenodd" clip-rule="evenodd" d="M86.9517 27.648C86.9517 27.648 85.3204 29.6672 84.864 29.9783C85.1552 29.3568 86.9517 25.6576 87.602 24.6285C87.4567 24.512 87.2621 24.512 87.7184 22.7085C87.3306 23.6205 87.1943 24.0967 86.8743 24.3392C86.5543 24.5818 86.5146 24.5043 86.2983 24.5043C86.3391 24.4304 86.3559 24.3457 86.3463 24.2618C86.3463 24.2618 84.9773 24.0967 84.0423 24.0967C83.1072 24.0967 81.2564 24.6016 80.2266 25.0093C79.4112 25.3491 78.9549 25.3491 78.6637 25.5623C78.3725 25.8048 78.2074 26.0672 78.0615 26.1351C77.945 26.2029 77.392 26.3776 77.2653 26.5619C77.1488 26.7539 76.9549 26.9696 76.9549 27.0183C76.9549 27.0669 76.9063 27.1354 77.0522 27.0861C77.1002 27.0669 77.4599 26.8723 77.8676 26.6298C78.4205 26.3194 79.0906 25.9603 79.5764 25.7466C80.9645 25.193 81.4016 25.2903 82.0224 25.1738C82.6727 25.0573 83.6052 24.7853 84.226 24.7853C84.8474 24.7661 86.0224 24.7853 86.2944 24.8339C86.178 24.9312 86.0807 25.0477 86.1293 25.4554C86.1293 25.5719 86.032 25.6979 85.9373 25.9795C85.6468 26.7757 85.0932 28.096 84.7853 28.7661C84.3584 29.6781 83.8733 30.4455 83.6333 30.921C83.3933 31.3965 82.8653 32.649 82.3424 33.3191C81.8196 33.9891 81.5463 34.3968 81.3824 34.5427C81.2186 34.6887 80.0423 35.552 80.13 35.8631C80.3437 35.7952 81.6935 35.2871 82.6733 34.1837C83.6532 33.0803 83.8484 32.4071 84.6151 31.8048C85.3818 31.2026 85.984 30.1933 86.3431 29.3587C86.6439 28.5818 86.576 28.3392 86.9543 27.6499L86.9517 27.648Z" fill="#806031"/>
<path fill-rule="evenodd" clip-rule="evenodd" d="M51.7964 42.7188C51.7964 42.7188 51.5827 43.602 51.0969 44.0391C50.6214 44.4667 49.7766 44.8353 49.68 45.554C49.5635 46.2721 50.5248 46.6318 50.5248 46.6318C50.5248 46.6318 50 47.4958 50 48.146C50 48.8161 49.9808 48.9422 50.0486 49.5828C49.9716 49.6323 49.9061 49.6978 49.8566 49.7748C49.8566 49.7748 49.9046 50.3963 50.3808 50.7841C50.8569 51.1719 51.264 51.4055 51.5065 51.3083C51.5436 51.3874 51.576 51.4686 51.6038 51.5515C51.6038 51.5515 51.9635 50.6388 52.206 49.8427C52.4486 49.0273 52.6624 49.1431 52.759 48.0462C52.8556 46.9492 53.911 45.0657 53.911 45.0657L54.631 43.4561L53.4566 42.5435L51.7964 42.7182V42.7188Z" fill="#B6903C"/>
<path fill-rule="evenodd" clip-rule="evenodd" d="M53.9808 44.3008C53.7386 44.5494 53.5151 44.8155 53.312 45.0969C53.0016 45.5245 52.759 45.9123 52.3027 46.0781C51.8464 46.2438 51.5552 46.2425 51.584 46.6995C51.6128 47.1565 52.0403 47.3497 52.2829 47.5827C52.5453 47.8253 52.759 48.2329 52.6425 48.6899C52.7878 48.6221 53.0502 48.544 53.2928 48.0198C53.5353 47.4957 55.232 44.3014 55.232 44.3014H53.9808V44.3008Z" fill="#685026"/>
<path fill-rule="evenodd" clip-rule="evenodd" d="M60.672 36.9318C60.672 36.9318 60.8173 36.544 60.672 36.2624C60.5261 35.9712 59.6429 35.8739 59.2058 35.5437C58.7494 35.2038 58.1958 34.9677 57.7395 35.1168C57.8074 34.9517 58.0794 34.592 57.856 34.5145C57.6422 34.4467 56.8467 34.8057 56.633 34.9709C56.4192 35.136 55.9334 35.3299 55.8368 35.447C55.7402 35.5641 55.5744 35.7869 55.4771 35.6896C55.3798 35.6217 55.3318 35.447 55.1667 35.5437C55.0016 35.6403 54.2067 36.2912 54.0602 36.6701C53.9136 37.0489 53.584 37.8937 52.5939 38.8544C51.6038 39.815 51.1763 40.4371 51.4675 40.7961C51.7587 41.1552 51.895 40.8934 51.9437 41.2038C51.9811 41.5085 51.9646 41.8174 51.895 42.1165C51.7786 42.6214 51.5846 43.0969 51.8464 43.1942C52.5165 43.408 53.1674 43.0022 53.3126 43.1264C53.6038 43.3881 53.1475 44.3302 53.8368 44.5145C54.5363 44.7065 55.2256 44.3494 55.2256 44.3494L57.769 42.9805L60.2157 41.6896L61.4675 39.2134L60.7962 37.1456L60.6682 36.9318H60.672Z" fill="#D4B968"/>
<path fill-rule="evenodd" clip-rule="evenodd" d="M58.2719 42.8449C58.2719 42.8449 57.8444 42.1947 58.3692 41.6212C58.894 41.0478 59.6409 40.8059 59.9321 40.4468C59.8767 40.3784 59.8023 40.3279 59.7183 40.3015C59.9116 39.9557 60.2066 39.6775 60.5631 39.5047C60.4179 39.3595 60.2233 39.243 60.0102 39.243C59.534 39.243 59.2422 39.5342 58.8057 39.5342C58.3788 39.5342 58.3302 39.3204 58.3302 39.3204C58.3302 39.3204 59.0489 39.2526 58.9804 38.9319C58.9126 38.5921 58.7884 38.5921 58.7884 38.5921C58.7884 38.5921 60.1766 38.0161 60.4191 37.7089C60.6617 37.4017 60.6329 37.0388 60.6815 36.8935C60.846 36.8935 61.8073 36.3886 62.1958 36.6023C62.5843 36.8161 62.3123 37.3985 62.3123 37.3985C62.3123 37.3985 63.4879 36.5147 64.087 35.6481C64.6111 35.6967 64.855 35.2891 65.239 35.2891C65.7151 35.2891 66.4627 35.9393 66.608 37.3275C66.7052 38.1236 66.8505 38.5799 66.7052 39.9879C66.6374 40.7841 66.6566 42.4839 66.8972 43.3275C67.0617 43.9975 67.4502 43.9297 67.4502 43.9297C67.3906 44.1339 67.2724 44.3161 67.1103 44.4539C66.8479 44.6964 66.8191 45.3377 66.8479 45.5803C66.8866 45.7576 66.9354 45.9326 66.9939 46.1044C66.9939 46.1044 66.6835 46.4635 66.6054 46.7067C66.5375 46.9492 66.2175 47.1143 65.9839 47.1143C65.7503 47.1143 65.8675 47.0945 65.5571 47.1143C65.2467 47.1342 65.1494 47.1822 64.9548 47.1143C64.7603 47.0465 64.615 46.9684 64.6931 46.3463C64.7609 45.7249 62.295 44.2785 62.295 44.2785L58.263 42.8417L58.2719 42.8449Z" fill="#CCA849"/>
<path fill-rule="evenodd" clip-rule="evenodd" d="M53.641 48.9805C53.641 48.9805 54.5242 50.1555 58.1556 50.1555C59.8836 50.1555 60.4858 49.9904 60.8436 49.8931C61.2321 49.7958 62.6881 49.2237 64.1543 47.495C65.4746 45.9322 65.1834 45.2915 65.1834 45.2915L64.4154 45.175L61.9194 45.5149L54.5338 48.6605L53.6378 48.9805H53.641Z" fill="#585136"/>
<path fill-rule="evenodd" clip-rule="evenodd" d="M56.3495 49.2718C56.3495 49.2718 53.2039 49.9713 53.2039 47.9809C53.2039 46.0391 55.1456 44.0001 55.6314 43.641C56.1363 43.2814 57.3402 42.873 57.3402 42.873H60.2432L60.7962 44.3393L60.5536 47.5041L56.3495 49.2711V49.2718Z" fill="#252211"/>
<path fill-rule="evenodd" clip-rule="evenodd" d="M59.2525 43.4662C59.2525 43.4662 58.6509 42.9126 57.282 43.6582C55.913 44.4038 54.8058 45.9622 54.738 47.3773C54.6701 48.6291 55.7671 49.5616 57.4759 49.6102C58.7476 49.6582 59.5149 49.513 59.9034 49.4182C59.8061 49.3018 59.3012 48.6707 59.3012 48.6707L59.2532 43.4669L59.2525 43.4662Z" fill="#C3B378"/>
<path fill-rule="evenodd" clip-rule="evenodd" d="M58.6605 43.7759C58.6605 43.7759 58.5152 43.6595 58.0845 43.8924C57.7254 44.0844 57.2013 44.5919 56.7936 44.951C56.5312 45.1647 56.3661 45.2614 56.2176 45.4265C55.6153 46.1452 55.1104 47.3203 55.4022 47.9027C55.6941 48.4851 56.6547 49.1551 59.1014 48.6988L58.6534 43.7766L58.6605 43.7759Z" fill="#E6D89C"/>
<path fill-rule="evenodd" clip-rule="evenodd" d="M57.8643 44.9806C57.8643 44.9806 57.4758 45.5828 57.4758 46.5441C57.4758 47.5246 58.0294 49.0874 60.0685 49.2039C61.6314 49.3012 62.6797 46.9518 63.8157 46.0391C64.6797 45.3402 65.2038 45.3204 65.2038 45.3204C65.2038 45.3204 64.3206 44.3604 61.9616 43.1169C59.6314 41.8644 57.0195 41.6993 55.6019 43.6218C56.272 43.5732 58.4371 43.0196 58.4371 43.0196L59.4957 43.3594L57.8643 44.9812V44.9806Z" fill="#252211"/>
<path fill-rule="evenodd" clip-rule="evenodd" d="M60.9126 46.2521C60.8448 46.1068 60.7961 45.9123 61.0777 45.8643C61.3593 45.8163 61.4854 45.8444 61.5827 46.0563C61.68 46.2681 61.7747 46.4447 61.6307 46.5324C61.4854 46.6099 61.1065 46.5324 60.912 46.2508L60.9126 46.2521ZM60.4563 44.8831C60.4563 44.8831 60.359 44.951 60.4077 44.8153C60.4269 44.6508 60.5536 44.359 60.864 44.4275C61.1744 44.4959 61.1072 44.8351 61.056 44.9324C61.0048 45.0297 60.7456 45.1942 60.551 45.1244C60.501 45.1116 60.4601 45.0757 60.4408 45.0278C60.4216 44.9799 60.4264 44.9257 60.4537 44.8819L60.4563 44.8831Z" fill="#6F674D"/>
<path fill-rule="evenodd" clip-rule="evenodd" d="M34.176 45.5039C34.176 45.5039 34.944 46.0799 35.8362 46.0575C36.7194 46.0377 37.8554 45.1257 38.3795 44.5426C38.6899 44.2028 38.9555 43.8438 39.2435 43.5622C39.4867 43.3196 39.6512 43.2031 39.7677 43.038C39.9328 42.846 40.1075 42.485 40.1952 42.3679C39.9815 42.533 39.6711 42.8249 39.3504 43.0188C39.04 43.2108 38.3699 43.5718 38.0979 43.669C37.8362 43.7663 35.1175 45.205 35.1175 45.205L34.176 45.5039Z" fill="#AC924C"/>
<path fill-rule="evenodd" clip-rule="evenodd" d="M35.3497 38.3302C35.3497 38.3302 35.7766 38.039 36.6022 37.854C37.3984 37.662 39.0003 37.5142 39.0003 37.5142L40.3206 38.0902L40.8448 40.0806L39.8848 42.149L38.6617 42.917L37.2729 40.6841L35.3529 38.334L35.3497 38.3302Z" fill="#9F8E57"/>
<path fill-rule="evenodd" clip-rule="evenodd" d="M33.6218 40.1068L33.1648 40.4479C33.1648 40.4479 33.2819 40.2341 33.3786 39.5839C33.4752 38.9337 33.9808 37.3509 34.7187 36.4383C35.4566 35.5257 35.4374 35.5743 35.4374 35.5743C35.3001 35.5492 35.1585 35.5844 35.049 35.6709C35.1462 35.4559 35.7677 34.6879 36.3891 34.3039C37.0106 33.9199 37.2531 33.7989 37.9034 34.1119C38.5536 34.4249 38.7187 34.5874 39.1949 34.5682C39.671 34.549 40.0781 34.0441 40.0781 34.0441C40.0781 34.0441 40.1754 34.3545 39.8163 35.0732C39.4573 35.7919 38.0397 37.2575 38.0397 37.2575L35.088 39.2767L33.6218 40.1087V40.1068Z" fill="#EAC970"/>
<path fill-rule="evenodd" clip-rule="evenodd" d="M35.8054 38.0877C35.8054 38.0877 37.9417 38.3789 38.592 37.7773C38.6112 37.8451 38.6893 37.8451 38.6893 37.8938C38.684 37.9304 38.6669 37.9644 38.6406 37.9904C38.7113 37.9791 38.7828 37.9727 38.8544 37.9712C38.9399 37.9967 39.0278 38.013 39.1168 38.0198C39.1884 38.0183 39.2598 38.0117 39.3305 38C39.3169 38.0975 39.2642 38.1853 39.1846 38.2432C39.2819 38.2432 39.3766 38.2624 39.3766 38.3398C39.3766 38.4173 39.3958 38.6509 39.2793 38.6995C39.1828 38.7262 39.0801 38.7192 38.9881 38.6797C38.9958 38.8635 39.0458 39.0431 39.1341 39.2045C39.3261 39.5635 39.7357 39.9725 40.2861 39.8547C40.2861 39.8547 40.5766 40.5536 39.3536 42.1069C39.1891 42.3206 39.0137 42.6118 38.8006 42.8544C38.7164 43.038 38.652 43.23 38.6086 43.4272C38.6086 43.4272 40.6771 42.631 41.2691 40.8154C41.8713 38.9901 41.9878 37.1942 41.8713 35.5149C41.8515 35.0387 41.7741 34.6995 41.6576 34.4563C41.3664 33.8541 40.5504 33.9514 40.2208 34.2912C39.7446 34.7674 38.9485 35.9514 37.8419 36.7667C36.7155 37.5821 36.6675 37.7267 35.8029 38.0877H35.8054Z" fill="#D7BC6B"/>
<path fill-rule="evenodd" clip-rule="evenodd" d="M33.2428 40.7092C33.2428 40.7092 32.8352 40.9518 32.6214 41.8612C32.4076 42.7931 32.8134 43.9291 33.0483 44.2881C33.2832 44.6472 33.8163 45.6283 34.9222 45.6769C35.1959 45.6755 35.4666 45.6193 35.7184 45.5118C36.1044 45.3348 36.4666 45.1096 36.7961 44.8417C37.2723 44.4827 37.6601 44.1723 37.6115 44.1428C37.495 44.0942 34.6796 41.764 34.6796 41.764L33.6211 40.5825L33.2422 40.7105L33.2428 40.7092Z" fill="#585136"/>
<path fill-rule="evenodd" clip-rule="evenodd" d="M35.9041 44.5728C35.9041 44.5728 36.4769 44.5248 36.8167 44.311C37.1565 44.0973 34.8263 41.7869 34.8263 41.7869L34.9914 44.2829L35.9041 44.5728Z" fill="#453A25"/>
<path fill-rule="evenodd" clip-rule="evenodd" d="M33.4272 40.5337C33.4272 40.5337 33.136 41.0873 33.136 41.2332C33.0873 41.7087 33.2332 43.2038 33.3497 43.6793C33.4662 44.1843 34.0972 44.951 34.9132 44.951C35.4176 44.951 36.1171 44.6406 36.1171 44.5631C36.1171 44.4659 35.3984 44.3711 35.2044 44.0095C35.088 43.8175 35.0393 43.3401 35.0124 42.8575C34.9932 42.5471 34.9932 42.2073 35.1097 42.0895C35.3721 41.7983 35.4201 40.9631 35.4201 40.9631L36.352 39.2319H35.1264L33.6601 40.1446L33.4272 40.5337Z" fill="#84754B"/>
<path fill-rule="evenodd" clip-rule="evenodd" d="M33.0681 41.0682C33.0681 41.0682 34.0281 39.7965 34.8934 39.5047C35.7587 39.2128 36.1459 39.3882 36.1459 39.3882L35.6409 40.6797L34.9222 41.4759L34.9708 41.8836C34.9708 41.8836 34.8537 42.9613 35.5724 43.7088C36.2912 44.4564 36.8249 44.4276 37.136 44.4276C37.447 44.4276 38.3398 44.1652 38.7961 43.0874C39.2038 42.0781 39.5436 40.7834 38.7283 39.4855C37.9315 38.194 36.5241 38.144 36.2521 38.144C35.9801 38.144 33.8444 38.2509 33.0681 41.0663V41.0682Z" fill="#252211"/>
<path fill-rule="evenodd" clip-rule="evenodd" d="M57.7183 45.3882C57.3593 45.223 57.6991 44.2138 58.0582 43.9027C58.4172 43.5917 58.8735 43.2333 59.6703 43.184C59.9609 43.1648 60.2425 43.3491 60.1945 43.5437C60.1267 43.9027 59.6217 44.4077 59.1654 44.7667C58.5343 45.2621 58.126 45.5725 57.7183 45.3882Z" fill="#F7F7E7"/>
<path fill-rule="evenodd" clip-rule="evenodd" d="M38.3008 39.8835C38.5632 39.8643 38.903 40.0755 38.9708 40.3597C39.0387 40.6701 38.8057 41.2915 38.3008 41.2915C37.8931 41.2915 37.6793 40.7866 37.6793 40.6413C37.6839 40.5218 37.7173 40.4053 37.7766 40.3015C37.7958 40.272 37.8444 39.9322 38.3008 39.8835Z" fill="#F8F6DE"/>
<path fill-rule="evenodd" clip-rule="evenodd" d="M34.5146 40.1069C34.5146 40.1069 33.8445 40.4173 33.5341 41.0669C33.3123 41.5466 33.2452 42.0834 33.3421 42.6029C33.3908 42.8455 33.6333 43.4471 33.7984 43.6609C33.9636 43.8746 34.1869 44.0205 34.352 44.0007C34.5172 43.9809 34.8564 43.5444 34.8564 43.2826C34.8564 43.0209 34.8762 41.9137 35.1962 41.3114C35.4778 40.7098 34.5165 40.1076 34.5165 40.1076L34.5146 40.1069Z" fill="#D4C38B"/>
<path fill-rule="evenodd" clip-rule="evenodd" d="M34.6118 40.0582C34.4953 40.126 34.3014 40.2233 34.3494 40.3494C34.398 40.4659 34.8057 40.5414 34.9516 40.8256C35.1168 41.1168 35.1168 41.4272 35.0681 41.5731C35.1949 41.5128 35.31 41.4305 35.408 41.3299C35.6217 41.0873 35.8835 40.7577 36.1068 40.7577C36.2528 40.7577 36.398 40.8256 36.5344 40.8256C36.7481 40.8256 36.9612 40.7577 36.9907 40.5344C37.0387 40.2432 36.583 39.9808 36.3206 40.0294C36.3692 39.8374 36.4371 39.5539 36.2233 39.3593C36.0096 39.1648 35.3401 39.5052 35.1942 39.6025C35.0483 39.6998 34.6118 40.0588 34.6118 40.0588V40.0582Z" fill="#E2D59D"/>
<path fill-rule="evenodd" clip-rule="evenodd" d="M50.039 60.4563L51.4758 60.032L51.8835 60.3232C51.8835 60.3232 52.1741 60.9446 52.631 61.0221C52.4851 61.3325 52.1062 61.5981 52.1261 61.8182C52.1459 62.0384 52.3398 62.2067 52.3398 62.2067C52.3398 62.2067 51.0483 64.3424 53.5923 66.4947C52.9901 66.7373 52.2233 67.0707 51.8157 67.2627C52.1062 67.3305 52.7277 67.4547 52.9901 67.6902C53.2525 67.9257 53.2525 68.0006 53.495 68.1465C53.7376 68.2925 53.8829 68.4864 53.8349 68.5734C53.6697 68.4761 53.1161 68.1856 53.0195 68.4569C52.9229 68.7283 50.6214 68.6221 50.6214 68.6221L46.7379 69.3696C46.7379 69.3696 46.8832 68.9811 46.4755 68.6221C46 68.1952 45.4176 68.6413 44.7961 68.1657C43.9808 67.5443 43.9513 66.8256 43.6896 66.5542C43.9513 66.3891 44.4857 66.1465 45.7574 65.9782C45.7088 65.8809 45.5437 65.5897 45.6409 65.328C45.7574 64.9881 46.2425 64.7744 46.0973 64.368C46.311 64.3193 46.4077 64.3193 46.9421 63.6493C47.447 62.9792 47.7574 62.8339 48.1459 62.7853C48.5344 62.7366 48.7673 62.7853 49.4861 62.1152C49.9904 61.6397 49.8259 61.232 49.8259 61.232C49.8259 61.232 50.1555 61.1251 50.0397 60.455L50.039 60.4563Z" fill="#CBAC5A"/>
<path fill-rule="evenodd" clip-rule="evenodd" d="M45.7964 60.6721C45.8156 60.5748 45.8937 60.5262 46.4179 60.5748C46.942 60.6235 50.2624 60.2644 51.1654 60.2158C52.078 60.1479 55.2915 60.1959 56.855 60.5262C58.4185 60.8564 60.0006 61.2449 60.7673 61.4388C61.5353 61.6526 61.7772 61.7294 61.7478 61.8267C61.7286 61.9239 61.5558 62.0187 61.4566 61.9918C61.36 61.9726 58.816 61.1956 58.03 61.0318C57.2441 60.8679 54.5248 60.4295 53.038 60.4558C51.6499 60.4756 51.0963 60.4366 49.9219 60.5723C48.7468 60.7182 46.8051 60.9121 46.2227 60.8347C45.6467 60.7668 45.7657 60.7668 45.7952 60.6695L45.7964 60.6721Z" fill="#D6BC6F"/>
<path fill-rule="evenodd" clip-rule="evenodd" d="M53.6115 68.2817C53.6115 68.2817 55.6019 69.3594 56.3206 70.6797C56.8448 71.6602 56.0102 72.146 56.0102 72.146C56.0102 72.146 57.1366 72.146 56.9907 72.7674C56.9229 73.1553 55.0489 74.2036 53.7965 74.7572C52.5248 75.3108 52.5734 75.282 51.952 75.3786C51.3497 75.4759 49.6992 75.1866 49.3593 75.6698C49.0195 76.153 49.1673 76.6509 49.2621 76.7284C49.3593 76.7962 50.1459 76.8935 50.1459 76.8935C50.1459 76.8935 49.9808 77.3498 48.3501 77.3985C46.7193 77.4471 46.311 77.5629 46.2137 77.7383C46.1165 77.9028 46.5241 77.8061 47.2723 77.9303C48.0198 78.0468 49.0681 78.1223 49.0681 78.1223C49.0681 78.1223 48.7283 78.4135 47.8451 78.6465C46.8352 78.9082 45.2525 79.1514 44.7769 79.4426C45.0195 79.6077 45.3792 79.8503 45.5449 79.8695C45.1373 79.9668 44.5638 80.1805 44.4672 80.258C44.6125 80.3553 44.807 80.4717 44.807 80.4717C44.807 80.4717 43.991 81.4522 43.5155 81.6954C43.04 81.9386 40.3021 83.2097 39.36 82.9671C37.0105 82.3457 36.7193 79.7729 36.1465 79.5789C35.2825 79.2877 34.8749 79.8695 34.1075 79.4618C34.4473 79.2193 34.6323 79.074 34.9913 78.9089C34.6029 78.7169 32.5933 77.4426 32.5933 77.4426C32.3831 76.9846 32.1498 76.5375 31.8944 76.1031C31.5059 75.433 30.9344 74.5396 30.5056 73.753C29.5737 72.025 29.5251 71.2289 28.6803 70.2484C28.8262 70.0564 29.3305 70.0833 29.3305 70.0833L36.4089 72.4135L48.96 72.777L52.224 68.1172L53.6121 68.2823L53.6115 68.2817Z" fill="#DFC677"/>
<path fill-rule="evenodd" clip-rule="evenodd" d="M35.0195 75.3883C35.0953 75.4726 35.1836 75.5447 35.2813 75.602C35.5245 75.7671 35.8835 75.9617 36.1261 76.2523C36.2234 76.107 36.4659 75.8446 36.8941 76.2523C37.3223 76.6599 37.8541 76.3694 38.185 76.466C38.5248 76.5831 38.544 76.6311 38.544 76.6311C38.544 76.6311 38.736 76.466 39.1655 76.2913C39.4279 76.194 39.7383 76.1262 40.0781 76.0295C40.3885 75.9617 40.7283 75.8644 40.9619 75.8644C41.1757 76.0097 41.9424 76.8244 45.0202 75.6219C47.9232 74.4955 48.5927 74.3694 49.0784 74.5435C49.1271 74.427 49.1757 74.2036 49.9232 74.2331C49.9232 73.9227 49.3018 72.8641 49.3018 72.8641L45.8746 71.6897H44L38.3789 72.7188L35.264 74.4961L35.0215 75.3921L35.0195 75.3883Z" fill="#C4A859"/>
<path fill-rule="evenodd" clip-rule="evenodd" d="M33.1456 73.4177C33.1456 73.4177 33.2135 73.9419 33.9904 74.4955C34.7584 75.0484 34.9997 75.3787 34.9997 75.3787C34.9997 75.3787 35.1456 75.1867 35.2621 74.9908C35.3786 74.7771 35.4759 74.5345 35.6698 74.4667C36.0583 74.3016 36.9415 74.612 37.136 74.5633C37.3011 74.5153 37.2525 74.1755 37.4272 74.1755C37.8349 74.1556 38.0967 74.4372 38.2426 74.4372C38.3885 74.4372 38.7469 74.418 38.7955 74.3406C38.8442 74.2632 38.8634 73.4568 39.417 73.0683C40.0192 72.6414 40.7572 72.8257 40.953 72.923C40.953 73.0683 40.9722 73.428 41.3607 73.4472C41.7492 73.4664 41.7875 73.3985 42.1287 73.515C42.4698 73.6315 42.8762 73.4958 43.0605 74.068C43.2256 74.02 43.6141 73.9713 43.5168 73.4177C43.7088 73.2724 43.8765 73.1752 44.2848 72.6024C44.3821 72.4571 44.5466 72.292 44.6733 72.0782C45.0132 72.0782 45.4208 72.0104 45.9642 72.4859C45.7991 72.6024 45.7018 72.6779 45.6538 72.7963C45.7959 72.937 45.9257 73.0897 46.0416 73.2526C46.1875 73.4446 46.2848 73.6801 46.4691 73.7288C46.8768 73.8452 47.5469 73.6801 48.2944 73.7288C49.0132 73.7774 49.6147 74.0392 49.8771 74.2043C49.9744 74.1563 49.9744 74.1364 50.217 74.1851C50.4595 74.2337 50.6439 74.2529 50.3821 73.9425C50.5274 74.0104 50.6925 74.1563 50.8384 74.0104C50.9844 73.8644 51.1002 73.6513 51.5079 73.6027C51.9156 73.554 52.0615 73.6219 52.2266 73.195C52.4403 72.6708 51.7024 72.6708 51.7024 72.6708C51.7024 72.6708 52.0423 72.3598 52.4212 71.9521C52.8775 71.5252 53.4016 70.9716 53.5277 70.292C53.7415 69.0395 52.5184 68.875 52.5184 68.875L46.5863 70.7003L39.3338 70.3406L33.1495 73.4184L33.1456 73.4177Z" fill="#927D49"/>
<path fill-rule="evenodd" clip-rule="evenodd" d="M27.8157 56.2816C27.8157 56.2816 27.6237 56.5242 27.5053 57.097C27.3869 57.6698 27.4374 57.602 27.3402 58.0096C27.2429 58.4173 26.048 62.4756 26.496 63.8445C26.944 65.2135 27.7197 65.7184 28.2048 66.825C28.3021 67.0676 28.3968 67.2135 28.4474 67.4272C28.6125 68.1453 28.4672 68.6989 28.6611 69.4176C28.729 69.6602 28.9043 69.9418 29.1661 70.233C29.7421 70.8346 30.681 71.4074 31.0861 71.8151C31.6582 72.4173 32.4742 73.641 33.513 73.7568C34.0666 73.8247 34.8531 73.5917 35.5034 73.2039C36.0794 72.8442 36.4352 72.3399 37.0394 72.0519C37.4662 71.8381 37.9226 71.7607 38.3302 71.6634C39.175 71.4983 39.9424 71.4714 40.3987 71.5661C41.0976 71.712 42.7482 72.217 43.6627 72.217C44.3774 72.2055 45.088 72.1077 45.7792 71.9258C47.1674 71.5181 48.8467 70.8186 49.9539 70.5082C50.6042 70.3162 51.1283 70.2656 51.6627 70.1492C52.5754 69.9354 53.3421 69.6442 53.7792 69.0906C53.488 68.7508 53.129 68.2266 51.1866 68.2458C48.983 68.2944 46.439 69.5175 45.1866 69.712C43.9341 69.9066 43.3907 70.0711 41.9923 69.5661C40.6214 69.056 40.576 68.7188 40.576 68.7188C40.576 68.7188 39.1366 67.712 38.5344 65.1456C37.9322 62.5792 38.5344 60.7092 40.0979 58.9319C40.5056 58.4756 40.4083 58.0679 40.4083 58.0679C40.4083 58.0679 41.4374 56.6797 41.1558 55.3799C40.8454 54.0884 38.855 54.3508 38.855 54.3508L27.8163 56.2816H27.8157Z" fill="#6E6342"/>
<path fill-rule="evenodd" clip-rule="evenodd" d="M29.4758 60.6023C29.3902 60.7632 29.35 60.9444 29.3594 61.1265C29.3786 61.3882 29.4566 61.7281 30.2426 62.4954C30.9126 63.1649 30.7667 63.9124 30.7667 63.9124C30.7667 63.9124 31.104 63.9802 32.0192 63.5521C32.7379 63.2122 32.9792 63.8145 32.9792 63.8145C33.1884 63.7047 33.4152 63.6324 33.6493 63.6007C33.8614 63.5812 34.0667 63.5156 34.2509 63.4087C34.2509 63.4087 35.0957 64.2727 35.8336 64.6804C36.5037 65.0401 36.8922 65.2826 37.2224 65.0401C37.5328 64.8263 37.5328 64.3892 37.513 64.1953C37.436 64.0163 37.3384 63.8468 37.2224 63.6903C37.0086 63.3799 36.6688 63.0202 36.6464 62.7303C36.5978 62.0609 37.1514 61.2641 37.0342 61.0701C36.9171 60.8762 36.4813 60.8276 35.4035 61.2161C34.2874 61.5847 29.4714 60.6042 29.4714 60.6042L29.4758 60.6023Z" fill="#39331F"/>
<path fill-rule="evenodd" clip-rule="evenodd" d="M32.0192 64.942C32.0192 64.942 31.4662 64.4179 31.6601 61.8739C31.8949 61.8705 32.1293 61.8932 32.359 61.9417C32.359 61.9417 32.6605 63.9129 32.0192 64.942Z" fill="#292311"/>
<path fill-rule="evenodd" clip-rule="evenodd" d="M28.0781 54.3397C28.1553 54.2826 28.2268 54.2184 28.2919 54.1477C28.0999 54.5068 27.2135 55.9436 27.9322 58.206C28.6509 60.4581 30.4564 62.1375 32.6797 62.2156C34.9031 62.2937 36.0717 61.2057 37.408 59.5749C37.9322 58.9247 38.5344 58.1087 39.0682 57.5557C39.8644 56.6911 40.4858 56.4485 40.4858 55.614C40.4858 53.9052 38.738 53.1378 36.1652 52.3711C33.5924 51.6044 31.2717 51.6991 30.0679 52.2239C28.8935 52.7961 28.3885 53.3983 28.0775 54.3404L28.0781 54.3397Z" fill="#252211"/>
<path fill-rule="evenodd" clip-rule="evenodd" d="M36.3398 65.7087L36.5318 65.6114C36.5318 65.6114 36.5798 64.8434 36.8909 64.8639C37.2013 64.9126 37.3472 65.3209 37.3177 65.4662C37.2985 65.6114 37.2211 65.8546 36.9101 65.8252C36.5024 65.8348 36.3379 65.7087 36.3379 65.7087H36.3398Z" fill="#3F3824"/>
<path fill-rule="evenodd" clip-rule="evenodd" d="M35.4758 62.4467C35.4758 62.4467 35.6678 62.3788 35.9027 62.6118C36.0947 62.6118 36.9318 62.5145 37.1942 62.6796C37.4566 62.8448 37.5341 62.99 37.5341 62.99C37.5341 62.99 36.5536 63.2038 36.0192 62.99C35.4758 62.8057 35.4758 62.4467 35.4758 62.4467H35.4758Z" fill="#2D2815"/>
<path fill-rule="evenodd" clip-rule="evenodd" d="M39.7965 62.592C39.7965 62.5433 39.2723 62.1843 38.7187 62.0672C38.6215 62.048 38.6016 62.1158 38.5267 62.1158C38.4781 62.0966 38.4589 61.9507 38.4589 61.9507L38.144 62.1164C38.144 62.1164 38.0954 62.1843 38.2605 62.3084C38.4058 62.4249 38.649 62.5222 38.7168 62.7161C38.7847 62.91 38.7847 62.9779 38.8141 63.0073C38.8333 63.0265 39.1731 63.0073 39.3383 62.91C39.5034 62.8128 39.8144 62.654 39.7946 62.59L39.7965 62.592Z" fill="#82764F"/>
<path fill-rule="evenodd" clip-rule="evenodd" d="M34.8934 64.5633C34.8934 64.5633 34.9901 63.8939 35.641 63.8644C36.3104 63.8158 36.4371 64.466 36.4371 64.466L36.0486 64.8545C36.0486 64.8449 35.7574 64.4372 34.8966 64.5633H34.8934Z" fill="#2D2816"/>
<path fill-rule="evenodd" clip-rule="evenodd" d="M39.1168 61.6793C39.1168 61.6793 38.7571 62.0678 37.9616 62.1843C37.8937 62.087 37.7478 61.8931 37.9616 61.5827C38.1753 61.2723 38.4179 61.175 38.6604 61.2717C38.879 61.3071 39.057 61.4662 39.1168 61.6793Z" fill="#574F35"/>
<path fill-rule="evenodd" clip-rule="evenodd" d="M40.5824 62.1554C40.6023 62.0581 40.5344 62.0389 40.5824 61.9903C40.6304 61.9417 40.8935 61.845 40.9421 61.893C40.9613 61.9129 40.9421 61.9903 40.9421 62.085C40.9421 62.1797 40.9421 62.277 40.8935 62.3468C40.8256 62.4441 40.6317 62.4927 40.5344 62.4639C40.4372 62.4351 40.418 62.2988 40.418 62.2719C40.466 62.2527 40.5824 62.2041 40.5824 62.1554ZM42.24 61.1071C42.24 61.0585 42.4052 60.9612 42.5024 60.9612C42.6477 60.9612 42.6477 61.0777 42.6676 61.1071C42.7156 61.1263 42.7156 61.0873 42.7642 61.1749C42.8128 61.2626 42.8813 61.4175 42.832 61.5148C42.7828 61.6121 42.5895 61.6793 42.5415 61.6601C42.4736 61.6114 42.2599 61.1749 42.24 61.1071Z" fill="#82764F"/>
<path fill-rule="evenodd" clip-rule="evenodd" d="M38.9031 62.3788C38.9031 62.3788 39.1168 62.4268 39.408 62.67C39.3108 62.7379 39.1648 62.8153 39.1648 62.8153C39.1648 62.8153 39.1456 62.5919 38.9031 62.3782V62.3788Z" fill="#6E6342"/>
<path fill-rule="evenodd" clip-rule="evenodd" d="M38.4275 60.2424C38.3788 60.1944 38.5728 60.078 38.6892 60.0972C38.8057 60.1164 38.8544 60.1944 38.9804 60.2136C39.1065 60.2328 39.1264 60.165 39.1724 60.1164C39.2185 60.0677 39.3862 60.0972 39.415 60.1164C39.4329 60.1377 39.4492 60.1604 39.4636 60.1842C39.4677 60.1095 39.5028 60.04 39.5603 59.9922C39.6357 59.9368 39.7324 59.9189 39.8227 59.9436C39.8419 60.0114 39.9392 60.254 39.92 60.3026C39.9008 60.3512 39.6096 60.4197 39.5603 60.3704C39.6089 60.4876 39.8227 60.7301 39.8515 60.7781C39.8803 60.8261 39.6377 60.9432 39.5411 60.924C39.4054 60.9144 38.5702 60.4287 38.4249 60.2444L38.4275 60.2424ZM39.6992 58.6309C39.6812 58.582 39.6468 58.5408 39.6019 58.5144C39.534 58.4952 39.3107 58.5144 39.3107 58.6309C39.3107 58.7474 39.5027 59.3989 39.7184 59.7381C39.9616 60.078 40.126 60.3589 40.2912 60.437C40.3987 60.486 40.5258 60.4435 40.5824 60.3397C40.6016 60.2911 40.6502 59.932 40.631 59.0872C40.6118 58.2424 40.5824 57.4271 40.5337 57.3784C40.4851 57.3298 40.2912 57.3304 40.2233 57.4271C40.1555 57.5237 39.7184 58.4856 39.6985 58.6309H39.6992Z" fill="#585136"/>
<path fill-rule="evenodd" clip-rule="evenodd" d="M38.8352 63.602C38.8352 63.602 38.4953 63.3882 38.1651 63.5341C37.8547 63.68 37.8739 64.2528 37.8739 64.2528C38.0157 64.3084 38.1757 64.2902 38.3014 64.2042C38.5152 64.0589 38.7865 63.8164 38.8352 63.6026V63.602Z" fill="#574F35"/>
<path fill-rule="evenodd" clip-rule="evenodd" d="M39.4758 64.3692C39.4566 64.1772 39.2838 64.1772 39.2838 64.078C39.3083 63.9804 39.3963 63.9122 39.4969 63.9128C39.5942 63.9128 39.6889 64.0293 39.808 64.1048C39.9245 64.1727 40.0992 64.2968 40.1184 64.4447C40.1376 64.5925 39.9264 64.9976 39.6915 64.9976C39.4566 64.9976 39.5264 64.5605 39.4777 64.3666L39.4758 64.3692ZM41.3497 64.1068C41.3497 64.1068 40.9613 64.2232 40.9901 64.1068C41.0189 63.9903 41.1072 63.9615 41.2333 63.9615C41.2973 63.8944 41.3835 63.8528 41.4758 63.8444C41.5286 63.8418 41.5805 63.8591 41.6211 63.893C41.6211 63.893 41.8835 63.7765 41.9609 63.8444C42.0384 63.9122 41.9808 63.9122 42.0288 63.9903C42.0899 64.0769 42.13 64.1766 42.1459 64.2815C42.1459 64.3589 41.8547 64.524 41.6211 64.4952C41.3497 64.437 41.3977 64.1554 41.3497 64.1068ZM43.6115 63.6696C43.6115 63.6696 43.728 63.7375 43.6313 63.8156C43.5635 63.8834 43.2237 64.0076 42.9318 64.0293C42.6406 64.0293 42.3789 64.0773 42.3789 63.9807C42.3789 63.884 42.6214 63.6895 42.7667 63.6408C42.8257 63.5669 42.9153 63.524 43.0099 63.5244C43.1264 63.5244 43.5821 63.4757 43.7088 63.4565C43.8253 63.4367 43.9225 63.5045 43.8541 63.6018C43.8253 63.6696 43.6115 63.6696 43.6115 63.6696ZM44.2816 60.6719C44.2816 60.6719 44.1357 60.9823 43.9712 60.9823C43.8061 60.9631 43.8061 60.9144 43.8061 60.8658C43.8061 60.798 43.9712 60.6232 43.9513 60.5746C43.9033 60.5746 43.7862 60.5746 43.8061 60.4581C43.8061 60.3608 43.9712 60.2444 44.1165 60.2661C44.2262 60.1759 44.3629 60.1248 44.5049 60.1208C44.6701 60.1208 44.8153 60.1688 44.8153 60.2661C44.8153 60.3634 44.6233 60.5765 44.5529 60.6258C44.4755 60.7032 44.3782 60.7538 44.2816 60.6738V60.6719ZM42.0678 66.4095C42.0678 66.4095 41.8758 66.4293 41.8758 66.526C41.8758 66.5746 41.9238 66.5746 41.9923 66.5458C42.0317 66.5436 42.0708 66.5369 42.1088 66.526C42.128 66.5458 42.128 66.6424 42.2739 66.6424C42.3937 66.6263 42.5092 66.5867 42.6137 66.526C42.7302 66.478 42.8275 66.4287 42.8275 66.334C42.7789 66.1688 42.6816 66.0908 42.5363 66.0908C42.4618 66.0861 42.3876 66.1029 42.3225 66.1394C42.3225 66.1394 42.2739 66.0421 42.1088 66.1394C41.9437 66.2367 41.9629 66.2367 42.0115 66.2853C42.0985 66.3628 42.0697 66.4133 42.0697 66.4133L42.0678 66.4095ZM40.9709 67.4194C40.9709 67.3708 41.2134 67.2735 41.2813 67.3029C41.3491 67.3221 41.543 67.6908 41.543 67.7298C41.543 67.7784 41.3005 67.8949 41.2032 67.8949C41.1059 67.8949 40.9414 67.7298 40.9414 67.7029C40.9414 67.6837 41.0579 67.6549 41.0579 67.6351C41.0867 67.5871 40.9709 67.47 40.9709 67.4213V67.4194ZM40.2029 66.0018C40.2515 65.9826 40.2515 65.934 40.3193 65.8853C40.3624 65.8567 40.4163 65.8496 40.4653 65.8661C40.4999 65.8043 40.5605 65.7613 40.6304 65.749C40.7469 65.7298 40.8441 65.749 40.8224 65.7976C40.8224 65.9436 40.9197 66.0402 40.9197 66.1567C40.9197 66.2732 40.8518 66.4191 40.6093 66.5164C40.3667 66.5842 40.0365 66.5842 39.9878 66.565C39.9392 66.5458 39.8905 66.3512 39.9392 66.254C39.9878 66.1567 40.1235 66.0504 40.2016 66.0018H40.2029Z" fill="#82764F"/>
<path fill-rule="evenodd" clip-rule="evenodd" d="M40.512 66.0679C40.512 66.0679 40.3469 66.1652 40.3469 66.2138C40.3323 66.2608 40.3258 66.3099 40.3277 66.3591C40.3277 66.3879 40.5415 66.3399 40.5703 66.3104C40.5799 66.2912 40.512 66.1184 40.512 66.0679Z" fill="#6E6342"/>
<path fill-rule="evenodd" clip-rule="evenodd" d="M39.0682 65.6116C39.1648 65.6314 39.3299 65.6116 39.456 65.6602C39.5533 65.7088 39.6211 65.8061 39.5239 65.9226C39.4266 66.0391 39.3319 66.2138 39.1162 66.1844C38.8736 66.1652 38.6407 66.0391 38.6407 65.9418C38.6324 65.8175 38.6744 65.6951 38.7571 65.602C38.8544 65.5245 38.9024 65.5732 39.0675 65.6116H39.0682Z" fill="#585136"/>
<path fill-rule="evenodd" clip-rule="evenodd" d="M38.9517 65.7087C38.9517 65.7087 38.6413 65.9513 38.5632 66.0684C38.466 66.1849 37.9904 66.7865 37.8452 66.9126C37.8934 66.8275 37.9484 66.7463 38.0096 66.67C37.8176 66.7928 37.6737 66.9779 37.602 67.1942C37.4855 67.5539 38.2528 67.7478 38.7572 67.8937C39.2615 68.0396 39.4567 68.0857 39.4567 68.0857C39.271 67.8067 39.1116 67.511 38.9805 67.2025C38.7885 66.7462 38.6893 66.6975 38.8154 66.4838C38.9127 66.27 39.0586 66.1247 39.0586 65.9596C39.0004 65.806 38.9517 65.7087 38.9517 65.7087Z" fill="#574F35"/>
<path fill-rule="evenodd" clip-rule="evenodd" d="M27.8835 66.4762C27.9541 66.4892 28.0266 66.4892 28.0972 66.4762C28.2425 66.4563 29.7574 65.9002 31.3401 66C32.525 66.0716 33.6993 66.2646 34.8448 66.576C36.8352 67.1002 39.3107 68.1389 40.9126 68.7315C41.3395 68.896 41.7574 69.1879 42.0646 69.3037C43.2883 69.7799 43.3363 69.7799 44.055 69.9059C44.8998 70.0224 45.7638 69.7408 46.6668 69.5469C47.7734 69.3037 49.6665 69.1872 51.3267 68.9447C51.8635 68.8703 52.393 68.7501 52.9094 68.5856C52.9094 68.5856 51.5891 69.9059 48.4236 70.3815C47.1442 70.5758 45.8439 70.5921 44.56 70.4301C43.55 70.3328 42.8806 70.1869 42.3756 70.0416C41.8028 69.8765 40.6278 69.4394 39.1814 69.0816C38.1715 68.8192 37.0451 68.6253 35.7542 68.3827C32.5696 67.7997 29.1136 67.1303 27.8822 66.48L27.8835 66.4762Z" fill="#252211"/>
<path fill-rule="evenodd" clip-rule="evenodd" d="M24.3104 60.4761C23.5424 61.1263 22.7277 61.7478 21.9322 62.3494L19.5341 64.1919C18.7188 64.7935 17.9226 65.415 17.1066 66.0172C16.2906 66.6194 15.4759 67.1916 14.6106 67.7452C15.3786 67.095 16.1933 66.4927 17.0087 65.9007C17.824 65.3087 18.6695 64.7282 19.456 64.1279L21.8541 62.2828C22.6791 61.6812 23.4752 61.0598 24.3104 60.4774V60.4761ZM20.0679 67.2722C20.0679 67.2722 20.9319 66.5535 22.0096 65.5442C23.3492 64.2924 24.9901 62.6898 25.5143 62.3993L20.0672 67.2729L20.0679 67.2722Z" fill="#CFB66C"/>
<path fill-rule="evenodd" clip-rule="evenodd" d="M20.0679 67.2716C20.4954 66.8447 20.9517 66.4275 21.408 66.0191L22.1069 65.4175C22.3207 65.2255 22.5639 65.0099 22.777 64.7961C23.2039 64.3692 23.6218 63.9123 24.0487 63.4758C24.2603 63.2563 24.484 63.0488 24.7188 62.8543C24.8361 62.7505 24.9665 62.6622 25.1066 62.5919C25.2237 62.5241 25.3498 62.3999 25.5143 62.3782C25.4176 62.5241 25.3012 62.5919 25.2039 62.718C25.0874 62.8153 24.9901 62.9318 24.8935 63.0284C24.6797 63.2422 24.4372 63.4361 24.2234 63.6307C23.7671 64.0191 23.2916 64.3987 22.8352 64.8051C22.3789 65.2115 21.952 65.6499 21.4951 66.0575C21.0004 66.4755 20.544 66.8831 20.0679 67.2735V67.2716ZM25.874 63.3881C25.874 63.3881 22.7092 66.4857 22.0583 66.99L25.874 63.3881Z" fill="#CFB66C"/>
<path fill-rule="evenodd" clip-rule="evenodd" d="M25.8739 63.3882C25.5892 63.7177 25.284 64.029 24.96 64.32L24 65.2327C23.6896 65.5431 23.3977 65.8541 23.0681 66.1645C22.7283 66.4557 22.4179 66.7405 22.0582 67.0093L22.9901 66.0967C23.3011 65.7863 23.6409 65.5245 23.9712 65.2135L24.903 64.3008C25.223 63.9808 25.5341 63.6698 25.8739 63.3882ZM26.0192 65.0675C25.7275 65.8817 25.3837 66.6763 24.9901 67.4464C24.1747 69.0778 22.9517 71.1162 22.4173 72.1555L26.0192 65.0675Z" fill="#CFB66C"/>
<path fill-rule="evenodd" clip-rule="evenodd" d="M26.0192 65.0681C26.0192 65.4272 25.9219 65.7382 25.8054 66.0486C25.6919 66.3593 25.5624 66.6639 25.4176 66.9612C25.2717 67.2524 25.1066 67.5635 24.9414 67.8451C24.7763 68.1267 24.5824 68.4172 24.4365 68.7091L23.456 70.4371C23.1162 71.0131 22.7859 71.5923 22.4269 72.1459C22.6694 71.5244 22.9997 70.942 23.3107 70.3692C23.6506 69.7932 23.961 69.2172 24.2707 68.6214C24.422 68.3245 24.558 68.0201 24.6784 67.7094C24.8237 67.3984 24.969 67.1072 25.0861 66.8256C25.2314 66.5152 25.3478 66.2233 25.4938 65.9424C25.6582 65.6409 25.7946 65.3497 26.0179 65.0681L26.0192 65.0681Z" fill="#CFB66C"/>
<path fill-rule="evenodd" clip-rule="evenodd" d="M29.4759 73.0291C29.4759 73.0291 28.5159 74.3007 28.6119 75.9123C28.8736 75.0681 29.2039 73.7766 29.4759 73.0291ZM30.3885 74.3039C30.3885 74.3039 30.0487 77.7599 29.7671 79.4591C30.1651 77.495 30.2426 77.6601 30.3885 74.3039ZM36.7475 79.6633C36.7475 79.6633 35.3107 83.8873 35.2813 85.0611C35.5923 83.854 36.1939 81.3881 36.7475 79.6601V79.6633Z" fill="#DEC270"/>
<path fill-rule="evenodd" clip-rule="evenodd" d="M40.1069 72.7681C40.1069 72.7681 42.4372 76.6125 44.185 79.8938C43.7121 78.2426 42.6241 75.2141 40.1069 72.7681Z" fill="#CBAF59"/>
<path fill-rule="evenodd" clip-rule="evenodd" d="M46.3693 78.4275C47.6487 80.689 48.8024 83.0194 49.8253 85.408C49.6313 83.7574 49.1065 80.9325 46.3693 78.4275Z" fill="#E3C677"/>
<path fill-rule="evenodd" clip-rule="evenodd" d="M64.777 84.0961C65.1648 83.8535 65.9322 82.5326 66.6022 82.203C67.2717 81.8631 67.7766 81.7953 68.3789 81.1252C68.9805 80.4257 69.1469 79.9988 70.4659 79.4459C72.311 78.6491 71.0419 77.6199 71.0419 77.6199C71.2452 77.4203 71.4625 77.2355 71.6922 77.067C72.1683 76.7079 72.7213 76.2708 72.6733 75.5035C72.6054 74.2126 72.3629 72.3387 71.3043 71.2513C72.3334 71.0375 74.304 70.8923 75.5283 70.5819C76.9453 70.2222 77.5962 69.7172 77.5962 69.7172C77.5962 69.7172 76.7808 68.3291 78.1011 66.9313C79.4214 65.5335 80.4992 64.6983 81.2954 63.1348C80.3827 63.0183 78.9914 62.5332 75.4406 63.8823C75.6323 63.9725 75.8173 64.0762 75.9942 64.1927C75.9942 64.1927 73.8099 64.795 73.0138 65.4651C71.625 66.6395 71.4502 67.6007 69.9456 68.3195C68.441 69.0382 66.9261 68.8436 65.6742 69.426C64.4224 70.0084 64.2374 70.5038 63.7805 70.7175C63.8778 70.834 63.7613 71.0279 63.9456 71.1931C63.8291 71.3582 63.1494 72.4647 62.4602 72.4647C62.528 72.7271 63.1104 72.9211 63.1104 72.9211C63.1104 72.9211 62.6835 73.2321 61.5962 73.3095C62.1491 73.8855 62.6739 74.5134 64.1203 75.426C64.0038 75.6686 63.5181 76.0283 63.7126 76.4846C63.9264 76.9409 64.4806 77.5623 66.6931 78.0673C65.5667 78.1153 64.247 78.3777 62.4691 78.1351C60.6925 77.9214 60.4013 77.7953 59.3043 78.0673C59.4208 78.1838 59.7312 78.1838 60.0032 78.4942C59.712 78.5134 57.8867 78.2804 57.2653 79.0964C56.615 79.9406 56.3334 81.3294 56.3821 82.2612C56.0422 82.4263 55.712 82.7175 55.8771 83.3198C56.0422 83.922 56.9062 84.1159 57.4598 84.4942C58.0128 84.9019 58.0614 85.0471 58.5862 84.9505C59.1392 84.834 59.9546 84.2811 60.4307 84.2811C60.9069 84.2811 61.2461 84.6401 61.2461 84.6401C61.2461 84.6401 62.5376 84.0187 62.6637 84.1351C62.7802 84.2516 62.6829 84.9991 62.809 85.1156C62.937 85.2033 64.3917 84.3393 64.7802 84.0961H64.777Z" fill="#ECD592"/>
<path fill-rule="evenodd" clip-rule="evenodd" d="M93.0003 45.243C86.9325 29.5732 71.9322 26.6702 71.9322 26.6702H29.136L29.3011 42.6311H37.824V78.2721H29.1354V94.2042H70.7475C80.7763 94.2042 88.8154 84.1262 88.8154 84.1262C101.689 65.8548 92.9997 45.243 92.9997 45.243H93.0003ZM70.9709 73.3882C70.9709 73.3882 67.7069 78.0974 64.1555 78.0974H57.0515L56.8832 42.6702H66C66 42.6702 70.224 43.5534 73.1751 51.9124C73.1751 51.9124 77.0874 63.8804 70.9709 73.3882Z" fill="white" fill-opacity="0.8"/>
</svg>
