<svg width="120" height="120" viewBox="0 0 120 120" fill="none" xmlns="http://www.w3.org/2000/svg">
<circle cx="60" cy="60" r="60" fill="#EDF0F4"/>
<path d="M75.0441 51.8338L81.572 56.7909L85.7 59.9206L81.0888 62.2727L71.8278 67.0161L75.0054 69.2128L79.4421 72.3036L74.6371 74.7919L45.1875 90.0323C50.0843 92.7358 55.5828 94.1534 61.1719 94.1534C79.4812 94.1534 94.3236 79.263 94.3236 60.8915C94.3407 53.1024 91.6168 45.5572 86.6318 39.5859L75.0441 51.8338Z" fill="#091B26"/>
<path d="M45.9458 70.7598L39.4179 65.7834L35.2899 62.6537L39.9011 60.3016L49.1621 55.5576L45.9845 53.3423L41.5478 50.2508L46.3528 47.7626L77.372 31.7057C72.1183 28.3986 66.0382 26.6529 59.8362 26.6708C41.527 26.6708 26.6846 41.5613 26.6846 59.9327C26.6846 68.4665 29.9009 76.2618 35.1709 82.152L45.9458 70.7598Z" fill="#091B26"/>
<path d="M32.6517 83.8195C26.8006 77.3851 23.2355 68.8317 23.2355 59.4619C23.2355 39.4977 39.433 23.2462 59.331 23.2462C66.674 23.2462 73.8234 25.4818 79.8492 29.6996L83.0655 28.0278C76.4793 22.9936 68.2436 20 59.331 20C37.6507 20 20 37.7094 20 59.4619C20 69.7644 23.9526 79.1346 30.4044 86.1706L32.6517 83.8185V83.8195Z" fill="#091B26"/>
<path d="M88.1429 37.0934C93.5099 43.4112 96.7649 51.6146 96.7649 60.5372C96.7649 80.5014 80.5673 96.7529 60.6693 96.7529C53.927 96.7529 47.32 94.8673 41.6238 91.2904L38.3105 93.001C44.8788 97.5693 52.6867 100 60.6693 100C82.3497 100 100 82.2907 100 60.5382C100 50.6816 96.3774 41.6431 90.3906 34.7227L88.1432 37.0943L88.1429 37.0934Z" fill="#091B26"/>
<path d="M41.8696 63.0459L51.2954 70.1936L30 92.6667L72.3387 70.7961L64.6971 65.4936L78.7971 58.268L69.3713 51.12L90.6667 28.6667L48.3283 50.5374L55.9696 55.8412L41.8696 63.0459Z" fill="#23BEE2"/>
</svg>
