<svg width="120" height="120" viewBox="0 0 120 120" fill="none" xmlns="http://www.w3.org/2000/svg">
<g clip-path="url(#clip0_204_30616)">
<circle cx="60" cy="60" r="60" fill="#EDF0F4"/>
<path fill-rule="evenodd" clip-rule="evenodd" d="M80.8823 38.8749C80.6092 38.6018 80.4453 38.3287 80.4453 37.9463C80.4453 37.5639 80.6092 37.2908 80.8823 37.0176C81.4286 36.526 82.3026 36.526 82.9035 37.0176C83.1766 37.2908 83.3405 37.5639 83.3405 37.9463C83.3405 38.3287 83.1766 38.6018 82.9035 38.8749C82.6303 39.0934 82.248 39.2573 81.9202 39.2573C81.5378 39.3119 81.1554 39.2027 80.8823 38.8749Z" fill="#0D022B"/>
<path fill-rule="evenodd" clip-rule="evenodd" d="M77.3863 42.644C77.1678 42.3708 77.0039 42.0977 77.0039 41.7153C77.0039 41.3329 77.1678 41.0598 77.3863 40.7867C77.8779 40.2951 78.7519 40.2951 79.2436 40.7867C79.4621 41.0598 79.6259 41.3329 79.6259 41.7153C79.6259 42.0977 79.4621 42.3708 79.2436 42.644C78.9704 42.8625 78.6973 43.0263 78.3149 43.0263C77.9325 43.0263 77.6594 42.8625 77.3863 42.644Z" fill="#0D022B"/>
<path fill-rule="evenodd" clip-rule="evenodd" d="M73.5621 46.2494C73.3436 46.0309 73.1797 45.7032 73.1797 45.3208C73.1797 44.9384 73.3436 44.6653 73.5621 44.3922C74.0537 43.9005 74.9277 43.9005 75.4193 44.3922C75.6378 44.6107 75.8017 44.9384 75.8017 45.3208C75.8017 45.7032 75.6378 45.9763 75.4193 46.2494C75.1462 46.5226 74.8731 46.6318 74.4907 46.6318C74.1083 46.6318 73.7806 46.4679 73.5621 46.2494Z" fill="#0D022B"/>
<path fill-rule="evenodd" clip-rule="evenodd" d="M69.9018 49.9093C69.6287 49.6908 69.4648 49.3631 69.4648 48.9807C69.4648 48.5983 69.6287 48.3252 69.9018 48.0521C70.4481 47.5604 71.3221 47.5604 71.923 48.0521C72.1961 48.2706 72.36 48.5983 72.36 48.9807C72.36 49.3631 72.1961 49.6908 71.923 49.9093C71.6499 50.1825 71.2675 50.2917 70.9397 50.2917C70.5574 50.2917 70.2296 50.2371 69.9018 49.9093Z" fill="#0D022B"/>
<path fill-rule="evenodd" clip-rule="evenodd" d="M66.4058 53.5693C66.1327 53.3508 66.0234 53.023 66.0234 52.6406C66.0234 52.2582 66.1873 51.9851 66.4058 51.712C66.8974 51.2204 67.7715 51.2204 68.2631 51.712C68.5362 51.9305 68.6455 52.2582 68.6455 52.6406C68.6455 53.023 68.4816 53.3508 68.2631 53.5693C68.0446 53.8424 67.7168 53.9516 67.3345 53.9516C67.0067 54.0063 66.6243 53.897 66.4058 53.5693Z" fill="#0D022B"/>
<path fill-rule="evenodd" clip-rule="evenodd" d="M62.2002 56.3005C62.2002 55.9182 62.3641 55.645 62.5826 55.3719C63.0742 54.8803 63.9482 54.8803 64.4398 55.3719C64.713 55.645 64.8222 55.9182 64.8222 56.3005C64.8222 56.6829 64.6583 56.956 64.4398 57.2292C64.2213 57.4477 63.8936 57.6115 63.5112 57.6115C63.1288 57.6115 62.8557 57.4477 62.5826 57.2292C62.3094 57.0107 62.2002 56.6829 62.2002 56.3005Z" fill="#0D022B"/>
<path fill-rule="evenodd" clip-rule="evenodd" d="M55.3716 64.3852C55.1531 64.1667 54.9893 63.8389 54.9893 63.4565C54.9893 63.0742 55.1531 62.801 55.3716 62.5279C55.8633 62.0363 56.7373 62.0363 57.2289 62.5279C57.502 62.801 57.6113 63.0742 57.6113 63.4565C57.6113 63.8389 57.4474 64.112 57.2289 64.3852C57.0104 64.6583 56.6827 64.7676 56.3003 64.7676C55.9725 64.8222 55.6448 64.7129 55.3716 64.3852Z" fill="#0D022B"/>
<path fill-rule="evenodd" clip-rule="evenodd" d="M51.603 68.0451C51.3299 67.8266 51.166 67.4988 51.166 67.1165C51.166 66.7341 51.3299 66.4609 51.603 66.1878C52.1493 65.6962 53.0233 65.6962 53.6242 66.1878C53.8973 66.4609 54.0612 66.7341 54.0612 67.1165C54.0612 67.4988 53.8973 67.772 53.6242 68.0451C53.351 68.3182 52.9687 68.4275 52.6409 68.4275C52.2039 68.4821 51.8761 68.3182 51.603 68.0451Z" fill="#0D022B"/>
<path fill-rule="evenodd" clip-rule="evenodd" d="M48.0523 71.7594C47.8338 71.5409 47.6699 71.2132 47.6699 70.8308C47.6699 70.4484 47.8338 70.1207 48.0523 69.9022C48.5439 69.4105 49.4179 69.4105 49.9096 69.9022C50.1281 70.1207 50.292 70.4484 50.292 70.8308C50.292 71.2132 50.1281 71.4863 49.9096 71.7594C49.6364 72.0326 49.3633 72.1418 48.9809 72.1418C48.5986 72.1418 48.3801 71.9779 48.0523 71.7594Z" fill="#0D022B"/>
<path fill-rule="evenodd" clip-rule="evenodd" d="M44.3921 75.4194C44.119 75.2009 44.0098 74.8731 44.0098 74.4907C44.0098 74.1083 44.1736 73.8352 44.3921 73.5621C44.8838 73.0705 45.7578 73.0705 46.2494 73.5621C46.4679 73.8352 46.6318 74.1083 46.6318 74.4907C46.6318 74.8731 46.4679 75.2009 46.2494 75.4194C45.9763 75.6925 45.7032 75.8017 45.3208 75.8017C44.993 75.8017 44.6106 75.6925 44.3921 75.4194Z" fill="#0D022B"/>
<path fill-rule="evenodd" clip-rule="evenodd" d="M40.6226 79.0793C40.3494 78.8608 40.1855 78.533 40.1855 78.1506C40.1855 77.7683 40.3494 77.4951 40.6226 77.222C41.1688 76.7304 42.0428 76.7304 42.5344 77.222C42.8076 77.4951 42.9715 77.7683 42.9715 78.1506C42.9715 78.533 42.8076 78.8608 42.5344 79.0793C42.2613 79.2978 41.8789 79.4616 41.5512 79.4616C41.1688 79.4616 40.8411 79.3524 40.6226 79.0793Z" fill="#0D022B"/>
<path fill-rule="evenodd" clip-rule="evenodd" d="M37.0181 82.7394C36.745 82.4663 36.6357 82.1932 36.6357 81.8108C36.6357 81.4284 36.7996 81.1553 37.0181 80.8822C37.5098 80.3905 38.3838 80.3905 38.8754 80.8822C39.1485 81.1553 39.2578 81.4284 39.2578 81.8108C39.2578 82.1932 39.0939 82.4663 38.8754 82.7394C38.6569 82.9579 38.3291 83.1218 37.9468 83.1218C37.6736 83.1764 37.3459 83.0126 37.0181 82.7394Z" fill="#0D022B"/>
<path fill-rule="evenodd" clip-rule="evenodd" d="M38.8754 38.8749C39.0939 38.6018 39.2578 38.3287 39.2578 37.9463C39.2578 37.5639 39.0939 37.2908 38.8754 37.0176C38.3838 36.526 37.5098 36.526 37.0181 37.0176C36.745 37.2908 36.6357 37.5639 36.6357 37.9463C36.6357 38.3287 36.7996 38.6018 37.0181 38.8749C37.2366 39.0934 37.5644 39.2573 37.9468 39.2573C38.3291 39.3119 38.6569 39.2027 38.8754 38.8749Z" fill="#0D022B"/>
<path fill-rule="evenodd" clip-rule="evenodd" d="M42.5353 42.644C42.8084 42.3708 42.9723 42.0977 42.9723 41.7153C42.9723 41.3329 42.8084 41.0598 42.5353 40.7867C41.989 40.2951 41.115 40.2951 40.5142 40.7867C40.241 41.0598 40.0771 41.3329 40.0771 41.7153C40.0771 42.0977 40.241 42.3708 40.5142 42.644C40.7873 42.8625 41.1697 43.0263 41.4974 43.0263C41.8798 42.9717 42.2622 42.8625 42.5353 42.644Z" fill="#0D022B"/>
<path fill-rule="evenodd" clip-rule="evenodd" d="M46.2494 46.2494C46.4679 46.0309 46.6318 45.7032 46.6318 45.3208C46.6318 44.9384 46.4679 44.6653 46.2494 44.3922C45.7578 43.9005 44.8838 43.9005 44.3921 44.3922C44.1736 44.6107 44.0098 44.9384 44.0098 45.3208C44.0098 45.7032 44.1736 45.9763 44.3921 46.2494C44.6653 46.5226 44.9384 46.6318 45.3208 46.6318C45.6485 46.6318 45.9763 46.4679 46.2494 46.2494Z" fill="#0D022B"/>
<path fill-rule="evenodd" clip-rule="evenodd" d="M49.9096 49.9093C50.1281 49.6908 50.292 49.3631 50.292 48.9807C50.292 48.5983 50.1281 48.3252 49.9096 48.0521C49.4179 47.5604 48.5439 47.5604 48.0523 48.0521C47.8338 48.2706 47.6699 48.5983 47.6699 48.9807C47.6699 49.3631 47.8338 49.6908 48.0523 49.9093C48.3254 50.1825 48.5986 50.2917 48.9809 50.2917C49.3087 50.2917 49.6364 50.2371 49.9096 49.9093Z" fill="#0D022B"/>
<path fill-rule="evenodd" clip-rule="evenodd" d="M53.5149 53.5693C53.788 53.3508 53.9519 53.023 53.9519 52.6406C53.9519 52.2582 53.788 51.9851 53.5149 51.712C53.0233 51.2204 52.0947 51.2204 51.603 51.712C51.3299 51.9305 51.166 52.2582 51.166 52.6406C51.166 53.023 51.3299 53.3508 51.603 53.5693C51.8761 53.8424 52.2585 53.9516 52.5863 53.9516C52.914 54.0063 53.2964 53.897 53.5149 53.5693Z" fill="#0D022B"/>
<path fill-rule="evenodd" clip-rule="evenodd" d="M57.6113 56.3005C57.6113 55.9182 57.4474 55.645 57.2289 55.3719C56.7373 54.8803 55.8633 54.8803 55.3716 55.3719C55.0985 55.645 54.9893 55.9182 54.9893 56.3005C54.9893 56.6829 55.1531 56.956 55.3716 57.2292C55.5901 57.4477 55.9179 57.6115 56.3003 57.6115C56.6827 57.6115 56.9558 57.4477 57.2289 57.2292C57.502 57.0107 57.6113 56.6829 57.6113 56.3005Z" fill="#0D022B"/>
<path fill-rule="evenodd" clip-rule="evenodd" d="M60.8891 60.9438C61.1622 60.6706 61.2714 60.3975 61.2714 60.0151C61.2714 59.6328 61.1076 59.3596 60.8891 59.0865C60.3974 58.5949 59.5234 58.5949 59.0318 59.0865C58.7587 59.3596 58.6494 59.6328 58.6494 60.0151C58.6494 60.3975 58.8133 60.6706 59.0318 60.9438C59.2503 61.1623 59.578 61.3261 59.9604 61.3261C60.3428 61.3261 60.6706 61.1623 60.8891 60.9438Z" fill="#0D022B"/>
<path fill-rule="evenodd" clip-rule="evenodd" d="M64.5491 64.3852C64.8222 64.1667 64.9861 63.8389 64.9861 63.4565C64.9861 63.0742 64.8222 62.801 64.5491 62.5279C64.0028 62.0363 63.1288 62.0363 62.6372 62.5279C62.3641 62.801 62.2002 63.0742 62.2002 63.4565C62.2002 63.8389 62.3641 64.112 62.6372 64.3852C62.9103 64.6583 63.2927 64.7676 63.6205 64.7676C63.8936 64.8222 64.276 64.7129 64.5491 64.3852Z" fill="#0D022B"/>
<path fill-rule="evenodd" clip-rule="evenodd" d="M68.2631 68.0451C68.4816 67.8266 68.6455 67.4988 68.6455 67.1165C68.6455 66.7341 68.4816 66.4609 68.2631 66.1878C67.7715 65.6962 66.8974 65.6962 66.4058 66.1878C66.1873 66.4609 66.0234 66.7341 66.0234 67.1165C66.0234 67.4988 66.1873 67.772 66.4058 68.0451C66.6789 68.3182 66.9521 68.4275 67.3345 68.4275C67.6076 68.4821 67.99 68.3182 68.2631 68.0451Z" fill="#0D022B"/>
<path fill-rule="evenodd" clip-rule="evenodd" d="M71.9232 71.7594C72.1417 71.5409 72.3056 71.2132 72.3056 70.8308C72.3056 70.4484 72.1417 70.1207 71.9232 69.9022C71.4316 69.4105 70.5576 69.4105 70.066 69.9022C69.8475 70.1207 69.6836 70.4484 69.6836 70.8308C69.6836 71.2132 69.8475 71.4863 70.066 71.7594C70.3391 72.0326 70.6122 72.1418 70.9946 72.1418C71.377 72.1418 71.6501 71.9779 71.9232 71.7594Z" fill="#0D022B"/>
<path fill-rule="evenodd" clip-rule="evenodd" d="M75.3647 75.4194C75.6378 75.2009 75.747 74.8731 75.747 74.4907C75.747 74.1083 75.5832 73.8352 75.3647 73.5621C74.873 73.0705 73.999 73.0705 73.5074 73.5621C73.2889 73.8352 73.125 74.1083 73.125 74.4907C73.125 74.8731 73.2889 75.2009 73.5074 75.4194C73.7805 75.6925 74.0536 75.8017 74.436 75.8017C74.7638 75.8017 75.1461 75.6925 75.3647 75.4194Z" fill="#0D022B"/>
<path fill-rule="evenodd" clip-rule="evenodd" d="M79.2436 79.0793C79.5167 78.8608 79.6259 78.533 79.6259 78.1506C79.6259 77.7683 79.4621 77.4951 79.2436 77.222C78.7519 76.7304 77.8779 76.7304 77.3863 77.222C77.1132 77.4951 77.0039 77.7683 77.0039 78.1506C77.0039 78.533 77.1678 78.8608 77.3863 79.0793C77.6048 79.2978 77.9325 79.4616 78.3149 79.4616C78.6973 79.4616 79.0251 79.3524 79.2436 79.0793Z" fill="#0D022B"/>
<path fill-rule="evenodd" clip-rule="evenodd" d="M82.9036 82.7394C83.1767 82.4663 83.3406 82.1932 83.3406 81.8108C83.3406 81.4284 83.1767 81.1553 82.9036 80.8822C82.3573 80.3905 81.4833 80.3905 80.9917 80.8822C80.7186 81.1553 80.5547 81.4284 80.5547 81.8108C80.5547 82.1932 80.7186 82.4663 80.9917 82.7394C81.2648 82.9579 81.6472 83.1218 81.975 83.1218C82.2481 83.1764 82.5758 83.0126 82.9036 82.7394Z" fill="#0D022B"/>
<path fill-rule="evenodd" clip-rule="evenodd" d="M47.5605 39.9128C51.275 37.4546 55.372 36.3075 59.9059 36.2529C64.3306 36.2529 68.4275 37.4546 72.2513 39.9128L80.1174 32.0467C73.9447 27.3489 67.2803 25 59.9059 25C52.5314 25 45.7578 27.3489 39.749 32.0467L47.5605 39.9128Z" fill="#0D022B"/>
<path fill-rule="evenodd" clip-rule="evenodd" d="M39.6943 72.1966C37.1815 68.3728 35.9798 64.3305 35.9798 59.9605C35.9798 55.5358 37.1815 51.4389 39.6943 47.7243L31.8828 39.9128C27.2943 45.9217 25 52.586 25 60.0151C25 67.3349 27.2943 74.0539 31.9375 80.1719L39.6943 72.1966Z" fill="#0D022B"/>
<path fill-rule="evenodd" clip-rule="evenodd" d="M72.1966 80.0081C68.482 82.5208 64.3851 83.8319 59.9604 83.8865C55.4265 83.8865 51.275 82.6847 47.5604 80.0627L39.6943 87.8741C45.7578 92.6266 52.5314 94.9755 59.9604 94.9209C67.3349 94.8662 73.9992 92.4627 80.0081 87.8741L72.1966 80.0081Z" fill="#0D022B"/>
<path fill-rule="evenodd" clip-rule="evenodd" d="M79.8984 47.615C82.4112 51.4388 83.7222 55.5903 83.613 60.0696C83.5584 64.4397 82.302 68.4274 79.8984 72.0873L87.7645 79.8987C92.4077 73.8899 94.8112 67.2256 94.8112 59.9058C94.8659 52.4767 92.517 45.7031 87.7645 39.6396L79.8984 47.615Z" fill="#0D022B"/>
<path fill-rule="evenodd" clip-rule="evenodd" d="M88.0924 82.4661C91.0968 82.4661 93.6096 84.9242 93.6096 87.9833C93.6096 90.9877 91.1514 93.5004 88.0924 93.5004C85.088 93.5004 82.5752 91.0423 82.5752 87.9833C82.5752 84.9242 85.0333 82.4661 88.0924 82.4661Z" fill="#0D022B"/>
<path fill-rule="evenodd" clip-rule="evenodd" d="M31.8278 82.4661C34.8322 82.4661 37.2904 84.9242 37.2904 87.9833C37.2904 90.9877 34.8322 93.5004 31.8278 93.5004C28.8234 93.5004 26.3652 91.0423 26.3652 87.9833C26.3652 84.9242 28.8234 82.4661 31.8278 82.4661Z" fill="#0D022B"/>
<path fill-rule="evenodd" clip-rule="evenodd" d="M88.2018 26.2017C91.2062 26.2017 93.6644 28.6598 93.6644 31.7189C93.6644 34.7779 91.2062 37.236 88.2018 37.236C85.1974 37.236 82.7393 34.7779 82.7393 31.7189C82.7393 28.6598 85.1974 26.2017 88.2018 26.2017Z" fill="#0D022B"/>
<path fill-rule="evenodd" clip-rule="evenodd" d="M31.7193 26.2017C34.7237 26.2017 37.2365 28.6598 37.2365 31.6642C37.2365 34.6686 34.7784 37.1268 31.7193 37.1268C28.7149 37.1268 26.2021 34.6686 26.2021 31.6642C26.2021 28.6598 28.6603 26.2017 31.7193 26.2017Z" fill="#0D022B"/>
</g>
<defs>
<clipPath id="clip0_204_30616">
<rect width="120" height="120" fill="white"/>
</clipPath>
</defs>
</svg>
