<svg width="120" height="120" viewBox="0 0 120 120" fill="none" xmlns="http://www.w3.org/2000/svg">
<circle cx="60" cy="60" r="60" fill="url(#paint0_linear_204_30523)"/>
<path fill-rule="evenodd" clip-rule="evenodd" d="M72.108 28.7503C74.7964 29.1586 77.1189 30.8907 78.2985 33.3668C78.4595 33.7046 78.6608 34.2234 78.7462 34.5199C79.0929 35.7215 79.0779 35.0931 79.0785 48.2973V60.4506H70.9062H62.734V48.2973C62.7346 37.9129 62.7472 36.0651 62.8223 35.6015C63.3961 32.0655 66.1429 29.3089 69.6443 28.7553C70.3311 28.6467 71.4116 28.6445 72.108 28.7503ZM95.7234 38.7898C96.2588 38.9168 97.1193 39.3491 97.5694 39.7172C98.0904 40.1426 98.5092 40.677 98.8199 41.3119C99.3337 42.3629 99.2928 41.5117 99.3132 51.5422L99.3318 60.4506H94.613H89.8947V51.7127C89.8947 42.254 89.8845 42.569 90.2198 41.6803C90.632 40.5874 91.4685 39.6804 92.5687 39.1339C93.5289 38.657 94.649 38.5348 95.7234 38.7898ZM41.3294 39.393C42.3359 39.5977 43.1993 40.0749 43.9857 40.8612C44.8893 41.7647 45.3942 42.7758 45.5448 43.9843C45.5865 44.3188 45.6083 47.2311 45.6083 52.472V60.4506H40.2588H34.9094L34.9258 52.083L34.9423 43.7155L35.1081 43.1868C35.7264 41.2154 37.231 39.8044 39.1486 39.3978C39.7124 39.2783 40.7538 39.276 41.3294 39.393ZM16.5586 50.1782C18.3958 50.5036 19.8855 51.7138 20.5754 53.4415C20.9129 54.2866 20.9246 54.4144 20.9548 57.5813L20.9828 60.5107H15.7492H10.5156V57.6538C10.5156 55.281 10.5318 54.7186 10.6109 54.3339C11.0371 52.2617 12.6272 50.6567 14.6919 50.2149C15.1931 50.1076 16.0636 50.0905 16.5586 50.1782ZM34.8518 64.732C34.8514 69.3697 34.8344 69.6522 34.4945 70.6671C34.1449 71.7103 33.68 72.486 32.935 73.2696C30.4273 75.907 26.4495 76.1828 23.5984 73.9174C22.4933 73.0388 21.6162 71.6892 21.2255 70.2657L21.0632 69.6744L21.0452 65.0925L21.0271 60.5107H27.9396H34.8521L34.8518 64.732ZM62.6582 72.9944L62.6396 85.4781L62.5026 86.079C62.1385 87.6762 61.5346 88.8918 60.5322 90.0444C59.2951 91.4673 57.5247 92.472 55.6433 92.8193C54.7981 92.975 53.3469 92.9593 52.5254 92.7857C50.7446 92.4083 49.3004 91.6115 48.0567 90.3202C46.8983 89.1178 46.2265 87.8589 45.8096 86.1091C45.7085 85.6848 45.7011 84.9151 45.6843 73.0845L45.6664 60.5107H54.1716H62.6769L62.6582 72.9944ZM89.8208 70.4406L89.8046 80.3704L89.6387 80.898C88.8882 83.292 86.8926 84.8051 84.4866 84.8051C82.0415 84.8051 80.0189 83.2367 79.3086 80.7893L79.1698 80.3104L79.1524 70.4105L79.1356 60.5107H84.4866H89.837L89.8208 70.4406ZM109.587 63.4401C109.556 66.6392 109.547 66.733 109.184 67.6398C108.825 68.5363 108.091 69.4551 107.294 70.0031C105.99 70.9002 104.2 71.1484 102.704 70.6388C100.931 70.0361 99.6275 68.5471 99.2441 66.6873C99.1648 66.3021 99.1486 65.7427 99.1486 63.3673V60.5107H104.382H109.616L109.587 63.4401Z" fill="white"/>
<defs>
<linearGradient id="paint0_linear_204_30523" x1="39.0886" y1="-27.4011" x2="-24.8473" y2="83.6455" gradientUnits="userSpaceOnUse">
<stop stop-color="#6B6EEC"/>
<stop offset="1" stop-color="#7CEECA"/>
</linearGradient>
</defs>
</svg>
