<svg width="120" height="120" viewBox="0 0 120 120" fill="none" xmlns="http://www.w3.org/2000/svg">
<circle cx="60" cy="60" r="60" fill="#154284"/>
<path fill-rule="evenodd" clip-rule="evenodd" d="M36.648 115.288C44.04 118.416 51.904 120 60 120C68.096 120 75.96 118.416 83.352 115.272C90.496 112.248 96.912 107.928 102.424 102.416C107.928 96.904 112.256 90.488 115.28 83.344C118.408 75.952 119.992 68.088 119.992 59.992C119.992 51.896 118.408 44.04 115.28 36.64C112.256 29.496 107.936 23.08 102.424 17.568C96.912 12.064 90.496 7.736 83.352 4.712C75.96 1.584 68.096 0 60 0C51.904 0 44.04 1.584 36.64 4.72C29.496 7.744 23.08 12.064 17.568 17.576C12.064 23.088 7.736 29.504 4.712 36.648C1.584 44.04 0 51.904 0 60C0 68.096 1.584 75.96 4.72 83.36C7.744 90.504 12.064 96.92 17.576 102.432C23.088 107.936 29.504 112.264 36.648 115.288ZM19.56 19.568C30.368 8.768 44.728 2.816 60 2.816C75.272 2.816 89.648 8.752 100.448 19.56C111.248 30.368 117.2 44.728 117.2 60C117.2 75.28 111.248 89.64 100.448 100.44C89.64 111.24 75.28 117.192 60.008 117.192C44.728 117.192 30.368 111.24 19.568 100.44C8.768 89.632 2.816 75.272 2.816 60C2.816 44.728 8.76 30.368 19.56 19.568Z" fill="#FAC32C"/>
<path d="M73.2562 22.7839L73.6882 23.0719C78.4642 26.2319 82.3122 26.8159 88.1602 26.8159C90.2242 26.8159 92.4402 26.4239 94.5602 25.6959L95.1122 25.5039L97.8882 29.3919L97.6002 29.7759C87.2882 43.4719 95.3282 58.2639 101.016 64.1679L101.544 64.7119L101.008 65.2479C100.264 65.9919 98.9682 67.3359 98.0082 68.3439L97.6802 68.6879L97.7042 69.1599L97.7122 69.3199C97.7202 69.4399 97.7202 69.5599 97.7442 69.7759L97.7522 69.8639C98.2322 78.9999 95.8642 86.5039 90.7122 92.1679C85.2402 98.1839 76.6082 101.808 66.4002 102.368L66.0082 102.392L65.7202 102.656C63.1202 105.024 60.4882 106.984 60.4562 107.008L60.0002 107.352L59.5442 107.008C59.4322 106.928 56.8322 104.992 54.2642 102.656L53.9762 102.392L53.5842 102.368C43.3842 101.808 34.7442 98.1839 29.2722 92.1679C24.1202 86.5039 21.7522 78.9999 22.2402 69.8639L22.2482 69.7759C22.2722 69.5759 22.2802 69.4639 22.2802 69.3359V69.3039L22.2882 69.1599L22.3122 68.6879L21.9842 68.3439C21.0802 67.3919 19.7522 66.0079 18.9842 65.2479L18.4482 64.7119L18.9762 64.1679C24.6642 58.2639 32.7042 43.4719 22.4002 29.7759L22.1122 29.3919L24.8882 25.5039L25.4402 25.6959C27.5602 26.4319 29.7762 26.8159 31.8402 26.8159C37.6962 26.8159 41.5362 26.2399 46.3122 23.0719L46.7522 22.7839L47.1842 23.0799C51.4002 26.0079 55.4722 27.3679 60.0082 27.3679C64.5442 27.3679 68.6162 26.0079 72.8322 23.0799L73.2562 22.7839Z" fill="#E8B909"/>
<path d="M28.6084 56.6079C31.8404 49.1999 33.0404 39.6879 27.6084 30.3919C28.9684 30.6319 30.3924 30.7839 31.8324 30.7839C37.3924 30.7839 41.7684 30.2799 46.6884 27.5039C50.5604 29.8479 54.9044 31.3359 59.9924 31.3439C65.0964 31.3359 69.4404 29.8479 73.3124 27.5039C78.2324 30.2799 82.6084 30.7839 88.1684 30.7839C89.6084 30.7839 91.0404 30.6319 92.4084 30.3679C86.9604 39.6879 88.1684 49.1999 91.3924 56.6079H28.6084Z" fill="white"/>
<path d="M91.3926 56.6079C88.1606 49.1999 86.9606 39.6879 92.4086 30.3679C91.0406 30.6319 89.6166 30.7839 88.1686 30.7839C82.6086 30.7839 78.2326 30.2799 73.3126 27.5039C69.4326 29.8479 65.0966 31.3359 59.9926 31.3439C59.9446 31.3439 59.8966 31.3439 59.8486 31.3439V56.6159L91.3926 56.6079Z" fill="#FFDD00"/>
<path d="M84.4805 92.4001C90.6645 87.8801 94.3205 80.6561 93.7845 70.1201C93.7205 69.5201 93.6805 69.4881 93.6325 68.8801H84.4805L84.4805 92.4001Z" fill="#0054A4"/>
<path d="M74.6885 96.9281C78.3685 95.9361 81.6885 94.4401 84.4805 92.3921V68.8801H74.6885V96.9281Z" fill="#A30046"/>
<path d="M35.5205 92.3921C38.3205 94.4401 41.6325 95.9281 45.3125 96.9281V68.8801L35.5205 68.8801V92.3921Z" fill="#A30046"/>
<path d="M26.2169 70.1202C25.6809 80.6562 29.3369 87.8722 35.5209 92.4002V68.8882H26.3689C26.3289 69.4882 26.2809 69.5202 26.2169 70.1202Z" fill="#0054A4"/>
<path d="M60.0245 74.0801C61.8165 74.0801 63.4805 74.6001 64.8965 75.4801V68.8801H55.1045V75.5121C56.5285 74.6161 58.2165 74.0801 60.0245 74.0801Z" fill="#A30046"/>
<path d="M60.0245 92.5362C58.2165 92.5362 56.5285 92.0082 55.1045 91.1042V98.4082C55.2805 98.4162 55.4485 98.4322 55.6245 98.4402C58.8805 98.4562 61.8245 98.4722 64.3845 98.4402C64.5605 98.4322 64.7285 98.4162 64.9045 98.4082V91.1362C63.4805 92.0162 61.8165 92.5362 60.0245 92.5362Z" fill="#A30046"/>
<path d="M64.8965 68.8801V75.4801C67.5045 77.1121 69.2485 80.0001 69.2485 83.3041C69.2485 86.6081 67.5045 89.4961 64.8965 91.1281V98.4001C68.3525 98.2241 71.6485 97.7441 74.6885 96.9201V68.8721L64.8965 68.8801Z" fill="#0054A4"/>
<path d="M50.8005 83.3121C50.8005 80.0241 52.5205 77.1521 55.1045 75.5121V68.8801H45.3125V96.9281C48.3525 97.7441 51.6485 98.2321 55.1045 98.4081V91.1041C52.5205 89.4721 50.8005 86.5921 50.8005 83.3121Z" fill="#0054A4"/>
<path d="M30.8164 38.6958C31.4724 41.9038 31.4964 45.0478 31.0724 48.0399H40.5844V56.6078H49.9284V48.0399H59.8804V38.6958H49.9284V29.1918C48.8084 28.6958 47.7284 28.1278 46.6884 27.4958C44.6004 28.6718 42.6084 29.4398 40.5844 29.9358V38.6878L30.8164 38.6958Z" fill="#E31837"/>
<path d="M79.9918 56.608V30.072C78.8638 29.824 77.7518 29.496 76.6318 29.072V56.608H79.9918Z" fill="#E31837"/>
<path d="M66.5602 56.6081V30.4561C65.4802 30.7521 64.3602 30.9841 63.2002 31.1361V56.6161L66.5602 56.6081Z" fill="#E31837"/>
<path d="M86.7037 56.608V30.768C85.5437 30.744 84.4318 30.696 83.3438 30.592V56.608H86.7037Z" fill="#E31837"/>
<path d="M73.2721 56.608V27.52C72.1921 28.176 71.0721 28.752 69.9121 29.256V56.6L73.2721 56.608Z" fill="#E31837"/>
<path fill-rule="evenodd" clip-rule="evenodd" d="M101.824 63.368L103.104 64.696L101.792 66.008C101.096 66.712 99.8485 68.008 98.8165 69.088C98.8165 69.1223 98.8188 69.1543 98.8209 69.184C98.8228 69.2097 98.8245 69.2337 98.8245 69.256C98.8245 69.368 98.8245 69.464 98.8485 69.648L98.8565 69.768C99.3605 79.224 96.8965 87 91.5365 92.896C85.8485 99.144 76.9685 102.88 66.4645 103.456C63.8645 105.832 61.2405 107.792 61.1205 107.88L60.0005 108.712L58.8805 107.88C58.8712 107.873 58.8447 107.853 58.8024 107.821C58.3319 107.465 55.906 105.629 53.5205 103.456C43.0165 102.88 34.1285 99.144 28.4485 92.896C23.0885 87 20.6245 79.216 21.1285 69.768L21.1365 69.648C21.154 69.5137 21.1587 69.4263 21.1631 69.3454C21.1647 69.3154 21.1663 69.2863 21.1685 69.256C21.1685 69.2289 21.1704 69.2037 21.1723 69.1777C21.1743 69.1498 21.1765 69.121 21.1765 69.088C20.1525 68 18.9045 66.712 18.2005 66.008L16.8965 64.704L18.1765 63.376C23.6325 57.704 31.3605 43.52 21.5045 30.416L20.7285 29.384L24.4565 24.16L25.7925 24.624C27.8005 25.312 29.8885 25.68 31.8325 25.68C37.4645 25.68 41.1605 25.136 45.6965 22.128L46.7605 21.424L47.8085 22.152C51.8245 24.944 55.7045 26.24 60.0005 26.24C64.2965 26.24 68.1685 24.936 72.1845 22.136L73.2325 21.408L74.2965 22.112C78.8405 25.12 82.5285 25.672 88.1605 25.672C90.1045 25.672 92.1925 25.312 94.2005 24.616L95.5365 24.152L99.2645 29.376L98.4885 30.408C88.6325 43.512 96.3605 57.696 101.824 63.368ZM96.946 69.3189C96.9399 69.1334 96.9326 68.9089 96.8805 68.392L96.9887 68.2787C98.0194 67.1997 99.6148 65.5294 100.464 64.672C94.1045 58.072 86.6805 42.968 96.9845 29.28L94.8085 26.392C92.7525 27.104 90.4645 27.552 88.1605 27.552C82.2485 27.552 78.2165 26.968 73.2565 23.68C69.3365 26.4 65.0805 28.104 59.9925 28.104C54.8965 28.104 50.6485 26.4 46.7285 23.68C41.7685 26.968 37.7285 27.552 31.8245 27.552C29.5285 27.552 27.2325 27.104 25.1765 26.392L23.0005 29.28C33.3045 42.968 25.8805 58.072 19.5205 64.672C20.4085 65.56 22.0885 67.32 23.1045 68.392C23.0523 68.9051 23.045 69.1299 23.039 69.3168C23.0339 69.4737 23.0297 69.604 23.0005 69.856C21.8805 90.92 36.5525 100.864 54.2885 101.6C57.0005 104.136 60.0005 106.36 60.0005 106.36C60.0005 106.36 62.9845 104.136 65.6965 101.6C83.4325 100.864 98.1045 90.92 96.9845 69.856C96.9552 69.6037 96.951 69.4751 96.946 69.3189Z" fill="#231F20"/>
<path fill-rule="evenodd" clip-rule="evenodd" d="M26.016 69.5119C26.048 69.3359 26.072 69.1839 26.096 68.8639V68.5999H93.872L93.896 68.8639C93.9223 69.1269 93.9432 69.2764 93.9632 69.419C93.9675 69.4499 93.9718 69.4805 93.976 69.5119C94 69.6639 94.024 69.8239 94.056 70.0959C94.472 78.2079 92.448 84.7599 88.048 89.5919C83 95.1359 74.816 98.2879 64.392 98.7199C63.312 98.7359 62.16 98.7439 60.952 98.7439C59.4872 98.7439 57.9288 98.7367 56.2905 98.7291L56.024 98.7279H55.624C45.184 98.2959 37 95.1359 31.952 89.5999C27.544 84.7679 25.52 78.2159 25.936 70.1119C25.968 69.8159 25.992 69.6559 26.016 69.5119ZM26.576 69.5999C26.552 69.7359 26.528 69.8879 26.504 70.1519C26.096 78.0799 28.072 84.4959 32.376 89.2079C37.32 94.6319 45.368 97.7279 55.64 98.1519H56.024L56.2992 98.1533C59.2795 98.1688 62.0009 98.1829 64.376 98.1519C74.64 97.7279 82.688 94.6319 87.632 89.2079C91.928 84.4959 93.904 78.0799 93.496 70.1359C93.472 69.8879 93.448 69.7359 93.424 69.5999C93.4185 69.5559 93.4121 69.5129 93.4054 69.4679C93.3925 69.3819 93.3785 69.2886 93.368 69.1679H26.632C26.616 69.3519 26.6 69.4719 26.576 69.5999Z" fill="#231F20"/>
<path fill-rule="evenodd" clip-rule="evenodd" d="M28.3526 56.496L28.1766 56.888H91.8166L91.6486 56.496C88.8886 50.16 86.8086 40.504 92.6486 30.512L92.9606 29.976L92.3526 30.096C90.9446 30.368 89.5366 30.504 88.1686 30.504C82.4886 30.504 78.2646 29.976 73.4566 27.256L73.3126 27.176L73.1686 27.264C68.9526 29.816 64.6406 31.056 59.9926 31.064C55.3606 31.064 51.0566 29.816 46.8326 27.264L46.6886 27.176L46.5446 27.256C41.7366 29.968 37.5126 30.504 31.8326 30.504C30.5046 30.504 29.1046 30.376 27.6566 30.12L27.0566 30.016L27.3606 30.544C33.1926 40.504 31.1206 50.152 28.3526 56.496ZM60.1606 31.616C64.7926 31.584 69.1046 30.344 73.3126 27.824C78.1686 30.528 82.4406 31.064 88.1606 31.064C89.3686 31.064 90.6086 30.96 91.8566 30.752C86.3926 40.552 88.2726 49.976 90.9606 56.328H60.1606V31.616ZM31.8406 31.064C30.6646 31.064 29.4246 30.968 28.1526 30.768C33.6086 40.552 31.7206 49.976 29.0486 56.328H59.6086V31.616C55.0646 31.544 50.8326 30.304 46.6886 27.824C41.8326 30.528 37.5606 31.064 31.8406 31.064Z" fill="#231F20"/>
<path d="M51.9689 60.264V58.408H45.6729V67.136H47.5609V63.536H50.1369V61.688H47.5609V60.264H51.9689Z" fill="#231F20"/>
<path d="M59.3445 60.152C60.0325 60.152 60.5205 60.44 60.8245 61.032L60.8645 61.112L62.6165 60.304L62.5765 60.216C61.9605 58.944 60.8485 58.272 59.3685 58.272C57.0805 58.272 55.4805 60.12 55.4805 62.768C55.4805 65.504 56.9845 67.264 59.3045 67.264C60.8165 67.264 61.9125 66.6 62.5525 65.28L62.5925 65.2L61.0005 64.256L60.9525 64.336C60.4965 65.096 60.0645 65.376 59.3605 65.376C58.2005 65.376 57.4245 64.32 57.4245 62.76C57.4245 61.16 58.1605 60.152 59.3445 60.152Z" fill="#231F20"/>
<path fill-rule="evenodd" clip-rule="evenodd" d="M73.9769 60.76C73.9769 59.288 72.9289 58.408 71.1769 58.408H67.1689V67.136H71.1449C73.1049 67.136 74.2809 66.072 74.2809 64.288C74.2809 63.456 73.8809 62.784 73.1769 62.408C73.6809 62.032 73.9769 61.44 73.9769 60.76ZM69.0169 60.168H71.0969C71.9449 60.168 72.0569 60.56 72.0569 60.896C72.0569 61.376 71.7689 61.608 71.1849 61.608H69.0169V60.168ZM69.0169 65.328H71.1929C71.9369 65.328 72.3209 64.976 72.3209 64.312C72.3209 63.624 71.9609 63.304 71.1929 63.304H69.0169V65.328Z" fill="#231F20"/>
<path fill-rule="evenodd" clip-rule="evenodd" d="M59.9689 92.6878C65.1689 92.6878 69.3929 88.4558 69.3929 83.2638C69.3929 78.0638 65.1609 73.8398 59.9689 73.8398C54.7689 73.8398 50.5449 78.0718 50.5449 83.2638C50.5369 88.4558 54.7689 92.6878 59.9689 92.6878ZM59.9689 92.1198C58.1369 92.1198 56.4409 91.5598 55.0249 90.6078C56.8969 90.5198 59.3849 90.0478 60.9289 89.1278C62.4249 88.2398 64.0089 87.1278 64.3049 85.6398C65.3929 85.0958 67.4729 85.3518 67.7369 87.5438C66.2169 90.2718 63.3049 92.1198 59.9689 92.1198ZM57.1689 85.8478C56.5449 85.7678 56.0249 85.5758 55.5929 85.2878C54.9049 86.4718 53.6649 87.1358 52.2089 87.1518C52.1729 87.1518 52.1369 87.1498 52.1009 87.1478L52.1009 87.1478C52.0649 87.1458 52.0289 87.1438 51.9929 87.1438C52.5529 88.2958 53.3529 89.3038 54.3289 90.1118C56.1769 90.1198 59.0169 89.6558 60.6489 88.6878C62.7529 87.4318 64.3849 86.0878 63.6089 84.2318C63.2169 83.2878 61.9129 82.1998 60.2169 83.3998C60.1129 84.7838 58.4009 86.0078 57.1689 85.8478ZM54.1849 80.8158C54.1655 79.4083 54.4826 78.1427 54.8123 76.8272L54.8123 76.8271L54.8123 76.8271L54.8123 76.827C54.8892 76.5201 54.9668 76.2106 55.0409 75.8958C56.2489 75.0878 57.6649 74.5678 59.1929 74.4318C58.1689 75.5438 58.3849 77.1838 59.4329 78.0238C59.1849 78.2078 58.9609 78.4478 58.7689 78.7518C57.9849 79.9918 57.8809 82.0718 59.6889 83.3918C59.5769 84.4318 58.1929 85.4478 57.2329 85.3278C55.1849 85.0638 54.2169 83.1598 54.1849 80.8158ZM64.0969 84.0158C64.2489 84.3758 64.3209 84.7198 64.3369 85.0478C65.5449 84.6238 67.4969 84.9038 68.0969 86.7758C68.4569 85.9358 68.6969 85.0238 68.7849 84.0718C68.2809 82.2398 66.4649 80.2078 64.7289 79.2398C62.5849 78.0398 60.2489 77.3918 59.2169 79.0238C58.5529 80.0718 58.4649 81.7998 59.9609 82.9278C62.0009 81.5198 63.6249 82.8878 64.0969 84.0158ZM64.9849 78.7838C63.4409 77.9198 61.4089 77.1278 59.9449 77.7358C58.8409 77.0478 58.6489 75.3118 60.0409 74.3998C64.7209 74.4398 68.5369 78.1038 68.8089 82.7198C67.9769 81.1278 66.4489 79.5998 64.9849 78.7838ZM54.2702 76.7917C54.3052 76.6586 54.3409 76.5229 54.3769 76.3838C52.3849 78.0078 51.1049 80.4878 51.1049 83.2558C51.1049 84.4318 51.3289 85.5518 51.7449 86.5758C51.8969 86.5998 52.0489 86.6078 52.2089 86.6078C53.5209 86.6078 54.5929 85.9998 55.1769 84.9598C53.4809 83.4158 53.4729 80.2718 53.9289 78.1838C54.0232 77.7314 54.1421 77.279 54.2702 76.7917Z" fill="#231F20"/>
</svg>
