<svg width="120" height="120" viewBox="0 0 120 120" fill="none" xmlns="http://www.w3.org/2000/svg">
<path d="M60 120C93.138 120 120 93.138 120 60C120 26.862 93.138 0 60 0C26.862 0 0 26.862 0 60C0 93.138 26.862 120 60 120Z" fill="#EDF0F4"/>
<path d="M61.5936 69.068V90.8559C61.5936 92.0125 60.8669 92.5664 59.9696 92.078L47.6456 85.3201C46.6478 84.6471 46.0402 83.5302 46.0122 82.3267V61.0366C46.1921 61.1815 46.3837 61.3077 46.5847 61.4198L61.5936 69.068Z" fill="#425CC7"/>
<mask id="mask0_204_30352" style="mask-type:luminance" maskUnits="userSpaceOnUse" x="46" y="27" width="28" height="32">
<path fill-rule="evenodd" clip-rule="evenodd" d="M46 27H73.477V58.7882H46V27Z" fill="white"/>
</mask>
<g mask="url(#mask0_204_30352)">
<path d="M47.3779 58.6566L72.1194 45.9704C72.9442 45.4493 73.456 44.5474 73.477 43.5706V28.1504C73.477 27.1947 72.8648 26.7554 72.1194 27.1362L49.3197 38.8293C46.9666 40.0912 45.8777 40.6847 46.0109 43.3509V57.6425C46.0109 58.5515 46.6325 59.0399 47.3779 58.6566Z" fill="#005CB9"/>
</g>
<path d="M47.3777 41.0089L72.1192 53.6951C72.9464 54.2209 73.4558 55.1252 73.4769 56.1043V71.5152C73.4769 72.4709 72.8646 72.9195 72.1192 72.5386L47.3777 59.8501C46.5482 59.329 46.0341 58.4247 46.0107 57.4433V42.0301C46.0107 41.086 46.6323 40.6257 47.3777 41.0089Z" fill="#3CB4E5"/>
<path d="M47.3777 58.6566L64.5856 49.833L47.3777 41.0094C47.088 40.8178 46.7118 40.8178 46.422 41.0094C46.172 41.4674 46.0318 41.9768 46.0107 42.5003V57.4414C46.0201 57.7709 46.0879 58.0934 46.2117 58.3995C46.4384 58.7874 46.9361 58.9183 47.324 58.6916C47.3404 58.6799 47.359 58.6682 47.3777 58.6566Z" fill="#00A0DF"/>
</svg>
