<svg width="120" height="120" viewBox="0 0 120 120" fill="none" xmlns="http://www.w3.org/2000/svg">
<circle cx="60" cy="60" r="60" fill="#00EF8B"/>
<rect x="69.3604" y="50.6399" width="16.92" height="16.92" fill="white"/>
<path d="M52.4398 73.9199C52.4398 77.3999 49.5598 80.2799 46.0798 80.2799C42.5998 80.2799 39.7198 77.3999 39.7198 73.9199C39.7198 70.4399 42.5998 67.5599 46.0798 67.5599H52.4398V50.6399H46.0798C33.2398 50.6399 22.7998 61.0799 22.7998 73.9199C22.7998 86.7599 33.2398 97.1999 46.0798 97.1999C58.9198 97.1999 69.3598 86.7599 69.3598 73.9199V67.5599H52.4398V73.9199Z" fill="white"/>
<path d="M75.7204 42.12H94.8004V25.2H75.7204C62.8804 25.2 52.4404 35.64 52.4404 48.48V50.64H69.3604V48.48C69.3604 45 72.2404 42.12 75.7204 42.12Z" fill="white"/>
<path d="M69.3604 50.6399H52.4404V67.5599H69.3604V50.6399Z" fill="#16FF99"/>
</svg>
