<svg width="122" height="122" viewBox="0 0 122 122" fill="none" xmlns="http://www.w3.org/2000/svg">
<circle cx="61" cy="61" r="60" fill="black" stroke="black" stroke-width="0.436504"/>
<path d="M34.4084 26.8075L30.3857 30.8301L35.4752 35.9196L40.5758 41.009L40.1535 42.2536C39.609 43.8871 39.3867 45.2539 39.3867 47.0652C39.3867 52.9659 42.476 57.9887 47.9432 60.9779C50.1435 62.178 53.9217 63.5337 58.111 64.6116C66.2897 66.7118 67.5454 67.0785 69.1567 67.8342C71.3569 68.8787 72.4459 70.0122 72.9015 71.7235C73.1016 72.468 73.0904 74.1349 72.8904 74.935C72.3792 76.8796 70.7235 78.8354 68.6677 79.9022C65.8896 81.3579 61.0558 81.7579 57.4109 80.8245C56.0552 80.4911 54.1328 79.5466 53.166 78.7576C51.1991 77.1352 49.6656 74.3349 48.9878 71.1012C48.8767 70.59 48.7878 70.1567 48.7767 70.1344C48.7433 70.09 37.3643 71.2012 37.3087 71.2679C37.2643 71.3013 37.2976 71.768 37.3754 72.3013C37.731 74.8683 38.6311 77.9242 39.6645 80.0466L40.2646 81.2801L35.3196 86.2251L30.3857 91.1701L34.4195 95.2039L38.4422 99.2265L43.5427 94.126L48.6322 89.0365L49.5101 89.4032C54.155 91.359 61.1225 91.9702 67.8788 90.9923C69.5012 90.7589 71.8459 90.2033 73.0793 89.7477L73.8127 89.481L78.6911 94.3593L83.5583 99.2265L87.5809 95.2039L91.6147 91.1701L87.092 86.6474L82.5804 82.1358L83.1471 80.9801C84.325 78.6132 84.814 76.6018 84.914 73.8349C85.0918 68.5565 83.7249 64.5783 80.6135 61.3001C77.3687 57.8887 73.7127 56.2663 63.3894 53.666C56.1108 51.8435 52.9771 50.5879 51.7325 49.0099C50.4991 47.4542 50.3879 45.2762 51.4658 43.6871C52.0881 42.7648 53.6216 41.7758 55.2885 41.2202C57.1665 40.5868 60.3224 40.2978 62.6671 40.5423C67.6121 41.0646 70.1012 43.1759 71.1902 47.7987C71.3236 48.3654 71.4458 48.8432 71.4569 48.8654C71.4792 48.8988 79.5245 48.6099 81.9359 48.4876L83.3138 48.4209L83.236 47.4542C83.0804 45.4873 82.6915 43.7315 81.9803 41.898L81.5914 40.8646L86.603 35.8418L91.6147 30.8301L87.592 26.7963L83.5583 22.7737L78.491 27.8409L73.4127 32.9192L72.1792 32.4525C69.1456 31.3191 66.2119 30.819 61.8892 30.6968C57.1665 30.5745 53.0216 31.1857 49.8434 32.4747L48.6655 32.9526L43.5539 27.8631L38.4422 22.7737L34.4084 26.8075Z" fill="white"/>
</svg>
