<svg width="122" height="122" viewBox="0 0 122 122" fill="none" xmlns="http://www.w3.org/2000/svg">
<circle cx="61" cy="61" r="60" fill="black" stroke="black" stroke-width="1.2373"/>
<path fill-rule="evenodd" clip-rule="evenodd" d="M23.2626 32.5602C23.2837 32.518 25.3708 30.2833 27.9007 27.6269L32.4755 22.7358L33.4032 23.6424C33.9091 24.1483 36.0384 26.1722 38.1256 28.154C39.1279 29.1158 40.1351 30.0728 40.9627 30.8591C41.8584 31.7101 42.5437 32.3612 42.7848 32.6023L43.6491 33.4456L44.4081 32.9818C44.8297 32.7288 45.9049 32.1385 46.8325 31.6958C50.037 30.0935 53.1783 29.1448 57.0153 28.5967C58.6175 28.3648 63.8037 28.407 65.5325 28.6599C68.8635 29.1448 71.7306 30.0092 74.8086 31.4217C75.8206 31.8855 77.6337 32.8764 78.3505 33.3613C78.6034 33.551 78.8775 33.6775 78.9197 33.6564C78.9829 33.6353 81.3441 31.1898 84.1902 28.2172C87.0363 25.2235 89.4186 22.7991 89.503 22.7991C89.6294 22.7991 99.1164 31.759 99.2008 31.9699C99.2219 32.0331 96.7974 34.6262 93.8248 37.7253L88.4067 43.3964L88.8072 44.0921C89.6294 45.4836 91.042 48.5194 91.5058 49.8687C94.7103 59.0816 93.6772 69.0746 88.7229 77.3177L88.1326 78.2875L89.4186 79.5103C93.2978 83.1575 99.6435 89.2502 99.6646 89.3135C99.6857 89.44 90.4306 99.1167 90.3462 99.0746C90.2619 99.0324 81.829 91.0211 79.5732 88.8286L78.5402 87.8167L77.5704 88.407C73.8389 90.6628 69.2851 92.2018 64.6892 92.7288C62.3069 93.024 58.0483 92.9185 55.8136 92.518C51.3652 91.7169 47.3385 90.1989 43.9021 88.0064L43.2275 87.5847L42.5107 88.3015C42.1312 88.7021 39.6224 91.3374 36.945 94.1413L32.075 99.2221L31.7588 98.9481C30.9365 98.2734 22.3139 89.946 22.335 89.8827C22.3421 89.8756 22.4184 89.7946 22.555 89.6495C23.2339 88.9285 25.4017 86.6262 27.964 83.9586C31.042 80.733 33.5929 78.0345 33.6351 77.9502C33.6772 77.8658 33.4875 77.402 33.0659 76.6852C32.2015 75.2306 31.1895 73.0169 30.5992 71.2882C27.458 62.1385 28.491 52.1877 33.4875 43.9235L34.0567 42.9748L33.7405 42.6796C33.6097 42.5652 32.1098 41.1323 30.1353 39.2461C29.5636 38.6999 28.952 38.1157 28.3224 37.5145C25.5184 34.8581 23.2415 32.6234 23.2626 32.5602ZM72.4053 44.8511C69.6435 42.9115 66.6498 41.7731 63.2978 41.3725C55.2022 40.4027 47.3385 44.6613 43.7124 51.9558C42.8058 53.811 42.3209 55.1392 41.9625 56.9944C41.5831 58.8708 41.5831 62.4126 41.9625 64.31C43.1642 70.2762 46.9169 75.2517 52.2296 77.9713C59.5873 81.7239 68.3364 80.459 74.387 74.8089C81.4706 68.168 82.5458 57.3318 76.9169 49.3627C75.926 47.9502 73.8178 45.842 72.4053 44.8511Z" fill="white"/>
</svg>
