<svg width="120" height="120" viewBox="0 0 120 120" fill="none" xmlns="http://www.w3.org/2000/svg">
<rect width="120" height="120" rx="60" fill="#181818"/>
<path d="M30.4625 55.718H22V50.6622H30.4625C30.4625 50.5237 30.4625 50.4089 30.4625 50.2941C30.4842 48.8185 30.4474 47.3417 30.5401 45.8687C30.7183 43.0403 31.4437 40.3752 33.147 38.05C34.9305 35.6153 37.3887 34.2224 40.2823 33.5269C42.64 32.9614 45.0298 32.9036 47.4348 33.1077C49.9248 33.3237 52.3723 33.886 54.7063 34.7781C54.8378 34.828 54.9693 34.8837 55.1292 34.9487L53.6981 39.5138C53.3588 39.3826 53.0405 39.2514 52.7163 39.1319C49.6306 37.9858 46.4457 37.6885 43.2101 38.1911C39.5274 38.7613 37.3039 41.0779 36.6995 44.7619C36.4812 46.0984 36.4989 47.4401 36.4983 48.7844C36.4983 49.3939 36.4983 50.0041 36.4983 50.6464H51.4885V55.6872H36.5233V86.9173H30.4625V55.718Z" fill="white"/>
<path fill-rule="evenodd" clip-rule="evenodd" d="M62.0897 85.6792L62.0861 85.6821C61.5306 86.1294 60.9782 86.5741 60.4508 87.0001C52.0119 79.3435 51.0735 64.6338 60.4172 55.7319C60.9762 56.1798 61.5565 56.6506 62.138 57.1225L62.1382 57.1226C62.5712 57.4739 63.0049 57.8258 63.4312 58.1693L63.37 58.2394C63.1293 58.5148 62.8997 58.7777 62.6729 59.0432C60.6342 61.4321 59.2216 64.0663 58.6258 67.1657C58.2503 69.1196 58.1812 71.0878 58.3193 73.0706C58.4752 75.3013 58.9901 77.4415 59.9496 79.4688C60.7854 81.2127 61.8709 82.8261 63.1721 84.2583C63.2287 84.3183 63.2824 84.3792 63.3483 84.4539C63.3811 84.4911 63.4168 84.5316 63.4575 84.5772C63.0075 84.9402 62.5475 85.3105 62.0897 85.6792ZM78.9304 71.4172C78.918 71.3963 78.9074 71.3743 78.8988 71.3516C78.9076 71.3289 78.9181 71.307 78.9304 71.286C79.8109 69.7013 80.7116 68.0678 81.6075 66.443L81.6077 66.4426C82.2106 65.3492 82.8114 64.2598 83.4023 63.1917C83.6695 62.7079 83.947 62.2194 84.2285 61.7239C84.5429 61.1706 84.8622 60.6085 85.1779 60.0339H79.4565C79.4565 60.0339 76.9259 65.6764 75.7737 68.1931H75.6422C74.3696 65.66 71.6306 60.0339 71.6306 60.0339L65.6099 60.0011C65.6941 60.1599 69.9799 67.8133 71.9594 71.286C71.9732 71.3103 71.9851 71.3319 71.9956 71.3516L71.9594 71.4172C69.9799 74.84 65.6283 82.645 65.5442 82.8011L71.6306 82.769C71.6306 82.769 74.3696 77.223 75.6422 74.7298H75.7737C76.9259 77.2099 79.4565 82.7722 79.4565 82.7722H85.2437C85.0729 82.4661 84.6083 81.6281 83.997 80.5252L83.9944 80.5206L83.9942 80.5203C82.4538 77.7416 79.9843 73.2867 78.9304 71.4172ZM88.7766 85.7645C88.2839 85.3677 87.7877 84.9682 87.3034 84.5772C87.321 84.5568 87.3378 84.5375 87.3538 84.5191C87.4458 84.4129 87.5134 84.3349 87.5862 84.2583C88.8871 82.8259 89.9726 81.2125 90.8086 79.4688C91.7681 77.4415 92.2824 75.3013 92.4382 73.0706C92.5763 71.0878 92.5073 69.1196 92.1318 67.1657C91.5366 64.0663 90.124 61.4321 88.0853 59.0432C87.8387 58.7552 87.5901 58.4705 87.3271 58.1693C87.813 57.7785 88.3088 57.3769 88.8016 56.9777C89.3241 56.5545 89.8432 56.134 90.3437 55.7319C99.6874 64.6338 98.7483 79.3435 90.3095 87.0001C89.8144 86.6003 89.2974 86.1839 88.7766 85.7645Z" fill="#F7D509"/>
</svg>
