<svg width="120" height="120" viewBox="0 0 120 120" fill="none" xmlns="http://www.w3.org/2000/svg">
<circle cx="60" cy="60" r="60" fill="#EDF0F4"/>
<path d="M67.1379 46.9359C64.6948 48.451 59.8012 51.4889 59.7712 51.5189L37.2965 38.2854L59.7807 25.8296L87.5508 41.247L93.0336 38.126L59.8181 20L26.4434 38.1072L59.6401 57.283L72.527 50.1318L67.1379 46.9359Z" fill="black"/>
<path d="M45.3704 59.0739V53.3059L58.0972 60.3772V99.9748L24 78.8561V40.6626L29.375 44.0446V76.0377L52.7251 90.4569V63.3972L45.3704 59.0739Z" fill="black"/>
<path d="M61.3789 100V93.6789L89.9198 76.0997V50.0708L66.777 63.5692V72.1569L61.375 75.6207V60.4169L95.5468 40.4717V78.8938L61.3789 100Z" fill="black"/>
</svg>
