<svg width="120" height="120" viewBox="0 0 120 120" fill="none" xmlns="http://www.w3.org/2000/svg">
<circle cx="60" cy="60" r="60" fill="#EDF0F4"/>
<path d="M44.0816 71.1126C44.0816 75.5873 45.8953 79.6383 48.8271 82.57C51.7589 85.5017 55.8099 87.3155 60.2845 87.3155C64.7592 87.3154 68.81 85.5019 71.7417 82.57C74.6739 79.6383 76.4873 75.5872 76.4873 71.1126L76.511 70.7692C76.5131 70.7498 77.3717 63.9959 71.4583 59.5779L75.0822 54.7224C83.0471 60.6733 82.6801 69.6502 82.5501 71.2172C82.5221 77.3234 80.0354 82.8503 76.0287 86.857C71.9992 90.8865 66.4326 93.3792 60.2845 93.3792C54.1366 93.3792 48.5698 90.8865 44.5403 86.857C40.5106 82.8275 38.0181 77.2607 38.0181 71.1126H44.0816Z" fill="#FDB813"/>
<path d="M68.2816 35.465C68.2816 33.145 67.3412 31.0442 65.821 29.524C64.3012 28.0038 62.2006 27.0636 59.8802 27.0636C57.5601 27.0636 55.4594 28.0038 53.9391 29.524C52.419 31.0438 51.4786 33.1448 51.4786 35.465H45.4152C45.4152 31.471 47.0345 27.8548 49.6523 25.237C52.27 22.6193 55.8864 21 59.8802 21C63.8741 20.9999 67.4903 22.6194 70.108 25.237C72.7258 27.8548 74.3451 31.4712 74.3451 35.465H68.2816Z" fill="#FDB813"/>
<path d="M39.1424 64.3984C37.9551 67.682 38.0689 71.2363 38.0689 71.2363L44.0816 71.2298C44.0816 71.2298 44.1448 67.2627 45.0291 64.3921L39.1424 64.3984V64.3984Z" fill="#FDB813"/>
<path d="M75.7337 55.1063C73.6945 53.1424 71.2843 51.5647 68.6208 50.4908C66.063 49.4595 63.2557 48.8916 60.3013 48.8916C48.0199 48.8915 38.0634 58.8482 38.0634 71.1297C38.0634 83.4111 48.0199 93.3677 60.3013 93.3677C72.583 93.3675 82.5394 83.4111 82.5394 71.1297C82.5396 70.4399 82.5058 69.0848 82.44 67.7717C82.3947 66.8735 82.3395 66.0704 82.2788 65.6774L88.271 64.7773C88.3754 65.455 88.4519 66.4587 88.5034 67.4876C88.5692 68.8003 88.6031 70.297 88.6031 71.1297C88.6031 86.7599 75.9318 99.4311 60.3013 99.4311C44.6711 99.431 32 86.7599 32 71.1297C32 55.4993 44.6712 42.8281 60.3013 42.8281C64.025 42.8281 67.5934 43.5558 70.8708 44.8773C74.2673 46.2467 77.3355 48.2539 79.9257 50.7486L75.7334 55.1064H75.7337V55.1063Z" fill="#A80532"/>
<path d="M73.6072 64.729L88.092 64.746V70.8097L73.6072 70.7925V64.729Z" fill="#A80532"/>
<path d="M50.0234 65.6239H50.2053C51.4331 65.6239 51.761 64.9859 51.7883 64.5029H52.8364V70.961H51.5605V66.5082H50.0235V65.6239H50.0234Z" fill="#363636"/>
<path fill-rule="evenodd" clip-rule="evenodd" d="M56.8556 71.1333C55.7523 71.1333 54.9594 70.4936 54.8502 69.4677V69.4676H56.1169V69.4767C56.1899 69.9198 56.4726 70.1096 56.8647 70.1098C57.3935 70.1098 57.9224 69.6667 57.9315 68.3137L57.9132 68.2954C57.6215 68.7341 57.1201 68.8436 56.6822 68.8436C55.4425 68.8436 54.7224 67.9024 54.7224 66.8193C54.7224 65.237 55.6611 64.5029 56.9286 64.5029C59.1684 64.5029 59.2049 66.9101 59.2048 67.8203C59.2048 70.32 58.0224 71.1333 56.8556 71.1333ZM56.9194 65.545C56.5912 65.545 55.9984 65.709 55.9984 66.6371C55.9984 67.611 56.4727 67.8202 56.9558 67.8202C57.4026 67.8202 57.8951 67.5014 57.8951 66.7372C57.8951 66 57.5761 65.545 56.9194 65.545Z" fill="#363636"/>
<path fill-rule="evenodd" clip-rule="evenodd" d="M62.0357 71.1332C60.5124 71.1332 59.7943 70.0736 59.7943 67.8141C59.7942 65.5551 60.5123 64.5044 62.0357 64.5044C63.559 64.5044 64.2774 65.5549 64.2774 67.8143C64.2774 70.0736 63.559 71.1332 62.0357 71.1332ZM62.0356 65.5277C61.3045 65.5277 61.1036 66.1537 61.1036 67.8141C61.1036 69.4748 61.3047 70.1097 62.0356 70.1099C62.7665 70.1099 62.9677 69.4746 62.9676 67.8143C62.9676 66.1539 62.7667 65.5277 62.0356 65.5277Z" fill="#363636"/>
<path d="M66.1444 67.087C66.3808 66.9227 66.672 66.7306 67.2998 66.7306C68.1641 66.7306 69.2555 67.3338 69.2555 68.8142C69.2556 69.693 68.81 71.1332 66.9087 71.1332C65.8983 71.1332 64.8685 70.5303 64.8047 69.2309H66.0807C66.1353 69.7565 66.4174 70.1098 66.9814 70.1098C67.5911 70.1096 67.9459 69.5936 67.9459 68.9048C67.9459 68.3339 67.673 67.7542 66.9997 67.7542C66.8268 67.754 66.3899 67.7634 66.1444 68.2163L65.0051 68.1618L65.4518 64.6135H69.0009V65.6868H66.3717L66.1444 67.087Z" fill="#363636"/>
<path d="M51.4483 35.4016L45.3955 35.4231C44.9743 42.1599 51.038 45.9497 51.038 45.9497L71.5334 59.6554L75.2282 54.8235L55.838 42.4968C55.838 42.4968 51.4483 39.8651 51.4483 35.4016Z" fill="#FDB813"/>
</svg>
