<svg width="120" height="120" viewBox="0 0 120 120" fill="none" xmlns="http://www.w3.org/2000/svg">
<circle cx="60" cy="60" r="60" fill="#EDF0F4"/>
<path fill-rule="evenodd" clip-rule="evenodd" d="M65.3063 56.5957C65.3563 56.6759 65.4432 56.7257 65.5376 56.7283H73.6021C73.6976 56.7285 73.7857 56.6774 73.833 56.5945C73.8803 56.5116 73.8794 56.4097 73.8307 56.3277L60.419 33.1331C60.369 33.0529 60.2821 33.0032 60.1877 33.0005H52.1232C52.0277 33.0003 51.9396 33.0514 51.8923 33.1343C51.845 33.2172 51.8459 33.3191 51.8946 33.4012L65.3063 56.5957ZM73.5993 63.4063C73.5532 63.3265 73.4711 63.2742 73.3792 63.2663H65.3147C65.2204 63.2667 65.1333 63.3172 65.0862 63.3989L51.8946 86.2125C51.8459 86.2946 51.845 86.3965 51.8923 86.4794C51.9396 86.5623 52.0277 86.6134 52.1232 86.6132H60.1877C60.2821 86.6105 60.369 86.5607 60.419 86.4806L73.6106 63.667C73.6496 63.5835 73.6454 63.4861 73.5993 63.4063Z" fill="#E31337"/>
<path fill-rule="evenodd" clip-rule="evenodd" d="M67.1326 33.1267C67.081 33.2108 67.0804 33.3166 67.1311 33.4013L82.4276 59.807L67.1452 86.2126C67.0962 86.2951 67.0955 86.3976 67.1435 86.4807C67.1915 86.5638 67.2806 86.6145 67.3765 86.6133H75.4523C75.5468 86.6135 75.6341 86.5628 75.6809 86.4807L91.0564 59.9396C91.1044 59.8577 91.1044 59.7562 91.0564 59.6743L75.6809 33.1332C75.6341 33.0511 75.5468 33.0004 75.4523 33.0006H67.3765C67.2781 32.994 67.1841 33.0425 67.1326 33.1267ZM60.5677 59.9537C60.6181 59.8664 60.6181 59.7588 60.5677 59.6715L44.9495 33.1332C44.8969 33.0564 44.8098 33.0105 44.7167 33.0105C44.6236 33.0105 44.5365 33.0564 44.4839 33.1332L29.0378 59.6602C28.9874 59.7475 28.9874 59.8551 29.0378 59.9424L44.656 86.4807C44.7086 86.5575 44.7957 86.6034 44.8888 86.6034C44.9819 86.6034 45.069 86.5575 45.1216 86.4807L60.5677 59.9537Z" fill="#E31337"/>
</svg>
