<svg width="120" height="120" viewBox="0 0 120 120" fill="none" xmlns="http://www.w3.org/2000/svg">
<circle cx="60" cy="60" r="60" fill="#EDF0F4"/>
<circle cx="84.9138" cy="36.0862" r="5.08621" fill="#18A0B1"/>
<path d="M45.811 69.2278C41.871 62.5394 42.9531 54.0328 48.4421 48.5438C53.9312 43.0547 62.4377 41.9726 69.1262 45.9126L73.1952 41.8437L72.9917 41.6809C63.9671 35.7324 51.9978 36.9844 44.3995 44.6717C36.8012 52.359 35.6888 64.3421 41.742 73.2968L45.811 69.2278Z" fill="#18A0B1"/>
<path d="M75.1889 51.996C79.129 58.6844 78.0469 67.191 72.5578 72.68C67.0688 78.1691 58.5622 79.2512 51.8738 75.3111L47.8048 79.3801C56.7945 85.4833 68.8521 84.3406 76.5352 76.6574C84.2184 68.9743 85.3611 56.9167 79.2579 47.927L75.1889 51.996Z" fill="#18A0B1"/>
<circle cx="36.0862" cy="84.9138" r="5.08621" fill="#18A0B1"/>
</svg>
