<svg width="120" height="120" viewBox="0 0 120 120" fill="none" xmlns="http://www.w3.org/2000/svg">
<path d="M118.191 74.5143C110.178 106.657 77.6222 126.219 45.4752 118.204C13.3417 110.19 -6.22004 77.6324 1.79691 45.4918C9.80683 13.3451 42.3626 -6.21803 74.4997 1.79541C106.644 9.80884 126.205 42.3702 118.191 74.5149L118.191 74.5143H118.191Z" fill="black"/>
<mask id="mask0_204_30599" style="mask-type:luminance" maskUnits="userSpaceOnUse" x="28" y="47" width="75" height="56">
<path fill-rule="evenodd" clip-rule="evenodd" d="M89.3598 48.2201C82.9287 48.9228 78.1761 54.5415 78.5498 61.0001C78.6599 62.6987 77.8106 64.3163 76.3498 65.1901C75.6198 65.6384 74.7763 65.8675 73.9198 65.8501C73.0701 65.8393 72.2373 65.6121 71.4998 65.1901C69.549 64.0732 67.3474 63.4677 65.0998 63.4301H63.7798C57.3896 64.1686 52.7184 69.8146 53.1898 76.2301C53.3043 77.9271 52.4585 79.5453 50.9998 80.4201C50.2735 80.8686 49.4332 81.0978 48.5798 81.0801C47.7921 81.0977 47.0188 80.8668 46.3698 80.4201C44.4283 79.3068 42.2374 78.7015 39.9998 78.6601H38.6298C32.3483 79.4687 27.7601 84.995 28.1204 91.318C28.4808 97.6411 33.6671 102.61 39.9998 102.7H41.0998C46.8135 102.137 51.3281 97.6059 51.8698 91.8901V89.8901C51.7619 88.1919 52.6107 86.5755 54.0698 85.7001C54.7998 85.2518 55.6433 85.0227 56.4998 85.0401C57.3494 85.0509 58.1823 85.278 58.9198 85.7001C60.868 86.8246 63.0707 87.4338 65.3198 87.4701H66.6398C72.2799 86.828 76.6986 82.3217 77.2298 76.6701V74.6701C77.1201 72.9663 77.9735 71.3446 79.4398 70.4701C80.166 70.0215 81.0064 69.7923 81.8598 69.8101C82.6475 69.7925 83.4207 70.0234 84.0698 70.4701C86.0145 71.5942 88.2139 72.2034 90.4598 72.2401H91.7898C97.7398 71.1401 102.37 66.2401 102.37 60.1101C102.399 56.924 101.16 53.8571 98.9259 51.5854C96.6918 49.3137 93.6459 48.0238 90.4598 48.0001C90.0787 47.9427 89.6895 48.0205 89.3598 48.2201Z" fill="white"/>
</mask>
<g mask="url(#mask0_204_30599)">
<path d="M83.9997 47.77L32.4997 78.87C26.0378 82.7729 23.9309 91.1557 27.7797 97.65C29.6508 100.82 32.7149 103.107 36.286 104C39.857 104.893 43.637 104.317 46.7797 102.4L98.4097 71C104.692 67.0856 106.726 58.8863 103 52.49C101.135 49.3124 98.0685 47.0204 94.4929 46.1321C90.9173 45.2439 87.1346 45.8343 83.9997 47.77Z" fill="url(#paint0_linear_204_30599)"/>
</g>
<mask id="mask1_204_30599" style="mask-type:luminance" maskUnits="userSpaceOnUse" x="28" y="32" width="49" height="40">
<path fill-rule="evenodd" clip-rule="evenodd" d="M63.9996 33.0001C57.5644 33.7029 52.8103 39.3278 53.1896 45.7901C53.3142 47.4946 52.4668 49.1237 50.9996 50.0001C50.2734 50.4487 49.433 50.6779 48.5796 50.6601C47.7851 50.682 47.0042 50.4509 46.3496 50.0001C44.4159 48.8831 42.2321 48.271 39.9996 48.2201H38.6296C32.7355 48.9715 28.3071 53.9685 28.2696 59.9101C28.2472 66.5264 33.5637 71.9233 40.1796 72.0001H41.2796C46.9954 71.4584 51.5267 66.9439 52.0896 61.2301V59.2301C51.9771 57.531 52.827 55.9123 54.2896 55.0401C55.0167 54.584 55.8615 54.3511 56.7196 54.3701C57.5059 54.3513 58.2773 54.5862 58.9196 55.0401C60.8704 56.157 63.072 56.7625 65.3196 56.8001H66.6396C72.8048 55.883 77.2577 50.4223 76.9154 44.1987C76.5731 37.975 71.5482 33.0356 65.3196 32.8001C64.8695 32.7395 64.4115 32.8089 63.9996 33.0001Z" fill="white"/>
</mask>
<g mask="url(#mask1_204_30599)">
<path d="M74.7898 35.5501C70.6364 31.3909 64.1953 30.5683 59.1298 33.5501L33.6298 48.9101C30.1823 50.9481 27.8665 54.4614 27.3527 58.4332C26.8388 62.405 28.1844 66.3919 30.9998 69.2401C35.1907 73.4224 41.6781 74.2446 46.7798 71.2401L72.2998 55.6901C75.6979 53.6506 77.9677 50.1602 78.454 46.2271C78.9403 42.2939 77.5888 38.3558 74.7898 35.5501Z" fill="url(#paint1_linear_204_30599)"/>
</g>
<mask id="mask2_204_30599" style="mask-type:luminance" maskUnits="userSpaceOnUse" x="27" y="17" width="25" height="25">
<circle cx="39.7401" cy="29.69" r="11.91" fill="white"/>
</mask>
<g mask="url(#mask2_204_30599)">
<rect x="21.8369" y="29.6907" width="25.3001" height="25.3001" rx="12.38" transform="rotate(-45 21.8369 29.6907)" fill="url(#paint2_linear_204_30599)"/>
</g>
<defs>
<linearGradient id="paint0_linear_204_30599" x1="27.4597" y1="20.8171" x2="70.0497" y2="20.8171" gradientUnits="userSpaceOnUse">
<stop stop-color="#F4C503"/>
<stop offset="1" stop-color="#FFE800"/>
</linearGradient>
<linearGradient id="paint1_linear_204_30599" x1="10.9698" y1="21.2529" x2="51.3798" y2="21.2529" gradientUnits="userSpaceOnUse">
<stop stop-color="#F4C503"/>
<stop offset="1" stop-color="#FFE800"/>
</linearGradient>
<linearGradient id="paint2_linear_204_30599" x1="-6.11221" y1="36.2352" x2="31.057" y2="36.2352" gradientUnits="userSpaceOnUse">
<stop stop-color="#F4C503"/>
<stop offset="1" stop-color="#FFE800"/>
</linearGradient>
</defs>
</svg>
