<svg width="120" height="120" viewBox="0 0 120 120" fill="none" xmlns="http://www.w3.org/2000/svg">
<circle cx="60" cy="60" r="60" fill="#00D4D5"/>
<path d="M61.46 19V39.4535L79.2319 29.2399L61.46 19Z" fill="white"/>
<path opacity="0.9" d="M79.2314 29.24V49.6935L96.9996 39.4536L79.2314 29.24Z" fill="white"/>
<path opacity="0.8" fill-rule="evenodd" clip-rule="evenodd" d="M61.46 59.9071V39.4536L79.2319 49.6935L61.46 59.9071ZM79.2319 70.147V49.6972L97.0001 59.9071L79.2319 70.147Z" fill="white"/>
<path opacity="0.8" d="M61.46 59.907V80.3605L79.2319 70.1469L61.46 59.907Z" fill="white"/>
<path d="M79.2314 70.147V90.6005L96.9996 80.3606L79.2314 70.147Z" fill="white"/>
<path opacity="0.4" d="M15.5264 38.7639V59.2174L33.2983 48.9776L15.5264 38.7639Z" fill="white"/>
<path opacity="0.2" d="M37.9453 46.3689V66.8224L55.6872 56.6088L37.9453 46.3689Z" fill="white"/>
<path opacity="0.3" d="M24.7715 59.3037V79.7572L42.5397 69.5174L24.7715 59.3037Z" fill="white"/>
<path opacity="0.9" d="M36.4824 74.7383V95.1918L54.2244 84.9519L36.4824 74.7383Z" fill="white"/>
<path opacity="0.7" d="M61.3135 83.5427V104L79.0554 93.7564L61.3135 83.5427Z" fill="white"/>
<path opacity="0.9" d="M40.9043 36.2676V56.7248L58.6462 46.5112L40.9043 36.2676Z" fill="white"/>
<path opacity="0.8" d="M61.4594 19V39.4535L43.6875 29.2399L61.4594 19Z" fill="white"/>
<path opacity="0.6" d="M40.9046 27.6956V48.1453L23.1289 37.9055L40.9046 27.6956Z" fill="white"/>
<path opacity="0.6" d="M58.6762 37.8157V58.2729L40.9043 48.0293L58.6762 37.8157Z" fill="white"/>
<path opacity="0.95" d="M37.8628 46.3689V66.8224L20.0908 56.6088L37.8628 46.3689Z" fill="white"/>
<path opacity="0.6" d="M61.4597 59.907V80.3605L43.7178 70.1469L61.4597 59.907Z" fill="white"/>
<path opacity="0.55" d="M24.7719 64.6709V85.1244L7 74.8808L24.7719 64.6709Z" fill="white"/>
<path d="M96.9996 39.4536V59.9071L79.2314 49.6935L96.9996 39.4536Z" fill="white"/>
<path opacity="0.95" d="M79.2319 49.6973V70.147L61.46 59.9072L79.2319 49.6973Z" fill="white"/>
<path opacity="0.9" d="M96.9996 59.907V80.3605L79.2314 70.1469L96.9996 59.907Z" fill="white"/>
<path opacity="0.7" d="M79.2319 70.147V90.6005L61.46 80.3606L79.2319 70.147Z" fill="white"/>
<path opacity="0.4" d="M57.525 78.6702V99.1237L39.7568 88.91L57.525 78.6702Z" fill="white"/>
<path d="M79.2319 29.24V49.6935L61.46 39.4536L79.2319 29.24Z" fill="white"/>
</svg>
