<svg width="120" height="120" viewBox="0 0 120 120" fill="none" xmlns="http://www.w3.org/2000/svg">
<circle cx="60" cy="60" r="60" fill="#EDF0F4"/>
<path fill-rule="evenodd" clip-rule="evenodd" d="M44.2799 77.9761L25.9279 80.0401L36.7039 55.1761L25.6719 40.1361L52.4959 37.0801L59.7839 20.3201L75.7519 42.0241L94.1039 39.9601L83.3759 64.7041L94.3279 79.6401L67.6399 82.6801L60.2399 99.6801L44.2799 77.9761ZM51.9039 76.3281C51.1999 76.6721 50.4479 76.9601 49.6719 77.1761L48.9679 77.3681L59.3119 91.4321L62.9839 82.9841L62.3199 82.8961C58.7039 82.4401 55.4159 80.4881 53.2959 77.5601L52.2639 76.1361L51.9039 76.3281ZM56.6479 75.1201L48.3039 63.5761L59.0879 62.2241L69.8879 76.5201L76.0959 62.4961L76.6079 62.9201C77.1599 63.3841 77.6559 63.9121 78.0879 64.4961L86.7599 76.3281L64.9839 78.8081C64.6559 78.8481 64.3199 78.8641 63.9839 78.8641C61.0879 78.8641 58.3439 77.4641 56.6479 75.1201ZM48.6639 49.5201C45.4319 49.8641 42.6159 51.9361 41.3199 54.9281L32.5759 75.1121L47.1039 73.4801C47.8239 73.4001 48.5279 73.2321 49.2079 72.9841L49.8319 72.7521L40.8399 60.3361L58.5679 58.0881L62.7839 48.0161L48.6639 49.5201ZM68.9519 68.4001L62.3839 59.7041L69.3119 43.1521L54.1199 44.7601L54.2319 44.1041C54.3599 43.3841 54.5679 42.6881 54.8559 42.0241L60.7119 28.5681L73.7279 46.2801C75.6639 48.9041 76.0399 52.3841 74.7199 55.3681L72.9599 59.3521L68.9519 68.4001ZM78.3439 45.9121L78.5999 46.5281C80.0079 49.8961 79.9759 53.7361 78.5039 57.0561L77.7919 58.6561L78.1359 58.8881C78.7919 59.3281 79.4079 59.8401 79.9759 60.4081L80.4959 60.9201L87.4479 44.8801L78.3439 45.9121ZM38.7759 51.0001L33.2399 43.4481L50.6399 41.4641L50.4399 42.1841C50.2079 43.0321 50.0559 43.9041 49.9999 44.7761L49.9679 45.2001L48.2319 45.3841C44.6879 45.7601 41.3839 47.6161 39.1839 50.4721L38.7759 51.0001Z" fill="url(#paint0_linear_204_30351)"/>
<path d="M56.1285 99.9999C44.6085 98.8879 34.2565 92.8959 27.4805 83.3999L32.1205 82.8799C32.8885 83.8239 33.7045 84.7279 34.5445 85.5759C39.5765 90.6319 45.8725 94.0399 52.7765 95.4479L56.1285 99.9999Z" fill="url(#paint1_linear_204_30351)"/>
<path d="M65.7917 95.704C73.2637 94.496 80.0557 91 85.4557 85.576C85.9357 85.088 86.4237 84.568 86.9117 84.024L92.5357 83.384C85.7837 92.872 75.4477 98.872 63.9277 100L65.7917 95.704Z" fill="url(#paint2_linear_204_30351)"/>
<path d="M93.6797 72.8241C95.2157 68.7361 95.9997 64.4241 95.9997 60.0001C95.9997 56.0961 95.3837 52.2561 94.1757 48.5921L96.4317 43.3921C98.7997 48.6161 99.9997 54.2001 99.9997 60.0001C99.9997 65.7921 98.7997 71.3681 96.4397 76.5921L93.6797 72.8241Z" fill="url(#paint3_linear_204_30351)"/>
<path d="M23.584 76.648C21.208 71.408 20 65.816 20 60C20 54.152 21.216 48.528 23.624 43.272L26.376 47.032C24.8 51.16 24 55.52 24 60C24 63.92 24.616 67.768 25.832 71.448L23.584 76.648Z" fill="url(#paint4_linear_204_30351)"/>
<path d="M27.6484 36.368C34.4164 27.024 44.6884 21.104 56.1044 20L54.2404 24.288C46.7604 25.488 39.9524 28.992 34.5444 34.424C34.1364 34.832 33.7284 35.272 33.3204 35.72L27.6484 36.368Z" fill="url(#paint5_linear_204_30351)"/>
<path d="M87.8883 37.12C87.1203 36.176 86.3043 35.272 85.4563 34.424C80.4323 29.376 74.1443 25.968 67.2563 24.56L63.9043 20C75.4163 21.12 85.7523 27.112 92.5203 36.6L87.8883 37.12Z" fill="url(#paint6_linear_204_30351)"/>
<defs>
<linearGradient id="paint0_linear_204_30351" x1="54.6787" y1="128.264" x2="124.607" y2="75.9267" gradientUnits="userSpaceOnUse">
<stop stop-color="#009DDE"/>
<stop offset="0.5" stop-color="#694D9F"/>
<stop offset="1" stop-color="#ED3554"/>
</linearGradient>
<linearGradient id="paint1_linear_204_30351" x1="86.7039" y1="117.653" x2="113.525" y2="42.5489" gradientUnits="userSpaceOnUse">
<stop stop-color="#009DDE"/>
<stop offset="0.5" stop-color="#694D9F"/>
<stop offset="1" stop-color="#ED3554"/>
</linearGradient>
<linearGradient id="paint2_linear_204_30351" x1="106.014" y1="134.932" x2="131.289" y2="60.0096" gradientUnits="userSpaceOnUse">
<stop stop-color="#009DDE"/>
<stop offset="0.5" stop-color="#694D9F"/>
<stop offset="1" stop-color="#ED3554"/>
</linearGradient>
<linearGradient id="paint3_linear_204_30351" x1="51.8966" y1="274.365" x2="116.471" y2="272.025" gradientUnits="userSpaceOnUse">
<stop stop-color="#009DDE"/>
<stop offset="0.5" stop-color="#694D9F"/>
<stop offset="1" stop-color="#ED3554"/>
</linearGradient>
<linearGradient id="paint4_linear_204_30351" x1="15.4859" y1="237.354" x2="80.0755" y2="234.997" gradientUnits="userSpaceOnUse">
<stop stop-color="#009DDE"/>
<stop offset="0.5" stop-color="#694D9F"/>
<stop offset="1" stop-color="#ED3554"/>
</linearGradient>
<linearGradient id="paint5_linear_204_30351" x1="57.4393" y1="85.6569" x2="82.2041" y2="10.8071" gradientUnits="userSpaceOnUse">
<stop stop-color="#009DDE"/>
<stop offset="0.5" stop-color="#694D9F"/>
<stop offset="1" stop-color="#ED3554"/>
</linearGradient>
<linearGradient id="paint6_linear_204_30351" x1="73.1494" y1="104.178" x2="100.033" y2="29.0677" gradientUnits="userSpaceOnUse">
<stop stop-color="#009DDE"/>
<stop offset="0.5" stop-color="#694D9F"/>
<stop offset="1" stop-color="#ED3554"/>
</linearGradient>
</defs>
</svg>
