<svg width="120" height="120" viewBox="0 0 120 120" fill="none" xmlns="http://www.w3.org/2000/svg">
<circle cx="60" cy="60" r="60" fill="#E7EFF3"/>
<path fill-rule="evenodd" clip-rule="evenodd" d="M42.7126 49.0908H47.8806V43.924C47.8806 42.0904 46.3942 40.604 44.5606 40.604H42.7126C41.8319 40.6034 40.987 40.9529 40.3643 41.5757C39.7415 42.1985 39.3919 43.0433 39.3926 43.924V45.7708C39.3926 47.6044 40.879 49.0908 42.7126 49.0908ZM72.1206 49.0908H77.2882C79.1213 49.0908 80.6075 47.6051 80.6082 45.772V43.924C80.6082 42.0904 79.1218 40.604 77.2882 40.604H75.4406C73.607 40.604 72.1206 42.0904 72.1206 43.924V49.0908ZM44.5606 80.606H42.713C41.8325 80.606 40.988 80.2562 40.3654 79.6336C39.7428 79.011 39.393 78.1665 39.393 77.286V75.44C39.393 74.5595 39.7428 73.715 40.3654 73.0924C40.988 72.4698 41.8325 72.12 42.713 72.12H47.8806V77.286C47.8806 79.1196 46.3942 80.606 44.5606 80.606ZM75.4406 80.606H77.2882L77.287 80.608C79.1206 80.608 80.607 79.1216 80.607 77.288V75.44C80.607 73.6064 79.1206 72.12 77.287 72.12H72.1206V77.286C72.1206 79.1196 73.607 80.606 75.4406 80.606Z" fill="#005FFF"/>
<path fill-rule="evenodd" clip-rule="evenodd" d="M59.6811 40.6061H61.5291L61.5287 40.6081C63.3623 40.6081 64.8487 39.1217 64.8487 37.2881V35.4401C64.8487 33.6065 63.3623 32.1201 61.5287 32.1201H59.6811C57.8476 32.1201 56.3611 33.6065 56.3611 35.4401V37.2861C56.3611 39.1197 57.8476 40.6061 59.6811 40.6061ZM59.6811 89.0909H61.5287C63.3623 89.0909 64.8487 87.6045 64.8487 85.7709V83.9229C64.8487 82.0893 63.3623 80.6029 61.5287 80.6029H59.6811C57.8476 80.6029 56.3611 82.0893 56.3611 83.9229V85.7709C56.3611 87.6045 57.8476 89.0909 59.6811 89.0909ZM85.7715 64.8485H83.9239C82.0904 64.8485 80.6039 63.3621 80.6039 61.5285V59.6801C80.6039 57.8465 82.0904 56.3601 83.9239 56.3601H85.7715C87.6051 56.3601 89.0915 57.8465 89.0915 59.6801V61.5281C89.0915 63.3617 87.6051 64.8481 85.7715 64.8481V64.8485ZM35.4391 64.8485H37.2867V64.8481C39.1203 64.8481 40.6067 63.3617 40.6067 61.5281V59.6801C40.6067 58.7996 40.257 57.9551 39.6343 57.3325C39.0117 56.7099 38.1673 56.3601 37.2867 56.3601H35.4391C33.6056 56.3601 32.1191 57.8465 32.1191 59.6801V61.5285C32.1191 63.3621 33.6056 64.8485 35.4391 64.8485Z" fill="#00CCEE"/>
<path fill-rule="evenodd" clip-rule="evenodd" d="M45.7379 27.4577C44.5013 27.9701 43.9143 29.3879 44.4267 30.6245C44.9394 31.8607 46.3569 32.4476 47.5935 31.9357C48.83 31.4233 49.4171 30.0054 48.9047 28.7689C48.3923 27.5323 46.9744 26.9453 45.7379 27.4577ZM71.1903 89.2761C69.9537 89.7885 69.3667 91.2063 69.8791 92.4429C70.3918 93.6791 71.8093 94.266 73.0459 93.7541C74.2824 93.2417 74.8695 91.8238 74.3571 90.5873C73.8447 89.3507 72.4268 88.7637 71.1903 89.2761ZM91.2295 50.1201C89.9929 50.6325 88.5751 50.0454 88.0627 48.8089C87.5503 47.5723 88.1374 46.1545 89.3739 45.6421C90.6105 45.1297 92.0283 45.7167 92.5407 46.9533C93.0526 48.1898 92.4657 49.6073 91.2295 50.1201ZM27.4567 74.2613C27.9691 75.4978 29.3869 76.0849 30.6235 75.5725C31.8597 75.0597 32.4466 73.6422 31.9347 72.4057C31.4223 71.1691 30.0045 70.5821 28.7679 71.0945C27.5314 71.6069 26.9443 73.0247 27.4567 74.2613Z" fill="#005FFF"/>
<path fill-rule="evenodd" clip-rule="evenodd" d="M74.3604 30.6244C73.8481 31.8609 72.4304 32.448 71.1938 31.9358C69.9572 31.4235 69.37 30.0058 69.8823 28.7692C70.3945 27.5326 71.8122 26.9454 73.0488 27.4576C73.6428 27.7035 74.1147 28.1753 74.3607 28.7692C74.6067 29.3632 74.6066 30.0305 74.3604 30.6244ZM27.4586 46.9533C26.9463 48.1899 27.5334 49.6076 28.77 50.12C29.3639 50.3661 30.0312 50.3662 30.6251 50.1202C31.2191 49.8742 31.6909 49.4023 31.9368 48.8084C32.449 47.5718 31.8618 46.1541 30.6252 45.6418C29.3886 45.1296 27.9709 45.7168 27.4586 46.9533ZM88.0646 72.4057C87.5523 73.6423 88.1395 75.06 89.376 75.5724C89.9699 75.8185 90.6372 75.8186 91.2311 75.5726C91.8251 75.3266 92.2969 74.8547 92.5428 74.2608C93.055 73.0242 92.4678 71.6065 91.2312 71.0942C89.9946 70.582 88.5769 71.1692 88.0646 72.4057ZM45.7398 93.7542C46.9764 94.2664 48.3941 93.6793 48.9064 92.4428C49.1526 91.8489 49.1527 91.1816 48.9067 90.5876C48.6607 89.9937 48.1888 89.5219 47.5948 89.276C46.3582 88.7638 44.9405 89.351 44.4283 90.5876C43.916 91.8242 44.5032 93.2419 45.7398 93.7542Z" fill="#002DAE"/>
<path fill-rule="evenodd" clip-rule="evenodd" d="M87.5244 34.1904C87.1778 34.537 86.6565 34.6407 86.2036 34.4531C85.7507 34.2655 85.4554 33.8236 85.4554 33.3334C85.4554 32.8432 85.7507 32.4012 86.2036 32.2136C86.6565 32.026 87.1778 32.1297 87.5244 32.4764C87.7518 32.7036 87.8795 33.0119 87.8795 33.3334C87.8795 33.6548 87.7518 33.9631 87.5244 34.1904ZM31.0024 32.8695C30.8149 33.3224 30.9186 33.8437 31.2652 34.1904C31.4924 34.4178 31.8007 34.5455 32.1222 34.5455C32.4437 34.5455 32.752 34.4178 32.9792 34.1904C33.3258 33.8437 33.4295 33.3224 33.2419 32.8695C33.0543 32.4166 32.6124 32.1213 32.1222 32.1213C31.632 32.1213 31.19 32.4166 31.0024 32.8695ZM85.5476 87.4147C85.3601 87.8676 85.4638 88.3889 85.8104 88.7356C86.0376 88.963 86.3459 89.0907 86.6674 89.0907C86.9889 89.0907 87.2971 88.963 87.5244 88.7356C87.871 88.3889 87.9747 87.8676 87.7871 87.4147C87.5995 86.9618 87.1576 86.6665 86.6674 86.6665C86.1772 86.6665 85.7352 86.9618 85.5476 87.4147ZM31.6584 88.9983C32.1113 89.1859 32.6326 89.0822 32.9792 88.7356C33.2066 88.5083 33.3343 88.2 33.3343 87.8786C33.3343 87.5571 33.2066 87.2488 32.9792 87.0216C32.6326 86.6749 32.1113 86.5712 31.6584 86.7588C31.2055 86.9464 30.9102 87.3884 30.9102 87.8786C30.9102 88.3688 31.2055 88.8107 31.6584 88.9983Z" fill="#0099C0"/>
<path d="M98.7882 61.2121C98.1188 61.2121 97.5762 60.6695 97.5762 60.0001C97.5762 59.3307 98.1188 58.7881 98.7882 58.7881C99.4575 58.7881 100 59.3307 100 60.0001C100 60.6694 99.4574 61.2119 98.7882 61.2121Z" fill="#0029C0"/>
<mask id="mask0_204_30497" style="mask-type:luminance" maskUnits="userSpaceOnUse" x="20" y="58" width="3" height="4">
<path fill-rule="evenodd" clip-rule="evenodd" d="M20 61.2121V58.7881H22.4244V61.2121H20Z" fill="white"/>
</mask>
<g mask="url(#mask0_204_30497)">
<path d="M21.212 61.2121C20.5426 61.2121 20 60.6695 20 60.0001C20 59.3307 20.5426 58.7881 21.212 58.7881C21.8814 58.7881 22.424 59.3307 22.424 60.0001C22.4238 60.6694 21.8813 61.2119 21.212 61.2121Z" fill="#0029C0"/>
</g>
<path d="M61.2111 21.212C61.2111 21.8814 60.6685 22.424 59.9991 22.424C59.3297 22.424 58.7871 21.8814 58.7871 21.212C58.7871 20.5426 59.3297 20 59.9991 20C60.6684 20.0002 61.2109 20.5427 61.2111 21.212Z" fill="#0029C0"/>
<mask id="mask1_204_30497" style="mask-type:luminance" maskUnits="userSpaceOnUse" x="58" y="97" width="4" height="3">
<path fill-rule="evenodd" clip-rule="evenodd" d="M61.2111 100H58.7871V97.5757H61.2111V100Z" fill="white"/>
</mask>
<g mask="url(#mask1_204_30497)">
<path d="M61.2111 98.7882C61.2111 99.4575 60.6685 100 59.9991 100C59.3297 100 58.7871 99.4575 58.7871 98.7882C58.7871 98.1188 59.3297 97.5762 59.9991 97.5762C60.6684 97.5764 61.2109 98.1189 61.2111 98.7882Z" fill="#0029C0"/>
</g>
<path d="M68.0897 55.9599H69.8993C71.1265 55.959 72.1209 54.9639 72.1209 53.7367V47.8799H66.2645C65.0369 47.8799 64.0415 48.8747 64.0409 50.1023V51.9199C64.0409 54.1511 62.2321 55.9599 60.0009 55.9599C57.7696 55.9599 55.9609 54.1511 55.9609 51.9199V50.0219C55.96 48.8386 55.0005 47.8799 53.8173 47.8799H47.8809V72.1199H53.7729C54.9811 72.1194 55.9604 71.1401 55.9609 69.9319V68.0799C55.9609 65.8487 57.7696 64.0399 60.0009 64.0399V64.0479C62.2321 64.0479 64.0409 65.8567 64.0409 68.0879V69.9147C64.0409 71.1328 65.0283 72.1203 66.2465 72.1203H72.1209V66.2459C72.1209 65.6609 71.8885 65.0999 71.4749 64.6863C71.0612 64.2727 70.5002 64.0403 69.9153 64.0403H68.0809C65.8496 64.0403 64.0409 62.2315 64.0409 60.0003H64.0489C64.0489 57.7691 65.8576 55.9603 68.0889 55.9603" fill="#003EC5"/>
</svg>
