<svg width="120" height="120" viewBox="0 0 120 120" fill="none" xmlns="http://www.w3.org/2000/svg">
<circle cx="60" cy="60" r="60" fill="#EDF0F4"/>
<path d="M20.0001 59.938C19.9628 82.0201 37.8336 99.9515 59.9158 99.9888C81.9979 100.026 99.9292 82.1552 99.9665 60.0731V59.7705C99.9652 56.6949 99.6025 53.6301 98.8859 50.6392C98.2786 48.4068 96.0122 47.0564 93.7598 47.5849C91.5074 48.1134 90.0782 50.3309 90.5273 52.6005C93.8494 66.2913 87.6638 80.5214 75.3868 87.4316C63.1098 94.3417 47.7355 92.2465 37.7552 82.3033C27.7749 72.3601 25.6226 56.9937 32.4869 44.6911C39.3513 32.3885 53.5583 26.1499 67.2613 29.4211C69.5628 29.9581 71.8652 28.5327 72.4105 26.2332C72.6793 25.1336 72.4963 23.9721 71.9023 23.0085C71.3083 22.0449 70.3528 21.3595 69.2497 21.1056C58.9454 18.6293 48.0793 20.3504 39.0446 25.8898C30.0099 31.4292 23.5475 40.3326 21.0807 50.6392C20.3658 53.6872 20.0032 56.8073 20.0001 59.938Z" fill="url(#paint0_linear_204_30392)"/>
<path d="M80.2883 30.5126C80.2181 30.5828 80.1857 30.6531 80.1478 30.6855C79.1634 31.7304 78.5583 33.0757 78.4296 34.5055V35.1917C78.4296 35.3646 78.3972 35.4997 78.3972 35.6726C78.101 38.7232 76.6019 41.5301 74.2313 43.4728C71.8608 45.4155 68.814 46.3339 65.7647 46.025C65.2555 45.9806 64.7501 45.9011 64.2518 45.7873C63.9584 45.7263 63.6695 45.6451 63.3873 45.5441C62.1623 45.235 60.9004 45.0969 59.6375 45.1335C55.9546 45.2055 52.4256 46.6241 49.7174 49.121C49.5823 49.2561 49.4094 49.3642 49.2689 49.5317C45.2325 53.2608 43.5605 58.8998 44.9118 64.2264C46.2631 69.553 50.421 73.713 55.7469 75.067C61.0728 76.421 66.7126 74.7519 70.4438 70.7174C71.0632 70.0919 71.6272 69.414 72.1296 68.6912C74.5735 65.1757 75.401 60.7844 74.4043 56.6206C74.3189 56.3491 74.2485 56.0731 74.1936 55.7939C74.1936 55.7561 74.1612 55.7237 74.1612 55.6534C73.4665 52.6651 73.9909 49.5232 75.6182 46.9224C77.2456 44.3217 79.842 42.4763 82.8332 41.7944C83.3648 41.664 83.9075 41.5844 84.4541 41.5566L84.6919 41.5188C84.9322 41.4918 85.1741 41.481 85.4159 41.4864H85.4861C86.9799 41.3432 88.3777 40.6863 89.4412 39.6277C89.6844 39.3521 89.9275 39.0874 90.1329 38.801C91.1273 37.4086 91.5229 35.676 91.2316 33.9899C90.9403 32.3038 89.9861 30.8045 88.5821 29.8264C86.0161 28.0167 82.522 28.3057 80.2883 30.5126Z" fill="url(#paint1_linear_204_30392)"/>
<defs>
<linearGradient id="paint0_linear_204_30392" x1="60.4561" y1="0.862583" x2="1.00525" y2="59.4701" gradientUnits="userSpaceOnUse">
<stop offset="0.09" stop-color="#00EDD3"/>
<stop offset="0.41" stop-color="#1B456E"/>
</linearGradient>
<linearGradient id="paint1_linear_204_30392" x1="68.7105" y1="8.99089" x2="27.0933" y2="51.1226" gradientUnits="userSpaceOnUse">
<stop offset="0.4" stop-color="#00EDD3"/>
<stop offset="0.89" stop-color="#1B456E"/>
</linearGradient>
</defs>
</svg>
