<svg width="120" height="120" viewBox="0 0 120 120" fill="none" xmlns="http://www.w3.org/2000/svg">
<circle cx="60" cy="60" r="60" fill="black"/>
<path d="M94.3383 39.0748C93.1664 38.1509 91.7692 36.8889 89.2228 36.5734C86.834 36.2579 84.4002 37.8579 82.7552 38.9171C81.1101 39.9762 78.0003 43.0861 76.7157 44.0326C75.4312 44.979 72.1411 45.8579 66.8453 49.0354C61.5496 52.2128 40.7721 65.5537 40.7721 65.5537L46.1806 65.6213L22.0679 78.0382H24.4792L21.0088 80.6748C21.0088 80.6748 24.0736 81.486 26.6426 79.8635V80.6072C26.6426 80.6072 55.3524 69.2945 60.8961 72.2241L57.5158 73.2156C57.8087 73.2156 63.2622 73.5762 63.2622 73.5762C63.5302 75.8625 64.8022 77.9109 66.7327 79.1649C70.0228 81.3283 70.0904 82.5227 70.0904 82.5227C70.0904 82.5227 68.3777 83.2212 68.3777 84.1001C68.3777 84.1001 70.9017 83.3339 73.2453 83.4015C74.7328 83.4579 76.2081 83.6925 77.6397 84.1001C77.6397 84.1001 77.4594 83.1536 75.1834 82.5227C72.9073 81.8917 70.6538 79.4128 69.5496 78.0607C68.1735 76.3097 67.8224 73.9631 68.6256 71.886C69.4143 69.8353 72.1636 68.7086 77.8425 65.779C84.5355 62.3086 86.0678 59.7396 87.0143 57.734C87.9608 55.7283 89.358 51.7396 90.1467 49.8692C91.1383 47.4579 92.3552 46.1734 93.3692 45.4072C94.3833 44.641 98.8904 42.9509 98.8904 42.9509C98.8904 42.9509 95.4425 39.9537 94.3383 39.0748Z" fill="white"/>
</svg>
