<svg width="120" height="120" viewBox="0 0 120 120" fill="none" xmlns="http://www.w3.org/2000/svg">
<circle cx="60" cy="60" r="60" fill="#EDF0F4"/>
<circle cx="60" cy="60" r="40" fill="white"/>
<path fill-rule="evenodd" clip-rule="evenodd" d="M18.4258 60C18.4258 37.0388 37.0395 18.425 60.0007 18.425C82.9619 18.425 101.576 37.0388 101.576 60C101.576 82.9612 82.9619 101.575 60.0007 101.575C37.0395 101.575 18.4258 82.9612 18.4258 60ZM97.1221 60C97.1221 39.4984 80.5023 22.8786 60.0007 22.8786C39.4992 22.8786 22.8794 39.4984 22.8794 60C22.8794 80.5016 39.4992 97.1213 60.0007 97.1213C80.5023 97.1213 97.1221 80.5016 97.1221 60Z" fill="#EB1A6B"/>
<path d="M69.8379 67.3678C70.8848 68.1184 71.4182 68.5727 72.0108 68.948C75.6058 71.3382 79.5169 71.5752 82.0651 69.1653C84.7713 66.5382 84.9885 63.2394 83.7243 59.8616C82.3811 56.0295 79.2206 53.7184 75.4083 54.311C73.6898 54.6073 71.6552 55.8912 70.6873 57.3135C68.2972 60.7703 67.4676 65.1949 63.4972 67.5061C62.9639 67.8023 63.1219 69.5209 63.1219 70.5875C63.2009 78.0937 57.7293 83.8616 49.8478 84.6122C43.6256 85.2048 34.3219 80.1875 34.4009 73.2147C37.6997 74.7159 40.8404 76.8098 44.3762 77.5604C47.2997 78.232 50.8157 77.9357 53.7589 76.9678C57.591 75.6838 59.3885 72.0098 58.9342 68.711C58.4799 65.8665 57.354 65.1159 51.5861 64.1283C51.2108 62.469 50.8355 60.6715 50.4601 58.6567C51.0527 58.5777 51.5071 58.4394 51.9614 58.4394C54.5885 58.2221 57.433 58.1431 57.6503 54.469C57.8676 51.5456 55.1021 48.0888 51.8824 48.4048C48.7416 48.7011 45.8182 50.3604 42.2034 51.6246C41.5318 50.5777 40.4058 48.8591 39.3589 47.1209C43.9416 41.7283 51.4281 40.6814 56.8997 44.6517C61.9169 48.2468 62.3713 54.0344 57.9466 60.7703C59.2305 61.9752 60.4947 63.1604 62.2922 64.8986C62.8848 63.1011 63.2009 61.8172 63.6355 60.632C64.2281 58.9135 64.6824 57.0369 65.6503 55.4567C68.0404 51.3283 71.3589 48.4838 76.5145 49.0764C81.5318 49.669 84.0997 52.6517 86.0157 57.3135C88.1095 62.7653 87.2602 66.874 86.0157 69.9949C84.7713 73.1159 80.1885 76.2962 76.8898 75.7628C72.5441 75.0912 70.075 72.3258 69.8379 67.3678Z" fill="black"/>
<path d="M55.3789 38.6469C62.2727 43.4469 68.3567 42.7753 74.4999 38.5679C75.6258 40.3654 76.5937 41.8666 77.5814 43.3679C70.2925 49.0765 58.4406 46.1531 55.3789 38.6469Z" fill="black"/>
<path d="M60.8496 35.8816C62.1928 34.2223 63.2397 33.0371 64.5237 31.5359C66.0249 33.1161 66.9928 34.163 68.1978 35.5063C67.0718 36.7902 66.0249 37.8964 64.6817 39.3384C63.3978 38.2124 62.2718 37.1458 60.8496 35.8816Z" fill="#F01871"/>
</svg>
