<svg width="120" height="120" viewBox="0 0 120 120" fill="none" xmlns="http://www.w3.org/2000/svg">
<circle cx="60" cy="60" r="60" fill="#0FD297"/>
<path d="M63.8195 67.3211C64.8191 68.6814 65.7878 70.0216 66.9001 71.2947C68.904 73.5889 71.1955 75.4701 74.1735 76.3698C75.8086 76.8639 77.49 77.0851 79.1829 77.2413C79.3163 77.2534 79.4162 77.2675 79.4926 77.4136C80.3769 79.1024 80.8663 80.8723 80.6363 82.7965C80.6182 82.9466 80.5941 83.0955 80.5659 83.2812C80.5599 83.3194 80.513 83.3348 80.4855 83.308C80.0839 82.9124 79.7011 82.5571 79.2834 82.2427C77.8869 81.1908 76.3503 80.4755 74.5791 80.4044C72.2219 80.3099 70.1985 81.7104 69.3699 83.965C68.6955 85.8006 68.7236 87.663 69.1735 89.5389C69.1956 89.6301 69.2184 89.7212 69.2351 89.8138C69.2432 89.8567 69.2372 89.9116 69.2023 89.9023C68.5071 89.6991 67.8842 89.3485 67.2949 88.9422C66.2082 88.1933 65.3675 87.2139 64.6669 86.1023C64.5516 85.9186 64.6247 85.7939 64.6917 85.6478C65.2669 84.3927 65.7764 83.1142 66.1639 81.7861C66.947 79.1018 66.8283 76.4261 66.1271 73.7498C65.578 71.6547 64.7272 69.673 63.8584 67.6972C63.8108 67.59 63.7692 67.48 63.7249 67.3714C63.6948 67.2943 63.7826 67.2601 63.8195 67.3211Z" fill="white"/>
<path d="M59.7911 91.9424C59.7496 92.0597 59.5833 92.0611 59.5411 91.9444C58.6266 89.4243 57.3816 87.1583 56.3472 84.799C55.6647 83.2437 55.0238 81.6722 54.7864 79.972C54.7864 79.9713 54.7864 79.9713 54.7864 79.9707C54.7724 79.8674 54.8776 79.7903 54.9735 79.8326C58.0956 81.2109 61.1963 81.2103 64.3145 79.8165C64.4097 79.7736 64.5142 79.854 64.5002 79.9579C64.3285 81.215 63.9504 82.3352 63.5187 83.4408C62.7075 85.5177 61.6743 87.4941 60.7666 89.5275C60.4213 90.2992 60.0982 91.0809 59.7911 91.9424Z" fill="white"/>
<path d="M59.4623 63.165C59.5193 63.0269 59.7157 63.0289 59.77 63.1677C59.8967 63.4915 60.0194 63.8086 60.1541 64.1203C61.0505 66.1953 61.9603 68.2649 62.8486 70.3439C63.1167 70.9707 63.3219 71.6244 63.5753 72.2586C63.6651 72.4845 63.6242 72.5784 63.395 72.6662C60.8856 73.6216 58.3789 73.6269 55.8661 72.6783C55.6288 72.5884 55.6161 72.4899 55.6911 72.268C56.4601 69.9999 57.4906 67.8412 58.4318 65.6442C58.7845 64.8216 59.1183 63.991 59.4623 63.165Z" fill="white"/>
<path d="M81.8998 77.484C81.8736 77.4177 81.9252 77.3466 81.9963 77.3513C83.673 77.4639 85.2988 77.6302 86.9078 77.9513C87.1244 77.9942 87.1183 78.1317 87.1425 78.2778C87.5226 80.623 87.4562 82.9567 86.948 85.275C86.338 88.0573 85.1822 90.5814 83.246 92.6946C80.2881 95.9226 76.5592 97.3124 72.2323 97.0858C68.2755 96.8787 64.7859 95.4111 61.7053 92.9393C61.5531 92.8172 61.5196 92.7167 61.5833 92.5263C62.1042 90.9783 62.782 89.4987 63.496 88.0345C63.496 88.0338 63.4967 88.0338 63.4967 88.0331C63.5269 87.9714 63.614 87.9681 63.6569 88.0224C67.2564 92.5974 73.2118 93.8282 77.886 90.9019C82.1559 88.2269 84.021 82.8695 81.8998 77.484Z" fill="white"/>
<path d="M55.5109 67.4103C54.8324 68.9562 54.1566 70.4654 53.6102 72.065C52.6254 74.9478 52.142 77.8722 52.852 80.9018C53.2415 82.5651 53.8904 84.1312 54.6018 85.6759C54.6581 85.7972 54.6956 85.8911 54.6071 86.0305C53.5867 87.6409 52.2989 88.9496 50.5176 89.7125C50.3788 89.7722 50.2373 89.8258 50.0623 89.8942C50.0261 89.9083 49.9893 89.8754 49.9993 89.8379C50.1408 89.2921 50.2574 88.7833 50.3211 88.2644C50.5336 86.5293 50.3848 84.8405 49.5609 83.2711C48.4641 81.1827 46.2396 80.1302 43.8723 80.5405C41.9455 80.8743 40.3466 81.8297 38.9468 83.1571C38.8784 83.2215 38.8107 83.2872 38.7396 83.3482C38.7061 83.3763 38.6558 83.3991 38.6464 83.3643C38.4748 82.6603 38.4667 81.9463 38.5244 81.2323C38.6296 79.917 39.0574 78.6988 39.6695 77.5363C39.7707 77.3446 39.9155 77.3459 40.0757 77.3305C41.4501 77.2018 42.8124 77.0033 44.1559 76.6748C46.8718 76.0104 49.1305 74.5697 51.0968 72.6248C52.6368 71.1016 53.928 69.3739 55.2038 67.6342C55.2735 67.5396 55.3473 67.4485 55.4197 67.356C55.472 67.2889 55.5457 67.3486 55.5109 67.4103Z" fill="white"/>
<path d="M32.1736 76.233C32.0509 76.2558 31.9671 76.1124 32.0469 76.0172C33.7726 73.965 35.1121 71.7539 36.638 69.6783C37.6436 68.3093 38.6841 66.9685 40.0384 65.9126C40.039 65.9126 40.039 65.9119 40.0397 65.9119C40.1222 65.8482 40.2415 65.9012 40.2529 66.0044C40.6203 69.3974 42.171 72.0825 44.9378 74.0857C45.0223 74.1467 45.0048 74.2774 44.9083 74.317C43.7337 74.797 42.5746 75.0296 41.4013 75.2086C39.197 75.5452 36.9685 75.6384 34.7541 75.869C33.912 75.9568 33.0733 76.0681 32.1736 76.233Z" fill="white"/>
<path d="M56.9326 61.5601C57.0807 61.5407 57.1773 61.7116 57.0841 61.8283C56.8669 62.0998 56.6537 62.3646 56.4512 62.6375C55.1023 64.4516 53.7648 66.2739 52.4092 68.0826C52.0003 68.6284 51.537 69.1332 51.1146 69.6695C50.9645 69.8606 50.8619 69.872 50.6715 69.7171C48.5892 68.021 47.3315 65.8535 46.897 63.2026C46.8561 62.9526 46.9352 62.8922 47.1652 62.846C49.5137 62.378 51.899 62.191 54.2717 61.9074C55.1593 61.8008 56.0449 61.6748 56.9326 61.5601Z" fill="white"/>
<path d="M55.7516 88.1511C55.7958 88.0954 55.883 88.1041 55.9145 88.1685C56.6553 89.6769 57.3244 91.168 57.8507 92.722C57.9217 92.9312 57.7997 92.9949 57.6851 93.088C55.8448 94.5898 53.7899 95.6993 51.5279 96.418C48.8134 97.2809 46.0499 97.5417 43.2516 96.9215C38.9769 95.9742 35.9091 93.4393 33.9421 89.5791C32.1433 86.0493 31.6694 82.2929 32.27 78.3891C32.2995 78.196 32.3699 78.1169 32.567 78.0773C34.168 77.7542 35.7884 77.602 37.4135 77.488C37.4142 77.488 37.4142 77.488 37.4149 77.488C37.4832 77.4833 37.5302 77.5571 37.504 77.6207C35.3419 83.0257 37.254 88.7987 42.1246 91.3832C46.5755 93.7444 52.148 92.6818 55.7516 88.1511Z" fill="white"/>
<path d="M55.4417 52.9411C54.4421 51.5808 53.4734 50.2406 52.3612 48.9675C50.3573 46.6733 48.0658 44.7921 45.0878 43.8924C43.4526 43.3983 41.7712 43.1771 40.0784 43.0209C39.945 43.0088 39.8451 42.9947 39.7686 42.8486C38.8843 41.1598 38.3949 39.3899 38.6249 37.4657C38.643 37.3156 38.6671 37.1667 38.6953 36.981C38.7013 36.9428 38.7483 36.9274 38.7757 36.9542C39.1773 37.3498 39.5601 37.7051 39.9778 38.0195C41.3743 39.0714 42.9109 39.7867 44.6822 39.8578C47.0394 39.9523 49.0627 38.5518 49.8913 36.2972C50.5658 34.4616 50.5376 32.5992 50.0878 30.7233C50.0656 30.6321 50.0428 30.541 50.0261 30.4484C50.018 30.4055 50.0241 30.3506 50.0589 30.3599C50.7542 30.5631 51.377 30.9137 51.9663 31.32C53.053 32.0688 53.8937 33.0483 54.5943 34.1599C54.7096 34.3436 54.6366 34.4683 54.5695 34.6144C53.9943 35.8695 53.4848 37.148 53.0973 38.4761C52.3142 41.1604 52.4329 43.8361 53.1342 46.5124C53.6832 48.6075 54.534 50.5892 55.4029 52.565C55.4505 52.6722 55.492 52.7822 55.5363 52.8908C55.5664 52.9679 55.478 53.0021 55.4417 52.9411Z" fill="white"/>
<path d="M59.4701 28.3192C59.5117 28.2019 59.6779 28.2006 59.7202 28.3172C60.6346 30.8373 61.8796 33.1033 62.914 35.4626C63.5965 37.0179 64.2375 38.5894 64.4748 40.2896C64.4748 40.2903 64.4748 40.2903 64.4748 40.2909C64.4889 40.3942 64.3836 40.4713 64.2877 40.429C61.1656 39.0507 58.0649 39.0513 54.9468 40.4451C54.8516 40.488 54.747 40.4076 54.761 40.3037C54.9327 39.0466 55.3108 37.9264 55.7425 36.8208C56.5538 34.7439 57.5869 32.7675 58.4946 30.7341C58.8406 29.9631 59.163 29.1814 59.4701 28.3192Z" fill="white"/>
<path d="M59.7979 57.0965C59.7409 57.2346 59.5444 57.2326 59.4901 57.0938C59.3634 56.77 59.2407 56.4529 59.106 56.1412C58.2096 54.0662 57.2999 51.9966 56.4116 49.9176C56.1434 49.2908 55.9382 48.6371 55.6848 48.0029C55.595 47.777 55.6359 47.6831 55.8652 47.5953C58.3745 46.6399 60.8813 46.6346 63.394 47.5832C63.6313 47.6731 63.6441 47.7716 63.569 47.9935C62.8 50.2616 61.7696 52.4203 60.8283 54.6173C60.4757 55.4406 60.1425 56.2712 59.7979 57.0965Z" fill="white"/>
<path d="M37.3608 42.7784C37.3869 42.8447 37.3353 42.9158 37.2642 42.9111C35.5875 42.7985 33.9617 42.6322 32.3527 42.3111C32.1362 42.2682 32.1422 42.1307 32.1181 41.9846C31.738 39.6395 31.8043 37.3057 32.3125 34.9874C32.9226 32.2051 34.0784 29.681 36.0146 27.5678C38.9725 24.3398 42.7014 22.95 47.0283 23.1766C50.9851 23.3837 54.4746 24.8513 57.5552 27.3231C57.7074 27.4452 57.7409 27.5457 57.6772 27.7361C57.1563 29.2841 56.4785 30.7637 55.7645 32.2279C55.7645 32.2286 55.7638 32.2286 55.7638 32.2293C55.7337 32.291 55.6465 32.2943 55.6036 32.24C52.0041 27.6651 46.0488 26.4342 41.3746 29.3606C37.104 32.0355 35.2389 37.3929 37.3608 42.7784Z" fill="white"/>
<path d="M63.749 52.852C64.4275 51.306 65.1033 49.7969 65.6497 48.1973C66.6345 45.3145 67.1179 42.3901 66.4079 39.3604C66.0184 37.6971 65.3694 36.131 64.6581 34.5864C64.6018 34.465 64.5643 34.3712 64.6527 34.2317C65.6731 32.6214 66.961 31.3127 68.7423 30.5498C68.8811 30.4901 69.0226 30.4365 69.1975 30.3681C69.2337 30.354 69.2706 30.3868 69.2606 30.4244C69.1191 30.9701 69.0024 31.479 68.9388 31.9979C68.7262 33.7329 68.8751 35.4217 69.699 36.9912C70.7958 39.0795 73.0203 40.1321 75.3875 39.7218C77.3143 39.3879 78.9133 38.4326 80.3131 37.1051C80.3815 37.0408 80.4492 36.9751 80.5203 36.9141C80.5538 36.8859 80.6041 36.8631 80.6135 36.898C80.7851 37.6019 80.7931 38.3159 80.7355 39.0299C80.6302 40.3453 80.2025 41.5634 79.5904 42.726C79.4892 42.9177 79.3444 42.9164 79.1841 42.9318C77.8098 43.0605 76.4475 43.2589 75.1039 43.5874C72.3881 44.2518 70.1294 45.6926 68.1631 47.6375C66.6231 49.1607 65.3319 50.8883 64.0561 52.6281C63.9863 52.7226 63.9126 52.8138 63.8402 52.9063C63.7879 52.9733 63.7148 52.9137 63.749 52.852Z" fill="white"/>
<path d="M87.086 44.0285C87.2087 44.0057 87.2925 44.1492 87.2127 44.2444C85.487 46.2966 84.1475 48.5076 82.6217 50.5833C81.616 51.9523 80.5755 53.2931 79.2213 54.349C79.2206 54.349 79.2206 54.3497 79.2199 54.3497C79.1375 54.4134 79.0181 54.3604 79.0067 54.2572C78.6394 50.8642 77.0887 48.1791 74.3218 46.1759C74.2374 46.1149 74.2548 45.9842 74.3513 45.9446C75.5259 45.4646 76.6851 45.2319 77.8583 45.0529C80.0627 44.7164 82.2911 44.6232 84.5055 44.3926C85.3476 44.3054 86.1863 44.1941 87.086 44.0285Z" fill="white"/>
<path d="M62.3289 58.7021C62.1807 58.7216 62.0841 58.5506 62.1773 58.434C62.3946 58.1624 62.6077 57.8976 62.8102 57.6248C64.1591 55.8106 65.4966 53.9884 66.8522 52.1796C67.2611 51.6339 67.7244 51.129 68.1468 50.5927C68.2969 50.4016 68.3995 50.3902 68.5899 50.5451C70.6722 52.2413 71.93 54.4087 72.3644 57.0596C72.4053 57.3097 72.3262 57.37 72.0962 57.4163C69.7477 57.8842 67.3624 58.0713 64.9898 58.3548C64.1021 58.4608 63.2158 58.5875 62.3289 58.7021Z" fill="white"/>
<path d="M63.5089 32.1112C63.4646 32.1668 63.3774 32.1581 63.3459 32.0937C62.6051 30.5853 61.936 29.0943 61.4098 27.5402C61.3387 27.3311 61.4607 27.2674 61.5754 27.1742C63.4157 25.6724 65.4705 24.5629 67.7325 23.8442C70.447 22.9814 73.2105 22.7206 76.0089 23.3407C80.2835 24.288 83.3513 26.8229 85.3183 30.6832C87.1171 34.2129 87.5911 37.9693 86.9904 41.8732C86.9609 42.0663 86.8905 42.1454 86.6934 42.1849C85.0924 42.5081 83.472 42.6603 81.8469 42.7742C81.8462 42.7742 81.8462 42.7742 81.8456 42.7742C81.7772 42.7789 81.7302 42.7052 81.7564 42.6415C83.9185 37.2366 82.0065 31.4636 77.1358 28.8791C72.6849 26.5172 67.1124 27.5805 63.5089 32.1112Z" fill="white"/>
<path d="M68.0125 60.0416C69.6905 59.8559 71.3351 59.6869 72.9937 59.3604C75.9824 58.7718 78.7573 57.728 81.026 55.5987C82.2717 54.4295 83.3034 53.0846 84.2856 51.6962C84.3627 51.5869 84.4251 51.5071 84.59 51.5138C86.4947 51.5923 88.2719 52.0535 89.8233 53.2147C89.944 53.3052 90.0613 53.4011 90.2081 53.5177C90.2383 53.5418 90.2282 53.5908 90.1907 53.6008C89.6476 53.751 89.1482 53.9045 88.6668 54.109C87.0578 54.7929 85.67 55.7656 84.7227 57.264C83.4623 59.2579 83.6635 61.7109 85.2021 63.5559C86.4544 65.0577 88.0815 65.9648 89.9312 66.5132C90.0211 66.54 90.1116 66.5655 90.2001 66.597C90.2416 66.6117 90.2859 66.6439 90.2604 66.6694C89.7368 67.1695 89.122 67.5342 88.4751 67.8413C87.2831 68.4078 86.0146 68.6464 84.7019 68.6974C84.4854 68.7061 84.4137 68.5801 84.3205 68.4487C83.5213 67.323 82.6686 66.2423 81.7125 65.2427C79.779 63.2227 77.4024 61.9871 74.7348 61.2564C72.6458 60.6838 70.5044 60.4298 68.3591 60.1951C68.2424 60.1824 68.1264 60.1636 68.0098 60.1475C67.9267 60.1361 67.9414 60.0429 68.0125 60.0416Z" fill="white"/>
<path d="M87.3197 75.8401C87.4002 75.9346 87.3191 76.0794 87.1964 76.0579C84.5563 75.59 81.9718 75.535 79.4114 75.2514C77.7233 75.0644 76.0419 74.8344 74.4503 74.1895C74.4496 74.1895 74.4496 74.1888 74.449 74.1888C74.3524 74.1493 74.3384 74.0192 74.4228 73.9582C77.1776 71.9436 78.7269 69.2579 79.0789 65.8602C79.0896 65.7562 79.211 65.706 79.2941 65.7703C80.2971 66.548 81.0781 67.435 81.8196 68.3615C83.2127 70.1026 84.4081 71.9858 85.7154 73.7886C86.2115 74.4731 86.7271 75.1435 87.3197 75.8401Z" fill="white"/>
<path d="M62.2341 61.7365C62.1429 61.6178 62.2428 61.4488 62.3903 61.471C62.7336 61.5233 63.0701 61.5756 63.4074 61.6144C65.6526 61.8752 67.8999 62.1226 70.1444 62.3921C70.8216 62.4732 71.49 62.6227 72.1657 62.72C72.4064 62.7548 72.4674 62.838 72.4286 63.08C72.0008 65.7308 70.7525 67.9043 68.6742 69.6059C68.4778 69.7668 68.3859 69.7279 68.2317 69.5522C66.6522 67.7521 65.2979 65.7804 63.8659 63.8671C63.3296 63.1517 62.7772 62.4478 62.2341 61.7365Z" fill="white"/>
<path d="M85.8529 49.4637C85.7825 49.453 85.7463 49.3732 85.7859 49.3142C86.7218 47.9184 87.6791 46.5937 88.7612 45.3607C88.9067 45.1952 89.0226 45.2682 89.1614 45.3212C91.3825 46.1646 93.3703 47.3888 95.1242 48.9884C97.2286 50.9078 98.8363 53.1705 99.6984 55.9038C101.015 60.0792 100.354 64.0038 97.9942 67.6368C95.8368 70.9595 92.8206 73.2483 89.1393 74.6803C88.9576 74.7507 88.8537 74.7299 88.721 74.5791C87.6409 73.3542 86.6983 72.0274 85.7872 70.6765C85.7872 70.6759 85.7865 70.6759 85.7865 70.6752C85.7483 70.6182 85.7892 70.5411 85.8569 70.5311C91.6185 69.7011 95.6625 65.159 95.4654 59.6481C95.2851 54.6132 91.5783 50.3192 85.8529 49.4637Z" fill="white"/>
<path d="M51.355 60.1709C49.677 60.3566 48.0324 60.5255 46.3738 60.852C43.3851 61.4407 40.6102 62.4845 38.3415 64.6138C37.0959 65.783 36.0641 67.1279 35.0819 68.5163C35.0048 68.6256 34.9425 68.7054 34.7775 68.6987C32.8729 68.6202 31.0956 68.159 29.5442 66.9978C29.4235 66.9073 29.3062 66.8114 29.1594 66.6948C29.1292 66.6706 29.1393 66.6217 29.1768 66.6116C29.7199 66.4615 30.2193 66.3079 30.7007 66.1034C32.3097 65.4196 33.6975 64.4468 34.6448 62.9484C35.9052 60.9546 35.7041 58.5015 34.1654 56.6565C32.9131 55.1548 31.286 54.2477 29.4363 53.6993C29.3465 53.6725 29.2559 53.647 29.1674 53.6155C29.1259 53.6008 29.0816 53.5686 29.1071 53.5431C29.6307 53.043 30.2455 52.6783 30.8924 52.3712C32.0845 51.8047 33.3529 51.566 34.6656 51.5151C34.8821 51.5064 34.9539 51.6324 35.047 51.7638C35.8462 52.8894 36.699 53.9702 37.655 54.9698C39.5885 56.9897 41.9651 58.2253 44.6327 58.9561C46.7218 59.5286 48.8631 59.7827 51.0084 60.0174C51.1251 60.0301 51.2411 60.0489 51.3577 60.065C51.4409 60.0764 51.4261 60.1695 51.355 60.1709Z" fill="white"/>
<path d="M32.0459 44.3726C31.9654 44.2781 32.0466 44.1333 32.1692 44.1547C34.8094 44.6227 37.3938 44.6777 39.9542 44.9612C41.6423 45.1483 43.3237 45.3782 44.9153 46.0232C44.916 46.0232 44.916 46.0239 44.9166 46.0239C45.0132 46.0634 45.0273 46.1935 44.9428 46.2545C42.188 48.2691 40.638 50.9548 40.2867 54.3525C40.276 54.4564 40.1546 54.5067 40.0715 54.4423C39.0686 53.6647 38.2875 52.7777 37.546 51.8512C36.1529 50.1101 34.9575 48.2269 33.6502 46.4241C33.1541 45.7396 32.6385 45.0692 32.0459 44.3726Z" fill="white"/>
<path d="M57.133 58.4763C57.2242 58.595 57.1243 58.7639 56.9768 58.7418C56.6335 58.6895 56.297 58.6372 55.9598 58.5983C53.7145 58.3375 51.4673 58.0901 49.2227 57.8206C48.5456 57.7395 47.8771 57.59 47.2014 57.4928C46.9607 57.4579 46.8997 57.3748 46.9386 57.1328C47.3663 54.4819 48.6146 52.3084 50.6929 50.6069C50.8894 50.446 50.9812 50.4849 51.1354 50.6605C52.7149 52.4606 54.0692 54.4323 55.5012 56.3457C56.0375 57.061 56.5899 57.7656 57.133 58.4763Z" fill="white"/>
<path d="M33.5137 70.749C33.5841 70.7597 33.6203 70.8395 33.5807 70.8985C32.6448 72.2943 31.6874 73.6191 30.6054 74.852C30.4599 75.0176 30.3439 74.9445 30.2051 74.8915C27.984 74.0481 25.9962 72.8239 24.2424 71.2243C22.138 69.3049 20.5303 67.0422 19.6681 64.3089C18.3514 60.1335 19.0125 56.2089 21.3723 52.5759C23.5298 49.2533 26.546 46.9644 30.2273 45.5324C30.409 45.462 30.5129 45.4828 30.6456 45.6336C31.7257 46.8585 32.6683 48.1853 33.5794 49.5362C33.5794 49.5368 33.58 49.5368 33.58 49.5375C33.6183 49.5945 33.5774 49.6716 33.5097 49.6817C27.748 50.5116 23.7041 55.0537 23.9012 60.5646C24.0815 65.5995 27.7883 69.8935 33.5137 70.749Z" fill="white"/>
</svg>
