<svg width="120" height="120" viewBox="0 0 120 120" fill="none" xmlns="http://www.w3.org/2000/svg">
<path d="M119.991 60.2123C119.758 49.1692 116.632 38.3939 110.94 29.0169C105.248 19.6399 97.2011 12.0068 87.6425 6.9186C78.0839 1.83037 67.3664 -0.525486 56.6143 0.0981985C45.8622 0.721883 35.4719 4.30212 26.5336 10.4633C17.5953 16.6244 10.4385 25.1394 5.81393 35.1148C1.18939 45.0902 -0.732336 56.1583 0.250346 67.1579C1.23303 78.1575 5.0839 88.6831 11.3989 97.6304C17.714 106.578 26.2604 113.617 36.1416 118.009C39.0601 113.51 41.294 108.581 42.7664 103.392C43.9695 100.253 45.2759 97.1653 46.63 94.1783C49.8968 95.182 53.3681 95.2571 56.6733 94.3954C59.9785 93.5338 62.9936 91.7679 65.3967 89.286L65.5982 89.0795C62.6467 87.9538 59.4654 87.6127 56.3508 88.0879C53.2362 88.5631 50.2895 89.8393 47.7854 91.7974C49.4416 88.2451 51.2488 84.7987 53.1037 81.453C56.3107 82.6164 59.766 82.8623 63.0988 82.1641C66.4316 81.466 69.5162 79.8502 72.0216 77.4902L72.223 77.2836C69.3717 76.0465 66.2658 75.5541 63.1834 75.8506C60.101 76.147 57.1385 77.2231 54.5612 78.9823C56.4162 75.8431 58.3241 72.7556 60.3328 69.8718C63.6515 70.7659 67.1456 70.7109 70.4361 69.7129C73.7266 68.7149 76.6879 66.8119 78.9988 64.2104L79.1499 64.0038C76.4091 63.0871 73.497 62.8425 70.6473 63.2895C67.7976 63.7365 65.0899 64.8627 62.7415 66.5777C62.8926 66.3711 63.094 66.1156 63.2424 65.9091C64.4454 64.3136 65.7015 62.7182 66.9523 61.1744C70.7714 59.8925 74.1772 57.5666 76.8033 54.4469C79.4293 51.3272 81.1761 47.532 81.8554 43.4698L81.9058 43.1599H81.8554C77.8787 44.2207 74.2712 46.4029 71.4418 49.4591C68.6125 52.5152 66.6744 56.3233 65.8473 60.4515C64.6442 61.9436 63.4385 63.4412 62.2857 64.9795C63.259 62.3702 63.6559 59.572 63.4478 56.7864C63.2398 54.0008 62.432 51.2972 61.0827 48.8703L60.9316 49.0769C58.8844 51.9448 57.6508 55.3379 57.3674 58.8805C57.084 62.423 57.7618 65.977 59.3258 69.1489C57.4178 71.9293 55.5629 74.7587 53.806 77.743C54.3718 74.743 54.2249 71.6474 53.3776 68.718C52.5302 65.7886 51.0075 63.1116 48.9381 60.9135L48.8374 61.1717C47.5573 64.443 47.1799 68.0125 47.7464 71.4892C48.3129 74.9659 49.8015 78.2156 52.0491 80.8822C50.2922 84.0214 48.636 87.2639 47.0301 90.6097C47.518 87.4849 47.2716 84.2859 46.3116 81.2784C45.3516 78.2709 43.7055 75.5419 41.5103 73.3182L41.4096 73.5764C40.2647 77.0054 40.0523 80.6896 40.7951 84.2331C41.5379 87.7767 43.2079 91.0457 45.6257 93.6891C44.5657 96.0048 43.5693 98.3096 42.6153 100.739C42.3529 100.492 42.046 100.3 41.7117 100.174C39.9997 99.6639 38.3623 98.9198 36.8438 97.9617C35.5884 97.1976 34.2556 96.5761 32.8689 96.1081C27.4498 94.3061 28.2528 91.6316 25.4491 86.2256C24.5368 85.1126 23.5673 84.0502 22.5448 83.0429C21.5962 82.4118 20.8193 81.5439 20.2871 80.5207C19.6689 79.2429 19.2776 77.8624 19.1317 76.4438C19.1151 75.6591 18.8593 74.8995 18.4001 74.2716C17.941 73.6438 17.3017 73.1791 16.5719 72.9431C8.59297 70.1137 12.1571 59.5111 12.4566 58.1195C12.3339 56.3199 11.9443 54.5501 11.3012 52.8711C11.234 52.6526 11.1835 52.4291 11.1501 52.2025C10.9372 51.1039 10.976 49.9697 11.2634 48.8891C11.5509 47.8086 12.079 46.8112 12.8063 45.9757C13.7603 44.9973 17.0727 43.4018 17.7749 42.475C18.4772 41.5482 18.978 40.5181 19.6829 39.6456C21.9123 37.3647 24.488 35.4701 27.3094 34.0358C29.6175 32.7502 30.0203 29.4561 30.9212 28.426C32.4264 26.6757 34.7345 26.6757 36.441 25.1319C37.2943 24.36 38.561 23.9469 39.3559 23.126C43.364 19.3612 48.4152 16.9693 53.8086 16.2823C57.5487 15.9695 61.3133 16.3179 64.9383 17.3124C65.463 17.4027 65.9824 17.5234 66.4938 17.6738C74.7722 17.9837 84.7094 19.7313 88.3212 23.3353C90.1093 25.0975 91.4378 27.2918 92.1848 29.717C92.7716 31.5951 93.5806 33.3924 94.5936 35.0686L96.801 38.7732C98.2075 41.1093 98.6579 43.9205 98.0544 46.5954C97.6477 47.8962 97.6128 49.2893 97.9537 50.6098C99.118 52.4125 100.482 54.0706 102.019 55.551C102.629 56.1707 103.302 56.7227 104.025 57.1981C105.723 58.2375 107.365 59.3717 108.943 60.5955C108.995 61.0915 108.915 61.5927 108.711 62.0459C108.508 62.499 108.189 62.8872 107.788 63.1694C106.383 64.455 103.672 66.4635 103.672 66.4635C103.77 67.0322 103.939 67.5856 104.173 68.1106C104.573 68.8308 105.477 69.9642 105.177 70.94C104.878 71.9157 102.92 72.742 103.471 73.821C104.022 74.9544 105.427 75.2615 105.026 76.2916C104.626 77.27 102.668 79.0095 102.869 79.7407C103.071 80.4718 104.677 87.3509 100.961 88.5413C96.3636 89.474 91.6974 90.0077 87.0122 90.1368C86.2564 90.1815 85.524 90.4221 84.8835 90.8361C84.243 91.2501 83.7154 91.824 83.35 92.5041C82.6388 93.8643 82.1796 95.348 81.9959 96.88C80.6404 102.358 78.8446 107.712 76.6271 112.886C76.6271 112.886 76.4761 113.196 76.2747 113.658C75.7881 114.675 75.4821 115.773 75.3711 116.9C75.6868 117.728 76.1648 118.481 76.7755 119.113C77.0971 119.49 77.5187 119.764 77.989 119.901C78.4593 120.038 78.9583 120.033 79.4254 119.885C91.4517 115.586 101.848 107.503 109.132 96.7878C116.416 86.0728 120.216 73.2727 119.991 60.2123Z" fill="#00DACC"/>
</svg>
