<svg width="120" height="120" viewBox="0 0 120 120" fill="none" xmlns="http://www.w3.org/2000/svg">
<circle cx="60" cy="60" r="60" fill="black"/>
<path d="M106.518 66.432C103.472 70.5199 97.6898 71.3659 93.6004 68.322C89.5125 65.276 88.6664 59.4935 91.7104 55.404C94.7564 51.3161 100.539 50.4701 104.628 53.514C105.347 54.049 105.983 54.6857 106.518 55.404L109.116 53.544C105.044 48.007 97.2558 46.8172 91.7164 50.886C86.1794 54.958 84.9896 62.7466 89.0584 68.286C93.1304 73.823 100.919 75.0128 106.458 70.944C107.474 70.1976 108.37 69.3014 109.116 68.286L106.518 66.432Z" fill="white"/>
<path fill-rule="evenodd" clip-rule="evenodd" d="M73.5724 50.3219L75.3724 46.5779L77.1184 50.3219L87.7984 73.3559H84.3004L81.8284 68.0219H68.8444L66.3784 73.3559H62.8984L73.5724 50.3219ZM75.3724 54.0539L70.3624 64.8539H80.3704L75.3724 54.0539Z" fill="white"/>
<path d="M23.5442 60.942L14.5502 51.948L14.3042 51.702L11.1182 48.51V48.516V53.034V73.35H14.3042V56.22L21.2882 63.204L23.5442 65.46L25.7942 63.204L32.7782 56.22V73.35H35.9642V53.034V48.516L32.7782 51.702L23.5442 60.942Z" fill="white"/>
<path fill-rule="evenodd" clip-rule="evenodd" d="M39.1201 60.9661C39.1201 54.0902 44.6942 48.5161 51.5701 48.5161C58.4461 48.5161 64.0201 54.0902 64.0201 60.9661C64.0201 67.8421 58.4461 73.4161 51.5701 73.4161C48.2682 73.4161 45.1015 72.1044 42.7666 69.7696C40.4318 67.4348 39.1201 64.2681 39.1201 60.9661ZM45.0308 67.4761C46.7661 69.208 49.1185 70.1793 51.5701 70.1761V70.2001C54.0249 70.1969 56.3775 69.2171 58.1088 67.4768C59.8401 65.7365 60.8077 63.3789 60.7981 60.9241C60.7965 58.4735 59.8215 56.1239 58.0875 54.3922C56.3536 52.6605 54.0027 51.6885 51.5521 51.6901C49.1005 51.6917 46.75 52.6676 45.0181 54.4028C43.2862 56.1381 42.3149 58.4905 42.3181 60.9421C42.3197 63.3938 43.2956 65.7443 45.0308 67.4761Z" fill="white"/>
<circle cx="56.8318" cy="55.6621" r="0.864" fill="white"/>
<circle cx="56.8318" cy="66.1799" r="0.864" fill="white"/>
<circle cx="46.3083" cy="55.6621" r="0.864" fill="white"/>
<circle cx="44.1177" cy="60.9241" r="0.438" fill="white"/>
<circle cx="51.5698" cy="68.388" r="0.438" fill="white"/>
<circle cx="59.0161" cy="60.9241" r="0.438" fill="white"/>
<circle cx="51.5698" cy="53.49" r="0.438" fill="white"/>
<circle cx="51.5698" cy="55.6621" r="0.438" fill="white"/>
<circle cx="46.3083" cy="66.1799" r="0.864" fill="white"/>
<circle cx="51.5701" cy="66.1799" r="0.864" fill="white"/>
<rect x="56.6699" y="55.6621" width="0.318" height="10.524" fill="white"/>
<rect x="46.3076" y="55.6079" width="10.524" height="0.108" fill="white"/>
<path d="M51.5367 55.687L51.6334 55.6388L56.8862 66.1605L56.7895 66.2087L51.5367 55.687Z" fill="white"/>
<path d="M46.2671 66.1592L51.5299 55.6358L51.6265 55.6841L46.3637 66.2075L46.2671 66.1592Z" fill="white"/>
<rect x="46.1465" y="55.6621" width="0.318" height="10.524" fill="white"/>
<rect x="46.3076" y="66.126" width="10.524" height="0.108" fill="white"/>
<path d="M46.1732 55.7374L46.4576 55.5951L51.7204 66.1185L51.436 66.2607L46.1732 55.7374Z" fill="white"/>
<path d="M51.431 66.1142L56.6938 55.5908L56.9782 55.7331L51.7154 66.2564L51.431 66.1142Z" fill="white"/>
<path d="M44.0732 60.914L46.2536 55.6475L46.3534 55.6888L44.173 60.9553L44.0732 60.914Z" fill="white"/>
<path d="M46.2602 66.21L44.0762 60.954L44.1722 60.906L46.3622 66.162L46.2602 66.21Z" fill="white"/>
<rect x="51.5156" y="66.1799" width="0.108" height="2.196" fill="white"/>
<rect x="51.5156" y="53.4719" width="0.108" height="2.196" fill="white"/>
<path d="M46.2946 55.6118L51.5556 53.4337L51.5969 53.5335L46.3359 55.7116L46.2946 55.6118Z" fill="white"/>
<path d="M51.5437 53.5374L51.585 53.4376L56.8515 55.618L56.8101 55.7178L51.5437 53.5374Z" fill="white"/>
<path d="M56.7831 55.6815L56.8829 55.6402L59.0651 60.9059L58.9653 60.9473L56.7831 55.6815Z" fill="white"/>
<path d="M56.7763 66.1848L58.9613 60.9072L59.0611 60.9485L56.8761 66.2261L56.7763 66.1848Z" fill="white"/>
<path d="M51.5415 68.3427L56.8204 66.1453L56.8619 66.245L51.583 68.4424L51.5415 68.3427Z" fill="white"/>
<path d="M51.5465 68.4299L46.2725 66.2339L46.3085 66.1379L51.5885 68.3339L51.5465 68.4299Z" fill="white"/>
</svg>
