<svg width="120" height="120" viewBox="0 0 120 120" fill="none" xmlns="http://www.w3.org/2000/svg">
<path d="M118.204 74.5158C110.188 106.657 77.6408 126.219 45.4842 118.204C13.3433 110.188 -6.20374 77.6252 1.81195 45.4842C9.81203 13.3433 42.3748 -6.21936 74.5001 1.79634C106.657 9.81204 126.219 42.3748 118.204 74.5158Z" fill="#0007BC"/>
<path fill-rule="evenodd" clip-rule="evenodd" d="M96.0312 63.6562L95.2812 62.4531L83.2186 43.3435C82.2655 41.8591 81.0155 40.5935 79.5467 39.6247C76.8123 37.8903 73.4685 37.3434 70.3279 38.1247C67.2184 38.8747 64.5622 40.8591 62.9528 43.6248C62.1403 44.9685 61.1246 46.6404 60.0934 48.281L56.8121 43.2185L56.6871 43.0466V42.9997C55.5777 41.5154 54.1871 40.2653 52.5933 39.3278C50.2027 38.031 47.437 37.5934 44.7339 38.0622C42.1401 38.5778 39.7651 39.8903 37.9369 41.8279C37.4213 42.406 36.9682 43.031 36.5932 43.7029L27.6868 57.828L23.9524 63.7187C22.2493 66.4375 21.6555 69.7187 22.3118 72.8594C22.9212 76.0001 24.8118 78.7501 27.515 80.4688C29.3587 81.6251 31.4837 82.2345 33.6556 82.2189C37.9213 82.2032 41.8745 80.0313 44.1401 76.4219L46.9839 71.9219L49.7339 76.2032C50.4683 77.2657 51.3433 78.2501 52.2964 79.1095C52.5621 79.3438 52.8277 79.5782 53.1089 79.7813H53.1402C53.3277 79.922 53.5152 80.047 53.7339 80.1876C55.5777 81.3751 57.734 82.0157 59.9371 82.0157C62.2653 82.0001 64.5465 81.3282 66.4841 80.047L66.7184 79.8907L66.9372 79.7501C67.9997 79.0001 68.9528 78.0782 69.7341 77.0313L72.9685 72L75.7342 76.3751C78.0311 79.9688 81.9842 82.1407 86.2499 82.1407C88.4062 82.1564 90.5312 81.547 92.3749 80.4063C97.9219 76.9376 99.5781 69.2812 96.0312 63.6562ZM38.3276 44.7341C38.6557 44.1716 39.0307 43.656 39.4526 43.1716C40.9526 41.5622 42.937 40.4529 45.0932 39.9841C47.3433 39.5778 49.6402 39.9528 51.6402 41.031C52.9996 41.8435 54.1871 42.9216 55.1246 44.1873L55.2027 44.2966L58.984 50.1092C58.2832 51.1573 57.6267 52.1315 57.0898 52.9284L57.0868 52.9327L57.0867 52.9329C56.2725 54.1412 55.734 54.9404 55.734 54.9686C54.3433 57.0936 52.2183 58.6405 49.7652 59.2811H49.6402C47.0776 60.0312 44.3432 59.7343 41.9838 58.4686L41.6088 58.2499L41.2807 58.0311L40.9682 57.8124L40.7026 57.5936L40.4526 57.3905L40.2495 57.2186L40.1088 57.0936L40.0307 57.0155L39.8119 56.7655L39.5463 56.5311L39.4682 56.453L39.3432 56.328L39.2651 56.2499L39.1869 56.1717L38.8276 55.8749L38.7494 55.8124L38.6401 55.7342L38.4526 55.5936L38.3588 55.5311H38.3119L38.0463 55.3592L37.9526 55.3124H37.8744L37.6244 55.1717L37.4994 55.0936L37.1713 54.9374L37.015 54.828L36.8432 54.7499L36.5307 54.6249H36.515L36.1244 54.4999L35.9682 54.4686L35.6557 54.3905H35.4994L35.2025 54.2811H35.0307H34.9057H34.7494H34.5306H34.0463H33.89H33.3431H33.265L32.7338 54.3592H32.6869L32.1244 54.4842L38.3276 44.7341ZM36.2338 79.9376C38.8432 79.2813 41.1088 77.6563 42.562 75.375L45.9683 70.125L38.2494 57.7186L38.1557 57.6093L38.0932 57.5311L38.0463 57.4843L37.8744 57.3124H37.8432L37.5619 57.0624H37.515L37.39 56.9843L37.2807 56.9061H37.2338H37.1713L36.9838 56.7811L36.8588 56.703H36.7963L36.6713 56.6249L36.5463 56.5624H36.4682L36.3275 56.4842L36.2338 56.453L35.9057 56.328H35.8119L35.6088 56.2499H35.515H35.4525L35.2807 56.2186H35.1869H34.9682H34.8431H34.5931H34.4681H34.0931C32.6869 56.2186 31.3275 56.7655 30.3119 57.7343C29.9681 58.078 29.6712 58.4374 29.4056 58.8436L25.6868 64.7343C22.718 69.4844 24.0774 75.9063 28.6556 78.7813C30.9056 80.2032 33.6556 80.6095 36.2338 79.9376ZM68.2185 75.8438C67.5466 76.7501 66.7653 77.5469 65.8278 78.2032L65.6559 78.3282L65.4372 78.4688C62.2497 80.6095 58.0934 80.6563 54.8433 78.6095L54.3433 78.2657H54.2808C54.2331 78.2282 54.1847 78.1908 54.1358 78.153C53.9606 78.0174 53.78 77.8777 53.6089 77.7188C52.7808 76.9688 52.0308 76.1251 51.3902 75.2032L47.8433 69.6094L42.3745 60.9062L42.562 60.9843L43.0776 61.1562L43.3745 61.2499L43.8901 61.3749L44.2339 61.4687L44.7807 61.5624L45.0776 61.6093L45.7964 61.6874H45.8901H46.7026H47.0308H47.6401H47.9526L48.5464 61.6093H48.812C49.0933 61.5624 49.3745 61.5155 49.6245 61.4374C50.5933 61.1874 51.5308 60.828 52.4214 60.3593H52.5152C52.6402 60.2968 52.7574 60.2343 52.8746 60.1718C52.9918 60.1093 53.1089 60.0468 53.2339 59.9843C54.8902 59.0311 56.2965 57.703 57.3277 56.0936C57.3277 56.0936 59.0152 53.5467 60.859 50.6717C62.1715 48.6248 63.5778 46.3904 64.5778 44.6716C65.9059 42.3747 68.1403 40.7029 70.7185 40.0935C73.3591 39.4528 76.1248 39.8903 78.4217 41.3435C79.6404 42.156 80.6873 43.2341 81.4998 44.4685L90.7812 59.1874C90.5155 59.0624 90.2499 58.9686 89.9687 58.8749L89.828 58.828C89.6113 58.7515 89.3841 58.6854 89.1635 58.6212L89.0155 58.578H88.9374C88.6916 58.5057 88.4325 58.4602 88.1847 58.4167L88.1249 58.4061H87.9999C87.794 58.3698 87.5693 58.3429 87.3623 58.318C87.3022 58.3108 87.2436 58.3038 87.1874 58.2968H87.0311C86.7499 58.2968 86.4686 58.2968 86.2186 58.2655H86.1874H85.3749H85.203C84.9374 58.2655 84.6561 58.2968 84.3905 58.3593H84.2186C83.9374 58.4061 83.6561 58.453 83.3592 58.5311C82.9686 58.6249 82.5936 58.7343 82.203 58.8593C79.6092 59.7499 77.3904 61.5155 75.9685 63.8593L72.5935 69.1562L68.2185 75.8438ZM77.4842 75.2969C80.4529 80.0313 86.828 81.5939 91.4062 78.7188C95.9843 75.8438 97.3281 69.4219 94.3281 64.6249L93.6249 63.4999L93.5468 63.4218C93.4999 63.3697 93.4531 63.3159 93.4062 63.2621C93.3124 63.1545 93.2187 63.0468 93.1249 62.9531L93.0468 62.8749C92.7187 62.5468 92.3437 62.2343 91.953 61.953L91.828 61.8749C91.7655 61.8333 91.7117 61.7968 91.6579 61.7603C91.5503 61.6874 91.4426 61.6145 91.2655 61.4999C90.9999 61.328 90.7187 61.1874 90.453 61.0624H90.3749L90.0937 60.9374L89.9218 60.8593L89.7187 60.7812L89.453 60.6718H89.3437L88.9687 60.5468C84.828 59.2811 80.3123 60.8437 77.8435 64.4218L77.5779 64.8437L74.2029 70.1406L77.4842 75.2969Z" fill="white"/>
</svg>
