<svg width="84" height="84" viewBox="0 0 84 84" fill="none" xmlns="http://www.w3.org/2000/svg">
<circle cx="42" cy="42" r="42" fill="#1D1336"/>
<g clip-path="url(#clip0_1169_260)">
<path d="M41.4828 20C37.2866 20 33.2622 21.6813 30.295 24.6741C27.3278 27.6669 25.6609 31.726 25.6609 35.9584C25.6078 36.7408 25.6078 37.5259 25.6609 38.3083C28.3028 36.6437 31.2667 35.5675 34.3542 35.1517C40.9612 35.1517 44.0908 41.2545 50.1762 41.2545C52.6185 41.0306 54.9525 40.1326 56.9222 38.6591C57.0909 37.7691 57.1725 36.8645 57.1656 35.9584C57.1567 31.753 55.506 27.7203 52.5707 24.7335C49.6355 21.7467 45.652 20.0461 41.4828 20V20Z" fill="#F2B705"/>
<path d="M50.3848 45.3931C47.4663 45.1962 44.6765 44.1074 42.3869 42.2715C40.1438 40.4917 37.4123 39.4509 34.5628 39.2903C31.6089 39.632 28.7749 40.6648 26.2868 42.3066C26.1883 42.3874 26.0735 42.4455 25.9505 42.4768C25.8274 42.5081 25.6991 42.5118 25.5744 42.4877C25.4498 42.4636 25.3319 42.4123 25.229 42.3374C25.1261 42.2624 25.0407 42.1657 24.9789 42.0539C24.917 41.9421 24.8802 41.818 24.871 41.6904C24.8617 41.5627 24.8803 41.4345 24.9254 41.3149C24.9705 41.1952 25.0411 41.087 25.1321 40.9978C25.2231 40.9086 25.3323 40.8405 25.4522 40.7984C28.1969 39.0126 31.3161 37.8958 34.5628 37.5366C37.7329 37.7058 40.777 38.8434 43.291 40.7984C45.2768 42.4232 47.6986 43.4125 50.2457 43.6394C52.5777 43.3974 54.7951 42.4979 56.644 41.044C56.7395 40.9784 56.8471 40.9327 56.9603 40.9095C57.0736 40.8863 57.1903 40.8862 57.3036 40.909C57.4169 40.9319 57.5246 40.9773 57.6203 41.0426C57.716 41.108 57.7979 41.1919 57.861 41.2895C57.9815 41.4813 58.0234 41.7129 57.978 41.9353C57.9326 42.1577 57.8034 42.3537 57.6176 42.482C55.5221 44.1122 53.0173 45.1203 50.3848 45.3931V45.3931Z" fill="#53CBC8"/>
<path d="M27.6428 53.0743C27.4122 53.0743 27.1911 52.9819 27.0281 52.8175C26.865 52.653 26.7734 52.43 26.7734 52.1975V44.5515C26.8133 44.3533 26.92 44.175 27.0752 44.047C27.2305 43.919 27.4249 43.8491 27.6254 43.8491C27.8259 43.8491 28.0203 43.919 28.1755 44.047C28.3308 44.175 28.4374 44.3533 28.4773 44.5515V52.1975C28.4775 52.4241 28.3907 52.6419 28.2351 52.8054C28.0795 52.9689 27.8673 53.0652 27.6428 53.0743Z" fill="#53CBC8"/>
<path d="M31.5373 53.39C31.3067 53.39 31.0856 53.2976 30.9226 53.1331C30.7596 52.9687 30.668 52.7457 30.668 52.5131V41.9911C30.668 41.7585 30.7596 41.5355 30.9226 41.3711C31.0856 41.2066 31.3067 41.1143 31.5373 41.1143C31.7679 41.1143 31.989 41.2066 32.152 41.3711C32.3151 41.5355 32.4066 41.7585 32.4066 41.9911V52.5131C32.4066 52.7457 32.3151 52.9687 32.152 53.1331C31.989 53.2976 31.7679 53.39 31.5373 53.39Z" fill="#53CBC8"/>
<path d="M35.432 62.9999C35.3178 62.9954 35.2056 62.9682 35.1018 62.9199C34.998 62.8716 34.9047 62.8032 34.8272 62.7185C34.7497 62.6338 34.6895 62.5345 34.6501 62.4263C34.6106 62.3181 34.5927 62.2032 34.5974 62.088V42.1312C34.5972 41.9046 34.684 41.6868 34.8396 41.5233C34.9952 41.3598 35.2075 41.2635 35.432 41.2544C35.6625 41.2544 35.8836 41.3468 36.0467 41.5112C36.2097 41.6757 36.3013 41.8987 36.3013 42.1312V62.088C36.306 62.2061 36.287 62.3239 36.2454 62.4343C36.2038 62.5448 36.1405 62.6456 36.0593 62.7308C35.9781 62.816 35.8807 62.8837 35.7729 62.93C35.6651 62.9762 35.5491 63 35.432 62.9999Z" fill="#53CBC8"/>
<path d="M39.3615 52.5832C39.2346 52.5848 39.1089 52.5584 38.9933 52.5059C38.8776 52.4533 38.7747 52.3759 38.6918 52.2789C38.609 52.182 38.5482 52.068 38.5137 51.9448C38.4792 51.8217 38.4719 51.6924 38.4922 51.566V43.8148C38.4922 43.5823 38.5838 43.3592 38.7468 43.1948C38.9098 43.0304 39.1309 42.938 39.3615 42.938C39.5921 42.938 39.8132 43.0304 39.9762 43.1948C40.1392 43.3592 40.2308 43.5823 40.2308 43.8148V51.566C40.2512 51.6924 40.2438 51.8217 40.2093 51.9448C40.1748 52.068 40.114 52.182 40.0312 52.2789C39.9483 52.3759 39.8454 52.4533 39.7298 52.5059C39.6141 52.5584 39.4884 52.5848 39.3615 52.5832Z" fill="#53CBC8"/>
<path d="M43.2561 49.9878C43.0255 49.9878 42.8044 49.8955 42.6413 49.731C42.4783 49.5666 42.3867 49.3435 42.3867 49.111V45.9193C42.3867 45.6868 42.4783 45.4637 42.6413 45.2993C42.8044 45.1349 43.0255 45.0425 43.2561 45.0425C43.4866 45.0425 43.7077 45.1349 43.8708 45.2993C44.0338 45.4637 44.1254 45.6868 44.1254 45.9193V49.111C44.1254 49.3435 44.0338 49.5666 43.8708 49.731C43.7077 49.8955 43.4866 49.9878 43.2561 49.9878Z" fill="#53CBC8"/>
<path d="M47.1506 58.9315C46.92 58.9315 46.6989 58.8391 46.5359 58.6746C46.3728 58.5102 46.2812 58.2872 46.2812 58.0546V47.5326C46.2812 47.3 46.3728 47.077 46.5359 46.9126C46.6989 46.7481 46.92 46.6558 47.1506 46.6558C47.3811 46.6558 47.6023 46.7481 47.7653 46.9126C47.9283 47.077 48.0199 47.3 48.0199 47.5326V58.0546C48.0199 58.2872 47.9283 58.5102 47.7653 58.6746C47.6023 58.8391 47.3811 58.9315 47.1506 58.9315Z" fill="#53CBC8"/>
<path d="M51.0456 58.2303C50.815 58.2303 50.5939 58.1379 50.4309 57.9734C50.2679 57.809 50.1763 57.586 50.1763 57.3534V48.059C50.1763 47.8264 50.2679 47.6034 50.4309 47.4389C50.5939 47.2745 50.815 47.1821 51.0456 47.1821C51.2762 47.1821 51.4973 47.2745 51.6603 47.4389C51.8234 47.6034 51.9149 47.8264 51.9149 48.059V57.4236C51.8974 57.6438 51.7982 57.8492 51.637 57.9987C51.4758 58.1483 51.2646 58.231 51.0456 58.2303Z" fill="#53CBC8"/>
<path d="M54.9748 52.2326C54.7442 52.2326 54.5231 52.1402 54.3601 51.9757C54.1971 51.8113 54.1055 51.5883 54.1055 51.3557V46.7611C54.1055 46.5286 54.1971 46.3055 54.3601 46.1411C54.5231 45.9767 54.7442 45.8843 54.9748 45.8843C55.2054 45.8843 55.4265 45.9767 55.5895 46.1411C55.7526 46.3055 55.8441 46.5286 55.8441 46.7611V51.3557C55.8441 51.5883 55.7526 51.8113 55.5895 51.9757C55.4265 52.1402 55.2054 52.2326 54.9748 52.2326Z" fill="#53CBC8"/>
</g>
<defs>
<clipPath id="clip0_1169_260">
<rect width="33" height="43" fill="white" transform="translate(25 20)"/>
</clipPath>
</defs>
</svg>
