<svg width="120" height="120" viewBox="0 0 120 120" fill="none" xmlns="http://www.w3.org/2000/svg">
<circle cx="60" cy="60" r="60" fill="#EDF0F4"/>
<path d="M90.3398 69.0998L75.8249 44.3189C73.1983 39.8937 66.7703 39.8937 64.1438 44.3189L49.6287 69.0998C47.0022 73.5249 50.2509 79.0393 55.5039 79.0393H84.5339C89.7178 79.0393 92.8973 73.5249 90.3398 69.0998Z" fill="#00B897"/>
<path d="M70.9863 69.578L70.1568 68.1483C69.3966 66.7868 67.6686 63.9274 67.6686 63.9274L56.1257 44.3206C53.4992 39.8954 47.0711 39.8954 44.4445 44.3206L29.9295 69.1014C27.303 73.5267 30.5516 79.041 35.8046 79.041H64.5581H76.5157H84.5337C77.3452 79.041 74.3039 75.2287 70.9863 69.578Z" fill="#76FCB2"/>
<path d="M70.9866 69.5767L70.1571 68.147C69.3968 66.7855 67.6688 63.9261 67.6688 63.9261L60.1348 51.1272L49.6287 69.1001C47.0022 73.5254 50.2509 79.0397 55.5039 79.0397H64.5585H76.5161H84.5339C77.3456 79.0397 74.3043 75.2274 70.9866 69.5767Z" fill="url(#paint0_linear_204_30317)"/>
<defs>
<linearGradient id="paint0_linear_204_30317" x1="37.7558" y1="73.96" x2="67.6009" y2="92.1374" gradientUnits="userSpaceOnUse">
<stop stop-color="#53E57A" stop-opacity="0.01"/>
<stop offset="1" stop-color="#00A977"/>
</linearGradient>
</defs>
</svg>
