<svg width="120" height="120" viewBox="0 0 120 120" fill="none" xmlns="http://www.w3.org/2000/svg">
<path fill-rule="evenodd" clip-rule="evenodd" d="M60 120C27 120 0 93.0006 0 59.7012C0.3 26.7019 27 -0.297518 60.3 0.00247602C93.3 0.30247 120 27.0019 120 60.6012C119.7 93.3006 93 120 60 120Z" fill="#EDF0F4"/>
<path d="M104.976 59.0925C104.985 59.3978 104.988 59.6978 104.988 60.0013C105 67.2048 103.273 74.3048 99.9547 80.6986L75.4219 90.599L75.4716 90.4872L104.976 59.0925Z" fill="#0F6089"/>
<path d="M104.976 59.0817L75.4766 90.487L102.879 46.3521C104.189 50.4718 104.895 54.7595 104.976 59.0817Z" fill="#078FA4"/>
<path d="M102.88 46.3522L75.4771 90.4872L75.4026 90.6062L72.1172 33.4912L99.6674 43.7999L102.88 46.3522Z" fill="#00AAA6"/>
<path d="M102.88 46.3521L99.667 43.7998L102.354 44.8026C102.542 45.3156 102.72 45.8339 102.88 46.3521Z" fill="#00AAA6"/>
<path fill-rule="evenodd" clip-rule="evenodd" d="M75.8011 17.8594H75.7975L74.4131 23.7397L99.6666 43.7997L102.354 44.8026C97.8828 32.3619 88.1752 22.5115 75.8011 17.8594Z" fill="#1EAAE2"/>
<path d="M75.4221 90.599L99.9514 80.6914C93.7399 92.6731 82.4821 101.237 69.2773 104.026L75.1647 91.1687L75.4221 90.599Z" fill="#0C7392"/>
<path d="M99.6674 43.7998L72.1172 33.4911L74.4139 23.7397L99.6674 43.7998Z" fill="#1EAAE2"/>
<path d="M75.7981 17.8594L74.4119 23.7397L63.585 15.1438C67.7638 15.4679 71.8757 16.3821 75.7981 17.8594Z" fill="#ABCF3A"/>
<path d="M75.4021 90.606L75.4766 90.487L75.4269 90.5989L75.4021 90.606Z" fill="#CD1685"/>
<path d="M75.427 90.599L75.1643 91.1688L43.3525 67.9618L43.7643 67.5962L72.1168 33.4912L75.4021 90.6062L75.427 90.599Z" fill="#8F9990"/>
<path d="M75.1644 91.1687L69.277 104.026C66.2264 104.669 63.1171 104.991 59.9995 104.988C58.7571 104.988 57.5413 104.939 56.3343 104.841L28.3457 80.5068L29.1604 80.6843L75.1644 91.1687Z" fill="#CD1685"/>
<path d="M75.1641 91.1687L29.1602 80.6913L43.3524 67.9617L75.1641 91.1687Z" fill="#EC1076"/>
<path d="M74.4137 23.7397L72.117 33.4911L63.585 15.1438L74.4137 23.7397Z" fill="#ABCF3A"/>
<path d="M63.5847 15.1438L72.115 33.4911L40.7842 19.2918C46.7902 16.4549 53.3518 14.989 59.9941 15.0001C61.2028 15.0001 62.3973 15.0498 63.5847 15.1438Z" fill="#E0E224"/>
<path d="M72.1166 33.4912L43.7641 67.5962L31.4355 52.3923L72.1166 33.4912V33.4912Z" fill="#F9A516"/>
<path d="M72.1166 33.491L31.4355 52.3921L40.784 19.2988L72.1166 33.491Z" fill="#FDCD11"/>
<path d="M56.5008 104.988L56.1973 104.828L56.3286 104.841L56.5008 104.988Z" fill="#CD1685"/>
<path fill-rule="evenodd" clip-rule="evenodd" d="M56.3289 104.841L28.3456 80.5067L28.1486 80.3328L25.0674 88.3589C32.7677 97.8597 44.0108 103.808 56.1976 104.828L56.3289 104.841Z" fill="#B9204A"/>
<path d="M31.4358 52.3921L43.7644 67.596L43.3526 67.9616L21.5371 67.5019L31.4358 52.3921V52.3921Z" fill="#F05B28"/>
<path d="M43.3526 67.9617L29.1604 80.6913L21.5371 67.502L43.3526 67.9617Z" fill="#F05B28"/>
<path d="M40.7838 19.2971L31.4354 52.3922L21.5367 67.502L21.574 67.1843L15.0742 57.5323C15.9776 40.6032 26.242 26.1678 40.7838 19.2971Z" fill="#FDCD11"/>
<path fill-rule="evenodd" clip-rule="evenodd" d="M29.1598 80.6913L21.5366 67.502L28.3451 80.5067L21.5366 67.5055L20.0332 80.6913C21.4452 83.4122 23.1319 85.9814 25.0669 88.359L28.1481 80.3293L28.3451 80.5067L29.1598 80.6913Z" fill="#AB1F25"/>
<path d="M15.0654 57.5322L21.574 67.1842L21.5368 67.5019L20.0334 80.6877L15.0654 57.5322Z" fill="#CB0010"/>
<path d="M15.0746 57.5322L20.0443 80.6877C16.7226 74.2961 14.9922 67.1973 15 59.994C15 59.1687 15.0196 58.3505 15.0746 57.5322V57.5322Z" fill="#CB0010"/>
<path d="M85.2654 67.596L87.3137 58.9664C88.1586 56.6293 88.5794 54.1601 88.5561 51.675C88.5559 50.0257 87.932 48.4374 86.8096 47.2289L86.5043 46.9005C84.4064 44.6393 80.6471 43.3507 77.5552 43.3507H76.4743C73.6736 43.3489 70.9761 44.4073 68.9238 46.313L66.3697 48.6932L65.9331 47.6921C65.7056 47.165 65.3838 46.6838 64.9835 46.2722C62.8801 44.1386 60.0084 42.9385 57.0124 42.9407C54.8015 42.9403 52.64 43.5943 50.8002 44.8203L48.2833 46.6396V46.4621C48.2823 44.7415 46.8872 43.3471 45.1666 43.3471H17.8755L15.4102 52.3921L38.0101 52.8039L34.6893 70.6524C34.1248 73.0823 35.6637 75.4766 38.1486 75.7766C40.1354 76.0238 42.0106 74.8012 42.5859 72.8835L48.7679 53.7854C49.4352 51.5579 52.4419 50.1415 54.7493 50.4432C56.1171 50.6216 57.3396 51.3863 58.0983 52.5383C58.857 53.6903 59.0767 55.1154 58.7003 56.4424L55.4451 70.6293C55.0132 72.1508 55.32 73.7868 56.2738 75.0485C57.2276 76.3102 58.7179 77.0515 60.2995 77.051C62.4525 77.051 63.5476 75.6861 64.2487 73.6502L70.452 55.2107C71.1726 53.1216 73.7285 51.8774 75.901 52.2909C77.1378 52.5272 78.2165 53.2766 78.8695 54.3532C79.5225 55.4298 79.6886 56.7327 79.3266 57.9387L76.0359 70.0454C75.534 71.6877 75.8405 73.4708 76.8622 74.8512C77.8838 76.2316 79.4995 77.0458 81.2168 77.0456L102.466 76.6356L104.931 67.596H85.2654Z" fill="white"/>
</svg>
