<svg width="120" height="120" viewBox="0 0 120 120" fill="none" xmlns="http://www.w3.org/2000/svg">
<circle cx="60" cy="60" r="60" fill="#EDF0F4"/>
<path d="M39.9852 73.313L54.2317 81.5653V88.409L34.8279 77.1756V44.9401L38.673 42.7159L37.2601 40.2632L32 43.3073V78.8098L57.0526 93.3158V79.9311L41.3988 70.8603L39.9852 73.313Z" fill="url(#paint0_linear_204_30388)"/>
<path d="M60.0048 30.4236L76.2692 40.2632L77.6848 37.6973L60.0048 27L42.3164 37.6937L43.732 40.2595L60.0048 30.4236Z" fill="url(#paint1_linear_204_30388)"/>
<path d="M60.0048 40.7371L76.2692 50.5788L77.6848 48.0124L60.0048 37.3157L42.3164 48.0088L43.732 50.5752L60.0048 40.7371Z" fill="url(#paint2_linear_204_30388)"/>
<path d="M82.7454 40.2632L81.3325 42.7159L85.1776 44.9403V77.1766L65.7717 88.4089V81.565L80.1734 73.2256L78.7605 70.7728L62.9473 79.9307V93.3158L87.9999 78.8095V43.306L82.7454 40.2632Z" fill="url(#paint3_linear_204_30388)"/>
<path fill-rule="evenodd" clip-rule="evenodd" d="M67.9238 65.6022C68.322 64.0845 68.0575 62.4703 67.1954 61.1566C67.1775 61.1295 67.1601 61.1022 67.1428 61.0751C67.1304 61.0556 67.118 61.0363 67.1057 61.0173L66.6591 60.4704C66.5953 60.4034 66.5376 60.3309 66.4867 60.2537C66.4682 60.2226 66.4653 60.1848 66.479 60.1513C66.5491 60.0196 66.6262 59.8921 66.7047 59.766C67.0137 59.275 67.2297 58.732 67.3419 58.1637C67.4796 57.4875 67.4967 56.7926 67.3924 56.1105C67.0633 53.9027 65.3354 52.1599 63.119 51.8002C63.1019 51.7972 63.0854 51.7944 63.0696 51.7917C62.8708 51.7579 62.7682 51.7404 62.7152 51.6797C62.6586 51.6149 62.6583 51.5009 62.6578 51.2654C62.6578 51.2549 62.6577 51.2441 62.6577 51.233V50.172C62.6572 50.0978 62.6478 50.0239 62.6297 49.9518C62.6169 49.9173 62.5895 49.89 62.5547 49.8773C62.4828 49.8556 62.4082 49.8439 62.3331 49.8425H59.5249C59.45 49.8399 59.3752 49.8493 59.3033 49.8703C59.2533 49.8899 59.2136 49.9293 59.194 49.979C59.1748 50.0706 59.1668 50.1642 59.1701 50.2577V50.2578C59.1701 50.611 59.1701 50.9642 59.1659 51.3173C59.1683 51.4111 59.1584 51.5048 59.1365 51.596C59.1246 51.6399 59.0699 51.6796 59.0257 51.7089C58.9927 51.7267 58.9553 51.7349 58.9178 51.7326C58.831 51.7326 58.7439 51.7332 58.6568 51.7338C58.4821 51.735 58.3068 51.7363 58.1319 51.7326C57.9812 51.7326 57.902 51.6434 57.9006 51.479C57.8973 51.2814 57.8964 51.0846 57.8955 50.8877V50.8876V50.8874C57.8949 50.7497 57.8943 50.6118 57.8929 50.4737C57.8929 50.3545 57.8869 50.2349 57.881 50.1144V50.1144L57.8768 50.0278C57.8658 49.9322 57.7863 49.8589 57.6896 49.855L57.6647 49.8531C57.5982 49.8481 57.5326 49.8432 57.4653 49.8432H54.7691C54.711 49.8432 54.6537 49.8478 54.5957 49.8524L54.5448 49.8564C54.4479 49.8675 54.3752 49.9497 54.3766 50.0466C54.3719 50.3089 54.3697 50.5726 54.3674 50.8362L54.3661 50.9948C54.3661 51.1808 54.3618 51.3668 54.3541 51.5521C54.3416 51.6472 54.262 51.7196 54.1656 51.7235C54.0169 51.7312 53.8662 51.7368 53.7169 51.7368H52.3689C52.2571 51.7351 52.1454 51.7454 52.0359 51.7674C51.984 51.7844 51.9411 51.8212 51.9167 51.8698C51.8978 51.9225 51.8909 51.9786 51.8964 52.0342V54.9366C51.8954 54.9928 51.9034 55.0488 51.9202 55.1024C51.9336 55.1374 51.9607 55.1655 51.9952 55.1805C52.0668 55.1994 52.1405 55.2097 52.2146 55.2111C52.3738 55.2132 52.5331 55.2132 52.6924 55.2132C52.8517 55.2132 53.011 55.2132 53.1701 55.2153C53.2644 55.2132 53.3585 55.2226 53.4505 55.2432C53.5006 55.2636 53.5378 55.3066 53.5508 55.3588C53.5685 55.5061 53.5774 55.6543 53.5774 55.8026V58.3706V62.9478V63.4508L53.5655 64.1691C53.567 64.1947 53.5689 64.2203 53.5707 64.2459C53.5754 64.3132 53.5802 64.3807 53.5802 64.4478V65.7317C53.5802 65.8063 53.5802 65.8815 53.5746 65.9547C53.5787 66.0105 53.5593 66.0655 53.521 66.1066C53.4827 66.1477 53.429 66.1711 53.3727 66.1713C53.2116 66.1748 53.0502 66.1761 52.8892 66.1774L52.8888 66.1774C52.788 66.1782 52.6873 66.1791 52.5869 66.1804C52.4186 66.1804 52.249 66.1846 52.0807 66.1922C51.9837 66.1981 51.9078 66.2775 51.9069 66.3741L51.9053 66.4076L51.9053 66.4077C51.9016 66.4893 51.8978 66.5713 51.8978 66.6528V69.165C51.8978 69.2672 51.9042 69.3694 51.9107 69.4715L51.9125 69.4994C51.9325 69.5713 51.9922 69.6254 52.066 69.6387L52.0877 69.6405L52.0877 69.6405C52.1914 69.649 52.2963 69.6576 52.4011 69.6589H53.6931C53.8438 69.6589 53.9924 69.6589 54.1417 69.6694C54.1984 69.6647 54.2545 69.6839 54.2962 69.7223C54.338 69.7608 54.3615 69.8149 54.3611 69.8714C54.3641 69.9894 54.3651 70.1069 54.3661 70.2241V70.2242C54.367 70.33 54.3679 70.4355 54.3703 70.5409C54.3703 70.6772 54.3763 70.8134 54.3823 70.9492L54.3823 70.9493L54.3864 71.0419C54.3993 71.116 54.4598 71.1727 54.535 71.1812C54.6282 71.1903 54.7222 71.1986 54.8154 71.1986H57.4554C57.5404 71.1986 57.6248 71.1911 57.7108 71.1834L57.7108 71.1834L57.7359 71.1812C57.8091 71.1637 57.8645 71.104 57.8761 71.03C57.8852 70.9374 57.8922 70.8454 57.8936 70.7513V70.0261C57.8919 69.9518 57.9008 69.8777 57.9202 69.8059C57.9422 69.7622 57.9779 69.7268 58.0219 69.7049C58.0736 69.6827 58.1296 69.6722 58.1859 69.6743C58.3731 69.6701 58.5603 69.6701 58.7467 69.6701C59.1379 69.6701 59.161 69.7398 59.1624 70.0881V70.8691C59.1666 71.1742 59.201 71.2035 59.5312 71.2105H59.6433H62.1712C62.2448 71.2105 62.3198 71.2105 62.3955 71.2049C62.5694 71.1972 62.6416 71.1352 62.6465 70.9778C62.6484 70.8749 62.6486 70.7717 62.6487 70.6686C62.6489 70.5482 62.6491 70.4279 62.6521 70.3083C62.6521 70.1585 62.6563 70.0108 62.6626 69.861C62.6736 69.7662 62.7477 69.6908 62.8428 69.6778L62.8566 69.6762L62.8566 69.6762C62.983 69.6621 63.1082 69.6481 63.234 69.638C65.5107 69.4416 67.4026 67.8135 67.9238 65.6022ZM57.093 55.6883C57.0929 55.5768 57.1019 55.4654 57.1197 55.3553C57.1263 55.2975 57.1711 55.2512 57.229 55.2425C57.322 55.2293 57.4156 55.2214 57.5094 55.2188H62.2231C62.6974 55.2005 63.1567 55.3852 63.4849 55.726C63.7546 55.9909 63.9127 56.3478 63.9273 56.7243C63.9329 56.9089 63.9329 57.0949 63.9273 57.2817C63.8698 58.0113 63.3169 58.6068 62.5897 58.7224C62.4579 58.7392 62.3255 58.7441 62.1925 58.749L62.1923 58.749C62.1379 58.751 62.0834 58.753 62.0289 58.7558H61.9167H59.8347H57.534C57.4226 58.7537 57.3117 58.7421 57.2024 58.721C57.1666 58.709 57.1388 58.6808 57.1274 58.6451C57.1068 58.5536 57.096 58.4602 57.0951 58.3664C57.0923 58.0442 57.0933 57.7226 57.0942 57.4005C57.0947 57.2394 57.0951 57.0781 57.0951 56.9166C57.0916 56.5063 57.0902 56.0973 57.093 55.6883ZM61.9811 66.184C62.2622 66.1842 62.5423 66.1844 62.8239 66.1797C63.5945 66.1453 64.26 65.6325 64.4853 64.8992C64.574 64.5949 64.6005 64.2761 64.5631 63.9615C64.5275 63.2336 64.0515 62.5999 63.3594 62.3591C63.1123 62.2719 62.8502 62.2341 62.5883 62.2476H57.59C57.4891 62.2476 57.3881 62.2527 57.2871 62.2578C57.2759 62.2583 57.2648 62.2589 57.2536 62.2595C57.1813 62.2782 57.1252 62.335 57.1077 62.4072C57.1064 62.4208 57.1051 62.4345 57.1037 62.4481C57.0977 62.5085 57.0916 62.5691 57.0916 62.6287V64.1356C57.0916 64.3162 57.0911 64.4966 57.0907 64.6768C57.0897 65.0368 57.0888 65.3961 57.0916 65.7554C57.0953 65.8655 57.1101 65.975 57.1358 66.0822C57.1479 66.1156 57.1752 66.1414 57.2094 66.1518C57.3189 66.1713 57.4298 66.182 57.541 66.1839H60.1249H61.8123C61.8686 66.1839 61.9249 66.1839 61.9811 66.184Z" fill="url(#paint4_linear_204_30388)"/>
<defs>
<linearGradient id="paint0_linear_204_30388" x1="0.833073" y1="355.32" x2="233.78" y2="315.766" gradientUnits="userSpaceOnUse">
<stop offset="0.13" stop-color="#13AAE6"/>
<stop offset="1" stop-color="#023B90"/>
</linearGradient>
<linearGradient id="paint1_linear_204_30388" x1="1787.89" y1="848.713" x2="1794.59" y2="-468.422" gradientUnits="userSpaceOnUse">
<stop offset="0.13" stop-color="#13AAE6"/>
<stop offset="1" stop-color="#023B90"/>
</linearGradient>
<linearGradient id="paint2_linear_204_30388" x1="1791.56" y1="783.307" x2="1798.26" y2="-534.513" gradientUnits="userSpaceOnUse">
<stop offset="0.13" stop-color="#13AAE6"/>
<stop offset="1" stop-color="#023B90"/>
</linearGradient>
<linearGradient id="paint3_linear_204_30388" x1="34.1201" y1="364.474" x2="266.943" y2="324.931" gradientUnits="userSpaceOnUse">
<stop offset="0.13" stop-color="#13AAE6"/>
<stop offset="1" stop-color="#023B90"/>
</linearGradient>
<linearGradient id="paint4_linear_204_30388" x1="81.7703" y1="188.778" x2="199.607" y2="58.9505" gradientUnits="userSpaceOnUse">
<stop offset="0.13" stop-color="#13AAE6"/>
<stop offset="1" stop-color="#023B90"/>
</linearGradient>
</defs>
</svg>
