<svg width="120" height="120" viewBox="0 0 120 120" fill="none" xmlns="http://www.w3.org/2000/svg">
<circle cx="60" cy="60" r="60" fill="#EDF0F4"/>
<path d="M43.03 30.3931L77.096 50.052V70.104L25 40.026L41.696 30.3931C42.1123 30.1684 42.6137 30.1684 43.03 30.3931Z" fill="#3CA9E5"/>
<path d="M77.0966 30L59.7266 40.026L77.0966 50.052V30Z" fill="#2853C3"/>
<path d="M77.0957 30L93.8057 39.6328C94.2141 39.8813 94.4681 40.3204 94.4797 40.7983V80.116L77.0957 70.1041V30Z" fill="#1A4199"/>
<path d="M94.4666 80.1301L77.7706 89.7629C77.3361 90.0137 76.8009 90.0137 76.3664 89.7629L42.3145 70.104V50.0239L94.4666 80.1301Z" fill="#2853C3"/>
<path d="M25 40.0261V79.3438C24.9972 79.8368 25.253 80.2951 25.674 80.5514L42.37 90.1843V50.0241L25 40.0261Z" fill="#60BEFF"/>
<path d="M42.3691 90.156L59.7251 80.13L42.3691 70.104V90.156Z" fill="#3CA9E5"/>
</svg>
