<svg width="120" height="120" viewBox="0 0 120 120" fill="none" xmlns="http://www.w3.org/2000/svg">
<path fill-rule="evenodd" clip-rule="evenodd" d="M60 120C27 120 0 93.0006 0 59.7012C0.3 26.7019 27 -0.297518 60.3 0.00247602C93.3 0.30247 120 27.0019 120 60.6012C119.7 93.3006 93 120 60 120Z" fill="#EDF0F4"/>
<path fill-rule="evenodd" clip-rule="evenodd" d="M49.336 34.1593C49.3407 37.3146 46.7866 39.8764 43.6313 39.8811C40.476 39.8858 37.9142 37.3317 37.9095 34.1764C37.9048 31.021 40.4589 28.4593 43.6142 28.4546C46.7696 28.4546 49.3275 31.0125 49.3275 34.1678L49.336 34.1593ZM28.9057 47.8984C31.0403 47.0114 32.4301 44.9256 32.4267 42.614C32.422 39.462 29.8654 36.9093 26.7134 36.9093C24.4018 36.9093 22.318 38.3022 21.4342 40.4381C20.5504 42.5741 21.0408 45.0321 22.6766 46.6654C24.3123 48.2987 26.7711 48.7854 28.9057 47.8984ZM37.901 50.8489C37.901 54.0043 40.4589 56.5622 43.6142 56.5622C46.7696 56.5622 49.3275 54.0043 49.3275 50.8489C49.3275 49.3337 48.7255 47.8805 47.6541 46.809C46.5827 45.7376 45.1295 45.1357 43.6142 45.1357C40.4589 45.1357 37.901 47.6936 37.901 50.8489ZM82.9286 34.1678C82.9286 36.4786 81.5366 38.5619 79.4017 39.4462C77.2668 40.3305 74.8094 39.8417 73.1754 38.2077C71.5415 36.5737 71.0527 34.1164 71.937 31.9815C72.8213 29.8466 74.9045 28.4546 77.2153 28.4546C80.3707 28.4546 82.9286 31.0125 82.9286 34.1678ZM79.4017 56.1273C81.5366 55.243 82.9286 53.1597 82.9286 50.8489C82.9286 47.6936 80.3707 45.1357 77.2153 45.1357C74.9045 45.1357 72.8213 46.5277 71.937 48.6625C71.0527 50.7974 71.5415 53.2548 73.1754 54.8888C74.8094 56.5228 77.2668 57.0116 79.4017 56.1273Z" fill="#141414"/>
</svg>
