<svg width="120" height="120" viewBox="0 0 120 120" fill="none" xmlns="http://www.w3.org/2000/svg">
<circle cx="60" cy="60" r="60" fill="#E7EFF3"/>
<circle cx="59.9999" cy="38.1132" r="18.1132" fill="#88BDF3"/>
<circle cx="59.9999" cy="81.8869" r="18.1132" fill="#3075EE"/>
<circle cx="81.8866" cy="59.9999" r="18.1132" fill="#5795F1"/>
<circle cx="38.1132" cy="59.9999" r="18.1132" fill="#205FEC"/>
<path d="M55.7368 55.7358C49.1551 54.1354 44.0164 48.9967 42.416 42.415C48.9842 44.0393 54.1125 49.1676 55.7368 55.7358Z" fill="#134BEF"/>
<path d="M42.377 77.6228C43.9773 71.0411 49.1161 65.9024 55.6977 64.302C54.0735 70.8702 48.9451 75.9985 42.377 77.6228Z" fill="#0932E8"/>
<path d="M64.2637 64.2642C70.8453 65.8645 75.9841 71.0033 77.5844 77.5849C71.0163 75.9607 65.8879 70.8323 64.2637 64.2642V64.2642Z" fill="#164BEA"/>
<path d="M77.6235 42.3774C76.0231 48.9591 70.8844 54.0978 64.3027 55.6982C65.927 49.13 71.0553 44.0017 77.6235 42.3774Z" fill="#3170F1"/>
</svg>
