<svg width="120" height="120" viewBox="0 0 120 120" fill="none" xmlns="http://www.w3.org/2000/svg">
<circle cx="60" cy="60" r="60" fill="#EDF0F4"/>
<path d="M45.1219 69.5067C45.0967 69.8345 44.871 70.1123 44.5554 70.2041C44.2397 70.296 43.9002 70.1826 43.7031 69.9195L32.3526 59.3481C32.0631 59.1612 31.9147 58.8182 31.9769 58.4793C32.039 58.1403 32.2994 57.8722 32.6364 57.8003L48.5271 51.4646C49.2648 51.1706 49.7085 51.5575 49.5125 52.3314L45.1219 69.5067Z" fill="#404A72"/>
<path d="M35.7331 79.5517C35.1294 80.0677 34.5206 79.8561 34.3813 79.0719L31.2857 61.8914C31.1413 61.1072 31.5024 60.9112 32.0854 61.4529L42.8684 71.5136C43.1463 71.7609 43.3022 72.1173 43.2952 72.4892C43.2883 72.8612 43.1192 73.2115 42.8323 73.4483L35.7331 79.5517Z" fill="#556195"/>
<path d="M48.7333 48.0439C48.9855 48.2838 49.0898 48.6404 49.0067 48.9784C48.9235 49.3164 48.6656 49.5839 48.3309 49.6794L32.5383 55.9995C31.7953 56.2936 31.4187 55.9273 31.6973 55.1792L38.1877 37.7356C38.2435 37.4109 38.4964 37.1557 38.8205 37.0969C39.1447 37.038 39.4711 37.1881 39.6375 37.4725L48.7333 48.0439Z" fill="#556195"/>
<path d="M32.1829 76.6315C32.3273 77.4158 32.0849 77.5086 31.667 76.8431L25.5171 67.3758C25.0861 66.6327 25.1182 65.7087 25.5996 64.9973L28.334 61.3291C28.8139 60.6893 29.3195 60.8131 29.4588 61.5922L32.1829 76.6315Z" fill="#556195"/>
<path d="M30.2543 54.1061C29.9757 54.8542 29.5423 54.8491 29.2895 54.1061L27.2 47.8066C26.9703 46.9706 27.2044 46.0756 27.814 45.4591L35.2795 38.6953C35.8676 38.1793 36.1256 38.3341 35.847 39.0822L30.2543 54.1061Z" fill="#556195"/>
<path d="M28.2825 56.5309C28.5164 57.3913 28.3678 58.3108 27.875 59.0538L25.7338 61.9378C25.254 62.5776 24.9341 62.4538 25.0115 61.6592L26.0331 51.6863C26.1105 50.8918 26.3891 50.8608 26.6367 51.6192L28.2825 56.5309Z" fill="#556195"/>
<path d="M36.7084 34.0726C36.9767 34.377 36.7084 35.0684 36.1151 35.6204L32.7409 38.6489C32.1476 39.1649 32.0547 39.0978 32.5294 38.458L35.3206 34.6763C35.8365 34.0365 36.4453 33.7734 36.7084 34.0726Z" fill="#556195"/>
<path d="M57.8974 87.1515C57.7701 87.4596 57.4748 87.6651 57.1417 87.6774C56.8086 87.6896 56.499 87.5062 56.3496 87.2083L47.5787 74.4338C47.3481 74.1998 47.2865 73.8473 47.4242 73.549C47.5619 73.2506 47.8701 73.0687 48.1979 73.0924L65.8375 71.2712C66.6269 71.1886 66.9468 71.6839 66.5443 72.3753L57.8974 87.1515Z" fill="#556195"/>
<path d="M54.2182 87.1617C54.6723 87.8221 54.4246 88.1471 53.6662 87.8943L37.1564 82.2707C36.4032 82.0127 36.2793 81.3781 36.883 80.857L43.9461 74.7587C44.2223 74.5095 44.5937 74.3935 44.9627 74.4411C45.3316 74.4888 45.6614 74.6952 45.8653 75.0064L54.2182 87.1617Z" fill="#556195"/>
<path d="M66.1931 68.3046C66.7091 68.9082 66.4872 69.4655 65.6772 69.548L47.7744 71.395C47.4378 71.4655 47.0894 71.3474 46.8651 71.0866C46.6408 70.8258 46.5761 70.4637 46.6961 70.1413L51.1744 52.7132C51.3756 51.9445 51.9638 51.8052 52.4797 52.4088L66.1931 68.3046Z" fill="#6ECCE0"/>
<path d="M79.0556 83.2354C79.3148 83.4414 79.4168 83.788 79.3104 84.1016C79.2039 84.4152 78.912 84.6281 78.5809 84.6336L60.3686 88.4618C59.5895 88.6269 59.2799 88.1987 59.6824 87.5073L68.2726 72.8188C68.4192 72.5047 68.7215 72.2921 69.0666 72.2602C69.4117 72.2284 69.7478 72.3821 69.9494 72.664L79.0556 83.2354Z" fill="#556195"/>
<path d="M49.7658 93.0381C48.9906 93.4062 48.0734 93.3001 47.4028 92.7647L38.9312 85.2992C38.3379 84.7832 38.4669 84.5511 39.2201 84.7832L53.6662 89.7C54.4246 89.958 54.4659 90.4791 53.7642 90.8557L49.7658 93.0381Z" fill="#556195"/>
<path d="M69.4023 93.7502C68.7032 94.2611 67.7843 94.3594 66.9929 94.0081L61.1165 91.0106C60.4045 90.6443 60.4612 90.216 61.2403 90.0509L76.9297 86.749C77.7088 86.5839 77.8429 86.8625 77.229 87.3681L69.4023 93.7502Z" fill="#556195"/>
<path d="M52.9702 94.1372C52.1705 94.101 52.0982 93.7605 52.7999 93.3839L55.9574 91.671C56.7718 91.2858 57.7136 91.2745 58.5371 91.6401L63.1495 93.9875C63.8615 94.3487 63.7892 94.6118 62.9947 94.5757L52.9702 94.1372Z" fill="#556195"/>
<path d="M81.9851 86.6407C82.2482 86.9451 81.8922 87.5075 81.1906 87.8841L77.0322 90.1026C76.3254 90.4793 76.2531 90.3709 76.8722 89.8653L80.3806 86.9967C80.9997 86.4911 81.722 86.3312 81.9851 86.6407Z" fill="#556195"/>
<path d="M71.4753 68.1187C70.7324 68.4128 70.2887 68.0258 70.4899 67.2519L74.9011 50.0818C74.9275 49.7536 75.1535 49.4757 75.4693 49.383C75.7852 49.2903 76.1255 49.402 76.3251 49.6639L87.6755 60.2404C87.97 60.4243 88.1224 60.7693 88.0597 61.1108C87.9971 61.4523 87.7323 61.7208 87.3918 61.7882L71.4753 68.1187Z" fill="#404A72"/>
<path d="M88.7292 57.6918C88.8685 58.476 88.5125 58.6772 87.9295 58.1304L77.1414 48.0697C76.8642 47.8216 76.7092 47.4648 76.7171 47.0928C76.725 46.7209 76.8951 46.371 77.1827 46.135L84.2664 40.0315C84.87 39.5156 85.484 39.7271 85.6233 40.5113L88.7292 57.6918Z" fill="#556195"/>
<path d="M81.8147 81.8529C81.7544 82.1761 81.5002 82.428 81.1765 82.4854C80.8528 82.5428 80.5275 82.3936 80.3598 82.1109L71.2588 71.5395C70.9982 71.3012 70.8877 70.9401 70.9703 70.5968C71.0529 70.2534 71.3156 69.9822 71.656 69.8885L87.4641 63.5683C88.2019 63.2742 88.5837 63.6406 88.3051 64.3887L81.8147 81.8529Z" fill="#556195"/>
<path d="M94.476 52.2076C94.906 52.9503 94.876 53.8729 94.3986 54.586L91.6591 58.2543C91.1844 58.894 90.6788 58.7702 90.5343 57.9912L87.8154 42.9518C87.6761 42.1676 87.9134 42.0747 88.3313 42.7403L94.476 52.2076Z" fill="#556195"/>
<path d="M92.8052 71.7766C93.0349 72.6126 92.8008 73.5076 92.1912 74.1241L84.7257 80.888C84.1324 81.4039 83.8796 81.2491 84.1582 80.5062L89.7509 65.4771C90.0243 64.729 90.4577 64.7342 90.7105 65.4771L92.8052 71.7766Z" fill="#556195"/>
<path d="M93.9601 67.897C93.8776 68.6915 93.6041 68.7173 93.3513 67.964L91.7158 63.0524C91.4789 62.1888 91.6275 61.2649 92.1234 60.5192L94.2697 57.6454C94.7443 57.0057 95.0694 57.1295 94.9868 57.924L93.9601 67.897Z" fill="#556195"/>
<path d="M84.6434 84.9072C84.1636 85.5521 83.56 85.8204 83.2917 85.5108C83.0234 85.2012 83.2917 84.515 83.885 83.963L87.2437 80.919C87.8319 80.4031 87.9299 80.4702 87.4552 81.1099L84.6434 84.9072Z" fill="#556195"/>
<path d="M72.4357 45.1496C72.6664 45.3836 72.7279 45.7361 72.5902 46.0345C72.4525 46.3329 72.1444 46.5147 71.8166 46.491L54.1769 48.3123C53.3824 48.3948 53.0625 47.8995 53.465 47.2133L62.1068 32.4319C62.234 32.1238 62.5293 31.9183 62.8624 31.9061C63.1955 31.8939 63.5051 32.0772 63.6546 32.3752L72.4357 45.1496Z" fill="#404A72"/>
<path d="M76.0776 44.8246C75.8013 45.0738 75.43 45.1898 75.061 45.1422C74.692 45.0946 74.3623 44.8881 74.1583 44.577L65.759 32.4217C65.3101 31.7613 65.5577 31.4362 66.311 31.6942L82.8208 37.3075C83.574 37.5655 83.6979 38.2001 83.0942 38.7212L76.0776 44.8246Z" fill="#556195"/>
<path d="M68.8028 66.8703C68.6068 67.6442 68.0186 67.7784 67.4975 67.1747L53.8099 51.2841C53.294 50.6804 53.5107 50.1181 54.3258 50.0355L72.2235 48.1885C72.5609 48.1157 72.9112 48.2329 73.137 48.4941C73.3627 48.7553 73.4279 49.1189 73.3069 49.4422L68.8028 66.8703Z" fill="#556195"/>
<path d="M51.7268 46.7643C51.5825 47.081 51.2797 47.2961 50.9333 47.328C50.5868 47.36 50.2498 47.204 50.05 46.9191L40.949 36.3529C40.6903 36.1475 40.5881 35.8021 40.6932 35.4891C40.7983 35.176 41.0883 34.9623 41.4185 34.9547L59.6308 31.1213C60.415 30.9562 60.7246 31.3845 60.3222 32.0758L51.7268 46.7643Z" fill="#556195"/>
<path d="M66.3061 29.8625C65.5528 29.6045 65.5115 29.0886 66.2132 28.7068L70.2478 26.5502C71.0229 26.1821 71.9401 26.2883 72.6107 26.8237L81.0617 34.2892C81.6602 34.8051 81.5312 35.0373 80.7779 34.8051L66.3061 29.8625Z" fill="#556195"/>
<path d="M43.0957 32.8343C42.3167 32.9994 42.1825 32.7415 42.8016 32.2255L50.5973 25.8332C51.2985 25.3224 52.2187 25.2241 53.0119 25.5752L58.9141 28.5779C59.6261 28.9391 59.5694 29.3673 58.7903 29.5324L43.0957 32.8343Z" fill="#556195"/>
<path d="M64.046 27.9123C63.2316 28.2975 62.2898 28.3088 61.4664 27.9433L56.823 25.5958C56.1523 25.2346 56.2194 24.9715 57.0191 25.0025L67.0333 25.4668C67.8227 25.5184 67.9052 25.8434 67.2035 26.2201L64.046 27.9123Z" fill="#556195"/>
<path d="M39.6229 32.5866C39.0038 33.1025 38.2815 33.2521 38.0183 32.9477C37.7552 32.6433 38.1112 32.0758 38.8129 31.7043L42.9713 29.4807C43.6729 29.104 43.7452 29.2124 43.1312 29.718L39.6229 32.5866Z" fill="#556195"/>
<path d="M34.2877 83.086C34.5921 82.8177 35.2834 83.086 35.8355 83.6741L38.8795 87.0328C39.3954 87.6262 39.3283 87.719 38.6886 87.2444L34.9017 84.4325C34.2413 83.9579 33.973 83.3491 34.2877 83.086Z" fill="#556195"/>
<path d="M86.8455 37.8078C87.1551 37.5395 87.7175 37.9006 88.0889 38.6023L90.3126 42.7607C90.6841 43.4675 90.5809 43.5346 90.0753 42.9207L87.2067 39.4123C86.7011 38.7932 86.5411 38.0709 86.8455 37.8078Z" fill="#556195"/>
<path d="M85.1166 35.1508C85.7564 35.6254 86.0298 36.2342 85.7203 36.4974C85.4107 36.7605 84.7245 36.4974 84.1725 35.9092L81.1285 32.5505C80.6126 31.9572 80.6796 31.8643 81.3194 32.339L85.1166 35.1508Z" fill="#556195"/>
<path d="M32.7975 80.171C33.3134 80.7901 33.463 81.5124 33.1535 81.7755C32.8439 82.0386 32.2867 81.6826 31.9101 80.981L29.6916 76.8226C29.315 76.1157 29.4233 76.0487 29.9289 76.6626L32.7975 80.171Z" fill="#556195"/>
</svg>
