<svg width="120" height="120" viewBox="0 0 120 120" fill="none" xmlns="http://www.w3.org/2000/svg">
<circle cx="60" cy="60" r="60" fill="#EDF0F4"/>
<path d="M41.3873 31.8364C40.1113 33.9843 37.3354 34.6923 35.1875 33.4163C33.0395 32.1404 32.3316 29.3645 33.6075 27.2165C34.8835 25.0686 37.6594 24.3606 39.8073 25.6366C41.9553 26.9125 42.6632 29.6884 41.3873 31.8364Z" fill="#5F45BA"/>
<path d="M25.9434 29.8284C25.0434 31.3443 23.0795 31.8443 21.5636 30.9443C20.0476 30.0443 19.5476 28.0844 20.4476 26.5645C21.3476 25.0445 23.3115 24.5485 24.8274 25.4485C26.3474 26.3525 26.8474 28.3124 25.9434 29.8284Z" fill="#5F45BA"/>
<path d="M68.9338 95.3063C85.5093 93.3584 98.8408 79.8068 99.9288 62.5594C101.153 43.152 86.4093 26.4286 67.0019 25.2086C64.726 25.0646 62.442 25.1446 60.1821 25.4406C55.5183 25.8206 51.5784 27.6005 51.5784 27.6005C48.3865 29.1605 46.3266 31.7684 46.3266 35.2563C46.3266 39.7921 50.0024 43.472 54.5383 43.472C55.2983 43.472 57.9222 42.64 58.5462 42.424C60.9301 41.5921 63.458 41.2481 65.9779 41.4121C72.6817 41.8361 78.3495 45.6919 81.3854 51.1598C83.1454 54.3277 83.9573 57.9315 83.7253 61.5474C83.0654 72.0071 74.0537 79.9548 63.59 79.2948C57.4102 78.9028 52.1104 75.595 48.9385 70.7991V70.8031V70.7991C45.1466 65.8393 46.0226 57.9075 46.0186 57.8075C45.8626 53.3957 42.2507 49.8678 37.8028 49.8678C34.003 49.8678 30.8151 52.4477 29.8671 55.9476C29.6831 56.6356 29.5871 58.6515 29.6151 58.9195C28.8311 77.9909 43.4267 94.2823 62.57 95.4863C64.694 95.6183 66.8219 95.5583 68.9338 95.3063Z" fill="#5F45BA"/>
<path d="M36.6751 44.396C35.0192 47.1839 31.4193 48.0999 28.6354 46.4439C25.8515 44.788 24.9315 41.1881 26.5874 38.4042C28.2434 35.6203 31.8433 34.7003 34.6272 36.3562C37.4111 38.0122 38.3271 41.6121 36.6751 44.396Z" fill="#5F45BA"/>
</svg>
