<svg width="120" height="120" viewBox="0 0 120 120" fill="none" xmlns="http://www.w3.org/2000/svg">
<path d="M60 0C93.1371 0 120 26.8629 120 60C120 93.1371 93.1371 120 60 120C26.8629 120 0 93.1371 0 60C0 26.8629 26.8629 0 60 0Z" fill="#1A82FF"/>
<path d="M81.936 84.7064C76.7417 91.0698 69.4366 94.2515 60.0206 94.2515C50.6046 94.2515 43.2983 91.0698 38.1017 84.7064C32.904 78.3395 30.3063 70.1098 30.3086 60.0172C30.3109 49.9247 32.9075 41.6961 38.0983 35.3315C43.2926 28.9647 50.5989 25.7818 60.0172 25.783C69.4355 25.7841 76.7406 28.967 81.9326 35.3315C87.1269 41.695 89.7246 49.9235 89.7257 60.0172C89.7269 70.111 87.1303 78.3407 81.936 84.7064Z" fill="white"/>
<path d="M59.9108 80.9452C62.3896 80.9452 64.4971 80.2698 66.2331 78.9189C67.9691 77.5681 69.2262 75.7361 70.0045 73.4229C70.7816 71.1087 71.3302 68.8904 71.6502 66.7681C71.9702 64.6458 72.1291 62.3955 72.1268 60.0172C72.1268 57.0892 71.9496 54.4687 71.5953 52.1555L50.2388 74.4104C52.2136 78.7647 55.4376 80.9429 59.9108 80.9452Z" fill="#1A82FF"/>
<path d="M60.1233 39.0891C57.6444 39.0891 55.537 39.7645 53.801 41.1154C52.065 42.4663 50.8078 44.2983 50.0295 46.6114C49.2478 48.9257 48.6993 51.144 48.3838 53.2663C48.0638 55.3885 47.905 57.6388 47.9073 60.0171C47.9073 61.584 47.9575 63.0628 48.0581 64.4537L68.4273 43.2308C66.449 40.4708 63.681 39.0903 60.1233 39.0891Z" fill="#1A82FF"/>
<path fill-rule="evenodd" clip-rule="evenodd" d="M66.8195 57.0822L69.4424 59.5988L89.3315 38.8662L86.7086 36.3496L66.8195 57.0822ZM29.3452 78.7165L31.9681 81.233L51.8572 60.5005L49.2344 57.9839L29.3452 78.7165Z" fill="#1A82FF"/>
</svg>
