<svg width="120" height="120" viewBox="0 0 120 120" fill="none" xmlns="http://www.w3.org/2000/svg">
<rect width="120" height="120" rx="60" fill="#EDF0F4"/>
<path d="M98.7213 33.9802C97.8447 30.6049 95.0276 27.2297 89.9567 23.4724C85.887 20.4792 81.5673 18.7598 78.1241 18.7598C77.4353 18.7598 76.8092 18.8234 76.1832 18.9508C74.6182 19.2692 73.2406 20.4155 72.3644 22.135C71.3001 24.1729 71.0495 26.9113 71.7383 28.567C71.9884 29.0765 72.3017 29.7134 72.6772 30.2865C69.3591 32.3244 67.4809 32.8975 67.2304 32.9612C75.8703 35.8907 83.0699 42.0043 87.5775 49.9648L87.6402 49.2006C87.828 47.099 88.454 44.679 89.3306 42.1953C90.2068 42.4501 91.0834 42.5775 91.96 42.5775C94.2765 42.5775 96.2797 41.6222 97.5319 39.9027C98.784 38.1833 99.2846 35.8907 98.7213 33.9802Z" fill="#5E12A0"/>
<path d="M89.7057 40.3496C95.4026 41.9417 97.7192 37.4838 96.9676 34.4907C96.1538 31.4975 93.5244 28.4407 88.8914 25.0018C84.2588 21.5629 79.5635 20.1619 76.5582 20.7987C73.5533 21.4355 72.6767 26.0844 73.4279 27.8676C73.7411 28.5681 74.4295 29.587 75.3688 30.7333C74.1794 31.5612 73.0523 32.1981 72.1134 32.7712C77.8731 35.3822 82.8816 39.458 86.6377 44.5527C87.076 42.8332 87.702 41.3048 88.2658 39.9675C88.7037 40.0311 89.2047 40.1585 89.7057 40.3496Z" fill="url(#paint0_radial_411_527)"/>
<path d="M57.0876 102.758C76.4155 102.758 92.0841 86.82 92.0841 67.1593C92.0841 47.4983 76.4155 31.5601 57.0876 31.5601C37.7595 31.5601 22.091 47.4983 22.091 67.1593C22.091 86.82 37.7595 102.758 57.0876 102.758Z" fill="url(#paint1_radial_411_527)"/>
<path opacity="0.6" d="M94.0882 31.5593C89.3302 26.4646 85.3233 25.1273 80.5029 24.0447C76.7465 23.1531 77.7481 20.9878 82.3184 21.4336C80.1273 20.6694 78.0614 20.4784 76.5587 20.7968C73.5534 21.4336 72.6772 26.0825 73.4284 27.8657C73.7412 28.5662 74.43 29.5851 75.3693 30.7314C73.6789 31.8777 72.239 32.7056 71.0491 33.3425C71.6129 33.5972 72.3013 33.9156 73.1151 34.3614C75.2438 35.5077 77.5603 37.4182 77.5603 37.4182C74.0544 34.3614 74.8056 32.9604 79.6263 29.5214C81.129 28.4388 83.8834 28.5662 86.4504 29.9036C89.0174 31.2409 92.0223 34.6161 92.0223 34.6161L89.1424 40.2203C89.3302 40.284 89.518 40.3476 89.7058 40.4114C91.5212 40.9208 92.9612 40.7934 94.0882 40.3477C95.4031 39.5198 98.8463 36.7177 94.0882 31.5593Z" fill="#A98698"/>
<path d="M80.4397 27.1022C81.6918 27.6117 83.3195 28.5033 85.3232 29.8407C87.702 31.4327 89.768 33.2159 91.0829 34.6169C88.8914 37.5463 87.4515 41.5584 86.5753 44.3605C87.0136 44.9973 87.5142 45.6342 87.9525 46.271C88.3908 44.6789 89.1419 42.3226 90.1436 39.9663C90.3941 40.03 90.7073 40.03 91.0201 40.03C91.7713 40.03 92.6478 39.9027 93.3366 39.3295C93.8373 38.9474 94.401 38.2469 94.3383 36.9732C94.3383 35.7632 93.3994 34.2348 91.4584 32.388C90.0812 31.0506 88.203 29.5859 86.3248 28.2485C80.9407 24.6186 77.1843 23.5996 75.4938 25.3191C74.3672 26.4654 74.4922 27.8665 74.8678 28.8854C72.8645 30.2227 71.1741 31.178 70.0474 31.8148C70.7985 32.0696 71.4873 32.388 72.2384 32.7064C74.2417 31.6238 77.1215 29.7769 80.4397 27.1022ZM92.2723 36.209C92.4601 36.5274 92.5228 36.8458 92.5228 37.0369C92.5228 37.6101 92.335 37.8011 92.2096 37.9285C91.9595 38.1195 91.4584 38.2469 91.0201 38.2469C91.3957 37.4827 91.834 36.8458 92.2723 36.209ZM76.8087 26.7202C76.9965 26.5291 77.4975 26.4017 78.3114 26.5291C77.6853 27.0386 77.0592 27.4843 76.4331 27.9301C76.3704 27.4843 76.4332 27.0386 76.8087 26.7202Z" fill="#5E12A0"/>
<path d="M57.0882 29.458C36.616 29.458 20.0255 46.3342 20.0255 67.1588C20.0255 87.9831 36.616 104.86 57.0882 104.86C77.5603 104.86 94.1505 87.9831 94.1505 67.1588C94.1505 46.3342 77.4976 29.458 57.0882 29.458ZM57.0882 102.758C37.743 102.758 22.0915 86.8372 22.0915 67.1588C22.0915 47.4805 37.743 31.5595 57.0882 31.5595C76.4332 31.5595 92.085 47.4805 92.085 67.1588C92.085 86.8372 76.3709 102.758 57.0882 102.758Z" fill="#5E12A0"/>
<path opacity="0.6" d="M57.0876 102.758C76.4155 102.758 92.0841 86.82 92.0841 67.1593C92.0841 47.4983 76.4155 31.5601 57.0876 31.5601C37.7595 31.5601 22.091 47.4983 22.091 67.1593C22.091 86.82 37.7595 102.758 57.0876 102.758Z" fill="url(#paint2_linear_411_527)"/>
<path opacity="0.6" d="M56.8376 98.4288C37.7428 95.3083 24.7834 77.0309 27.9136 57.6076C29.291 49.0102 33.5482 41.6866 39.5583 36.4009C30.7935 41.5593 24.2825 50.5387 22.5295 61.4923C19.4618 80.9157 32.4212 99.1931 51.4534 102.314C62.0964 104.097 72.3636 100.722 79.9392 94.0984C73.2402 98.0467 65.1017 99.7663 56.8376 98.4288Z" fill="#A98698"/>
<path opacity="0.6" d="M62.6601 32.0693C53.8325 30.6045 45.2555 32.6424 38.2437 37.164C38.1184 37.2913 37.9932 37.4187 37.9932 37.4187C40.6853 35.7629 44.6295 34.2982 44.6295 34.2982C34.4873 40.2844 31.3571 47.0986 31.3571 47.0986C35.3012 39.3292 46.8833 33.8524 55.9611 33.4703C65.0389 33.0882 70.9863 35.8266 78.2487 41.7492C85.511 47.7354 89.8935 59.9625 89.4552 69.6426C89.0797 79.3228 84.0711 87.1558 84.0711 87.1558C87.5143 82.6339 89.5803 79.3228 90.8951 75.9472C91.1456 74.9284 91.3962 73.9095 91.5212 72.8267C94.6516 53.467 81.7546 35.1897 62.6601 32.0693Z" fill="url(#paint3_linear_411_527)"/>
<path d="M90.331 66.8386C90.331 85.4977 75.4308 100.655 57.0875 100.655C38.744 100.655 23.7812 85.4977 23.7812 66.8386H90.331Z" fill="url(#paint4_linear_411_527)"/>
<g opacity="0.6">
<path opacity="0.6" d="M87.7017 66.8386C87.7017 85.052 73.553 99.9539 55.7729 100.655C56.2111 100.655 56.6494 100.655 57.0876 100.655C75.4312 100.655 90.3314 85.4977 90.3314 66.8386H87.7017Z" fill="url(#paint5_linear_411_527)"/>
</g>
<g opacity="0.7">
<path opacity="0.7" d="M28.4766 66.8386H23.7812C23.7812 85.4977 38.6814 100.655 57.0248 100.655C57.8387 100.655 58.5899 100.655 59.3412 100.591C42.1247 99.3172 28.4766 84.6699 28.4766 66.8386Z" fill="url(#paint6_linear_411_527)"/>
</g>
<path d="M90.2686 67.1584C90.2686 63.2737 83.6324 61.0445 74.8047 60.2807C68.4189 59.771 61.9709 60.4078 54.5832 62.7005C48.1974 64.6111 42.4377 64.2925 38.2431 63.7829C28.9148 62.7005 23.7812 62.573 23.7812 67.1584C23.7812 73.7815 37.0536 82.0603 56.9622 79.1944C67.0417 77.7298 72.2381 74.7368 78.1855 72.6987C84.634 70.5335 90.2686 70.5971 90.2686 67.1584Z" fill="url(#paint7_linear_411_527)"/>
<path d="M67.9815 51.111C71.0934 51.111 73.6157 48.5449 73.6157 45.3795C73.6157 42.2141 71.0934 39.6479 67.9815 39.6479C64.8696 39.6479 62.3469 42.2141 62.3469 45.3795C62.3469 48.5449 64.8696 51.111 67.9815 51.111Z" fill="white"/>
<path d="M77.1843 55.3785C78.4983 55.3785 79.5635 54.2951 79.5635 52.9586C79.5635 51.622 78.4983 50.5386 77.1843 50.5386C75.8706 50.5386 74.8055 51.622 74.8055 52.9586C74.8055 54.2951 75.8706 55.3785 77.1843 55.3785Z" fill="white"/>
<g opacity="0.6">
<path opacity="0.6" d="M85.6996 40.7963C85.6369 40.7963 85.5745 40.7963 85.5745 40.7963C85.1986 40.7326 84.9485 40.3505 85.0108 39.9047C85.5745 36.9752 87.9534 34.1732 88.0788 34.0458C88.3289 33.7274 88.83 33.7274 89.0805 33.9821C89.3933 34.2368 89.3933 34.7463 89.1428 35.001C89.0805 35.0647 86.889 37.6757 86.3884 40.2231C86.3257 40.6052 86.0128 40.7963 85.6996 40.7963Z" fill="url(#paint8_linear_411_527)"/>
</g>
<path opacity="0.2" d="M54.7822 93.7153C55.7503 93.7153 56.5351 92.9171 56.5351 91.9323C56.5351 90.9474 55.7503 90.1492 54.7822 90.1492C53.814 90.1492 53.0292 90.9474 53.0292 91.9323C53.0292 92.9171 53.814 93.7153 54.7822 93.7153Z" fill="white"/>
<g opacity="0.4">
<path opacity="0.6" d="M53.7701 93.0951C53.0814 92.3945 53.0814 91.2485 53.7701 90.5478C53.8953 90.4203 54.0205 90.3568 54.1457 90.2292C53.8953 90.2932 53.7075 90.4203 53.5197 90.6114C52.831 91.3121 52.831 92.4584 53.5197 93.1587C54.0831 93.7319 54.9596 93.8594 55.6482 93.4773C55.0222 93.7319 54.2709 93.6048 53.7701 93.0951Z" fill="url(#paint9_linear_411_527)"/>
</g>
<path opacity="0.3" d="M55.3978 91.422C55.6053 91.422 55.7734 91.251 55.7734 91.0398C55.7734 90.8287 55.6053 90.6577 55.3978 90.6577C55.1903 90.6577 55.0222 90.8287 55.0222 91.0398C55.0222 91.251 55.1903 91.422 55.3978 91.422Z" fill="white"/>
<path opacity="0.2" d="M63.9229 92.8229C64.8913 92.8229 65.6761 92.0243 65.6761 91.0394C65.6761 90.0546 64.8913 89.2563 63.9229 89.2563C62.9549 89.2563 62.1702 90.0546 62.1702 91.0394C62.1702 92.0243 62.9549 92.8229 63.9229 92.8229Z" fill="white"/>
<g opacity="0.4">
<path opacity="0.6" d="M62.911 92.1984C62.2222 91.4977 62.2222 90.3514 62.911 89.6507C63.036 89.5236 63.1615 89.4596 63.2866 89.3325C63.0361 89.3961 62.8483 89.5236 62.6605 89.7146C61.9721 90.4149 61.9721 91.5613 62.6605 92.262C63.2242 92.8351 64.1004 92.9622 64.7892 92.5801C64.1631 92.8351 63.412 92.7076 62.911 92.1984Z" fill="url(#paint10_linear_411_527)"/>
</g>
<path opacity="0.3" d="M64.5387 90.529C64.7462 90.529 64.9143 90.358 64.9143 90.1469C64.9143 89.9361 64.7462 89.7651 64.5387 89.7651C64.3312 89.7651 64.1631 89.9361 64.1631 90.1469C64.1631 90.358 64.3312 90.529 64.5387 90.529Z" fill="white"/>
<path opacity="0.2" d="M59.4039 96.964C60.13 96.964 60.7187 96.3654 60.7187 95.627C60.7187 94.8882 60.13 94.2896 59.4039 94.2896C58.6778 94.2896 58.0892 94.8882 58.0892 95.627C58.0892 96.3654 58.6778 96.964 59.4039 96.964Z" fill="white"/>
<g opacity="0.4">
<path opacity="0.6" d="M58.6525 96.4669C58.1517 95.9573 58.1517 95.0659 58.6525 94.5563C58.7151 94.4927 58.8404 94.4292 58.903 94.3652C58.7151 94.4292 58.5899 94.5563 58.4647 94.6838C57.9639 95.193 57.9639 96.0848 58.4647 96.5944C58.903 97.0401 59.529 97.1036 60.0926 96.7855C59.5916 96.9765 59.0282 96.849 58.6525 96.4669Z" fill="url(#paint11_linear_411_527)"/>
</g>
<path opacity="0.3" d="M59.842 95.1793C59.9803 95.1793 60.0922 95.0653 60.0922 94.9247C60.0922 94.7841 59.9803 94.6697 59.842 94.6697C59.7037 94.6697 59.5916 94.7841 59.5916 94.9247C59.5916 95.0653 59.7037 95.1793 59.842 95.1793Z" fill="white"/>
<path opacity="0.2" d="M67.4801 96.0069C68.2062 96.0069 68.7949 95.4083 68.7949 94.6699C68.7949 93.9311 68.2062 93.3325 67.4801 93.3325C66.7544 93.3325 66.1656 93.9311 66.1656 94.6699C66.1656 95.4083 66.7544 96.0069 67.4801 96.0069Z" fill="white"/>
<g opacity="0.4">
<path opacity="0.6" d="M66.7289 95.5101C66.2283 95.0005 66.2283 94.1091 66.7289 93.5995C66.7917 93.536 66.9167 93.4724 66.9794 93.4084C66.7917 93.4724 66.6662 93.5995 66.5412 93.727C66.0401 94.2362 66.0401 95.128 66.5412 95.6376C66.9794 96.0833 67.6055 96.1468 68.1689 95.8287C67.6682 96.0197 67.1045 95.8922 66.7289 95.5101Z" fill="url(#paint12_linear_411_527)"/>
</g>
<path opacity="0.3" d="M67.9183 94.2262C68.0569 94.2262 68.1688 94.1122 68.1688 93.9712C68.1688 93.8305 68.0569 93.7166 67.9183 93.7166C67.7801 93.7166 67.6678 93.8305 67.6678 93.9712C67.6678 94.1122 67.7801 94.2262 67.9183 94.2262Z" fill="white"/>
<path opacity="0.2" d="M47.3212 93.0774C48.9117 93.0774 50.2011 91.7658 50.2011 90.148C50.2011 88.5301 48.9117 87.2185 47.3212 87.2185C45.7307 87.2185 44.4413 88.5301 44.4413 90.148C44.4413 91.7658 45.7307 93.0774 47.3212 93.0774Z" fill="white"/>
<g opacity="0.4">
<path opacity="0.6" d="M45.6952 91.9958C44.5683 90.8495 44.5683 89.0024 45.6952 87.8565C45.883 87.6654 46.0708 87.5379 46.3212 87.4104C45.9456 87.5379 45.6326 87.7925 45.3196 88.0475C44.1926 89.1935 44.1926 91.0405 45.3196 92.1869C46.2586 93.1422 47.6986 93.3333 48.8255 92.6326C47.7612 93.0782 46.5091 92.8872 45.6952 91.9958Z" fill="url(#paint13_linear_411_527)"/>
</g>
<path opacity="0.3" d="M48.3236 89.2566C48.6693 89.2566 48.9496 88.9717 48.9496 88.6199C48.9496 88.2681 48.6693 87.9832 48.3236 87.9832C47.9778 87.9832 47.6975 88.2681 47.6975 88.6199C47.6975 88.9717 47.9778 89.2566 48.3236 89.2566Z" fill="white"/>
<path opacity="0.2" d="M73.0622 85.8823C74.653 85.8823 75.942 84.5707 75.942 82.9529C75.942 81.335 74.653 80.0234 73.0622 80.0234C71.4718 80.0234 70.1824 81.335 70.1824 82.9529C70.1824 84.5707 71.4718 85.8823 73.0622 85.8823Z" fill="white"/>
<g opacity="0.4">
<path opacity="0.6" d="M71.3623 84.801C70.2352 83.6546 70.2352 81.808 71.3623 80.6617C71.5501 80.4706 71.7379 80.3431 71.9884 80.2156C71.6124 80.3431 71.2996 80.5977 70.9868 80.8527C69.8597 81.9991 69.8597 83.8457 70.9868 84.9921C71.9257 85.9474 73.3656 86.1384 74.4927 85.4377C73.4283 85.8838 72.2385 85.6928 71.3623 84.801Z" fill="url(#paint14_linear_411_527)"/>
</g>
<path opacity="0.3" d="M74.0539 82.062C74.4 82.062 74.68 81.7766 74.68 81.4248C74.68 81.073 74.4 80.7881 74.0539 80.7881C73.7083 80.7881 73.4279 81.073 73.4279 81.4248C73.4279 81.7766 73.7083 82.062 74.0539 82.062Z" fill="white"/>
<defs>
<radialGradient id="paint0_radial_411_527" cx="0" cy="0" r="1" gradientUnits="userSpaceOnUse" gradientTransform="translate(95.8258 30.4786) scale(27.9813 28.4631)">
<stop stop-color="#FFEAFF" stop-opacity="0.6"/>
<stop offset="0.6807" stop-color="#A087C9"/>
<stop offset="1" stop-color="#10002F"/>
</radialGradient>
<radialGradient id="paint1_radial_411_527" cx="0" cy="0" r="1" gradientUnits="userSpaceOnUse" gradientTransform="translate(88.5011 60.8371) scale(78.3653 84.7802)">
<stop stop-color="#FFEAFF" stop-opacity="0.6"/>
<stop offset="0.6807" stop-color="#A087C9"/>
<stop offset="1" stop-color="#10002F"/>
</radialGradient>
<linearGradient id="paint2_linear_411_527" x1="51.4739" y1="102.254" x2="63.0463" y2="32.0685" gradientUnits="userSpaceOnUse">
<stop stop-color="#81FFFF"/>
<stop offset="0.6202" stop-color="white" stop-opacity="0"/>
</linearGradient>
<linearGradient id="paint3_linear_411_527" x1="81.7517" y1="42.9825" x2="52.3618" y2="69.4922" gradientUnits="userSpaceOnUse">
<stop offset="0.2888" stop-color="white"/>
<stop offset="0.7796" stop-color="white" stop-opacity="0"/>
</linearGradient>
<linearGradient id="paint4_linear_411_527" x1="23.8094" y1="83.7265" x2="90.3151" y2="83.7265" gradientUnits="userSpaceOnUse">
<stop stop-color="#0002E9"/>
<stop offset="0.9952" stop-color="#FF00C7"/>
</linearGradient>
<linearGradient id="paint5_linear_411_527" x1="93.4634" y1="69.8058" x2="56.6822" y2="103.978" gradientUnits="userSpaceOnUse">
<stop offset="0.2888" stop-color="white"/>
<stop offset="0.7796" stop-color="white" stop-opacity="0"/>
</linearGradient>
<linearGradient id="paint6_linear_411_527" x1="23.8094" y1="83.7265" x2="59.3895" y2="83.7265" gradientUnits="userSpaceOnUse">
<stop stop-color="#000292"/>
<stop offset="0.9952" stop-color="#7D00C7"/>
</linearGradient>
<linearGradient id="paint7_linear_411_527" x1="23.854" y1="69.9677" x2="90.2703" y2="69.9677" gradientUnits="userSpaceOnUse">
<stop stop-color="#000292"/>
<stop offset="0.9952" stop-color="#BE00C7"/>
</linearGradient>
<linearGradient id="paint8_linear_411_527" x1="89.1821" y1="33.7356" x2="84.2892" y2="41.5515" gradientUnits="userSpaceOnUse">
<stop offset="0.2888" stop-color="white"/>
<stop offset="0.7796" stop-color="white" stop-opacity="0"/>
</linearGradient>
<linearGradient id="paint9_linear_411_527" x1="53.0014" y1="92.0033" x2="55.6502" y2="92.0033" gradientUnits="userSpaceOnUse">
<stop offset="0.2888" stop-color="white"/>
<stop offset="0.7796" stop-color="white" stop-opacity="0"/>
</linearGradient>
<linearGradient id="paint10_linear_411_527" x1="62.1361" y1="91.0943" x2="64.7847" y2="91.0943" gradientUnits="userSpaceOnUse">
<stop offset="0.2888" stop-color="white"/>
<stop offset="0.7796" stop-color="white" stop-opacity="0"/>
</linearGradient>
<linearGradient id="paint11_linear_411_527" x1="58.0539" y1="95.6518" x2="60.0426" y2="95.6518" gradientUnits="userSpaceOnUse">
<stop offset="0.2888" stop-color="white"/>
<stop offset="0.7796" stop-color="white" stop-opacity="0"/>
</linearGradient>
<linearGradient id="paint12_linear_411_527" x1="66.1303" y1="94.695" x2="68.1188" y2="94.695" gradientUnits="userSpaceOnUse">
<stop offset="0.2888" stop-color="white"/>
<stop offset="0.7796" stop-color="white" stop-opacity="0"/>
</linearGradient>
<linearGradient id="paint13_linear_411_527" x1="44.4456" y1="90.2238" x2="48.7713" y2="90.2238" gradientUnits="userSpaceOnUse">
<stop offset="0.2888" stop-color="white"/>
<stop offset="0.7796" stop-color="white" stop-opacity="0"/>
</linearGradient>
<linearGradient id="paint14_linear_411_527" x1="70.1368" y1="83.0265" x2="74.4623" y2="83.0265" gradientUnits="userSpaceOnUse">
<stop offset="0.2888" stop-color="white"/>
<stop offset="0.7796" stop-color="white" stop-opacity="0"/>
</linearGradient>
</defs>
</svg>
