<svg width="120" height="120" viewBox="0 0 120 120" fill="none" xmlns="http://www.w3.org/2000/svg">
<circle cx="60" cy="60" r="60" fill="#EDF0F4"/>
<circle cx="60.2945" cy="94.1177" r="5.88237" fill="#2261F6"/>
<circle cx="60.2945" cy="25.8824" r="5.88237" fill="#2261F6"/>
<circle cx="60.2938" cy="43.1373" r="4.7059" fill="#2261F6"/>
<circle cx="43.8231" cy="34.5099" r="4.7059" fill="#2261F6"/>
<circle cx="43.8231" cy="85.8827" r="4.7059" fill="#2261F6"/>
<circle cx="75.0008" cy="51.9608" r="4.7059" fill="#2261F6"/>
<circle cx="75.0008" cy="68.2357" r="4.7059" fill="#2261F6"/>
<circle cx="60.2938" cy="76.8631" r="4.7059" fill="#2261F6"/>
<circle cx="60.2939" cy="59.9997" r="3.7255" fill="#2261F6"/>
<circle cx="43.8232" cy="68.4318" r="3.7255" fill="#2261F6"/>
<circle cx="43.8232" cy="51.9606" r="3.7255" fill="#2261F6"/>
<circle cx="27.7451" cy="43.1374" r="2.74511" fill="#2261F6"/>
<circle cx="27.7451" cy="60" r="2.74511" fill="#2261F6"/>
<circle cx="27.7451" cy="76.8623" r="2.74511" fill="#2261F6"/>
<circle cx="74.9996" cy="34.5105" r="5.88237" fill="#2261F6"/>
<circle cx="74.9996" cy="85.6863" r="5.88237" fill="#2261F6"/>
<circle cx="89.7066" cy="43.137" r="5.88237" fill="#2261F6"/>
<circle cx="89.7066" cy="76.8631" r="5.88237" fill="#2261F6"/>
<circle cx="89.7066" cy="59.9996" r="5.88237" fill="#2261F6"/>
</svg>
