<svg width="120" height="120" viewBox="0 0 120 120" fill="none" xmlns="http://www.w3.org/2000/svg">
<rect width="120" height="120" rx="60" fill="#EDF0F4"/>
<path fill-rule="evenodd" clip-rule="evenodd" d="M79.2842 27.5041L95.0956 25.0218C96.2288 24.8599 97.3081 25.6154 97.47 26.7487V84.436C97.47 85.4613 96.7145 86.3247 95.6892 86.4866L79.8778 88.969C78.7446 89.1308 77.6653 88.3754 77.5034 87.2421V29.5548C77.5034 28.5295 78.2589 27.666 79.2842 27.5041ZM70.1104 44.179V90.7498C70.1104 91.6132 70.0564 91.883 69.8945 92.2068C69.7326 92.5306 69.5168 92.8004 69.247 92.9623C68.9771 93.1781 68.6533 93.2861 67.8439 93.394L52.5721 95.7684C51.4389 95.9303 50.3596 95.1748 50.1977 94.0416V47.5247C50.1977 46.6613 50.2517 46.3915 50.4136 46.0677C50.5755 45.7439 50.7913 45.4741 51.0612 45.3122C51.331 45.1503 51.6548 44.9884 52.4642 44.8805L67.736 42.5061C68.8692 42.2363 69.8945 42.9918 70.1104 44.179ZM42.9666 34.5194V83.6265C42.9666 84.49 42.9126 84.7598 42.7507 85.0836C42.5888 85.4073 42.373 85.6772 42.1032 85.8391C41.8334 86.0549 41.5096 86.1628 40.7001 86.2708L25.3744 88.6991C24.2412 88.861 23.1619 88.1055 23 86.9723V37.8652C23 37.0018 23.054 36.732 23.2159 36.4082C23.3777 36.0844 23.5936 35.8146 23.8634 35.6527C24.1332 35.4368 24.457 35.3289 25.2665 35.221L40.5382 32.8466C41.7254 32.5768 42.7507 33.3862 42.9666 34.5194Z" fill="url(#paint0_radial_409_418)"/>
<defs>
<radialGradient id="paint0_radial_409_418" cx="0" cy="0" r="1" gradientUnits="userSpaceOnUse" gradientTransform="translate(89.7549 26.3288) rotate(139.215) scale(163.981 163.981)">
<stop stop-color="#32C5FF"/>
<stop offset="0.513" stop-color="#B620E0"/>
<stop offset="1" stop-color="#F7B500"/>
</radialGradient>
</defs>
</svg>
