<svg width="120" height="120" viewBox="0 0 120 120" fill="none" xmlns="http://www.w3.org/2000/svg">
<path fill-rule="evenodd" clip-rule="evenodd" d="M60 120C27 120 0 93.0006 0 59.7012C0.3 26.7019 27 -0.297518 60.3 0.00247602C93.3 0.30247 120 27.0019 120 60.6012C119.7 93.3006 93 120 60 120Z" fill="black"/>
<path fill-rule="evenodd" clip-rule="evenodd" d="M36.2102 31.2847C36.0287 31.3129 35.8253 31.4386 35.7581 31.5637C35.6255 31.8115 35.5736 100.007 35.7059 100.351C35.8472 100.72 36.2489 100.74 43.9649 100.774C50.849 100.805 51.7826 100.787 52.0349 100.622L52.3202 100.435V88.432V76.4293L52.5977 76.1518L52.8752 75.8743L59.3477 75.8092C66.0668 75.7417 68.5109 75.577 70.6202 75.0493C71.0162 74.9503 71.7659 74.7907 72.2861 74.6947C72.8066 74.5984 73.4069 74.4118 73.6205 74.2801C73.8338 74.1481 74.0972 74.0401 74.2055 74.0401C74.6564 74.0401 78.6032 72.175 79.3004 71.6326C79.4762 71.4958 80.0195 71.0917 80.5073 70.735C82.2647 69.4495 85.8002 65.5162 85.8002 64.8463C85.8002 64.8082 85.901 64.6339 86.0246 64.4587C86.1479 64.2835 86.2874 64.0051 86.3345 63.8401C86.3816 63.6751 86.5448 63.2701 86.6975 62.9401C87.4394 61.3357 87.6002 60.9343 87.6008 60.6874C87.6011 60.5404 87.7346 60.0421 87.8975 59.5801C88.8413 56.9056 88.7645 50.4682 87.7454 46.8001C87.2402 44.9827 86.0207 42.1615 85.4087 41.3947C85.2611 41.2099 84.8432 40.6408 84.4802 40.1302C84.1172 39.6196 83.4962 38.8528 83.1002 38.4265C81.0116 36.1777 77.2685 33.8398 74.5046 33.0583C74.1989 32.9719 73.7768 32.812 73.5662 32.7031C73.3559 32.5945 72.7688 32.4268 72.2618 32.3308C71.7551 32.2345 71.0963 32.0758 70.7981 31.9777C70.4999 31.8796 69.6629 31.7428 68.9381 31.6738C68.2133 31.6045 67.1342 31.4875 66.5402 31.4137C65.4971 31.2838 36.9944 31.1626 36.2102 31.2847ZM65.3189 45.0658C70.5695 46.2628 73.1801 52.2145 70.8458 57.6667C69.1247 61.6861 66.8765 62.5201 57.7625 62.5201H52.8176L52.5665 62.2009C52.2458 61.7929 52.2251 45.3439 52.5449 44.9584C52.8611 44.5777 63.5723 44.6677 65.3189 45.0658Z" fill="#F8F8F8"/>
<path fill-rule="evenodd" clip-rule="evenodd" d="M36.4101 13.6769C36.2727 13.7321 36.0162 13.9484 35.8401 14.1578L35.52 14.5382V19.0214C35.52 23.9072 35.5362 24.0386 36.1755 24.3056C36.7548 24.5477 87.1665 24.5528 87.84 24.3107C88.5531 24.0545 88.5564 24.0314 88.5582 19.0439C88.5603 14.0558 88.5453 13.9436 87.8457 13.7C87.4038 13.5458 36.7926 13.523 36.4101 13.6769Z" fill="#DE0B14"/>
</svg>
