<svg width="120" height="120" viewBox="0 0 120 120" fill="none" xmlns="http://www.w3.org/2000/svg">
<circle cx="60" cy="60" r="60" fill="black"/>
<path fill-rule="evenodd" clip-rule="evenodd" d="M56.4307 66.4479C56.1526 66.0881 55.8623 65.7079 55.5761 65.3072C55.2572 64.8574 55.1468 64.424 55.2449 63.9702C55.4575 62.9807 56.6392 62.1139 57.0767 61.8645L56.537 60.8914C56.4552 60.9363 54.5335 62.0444 54.1696 63.7248C54.002 64.4935 54.1737 65.2458 54.6807 65.9573C54.9751 66.3702 55.2736 66.7587 55.5598 67.1307C56.9867 68.9911 57.6327 69.9397 56.7537 71.1213C56.3775 71.6242 55.9441 71.9513 55.4821 72.2948C54.3372 73.1534 53.1515 74.0407 53.5522 77.3443L54.6439 77.2094C54.3209 74.5477 55.0814 73.9793 56.1363 73.1902C56.6187 72.8304 57.1625 72.4215 57.6368 71.7878C59.0638 69.8743 57.784 68.2102 56.4307 66.4479Z" fill="#DEC685"/>
<path fill-rule="evenodd" clip-rule="evenodd" d="M56.4671 61.1611C55.9724 61.476 54.6476 62.4327 54.3573 63.7657C54.202 64.4771 54.3614 65.1763 54.8398 65.8427C55.1342 66.2557 55.4286 66.64 55.7107 67.008C57.1581 68.897 57.8695 69.9396 56.9087 71.2316C56.5162 71.7591 56.0705 72.0903 55.5962 72.446C54.4677 73.2924 53.4006 74.0897 53.7195 77.1235L54.4268 77.0335C54.1529 74.4249 54.9747 73.8075 56.0133 73.0307C56.4875 72.675 57.0191 72.2784 57.477 71.6691C58.8181 69.8701 57.6406 68.3368 56.2749 66.5582C55.9969 66.1943 55.7025 65.8141 55.4163 65.4093C55.0606 64.9105 54.942 64.4239 55.0524 63.9169C55.2609 62.9643 56.279 62.1343 56.8146 61.7867L56.4671 61.1611ZM53.3801 77.561L53.3556 77.3688C52.9385 73.9506 54.2265 72.9898 55.3591 72.1393C55.8088 71.8041 56.2381 71.4811 56.5939 71.0027C57.3584 69.9764 56.9005 69.2036 55.4 67.2492C55.0974 66.8608 54.803 66.4683 54.5168 66.0717C53.9771 65.3153 53.7931 64.5098 53.973 63.6839C54.3451 61.9707 56.2177 60.8463 56.4344 60.7236L56.6061 60.6255L57.3339 61.938L57.1704 62.032C56.7819 62.2528 55.6289 63.091 55.4327 64.011C55.3468 64.4035 55.4449 64.7919 55.7311 65.1967C56.0173 65.5974 56.3036 65.9736 56.5816 66.3334C57.9186 68.0752 59.3006 69.8783 57.7878 71.9104C57.2971 72.5646 56.7411 72.9816 56.2504 73.3496C55.2119 74.1265 54.525 74.6416 54.8357 77.1889L54.8602 77.3811L53.3801 77.561ZM43.2401 43.1381C37.5445 42.9132 36.2075 45.0639 36.089 46.912C36.0358 47.7461 36.0971 48.6742 36.1666 49.6596C36.3138 51.8184 36.4651 54.055 35.3366 55.1834C34.6743 55.8458 33.5948 56.1075 32.037 55.9848L31.9512 57.097C32.2251 57.1174 32.4868 57.1297 32.7403 57.1297C34.2286 57.1297 35.3366 56.7494 36.1094 55.9767C37.5977 54.4884 37.4219 51.8838 37.2665 49.586C37.2011 48.6415 37.1438 47.7502 37.1888 46.9856C37.3156 45.0189 39.3354 44.0948 43.1992 44.2543L43.2401 43.1381Z" fill="#DEC685"/>
<path fill-rule="evenodd" clip-rule="evenodd" d="M32.1551 56.9213C33.8929 57.0276 35.1358 56.6759 35.9699 55.8418C37.3928 54.4149 37.2211 51.8553 37.0698 49.5984C37.0044 48.6498 36.9471 47.7544 36.9921 46.9734C37.1229 44.9127 39.1468 43.9314 43.0107 44.0541L43.0393 43.3263C38.7666 43.1913 36.436 44.4384 36.2807 46.9243C36.2275 47.7544 36.2888 48.6702 36.3583 49.6433C36.5055 51.8472 36.6609 54.1287 35.4711 55.3185C34.7965 55.9931 33.7334 56.2793 32.2165 56.1894L32.1551 56.9213ZM32.7398 57.3219C32.4822 57.3219 32.2165 57.3138 31.9344 57.2892L31.7422 57.2729L31.8567 55.7764L32.0488 55.7928C33.5453 55.9113 34.5757 55.666 35.1931 55.0445C36.2602 53.9774 36.1089 51.7858 35.9699 49.6679C35.9045 48.6825 35.8391 47.7503 35.8922 46.8957C36.0149 44.9618 37.3887 42.713 43.2437 42.9419L43.4359 42.9501L43.3787 44.4507L43.1865 44.4425C39.4535 44.2912 37.495 45.1498 37.3764 46.9939C37.3274 47.7462 37.3887 48.6334 37.4541 49.5697C37.6136 51.9085 37.7894 54.5621 36.2439 56.1117C35.4302 56.9294 34.2813 57.3219 32.7398 57.3219Z" fill="#DEC685"/>
<path fill-rule="evenodd" clip-rule="evenodd" d="M51.6589 61.8766C51.3808 61.5127 51.0905 61.1366 50.8043 60.7318C50.4486 60.233 50.326 59.7669 50.4282 59.3008C50.604 58.5075 51.3768 57.9065 51.7325 57.6694C52.5012 57.976 53.4334 58.1804 54.57 58.2254V58.2336C54.6477 58.2336 54.7295 58.2336 54.8072 58.2295C54.8849 58.2336 54.9626 58.2336 55.0443 58.2336V58.2254C58.2049 58.1028 59.8036 56.729 60.6132 55.3797C61.3696 55.6863 63.5366 56.7985 63.4385 59.4847C63.3894 60.8095 62.2814 62.0729 61.206 63.2954C59.6809 65.0372 57.9473 67.0121 59.3906 69.3549L60.327 68.7661C59.3865 67.2369 60.3433 65.9572 62.0319 64.0355C63.234 62.6658 64.477 61.247 64.5383 59.5256C64.6242 57.1256 63.2545 55.6127 61.9624 54.8154C63.0419 54.705 64.4116 54.3371 64.7428 53.6501C64.8613 53.4048 65.1721 52.7547 62.1955 45.6731C61.9829 44.6591 61.3818 41.752 61.206 40.3373C63.418 37.2953 62.4286 34.1756 60.4292 32.4011C58.3603 30.5694 54.938 29.8988 52.2967 31.98C51.5403 30.2504 49.6268 29.032 47.0836 28.7172C42.5615 28.1611 39.2619 30.5734 38.113 33.0512C36.6288 36.2527 37.4465 38.5055 38.2315 39.7076C35.7824 39.7322 34.0774 40.3332 33.047 41.523C31.3952 43.4284 31.9472 46.3027 32.3888 48.6169C32.5932 49.6923 32.8508 51.0293 32.5891 51.3564C31.7305 52.4358 30.7574 52.1251 30.3771 51.9411C29.727 51.6262 29.3181 51.0007 29.4326 50.4855L28.3573 50.2483C28.1365 51.2705 28.7866 52.4072 29.9069 52.9469C30.8964 53.4253 32.3479 53.4416 33.4518 52.0515C34.0324 51.3237 33.7871 50.0357 33.4723 48.4043C33.0798 46.3313 32.585 43.7555 33.8811 42.2549C34.8256 41.1632 36.686 40.6971 39.4132 40.8525L39.7852 39.8589C39.7566 39.8385 37.1726 37.7082 39.1147 33.5255C40.5212 30.4917 44.1643 29.4777 46.9569 29.8211C48.8908 30.0583 51.0946 31.0355 51.4953 33.0716L52.4276 33.3538C54.0917 31.6447 57.2073 31.0232 59.7055 33.2393C61.2183 34.5804 62.2527 37.0786 60.2738 39.7363C55.2079 38.9512 51.4176 39.6259 49.0217 41.7602C47.5661 43.0522 46.9364 44.6059 46.6625 45.7794C46.5439 45.6853 46.4171 45.6076 46.2822 45.5422C45.9061 45.3705 45.1456 45.1865 44.246 45.8611C43.3547 46.5317 42.9908 47.5375 43.2198 48.6864C43.4896 50.0562 44.5445 51.4422 45.5912 52.2232C45.0924 52.7097 44.5813 53.3639 44.4096 54.1531C44.2419 54.9217 44.4137 55.6741 44.9207 56.3855C45.2151 56.7985 45.5135 57.1869 45.7997 57.559C47.2267 59.4193 47.8727 60.3679 46.9937 61.5495C46.6175 62.0525 46.18 62.3796 45.718 62.723C44.5731 63.5816 43.3874 64.4689 43.7881 67.7726L44.8798 67.6376C44.5568 64.9759 45.3173 64.4076 46.3722 63.6225C46.8546 63.2627 47.3984 62.8538 47.8727 62.2201C49.2997 60.3066 48.0199 58.6425 46.6666 56.8761C46.3763 56.5 46.09 56.1197 45.812 55.7354C45.4931 55.2856 45.3868 54.8481 45.4808 54.3984C45.6158 53.7687 46.1432 53.1881 46.6216 52.7874C46.6543 52.7997 46.7524 52.6811 46.7524 52.6811C46.9773 52.5053 47.1776 52.3704 47.3126 52.2968L47.0427 51.8102L46.7729 51.3237C46.6747 51.3809 46.5807 51.4382 46.4867 51.5036C45.6403 50.968 44.5322 49.6841 44.291 48.4738C44.1438 47.7379 44.3442 47.1777 44.8961 46.7566C45.2355 46.499 45.5422 46.4336 45.8161 46.5603C46.1432 46.7075 46.4131 47.1368 46.4417 47.5539L46.9609 47.513L47.5415 47.4885C47.5374 47.4598 47.4679 44.6018 49.7454 42.5902C51.9001 40.6848 55.4041 40.1083 60.1552 40.8525C60.4292 42.7374 61.1529 46.1146 61.1856 46.2741L61.2346 46.2618C62.4326 49.1158 63.6633 52.4399 63.7124 53.1922C63.3649 53.4948 61.9011 53.7687 61.2714 53.7646C61.4309 53.1391 61.435 52.6975 61.435 52.6811H60.331C60.331 52.861 60.2656 57.007 54.799 57.1215C49.3692 57.0029 49.2752 52.8569 49.2711 52.677L48.7232 52.6811H48.1712C48.1712 52.722 48.2121 55.4901 50.6449 57.1051C50.146 57.5303 49.545 58.1927 49.3528 59.0554C49.177 59.8405 49.361 60.6255 49.9089 61.3901C50.2033 61.803 50.5018 62.1915 50.788 62.5635C52.2149 64.4239 52.861 65.3684 51.9819 66.55C51.6057 67.053 51.1682 67.3801 50.7103 67.7276C49.5655 68.5862 48.3797 69.4694 48.7804 72.7772L49.8721 72.6422C49.5491 69.9805 50.3096 69.4121 51.3645 68.623C51.847 68.2632 52.3908 67.8543 52.865 67.2206C54.2879 65.303 53.0082 63.6389 51.6589 61.8766Z" fill="#DEC685"/>
<path fill-rule="evenodd" clip-rule="evenodd" d="M48.3753 52.8735C48.4325 53.5195 48.776 55.6334 50.7549 56.9417L50.9675 57.0849L50.7713 57.2525C50.3092 57.645 49.7246 58.2788 49.5447 59.0965C49.3811 59.8284 49.5569 60.5603 50.068 61.2758C50.3624 61.6887 50.6568 62.0772 50.943 62.4452C52.3863 64.3301 53.0978 65.3727 52.1369 66.6647C51.7444 67.1881 51.3028 67.5233 50.8326 67.875C49.6959 68.7254 48.6288 69.5227 48.9477 72.5606L49.6591 72.4707C49.3852 69.8621 50.207 69.2406 51.2456 68.4678C51.7199 68.1121 52.2514 67.7155 52.7052 67.1063C54.0422 65.3113 52.8688 63.7781 51.5072 61.9995L51.6585 61.8768L51.5032 61.9954C51.2251 61.6315 50.9348 61.2513 50.6445 60.8465C50.2561 60.3027 50.1212 59.7793 50.2397 59.26C50.4319 58.3892 51.2742 57.7431 51.6258 57.506L51.7117 57.4487L51.8057 57.4855C52.603 57.8045 53.5393 57.9885 54.5779 58.0293L54.7578 58.0375H54.8068H54.9499L55.0399 58.0293C57.5953 57.9271 59.4148 57.0031 60.4534 55.2776L60.5392 55.1386L60.6905 55.2C61.406 55.4903 63.7407 56.6555 63.6385 59.4931C63.5853 60.8833 62.4527 62.1753 61.361 63.4224C59.9136 65.0701 58.2822 66.9305 59.4639 69.0852L60.0731 68.7009C59.2308 67.1349 60.253 65.7734 61.8926 63.9048C63.0742 62.5596 64.2927 61.1695 64.354 59.5176C64.448 56.9663 62.8371 55.5761 61.868 54.9792L61.3856 54.6807L61.9498 54.6234C63.062 54.509 64.3008 54.1369 64.5748 53.5686C64.8365 53.0248 63.9778 50.3957 62.0234 45.7509C61.8272 44.8228 61.2016 41.8053 61.0217 40.362L61.0094 40.2884L61.0544 40.223C63.1969 37.2791 62.2197 34.2453 60.3021 32.5444C58.3354 30.8026 54.999 30.0993 52.419 32.1314L52.2228 32.2868L52.1246 32.0578C51.3928 30.3855 49.4997 29.208 47.0669 28.9095C42.6388 28.3657 39.4169 30.7167 38.2966 33.1332C36.886 36.1752 37.5729 38.3299 38.3988 39.6056L38.591 39.9L38.2394 39.9041C35.8434 39.9286 34.1956 40.501 33.2021 41.65C31.6116 43.4858 32.1513 46.3111 32.5847 48.5803C32.8668 50.0441 33.0426 51.1071 32.7482 51.4751C31.8037 52.6609 30.7202 52.3174 30.2991 52.113C29.6367 51.7941 29.2115 51.193 29.2237 50.6329L28.5164 50.4775C28.4305 51.3606 29.0234 52.3011 29.9883 52.7713C30.9083 53.2169 32.2617 53.2292 33.2961 51.9331C33.8195 51.2707 33.5823 50.0236 33.2798 48.4413C32.875 46.3274 32.3761 43.6984 33.7295 42.1324C34.6944 41.0162 36.5589 40.5174 39.2779 40.6564L39.5559 39.9163C39.0694 39.4461 37.1559 37.2791 38.9385 33.4439C40.3859 30.3201 44.1189 29.2816 46.9769 29.6332C48.9395 29.8745 51.1801 30.8639 51.6585 32.9205L52.37 33.1372C54.1158 31.4241 57.2846 30.8353 59.8319 33.0964C61.3938 34.4824 62.4854 37.0829 60.4247 39.855L60.3552 39.949L60.2407 39.9327C55.228 39.1558 51.495 39.8182 49.1481 41.9075C47.7047 43.1914 47.0996 44.7451 46.8502 45.8245L46.7807 46.1189L46.5435 45.9308C46.4209 45.8368 46.3105 45.7673 46.2042 45.7141C45.8689 45.5588 45.182 45.3952 44.3683 46.0126C43.5383 46.6382 43.199 47.5745 43.4116 48.6457C43.6855 50.0318 44.765 51.3606 45.7094 52.0639L45.8934 52.1988L45.7299 52.3583C45.1166 52.9471 44.7404 53.5645 44.6014 54.19C44.446 54.9015 44.6055 55.6006 45.0839 56.2671C45.3619 56.6555 45.644 57.0235 45.9139 57.3751L45.9589 57.4365C47.4063 59.3214 48.1177 60.364 47.1569 61.656C46.7643 62.1835 46.3146 62.5188 45.8403 62.8704C44.7118 63.7167 43.6446 64.514 43.9636 67.552L44.675 67.4661C44.4011 64.8534 45.227 64.236 46.2655 63.4632C46.7439 63.1034 47.2754 62.7068 47.7252 62.1017C49.0663 60.3027 47.8887 58.7694 46.5231 56.9908C46.2369 56.6187 45.9507 56.2426 45.6645 55.846C45.3088 55.3512 45.1902 54.8606 45.3006 54.3577C45.4559 53.6462 46.0447 53.0288 46.5067 52.6363L46.5885 52.5668L46.6008 52.5709L46.6171 52.5546C46.7807 52.4196 46.932 52.3092 47.0669 52.2234L46.7153 51.5896C46.6785 51.6141 46.6458 51.6346 46.609 51.6591L46.4945 51.7286L46.3882 51.6632C45.46 51.0785 44.3479 49.7374 44.1067 48.5108C43.9472 47.7053 44.1762 47.0634 44.7854 46.6014C45.1861 46.2988 45.5623 46.2211 45.9016 46.3806C46.241 46.536 46.5231 46.9244 46.6131 47.3414L47.3572 47.3006C47.3817 46.6055 47.6189 44.2136 49.6264 42.4432C51.8221 40.501 55.3752 39.9041 60.1917 40.6605L60.3348 40.685L60.3552 40.824C60.5883 42.4145 61.1321 45.0477 61.3406 46.0453L61.357 46.0412L61.4183 46.1884C62.5877 48.981 63.8592 52.3828 63.9124 53.1801L63.9206 53.2783L63.847 53.3396C63.434 53.6953 61.9171 53.957 61.2956 53.957H61.2793H61.034L61.0912 53.7198C61.1607 53.4418 61.2098 53.1597 61.2384 52.8776H60.5269C60.4574 53.7525 59.8605 57.2116 54.8109 57.3179C49.7818 57.2116 49.1644 53.7485 49.0867 52.8776L48.3753 52.8735ZM48.6083 72.9859L48.5838 72.7937C48.1668 69.3755 49.4547 68.4147 50.5914 67.5683C51.0452 67.229 51.4664 66.91 51.8262 66.4317C52.5908 65.4054 52.1369 64.6326 50.6363 62.6782C50.3501 62.3061 50.0517 61.9136 49.7532 61.4966C49.1767 60.687 48.9804 59.8529 49.1685 59.0065C49.3525 58.197 49.8718 57.5551 50.3379 57.1176C48.0114 55.4248 47.9828 52.7017 47.9828 52.6731V52.481L49.467 52.4769L49.4711 52.669C49.4711 52.8408 49.5651 56.8068 54.8191 56.9213C60.0935 56.8109 60.1549 52.8449 60.1549 52.6731V52.481H61.6432V52.6731C61.6432 52.6772 61.6391 53.0248 61.5287 53.5563C62.1747 53.5113 63.1683 53.2946 63.5199 53.0943C63.389 52.2806 62.3791 49.4758 61.1321 46.4787L61.0503 46.4992L61.0094 46.3111C60.8295 45.4688 60.2571 42.7294 59.9995 41.0162C55.3752 40.3129 51.9734 40.8895 49.8881 42.7294C47.6802 44.6756 47.7456 47.4477 47.7497 47.4764L47.7538 47.6685L46.2778 47.7544L46.2614 47.5622C46.2328 47.2147 46.0079 46.8508 45.7462 46.7281C45.5418 46.6341 45.3047 46.6913 45.0225 46.9039C44.5278 47.2801 44.3561 47.7626 44.491 48.429C44.7036 49.4962 45.6726 50.6983 46.4945 51.2625C46.6049 51.193 46.6744 51.1521 46.6866 51.1439L46.8543 51.054L47.578 52.3583L47.4104 52.4523C47.2632 52.5382 47.0587 52.6772 46.8747 52.8244C46.8338 52.8817 46.7766 52.9307 46.7112 52.9593C46.3636 53.2578 45.8035 53.818 45.6686 54.4313C45.5827 54.8279 45.6808 55.2163 45.967 55.617C46.2492 56.0136 46.5354 56.3857 46.8093 56.7414C48.1545 58.4955 49.5365 60.2986 48.0237 62.3307C47.5412 62.9808 46.9851 63.3937 46.4986 63.7617C45.4478 64.5468 44.765 65.0578 45.0716 67.6092L45.0961 67.8014L43.6201 67.9854L43.5956 67.7932C43.1826 64.375 44.4665 63.4142 45.6031 62.5637C46.0529 62.2285 46.4781 61.9095 46.8379 61.4271C47.6025 60.4008 47.1446 59.628 45.644 57.6736L45.5991 57.6123C45.3251 57.2566 45.043 56.8845 44.765 56.4961C44.2212 55.7397 44.0413 54.9342 44.2212 54.1083C44.3602 53.4663 44.7241 52.8408 45.3006 52.2397C44.3397 51.4629 43.3053 50.1218 43.0273 48.7234C42.786 47.4968 43.1744 46.4256 44.1271 45.706C45.1043 44.9659 45.9425 45.1744 46.3596 45.3625C46.4209 45.3911 46.4822 45.4238 46.5395 45.4565C46.9279 43.9723 47.7456 42.6353 48.8864 41.6132C51.311 39.4625 55.1094 38.7633 60.1794 39.5279C61.9907 37.0052 60.9931 34.646 59.5702 33.3826C57.1619 31.2483 54.1608 31.8411 52.558 33.4889L52.4763 33.5707L51.3192 33.2231L51.2987 33.1086C50.9185 31.1747 48.7882 30.2424 46.9238 30.0135C44.2048 29.6782 40.6476 30.6595 39.282 33.6075C37.4175 37.6267 39.8749 39.6874 39.8994 39.7119L40.0057 39.7978L39.5396 41.0571L39.3965 41.0489C36.7306 40.8895 34.9234 41.3433 34.0198 42.3859C32.785 43.8129 33.2675 46.3397 33.6559 48.3718C33.9789 50.0523 34.2324 51.377 33.5946 52.1743C32.417 53.6503 30.8715 53.634 29.8166 53.1188C28.6186 52.5423 27.9235 51.3157 28.1648 50.2035L28.2057 50.0155L29.6612 50.3344L29.6204 50.5225C29.5304 50.9477 29.8984 51.4956 30.4626 51.7654C30.8797 51.9658 31.6933 52.1661 32.4375 51.2339C32.6419 50.9763 32.3516 49.4635 32.1962 48.6539C31.7465 46.3029 31.1863 43.3754 32.8995 41.4005C33.9217 40.2148 35.5572 39.6056 37.8877 39.5279C37.0986 38.1459 36.5507 35.9585 37.9368 32.9737C39.1143 30.4346 42.4875 27.9609 47.1037 28.5293C49.5692 28.8318 51.5154 30.0053 52.3659 31.6858C55.0808 29.7068 58.5153 30.4551 60.5515 32.2623C62.5836 34.0654 63.6262 37.275 61.4019 40.3947C61.5941 41.8503 62.1992 44.7696 62.3791 45.6446C65.3803 52.7672 65.0654 53.4254 64.9141 53.7444C64.6034 54.3904 63.5322 54.7747 62.4895 54.9505C63.5117 55.707 64.816 57.1462 64.7301 59.5463C64.6647 61.3371 63.4013 62.7804 62.1747 64.1747C60.3961 66.2027 59.6479 67.3107 60.4902 68.6804L60.5883 68.844L59.329 69.6372L59.2267 69.4696C57.7098 67.0041 59.4884 64.972 61.0626 63.1811C62.1134 61.9831 63.1969 60.7443 63.2459 59.4931C63.3318 57.1176 61.5941 56.034 60.6905 55.6374C59.9096 56.8518 58.3436 58.2501 55.2362 58.4219V58.43L55.044 58.4382H54.3775V58.4219C53.4085 58.3687 52.5294 58.1888 51.7567 57.8985C51.4091 58.1438 50.7631 58.6794 50.6159 59.3541C50.526 59.763 50.6363 60.18 50.9594 60.6339C51.2456 61.0345 51.5359 61.4107 51.8098 61.7705L51.6585 61.8891L51.8139 61.7746C53.1509 63.5164 54.5288 65.3195 53.016 67.3475C52.5294 68.0017 51.9693 68.4188 51.4786 68.7868C50.436 69.5677 49.7532 70.0788 50.0598 72.6301L50.0844 72.8223L48.6083 72.9859Z" fill="#DEC685"/>
<path fill-rule="evenodd" clip-rule="evenodd" d="M42.5044 37.5612C41.703 38.5956 41.6907 39.9122 42.4717 40.918C42.9623 41.5477 43.6451 41.8911 44.3239 41.8911C44.606 41.8911 44.8881 41.8298 45.1539 41.7072C46.2905 41.1838 46.5604 40.7586 47.2882 39.6096C47.6521 39.0413 48.1468 38.2604 48.9482 37.1523C49.5656 36.3019 50.2239 35.8521 50.9149 35.8235C52.0352 35.7826 52.9756 36.8375 52.9838 36.8498L53.4008 36.4859L53.8179 36.122C53.7688 36.0647 52.5953 34.7073 50.9926 34.7073C50.9558 34.7073 50.919 34.7073 50.8781 34.7114C49.8354 34.7523 48.8869 35.3533 48.0609 36.494C47.4681 37.3118 46.9038 38.1541 46.3641 39.0086C45.6813 40.0839 45.5382 40.3088 44.6959 40.6972C44.1889 40.9303 43.6492 40.6318 43.3385 40.227C42.9746 39.7609 42.7947 38.9963 43.3753 38.2481L42.5044 37.5612Z" fill="#DEC685"/>
<path fill-rule="evenodd" clip-rule="evenodd" d="M42.5407 37.835C41.911 38.7714 41.9356 39.9121 42.6225 40.7953C43.248 41.6008 44.2498 41.9074 45.0675 41.5312C46.151 41.0324 46.3964 40.6481 47.1201 39.5032C47.484 38.9349 47.9787 38.154 48.7883 37.0337C49.4384 36.1301 50.1498 35.6599 50.898 35.6271C51.8589 35.5903 52.6684 36.2772 52.9833 36.5798L53.5312 36.1014C53.1918 35.7539 52.2228 34.8912 50.9798 34.8912C50.9471 34.8912 50.9144 34.8912 50.8776 34.8953C49.8922 34.9321 48.9968 35.5045 48.2077 36.6003C47.3858 37.741 46.8829 38.5301 46.519 39.1026C45.8239 40.1942 45.6604 40.4518 44.769 40.8607C44.168 41.1346 43.5343 40.7953 43.1785 40.3373C42.7002 39.7445 42.6715 38.9063 43.1009 38.2766L42.5407 37.835ZM44.3193 42.0832C43.567 42.0832 42.8351 41.6989 42.3158 41.0324C41.4776 39.9571 41.494 38.5465 42.3485 37.4384L42.4671 37.2831L43.6365 38.2112L43.522 38.3625C43.0109 39.0208 43.1663 39.6954 43.4852 40.1043C43.7469 40.4437 44.2007 40.7012 44.6096 40.5132C45.3987 40.1493 45.5173 39.9571 46.1919 38.8981C46.5599 38.3175 47.0669 37.5243 47.8969 36.3754C48.7596 35.1815 49.7573 34.5559 50.8612 34.5109C50.898 34.5068 50.9389 34.5068 50.9798 34.5068C52.6807 34.5068 53.9032 35.9297 53.9523 35.991L54.075 36.1382L52.9506 37.1154L52.8238 36.9723C52.8156 36.9642 51.9611 36.0115 50.9634 36.0115H50.9103C50.2847 36.0401 49.6755 36.4572 49.0949 37.2585C48.5184 38.0558 47.9664 38.8736 47.4431 39.7077C46.7112 40.8566 46.4086 41.3309 45.2229 41.8788C44.9449 42.0137 44.6341 42.0832 44.3193 42.0832ZM75.7656 82.7537C78.4723 81.9523 79.7807 78.6282 78.9466 74.5313L77.8672 74.7561C78.4682 77.6959 77.9081 81.1386 75.2668 81.7397C72.7399 82.3162 70.299 80.0878 69.334 76.318C68.7575 74.0611 68.9129 71.9554 69.7674 70.5407C70.2826 69.6861 71.0186 69.1423 71.9508 68.9297C72.56 68.7825 73.1938 68.7989 73.7948 68.9747L74.1056 67.9035C73.3246 67.6745 72.4987 67.654 71.7096 67.838C71.2435 67.9443 70.7978 68.1242 70.3848 68.3737L70.3644 68.3328C67.3388 69.9028 63.9656 70.6838 60.5597 70.6102L60.5392 71.7223C60.6864 71.7264 60.8295 71.7264 60.9767 71.7264C63.6098 71.7264 66.2184 71.2398 68.6431 70.3199C67.809 71.9676 67.6658 74.2205 68.271 76.592C68.9988 79.4295 70.5034 81.4984 72.3229 82.4143C70.0577 82.8395 67.4328 83.1707 65.6215 83.1707C62.9516 83.1707 60.3184 82.7905 57.7998 82.0341L57.489 83.1012C60.1303 83.8903 62.8698 84.2869 65.6256 84.2829C68.5776 84.2829 73.3451 83.4774 75.7738 82.7578L75.7656 82.7537Z" fill="#DEC685"/>
<path fill-rule="evenodd" clip-rule="evenodd" d="M57.7257 82.9826C60.273 83.7267 62.9266 84.1029 65.621 84.1029C68.4913 84.1029 73.0788 83.3383 75.5443 82.6351L75.712 82.5696C78.3083 81.801 79.5349 78.6772 78.7949 74.7602L78.0957 74.9074C78.6518 77.8922 78.0221 81.3103 75.3113 81.9318C72.674 82.5288 70.1431 80.2432 69.1496 76.3671C68.5608 74.0651 68.7244 71.9063 69.6034 70.4466C70.1472 69.543 70.9241 68.9706 71.9095 68.7457C72.486 68.6108 73.087 68.6108 73.6635 68.7457L73.868 68.0465C73.177 67.8748 72.4492 67.8707 71.7582 68.0343C71.3125 68.1365 70.8832 68.3082 70.4907 68.5453L70.3108 68.6557L70.2822 68.6026C67.3301 70.0991 64.0591 70.8596 60.7514 70.8146L60.7391 71.5424C63.4336 71.571 66.0708 71.1049 68.5772 70.1481L69.0433 69.9682L68.8184 70.4139C68.0047 72.0208 67.8739 74.2573 68.4586 76.5511C69.1537 79.2578 70.5929 81.3348 72.4124 82.2507L72.9235 82.5083L72.3592 82.6146C69.8201 83.0889 67.3015 83.3751 65.621 83.3751C63.0165 83.3792 60.4283 83.0112 57.9261 82.2834L57.7257 82.9826ZM65.621 84.4913C62.8489 84.4954 60.089 84.0947 57.4313 83.3015L57.2473 83.2484L57.6685 81.8091L57.8565 81.8623C60.3548 82.6105 62.9715 82.9908 65.621 82.9908C67.1379 82.9908 69.4521 82.7414 71.7664 82.3325C70.0695 81.2653 68.7448 79.2332 68.0865 76.6533C67.5182 74.4331 67.5877 72.3315 68.2746 70.6756C65.7927 71.5587 63.1719 71.984 60.5347 71.9308L60.3425 71.9267L60.3711 70.4262L60.5633 70.4302C60.7023 70.4343 60.8372 70.4343 60.9762 70.4343C64.2309 70.4343 67.4487 69.6534 70.2781 68.1774L70.4498 68.0874L70.4702 68.1242C70.8464 67.9157 71.2512 67.7644 71.6723 67.6704C72.4941 67.4782 73.3528 67.4986 74.1623 67.7358L74.3463 67.7889L73.9293 69.2282L73.7412 69.1709C73.1729 69.0074 72.5718 68.991 71.9953 69.1259C71.1122 69.3304 70.4212 69.8415 69.9346 70.651C69.1087 72.0248 68.9574 74.0733 69.5217 76.2771C70.458 79.9406 72.809 82.1117 75.2213 81.5597C77.74 80.9873 78.2592 77.655 77.6786 74.8011L77.6418 74.613L79.0974 74.3063L79.1383 74.4985C79.9765 78.6199 78.7172 81.9563 76.0023 82.8845L76.0064 82.9008L75.8265 82.954C73.3855 83.6818 68.5935 84.4913 65.621 84.4913ZM60.0031 45.8816L57.4231 44.7817L56.9897 44.7858L52.668 46.6789L53.1055 47.7011L57.2146 45.9061L59.5779 46.912L60.0031 45.8816Z" fill="#DEC685"/>
<path fill-rule="evenodd" clip-rule="evenodd" d="M52.923 46.7771L53.2092 47.4435L57.2121 45.6936L59.4731 46.6544L59.7512 45.9839L57.3838 44.9739L57.0322 44.978L52.923 46.7771ZM53.0048 47.9546L52.416 46.5767L56.9913 44.5937L57.4656 44.5896L57.5024 44.606L60.2582 45.7794L59.6817 47.1614L57.2162 46.1147L53.0048 47.9546Z" fill="#DEC685"/>
<path fill-rule="evenodd" clip-rule="evenodd" d="M56.6562 48.0037C56.6562 48.5107 57.0897 48.9237 57.6212 48.9237C58.1527 48.9237 58.5861 48.5107 58.5861 48.0037C58.5861 47.4967 58.1527 47.0837 57.6212 47.0837C57.0897 47.0837 56.6562 47.5008 56.6562 48.0037Z" fill="#DEC685"/>
<path fill-rule="evenodd" clip-rule="evenodd" d="M57.62 47.28C57.1948 47.28 56.8472 47.6071 56.8472 48.0078C56.8472 48.4085 57.1907 48.7356 57.62 48.7356C58.0493 48.7356 58.3928 48.4085 58.3928 48.0078C58.3928 47.6071 58.0452 47.28 57.62 47.28ZM57.62 49.1159C56.9822 49.1159 56.4629 48.617 56.4629 48.0037C56.4629 47.3904 56.9822 46.8916 57.62 46.8916C58.2578 46.8916 58.7812 47.3904 58.7812 48.0037C58.7812 48.617 58.2578 49.1159 57.62 49.1159Z" fill="#DEC685"/>
<path fill-rule="evenodd" clip-rule="evenodd" d="M77.6502 59.5297L68.2216 63.3159L72.02 51.3564C72.0364 51.3564 72.0527 51.3605 72.0691 51.3605C72.1018 51.3605 72.1304 51.3523 72.1631 51.3523L77.7892 58.8101C77.691 58.9859 77.6379 59.1822 77.6379 59.3825C77.6379 59.4316 77.6461 59.4806 77.6502 59.5297ZM48.4772 77.1275C48.7143 77.4015 49.0619 77.5814 49.4585 77.5814C49.4871 77.5814 49.5157 77.5732 49.5443 77.5732L54.7002 86.2863C52.848 85.9224 51.0367 85.3663 49.299 84.6222C46.0976 83.2524 43.1905 81.2858 40.7291 78.8244L48.4772 77.1275ZM36.0107 62.8865C36.0884 63.3159 36.3909 63.6716 36.8039 63.8269L38.8033 76.7105C37.0942 74.6252 35.704 72.3151 34.6573 69.8087L33.9173 69.5225L33.5084 69.7147C32.6252 67.1265 32.1182 64.4239 32.0078 61.6885L36.0107 62.8865ZM87.737 87.0427C84.1717 90.6612 79.9398 93.5478 75.2705 95.5431C70.4458 97.612 65.2491 98.671 59.9992 98.6628C54.7043 98.6628 49.5689 97.612 44.7278 95.5431C40.0585 93.5478 35.8226 90.6571 32.2613 87.0427C28.9045 83.6531 26.1896 79.683 24.2434 75.3244L33.8682 70.7737C35.2911 73.9997 37.2905 76.9395 39.7723 79.4418C42.3727 82.079 45.4597 84.1888 48.8656 85.6443C52.3819 87.149 56.1721 87.9258 59.9951 87.9177C62.2929 87.9177 64.5745 87.6437 66.7701 87.104L66.5084 86.0246C63.1066 86.8546 59.578 87.0263 56.1149 86.5275L50.5052 77.0417C50.6483 76.8372 50.7301 76.596 50.7301 76.3466C50.7301 75.6638 50.1576 75.1077 49.4503 75.1077C48.8533 75.1077 48.3545 75.5084 48.2155 76.044L40.0871 77.8226L37.9079 63.7452C38.2881 63.5326 38.5498 63.136 38.5498 62.678C38.5498 61.9952 37.9774 61.4432 37.27 61.4432C36.9102 61.4432 36.5831 61.5904 36.3501 61.8235L31.9792 60.5192C31.9792 60.4987 31.7789 60.4619 31.7789 60.4619H30.8753C30.8753 63.8065 31.4272 67.0734 32.5067 70.189L28.6428 72.0166C27.3099 68.3123 26.6312 64.3994 26.6353 60.4619C26.6353 59.6319 26.6639 58.8019 26.7211 57.9883L25.6213 57.9065C25.5599 58.7447 25.5313 59.6074 25.5313 60.4619C25.5313 64.6038 26.2387 68.6475 27.637 72.4909L23.7895 74.3104C22.1336 69.8823 21.2872 65.1926 21.2954 60.4619C21.2954 55.1752 22.3217 50.048 24.3374 45.2192C26.2755 40.5744 29.0885 36.3508 32.6293 32.7732C36.1456 29.2037 40.3243 26.3539 44.9323 24.3831C49.6956 22.3469 54.8188 21.3002 59.9992 21.3084C65.2246 21.3084 70.2946 22.3428 75.0661 24.3872C79.6741 26.358 83.8527 29.2078 87.369 32.7772C90.9099 36.3508 93.727 40.5785 95.6609 45.2192C97.6808 50.048 98.7111 55.2284 98.703 60.4619C98.703 65.0985 97.9016 69.6288 96.3397 73.9424L92.3614 72.4868C93.7597 68.6312 94.4711 64.5629 94.467 60.4619C94.467 41.2368 79.0076 25.5975 60.0033 25.5975C57.317 25.5975 54.643 25.9082 52.0507 26.5297L52.3042 27.6132C54.8147 27.0162 57.4028 26.7096 60.0033 26.7096C68.4587 26.7096 76.1823 29.9151 82.066 35.1732L83.1454 44.0785C82.7161 44.2788 82.438 44.7081 82.434 45.1824V45.1906L72.7478 49.079C72.5434 48.9522 72.3103 48.8868 72.0691 48.8868C72.0241 48.8868 71.9832 48.895 71.9423 48.8991L67.7187 39.8548C67.9108 39.6381 68.0172 39.356 68.0212 39.0657C68.0212 38.7345 67.8822 38.4156 67.641 38.1866L69.2356 33.6931C69.7957 33.8894 70.3559 34.1061 70.9038 34.3391C74.2402 35.7661 77.2658 37.8309 79.8131 40.4191L80.59 39.6299C77.9445 36.9436 74.8003 34.7971 71.3331 33.3129C69.2601 32.4256 67.089 31.7878 64.8688 31.4075L64.6889 32.5074C65.8747 32.7077 67.044 32.994 68.193 33.3538L66.5984 37.8473C65.9646 37.9209 65.4699 38.436 65.4699 39.0698C65.4699 39.7403 66.0259 40.2841 66.7129 40.3005L70.9937 49.4715C70.867 49.6636 70.7975 49.8926 70.7934 50.1257C70.7934 50.3914 70.8833 50.6368 71.0305 50.8412L67.1503 63.0542C66.537 63.1441 66.0627 63.6511 66.0627 64.2726C66.0627 64.9554 66.6352 65.5074 67.3425 65.5074C68.0172 65.5074 68.561 65.0004 68.61 64.3585L78.1245 60.5396L76.35 69.5798C75.798 69.7147 75.4055 70.2013 75.3973 70.7696C75.3973 71.4524 75.9697 72.0044 76.677 72.0044C77.3721 72.0044 77.9323 71.4688 77.9527 70.7982L90.362 65.168C90.5787 65.3398 90.8526 65.442 91.1552 65.442C91.8584 65.442 92.435 64.8859 92.435 64.2072C92.435 63.5244 91.8625 62.9683 91.1552 62.9683C90.4642 62.9683 89.8999 63.5039 89.8795 64.1663L77.4662 69.8006L77.4375 69.776L79.2448 60.5764C79.7967 60.4415 80.1893 59.9508 80.1974 59.3866C80.1974 58.7038 79.625 58.1518 78.9177 58.1518C78.84 58.1518 78.7664 58.16 78.6928 58.1723L73.1362 50.8085C73.2711 50.6122 73.3488 50.3833 73.3488 50.1298C73.3488 50.1011 73.3407 50.0766 73.3407 50.048L82.9614 46.1841C83.174 46.3313 83.4316 46.4254 83.7137 46.4254C84.417 46.4254 84.9935 45.8693 84.9935 45.1906C84.9935 44.6959 84.6868 44.2706 84.2534 44.0744L83.3171 36.3549C89.7569 42.721 93.3754 51.4054 93.3631 60.4619C93.3631 64.4689 92.6803 68.3818 91.3269 72.1066L86.8171 70.4548L86.629 70.9781L86.8171 70.4548L85.7908 70.0786L85.0998 70.373C84.0367 72.7731 82.6343 75.0137 80.9416 77.0212L81.7798 77.7449C83.4316 75.7905 84.8136 73.6235 85.893 71.3011L86.4409 71.5015L95.9104 74.9728C93.956 79.4663 91.1838 83.5591 87.737 87.0427ZM99.8069 60.4619C99.8069 55.028 98.752 49.7536 96.679 44.7858C94.6878 40.0102 91.7889 35.6639 88.15 31.9881C84.5315 28.3165 80.2342 25.3889 75.4995 23.3609C70.6012 21.2634 65.3309 20.184 60.0033 20.1922C54.6348 20.1922 49.4176 21.2593 44.507 23.3609C39.7682 25.3889 35.471 28.3165 31.8566 31.9881C28.2176 35.6639 25.3187 40.0102 23.3275 44.7858C21.2463 49.7495 20.1833 55.0812 20.1915 60.4619C20.1915 65.4829 21.1196 70.3934 22.9023 75.0382L23.0208 75.2794C25.0325 79.9569 27.9028 84.2133 31.4845 87.8318C35.148 91.5484 39.5025 94.5168 44.2985 96.5694C49.2581 98.6955 54.6021 99.7872 59.9992 99.779C65.4413 99.779 70.7239 98.6996 75.6998 96.5694C80.5 94.5168 84.8504 91.5484 88.5139 87.8318C92.2019 84.107 95.1376 79.7034 97.1533 74.8665L97.186 74.797C98.9237 70.2176 99.811 65.3602 99.8069 60.4619Z" fill="#DEC685"/>
<path fill-rule="evenodd" clip-rule="evenodd" d="M72.1352 51.6344L68.529 62.9847L77.4424 59.403V59.3825C77.4424 59.1945 77.4832 59.0105 77.5609 58.8306L72.1352 51.6344ZM67.9156 63.6471L71.8858 51.1561L72.1025 51.1642L72.2579 51.152L78.023 58.7938L77.9616 58.9042C77.8798 59.0514 77.8349 59.2149 77.8308 59.3866C77.8308 59.4153 77.8349 59.4398 77.839 59.4643L77.8594 59.6115L77.7245 59.7096L67.9156 63.6471ZM33.9098 69.314L34.8052 69.6616L34.8379 69.7352C35.7783 71.984 37.0091 74.0978 38.5055 76.0236L36.6329 63.966C36.2486 63.7861 35.9623 63.4467 35.8519 63.0379L32.213 61.9543C32.3438 64.5139 32.8181 67.0325 33.6236 69.449L33.9098 69.314ZM39.1066 77.3811L38.6568 76.8332C36.9518 74.752 35.5535 72.4378 34.5108 69.96L33.9262 69.7311L33.3946 69.9805L33.3251 69.7761C32.4379 67.1675 31.9268 64.4485 31.8123 61.6968L31.8 61.4228L36.1831 62.7271L36.2036 62.8457C36.2649 63.2014 36.5225 63.5081 36.8741 63.643L36.9804 63.6839L39.1066 77.3811ZM41.1182 78.9348C43.5101 81.2613 46.3068 83.1298 49.3733 84.4423C50.9557 85.121 52.6157 85.6444 54.3084 86.0083L49.4347 77.7695C49.0503 77.7654 48.6823 77.61 48.4084 77.3361L41.1182 78.9348ZM55.0853 86.5602L54.66 86.4744C52.7956 86.1064 50.972 85.5462 49.222 84.798C46.0001 83.4201 43.0685 81.4371 40.5908 78.9593L40.3414 78.7099L48.5474 76.915L48.6251 77.0008C48.8336 77.2461 49.1403 77.3852 49.4592 77.3852L49.6514 77.3729L55.0853 86.5602ZM24.5017 75.4226C26.4315 79.6912 29.1056 83.5796 32.4011 86.9078C35.946 90.5058 40.1615 93.3802 44.8062 95.3673C49.6064 97.424 54.7786 98.4829 59.9999 98.4707C65.2662 98.4707 70.3811 97.424 75.1936 95.3673C79.8383 93.3802 84.0538 90.5058 87.5987 86.9078L87.7337 87.0427L87.5987 86.9078C90.9842 83.4896 93.7113 79.4827 95.6494 75.0832L85.9878 71.5424C84.9124 73.8198 83.5468 75.9459 81.9236 77.8676L81.7968 78.0189L80.6684 77.0417L80.791 76.8945C82.4715 74.8992 83.8616 72.679 84.9206 70.2953L84.9533 70.2258L85.7833 69.8701L91.2091 71.8572C92.5134 68.1978 93.1757 64.3462 93.1675 60.462C93.1675 51.569 89.7657 43.2199 83.5754 36.8905L84.43 43.9395C84.892 44.193 85.1864 44.6673 85.1864 45.1824C85.1864 45.9716 84.524 46.6135 83.7144 46.6135C83.4405 46.6135 83.1747 46.5399 82.9417 46.3968L73.5458 50.1707C73.5376 50.3915 73.4804 50.6041 73.3741 50.7962L78.7794 57.9638C78.8243 57.9597 78.8693 57.9556 78.9184 57.9556C79.7279 57.9556 80.3903 58.5975 80.3903 59.3825C80.3903 59.9877 79.9937 60.5233 79.4131 60.7236L77.6918 69.4858L89.6962 64.0355C89.7903 63.3036 90.4199 62.7639 91.1559 62.7721C91.9696 62.7721 92.6278 63.414 92.6278 64.2031C92.6278 64.9923 91.9655 65.6301 91.1559 65.6301C90.8656 65.6301 90.5876 65.5483 90.3422 65.3889L78.1415 70.925C78.0597 71.6364 77.4301 72.1925 76.6819 72.1925C75.8723 72.1925 75.2099 71.5506 75.2099 70.7614C75.2099 70.1563 75.6065 69.6207 76.1871 69.4203L77.8717 60.8422L68.7906 64.4894C68.6802 65.1722 68.0628 65.6914 67.3432 65.6914C66.5337 65.6914 65.8713 65.0495 65.8713 64.2645C65.8713 63.6062 66.3497 63.0297 66.9998 62.8784L70.8186 50.8658C70.5488 50.4405 70.5283 49.9008 70.7737 49.4551L66.5868 40.4845C65.8549 40.4068 65.2743 39.7935 65.2743 39.0657C65.2743 38.3829 65.7732 37.8064 66.4519 37.6715L67.9402 33.4764C66.8608 33.1494 65.765 32.8877 64.6529 32.6955L64.4648 32.6628L64.7101 31.1827L64.9023 31.2154C67.1388 31.5956 69.3222 32.2417 71.4115 33.133C74.9033 34.6254 78.0679 36.7842 80.7297 39.4909L80.8646 39.6259L79.8138 40.6889L79.6748 40.5499C77.1439 37.9822 74.1387 35.9297 70.8268 34.515C70.3403 34.3105 69.8496 34.1184 69.3508 33.9385L67.8625 38.1376C68.2959 38.6282 68.3327 39.3519 67.9443 39.8794L72.0575 48.6906C72.3028 48.7069 72.5441 48.7478 72.7608 48.8623L82.2466 45.0557C82.2875 44.6059 82.541 44.2093 82.9376 43.9722L81.8827 35.2714C75.8191 29.8743 68.0506 26.9018 59.9999 26.9018C57.4117 26.9018 54.8358 27.2044 52.3458 27.7972L52.1577 27.8422L51.8143 26.3825L52.0024 26.3376C54.6232 25.712 57.3054 25.3971 59.9999 25.3971C79.1105 25.3971 94.6558 41.1264 94.6558 60.4538C94.6558 64.5466 93.9648 68.5494 92.6033 72.3601L96.2177 73.6849C97.7346 69.4367 98.5115 64.9636 98.5074 60.4538C98.5074 55.1957 97.4893 50.093 95.4818 45.2847C93.5519 40.6644 90.7511 36.4571 87.2307 32.8999C83.7308 29.3468 79.5726 26.5134 74.9891 24.5508C70.2544 22.535 65.1517 21.4924 59.9999 21.5006C54.8031 21.5006 49.7618 22.531 45.0066 24.5631C40.4231 26.5256 36.2649 29.3591 32.765 32.9081C25.5239 40.2474 21.4678 50.1502 21.4883 60.462C21.4883 65.1231 22.3019 69.6943 23.9006 74.0447L27.4006 72.3887C26.0309 68.5617 25.3358 64.5261 25.3399 60.4579C25.3399 59.5992 25.3685 58.7365 25.4298 57.8902L25.4421 57.698L26.9263 57.8084L26.914 58.0006C26.8568 58.8183 26.8282 59.6401 26.8282 60.462C26.8282 64.3422 27.4742 68.1406 28.7539 71.7509L32.2702 70.0868C31.2194 66.9876 30.6797 63.7329 30.6838 60.462V60.2698H31.7837C31.8777 60.2821 31.9718 60.3066 32.0576 60.3434L36.3017 61.6109C36.5716 61.3819 36.9109 61.2552 37.2748 61.2552C38.0844 61.2552 38.7468 61.8971 38.7468 62.6862C38.7468 63.1483 38.5096 63.5817 38.1212 63.8474L40.2555 77.5937L48.0731 75.8805C48.2857 75.2958 48.8418 74.9115 49.4633 74.9156C50.2769 74.9156 50.9352 75.5575 50.9352 76.3466C50.9352 76.5919 50.8698 76.8332 50.743 77.0499L56.2465 86.3558C59.726 86.8383 63.1932 86.6461 66.4723 85.8406L66.6604 85.7956L67.012 87.2512L66.824 87.2962C64.5915 87.8441 62.3018 88.118 59.9999 88.1139C56.1115 88.1139 52.3417 87.3453 48.7927 85.8284C45.3623 84.3605 42.2549 82.2426 39.6381 79.5849C37.1849 77.1112 35.2018 74.2164 33.7749 71.0395L24.5017 75.4226ZM59.9999 98.8591C54.6805 98.8591 49.5164 97.8042 44.655 95.723C39.9652 93.7155 35.7088 90.8125 32.1271 87.1776C28.7539 83.7717 26.0268 79.7852 24.0724 75.4062L23.9947 75.2345L33.9711 70.5161L34.0488 70.696C35.4594 73.9016 37.4506 76.8168 39.912 79.3069C42.492 81.9277 45.5626 84.0211 48.944 85.4685C52.4358 86.965 56.1974 87.7337 59.9999 87.7255C62.216 87.7255 64.4198 87.4679 66.5418 86.9609L66.3701 86.2536C63.0051 87.0509 59.5174 87.2063 56.0952 86.7156L56.0052 86.7033L50.281 77.0294L50.3546 76.9272C50.4773 76.7555 50.5427 76.5511 50.5427 76.3425C50.5427 75.766 50.0561 75.2958 49.4551 75.2958C48.9645 75.2917 48.5351 75.6147 48.4043 76.089L48.3757 76.2035L39.9284 78.0516L37.6919 63.6389L37.8104 63.5735C38.1416 63.3977 38.3502 63.0542 38.3542 62.6781C38.3542 62.1015 37.8677 61.6354 37.2707 61.6354C36.9763 61.6354 36.6942 61.7499 36.4857 61.9584L36.4039 62.0402L31.7837 60.6582L31.7428 60.65L31.0682 60.6541C31.0845 63.8801 31.6324 67.0775 32.6873 70.1236L32.7445 70.2872L28.5331 72.2784L28.4596 72.078C27.1185 68.3491 26.4356 64.4198 26.4438 60.4579C26.4438 59.6933 26.4683 58.9205 26.5174 58.16L25.806 58.1069C25.7528 58.8878 25.7283 59.6728 25.7283 60.4538C25.7283 64.567 26.4356 68.5944 27.8258 72.4174L27.8871 72.5809L23.688 74.568L23.6144 74.3718C21.9462 69.9314 21.0958 65.2171 21.104 60.462C21.104 55.1507 22.1343 49.9989 24.1623 45.1456C26.1085 40.4804 28.9379 36.2322 32.4951 32.6383C36.0278 29.0525 40.2269 26.1904 44.8553 24.2114C49.6391 22.163 54.7909 21.1081 59.9999 21.1163C65.2498 21.1163 70.3443 22.1548 75.1445 24.2114C79.7729 26.1904 83.9761 29.0525 87.5088 32.6424C91.066 36.2363 93.8953 40.4804 95.8457 45.1497C97.8737 50.003 98.9122 55.208 98.8999 60.4661C98.904 65.0863 98.0985 69.6698 96.5244 74.012L96.459 74.196L92.1168 72.6054L92.1822 72.4255C93.5723 68.5944 94.2797 64.5466 94.2756 60.4701C94.2756 41.3513 78.902 25.7978 60.004 25.7978C57.3954 25.7978 54.7991 26.0963 52.2845 26.681L52.448 27.3884C54.9258 26.8118 57.4608 26.5256 60.004 26.5256C68.1773 26.5256 76.0563 29.5513 82.1975 35.0383L82.2507 35.0874L83.3546 44.2011L83.232 44.2625C82.8681 44.4301 82.635 44.7899 82.6309 45.1906V45.3215L82.5083 45.3787L72.7322 49.3039L72.6504 49.2548C72.4541 49.1362 72.2252 49.0626 72.0084 49.0953L71.8694 49.1158L71.7713 48.9931L67.4945 39.8344L67.5763 39.7404C67.7398 39.5564 67.8298 39.3233 67.8339 39.078C67.8339 38.7959 67.7153 38.5301 67.515 38.3379L67.425 38.2521L69.1259 33.456L69.3099 33.5214C69.9191 33.7381 70.4711 33.9467 70.9863 34.1715C74.2859 35.5821 77.2829 37.6142 79.8179 40.1533L80.3249 39.6422C77.7245 37.0336 74.6498 34.9525 71.2643 33.5051C69.2649 32.6505 67.1756 32.025 65.0331 31.6447L64.9145 32.3643C66.0021 32.5565 67.1224 32.8345 68.2509 33.1821L68.4431 33.2434L66.7422 38.0395L66.6195 38.0517C66.0757 38.1171 65.6628 38.5587 65.6628 39.0821C65.6628 39.6422 66.1371 40.1083 66.7177 40.1206L66.8362 40.1247L71.2112 49.5001L71.1539 49.5901C71.0476 49.7536 70.9863 49.9458 70.9863 50.138C70.9863 50.3506 71.0558 50.5591 71.1866 50.7349L71.2439 50.8167L67.2942 63.2382L67.1756 63.2546C66.6522 63.3322 66.2556 63.7738 66.2556 64.2808C66.2556 64.8573 66.7422 65.3234 67.3432 65.3234C67.9034 65.3234 68.3777 64.8982 68.4186 64.3544L68.4267 64.2359L68.5371 64.1909L78.3828 60.2371L76.5142 69.7474L76.3956 69.7761C75.9295 69.8865 75.5983 70.2994 75.5902 70.7778C75.5902 71.3543 76.0767 71.8204 76.6778 71.8204C77.2584 71.8204 77.7449 71.3625 77.7572 70.8023L77.7613 70.6797L90.3831 64.9514L90.4772 65.0209C90.6693 65.1722 90.9065 65.2539 91.1477 65.2539C91.7447 65.2539 92.2353 64.7878 92.2353 64.2113C92.2353 63.6348 91.7488 63.1687 91.1477 63.1687C90.559 63.1687 90.0847 63.6103 90.0683 64.1786L90.0642 64.2972L89.9538 64.3462L77.4342 70.0296L77.2297 69.8824L77.242 69.7434L79.0737 60.4211L79.1923 60.3925C79.6584 60.2821 79.9896 59.8691 79.9978 59.3907C79.9978 58.8183 79.5112 58.3481 78.9143 58.3481C78.8489 58.3481 78.7875 58.3563 78.7221 58.3645L78.6076 58.3849L72.8998 50.8167L72.9775 50.7022C73.092 50.5346 73.1574 50.3342 73.1574 50.1298C73.1533 50.1053 73.1492 50.0807 73.1492 50.0562L73.141 49.9172L73.2678 49.864L82.9866 45.9634L83.0725 46.0247C83.2606 46.1596 83.4814 46.2292 83.7144 46.2292C84.3114 46.2292 84.802 45.7589 84.802 45.1865C84.7939 44.7777 84.5485 44.4097 84.1765 44.2461L84.0783 44.2011L83.0562 35.8234L83.4528 36.2159C89.9702 42.6638 93.556 51.2787 93.556 60.462C93.556 64.4893 92.865 68.4309 91.5075 72.172L91.4421 72.356L86.9323 70.7001L86.8096 71.0395L86.4457 70.9086L86.5684 70.5652L85.7956 70.279L85.2477 70.5161C84.2051 72.8508 82.8476 75.0301 81.2121 76.9926L81.7559 77.4628C83.3383 75.5575 84.6712 73.4559 85.7138 71.2112L85.7915 71.0517L96.1687 74.8542L96.0869 75.0423C94.1243 79.5604 91.3399 83.6736 87.8727 87.1735C84.2909 90.8084 80.0387 93.7114 75.3448 95.719C70.4956 97.8001 65.2743 98.8673 59.9999 98.8591ZM59.9999 20.3885C54.6559 20.3885 49.4674 21.4475 44.5814 23.5409C39.8671 25.5566 35.5903 28.476 31.9922 32.1272C28.3655 35.7825 25.483 40.1083 23.504 44.8594C21.4351 49.8027 20.3762 55.1058 20.3843 60.462C20.3843 65.4257 21.292 70.3035 23.0829 74.9687L23.1933 75.1936C25.1968 79.8507 28.0548 84.0907 31.6201 87.6969C35.2673 91.3972 39.5972 94.3533 44.3728 96.3936C49.3079 98.5075 54.6232 99.5951 59.9958 99.5869C65.4134 99.5869 70.6674 98.5115 75.6188 96.3936C80.3944 94.3492 84.7284 91.3972 88.3715 87.6969C92.0432 83.9884 94.9625 79.6094 96.9701 74.7929L97.0069 74.7152C98.7282 70.1604 99.6114 65.3316 99.6073 60.4661C99.6155 55.1098 98.5565 49.8068 96.4917 44.8635C94.5087 40.1124 91.6261 35.7866 88.0035 32.1272C84.4054 28.476 80.1286 25.5566 75.4144 23.5409C70.5488 21.4515 65.303 20.3803 59.9999 20.3885ZM59.9999 99.9712C54.5333 99.9712 49.222 98.8877 44.2256 96.7452C39.405 94.6845 35.0301 91.6997 31.3462 87.9668C27.7481 84.3319 24.8615 80.051 22.8417 75.3531L22.7272 75.12C20.924 70.4466 20 65.4747 20 60.462C20 54.9994 21.059 49.7005 23.1483 44.7081C25.1477 39.9121 28.0548 35.5453 31.7142 31.8532C35.349 28.1652 39.6667 25.2213 44.426 23.1852C49.3488 21.0754 54.6478 19.9919 59.9999 20C65.3929 20 70.6346 21.0713 75.5738 23.1811C80.3331 25.2172 84.6508 28.1611 88.2856 31.8491C91.945 35.5453 94.8521 39.908 96.8556 44.7081C98.9408 49.6964 100.012 55.0526 99.9998 60.462C99.9998 65.4011 99.1166 70.2463 97.3708 74.8624L97.3299 74.9483C95.306 79.8057 92.358 84.2256 88.6536 87.9668C84.9738 91.7038 80.5988 94.6845 75.7742 96.7452C70.79 98.8836 65.4215 99.9835 59.9999 99.9712Z" fill="#DEC685"/>
<path fill-rule="evenodd" clip-rule="evenodd" d="M85.8242 49.4307C87.2839 52.9225 88.0321 56.6759 88.0239 60.4621H89.1279C89.1279 56.4838 88.3592 52.6281 86.8423 48.9973L85.8242 49.4307Z" fill="#DEC685"/>
<path fill-rule="evenodd" clip-rule="evenodd" d="M88.2162 60.2697H88.9317C88.9154 56.4877 88.1712 52.7465 86.7361 49.2507L86.0778 49.5328C87.472 52.9387 88.1998 56.5858 88.2162 60.2697ZM89.3161 60.6541H87.8278V60.4619C87.8359 56.7003 87.0918 52.9755 85.6444 49.5042L85.5708 49.3283L86.9405 48.7437L87.0141 48.9236C88.5433 52.5789 89.3242 56.504 89.3161 60.466V60.6541ZM34.1143 78.7712L34.5477 79.2945C34.5927 79.3477 34.9689 79.8302 34.5191 80.2104C34.421 80.3044 34.2901 80.3576 34.1552 80.3617C33.8608 80.3617 33.6237 80.0796 33.6196 80.0796L33.1862 79.5562L34.1143 78.7712ZM34.2247 76.9599L29.8457 80.6642L30.6798 81.6742L32.2376 80.3576L32.671 80.881C32.6996 80.9137 33.3375 81.6742 34.2247 81.6742C34.6213 81.6742 35.0016 81.5229 35.3532 81.2244C36.4694 80.2799 35.9297 79.0247 35.4922 78.4972L34.2247 76.9599Z" fill="#DEC685"/>
<path fill-rule="evenodd" clip-rule="evenodd" d="M33.4565 79.5808L33.7673 79.957C33.8164 80.0142 33.9881 80.1696 34.1516 80.1696C34.2007 80.1696 34.2784 80.1574 34.3929 80.0633C34.675 79.8221 34.491 79.5318 34.3969 79.4132L34.0903 79.0411L33.4565 79.5808ZM34.1557 80.558C33.7714 80.558 33.4852 80.2187 33.4729 80.2064L32.9168 79.5359L34.1394 78.5014L34.6954 79.1761C34.9694 79.5113 35.0593 80.0102 34.6423 80.3618C34.5073 80.4804 34.3356 80.554 34.1557 80.558ZM32.2626 80.0797L32.8187 80.7543C32.8269 80.7625 33.4157 81.478 34.2211 81.478C34.5687 81.478 34.908 81.3431 35.2229 81.0732C36.2246 80.2269 35.734 79.0943 35.3374 78.6118L34.1925 77.2257L30.112 80.6807L30.7008 81.3921L32.2626 80.0797ZM30.6558 81.9482L29.5723 80.6398L34.2457 76.686L35.6399 78.3747C36.1224 78.9553 36.7071 80.3291 35.4764 81.3717C35.0879 81.7029 34.6668 81.8664 34.2252 81.8664C33.2317 81.8664 32.5284 81.0078 32.5243 81.0037L32.2177 80.6316L30.6558 81.9482ZM41.037 83.7513L37.8233 88.5351L40.4442 90.3342L41.1352 89.2997L39.5978 88.2407L42.1164 84.4914L41.037 83.7513Z" fill="#DEC685"/>
<path fill-rule="evenodd" clip-rule="evenodd" d="M38.0923 88.4819L40.3942 90.0643L40.8726 89.3528L39.3311 88.2939L41.8498 84.5445L41.0893 84.0212L38.0923 88.4819ZM40.4964 90.604L37.5566 88.5842L40.983 83.4814L42.3813 84.4382L39.8627 88.1916L41.4 89.2506L40.4964 90.604ZM49.7247 92.4848C49.7206 92.4889 49.5856 92.9018 49.1686 92.9018C49.0746 92.9018 48.9805 92.8855 48.8906 92.8528C48.2854 92.6524 48.4081 92.1536 48.4367 92.0596L49.6429 88.3388L48.404 87.9259L47.2019 91.6466C47.1978 91.663 46.654 93.4211 48.5103 94.0344C48.772 94.1203 49.0214 94.1653 49.2585 94.1653C50.2807 94.1653 50.8204 93.3312 50.9635 92.8896L52.1656 89.1688L50.9267 88.76L49.7247 92.4848Z" fill="#DEC685"/>
<path fill-rule="evenodd" clip-rule="evenodd" d="M48.5263 88.1752L47.3856 91.7079C47.3651 91.7733 46.9113 93.3025 48.5713 93.8544C48.8125 93.9321 49.0456 93.9771 49.2582 93.9771C50.1659 93.9771 50.6484 93.2289 50.7792 92.8364L51.924 89.2996L51.0531 89.0093L49.9083 92.5501C49.7529 92.9754 49.2827 93.1962 48.8534 93.0408C48.8493 93.0367 48.8411 93.0367 48.8371 93.0326C48.191 92.82 48.1706 92.2803 48.2565 91.9982L49.4013 88.4573L48.5263 88.1752ZM49.2582 94.3614C49.0006 94.3614 48.7267 94.3124 48.4486 94.2224C46.4043 93.5478 47.0094 91.6097 47.0176 91.5893L48.281 87.6846L49.8879 88.2161L48.6244 92.1167C48.5876 92.2353 48.5427 92.5297 48.9556 92.6687C49.0251 92.6932 49.0987 92.7055 49.1723 92.7096C49.4299 92.7096 49.528 92.4602 49.5444 92.4234L50.8078 88.5228L52.4147 89.0543L51.1513 92.9549C50.9877 93.4415 50.3908 94.3614 49.2582 94.3614ZM57.3375 91.3481L58.6581 91.3889L58.5191 95.9111L59.8234 95.952L59.9624 91.4257L61.2913 91.4666L61.3322 90.2196L57.3743 90.0969L57.3375 91.3481Z" fill="#DEC685"/>
<path fill-rule="evenodd" clip-rule="evenodd" d="M58.7208 95.7271L59.6367 95.7557L59.7757 91.2295L61.1045 91.2704L61.1332 90.4118L57.5637 90.2973L57.5392 91.16L58.8598 91.2009L58.7208 95.7271ZM60.0129 96.1564L58.3242 96.1033L58.4632 91.5811L57.1426 91.5403L57.1916 89.9089L61.5379 90.0438L61.4848 91.6752L60.156 91.6343L60.0129 96.1564ZM69.5518 93.5356C69.4741 93.556 69.3924 93.5683 69.3147 93.5724C68.8854 93.5724 68.7586 93.1676 68.7464 93.1226L68.223 91.1314C68.223 91.1273 68.1862 90.976 68.2271 90.8084C68.2802 90.5835 68.4438 90.4363 68.7218 90.3627C68.7995 90.3423 68.8813 90.33 68.9631 90.33C69.3924 90.33 69.5191 90.7348 69.5314 90.7798L70.0547 92.771C70.0711 92.865 70.1651 93.372 69.5518 93.5356ZM70.7866 90.4363C70.664 89.962 70.1365 89.0625 69.0407 89.0625C68.824 89.0666 68.6114 89.0952 68.4029 89.1525C67.4175 89.4141 67.0782 90.0356 66.9637 90.5058C66.841 91.0087 66.9555 91.4462 66.9596 91.4626L67.4829 93.4579C67.6056 93.9322 68.133 94.8317 69.2288 94.8317C69.4292 94.8317 69.6418 94.8031 69.8667 94.7417C71.7597 94.2347 71.3141 92.448 71.31 92.4316L70.7866 90.4363Z" fill="#DEC685"/>
<path fill-rule="evenodd" clip-rule="evenodd" d="M68.9577 90.5182C68.8923 90.5182 68.831 90.5264 68.7656 90.5469C68.4957 90.6205 68.4344 90.7472 68.4098 90.8494C68.3812 90.968 68.4057 91.0825 68.4057 91.0825L68.9291 93.0737C68.9455 93.1309 69.064 93.4621 69.5015 93.3517C69.9022 93.2454 69.8981 92.9715 69.8613 92.8161L69.3421 90.8249C69.3298 90.7922 69.248 90.5182 68.9577 90.5182ZM69.3094 93.7647C68.8719 93.7647 68.6306 93.4458 68.5529 93.1718L68.0296 91.1765C68.0255 91.1643 67.9805 90.9721 68.0337 90.7595C68.1073 90.4651 68.3199 90.2688 68.6674 90.1748C68.7615 90.1503 68.8596 90.1339 68.9577 90.1339C69.4279 90.1339 69.6528 90.506 69.7141 90.7268L70.2334 92.718C70.3234 93.0819 70.2089 93.5603 69.5997 93.7197C69.5056 93.7483 69.4075 93.7606 69.3094 93.7647ZM69.0395 89.2548C68.8555 89.2548 68.6552 89.2835 68.4507 89.3366C67.5594 89.5778 67.2527 90.1257 67.1505 90.5469C67.0401 91.0048 67.1423 91.4055 67.1423 91.4096L67.6657 93.4049C67.7761 93.8301 68.2463 94.6356 69.2235 94.6356C69.4075 94.6356 69.6078 94.607 69.8123 94.5497C71.5009 94.0959 71.137 92.5381 71.1166 92.4727L70.5932 90.4814C70.4869 90.0603 70.0167 89.2548 69.0395 89.2548ZM69.2235 95.024C68.0132 95.024 67.4326 94.0305 67.2936 93.5071L66.7703 91.5118C66.6885 91.1643 66.6926 90.8045 66.7744 90.461C66.9011 89.9376 67.2732 89.2548 68.3526 88.9686C68.5897 88.9032 68.8228 88.8705 69.0436 88.8705C70.2579 88.8705 70.8385 89.8641 70.9735 90.3874L71.4968 92.3827C71.6685 93.0696 71.5622 94.4884 69.9145 94.93C69.6773 94.9913 69.4443 95.024 69.2235 95.024ZM77.9979 84.9576L79.4535 87.3618L76.7753 85.714L75.7327 86.36L78.7175 91.2869L79.8296 90.6L78.374 88.1959L81.0521 89.8436L82.0948 89.1976L79.11 84.2666L77.9979 84.9576Z" fill="#DEC685"/>
<path fill-rule="evenodd" clip-rule="evenodd" d="M75.9981 86.4212L78.7826 91.021L79.5676 90.5385L77.7972 87.6151L81.0518 89.6186L81.8287 89.1361L79.0442 84.5363L78.2592 85.0188L80.0296 87.9422L76.775 85.9387L75.9981 86.4212ZM78.6558 91.5566L75.4707 86.2945L76.775 85.4849L78.8725 86.7769L77.7318 84.892L79.171 84.0007L82.3561 89.2629L81.0518 90.0724L78.9543 88.7804L80.095 90.6653L78.6558 91.5566ZM84.7725 79.0697C83.9875 79.9651 83.9425 80.9996 84.658 81.6415C84.8747 81.8378 85.1691 81.9359 85.5249 81.9359C86.0155 81.9359 86.5716 81.756 87.0622 81.5924C87.4547 81.4657 87.8227 81.343 88.0639 81.343C88.1212 81.343 88.203 81.3512 88.2438 81.3839C88.5137 81.6251 88.1498 82.0586 88.1375 82.0749L87.1154 83.2402L88.0312 84.062L89.0534 82.8926C89.4827 82.402 89.7035 81.85 89.6708 81.3389C89.6463 80.9464 89.4664 80.5784 89.1679 80.3208C88.9512 80.1246 88.6609 80.0265 88.3052 80.0265C87.8145 80.0265 87.2544 80.2105 86.7637 80.3699C86.3712 80.5008 85.9991 80.6193 85.7579 80.6193C85.7007 80.6193 85.6189 80.6111 85.578 80.5743C85.3122 80.3331 85.6802 79.9038 85.6966 79.8834L86.7106 78.7222L85.7865 77.8962L84.7725 79.0697Z" fill="#DEC685"/>
<path fill-rule="evenodd" clip-rule="evenodd" d="M87.3855 83.232L88.0151 83.7962L88.9065 82.774C89.3031 82.3202 89.5075 81.8214 89.4789 81.3593C89.4585 81.0159 89.299 80.697 89.0414 80.4721C88.8615 80.3085 88.6121 80.2268 88.3054 80.2268C87.8475 80.2268 87.3037 80.4067 86.8253 80.562C86.2161 80.7624 85.66 80.9178 85.4474 80.7297C85.153 80.4639 85.3043 80.0591 85.5456 79.7688L86.441 78.7467L85.8032 78.1783L84.9159 79.1923C84.2086 80.0019 84.1513 80.9259 84.781 81.4902C84.965 81.6537 85.2103 81.7355 85.521 81.7355C85.979 81.7355 86.5187 81.5597 86.993 81.4043C87.6022 81.204 88.1542 81.0486 88.3668 81.2367C88.6653 81.5024 88.5058 81.9195 88.2809 82.1934L87.3855 83.232ZM88.0519 84.3441L86.8458 83.2647L87.9947 81.9522C88.056 81.8786 88.2155 81.6374 88.1255 81.5392C88.1255 81.5433 88.1051 81.5392 88.0683 81.5392C87.8557 81.5392 87.4836 81.6578 87.1238 81.7764C86.6168 81.944 86.0485 82.128 85.5292 82.128C85.1244 82.128 84.7892 82.0135 84.5316 81.7846C83.7302 81.065 83.7711 79.9242 84.6297 78.9429L85.7745 77.6345L86.9848 78.718L85.844 80.0223C85.7786 80.1 85.6151 80.3413 85.7009 80.4394C85.705 80.4353 85.7255 80.4394 85.7582 80.4394C85.9749 80.4394 86.3429 80.3167 86.7068 80.1981C87.2138 80.0305 87.7862 79.8424 88.3095 79.8424C88.7143 79.8424 89.0496 79.9569 89.3031 80.1859C89.6465 80.4925 89.8428 80.8932 89.8673 81.3348C89.9 81.895 89.6629 82.496 89.2009 83.0234L88.0519 84.3441Z" fill="#DEC685"/>
</svg>
