<svg width="120" height="120" viewBox="0 0 120 120" fill="none" xmlns="http://www.w3.org/2000/svg">
<circle cx="60" cy="60" r="60" fill="#EDF0F4"/>
<path d="M88.0086 42.8743L84.7188 40.4832L92.4131 36.6001L88.0086 42.8743Z" fill="#3F4B80"/>
<path d="M68.4492 35L78.0312 39.9258L79.1818 47.8719L68.4492 35Z" fill="#313A62"/>
<path d="M79.1818 47.8719L77.6537 54.6315L68.4492 35L79.1818 47.8719Z" fill="#3F4B80"/>
<path d="M77.654 54.6314L62.9844 36.1145L68.4675 35.0359L77.654 54.6314Z" fill="#4B5897"/>
<path d="M77.6543 54.6314L61.7441 48.4111L62.9846 36.1145L77.6543 54.6314Z" fill="#5161A4"/>
<path d="M62.9846 36.1145L61.7441 48.4111L45.3486 50.7123L62.9846 36.1145Z" fill="#4B5897"/>
<path d="M77.6535 54.6314L60.1074 59.3954L61.7434 48.4111L77.6535 54.6314Z" fill="#4B5897"/>
<path d="M60.1074 59.3954L77.6535 54.6313L69.7434 58.3167L60.1074 59.3954Z" fill="#3F4B80"/>
<path d="M50.418 61.0494L60.1079 59.3955L60.2697 62.7034L50.418 61.0494Z" fill="#3F4B80"/>
<path d="M60.2692 62.7034L60.1074 59.3955L69.7434 58.3169L60.2692 62.7034Z" fill="#313A62"/>
<path d="M45.3486 50.7123L61.7441 48.4111L60.1082 59.3954L45.3486 50.7123Z" fill="#3F4B80"/>
<path d="M45.3486 50.7124L60.1082 59.3955L50.4183 61.0495L45.3486 50.7124Z" fill="#4B5897"/>
<path d="M45.3486 50.7124L50.4183 61.0495L45.5284 64.627L45.3486 50.7124Z" fill="#313A62"/>
<path d="M37.0245 53.4988L38.9841 65.2741L33.5908 57.1662L37.0245 53.4988Z" fill="#5161A4"/>
<path d="M27.3711 57.2382L33.5913 57.1663L33.6273 60.9595L27.3711 57.2382Z" fill="#313A62"/>
<path d="M27.8745 59.8091L27.3711 57.2383L33.6273 60.9596L27.8745 59.8091Z" fill="#3F4B80"/>
<path d="M27.874 59.8091L24.3145 62.9551L27.3706 57.2383L27.874 59.8091Z" fill="#4B5897"/>
<path d="M24.3146 62.9551L24.0629 64.8607L20 64.1955L24.3146 62.9551Z" fill="#313A62"/>
<path d="M24.3142 62.9551L27.8737 59.8091L24.0625 64.8608L24.3142 62.9551Z" fill="#5161A4"/>
<path d="M33.5908 57.1663L38.9841 65.2741L33.6268 66.3348L33.5908 57.1663Z" fill="#3F4B80"/>
<path d="M35.1727 72.3752L31.2716 80.4472L30.6963 74.2269L35.1727 72.3752Z" fill="#3F4B80"/>
<path d="M30.6963 74.2271L31.2716 80.4473L29.0244 81.5259L30.6963 74.2271Z" fill="#1F243E"/>
<path d="M31.2715 80.4473L31.8648 83.4855L27.2266 84.4383L31.2715 80.4473Z" fill="#3F4B80"/>
<path d="M29.0243 81.5259L31.2715 80.4473L27.2266 84.4383L29.0243 81.5259Z" fill="#313A62"/>
<path d="M33.6266 66.3348L38.9839 65.2742L30.6963 74.227L33.6266 66.3348Z" fill="#313A62"/>
<path d="M38.9839 65.2742L42.6334 69.427L30.6963 74.227L38.9839 65.2742Z" fill="#4B5897"/>
<path d="M37.0244 53.4989L45.348 50.7124L38.984 65.2742L37.0244 53.4989Z" fill="#4B5897"/>
<path d="M38.9844 65.2742L45.3484 50.7124L45.5282 64.627L38.9844 65.2742Z" fill="#3F4B80"/>
<path d="M42.6338 69.427L38.9844 65.2741L45.5282 64.627L42.6338 69.427Z" fill="#313A62"/>
<path d="M69.7441 58.3169L77.4565 58.2629L72.5307 65.7775L69.7441 58.3169Z" fill="#4B5897"/>
<path d="M69.7441 58.3167L77.6543 54.6313L77.4565 58.2628L69.7441 58.3167Z" fill="#5161A4"/>
<path d="M68.2334 64.9686L69.7435 58.3169L72.53 65.7776L68.2334 64.9686Z" fill="#3F4B80"/>
<path d="M66.3818 68.4561L68.2335 64.9685L72.5302 65.7775L66.3818 68.4561Z" fill="#4B5897"/>
<path d="M62.6426 70.955L63.8111 65.2382L68.2336 64.9685L62.6426 70.955Z" fill="#3F4B80"/>
<path d="M62.6426 70.955L68.2336 64.9685L66.3819 68.4561L62.6426 70.955Z" fill="#313A62"/>
<path d="M84.7188 40.4831L92.0536 35.3416L92.4131 36.6L84.7188 40.4831Z" fill="#495692"/>
<path d="M92.0537 35.3415L98.0582 35.0359L92.4133 36.5999L92.0537 35.3415Z" fill="#5D6CAC"/>
<path d="M88.2071 47.0809L84.8633 44.7258L96.1711 44.7438L88.2071 47.0809Z" fill="#4F60A3"/>
<path d="M84.8633 44.726L94.5891 43.4675L96.1711 44.7439L84.8633 44.726Z" fill="#495692"/>
<path d="M94.5889 43.4675L99.0473 39.5664L96.1709 44.7439L94.5889 43.4675Z" fill="#3F4B80"/>
<path d="M96.1709 44.7439L99.0473 39.5664L100 40.0158L96.1709 44.7439Z" fill="#4F60A3"/>
<path d="M99.0469 39.5663L99.8379 37.3191L99.9997 40.0157L99.0469 39.5663Z" fill="#313A62"/>
<path d="M79.1824 47.8718L80.261 57.328L77.6543 54.6314L79.1824 47.8718Z" fill="#313A62"/>
<path d="M80.2603 57.328L79.1816 47.8718L88.2064 47.0808L80.2603 57.328Z" fill="#3F4B80"/>
<path d="M88.2065 47.0808L79.1818 47.8718L78.0312 39.9258L88.2065 47.0808Z" fill="#4B5897"/>
<path d="M88.0093 42.8743L89.4655 44.1866L84.8633 44.726L88.0093 42.8743Z" fill="#313A62"/>
<path d="M78.0312 39.9258L88.0088 42.8741L84.8627 44.7258L78.0312 39.9258Z" fill="#3F4B80"/>
<path d="M78.0312 39.9258L84.7189 40.4831L88.0088 42.8741L78.0312 39.9258Z" fill="#313A62"/>
<path d="M87.793 62.0381L88.2065 47.0808L91.802 50.0111L87.793 62.0381Z" fill="#3F4B80"/>
<path d="M87.7933 62.0381L88.2068 47.0808L80.2607 57.328L87.7933 62.0381Z" fill="#495692"/>
<path d="M91.8025 50.0113L90.652 46.272L88.207 47.081L91.8025 50.0113Z" fill="#313A62"/>
<path d="M92.2874 59.9708L87.793 62.0382L91.802 50.0112L92.2874 59.9708Z" fill="#313A62"/>
</svg>
