<svg width="120" height="120" viewBox="0 0 120 120" fill="none" xmlns="http://www.w3.org/2000/svg">
<circle cx="60" cy="60" r="60" fill="#EDF0F4"/>
<path d="M99.0829 59.1487C96.852 56.9977 94.7426 54.7285 92.5117 52.5775C91.8566 52.0726 91.6264 51.1873 91.9556 50.4266C92.8729 47.32 93.6687 44.2134 94.5444 41.1068C94.7842 40.3494 94.6627 40.033 93.8285 39.8316C90.642 39.0358 87.4971 38.0802 84.2691 37.2812C83.3518 37.083 82.9938 36.6036 82.7957 35.7662C81.9999 32.6596 81.1241 29.633 80.3667 26.5264C80.127 25.6091 79.8489 25.4109 78.9316 25.689C75.8251 26.5647 72.6801 27.3605 69.5736 28.1596C69.0558 28.3194 68.5764 28.4376 68.1002 27.9614C65.5497 25.3374 62.881 22.8285 60.4136 20.0799C60.1324 20.0863 59.8511 20.0607 59.5762 20C59.5922 20.2109 59.4836 20.4155 59.2982 20.5178C56.9075 22.8669 54.5201 25.216 52.1678 27.6066C51.7171 28.1596 50.9564 28.3545 50.2949 28.0861C47.1883 27.2103 44.0817 26.4145 40.9751 25.5356C40.0994 25.2959 39.7414 25.4557 39.5017 26.373C38.7059 29.4795 37.7886 32.5861 36.9928 35.6927C36.9097 36.3447 36.4079 36.8657 35.7591 36.9679C32.6142 37.7638 29.546 38.6395 26.401 39.3969C25.3655 39.6367 25.0875 39.9946 25.4039 41.0685C26.3211 44.1367 27.0371 47.2817 27.9128 50.3882C28.194 51.0498 27.9991 51.8137 27.4334 52.2611C25.0843 54.5303 22.8119 56.8826 20.4627 59.1519C19.8267 59.7495 19.8651 60.1075 20.4627 60.7051C22.7735 62.9744 25.0044 65.2851 27.3119 67.5543C27.8808 67.9762 28.095 68.7305 27.8297 69.3857C26.954 72.4539 26.1965 75.5189 25.2792 78.5872C24.9596 79.661 25.1194 80.1021 26.2764 80.3802C29.383 81.1376 32.4097 82.0517 35.5162 82.8092C36.4335 83.0073 36.7915 83.4867 36.9896 84.3241C37.7854 87.469 38.6612 90.5373 39.4602 93.6822C39.6583 94.478 39.9396 94.6794 40.7354 94.4397C43.8036 93.5639 46.907 92.848 49.9753 91.9691C50.7903 91.6623 51.7107 91.9212 52.2445 92.6051C54.4338 94.8743 56.6646 97.0668 58.8571 99.336C59.5347 100.052 59.931 100.094 60.6501 99.3744C62.8394 97.0636 65.1502 94.8743 67.3811 92.5636C67.8828 91.902 68.7618 91.6591 69.532 91.9659C72.6002 92.8832 75.6653 93.6375 78.7335 94.5164C79.6092 94.7561 79.9672 94.5963 80.2069 93.679C80.9643 90.6108 81.92 87.5457 82.6774 84.4775C82.8756 83.5602 83.3135 83.2023 84.1924 83.0041C87.299 82.2467 90.3256 81.3709 93.4322 80.6135C94.3495 80.4153 94.6275 80.0574 94.3495 79.0985C93.4738 75.992 92.6779 72.8055 91.799 69.6605C91.5178 68.9989 91.7127 68.2351 92.2784 67.7876C94.5476 65.5983 96.7785 63.2876 99.0893 61.0983C99.9202 60.3056 99.8403 59.9061 99.0829 59.1487Z" fill="#05BCA9"/>
<path d="M40.0192 57.3588C40.0192 57.362 40.0192 57.3652 40.0192 57.3684C40.0064 58.7204 38.9006 59.8038 37.5486 59.791H35.0781C34.0426 59.791 33.007 59.791 31.9331 59.8294C31.377 59.8294 31.2172 59.6312 31.3355 59.0719C31.6135 57.9181 31.8916 57.0009 33.4065 56.7612C35.3593 56.4831 37.229 55.8055 39.1403 55.2462C39.8179 55.0864 40.0959 55.1663 40.016 55.8822C39.9808 56.3617 40.0192 56.8794 40.0192 57.3588Z" fill="#EDF0F4"/>
<path d="M39.9008 79.0889C38.258 77.542 36.7878 76.1134 35.2793 74.6847C36.5545 73.9688 37.7882 73.2912 38.9835 72.5753C39.6611 72.1758 39.9008 72.2557 39.9008 73.0931C39.8625 75.0363 39.9008 77.0242 39.9008 79.0889Z" fill="#EDF0F4"/>
<path d="M35.4803 73.8473C35.0009 74.1254 34.8827 74.0071 34.7644 73.5277C34.4065 72.0927 33.9686 70.6608 33.6106 69.2258C33.5307 68.9062 33.4924 68.5099 33.8088 68.3085C34.1284 68.1104 34.3649 68.3884 34.6046 68.5067C36.2378 69.424 37.871 70.3796 39.7439 71.4151C38.229 72.2525 36.8323 73.0099 35.4803 73.8473Z" fill="#EDF0F4"/>
<path d="M32.4546 52.4976C32.0551 53.4948 30.6616 53.6514 29.7476 54.2906C28.8303 51.9415 28.8303 51.9415 30.4251 50.3083C31.5406 49.1929 32.656 48.119 33.7714 47.0036C33.8737 46.9396 33.9792 46.8885 34.091 46.8438C33.5285 48.8349 33.1705 50.7462 32.4546 52.4976Z" fill="#EDF0F4"/>
<path d="M34.8409 46.406C34.9208 46.0481 35.1989 46.128 35.397 46.2462C36.7522 47.042 38.0658 47.8378 39.5775 48.7168C37.4266 49.9505 35.4738 51.0659 33.2461 52.2612C33.8054 50.1486 34.3232 48.2757 34.8409 46.406Z" fill="#EDF0F4"/>
<path d="M30.662 56.8795C30.2241 56.8795 30.2241 56.4417 30.1442 56.1636C29.7063 54.85 29.7862 54.7701 32.1769 53.7729C31.9532 54.6902 31.739 55.4445 31.5569 56.1636C31.4961 56.6015 31.103 56.9179 30.662 56.8795Z" fill="#EDF0F4"/>
<path d="M28.2712 57.5571C26.7563 57.9566 25.2445 58.3145 23.7296 58.6725L23.6113 58.5127L29.1086 55.2878C30.0258 57.0009 29.9843 57.1192 28.2712 57.5571Z" fill="#EDF0F4"/>
<path d="M29.4275 57.8767C30.463 57.637 30.1434 58.714 30.3447 59.1519C30.5429 59.5898 30.2648 59.7879 29.7886 59.7879H23.2942C23.2942 59.708 23.2559 59.5898 23.2559 59.5099C25.2854 58.9921 27.3149 58.3944 29.4275 57.8767Z" fill="#EDF0F4"/>
<path d="M30.9883 61.6448C31.3846 63.1501 31.7809 64.6555 32.2316 66.2791C29.2113 64.8089 29.6012 65.6367 30.9883 61.6448Z" fill="#EDF0F4"/>
<path d="M29.9614 65.9211C30.9586 65.8827 32.7484 67.5543 32.7484 68.4715C32.4927 69.1491 31.9525 69.7851 31.4348 70.5042C31.3964 70.5042 31.3549 70.5426 31.3165 70.5426C30.917 70.6225 28.9674 68.2318 29.0473 67.794C29.0857 67.7141 29.0857 67.6342 29.1272 67.5543C29.4021 66.9949 29.0857 65.9594 29.9614 65.9211Z" fill="#EDF0F4"/>
<path d="M30.8376 72.4922C31.2371 71.8945 31.5152 71.6548 32.0713 72.3324C32.5858 72.9205 33.1292 73.4766 33.7045 74.0039C33.9026 74.2436 34.3021 74.4418 33.7844 74.7614C31.5152 76.0366 29.2044 77.3502 26.9352 78.6255C26.8713 78.5679 26.8201 78.5008 26.7754 78.4273C28.1113 76.4361 29.4665 74.4834 30.8376 72.4922Z" fill="#EDF0F4"/>
<path d="M33.0523 69.4656C33.4103 70.7408 33.7299 72.016 34.0879 73.368C31.499 71.5366 31.4191 71.2969 33.0523 69.4656Z" fill="#EDF0F4"/>
<path d="M34.0087 66.7169C33.5708 67.3945 33.0914 67.1164 32.9348 66.5571C32.3787 64.6459 31.8609 62.7346 31.3815 60.8234C31.1833 60.1873 31.7394 60.344 32.0591 60.344H38.3905C36.834 62.6164 35.4405 64.6874 34.0087 66.7169Z" fill="#EDF0F4"/>
<path d="M39.6624 54.5303C37.2334 55.1663 34.8044 55.8055 32.2539 56.4831C32.4137 54.1723 33.2095 52.6606 35.3221 51.8232C36.9138 51.1872 38.3488 50.1517 40.0619 49.196V53.9742C40.0971 54.2331 39.9245 54.4791 39.6624 54.5303Z" fill="#EDF0F4"/>
<path d="M40.0201 42.3022V48.2373C38.5467 47.3999 37.2331 46.6041 35.9579 45.8466C35.52 45.6069 35.4018 45.3672 35.8396 44.9293C36.9135 43.8938 37.949 42.8583 38.9846 41.7844C39.1795 41.4999 39.5503 41.4009 39.8603 41.5447C40.1799 41.6661 40.0201 42.0241 40.0201 42.3022Z" fill="#EDF0F4"/>
<path d="M35.5996 43.9353C35.9991 41.1068 36.1973 40.9087 38.2683 41.5447C37.3511 42.382 36.437 43.1779 35.5996 43.9353Z" fill="#EDF0F4"/>
<path d="M39.7037 28.6038C39.7836 28.6421 39.9018 28.6421 39.9817 28.6837V33.9795C39.9817 36.1689 39.9817 36.1689 37.5527 36.4885C38.2687 33.8197 38.9846 31.1926 39.7037 28.6038Z" fill="#EDF0F4"/>
<path d="M37.0732 38.1218C37.233 37.0862 38.0288 37.2045 38.7064 36.9264C39.8601 36.447 40.0998 36.9648 39.9816 37.962V38.4414C39.9816 40.5923 38.9077 41.3881 36.9134 40.6722C36.6737 40.5923 36.5138 40.5124 36.5554 40.2727C36.7152 39.5536 36.9549 38.8377 37.0732 38.1218Z" fill="#EDF0F4"/>
<path d="M27.9121 39.755C30.7566 39.0391 33.6075 38.2816 36.5958 37.5242C36.3561 38.4798 36.158 39.2373 35.9598 40.0331C35.8 40.6691 35.3238 40.5508 34.8859 40.5125C32.5752 40.3143 30.2261 40.1545 27.877 39.9564C27.9057 39.8925 27.9185 39.8221 27.9121 39.755Z" fill="#EDF0F4"/>
<path d="M34.9211 41.1069C35.4772 41.1452 35.5987 41.3466 35.4772 41.9027C34.7613 45.1691 34.7996 45.1691 31.9711 43.4943C30.4977 42.6186 28.9828 41.7429 27.3496 40.7873C30.0247 40.5508 32.4921 40.9886 34.9211 41.1069Z" fill="#EDF0F4"/>
<path d="M26.2791 41.3081C26.2408 41.1899 26.2408 41.11 26.1992 40.9885C26.3175 40.9885 26.3974 41.0269 26.5188 41.0269C28.9095 42.4204 31.3385 43.8554 33.8059 45.2489C34.0456 45.4087 34.4035 45.4886 34.004 45.9265C32.3708 47.598 30.7792 49.3111 29.1843 51.0242C29.0309 50.973 28.8839 50.9091 28.7465 50.826C27.9123 47.6395 27.1165 44.4946 26.2791 41.3081Z" fill="#EDF0F4"/>
<path d="M28.3506 52.3794C28.4688 52.4976 28.5903 52.5392 28.5903 52.5776C29.1464 54.6103 29.1464 54.6103 27.315 55.6458C25.9599 56.4416 24.5664 57.1991 23.0547 58.0364C24.886 56.0421 26.5991 54.2107 28.3506 52.3794Z" fill="#EDF0F4"/>
<path d="M21.9016 60.344C24.4521 60.344 26.961 60.344 29.5083 60.3057C30.1858 60.3057 30.4639 60.4239 30.1858 61.2229C29.7863 62.2968 29.8279 64.0099 29.112 64.3679C28.2746 64.8057 27.1208 63.4921 26.1236 62.9744C24.6886 62.2169 23.2951 61.3412 21.8633 60.5454C21.8761 60.4783 21.892 60.4111 21.9016 60.344Z" fill="#EDF0F4"/>
<path d="M22.8945 62.0987L22.9329 62.0603C24.9656 62.8178 26.717 64.093 28.5867 65.1285C29.1045 65.4066 28.9862 66.1257 28.2288 67.6374C26.4006 65.7997 24.5661 64.0483 22.8945 62.0987Z" fill="#EDF0F4"/>
<path d="M28.6295 69.146C28.7477 69.1843 28.8692 69.1843 28.9075 69.2259C30.9786 71.217 30.9786 71.217 29.3454 73.5662C28.4697 74.8414 27.5524 76.0751 26.6767 77.3088L26.4785 77.149L28.6295 69.146Z" fill="#EDF0F4"/>
<path d="M26.1992 79.7792C28.9862 78.1876 31.4951 76.7526 34.0456 75.3175C34.3652 75.1194 34.525 75.1577 34.6432 75.5572C35.2409 77.8264 35.8386 80.0573 36.5161 82.5662C32.9717 81.5722 29.7437 80.6965 26.1992 79.7792Z" fill="#EDF0F4"/>
<path d="M39.7987 91.4098C39.7188 91.4098 39.6389 91.4481 39.559 91.4481C38.8431 88.8593 38.1655 86.2705 37.4496 83.6018H37.4336C37.7117 83.5634 37.7916 83.5219 37.8874 83.5634C39.7987 84.0013 39.7987 84.0013 39.7987 85.9924V91.4098Z" fill="#EDF0F4"/>
<path d="M39.8628 83.2853C39.5848 83.3237 39.5432 83.3652 39.5432 83.3652C37.7918 83.247 36.8361 82.368 36.5964 80.5782C36.3567 79.0633 35.8805 77.6315 35.7207 76.0366C36.9959 77.3119 38.3479 78.5072 39.5048 79.9007C40.339 80.8946 39.5432 82.1315 39.8628 83.2853Z" fill="#EDF0F4"/>
<path d="M40.0191 64.1696L39.9009 69.7467C39.9009 70.4627 39.7826 70.7823 39.0252 70.3028C37.67 69.507 36.3181 68.7112 34.9214 67.9921C34.3237 67.6725 34.3237 67.3944 34.6817 66.8767C36.0752 64.8855 37.4687 62.8944 38.8238 60.8617C38.9804 60.5101 39.3608 60.3119 39.7411 60.3822C40.2972 60.4621 40.0191 60.9 40.0191 61.1781C40.0607 62.1752 40.0191 63.1724 40.0191 64.1696Z" fill="#EDF0F4"/>
<path d="M74.2716 45.3703C73.0763 44.5745 71.6029 44.2549 71.0851 42.7016C70.8774 42.2573 70.8933 41.7396 71.1235 41.3081C72.159 39.595 73.1562 37.8819 74.1118 36.1688C74.5113 35.4913 74.7478 35.6127 75.2656 36.0506C76.1413 36.808 76.4609 37.5655 76.0614 38.7193C75.387 40.9086 74.8693 43.1394 74.2716 45.3703Z" fill="#EDF0F4"/>
<path d="M79.2511 75.4007C79.2511 78.7054 79.2511 78.7054 75.9464 78.4273C74.3548 78.3091 72.7216 78.1493 71.1267 78.0278C70.7272 77.9895 70.4108 77.9479 70.2894 77.4717C70.1711 76.9923 70.609 76.954 70.887 76.7942C73.3959 75.4007 75.8665 74.0072 78.3339 72.5721C79.0913 72.1343 79.331 72.3324 79.2511 73.1698C79.2096 73.9273 79.2511 74.6432 79.2511 75.4007Z" fill="#EDF0F4"/>
<path d="M64.8719 85.4747C63.5167 84.4776 61.9634 83.7233 60.4102 82.806C61.8452 82.0102 63.1588 81.2527 64.5139 80.4569C64.7472 80.2779 65.0796 80.3131 65.2714 80.5368C67.0228 82.2883 68.8158 84.0429 70.6472 85.8742C70.4075 86.0724 70.3691 86.114 70.3691 86.114C68.4163 86.9897 66.6265 86.8299 64.8719 85.4747Z" fill="#EDF0F4"/>
<path d="M66.5052 87.1493C64.4342 87.6671 62.6028 88.1849 60.7715 88.6643C60.3336 88.7825 60.1738 88.6643 60.1738 88.1849V83.4067C62.3631 84.6788 64.3159 85.8326 66.5052 87.1493Z" fill="#EDF0F4"/>
<path d="M46.2742 85.1966C45.718 85.0368 45.9961 84.7172 46.1559 84.4392C47.1914 82.6462 48.2653 80.8532 49.3807 78.9036C50.5345 81.3326 51.6116 83.5634 52.6471 85.7943C53.0466 86.5901 52.6471 86.8682 52.0111 86.7116C50.0967 86.2737 48.1854 85.7144 46.2742 85.1966Z" fill="#EDF0F4"/>
<path d="M51.5315 87.2294C48.9043 88.9808 48.8244 88.9425 46.5137 85.8743C48.2236 86.3505 49.8184 86.75 51.5315 87.2294Z" fill="#EDF0F4"/>
<path d="M45.4952 75.2792C45.5336 75.0811 45.655 74.8797 45.8947 75.0395C46.7321 75.5573 47.7261 75.797 48.3237 76.6727C48.9214 77.5484 49.1611 78.4242 48.4036 79.4597C47.4959 80.7925 46.6841 82.1923 45.9746 83.6402C45.3769 84.7939 44.9007 84.714 44.2232 83.8C43.9451 83.4004 43.3858 83.2023 43.5072 82.5663C44.1624 80.1405 44.8017 77.7082 45.4952 75.2792Z" fill="#EDF0F4"/>
<path d="M40.5779 37.2044C40.5715 37.1725 40.5651 37.1373 40.5651 37.1053C40.5299 36.6675 40.8591 36.2839 41.297 36.2488C42.1727 36.089 43.0484 35.8493 43.9241 35.6128C44.0296 35.5936 44.1383 35.5936 44.2438 35.6128C44.1702 35.6607 44.1127 35.731 44.0839 35.8109C42.9685 36.8848 41.8531 38.0002 40.5779 39.2371C40.5779 38.4796 40.6162 37.8436 40.5779 37.2044Z" fill="#EDF0F4"/>
<path d="M40.8562 39.9946C42.2912 38.4796 43.7646 37.0062 45.3562 35.373C46.5899 37.524 47.667 39.4353 48.9422 41.5862C46.1137 41.3881 43.5249 41.2282 40.9776 40.9502C40.2201 40.8703 40.5366 40.311 40.8562 39.9946Z" fill="#EDF0F4"/>
<path d="M54.4372 34.379C55.9106 35.5328 57.6621 36.3702 59.4551 37.4057C58.02 38.2431 56.748 38.959 55.4727 39.7165C55.1531 39.9146 54.9166 40.0361 54.597 39.7165C52.8456 37.9235 51.0526 36.172 49.1797 34.2991C51.0941 33.5417 52.6858 33.0239 54.4372 34.379Z" fill="#EDF0F4"/>
<path d="M53.3633 33.1039C55.396 32.5478 57.1858 32.0683 59.0171 31.5889C59.455 31.4707 59.6947 31.509 59.6947 32.0683V36.8081C57.5437 35.5712 55.5526 34.3791 53.3633 33.1039Z" fill="#EDF0F4"/>
<path d="M58.1978 49.7905C57.7983 49.3111 57.1623 49.8288 56.6829 49.9503C54.6917 50.4297 54.7301 50.4681 53.6945 48.6751C52.8188 47.0834 51.9431 45.4886 50.9875 43.9353C50.6295 43.2993 50.6678 42.9797 51.3454 42.7016C51.7449 42.5418 52.1029 42.3437 52.4608 42.1838C53.2982 41.8259 54.0525 40.8703 54.8515 41.0301C55.7688 41.2282 56.3249 42.3053 57.0408 42.9829C59.2557 45.2137 61.445 47.4829 63.7174 49.6339C64.5739 50.4201 65.1013 51.5004 65.1908 52.6606C62.618 52.2227 60.0931 51.8232 57.6001 51.347C57.6001 51.2671 57.5618 51.1872 57.6001 51.1073C57.7184 50.6279 58.6356 50.3466 58.1978 49.7905Z" fill="#EDF0F4"/>
<path d="M40.617 44.7312L40.633 44.3317C40.633 41.5032 40.633 41.5032 43.3816 41.7045C45.1331 41.8228 46.9261 42.0242 48.6775 42.1424C49.077 42.1808 49.419 42.1808 49.5373 42.6602C49.6555 43.1396 49.2177 43.1779 48.9812 43.3377L41.4544 47.6396C40.6586 48.1191 40.5787 47.7579 40.617 47.0835C40.6586 46.2845 40.617 45.5302 40.617 44.7312Z" fill="#EDF0F4"/>
<path d="M43.1252 47.3999C45.2346 46.3644 47.1874 45.169 49.1786 43.9737C49.936 43.4943 50.2141 43.734 50.5721 44.4116C51.5277 46.2429 52.5632 48.0359 53.6403 49.7874C54.0782 50.5033 53.9599 50.7046 53.1609 50.9028C49.3767 51.8584 45.5926 52.8939 41.8116 53.9295C40.9743 54.1692 40.6579 54.0893 40.7761 53.172C40.8145 52.6159 40.7761 52.0182 40.7761 51.1009C40.0985 49.2344 41.3354 48.2373 43.1252 47.3999Z" fill="#EDF0F4"/>
<path d="M40.6591 58.9506C40.6975 58.4328 40.7774 57.8767 40.7774 57.359C40.8158 54.85 40.8158 54.85 43.1681 54.214C46.2363 53.4182 49.3013 52.6224 52.3695 51.7435C53.6032 51.3855 54.7986 51.2257 56.1121 51.8617C54.4406 53.8529 52.8074 55.844 51.2126 57.8352C50.6565 57.4357 50.893 56.4001 50.2154 56.48C49.6177 56.5599 49.7775 57.4357 49.5794 57.9534C49.4356 58.3402 49.3301 58.7397 49.2598 59.1488C49.2598 59.1583 49.2566 59.1711 49.2566 59.1807C49.1831 59.6314 48.758 59.9382 48.3041 59.8647C46.0349 59.8263 43.7625 59.7848 41.4933 59.8263C40.7774 59.8263 40.5792 59.5483 40.6591 58.9506Z" fill="#EDF0F4"/>
<path d="M49.141 33.5801C48.7351 33.7271 48.2845 33.5354 48.1055 33.1422C47.8274 32.7044 48.2653 32.5446 48.4635 32.3464C49.4191 31.3109 49.4606 31.3109 51.6499 32.9025C50.7327 33.1422 49.8985 33.302 49.141 33.5801Z" fill="#EDF0F4"/>
<path d="M48.2389 31.6306C47.7211 32.388 47.2417 32.4264 46.5673 31.6689C45.5702 30.5535 44.4579 29.518 43.3809 28.4441C43.4192 28.3642 43.4608 28.2459 43.4991 28.166C45.356 28.8819 46.9093 30.1572 48.5968 30.9945C48.6384 31.3493 48.3603 31.4292 48.2389 31.6306Z" fill="#EDF0F4"/>
<path d="M49.7392 35.7311C51.2542 37.2045 52.7276 38.6778 54.3607 40.2727C53.6161 40.7649 52.8458 41.2187 52.05 41.6278C50.9378 42.1296 49.6274 41.6758 49.0617 40.5923C48.0261 38.7609 46.9906 36.9679 45.9551 35.1366C48.2243 34.2193 48.2243 34.2577 49.7392 35.7311Z" fill="#EDF0F4"/>
<path d="M40.5379 61.3794C40.5379 60.622 40.6561 60.3056 41.535 60.3439C43.686 60.4238 45.8369 60.3823 47.9879 60.3823C48.544 60.3823 48.8636 60.4622 48.6655 61.1397C47.5117 65.3202 46.3963 69.5039 45.2393 73.8058C44.5234 73.3679 43.9257 73.0483 43.3664 72.7319C40.4196 71.0603 40.4196 71.0603 40.4995 67.7141C40.5794 65.6015 40.5794 63.492 40.5379 61.3794Z" fill="#EDF0F4"/>
<path d="M50.0577 78.7852C49.8595 78.4273 49.7381 78.1077 50.0961 77.7881C50.3741 77.51 50.6138 77.7881 50.8535 77.9063C53.6021 79.498 56.3092 81.1311 59.1761 82.8059C57.463 83.8031 55.9097 84.7171 54.398 85.6344C53.8802 85.9924 53.5222 86.1138 53.2026 85.3564C52.2087 83.167 51.1316 80.9745 50.0577 78.7852Z" fill="#EDF0F4"/>
<path d="M49.3018 76.1966C48.9822 75.9984 48.7041 75.7587 48.3845 75.5606C47.5472 74.9629 46.1537 74.8447 45.9555 73.889C45.7574 73.0133 46.355 71.9362 46.6331 70.9423C47.4289 68.0754 48.2663 65.2469 48.9438 62.3384C49.1772 61.1144 49.8771 60.0309 50.8966 59.3118C51.6925 61.5011 52.4499 63.652 53.3257 65.6847C53.5654 66.4007 53.5238 66.6819 52.6896 66.5221C52.4116 66.4837 52.0536 66.3623 51.8938 66.6819C51.734 67.0015 52.092 67.1613 52.2518 67.3978C52.8079 68.1553 54.0831 68.5932 54.0032 69.5871C53.9233 70.4245 53.1659 71.2203 52.6896 72.0577C51.9322 73.3329 51.1747 74.6082 50.4588 75.9217C50.1392 76.5162 49.8196 76.5929 49.3018 76.1966Z" fill="#EDF0F4"/>
<path d="M53.9988 66.1608C53.1614 63.8915 52.3273 61.5808 51.4899 59.3116C51.2694 58.9025 51.3525 58.3975 51.688 58.0779C53.3212 56.205 54.9129 54.2937 56.4662 52.3825C56.6995 52.0277 57.1341 51.8647 57.54 51.983C59.9307 52.4209 62.3597 52.8587 64.7472 53.2582C65.2841 53.3094 65.7316 53.6929 65.8626 54.2138C66.6584 56.4032 67.4543 58.634 68.2916 60.8265C68.5377 61.3059 68.4386 61.8876 68.0519 62.2616C66.4986 64.0545 64.9837 65.9242 63.4304 67.7588C63.1523 68.0784 62.951 68.4747 62.5131 68.2766C59.886 67.8387 57.3739 67.4008 54.8266 66.963C54.3184 66.8767 54.1586 66.5571 53.9988 66.1608Z" fill="#EDF0F4"/>
<path d="M62.2838 68.8678C62.2838 69.5454 61.21 69.865 61.6478 70.3827C62.0857 70.9005 62.8432 70.4211 63.3609 70.1846C64.7544 69.5485 65.4703 70.0663 66.1095 71.3383C66.9054 73.0099 67.9025 74.6047 68.8582 76.1964C69.2577 76.8739 69.1778 77.2319 68.4587 77.51C67.9952 77.6985 67.5446 77.9095 67.1035 78.146C64.9142 79.3413 64.9142 79.3413 63.2011 77.6282C60.9319 75.359 58.7011 73.0866 56.4318 70.8589C55.5561 69.9832 54.7188 69.1075 54.7188 67.5542C57.266 67.9921 59.7749 68.4299 62.2838 68.8678Z" fill="#EDF0F4"/>
<path d="M70.6893 86.67C71.0984 86.5166 71.5554 86.686 71.7632 87.0695C72.0029 87.469 71.565 87.6256 71.3637 87.8653C70.4081 88.9009 70.4081 88.9009 68.2188 87.3092C69.136 87.0695 69.9318 86.9097 70.6893 86.67Z" fill="#EDF0F4"/>
<path d="M70.1714 84.7204C68.8961 83.247 67.4643 81.9335 66.0676 80.5783C65.5115 80.0222 65.5498 79.7825 66.2658 79.4629C67.1415 79.0634 67.8191 78.2676 68.9345 78.5073C69.8901 78.2676 70.3695 78.8269 70.8074 79.661C71.6831 81.2942 72.6004 82.8859 73.556 84.4807C73.8341 84.9985 73.7957 85.1966 73.198 85.4363C72.0027 85.9126 71.0854 85.7943 70.1714 84.7204Z" fill="#EDF0F4"/>
<path d="M76.7176 72.8119C74.6466 73.8474 72.6554 75.0811 70.6643 76.2381C70.0283 76.596 69.7087 76.6376 69.3091 75.9185C68.312 74.0072 67.2381 72.1343 66.1227 70.303C65.7232 69.667 65.9629 69.4656 66.5605 69.3058C70.4629 68.3086 74.327 67.3146 78.191 66.2376C78.9485 66.0394 79.1882 66.1577 79.1083 66.9151C79.0699 67.5128 79.1083 68.1488 79.1083 69.1044H79.0923C79.7699 70.9773 78.549 71.9745 76.7176 72.8119Z" fill="#EDF0F4"/>
<path d="M79.2089 61.421C79.1705 61.9004 79.0906 62.4182 79.0906 62.8944C79.0522 65.4033 79.0522 65.365 76.5817 66.0393C73.5934 66.8352 70.6082 67.631 67.6199 68.4684C66.3447 68.8263 65.0694 69.1044 63.7559 68.3501L68.6938 62.4566C69.2499 62.8145 68.9718 63.8916 69.6494 63.7701C70.327 63.6519 70.2055 62.7346 70.3653 62.1785C70.8831 60.3855 70.8831 60.3855 72.7144 60.3855C74.5458 60.3855 76.4187 60.4239 78.2916 60.3855C79.0906 60.3855 79.2888 60.7019 79.2089 61.421Z" fill="#EDF0F4"/>
<path d="M70.8446 58.3529C70.5666 59.4683 69.9689 60.1842 69.0133 60.9417C68.096 58.4711 67.2618 56.122 66.3861 53.7729C66.9422 53.3734 67.7956 54.0925 67.9777 53.4149C68.1759 52.8972 67.3801 52.5392 66.9806 52.1397C65.667 50.7846 65.667 50.8261 66.6226 49.1514C67.5399 47.5981 68.4955 46.1247 69.2913 44.5299C69.7707 43.5742 70.2469 43.6541 70.9629 44.2103C71.193 44.3956 71.4327 44.5682 71.6788 44.728C72.3947 45.2841 73.7115 45.4439 73.9096 46.2813C74.1078 47.1187 73.5517 48.1127 73.312 49.0299C72.5194 52.1397 71.6021 55.2463 70.8446 58.3529Z" fill="#EDF0F4"/>
<path d="M73.5937 35.0535C74.1114 35.1717 73.8717 35.5329 73.7119 35.811C72.6764 37.6039 71.6409 39.3969 70.4871 41.3465C69.2917 38.9175 68.2562 36.6483 67.2207 34.4558C66.8627 33.6983 67.1823 33.3819 67.8567 33.5385C69.7712 33.9796 71.6824 34.5357 73.5937 35.0535Z" fill="#EDF0F4"/>
<path d="M68.3789 32.9825C71.2458 31.2311 70.1304 30.8316 73.4766 34.376C71.6037 33.8998 70.0505 33.4619 68.3789 32.9825Z" fill="#EDF0F4"/>
<path d="M69.811 41.3466C69.9708 41.6662 70.169 42.0241 69.8494 42.3821C69.4499 42.8199 69.1718 42.3821 68.8938 42.2223C66.1867 40.669 63.518 39.0773 60.6895 37.4026C62.4824 36.3671 64.154 35.4115 65.7488 34.4558C66.2666 34.1362 66.4648 34.3376 66.6661 34.7754C67.7016 36.9647 68.7755 39.1573 69.811 41.3466Z" fill="#EDF0F4"/>
<path d="M75.5054 34.9352C74.9493 34.9352 75.1858 34.4974 75.3456 34.2193C76.3427 32.5062 77.3367 30.8347 78.3339 29.1216C78.4426 29.128 78.5512 29.1567 78.6535 29.2015C78.1517 31.0744 77.6979 33.024 77.0619 34.8969C76.7806 35.811 76.0647 34.9352 75.5054 34.9352Z" fill="#EDF0F4"/>
<path d="M77.4962 29.3197C76.5406 30.9913 75.5434 32.666 74.5878 34.3376C73.5139 33.2221 72.5551 32.1866 71.5195 31.1127C73.7887 29.7992 76.0995 28.2459 78.5701 27.0505C78.5317 27.9646 77.8957 28.6038 77.4962 29.3197Z" fill="#EDF0F4"/>
<path d="M70.3862 28.6838C72.4956 28.0861 74.6082 27.5683 76.7591 27.0122L76.8774 27.2519H76.8614C74.9661 28.3258 73.0773 29.5627 71.1436 30.5566C70.3478 30.9562 69.8301 29.9206 69.5105 29.2814C69.1908 28.6422 70.0666 28.7605 70.3862 28.6838Z" fill="#EDF0F4"/>
<path d="M68.1391 29.2014C69.0148 29.4795 69.4527 30.3168 70.0919 30.8346C70.1239 30.9465 70.0919 31.0679 70.012 31.1542C69.1682 31.7231 68.2733 32.2153 67.3433 32.6276C66.6657 32.8673 65.0325 30.8762 65.2339 30.157C65.2339 30.0388 65.432 29.9173 65.5535 29.879C66.3876 29.6393 67.2218 29.4379 68.1391 29.2014Z" fill="#EDF0F4"/>
<path d="M67.6208 28.6038C67.5985 28.623 67.5825 28.6517 67.5825 28.6837C64.9553 29.601 64.9138 29.601 63.7184 27.0921C63.0824 25.7369 62.4432 24.4233 61.7656 22.95C62.7628 23.3463 66.9848 27.4884 67.6208 28.6038Z" fill="#EDF0F4"/>
<path d="M60.334 22.2307C60.4522 22.2307 60.5321 22.1924 60.6536 22.1924C61.7275 24.4616 62.8045 26.734 63.8784 28.9233C64.0766 29.3228 64.1181 29.5593 63.6004 29.7607C60.4938 30.9944 60.334 30.9145 60.334 27.6513V22.2307Z" fill="#EDF0F4"/>
<path d="M61.0491 31.6306C62.4425 32.0685 63.836 32.4264 65.2295 32.7844C65.5491 32.8643 65.8655 32.9442 65.9454 33.3405C65.9838 33.5802 65.8272 33.6985 65.6258 33.8199C63.8744 34.8171 62.1613 35.8526 60.25 36.9649V32.2283C60.2117 31.5891 60.4514 31.4293 61.0491 31.6306Z" fill="#EDF0F4"/>
<path d="M60.9472 38.2401C63.4976 39.7933 66.0449 41.3083 68.6337 42.7817C69.2697 43.1396 69.3113 43.4177 68.9533 44.0153C67.7995 45.8467 66.764 47.7196 65.6869 49.5925C65.4089 50.1103 65.2075 50.35 64.6514 49.7906C61.5832 46.764 58.5182 43.7756 55.2933 40.6307H55.2773C56.869 39.7134 58.1858 38.9975 59.4738 38.2017C59.9212 37.8949 60.5157 37.9109 60.9472 38.2401Z" fill="#EDF0F4"/>
<path d="M52.6634 28.1659C54.9166 25.8551 57.1474 23.5444 59.3783 21.2368C59.4966 21.3167 59.5765 21.3966 59.6979 21.4765L59.7139 29.879C59.7139 30.4767 59.4742 30.6365 58.9564 30.4767C56.8055 29.879 54.6162 29.2813 52.3438 28.6453C52.4364 28.4727 52.5419 28.3129 52.6634 28.1659Z" fill="#EDF0F4"/>
<path d="M52.1673 29.3197C54.1584 29.8375 56.1911 30.3553 58.1823 30.9114V31.1894C56.5907 31.6273 54.9575 32.0652 53.3243 32.5446C51.9691 32.8642 51.1733 31.7072 50.1378 31.231C50.0579 31.1926 50.0195 30.9913 50.0195 30.9114C50.0579 30.4735 51.7294 29.2015 52.1673 29.3197Z" fill="#EDF0F4"/>
<path d="M50.7735 28.8404C49.5782 30.7932 49.46 30.8315 47.7469 29.796C46.2735 28.8787 44.6403 28.1245 43.2852 27.009C45.89 27.3286 48.2806 28.3642 50.7735 28.8404Z" fill="#EDF0F4"/>
<path d="M42.608 28.4441C43.9631 29.7992 45.3566 31.1512 46.6318 32.5862C47.3094 33.382 46.194 33.5418 45.9542 33.9797C45.7561 34.3376 45.4748 34.3792 45.2383 33.9413C44.2412 32.1899 43.2472 30.4768 42.25 28.7253C42.3715 28.6422 42.4897 28.524 42.608 28.4441Z" fill="#EDF0F4"/>
<path d="M40.5791 32.4263C40.4992 30.7548 40.5408 29.1216 40.5408 27.4468C40.6239 27.4373 40.707 27.4117 40.7805 27.3669C42.0557 29.5978 43.3309 31.8287 44.603 34.0979C44.881 34.5357 44.8011 34.7754 44.2834 34.8553C44.245 34.8553 44.2035 34.8937 44.1651 34.8937C43.0497 35.1717 41.6562 36.0091 40.8987 35.6096C40.0198 35.1334 40.6175 33.5418 40.5791 32.4263Z" fill="#EDF0F4"/>
<path d="M40.4196 78.3858C40.6177 76.3147 40.4579 74.2053 40.4579 71.853C42.0112 72.7703 43.3248 73.5246 44.6384 74.282C45.0762 74.5601 44.958 74.8797 44.8365 75.2377C44.2005 77.5484 43.6029 79.8592 42.9253 82.4065C41.7747 81.1344 40.2214 80.4568 40.4196 78.3858Z" fill="#EDF0F4"/>
<path d="M40.5795 81.0161C41.2155 81.6521 41.8132 82.2498 42.4108 82.8091C42.7688 83.1287 42.6505 83.4451 42.5291 83.8063C42.3693 84.3624 41.973 83.9661 41.7333 83.9245C40.2215 83.6049 40.0617 83.2853 40.5795 81.0161Z" fill="#EDF0F4"/>
<path d="M40.4574 91.4515C40.419 91.4515 40.3775 91.4131 40.3391 91.4131C40.3391 89.064 40.3391 86.7532 40.3008 84.4425C40.419 84.4041 40.4989 84.3242 40.5405 84.3242C42.2919 84.6822 42.2536 84.7237 41.8157 86.3953C41.3747 88.0636 40.8984 89.7767 40.4574 91.4515Z" fill="#EDF0F4"/>
<path d="M41.1758 91.1317C41.6935 89.2588 42.173 87.3476 42.7291 85.4779C43.0487 84.3241 43.8445 85.2797 44.3207 85.3181C45.1165 85.4363 44.5604 85.9541 44.4006 86.2353C43.5632 87.7087 42.7291 89.1438 41.8502 90.6172C41.6935 90.8537 41.652 91.1701 41.1758 91.1317Z" fill="#EDF0F4"/>
<path d="M41.2148 93.0814C42.57 90.6908 43.9219 88.2618 45.277 85.8328C46.5107 86.8299 47.428 87.9422 48.5019 89.0576C46.0313 90.4511 43.7621 91.966 41.2947 93.1614L41.2148 93.0814Z" fill="#EDF0F4"/>
<path d="M43.0078 93.1611C44.7209 91.7676 46.6705 90.7705 48.585 89.7765C49.6205 89.2971 49.8602 90.6938 50.8957 91.2499C47.9873 91.9275 45.5966 92.8447 43.0078 93.1611Z" fill="#EDF0F4"/>
<path d="M51.8092 91.0103C51.4096 90.9719 49.7765 89.5752 49.7765 89.2972C49.7509 89.2173 49.7637 89.1278 49.8148 89.0575C49.9746 88.7378 52.4835 87.5425 52.8415 87.5841C54.1551 87.7439 54.0752 89.0575 54.6345 89.8533C54.7943 90.093 54.5961 90.2911 54.3948 90.3327C53.5223 90.5724 52.6465 90.8121 51.8092 91.0103Z" fill="#EDF0F4"/>
<path d="M54.5977 88.0635C55.9528 88.4214 57.1066 88.741 58.3818 89.0607C55.793 90.3742 55.3168 90.256 54.5977 88.0635Z" fill="#EDF0F4"/>
<path d="M52.6048 92.2473C52.0487 91.7679 52.0871 91.5697 52.8445 91.3716C55.0339 90.7739 55.0339 90.7355 55.9895 92.765C56.7469 94.3982 57.5428 96.0314 58.3002 97.6646C56.389 95.7917 54.4777 93.9987 52.6048 92.2473Z" fill="#EDF0F4"/>
<path d="M59.4545 95.3538V98.0609C59.3746 98.0609 59.3363 98.0993 59.2564 98.0993C58.1825 95.8684 57.1054 93.5992 55.99 91.3683C55.7119 90.7707 55.7918 90.5725 56.4694 90.3712C59.4961 89.4954 59.4961 89.4539 59.4961 92.6404C59.4961 93.5608 59.4545 94.4366 59.4545 95.3538Z" fill="#EDF0F4"/>
<path d="M59.615 85.9924C59.615 88.8209 59.615 88.8209 56.9079 88.1018C56.1121 87.9036 55.3163 87.6639 54.5173 87.4658C54.1977 87.3859 53.9611 87.2261 53.9196 86.9097C53.8812 86.5901 54.1593 86.5102 54.3575 86.3919C55.8308 85.5162 57.3458 84.6788 58.8192 83.7647C59.5766 83.2853 59.6565 83.6465 59.615 84.2825V85.9924Z" fill="#EDF0F4"/>
<path d="M58.9944 81.9717C56.4055 80.4184 53.8167 78.9035 51.1895 77.3917C50.7101 77.1137 50.5535 76.8739 50.8699 76.3562C52.1452 74.2468 53.3405 72.1342 54.6541 69.9033C57.8406 73.0898 60.8896 76.1548 64.0122 79.2231C64.3701 79.581 64.4117 79.7408 63.9323 80.0189C62.7369 80.6549 61.5832 81.374 60.3878 82.0516C59.95 82.3041 59.4003 82.2753 58.9944 81.9717Z" fill="#EDF0F4"/>
<path d="M67.0223 92.2057C64.8713 94.4749 62.682 96.7058 60.5311 98.975L60.1731 98.7353C60.1731 95.9067 60.1731 93.0814 60.1348 90.2114C60.1348 89.6552 60.4128 89.6137 60.8507 89.7319C62.8834 90.2881 64.9129 90.8857 66.9456 91.4035C67.7798 91.608 67.3004 91.9276 67.0223 92.2057Z" fill="#EDF0F4"/>
<path d="M67.54 90.9335C65.5872 90.4157 63.5961 89.8596 61.6465 89.3418C61.6784 89.2523 61.6912 89.1565 61.6848 89.0638C63.318 88.6259 65.0056 88.1081 66.6643 87.7502C67.9395 87.4721 68.697 88.5876 69.7325 89.0638C69.7837 89.1629 69.8092 89.2715 69.8124 89.3834C69.7293 89.8979 68.0578 91.0517 67.54 90.9335Z" fill="#EDF0F4"/>
<path d="M76.1833 93.2412C73.8342 92.6052 71.4851 92.0075 69.1328 91.3683C69.9702 89.5753 70.4464 89.4155 72.0412 90.3711L76.3431 92.8801C76.2728 92.9951 76.2217 93.1166 76.1833 93.2412Z" fill="#EDF0F4"/>
<path d="M76.518 92.3271C74.725 91.2532 72.9736 90.1761 70.9824 89.0223C71.3244 88.7443 71.5641 88.6228 71.6983 88.4247C72.2161 87.7087 72.6156 87.7886 73.2133 88.4247C74.089 89.4218 75.0862 90.2976 76.0003 91.2532C76.2783 91.528 76.7162 91.7294 76.518 92.3271Z" fill="#EDF0F4"/>
<path d="M77.2186 91.6878C75.8634 90.3743 74.5914 89.0607 73.3545 87.7439C72.5971 86.8682 73.6741 86.67 73.9905 86.2705C74.4284 85.5929 74.6266 86.3089 74.7864 86.5901L77.0556 90.5341C77.3464 90.8505 77.4103 91.3075 77.2186 91.6878Z" fill="#EDF0F4"/>
<path d="M79.2888 92.765C79.2089 92.8033 79.1706 92.8033 79.0907 92.8449C77.8154 90.6556 76.5562 88.4247 75.2682 86.1939C74.9901 85.7145 75.0285 85.478 75.6261 85.3565C76.8215 85.0784 78.0168 84.7205 79.2888 84.4009V92.765Z" fill="#EDF0F4"/>
<path d="M76.2637 84.4392C77.2608 83.4836 78.3347 82.4481 79.2903 81.4924C79.4118 84.1228 79.1305 84.4009 76.2637 84.4392Z" fill="#EDF0F4"/>
<path d="M78.9703 80.3385C77.5768 81.8535 76.1418 83.4068 74.5885 85.0783C73.2749 82.7675 72.1978 80.8179 70.9258 78.667C73.7128 78.9067 76.2632 79.0665 78.7721 79.303C79.6479 79.3829 79.3314 79.939 78.9703 80.3385Z" fill="#EDF0F4"/>
<path d="M79.3472 50.1485C79.3088 53.0154 79.3088 55.8439 79.3088 58.7108C79.3472 59.5482 79.149 59.9445 78.155 59.9061C76.0456 59.7879 73.933 59.8678 71.8236 59.8678C71.3059 59.8678 71.0278 59.8294 71.1876 59.1902C72.3414 54.9714 73.4952 50.7526 74.6489 46.4539C76.0776 47.2465 77.388 48.0008 78.6728 48.8349C79.1426 49.0938 79.4111 49.6148 79.3472 50.1485Z" fill="#EDF0F4"/>
<path d="M79.4502 42.4237C79.2105 44.2966 79.4118 46.2078 79.4118 48.3588C77.8585 47.4831 76.5609 46.6873 75.2314 45.9681C75.2314 45.9681 75.2282 45.9681 75.2282 45.9649C74.9533 45.8435 74.8318 45.5239 74.9533 45.249C75.6309 42.8584 76.2669 40.4293 76.9445 37.8821C78.453 39.1158 79.7282 40.2312 79.4502 42.4237Z" fill="#EDF0F4"/>
<path d="M79.2089 39.5153C78.5473 38.7195 78.0551 38.0803 77.4958 37.4826C77.2305 37.2205 77.1666 36.8178 77.336 36.4854C77.5342 36.006 77.8921 36.2457 78.1734 36.2873C79.6468 36.5685 79.7682 36.9265 79.2089 39.5153Z" fill="#EDF0F4"/>
<path d="M78.9471 35.8526C78.5093 35.6545 77.4737 36.0508 77.7518 34.9353C78.2696 32.9442 78.8257 30.9914 79.3434 29.0002H79.5256C79.5256 31.0713 79.5256 33.104 79.5032 35.1719C79.5032 35.533 79.663 36.2106 78.9471 35.8526Z" fill="#EDF0F4"/>
<path d="M96.7336 58.0363C96.6952 58.0747 96.6952 58.1546 96.6537 58.1961C94.8223 57.1606 92.9494 56.2433 91.2363 55.0896C90.3606 54.4535 91.4345 53.5363 91.4345 52.7788C93.2307 54.5303 94.9821 56.2817 96.7336 58.0363Z" fill="#EDF0F4"/>
<path d="M80.0479 61.9771C80.604 60.8233 81.403 59.986 82.9947 60.5037C84.5256 60.5037 86.1396 60.5421 87.8144 60.5037C88.4504 60.5037 88.5718 60.7434 88.4504 61.3411C88.2107 62.4565 87.8527 63.214 86.4976 63.4505C84.5863 63.8085 82.6751 64.4061 80.7638 64.9654C80.0863 65.1636 79.7283 65.0453 79.8466 64.2879C79.968 63.5304 79.6484 62.7346 80.0479 61.9771Z" fill="#EDF0F4"/>
<path d="M79.9668 41.1069C81.6 42.6986 83.0734 44.0953 84.5883 45.5686C83.2747 46.3261 81.9995 47.042 80.7243 47.758C80.2065 48.036 79.9668 47.9977 79.9668 47.3584V41.1069H79.9668Z" fill="#EDF0F4"/>
<path d="M84.3873 46.4059C84.8667 46.1278 84.985 46.2876 85.1032 46.7638C85.4612 48.1989 85.8991 49.6307 86.257 51.0658C86.3976 51.3822 86.3145 51.7529 86.0589 51.983C85.7393 52.1812 85.5411 51.8648 85.3014 51.7433C83.6298 50.8261 81.9551 49.8704 80.1621 48.8349C81.6802 47.9592 83.0354 47.2017 84.3873 46.4059Z" fill="#EDF0F4"/>
<path d="M88.4654 44.1367C89.8589 43.3408 91.2524 42.5834 92.6459 41.7876C92.7258 41.7492 92.8057 41.7876 93.1636 41.7876H93.1476C91.6327 43.9769 90.2392 46.0096 88.9033 48.0007C88.6252 48.4386 88.4654 48.4386 88.0659 48.0806C85.5602 45.7667 85.5186 45.8082 88.4654 44.1367Z" fill="#EDF0F4"/>
<path d="M86.8959 53.6931C87.452 55.566 87.9314 57.4357 88.4108 59.3086C88.6089 59.9446 88.1327 59.8647 87.7748 59.8647H81.4434C83.035 57.5955 84.4317 55.5628 85.7453 53.4917C86.2598 52.779 86.6977 53.057 86.8959 53.6931Z" fill="#EDF0F4"/>
<path d="M87.8131 66.3974C87.7748 65.4802 88.1711 64.6843 88.3693 63.8885C88.4492 63.5306 88.7688 63.4091 89.1267 63.3708C89.6061 63.3324 89.6061 63.7287 89.6828 64.0068C90.1623 65.3619 89.9225 65.6815 87.8131 66.3974Z" fill="#EDF0F4"/>
<path d="M79.968 66.1609C80.6456 64.9272 82.755 65.1638 84.2284 64.6875C85.3438 64.3296 86.4593 64.0899 87.7345 63.7703C87.4564 64.8058 87.2167 65.6432 87.0186 66.5189C86.9227 66.9248 86.6414 67.2636 86.2611 67.4362C85.3438 67.9156 84.4681 68.4333 83.554 68.9511C82.4002 69.6287 81.2049 70.2647 79.9297 70.9838L79.968 66.1609Z" fill="#EDF0F4"/>
<path d="M86.6185 67.9507C86.0624 70.0601 85.5446 71.933 85.0269 73.8059C84.8671 74.362 84.5091 74.0456 84.2694 73.8858C82.9942 73.1699 81.7605 72.4124 80.2871 71.5367C82.4381 70.303 84.3877 69.1876 86.6185 67.9507Z" fill="#EDF0F4"/>
<path d="M87.1781 68.2702C87.3379 67.6342 89.409 66.0393 89.9651 66.0809C90.0737 66.1032 90.1696 66.1576 90.2431 66.2407C90.8408 66.9182 90.7609 68.6313 90.1249 69.2674C89.0095 70.3828 87.894 71.4982 86.7786 72.5721C86.5389 72.7702 86.3407 73.0899 85.8613 72.9716C86.2992 71.3384 86.7371 69.7851 87.1781 68.2702Z" fill="#EDF0F4"/>
<path d="M90.4179 64.3678C90.3795 63.93 89.8202 63.2524 90.5362 63.0127C92.3643 62.4566 94.1893 61.9005 96.174 61.8174C94.4226 62.773 92.7095 63.767 90.974 64.7226C90.5777 64.9655 90.4563 64.6459 90.4179 64.3678Z" fill="#EDF0F4"/>
<path d="M90.4399 62.3352C89.4427 62.5749 89.724 61.5393 89.5642 61.0599C89.3245 60.3824 89.9637 60.5038 90.3216 60.5038H96.733C96.7426 60.5645 96.7713 60.6189 96.8129 60.6636C94.7035 61.2197 92.5909 61.8174 90.4399 62.3352Z" fill="#EDF0F4"/>
<path d="M88.9665 58.9505C88.4871 57.1192 88.0907 55.6042 87.6113 53.8528C90.3216 55.2463 90.3216 55.2463 88.9665 58.9505Z" fill="#EDF0F4"/>
<path d="M89.8429 54.3704C89.0631 53.9933 88.3184 53.5554 87.6121 53.0568C87.5801 53.0345 87.5514 53.0121 87.5226 52.9865C87.0176 52.5615 86.9505 51.8104 87.3756 51.3022C87.6153 50.9442 87.855 50.6246 88.0531 50.2667C88.4111 49.5092 88.7691 49.669 89.2069 50.1868C89.763 50.8643 90.5205 51.3821 90.9584 52.0597C90.7602 52.8171 90.6004 53.4532 90.4023 54.1691C90.3224 54.4503 90.1242 54.5302 89.8429 54.3704Z" fill="#EDF0F4"/>
<path d="M91.1973 51.1041C91.079 51.0657 90.9576 51.0657 90.9192 51.0242C88.8098 49.1129 88.8098 49.1129 90.4014 46.8021C91.2772 45.5685 92.1145 44.3316 92.9903 43.0979C93.1085 43.1363 93.23 43.2162 93.3482 43.2577C92.6323 45.8465 91.9547 48.4769 91.1973 51.1041Z" fill="#EDF0F4"/>
<path d="M93.6692 40.4708C90.7608 42.104 88.092 43.6158 85.3466 45.1691C84.6691 42.6985 84.033 40.2695 83.3555 37.6807C86.8168 38.5979 90.0832 39.5152 93.6692 40.4708Z" fill="#EDF0F4"/>
<path d="M82.9145 38.5597C83.3939 40.3527 83.8701 42.184 84.3495 44.0153C84.2888 44.0633 84.2216 44.1048 84.1513 44.1336C82.8761 42.8584 81.6009 41.5831 80.3288 40.3495C80.0508 40.0298 79.891 37.441 80.1307 37.1246C80.1914 37.0287 80.2969 36.968 80.4087 36.9648C81.3228 36.7667 82.6747 37.6424 82.9145 38.5597Z" fill="#EDF0F4"/>
<path d="M80.0214 34.6155C80.1812 32.6244 80.0597 30.6332 80.0597 28.6421H80.2835C80.961 31.1127 81.5971 33.58 82.2523 36.0506C82.4121 36.6482 82.2139 36.7281 81.6162 36.6067C80.4625 36.4085 79.9031 35.9707 80.0214 34.6155Z" fill="#EDF0F4"/>
<path d="M79.8487 58.9505V55.8439L79.9286 50.3882C79.9286 49.7106 80.0884 49.4709 80.766 49.8704C82.1211 50.7078 83.5146 51.5036 84.9464 52.2611C85.5025 52.5392 85.5025 52.8172 85.1861 53.2966C83.7926 55.2878 82.3991 57.2789 81.044 59.3116C80.8043 59.7111 80.4879 59.9476 80.0468 59.791C79.609 59.628 79.8487 59.2285 79.8487 58.9505Z" fill="#EDF0F4"/>
<path d="M79.8065 77.9097V71.9746C81.3374 72.8503 82.5935 73.6462 83.9103 74.4036C84.3897 74.6817 84.428 74.9214 84.0285 75.3209C82.993 76.3181 81.9575 77.3536 80.9603 78.3891C80.7525 78.6576 80.4202 78.795 80.0846 78.7471C79.6084 78.5873 79.8065 78.1878 79.8065 77.9097Z" fill="#EDF0F4"/>
<path d="M84.3067 75.877C83.5908 79.5812 83.8273 79.1433 81.5996 78.7438C82.3571 77.6699 83.3127 76.9125 84.3067 75.877Z" fill="#EDF0F4"/>
<path d="M80.166 91.6079C80.0861 91.6079 79.9678 91.5696 79.8879 91.5696C79.8879 89.5369 79.9263 87.4658 79.8496 85.4363C79.8112 84.519 80.0477 84.0428 81.0034 83.9629C81.4476 83.8862 81.8887 83.7807 82.3169 83.6433C81.5595 86.3919 80.8851 89.0191 80.166 91.6079Z" fill="#EDF0F4"/>
<path d="M81.6798 83.167C79.5704 83.6848 79.9284 83.7647 79.8868 81.8119C79.8868 79.939 80.2065 79.3829 81.4401 79.5011C82.0762 79.5395 82.9934 79.1432 83.313 79.939C83.6294 80.7348 82.3958 82.9657 81.6798 83.167Z" fill="#EDF0F4"/>
<path d="M91.9936 80.4569C89.1267 81.2144 86.2982 81.9719 83.2715 82.806C83.5112 81.8504 83.7093 81.013 83.9075 80.2172C84.0673 79.5812 84.5851 79.7378 85.0229 79.7794C87.3337 79.9392 89.6029 80.099 91.9137 80.2971C91.9552 80.3387 91.9552 80.4186 91.9936 80.4569Z" fill="#EDF0F4"/>
<path d="M85.1825 79.1817C84.5465 79.1433 84.2652 78.9835 84.4666 78.1845C85.2624 75.1578 85.224 75.1578 87.9311 76.7495L92.7092 79.7378C90.0821 79.5428 87.6147 79.3415 85.1825 79.1817Z" fill="#EDF0F4"/>
<path d="M93.8284 79.5427C90.9615 77.8296 88.3312 76.2764 85.8223 74.803C87.6153 73.01 89.3284 71.2585 91.1597 69.5071C91.9939 72.7319 92.8696 75.9983 93.8284 79.5427Z" fill="#EDF0F4"/>
<path d="M91.3957 67.6727C91.3478 67.6247 91.3095 67.5704 91.2775 67.5129C90.6798 65.5601 90.6415 65.5601 92.4728 64.5661C93.8663 63.8086 95.3013 63.0511 96.6948 62.2969L96.8546 62.4151C95.0201 64.1698 93.2303 65.9212 91.3957 67.6727Z" fill="#EDF0F4"/>
<path d="M97.8104 59.8678H90.322C89.7659 59.8678 89.4463 59.8294 89.686 59.1103C90.0056 58.1131 90.2421 57.1192 90.4819 56.122C90.6001 55.6426 90.7599 55.486 91.2393 55.764C93.4702 57.0776 95.701 58.3145 97.9287 59.5865C97.8967 59.6824 97.8552 59.7783 97.8104 59.8678Z" fill="#EDF0F4"/>
</svg>
