<svg width="120" height="120" viewBox="0 0 120 120" fill="none" xmlns="http://www.w3.org/2000/svg">
<path d="M60 120C93.138 120 120 93.138 120 60C120 26.862 93.138 0 60 0C26.862 0 0 26.862 0 60C0 93.138 26.862 120 60 120Z" fill="#EDF0F4"/>
<path d="M61.9194 25.544C60.6589 25.4162 59.3928 25.3523 58.1259 25.3525C47.1609 25.3525 37.3069 30.1096 30.5107 37.6668L36.4774 53.7804L63.3698 44.4756L61.9194 25.544Z" fill="#0089CE"/>
<path d="M49.0427 86.9869L65.6587 73.4695L63.3697 44.4756L45.3213 77.663L49.0427 86.9869Z" fill="#E30613"/>
<path d="M65.4693 73.5892L49.042 86.9861L53.6295 99.3305C58.301 99.8971 63.0375 99.5755 67.5895 98.3828L65.658 73.467L65.4697 73.6195L65.4693 73.5892Z" fill="#E9453F"/>
<path d="M63.3794 44.6117L63.3695 44.4756L36.4775 53.7804L45.3211 77.663L63.3794 44.6117Z" fill="#CA1416"/>
<path d="M30.5107 37.6667C25.3269 43.4324 21.9243 50.8295 21.1641 58.9948L36.4773 53.7808L30.5107 37.6667Z" fill="#0156A3"/>
<path d="M36.4773 53.7805L21.164 58.9945C21.0573 60.1416 21 61.303 21 62.4776C21 75.2718 27.4721 86.554 37.321 93.2299L45.3212 77.6627" fill="#149F39"/>
<path d="M45.3214 77.6631L37.3213 93.2303C38.2598 93.8671 39.2283 94.4602 40.2268 95.0094L49.0425 86.9862L45.3214 77.6631Z" fill="#28A737"/>
<path d="M40.2266 95.0089C44.3751 97.2974 48.9258 98.7649 53.6298 99.3313L49.0422 86.9861" fill="#82BB2B"/>
<path d="M67.5905 98.384C83.5112 94.1992 95.2527 79.7107 95.2527 62.4778C95.2558 58.5717 94.6419 54.6896 93.4337 50.9751L65.6602 73.4678L67.5905 98.384Z" fill="#FECC00"/>
<path d="M71.7311 27.9248L63.3691 44.4755L63.3791 44.6116L65.6581 73.4678L93.4317 50.9751C90 40.4352 81.982 31.9647 71.7311 27.9248" fill="#EF7900"/>
<path d="M63.3697 44.4756L71.7316 27.9249C68.5853 26.6853 65.2835 25.8842 61.9189 25.5439L63.3602 44.3586L63.3697 44.4756Z" fill="#23A9E1"/>
<path d="M64.542 36.0119L65.3945 32.1909C76.5151 36.8266 83.4287 43.9742 87.1736 53.0657L83.8378 55.408C79.4238 46.3265 73.1996 39.5908 64.542 36.0119" fill="black"/>
<path d="M99.8181 35.6444C99.8181 27.0051 92.8131 20 84.1737 20C75.5344 20 68.5293 27.0051 68.5293 35.6444C68.5295 36.4673 68.5942 37.289 68.7227 38.1018C73.9308 41.1665 78.1159 45.5618 81.4592 51.0492C82.3561 51.2074 83.265 51.2873 84.1757 51.288C92.8131 51.2888 99.8181 44.2846 99.8181 35.6444Z" fill="#E30613"/>
</svg>
