<svg width="120" height="120" viewBox="0 0 120 120" fill="none" xmlns="http://www.w3.org/2000/svg">
<path fill-rule="evenodd" clip-rule="evenodd" d="M60 120C27 120 0 93.0006 0 59.7012C0.3 26.7019 27 -0.297518 60.3 0.00247602C93.3 0.30247 120 27.0019 120 60.6012C119.7 93.3006 93 120 60 120Z" fill="#EDF0F4"/>
<path d="M32 26V54.0673L45.7785 40.2888L32 26Z" fill="url(#paint0_linear_204_30614)"/>
<path d="M75.1216 40.2888L88.9001 54.0673V26L75.1216 40.2888Z" fill="url(#paint1_linear_204_30614)"/>
<path d="M33.9563 56.9589L59.6421 94.7222L47.3095 43.6057L33.9563 56.9589Z" fill="url(#paint2_linear_204_30614)"/>
<path d="M61.4282 94.7222L87.114 56.9589L73.7608 43.6057L61.4282 94.7222Z" fill="url(#paint3_linear_204_30614)"/>
<path d="M70.6138 43.0105H60.4926H50.3713L55.3894 65.2092L60.4926 87.3228L65.5957 65.2092L70.6138 43.0105Z" fill="url(#paint4_linear_204_30614)"/>
<defs>
<linearGradient id="paint0_linear_204_30614" x1="32" y1="54.0544" x2="45.77" y2="54.0544" gradientUnits="userSpaceOnUse">
<stop stop-color="#A71E22"/>
<stop offset="0.1551" stop-color="#B81F24"/>
<stop offset="0.4908" stop-color="#DA2126"/>
<stop offset="0.6826" stop-color="#EC2227"/>
</linearGradient>
<linearGradient id="paint1_linear_204_30614" x1="75.1216" y1="54.0544" x2="88.8916" y2="54.0544" gradientUnits="userSpaceOnUse">
<stop stop-color="#A71E22"/>
<stop offset="0.1551" stop-color="#B81F24"/>
<stop offset="0.4908" stop-color="#DA2126"/>
<stop offset="0.6826" stop-color="#EC2227"/>
</linearGradient>
<linearGradient id="paint2_linear_204_30614" x1="33.9223" y1="94.7178" x2="59.6251" y2="94.7178" gradientUnits="userSpaceOnUse">
<stop stop-color="#A71E22"/>
<stop offset="0.1551" stop-color="#B81F24"/>
<stop offset="0.4908" stop-color="#DA2126"/>
<stop offset="0.6826" stop-color="#EC2227"/>
</linearGradient>
<linearGradient id="paint3_linear_204_30614" x1="61.4027" y1="94.7094" x2="87.097" y2="94.7094" gradientUnits="userSpaceOnUse">
<stop stop-color="#A71E22"/>
<stop offset="0.1551" stop-color="#B81F24"/>
<stop offset="0.4908" stop-color="#DA2126"/>
<stop offset="0.6826" stop-color="#EC2227"/>
</linearGradient>
<linearGradient id="paint4_linear_204_30614" x1="50.3373" y1="87.4015" x2="70.6478" y2="87.4015" gradientUnits="userSpaceOnUse">
<stop stop-color="#A71E22"/>
<stop offset="0.1551" stop-color="#B81F24"/>
<stop offset="0.4908" stop-color="#DA2126"/>
<stop offset="0.6826" stop-color="#EC2227"/>
</linearGradient>
</defs>
</svg>
