<svg width="120" height="120" viewBox="0 0 120 120" fill="none" xmlns="http://www.w3.org/2000/svg">
<path d="M60 120C93.048 120 120 93.048 120 60C120 26.958 93.048 0 60 0C26.958 0 1.00136e-06 26.958 1.00136e-06 60C-0.005999 93.048 26.952 120 60 120Z" fill="black"/>
<path fill-rule="evenodd" clip-rule="evenodd" d="M44.6099 28.9021H53.2499C53.5799 28.9021 53.8439 29.1721 53.8439 29.5021V42.1261C53.8439 42.4621 54.1139 42.7261 54.4439 42.7261H65.5379C65.8679 42.7261 66.1379 42.4621 66.1379 42.1261V29.5021C66.1379 29.1721 66.4019 28.9021 66.7379 28.9021H75.3719C75.7019 28.9021 75.9719 29.1721 75.9719 29.5021V42.1261C75.9719 42.4621 76.2359 42.7261 76.5719 42.7261H87.1319C87.4679 42.7261 87.7319 42.9961 87.7319 43.3261V51.9421C87.7319 52.2781 87.4679 52.5421 87.1319 52.5421H76.5719C76.2359 52.5421 75.9719 52.8121 75.9719 53.1421V66.5521C75.9719 66.8821 76.2359 67.1521 76.5719 67.1521H87.1319C87.4679 67.1521 87.7319 67.4161 87.7319 67.7521V76.3681C87.7319 76.6981 87.4679 76.9681 87.1319 76.9681H76.5719C76.2359 76.9681 75.9719 77.2381 75.9719 77.5681V90.1921C75.9719 90.5221 75.7019 90.7921 75.3719 90.7921H66.7379C66.4019 90.7921 66.1379 90.5221 66.1379 90.1921V77.5681C66.1379 77.2321 65.8679 76.9681 65.5379 76.9681H54.4499C54.1199 76.9681 53.8499 77.2381 53.8499 77.5681V90.1921C53.8499 90.5221 53.5859 90.7921 53.2559 90.7921H44.6159C44.2859 90.7921 44.0159 90.5221 44.0159 90.1921V77.5681C44.0159 77.2321 43.7519 76.9681 43.4159 76.9681H32.8559C32.5199 76.9681 32.2559 76.6981 32.2559 76.3681V67.7521C32.2559 67.4161 32.5199 67.1521 32.8559 67.1521H43.4159C43.7519 67.1521 44.0159 66.8821 44.0159 66.5521V53.1421C44.0159 52.8121 43.7519 52.5421 43.4159 52.5421H32.8559C32.5199 52.5421 32.2559 52.2781 32.2559 51.9421V43.3261C32.2559 42.9961 32.5199 42.7261 32.8559 42.7261H43.4159C43.7519 42.7261 44.0159 42.4621 44.0159 42.1261V29.5021C44.0039 29.1721 44.2799 28.9021 44.6099 28.9021ZM66.1439 66.5581V53.1421C66.1439 52.8121 65.8739 52.5421 65.5439 52.5421H54.4499C54.1199 52.5421 53.8499 52.8121 53.8499 53.1421V66.5521C53.8499 66.8821 54.1199 67.1521 54.4499 67.1521H65.5439C65.8739 67.1581 66.1439 66.8821 66.1439 66.5581Z" fill="white"/>
</svg>
