<svg width="120" height="120" viewBox="0 0 120 120" fill="none" xmlns="http://www.w3.org/2000/svg">
<circle cx="60" cy="60" r="60" fill="#EDF0F4"/>
<path d="M25.6786 74.0688C25.5936 74.2614 25.4942 74.4476 25.3812 74.6261C24.7924 75.5914 24.438 76.6753 24.3451 77.7947C25.2876 79.6498 26.375 81.4316 27.5975 83.1244C27.6634 82.4629 27.8134 81.8119 28.044 81.1863C28.3076 80.3874 28.2977 79.5266 28.0157 78.7337C27.1281 77.2326 26.3473 75.674 25.6786 74.0688V74.0688Z" fill="black"/>
<path d="M22.7279 49.8216C23.489 49.4832 24.1131 48.9078 24.5019 48.1859C25.0251 46.5016 25.6674 44.8548 26.4242 43.2571C26.2174 43.326 26.0053 43.3791 25.79 43.4158C24.6824 43.6209 23.6416 44.0825 22.7553 44.7616C21.9861 46.7353 21.375 48.7641 20.9273 50.8299C21.4787 50.417 22.0843 50.0779 22.7279 49.8216Z" fill="black"/>
<path d="M49.9913 21.8461C50.6587 22.3421 51.482 22.5969 52.3206 22.567C54.0274 22.1909 55.7596 21.9338 57.5039 21.7976C57.3196 21.6385 57.1496 21.4644 56.9957 21.2772C56.3383 20.4952 55.5123 19.864 54.5763 19.4285C52.4657 19.7368 50.3843 20.2117 48.3527 20.8486C48.9392 21.1136 49.4896 21.4486 49.9913 21.8461Z" fill="black"/>
<path d="M42.4161 24.8611C43.163 25.2013 44.0071 25.2812 44.8072 25.0875C46.4045 24.3533 48.0543 23.7329 49.7436 23.2313C49.5367 23.1166 49.3401 22.9853 49.1557 22.8387C48.3353 22.202 47.3783 21.7537 46.3558 21.5271C44.3566 22.27 42.4225 23.1699 40.5727 24.2179C41.2128 24.3548 41.8323 24.5709 42.4161 24.8611Z" fill="black"/>
<path d="M25.5629 42.152C26.3723 41.9806 27.0994 41.5494 27.6274 40.9273C28.4958 39.3869 29.4735 37.9074 30.5533 36.4998C30.3259 36.5267 30.0966 36.5353 29.8677 36.5257C28.769 36.4957 27.6786 36.7204 26.6864 37.1814C25.509 38.961 24.4768 40.828 23.5995 42.7652C24.2228 42.476 24.8832 42.2698 25.5629 42.152Z" fill="black"/>
<path d="M35.6294 29.3938C36.4501 29.5721 37.3088 29.4664 38.0582 29.0947C39.4572 28.0519 40.9301 27.1066 42.4658 26.2661C42.2414 26.1973 42.0232 26.1104 41.8136 26.0063C40.8676 25.548 39.826 25.3082 38.7695 25.3054C36.9728 26.4537 35.2721 27.7387 33.6831 29.1482C34.34 29.1478 34.9942 29.2304 35.6294 29.3938Z" fill="black"/>
<path d="M29.9277 35.2425C30.7872 35.2448 31.62 34.9513 32.2793 34.4138C32.7775 33.8518 33.2935 33.3019 33.8271 32.7639C34.5247 32.0638 35.2449 31.3955 35.9876 30.759C35.7517 30.7381 35.5181 30.6979 35.2892 30.6387C34.2556 30.3857 33.1759 30.3705 32.1353 30.5944C32.0265 30.7013 31.9168 30.8057 31.8097 30.9143C30.4046 32.3248 29.1059 33.8324 27.924 35.4254C28.5806 35.2783 29.2544 35.2168 29.9277 35.2425Z" fill="black"/>
<path d="M21.5392 57.9148C22.2344 57.4071 22.7348 56.6867 22.9601 55.8689C23.1234 54.1377 23.4057 52.419 23.8052 50.7246C23.6181 50.834 23.4227 50.9293 23.2207 51.0095C22.1733 51.4448 21.2476 52.1172 20.5202 52.971C20.1854 55.0527 20.0115 57.156 20 59.2631C20.4504 58.75 20.9679 58.2967 21.5392 57.9148Z" fill="black"/>
<path d="M85.3706 89.6043C84.55 89.4257 83.6913 89.5312 82.9418 89.9026C81.5433 90.945 80.071 91.89 78.5359 92.7303C78.7598 92.7995 78.9773 92.8867 79.1864 92.991C80.1325 93.4491 81.1741 93.6889 82.2305 93.6919C84.0273 92.5437 85.728 91.2588 87.3169 89.8491C86.66 89.8495 86.0059 89.7672 85.3706 89.6043Z" fill="black"/>
<path d="M99.4599 61.0843C98.7658 61.5906 98.2658 62.3092 98.0399 63.1251C97.8765 64.8567 97.5942 66.5756 97.1949 68.2703C97.3816 68.1608 97.5767 68.0655 97.7785 67.9854C98.8265 67.5481 99.7527 66.8741 100.481 66.0189C100.815 63.9386 100.989 61.8367 101 59.731C100.55 60.2459 100.032 60.701 99.4599 61.0843Z" fill="black"/>
<path d="M71.0079 97.1529C70.3408 96.6575 69.5183 96.4025 68.6802 96.4311C66.9729 96.8077 65.2402 97.0651 63.4953 97.2014C63.6794 97.3603 63.8494 97.5341 64.0035 97.721C64.6608 98.5031 65.4869 99.1346 66.4228 99.5705C68.5337 99.2622 70.6154 98.7872 72.6473 98.1504C72.0605 97.8856 71.5097 97.5505 71.0079 97.1529Z" fill="black"/>
<path d="M54.8334 98.193C54.4241 97.4634 53.7717 96.8917 52.984 96.5723C51.2842 96.2289 49.6117 95.768 47.979 95.1931C48.0742 95.4016 48.1527 95.6169 48.2138 95.8372C48.5032 96.8366 49.012 97.7627 49.705 98.5514C51.7327 99.1073 53.8027 99.5042 55.8953 99.7385C55.4796 99.2663 55.1231 98.7475 54.8334 98.193Z" fill="black"/>
<path fill-rule="evenodd" clip-rule="evenodd" d="M95.3283 70.4047C95.3188 70.4164 95.2331 70.4281 95.2331 70.4281C90.595 85.2512 76.7799 96.0335 60.4991 96.0327C44.5012 96.0327 30.8867 85.6163 26.0205 71.1841C26.0188 71.1732 26.0257 71.1615 26.0257 71.1615H26.0634C25.3129 68.7251 24.7779 66.2304 24.4642 63.7049V63.6514H24.3442C24.1765 62.2652 24.0958 60.8703 24.1025 59.4745C24.0991 55.7854 24.6574 52.1162 25.7591 48.5869C25.7643 48.576 25.7703 48.5685 25.7703 48.5685C30.4093 33.7454 44.227 22.9639 60.5026 22.9639C76.5039 22.9639 90.1305 33.3803 94.9949 47.815C94.9966 47.8267 95.0146 47.84 95.0146 47.84H95.0249C95.8079 50.2738 96.3756 52.7685 96.7218 55.2967V55.3502H96.6472C96.842 56.735 96.9544 58.1296 96.984 59.5271C96.984 60.1099 96.9667 60.683 96.9494 61.2527C96.9324 61.8155 96.9155 62.375 96.9155 62.9372C96.9155 65.3423 96.1823 67.6804 95.4774 69.9283C95.4274 70.0876 95.3776 70.2464 95.3283 70.4047ZM60.5 28.6437C43.6211 28.6437 29.8891 42.4852 29.8891 59.4995C29.8891 76.5139 43.6211 90.3554 60.5 90.3554C77.3789 90.3554 91.1109 76.513 91.1109 59.4995C91.1109 42.486 77.3789 28.6437 60.5 28.6437Z" fill="black"/>
<path d="M46.9394 96.1714C46.6927 95.3825 46.1849 94.6954 45.4954 94.2174C43.8926 93.52 42.3429 92.7121 40.858 91.7998C40.9073 92.0199 40.9391 92.2433 40.9532 92.4681C41.0314 93.5238 41.3449 94.5501 41.8719 95.4755C43.735 96.4438 45.675 97.2645 47.673 97.9299C47.3574 97.3743 47.1111 96.784 46.9394 96.1714Z" fill="black"/>
<path d="M39.6342 92.5483C39.5525 91.7036 39.1836 90.9097 38.5861 90.2927C37.1798 89.2814 35.846 88.1775 34.5941 86.9888C34.597 87.2163 34.5815 87.4436 34.5478 87.6688C34.4041 88.7347 34.5021 89.8183 34.8349 90.8432C36.4549 92.1746 38.1797 93.3799 39.9933 94.4479C39.7958 93.8311 39.6753 93.1933 39.6342 92.5483Z" fill="black"/>
<path d="M74.0597 22.8277C74.3055 23.6168 74.8132 24.3041 75.5029 24.7816C77.1056 25.4791 78.6553 26.2871 80.1402 27.1993C80.0912 26.9792 80.0594 26.7557 80.0451 26.5309C79.9669 25.4752 79.6531 24.4488 79.1255 23.5236C77.2618 22.5529 75.3209 21.7299 73.3218 21.0625C73.6394 21.6199 73.8872 22.2126 74.0597 22.8277Z" fill="black"/>
<path d="M98.2747 69.1775C97.5138 69.515 96.8899 70.0899 96.5015 70.8115C95.9783 72.4958 95.3357 74.1427 94.5784 75.7403C94.7852 75.6717 94.9973 75.6189 95.2126 75.5824C96.3215 75.3749 97.3633 74.9114 98.2507 74.2307C99.0189 72.2586 99.6295 70.2314 100.077 68.1675C99.5251 68.5809 98.9189 68.9206 98.2747 69.1775Z" fill="black"/>
<path d="M91.0715 83.7567C90.2121 83.753 89.3792 84.0463 88.7207 84.5845C88.2219 85.147 87.7057 85.6973 87.172 86.2353C86.4744 86.9353 85.7543 87.6036 85.0115 88.2402C85.2471 88.2608 85.4804 88.3008 85.7091 88.3597C86.7426 88.6131 87.8224 88.6283 88.8629 88.4039C88.9718 88.2978 89.0815 88.1926 89.1895 88.0848C90.5948 86.6744 91.8937 85.1667 93.076 83.5737C92.419 83.7205 91.745 83.782 91.0715 83.7567Z" fill="black"/>
<path d="M87.754 31.5192C87.6588 32.3811 87.8631 33.2492 88.3342 33.9844C89.4921 35.2523 90.5615 36.5944 91.5351 38.0018C91.5792 37.7877 91.6397 37.5772 91.716 37.3719C92.0826 36.3353 92.2082 35.2321 92.0836 34.1423C91.1779 33.0174 90.2121 31.9396 89.1903 30.9135C88.7333 30.4557 88.2679 30.0102 87.7943 29.5769C87.8617 30.2235 87.8482 30.8757 87.754 31.5192Z" fill="black"/>
<path d="M95.4362 76.8463C94.6254 77.0172 93.8971 77.4488 93.3683 78.0718C92.4998 79.6122 91.5221 81.0916 90.4424 82.4994C90.6699 82.4728 90.8992 82.4644 91.128 82.4743C92.226 82.5048 93.3157 82.2809 94.3076 81.821C95.4871 80.0417 96.5213 78.1747 97.4005 76.2373C96.7767 76.5251 96.116 76.7299 95.4362 76.8463Z" fill="black"/>
<path d="M58.0258 20.4736C58.5953 21.1186 59.3802 21.5467 60.242 21.6824C60.3277 21.6824 60.4134 21.6824 60.4991 21.6824C62.1282 21.6827 63.7554 21.7871 65.3704 21.9949C65.2265 21.8038 65.099 21.6015 64.9891 21.39C64.5104 20.4916 63.838 19.7048 63.0179 19.0835C62.1832 19.0326 61.3442 19 60.5009 19C59.2113 19 57.9324 19.0599 56.664 19.1796C57.1698 19.5558 57.6271 19.9903 58.0258 20.4736Z" fill="black"/>
<path d="M62.9742 98.5248C62.4047 97.8796 61.6193 97.4516 60.7571 97.3168C60.6714 97.3168 60.5857 97.3168 60.5 97.3168C58.8707 97.3167 57.2431 97.2124 55.6279 97.0044C55.7722 97.1957 55.9 97.3982 56.0101 97.6101C56.4886 98.5086 57.161 99.2955 57.9812 99.9166C58.816 99.9675 59.6558 100 60.4991 100C61.7881 100 63.0668 99.9402 64.3351 99.8205C63.8295 99.4438 63.3725 99.0087 62.9742 98.5248Z" fill="black"/>
<path d="M22.0594 66.0757C22.6358 65.4351 22.9768 64.6256 23.0287 63.7751C22.8694 62.3552 22.7893 60.9279 22.7887 59.4995C22.7887 59.1899 22.7924 58.8808 22.7999 58.5723C22.6393 58.7199 22.4674 58.8554 22.2857 58.9774C21.3501 59.6251 20.5837 60.4778 20.048 61.4669C20.1476 63.5692 20.4103 65.6611 20.8339 67.7248C21.1672 67.1256 21.5792 66.5712 22.0594 66.0757Z" fill="black"/>
<path d="M33.2452 87.4802C33.3403 86.6179 33.1357 85.7495 32.6641 85.0141C31.5062 83.7466 30.4368 82.4047 29.4632 80.9976C29.4193 81.2119 29.3592 81.4227 29.2832 81.6283C28.9152 82.6629 28.7887 83.7645 28.913 84.8529C29.8197 85.9795 30.7866 87.0589 31.8097 88.0867C32.2668 88.5444 32.7318 88.99 33.2049 89.4233C33.1377 88.7764 33.1512 88.1239 33.2452 87.4802Z" fill="black"/>
<path d="M81.3615 26.4516C81.4439 27.2961 81.8128 28.0897 82.4096 28.7071C83.816 29.7187 85.1498 30.8229 86.4016 32.0119C86.3989 31.7844 86.4144 31.5571 86.4479 31.3319C86.5919 30.266 86.4939 29.1823 86.1608 28.1574C84.5408 26.826 82.8161 25.6208 81.0024 24.5527C81.2002 25.1693 81.3208 25.8068 81.3615 26.4516Z" fill="black"/>
<path d="M66.1666 20.8061C66.576 21.5353 67.228 22.1069 68.0152 22.4267C69.7156 22.7699 71.3887 23.2308 73.0219 23.8059C72.9265 23.5975 72.848 23.3822 72.787 23.1619C72.4977 22.1622 71.9889 21.2358 71.2958 20.4469C69.2682 19.891 67.1982 19.4941 65.1056 19.2598C65.5214 19.732 65.8776 20.2512 66.1666 20.8061Z" fill="black"/>
<path d="M24.2594 73.9493C24.6787 73.2272 24.8479 72.3925 24.7419 71.5693C24.1846 69.9019 23.745 68.1993 23.4263 66.4734C23.3013 66.6476 23.1629 66.8123 23.0124 66.9663C22.2286 67.7953 21.6538 68.791 21.3335 69.8743C21.8664 71.9001 22.5584 73.883 23.4032 75.8055C23.6059 75.1536 23.8936 74.5297 24.2594 73.9493Z" fill="black"/>
<path d="M98.7178 60.0225C99.6539 59.3746 100.421 58.5216 100.957 57.5322C100.857 55.4296 100.594 53.3374 100.17 51.2734C99.8361 51.8729 99.4229 52.4272 98.9415 52.9225C98.3648 53.5632 98.024 54.3731 97.973 55.224C98.1317 56.6439 98.2115 58.0712 98.2121 59.4995C98.2121 59.8091 98.2084 60.1182 98.201 60.4268C98.3624 60.2794 98.5352 60.1442 98.7178 60.0225Z" fill="black"/>
<path d="M95.3214 44.9305C95.4065 44.7383 95.5059 44.5523 95.6188 44.3742C96.2086 43.4103 96.5636 42.3275 96.6566 41.2089C95.713 39.351 94.6243 37.5667 93.4 35.8716C93.3339 36.5334 93.184 37.1847 92.9535 37.8105C92.6891 38.609 92.6987 39.4697 92.9809 40.2624C93.8699 41.7643 94.6519 43.324 95.3214 44.9305Z" fill="black"/>
<path d="M96.7406 45.0499C96.3213 45.7717 96.1521 46.6061 96.2581 47.4291C96.8153 49.0965 97.2549 50.7991 97.5736 52.525C97.6987 52.3511 97.8371 52.1866 97.9876 52.0329C98.7717 51.2037 99.3468 50.2078 99.6673 49.1241C99.1346 47.0982 98.4427 45.1153 97.5976 43.1929C97.3947 43.8451 97.1066 44.4692 96.7406 45.0499Z" fill="black"/>
<path d="M78.5839 94.1355C77.837 93.7953 76.9929 93.7154 76.1928 93.9091C74.5957 94.6429 72.9462 95.263 71.2573 95.7645C71.4634 95.8797 71.6595 96.0113 71.8435 96.158C72.6637 96.7948 73.6208 97.2431 74.6433 97.4695C76.6429 96.7267 78.5773 95.8268 80.4273 94.7787C79.7872 94.6418 79.1677 94.4256 78.5839 94.1355Z" fill="black"/>
<path d="M75.8012 72.0521L68.6682 62.6239C69.842 62.1711 70.9267 61.5239 71.8743 60.7108C73.6038 59.218 75.6666 56.4061 75.6666 51.484C75.7856 48.4741 74.5705 45.5598 72.3311 43.4843C68.8045 40.3291 64.1569 40.4293 62.6657 40.4293H48.4932C46.2287 40.4454 44.4033 42.2426 44.4095 44.45C44.4095 44.5336 44.4224 44.6614 44.4224 44.7474V48.3596H64.3909C66.2073 48.4145 67.6536 49.8604 67.6638 51.6319V52.3904C67.6431 54.1365 66.1823 55.5399 64.3909 55.5348H61.2405C59.6988 55.536 58.2888 56.3823 57.5939 57.7238C56.8989 59.0652 57.0371 60.6736 57.9512 61.8837L69.2193 76.7787C70.0853 77.924 71.5124 78.532 72.963 78.3735C74.4136 78.2151 75.6672 77.3144 76.2518 76.0107C76.8363 74.7069 76.6629 73.1982 75.7969 72.0529L75.8012 72.0521Z" fill="#FF0000"/>
<path d="M44.4224 55.5339V74.2274H44.4712C44.7359 76.6464 46.8418 78.4739 49.3374 78.4503C51.8161 78.4506 53.9049 76.6469 54.2035 74.2483L54.2567 55.5356L44.4224 55.5339Z" fill="black"/>
</svg>
