<svg width="120" height="120" viewBox="0 0 120 120" fill="none" xmlns="http://www.w3.org/2000/svg">
<rect width="120" height="120" rx="60" fill="#EDF0F4"/>
<path fill-rule="evenodd" clip-rule="evenodd" d="M29 27.8464V82.7544C29.0013 83.7829 29.2316 84.797 29.6726 85.7166C30.1145 86.641 30.7577 87.4536 31.5542 88.0947L57.3073 108.874C58.2133 109.603 59.3393 110 60.5 110C61.6607 110 62.7865 109.603 63.6925 108.874L89.446 88.0947C90.2425 87.4536 90.8855 86.641 91.3276 85.7166C91.7685 84.7969 91.9987 83.7829 92 82.7544V27.8464C92 26.0305 91.2824 24.2892 90.0052 23.0053C88.7279 21.7213 86.9958 21 85.1894 21H35.8109C34.0045 21 32.2719 21.7213 30.9948 23.0053C29.7178 24.2892 29 26.0305 29 27.8464Z" fill="#1273EA"/>
<path d="M81.9872 51.6697V37.8898C81.9872 36.0627 81.2626 34.3101 79.9727 33.018C78.6829 31.7259 76.9334 31 75.1092 31H45.8779C44.0539 31 42.3044 31.7259 41.0145 33.018C39.7246 34.3101 39 36.0627 39 37.8898V77.8728C39.0013 78.9078 39.2338 79.9283 39.6792 80.8538C40.1255 81.7841 40.7749 82.6018 41.5791 83.247L52.2228 91.8075C52.3492 91.9102 52.5019 91.9748 52.6635 91.9941C52.8248 92.0131 52.988 91.986 53.1356 91.9157C53.2811 91.8465 53.4048 91.7359 53.4926 91.5966C53.5791 91.4586 53.6247 91.2988 53.6243 91.1358V62.8658C53.6243 62.6374 53.7147 62.4183 53.8759 62.2567C54.0398 62.0942 54.2576 62.0039 54.484 62.0045H62.2216C63.5897 62.0045 64.9018 62.549 65.8692 63.5179C66.8366 64.4871 67.38 65.8015 67.38 67.1719V91.1358C67.3804 91.2987 67.4264 91.458 67.5123 91.5942C67.5999 91.7325 67.7231 91.8425 67.8678 91.9116C68.0142 91.9818 68.1762 92.0092 68.3364 91.9908C68.4966 91.9725 68.649 91.9091 68.7772 91.8075L79.4209 83.247C80.2251 82.6018 80.8745 81.7841 81.321 80.8538C81.7662 79.9283 81.9987 78.9078 82 77.8728V65.4494C82 63.6222 81.2754 61.8697 79.9855 60.5776C78.6956 59.2855 76.9463 58.5596 75.1221 58.5596C76.944 58.5561 78.6901 57.8287 79.9772 56.5371C81.2643 55.2454 81.9872 53.4947 81.9872 51.6697ZM62.2131 55.1147H54.4754C54.249 55.1153 54.0313 55.025 53.8675 54.8625C53.7882 54.7838 53.7251 54.6893 53.6818 54.5846C53.6385 54.48 53.616 54.3673 53.6156 54.2533V38.751C53.6156 38.5227 53.7063 38.3036 53.8675 38.142C54.0312 37.9795 54.249 37.8891 54.4754 37.8898H66.5117C66.7397 37.8898 66.9585 37.9807 67.1197 38.142C67.2809 38.3036 67.3716 38.5227 67.3716 38.7512V49.9473C67.3716 51.3177 66.828 52.6321 65.8605 53.601C64.8933 54.5702 63.5812 55.1147 62.2131 55.1147Z" fill="white"/>
</svg>
