<svg width="120" height="120" viewBox="0 0 120 120" fill="none" xmlns="http://www.w3.org/2000/svg">
<circle cx="60" cy="60" r="60" fill="#EDF0F4"/>
<path d="M60 22L94 40.8889V78.6667L60 97.5556L26 78.6667V40.8889L60 22Z" fill="#303642"/>
<path d="M70.0073 41.1304C71.6016 41.1304 72.8941 39.8326 72.8941 38.2318C72.8941 36.631 71.6016 35.3333 70.0073 35.3333V41.1304Z" fill="white"/>
<path d="M61.1549 69.0531V38.8115H55.3813V69.0531H61.1549Z" fill="white"/>
<path d="M58.8452 41.1304H70.0073V35.3333H58.8452V41.1304Z" fill="white"/>
<path d="M61.1549 38.8115C61.1549 40.0922 60.1208 41.1304 58.8455 41.1304V35.3333C56.9323 35.3333 55.3813 36.8905 55.3813 38.8115H61.1549Z" fill="white"/>
<path fill-rule="evenodd" clip-rule="evenodd" d="M66.1585 50.0193H58.2681V44.2222H66.1585C67.7528 44.2222 69.0453 45.5199 69.0453 47.1207C69.0453 48.7215 67.7528 50.0193 66.1585 50.0193Z" fill="white"/>
<path fill-rule="evenodd" clip-rule="evenodd" d="M49.415 74.7535C49.415 69.951 53.2924 66.0579 58.0753 66.0579C62.8582 66.0579 66.7356 69.951 66.7356 74.7535C66.7356 79.556 62.8582 83.4492 58.0753 83.4492C53.2924 83.4492 49.415 79.556 49.415 74.7535ZM60.962 74.7535C60.962 73.1527 59.6696 71.855 58.0753 71.855C56.481 71.855 55.1885 73.1527 55.1885 74.7535C55.1885 76.3543 56.481 77.6521 58.0753 77.6521C59.6696 77.6521 60.962 76.3543 60.962 74.7535Z" fill="white"/>
</svg>
