<svg width="120" height="120" viewBox="0 0 120 120" fill="none" xmlns="http://www.w3.org/2000/svg">
<path fill-rule="evenodd" clip-rule="evenodd" d="M60 120C27 120 0 93.0006 0 59.7012C0.3 26.7019 27 -0.297518 60.3 0.00247602C93.3 0.30247 120 27.0019 120 60.6012C119.7 93.3006 93 120 60 120Z" fill="#EDF0F4"/>
<path fill-rule="evenodd" clip-rule="evenodd" d="M99.1705 52.3691C95.7519 33.6143 79.3485 19.7917 60.0685 19.7917C40.7885 19.7917 24.3851 33.6143 20.9665 52.3691L20.5859 54.4568L56.2687 77.9548L71.4855 61.9265L71.5544 61.8515C72.703 60.5637 72.628 58.5873 71.3677 57.3908L71.2927 57.3218C70.0048 56.1733 68.0284 56.2483 66.8319 57.5086L55.3123 69.6419L27.7197 51.4718L27.7895 51.1939C31.5261 36.6712 44.7103 26.2084 60.0685 26.2084C76.235 26.2084 89.9928 37.8016 92.8578 53.5197C93.1756 55.2629 94.8463 56.4185 96.5895 56.1007C98.3326 55.783 99.4882 54.1123 99.1705 52.3691ZM63.8976 41.5245L48.1605 57.4634L48.0887 57.5385C46.9165 58.8036 46.9532 60.7801 48.1894 62.0006L48.2644 62.0723C49.5296 63.2445 51.506 63.2078 52.7265 61.9717L64.7947 49.7486L92.4123 67.6246L92.3474 67.8847C88.611 82.4074 75.4267 92.8702 60.0685 92.8702C43.6591 92.8702 29.7603 80.9319 27.1673 64.9087L27.1508 64.8155C26.8253 63.1176 25.2055 61.9761 23.4876 62.2541C21.7385 62.5372 20.55 64.1846 20.833 65.9338C23.927 85.0528 40.4987 99.2868 60.0685 99.2868C79.3485 99.2868 95.7519 85.4643 99.1705 66.7095L99.5543 64.6038L63.8976 41.5245Z" fill="url(#paint0_linear_204_30308)"/>
<defs>
<linearGradient id="paint0_linear_204_30308" x1="-2.71836" y1="38.7925" x2="23.7854" y2="112.359" gradientUnits="userSpaceOnUse">
<stop offset="0.119792" stop-color="#053F92"/>
<stop offset="1" stop-color="#4CDADF"/>
</linearGradient>
</defs>
</svg>
