<svg width="120" height="120" viewBox="0 0 120 120" fill="none" xmlns="http://www.w3.org/2000/svg">
<circle cx="60" cy="60" r="60" fill="#EDF0F4"/>
<path fill-rule="evenodd" clip-rule="evenodd" d="M55.6907 26.5591C53.5701 27.0705 51.5492 27.8793 51.1305 28.3838C50.9234 28.6333 50.9111 28.5208 51.5766 32.451C52.0743 35.3899 52.3189 35.951 53.6628 37.2381C54.7383 38.2681 54.6664 38.443 53.2864 38.1558C52.4437 37.9804 51.8682 37.7373 51.2273 37.2864C51.006 37.1306 50.8069 37.1852 49.9888 37.6257C44.9749 40.3254 39.2665 46.7543 35.7594 53.6514C33.9378 57.2339 32.83 60.4845 32.122 64.3241C31.7406 66.3928 31.7406 71.2045 32.122 73.2486C33.5631 80.9717 37.9906 87.1499 44.5914 90.6488C48.4265 92.6818 53.5758 93.874 58.5092 93.8712C61.6374 93.8694 65.3122 93.3599 68.065 92.5462C78.2995 89.521 84.8884 83.1543 86.8032 74.44C87.8001 69.9029 87.3696 64.1443 85.6741 59.3372C84.4986 56.0046 83.2453 53.5683 80.9477 50.15C77.2344 44.6254 72.1555 39.9762 66.7445 37.1483C66.1419 36.8334 65.516 36.5758 65.3534 36.5758C65.1909 36.5758 64.7254 36.8045 64.319 37.0841C63.6959 37.5128 62.3448 37.9257 61.5656 37.9257C61.2797 37.9257 61.5476 37.4847 62.2273 36.8364C62.6625 36.4213 63.161 35.7433 63.3898 35.2552C63.7776 34.4279 63.7917 34.3019 63.8363 31.2724C63.8771 28.5023 63.8532 28.1116 63.6284 27.8632C63.3313 27.5347 62.1841 27.0948 61.0154 26.861C60.5617 26.7702 59.8309 26.624 59.3916 26.5361C58.4381 26.3455 56.5269 26.3573 55.6907 26.5591Z" fill="#81B797"/>
<path d="M57.423 38.6398C54.4232 38.8198 52.6732 37.5149 52.1733 36.8399C51.8733 36.315 51.2284 35.07 51.0484 34.2901C50.8684 33.5101 50.3734 30.1153 50.1484 28.5154C50.9734 27.6905 53.5832 25.9956 57.423 25.8156C61.2628 25.6356 63.6727 27.0405 64.3976 27.7655C64.4475 29.7653 64.4726 34.0201 64.1726 35.04C63.7976 36.315 63.3477 36.6149 62.8977 37.0649C62.4477 37.5149 61.1728 38.4148 57.423 38.6398Z" fill="#D28B52"/>
<path d="M57.123 29.8964C51.9633 30.3764 50.3235 28.4465 50.1484 27.4215C50.7484 26.6966 52.9533 25.1567 56.973 24.7967C60.9928 24.4367 63.6476 26.2466 64.4726 27.1966C64.1726 27.8965 62.2827 29.4164 57.123 29.8964Z" fill="#E4B85D"/>
<path d="M53.5985 44.0237C52.9986 43.5438 52.3487 39.674 52.0986 37.7991C52.6986 37.9241 54.6935 38.1591 57.8733 38.0991C61.0531 38.0391 62.898 37.2741 63.423 36.8992C63.3979 38.4991 63.318 41.9239 63.198 42.8238C63.048 43.9488 61.6231 44.3987 58.7732 44.8487C55.9234 45.2987 54.3485 44.6237 53.5985 44.0237Z" fill="#95B77A"/>
<path fill-rule="evenodd" clip-rule="evenodd" d="M59.9204 24.1113C60.3162 24.1852 61.1127 24.3259 61.6901 24.4239C63.8771 24.7945 65.9773 25.6119 66.4507 26.2768C66.8506 26.8384 66.8699 27.6634 66.568 31.2937C66.4453 32.7706 66.4193 33.7876 66.5024 33.8662C66.578 33.9378 67.3485 34.3618 68.2147 34.8086C73.0097 37.2818 77.3853 40.9617 81.1045 45.6488C85.3329 50.9776 88.3822 57.3882 89.6668 63.6493C91.3071 71.6448 89.2961 79.6419 84.085 85.848C80.6499 89.9388 76.5374 92.4228 69.1972 94.8405C67.8969 95.2687 66.1216 95.7454 64.7511 96.0343C60.3429 96.963 54.4331 96.6928 49.5408 95.3386C41.4055 93.0867 35.472 88.3069 31.9032 81.1306C30.4851 78.2788 29.7762 76.2979 29.2674 73.7659C28.9079 71.9768 28.9115 67.5508 29.2743 65.2242C30.7107 56.012 34.8665 47.7154 41.4359 40.9444C43.7476 38.5616 45.9234 36.8361 48.9227 35.0071C49.3384 34.7536 49.3511 34.7117 49.261 33.8973C49.2095 33.4319 49.1024 32.7136 49.0232 32.3011C48.6949 30.5928 48.5413 29.696 48.4075 28.7076C48.3298 28.1336 48.2313 27.5534 48.1884 27.4183C47.9266 26.5938 51.7658 24.7804 55.0905 24.1582C56.0893 23.9713 59.0198 23.9428 59.9204 24.1113ZM55.6905 26.5591C53.5699 27.0706 51.5489 27.8793 51.1303 28.3839C50.9232 28.6333 50.9109 28.5209 51.5764 32.4511C52.074 35.39 52.3187 35.9511 53.6626 37.2382C54.738 38.2682 54.6662 38.4431 53.2861 38.1558C52.4435 37.9805 51.868 37.7374 51.227 37.2865C51.0058 37.1306 50.8066 37.1853 49.9886 37.6258C44.9747 40.3255 39.2663 46.7544 35.7592 53.6515C33.9376 57.234 32.8297 60.4846 32.1218 64.3242C31.7404 66.3929 31.7404 71.2046 32.1218 73.2487C33.5629 80.9717 37.9903 87.15 44.5911 90.6489C48.4263 92.6819 53.5756 93.8741 58.509 93.8713C61.6372 93.8695 65.312 93.36 68.0647 92.5463C78.2992 89.5211 84.8882 83.1544 86.803 74.4401C87.7998 69.903 87.3694 64.1444 85.6739 59.3373C84.4984 56.0047 83.245 53.5684 80.9475 50.1501C77.2342 44.6254 72.1553 39.9763 66.7442 37.1484C66.1417 36.8335 65.5158 36.5758 65.3532 36.5758C65.1906 36.5758 64.7252 36.8046 64.3187 37.0841C63.6957 37.5128 62.3445 37.9257 61.5653 37.9257C61.2794 37.9257 61.5473 37.4848 62.2271 36.8365C62.6622 36.4214 63.1608 35.7434 63.3895 35.2553C63.7774 34.428 63.7915 34.302 63.836 31.2724C63.8768 28.5024 63.853 28.1117 63.6282 27.8633C63.331 27.5348 62.1839 27.0949 61.0152 26.8611C60.5614 26.7703 59.8307 26.6241 59.3914 26.5362C58.4379 26.3455 56.5267 26.3574 55.6905 26.5591Z" fill="#1A4432"/>
<mask id="mask0_204_30568" style="mask-type:luminance" maskUnits="userSpaceOnUse" x="36" y="54" width="47" height="36">
<path fill-rule="evenodd" clip-rule="evenodd" d="M80.3717 78.7469C75.0471 88.1213 64.2477 89.6962 59.298 89.9962C57.773 89.9962 53.5833 89.5612 49.0236 87.8214C43.3239 85.6465 40.8491 82.2717 37.9243 76.497C34.9995 70.7224 37.9993 59.548 39.3492 58.1981C40.6991 56.8482 47.5987 54.5233 59.298 54.0733C68.6574 53.7134 76.897 55.2233 79.8468 56.0232C81.7967 60.473 84.6315 71.2473 80.3717 78.7469Z" fill="white"/>
</mask>
<g mask="url(#mask0_204_30568)">
<path d="M80.3717 78.7469C75.0471 88.1213 64.2477 89.6962 59.298 89.9962C57.773 89.9962 53.5833 89.5612 49.0236 87.8214C43.3239 85.6465 40.8491 82.2717 37.9243 76.497C34.9995 70.7224 37.9993 59.548 39.3492 58.1981C40.6991 56.8482 47.5987 54.5233 59.298 54.0733C68.6574 53.7134 76.897 55.2233 79.8468 56.0232C81.7967 60.473 84.6315 71.2473 80.3717 78.7469Z" fill="#F3B3BD"/>
<path d="M58.9979 60.973C41.8389 61.093 38.0991 58.4731 38.3741 57.1482C41.6239 55.4733 50.6284 52.1235 60.6478 52.1235C73.1721 52.1235 81.5716 54.8234 81.6466 55.3483C81.7216 55.8733 80.4466 60.823 58.9979 60.973Z" fill="#F8D5DA"/>
</g>
<path d="M44.3741 66.3724C44.4491 67.7224 43.3242 69.2973 40.9993 71.2471C40.6243 70.9221 39.8444 70.0322 39.7244 69.0723C39.5744 67.8723 40.4743 65.9975 41.6742 64.5725C42.8742 63.1476 44.2991 65.0225 44.3741 66.3724Z" fill="#F098A2"/>
<path d="M50.7484 82.7214C50.3734 79.3466 56.673 71.3971 61.8477 68.6973C68.0724 65.1725 76.8469 63.8976 79.0217 68.3223C81.1966 72.747 79.5467 78.2217 76.3219 81.0715C73.0971 83.9214 69.1223 86.6962 62.5227 87.8961C55.9231 89.0961 51.1234 86.0962 50.7484 82.7214Z" fill="#F098A2"/>
<path d="M50.7486 50.4735C50.2236 52.8733 49.0987 54.9732 45.2739 57.973C39.7992 61.7978 39.3493 56.4731 40.2492 54.1483C41.1492 51.8234 42.2741 48.5236 46.6988 46.1237C51.1236 43.7239 51.2735 48.0736 50.7486 50.4735Z" fill="white"/>
<path d="M79.3973 80.4715C80.2223 81.8965 79.3973 83.8464 76.3975 85.6462C75.4975 86.3962 74.9726 86.9212 73.5477 86.1712C72.1227 85.4213 72.9477 83.8463 74.1476 82.0465C75.3476 80.2466 78.5724 79.0466 79.3973 80.4715Z" fill="white"/>
<path d="M34.8497 73.7971L33.7998 64.8726L35.3747 69.6723C36.9746 68.4225 40.4444 65.7126 41.5243 64.8726C42.8743 63.8227 42.4243 63.2227 44.5992 64.8726C46.774 66.5225 52.9987 72.0722 53.9736 71.8472C54.9486 71.6222 64.623 62.1728 65.3729 62.7727C65.9729 63.2527 72.7725 66.6725 76.0973 68.3224L82.6219 60.2229L86.5217 66.3725L82.6219 62.7727C80.8471 65.3725 77.1922 70.6473 76.7723 70.9473C76.2473 71.3222 67.3978 64.8726 65.7479 64.8726C64.428 64.8726 57.6484 72.2721 54.4236 75.972L43.2492 66.3725L34.8497 73.7971Z" fill="#BDF5E8"/>
</svg>
