<svg width="120" height="120" viewBox="0 0 120 120" fill="none" xmlns="http://www.w3.org/2000/svg">
<circle cx="60" cy="60" r="60" fill="#EDF0F4"/>
<path fill-rule="evenodd" clip-rule="evenodd" d="M60.4664 69.3926L37.5485 56.2993C34.0619 60.8112 32 66.3962 32 72.4428C32 87.4351 44.6763 99.5888 60.3134 99.5888C60.3643 99.5888 60.4154 99.5886 60.4664 99.5883V69.3926Z" fill="#47A2F8"/>
<path fill-rule="evenodd" clip-rule="evenodd" d="M60.4664 69.3926L83.3843 56.2993C86.8709 60.8112 88.9328 66.3962 88.9328 72.4427C88.9328 87.4351 76.2566 99.5888 60.6195 99.5888C60.5684 99.5888 60.5174 99.5888 60.4664 99.5885V69.3926Z" fill="#7EC6F9"/>
<path d="M60.4664 21L40.6471 51.3795L60.4664 40.1306V21Z" fill="#47A2F8"/>
<path d="M60.4664 21L80.2858 51.3795L60.4664 40.1306V21Z" fill="#7EC6F9"/>
<path d="M60.4664 62.8578L40.6471 51.3794L60.4664 40.1306V62.8578Z" fill="#7EC6F9"/>
<path d="M60.4664 62.8578L80.2858 51.3794L60.4664 40.1306V62.8578Z" fill="#D2ECFD"/>
<path d="M60.4664 69.4387L83.4232 56.2769L60.4664 99.5886V69.4387Z" fill="#D2ECFD"/>
<path d="M60.4664 69.4387L37.5096 56.2769L60.4664 99.5886V69.4387Z" fill="#7EC6F9"/>
</svg>
