<svg width="120" height="120" viewBox="0 0 120 120" fill="none" xmlns="http://www.w3.org/2000/svg">
<path fill-rule="evenodd" clip-rule="evenodd" d="M60 120C27 120 0 93.0006 0 59.7012C0.3 26.7019 27 -0.297518 60.3 0.00247602C93.3 0.30247 120 27.0019 120 60.6012C119.7 93.3006 93 120 60 120Z" fill="#EDF0F4"/>
<path fill-rule="evenodd" clip-rule="evenodd" d="M59.7941 24.6216C61.0023 24.6216 61.9817 25.601 61.9817 26.8092C61.9749 28.0145 60.9995 28.99 59.7941 28.9968C58.5859 28.9968 57.6065 28.0173 57.6065 26.8092C57.6065 25.601 58.5859 24.6216 59.7941 24.6216ZM28.8879 76.5912C28.8879 75.383 29.8673 74.4036 31.0755 74.4036V74.404C31.859 74.4072 32.5828 74.8227 32.9807 75.4976C33.1571 75.8504 33.2631 76.2032 33.2631 76.5912C33.2631 77.7994 32.2837 78.7788 31.0755 78.7788C29.8673 78.7788 28.8879 77.7994 28.8879 76.5912ZM88.6563 45.7906C89.8645 45.7906 90.8439 44.8112 90.8439 43.603C90.8439 42.3949 89.8645 41.4155 88.6563 41.4155C87.4481 41.4155 86.4687 42.3949 86.4687 43.603C86.4701 43.9743 86.5674 44.3389 86.7511 44.6614C87.1338 45.3561 87.8632 45.7884 88.6563 45.7906ZM29.1331 42.4035C29.7327 41.3451 31.0383 40.9919 32.0967 41.5919C33.1551 42.1915 33.5083 43.5322 32.9083 44.5554C32.3087 45.6138 31.0031 45.9666 29.9447 45.367C28.8863 44.7674 28.5335 43.4618 29.1331 42.4035ZM89.5363 74.8268C89.2187 74.6152 88.8307 74.5444 88.4427 74.5092C87.6542 74.4986 86.9209 74.9131 86.5236 75.5943C86.1262 76.2754 86.1262 77.1178 86.5236 77.7989C86.9209 78.4801 87.6542 78.8946 88.4427 78.884C89.2187 78.884 89.9227 78.4608 90.3479 77.7904C90.9479 76.7672 90.5947 75.4264 89.5363 74.8268ZM59.0177 95.3599C58.1005 95.0071 57.5005 94.0547 57.6065 93.0667V93.0663C57.6102 93.0396 57.6226 93.0149 57.6417 92.9959C57.8268 91.8166 58.9276 91.0067 60.1086 91.181C61.2895 91.3553 62.1095 92.4486 61.9461 93.6311C61.7387 94.7149 60.7916 95.4993 59.6881 95.5011C59.4765 95.5011 59.2293 95.4303 59.0177 95.3599Z" fill="#2683FF"/>
<path fill-rule="evenodd" clip-rule="evenodd" d="M90.877 70.4168C91.1573 70.5247 91.4287 70.6545 91.6886 70.8048C94.7934 72.71 95.8518 76.732 94.089 80.0136C92.2534 83.2947 88.0891 84.4591 84.8091 82.6243C84.493 82.4484 84.2122 82.238 83.9312 82.0274L83.9271 82.0243L66.3568 92.1499C66.3991 92.4776 66.4226 92.8075 66.4272 93.1379C66.4272 93.5263 66.4272 93.8791 66.3568 94.2671C65.7572 97.9718 62.2645 100.512 58.5597 99.9122C54.8549 99.3122 52.3145 95.8195 52.9145 92.1151L35.2386 81.9188C34.9562 82.1303 34.6742 82.3067 34.3919 82.4831C34.3118 82.5231 34.2317 82.566 34.1507 82.6093C33.9466 82.7184 33.7373 82.8304 33.5099 82.9063C30.0167 84.3175 26.0651 82.6227 24.6539 79.1312C23.2427 75.6396 24.9367 71.6868 28.4299 70.2756V49.883C28.1087 49.7782 27.8009 49.6362 27.5127 49.4598C27.2307 49.2834 26.9835 49.107 26.7367 48.9306C24.7704 47.4606 23.7458 45.0473 24.0541 42.6116C24.3623 40.176 25.9558 38.094 28.2263 37.1602C30.4969 36.2265 33.0941 36.585 35.0266 38.0991L52.8789 27.7615C52.8757 27.7328 52.8725 27.7044 52.8694 27.6762C52.8376 27.3929 52.8085 27.1332 52.8085 26.8444C52.8085 23.1048 55.9485 20 59.6885 20C63.4284 20 66.4964 23.034 66.4968 26.8088C66.4968 27.0969 66.4678 27.3563 66.4361 27.6395C66.4329 27.668 66.4296 27.6968 66.4264 27.7259L84.4199 38.1339C84.6667 37.9575 84.9135 37.7811 85.1959 37.6399C88.4779 35.8059 92.6418 37.0039 94.4758 40.2859C96.3098 43.5678 95.1098 47.731 91.8298 49.5658C91.7232 49.6131 91.6165 49.6644 91.5098 49.7157C91.2989 49.8171 91.088 49.9186 90.877 49.989V70.4168ZM85.7967 81.2128C88.2663 82.6591 91.477 81.8124 92.9234 79.3428H92.9242C94.4042 76.838 93.5586 73.6624 91.1242 72.216C89.1553 71.0552 86.6574 71.328 84.9855 72.8864L76.9055 68.194C78.9167 64.0661 77.5759 59.1269 73.8008 56.5513C73.5892 55.7733 73.2716 55.0341 72.9188 54.2934L85.1259 47.379C86.3975 48.5795 88.183 49.0689 89.889 48.6846C92.7118 48.0498 94.4402 45.2274 93.8054 42.4046C93.1706 39.5819 90.3482 37.8535 87.5255 38.4883C84.7027 39.1231 82.9739 41.9458 83.6091 44.7682L71.2608 51.789C68.8616 48.9314 61.2409 47.0262 61.2409 47.0262V31.4663C62.8006 31.0003 64.0208 29.7801 64.4868 28.2203C65.2628 25.6448 63.8164 22.928 61.2409 22.152C58.6653 21.376 55.9465 22.7872 55.1705 25.3628C54.3945 27.9383 55.8409 30.6551 58.4165 31.4311V47.3074C58.4165 47.3074 54.2565 48.6834 52.6329 50.0234C50.9066 50.0636 49.2141 50.5109 47.6934 51.329L36.0858 44.661C36.4742 42.9674 36.0158 41.2034 34.8158 39.9335C32.8403 37.8167 29.5943 37.7111 27.4775 39.6867C26.4628 40.6294 25.8661 41.938 25.8198 43.3223C25.7734 44.7066 26.2813 46.0521 27.2307 47.0606C29.2063 49.1774 32.4891 49.283 34.569 47.3074L45.049 53.3054C41.2382 57.1157 40.7442 63.1137 43.849 67.4885L34.6406 72.816C33.3335 71.6164 31.5343 71.1228 29.8407 71.546C27.0264 72.219 25.2904 75.0458 25.9629 77.8602C26.6355 80.6746 29.462 82.4111 32.2765 81.7389C35.091 81.0668 36.8279 78.2406 36.1562 75.426L45.9998 69.746C48.5307 71.792 51.8403 72.6066 55.0317 71.9688C56.0162 72.4239 57.0299 72.8129 58.0661 73.1332V87.9515C56.6561 88.4103 55.4565 89.3979 54.7861 90.7387C53.4453 93.4199 54.5037 96.7362 57.2205 98.077C57.4321 98.183 57.6441 98.289 57.8909 98.3594C57.9087 98.3594 57.9265 98.3683 57.9442 98.3771C57.9618 98.3859 57.9793 98.3946 57.9969 98.3946C60.8901 99.2746 63.9616 97.6874 64.8416 94.7947C65.7216 91.9019 64.1348 88.8323 61.2417 87.9503V73.4144C61.2417 73.4144 63.8868 73.1672 65.1216 72.7792C68.5649 74.161 72.5012 73.341 75.1064 70.6992L83.3623 75.5328C82.8331 77.7552 83.8211 80.0484 85.7967 81.2128Z" fill="#2683FF"/>
<path d="M70.167 59.3034C70.1318 59.021 70.0966 58.7742 70.061 58.4918C70.0265 58.3008 69.9793 58.1122 69.9198 57.9274C69.9198 57.857 69.8846 57.7862 69.8846 57.7158C69.8142 57.5042 69.7434 57.257 69.673 57.0454V57.0102C69.2244 55.8267 68.5402 54.7465 67.6618 53.8351C67.4502 53.6235 67.2738 53.4471 67.0266 53.2351L66.9914 53.1999C66.7798 53.0235 66.5682 52.8471 66.321 52.7059L66.2858 52.6707C66.0742 52.5295 65.827 52.3531 65.6154 52.2475L65.5802 52.2123C65.3523 52.0807 65.1167 51.9629 64.8746 51.8595L64.8042 51.8243C64.5574 51.7183 64.3102 51.6127 64.0282 51.5067L63.993 51.4715C63.7106 51.4011 63.4638 51.2951 63.1814 51.2599H63.1462C62.8671 51.1957 62.5843 51.1485 62.2994 51.1187H62.2642C60.7616 50.9052 59.2292 51.0876 57.8187 51.6479L57.6423 51.7891C57.4307 51.8595 57.0779 52.0359 56.8663 52.1419C56.7562 52.2146 56.6377 52.2738 56.5135 52.3183C56.4075 52.3535 56.2311 52.4947 56.1255 52.5651C56.0199 52.6355 55.7727 52.8119 55.6315 52.9179L55.5255 52.9883C55.3139 53.1295 55.1375 53.3059 54.9255 53.4823L54.7491 53.6587C54.5375 53.8703 54.3611 54.0467 54.1847 54.2587C53.765 54.1884 53.3402 54.1529 52.9147 54.1527C52.7735 54.1527 52.6679 54.1527 52.5619 54.1879C50.9391 54.2583 49.3867 54.9287 48.1871 56.0226C47.5872 56.5518 47.0936 57.2226 46.7072 57.9278L46.6696 57.9998C46.5608 58.2048 46.4664 58.417 46.3872 58.635C46.352 58.7054 46.352 58.741 46.3168 58.8114C46.242 58.9942 46.183 59.183 46.1404 59.3758C46.1052 59.4462 46.1052 59.5522 46.07 59.6226C46.0348 59.799 45.9996 59.9754 45.964 60.187C45.964 60.2574 45.9288 60.3282 45.9288 60.4338C45.8994 60.7033 45.8877 60.9744 45.8936 61.2454C45.8877 61.4695 45.8995 61.6936 45.9288 61.9158C45.9288 61.9862 45.964 62.057 45.964 62.1626C45.9992 62.3038 45.9992 62.445 46.0344 62.5858C46.0696 62.7266 46.0696 62.7622 46.1048 62.8682C46.1449 62.9697 46.1687 63.0769 46.1752 63.1858C46.1752 63.2918 46.2456 63.3974 46.2812 63.5034C46.31 63.5883 46.3454 63.6708 46.3872 63.7502C46.4403 63.8653 46.4874 63.983 46.5284 64.103C46.5636 64.1734 46.5988 64.209 46.5988 64.2794C47.0946 65.4415 47.9315 66.4256 48.9987 67.1018C49.5279 67.4194 50.0571 67.7018 50.6215 67.8778C50.8403 67.953 51.0644 68.0119 51.2919 68.0542L51.3623 68.0894L51.9975 68.1954L52.1387 68.2306C52.3855 68.2658 52.6327 68.2658 52.9147 68.2658C53.8675 68.2658 54.7847 68.0894 55.6315 67.7014C55.8431 67.8426 56.0195 67.9838 56.2315 68.1246L56.3019 68.1598C56.4783 68.2658 56.6899 68.3714 56.9019 68.4774H56.9363C58.9528 69.505 61.2801 69.7441 63.4634 69.1478H63.4986C63.816 69.0792 64.124 68.9726 64.4158 68.8302L65.3686 68.407C66.2758 69.1147 67.3932 69.4996 68.5438 69.5006C68.7906 69.5006 69.0026 69.4654 69.2494 69.4654L69.4258 69.4302C69.6519 69.3965 69.8757 69.3493 70.0962 69.289C70.3136 69.2221 70.5259 69.1396 70.7314 69.0422L70.8374 69.007C71.049 68.901 71.2254 68.7954 71.4374 68.6894C72.3194 68.125 72.9898 67.2782 73.3778 66.3254C73.519 66.0078 73.5894 65.6902 73.6602 65.373V65.267C73.6954 65.1258 73.6954 64.9846 73.7306 64.8438C73.7306 64.6674 73.7658 64.491 73.7658 64.3146C73.7658 61.9862 72.3194 59.975 70.1658 59.3046" fill="#2683FF"/>
</svg>
