<svg width="120" height="121" viewBox="0 0 120 121" fill="none" xmlns="http://www.w3.org/2000/svg">
<rect y="1" width="120" height="120" rx="60" fill="#E91179"/>
<path d="M75.6562 43.3778C75.2775 40.0161 73.715 37.4119 70.9688 35.5653C68.2225 33.6951 64.7661 32.7599 60.5994 32.7599C57.6165 32.7599 55.036 33.2334 52.858 34.1804C50.6799 35.1037 48.9872 36.3821 47.7798 38.0156C46.5961 39.6255 46.0043 41.4602 46.0043 43.5199C46.0043 45.2481 46.4067 46.7396 47.2116 47.9943C48.0402 49.2491 49.1174 50.3026 50.4432 51.1548C51.7926 51.9834 53.2367 52.6818 54.7756 53.25C56.3144 53.7945 57.794 54.2443 59.2145 54.5994L66.3168 56.446C68.6368 57.0142 71.0161 57.7836 73.4545 58.7543C75.893 59.7249 78.1539 61.0033 80.2372 62.5895C82.3206 64.1757 84.0014 66.1406 85.2798 68.4844C86.5819 70.8281 87.233 73.6335 87.233 76.9006C87.233 81.0199 86.1676 84.6776 84.0369 87.8736C81.9299 91.0696 78.8641 93.5909 74.8395 95.4375C70.8385 97.2841 65.9972 98.2074 60.3153 98.2074C54.8703 98.2074 50.1591 97.3433 46.1818 95.6151C42.2045 93.8868 39.0914 91.4366 36.8423 88.2642C34.5933 85.0682 33.3504 81.2803 33.1136 76.9006H44.1222C44.3352 79.5284 45.1875 81.7183 46.679 83.4702C48.1941 85.1984 50.1236 86.4886 52.4673 87.3409C54.8348 88.1695 57.4271 88.5838 60.2443 88.5838C63.3456 88.5838 66.1037 88.0985 68.5185 87.1278C70.9569 86.1335 72.8745 84.7604 74.2713 83.0085C75.6681 81.233 76.3665 79.1615 76.3665 76.794C76.3665 74.6397 75.7509 72.8759 74.5199 71.5028C73.3125 70.1297 71.6671 68.9934 69.5838 68.0938C67.5241 67.1941 65.1922 66.401 62.5881 65.7145L53.9943 63.3707C48.1705 61.7846 43.554 59.4527 40.1449 56.375C36.7595 53.2973 35.0668 49.2254 35.0668 44.1591C35.0668 39.9687 36.2031 36.3111 38.4759 33.1861C40.7486 30.0611 43.8262 27.6345 47.7088 25.9062C51.5914 24.1544 55.9711 23.2784 60.848 23.2784C65.7723 23.2784 70.1165 24.1425 73.8807 25.8707C77.6686 27.599 80.6515 29.9782 82.8295 33.0085C85.0076 36.0151 86.1439 39.4716 86.2386 43.3778H75.6562Z" fill="white"/>
</svg>
