<svg width="120" height="120" viewBox="0 0 120 120" fill="none" xmlns="http://www.w3.org/2000/svg">
<circle cx="60" cy="60" r="60" fill="url(#paint0_linear_204_30675)"/>
<path fill-rule="evenodd" clip-rule="evenodd" d="M80.9532 32.4973C76.6368 32.4973 72.9323 34.2338 69.8397 37.6903L51.8298 59.7024L40.2366 73.859C39.7405 74.4378 39.0128 74.7851 38.252 74.7851H22.2267C22.1109 74.7686 21.9951 74.8182 21.9125 74.9174C21.8463 75.0001 21.8132 75.0993 21.8132 75.2151V86.0144C21.7967 86.1302 21.8298 86.2625 21.9125 86.3617C21.9786 86.4444 22.1109 86.5106 22.2267 86.494H39.1285C43.445 86.494 47.1495 84.741 50.2421 81.2515L60.0657 69.2614L69.8893 81.2515C72.9654 84.741 76.6368 86.494 80.9532 86.494H97.822C97.9378 86.5106 98.0536 86.461 98.1363 86.3617C98.2024 86.279 98.2355 86.1798 98.2355 86.064V75.2647C98.252 75.1489 98.2024 75.0166 98.1363 74.9174C98.0701 74.8347 97.9378 74.7686 97.822 74.7851H81.7967C81.069 74.8016 80.3579 74.4709 79.8783 73.9251L68.0205 59.4543L79.8287 45.0828C80.3248 44.4874 81.0525 44.1401 81.8132 44.1567H97.8386C97.9543 44.1732 98.0701 44.1236 98.1528 44.0244C98.2189 43.9417 98.252 43.8424 98.252 43.7267V32.9273C98.2686 32.795 98.2355 32.6793 98.1528 32.5966C98.0701 32.5304 97.9543 32.4808 97.8386 32.4973H80.9532ZM38.252 44.1567C39.0293 44.1567 39.757 44.4874 40.2366 45.0828L46.3226 52.5414L54.3435 42.7675L50.2256 37.7399C47.1164 34.2504 43.4284 32.4973 39.1616 32.4973H22.2267C22.0944 32.4808 21.9786 32.5304 21.8794 32.6297C21.7967 32.7123 21.7471 32.8116 21.7471 32.9273V43.7267C21.7471 43.8424 21.7967 43.9417 21.8794 44.0244C21.9786 44.107 22.0944 44.1567 22.2267 44.1567H38.252Z" fill="#00D1FF"/>
<defs>
<linearGradient id="paint0_linear_204_30675" x1="44.1317" y1="-0.000347299" x2="44.1317" y2="31.7527" gradientUnits="userSpaceOnUse">
<stop stop-color="#090220"/>
<stop offset="1" stop-color="#170659"/>
</linearGradient>
</defs>
</svg>
