<svg width="120" height="120" viewBox="0 0 120 120" fill="none" xmlns="http://www.w3.org/2000/svg">
<path d="M60 0C59.0174 0 58.0361 0.0242771 57.0561 0.0728313C56.0748 0.121385 55.096 0.192938 54.1186 0.290047C53.1424 0.385877 52.1675 0.505984 51.1964 0.650369C50.2253 0.793475 49.2581 0.962137 48.2946 1.1538C47.3312 1.34546 46.3742 1.56012 45.421 1.79905C44.4691 2.03671 43.5223 2.29865 42.5832 2.58359C41.644 2.86852 40.7113 3.17646 39.7862 3.50739C38.8624 3.83832 37.9462 4.19226 37.0391 4.56791C36.1319 4.94357 35.2349 5.34094 34.3469 5.76132C33.4588 6.18042 32.5823 6.62251 31.716 7.08505C30.851 7.5476 29.9962 8.03186 29.1541 8.53656C28.3121 9.04127 27.4829 9.56642 26.6664 10.112C25.8499 10.6576 25.0475 11.2236 24.2578 11.8076C23.4695 12.3928 22.6952 12.9971 21.9362 13.6194C21.1772 14.2429 20.4349 14.8844 19.7065 15.5437C18.9795 16.203 18.2678 16.8802 17.574 17.574C16.8802 18.2678 16.203 18.9795 15.5437 19.7065C14.8844 20.4349 14.2429 21.1772 13.6194 21.9362C12.9971 22.6952 12.3928 23.4695 11.8076 24.2578C11.2236 25.0475 10.6576 25.8499 10.112 26.6664C9.56642 27.4829 9.04127 28.3121 8.53656 29.1541C8.03186 29.9962 7.5476 30.851 7.08505 31.716C6.62251 32.5823 6.18042 33.4588 5.76132 34.3469C5.34094 35.2349 4.94357 36.1319 4.56791 37.0391C4.19226 37.9462 3.83832 38.8624 3.50739 39.7862C3.17646 40.7113 2.86852 41.644 2.58359 42.5832C2.29865 43.5223 2.03671 44.4691 1.79905 45.421C1.56012 46.3742 1.34546 47.3312 1.1538 48.2946C0.962137 49.2581 0.793475 50.2253 0.650369 51.1964C0.505984 52.1675 0.385877 53.1424 0.290047 54.1186C0.192938 55.096 0.121385 56.0748 0.0728313 57.0561C0.0242771 58.0361 0 59.0174 0 60C0 60.9813 0.0242771 61.9639 0.0728313 62.9439C0.121385 63.9252 0.192938 64.904 0.290047 65.8814C0.385877 66.8576 0.505984 67.8325 0.650369 68.8036C0.793475 69.7747 0.962137 70.7419 1.1538 71.7054C1.34546 72.6688 1.56012 73.6258 1.79905 74.579C2.03671 75.5309 2.29865 76.4777 2.58359 77.4168C2.86852 78.356 3.17646 79.2887 3.50739 80.2138C3.83832 81.1376 4.19226 82.0537 4.56791 82.9609C4.94357 83.8681 5.34094 84.7651 5.76132 85.6531C6.18042 86.5412 6.62251 87.4177 7.08505 88.284C7.5476 89.149 8.03186 90.0038 8.53656 90.8459C9.04127 91.6879 9.56642 92.5171 10.112 93.3336C10.6576 94.1501 11.2236 94.9525 11.8076 95.7421C12.3928 96.5305 12.9971 97.3048 13.6194 98.0638C14.2429 98.8228 14.8844 99.5651 15.5437 100.293C16.203 101.02 16.8802 101.732 17.574 102.426C18.2678 103.12 18.9795 103.797 19.7065 104.456C20.4349 105.116 21.1772 105.757 21.9362 106.381C22.6952 107.003 23.4695 107.607 24.2578 108.192C25.0475 108.776 25.8499 109.342 26.6664 109.888C27.4829 110.434 28.3121 110.959 29.1541 111.463C29.9962 111.968 30.851 112.452 31.716 112.915C32.5823 113.377 33.4588 113.82 34.3469 114.239C35.2349 114.659 36.1319 115.056 37.0391 115.432C37.9462 115.808 38.8624 116.162 39.7862 116.493C40.7113 116.824 41.644 117.13 42.5832 117.416C43.5223 117.701 44.4691 117.963 45.421 118.201C46.3742 118.44 47.3312 118.655 48.2946 118.846C49.2581 119.038 50.2253 119.207 51.1964 119.35C52.1675 119.494 53.1424 119.614 54.1186 119.71C55.096 119.807 56.0748 119.879 57.0561 119.927C58.0361 119.976 59.0174 120 60 120C60.9813 120 61.9639 119.976 62.9439 119.927C63.9252 119.879 64.904 119.807 65.8814 119.71C66.8576 119.614 67.8325 119.494 68.8036 119.35C69.7747 119.207 70.7419 119.038 71.7054 118.846C72.6688 118.655 73.6258 118.44 74.579 118.201C75.5309 117.963 76.4777 117.701 77.4168 117.416C78.356 117.13 79.2887 116.822 80.2138 116.493C81.1376 116.162 82.0537 115.808 82.9609 115.432C83.8681 115.056 84.7651 114.659 85.6531 114.239C86.5412 113.82 87.4177 113.377 88.284 112.915C89.149 112.452 90.0038 111.968 90.8459 111.463C91.6879 110.959 92.5171 110.434 93.3336 109.888C94.1501 109.342 94.9525 108.776 95.7421 108.192C96.5305 107.607 97.3048 107.003 98.0638 106.381C98.8228 105.757 99.5651 105.116 100.293 104.456C101.02 103.797 101.732 103.12 102.426 102.426C103.12 101.732 103.797 101.02 104.456 100.293C105.116 99.5651 105.757 98.8228 106.381 98.0638C107.003 97.3048 107.607 96.5305 108.192 95.7421C108.776 94.9525 109.342 94.1501 109.888 93.3336C110.434 92.5171 110.959 91.6879 111.463 90.8459C111.968 90.0038 112.452 89.149 112.915 88.284C113.377 87.4177 113.82 86.5412 114.239 85.6531C114.659 84.7651 115.056 83.8681 115.432 82.9609C115.808 82.0537 116.162 81.1376 116.493 80.2138C116.824 79.2887 117.13 78.356 117.416 77.4168C117.701 76.4777 117.963 75.5309 118.201 74.579C118.44 73.6258 118.655 72.6688 118.846 71.7054C119.038 70.7419 119.207 69.7747 119.35 68.8036C119.494 67.8325 119.614 66.8576 119.71 65.8814C119.807 64.904 119.879 63.9252 119.927 62.9439C119.976 61.9639 120 60.9813 120 60C120 59.0174 119.976 58.0361 119.927 57.0561C119.879 56.0748 119.807 55.096 119.71 54.1186C119.614 53.1424 119.494 52.1675 119.35 51.1964C119.207 50.2253 119.038 49.2581 118.846 48.2946C118.655 47.3312 118.44 46.3742 118.201 45.421C117.963 44.4691 117.701 43.5223 117.416 42.5832C117.13 41.644 116.822 40.7113 116.493 39.7862C116.162 38.8624 115.808 37.9462 115.432 37.0391C115.056 36.1319 114.659 35.2349 114.239 34.3469C113.82 33.4588 113.377 32.5823 112.915 31.716C112.452 30.851 111.968 29.9962 111.463 29.1541C110.959 28.3121 110.434 27.4829 109.888 26.6664C109.342 25.8499 108.776 25.0475 108.192 24.2578C107.607 23.4695 107.003 22.6952 106.381 21.9362C105.757 21.1772 105.116 20.4349 104.456 19.7065C103.797 18.9795 103.12 18.2678 102.426 17.574C101.732 16.8802 101.02 16.203 100.293 15.5437C99.5651 14.8844 98.8228 14.2429 98.0638 13.6194C97.3048 12.9971 96.5305 12.3928 95.7421 11.8076C94.9525 11.2236 94.1501 10.6576 93.3336 10.112C92.5171 9.56642 91.6879 9.04127 90.8459 8.53656C90.0038 8.03186 89.149 7.5476 88.284 7.08505C87.4177 6.62251 86.5412 6.18042 85.6531 5.76132C84.7651 5.34094 83.8681 4.94357 82.9609 4.56791C82.0537 4.19226 81.1376 3.83832 80.2138 3.50739C79.2887 3.17646 78.356 2.86852 77.4168 2.58359C76.4777 2.29865 75.5309 2.03671 74.579 1.79905C73.6258 1.56012 72.6688 1.34546 71.7054 1.1538C70.7419 0.962137 69.7747 0.793475 68.8036 0.650369C67.8325 0.505984 66.8576 0.385877 65.8814 0.290047C64.904 0.192938 63.9252 0.121385 62.9439 0.0728313C61.9639 0.0242771 60.9813 0 60 0Z" fill="#571AFF"/>
<mask id="mask0_204_30639" style="mask-type:luminance" maskUnits="userSpaceOnUse" x="3" y="3" width="113" height="113">
<path fill-rule="evenodd" clip-rule="evenodd" d="M3.74377 3.99927H115.367V115.622H3.74377V3.99927Z" fill="white"/>
</mask>
<g mask="url(#mask0_204_30639)">
<path fill-rule="evenodd" clip-rule="evenodd" d="M40.1529 4.38509C29.2538 8.1838 19.3398 15.3596 12.7569 24.213C12.5014 24.5567 12.2612 24.8634 12.2228 24.8941C12.0529 25.0295 9.75041 28.5407 9.00805 29.7955C7.26649 32.7406 5.33455 36.9431 4.09387 40.4825L3.74121 41.4893L3.7706 60.3155L3.79999 79.143L4.33408 80.4833C4.62796 81.2206 4.94867 82.0511 5.04706 82.3271C6.03603 85.1317 8.49439 89.798 10.8454 93.3335C12.9205 96.4537 14.8626 98.8188 17.7593 101.753C23.6893 107.76 30.5865 112.253 38.4676 115.243L39.767 115.736H79.8982L81.4609 115.133C87.4969 112.805 92.5925 109.811 98.106 105.351C99.4425 104.27 103.64 100.134 104.518 99.0322C104.86 98.6016 105.397 97.9487 105.707 97.5794C106.751 96.3439 108.79 93.5418 109.503 92.365C109.565 92.2628 110.008 91.5332 110.489 90.7448C110.969 89.9565 111.925 88.1791 112.612 86.7966C113.866 84.2782 114.009 83.9664 114.475 82.7181C114.612 82.3501 114.798 81.8811 114.888 81.6793C115.528 80.229 115.479 82.0038 115.482 60.097C115.483 38.1685 115.533 39.9611 114.888 38.5032C114.798 38.3014 114.561 37.7072 114.361 37.1846C113.65 35.3293 111.695 31.4399 110.315 29.14C103.636 18.0019 93.1253 9.37593 80.5575 4.71858L78.6217 4.00049L59.9272 4.0056L41.2313 4.00943L40.1529 4.38509ZM29.8288 9.45643C29.6384 9.62381 28.8845 10.0519 28.8845 9.9918C28.8845 9.95986 29.0979 9.80525 29.3598 9.64937C29.8416 9.35932 30.0204 9.28649 29.8288 9.45643ZM25.4206 12.316C25.4206 12.3428 25.257 12.4719 25.0577 12.6048L24.6948 12.845L25.0296 12.5562C25.3733 12.2611 25.4206 12.2317 25.4206 12.316ZM23.7442 13.5388C23.7442 13.5618 23.5065 13.7675 23.2139 13.995L22.6837 14.4089L23.1858 13.9528C23.6841 13.5017 23.7442 13.457 23.7442 13.5388ZM20.5038 16.2105C20.5038 16.2272 20.2151 16.5159 19.8624 16.852L19.2197 17.4627L19.8305 16.8213C20.3978 16.2233 20.5038 16.1275 20.5038 16.2105ZM100.844 17.6863C101.178 18.0249 101.426 18.3009 101.395 18.3009C101.364 18.3009 101.066 18.0249 100.733 17.6863C100.398 17.349 100.15 17.0717 100.181 17.0717C100.212 17.0717 100.511 17.349 100.844 17.6863ZM102.241 19.0829C102.544 19.3908 102.766 19.6426 102.735 19.6426C102.705 19.6426 102.431 19.3908 102.13 19.0829C101.827 18.7762 101.604 18.5245 101.635 18.5245C101.666 18.5245 101.938 18.7762 102.241 19.0829ZM17.2635 19.4496C17.2635 19.4675 16.9249 19.8061 16.5096 20.2048L15.7558 20.9267L16.479 20.1728C17.1498 19.4726 17.2635 19.3678 17.2635 19.4496ZM89.5387 19.7435C90.6785 20.2571 90.98 21.2934 90.4012 22.7015C90.2517 23.0618 88.9356 25.5764 87.4752 28.2877C84.5926 33.6376 84.3128 34.2215 84.3102 34.8949C84.3051 35.9861 83.6739 34.9946 93.4857 49.3091C101.256 60.6451 100.696 59.6575 100.589 61.813C100.486 63.9149 98.2657 76.7702 97.8709 77.5547C97.14 79.0075 97.0799 79.0254 88.9446 80.1511C83.9256 80.8462 83.78 80.9228 83.3085 83.0963C82.8319 85.2914 83.2395 84.9631 69.2227 94.4528C65.2873 97.1169 67.37 96.4589 51.3893 100.086C37.8172 103.168 37.7763 103.176 36.9956 103.001C35.3665 102.635 35.2106 102.379 33.096 96.5176C32.2641 94.2139 30.4012 89.0505 28.9548 85.0448C27.5084 81.0391 26.2422 77.4691 26.1399 77.1114C25.9253 76.3613 25.7004 64.3864 25.795 58.8065C25.8614 54.9145 25.9713 54.4903 27.373 52.773C28.9484 50.8411 28.951 50.8692 26.7149 46.0227C24.5849 41.4037 23.8681 39.3695 24.0087 38.3397C24.1735 37.1386 24.3882 36.9137 29.9566 32.0813C35.769 27.0368 36.022 26.849 38.0127 26.0926L38.6618 25.846L52.3502 25.7885L66.0373 25.7322L66.6775 25.4179C67.4773 25.0244 67.7367 24.7113 68.7781 22.8676C70.7879 19.3116 70.3458 19.4343 81.0111 19.4573L88.9446 19.4739L89.5387 19.7435ZM74.2557 23.3403C72.9908 23.5588 72.6049 23.9357 71.3361 26.1807C70.2002 28.1932 69.4348 28.9624 68.1609 29.3776C67.807 29.4926 64.7481 29.5361 53.5231 29.5833L39.3326 29.6421L38.6056 29.9871C37.7712 30.3832 37.5872 30.5314 33.0755 34.4451C27.1839 39.5535 27.4369 38.4227 30.6312 45.3698C33.4882 51.5834 33.4984 51.793 31.0656 54.5031C30.6516 54.9643 30.1802 55.593 30.0179 55.9009L29.7227 56.4593V66.0129C29.7227 74.9533 29.7355 75.6138 29.9284 76.2923C30.1086 76.9261 33.7233 87.0228 36.5318 94.739C38.1366 99.1447 38.221 99.1919 42.6841 98.1468C43.9133 97.8593 46.226 97.3277 47.8244 96.9661C65.1697 93.046 63.9214 93.3846 65.9261 92.0609C68.6222 90.2797 78.0046 83.8054 78.4237 83.4362C79.1137 82.8292 79.4561 82.0703 79.7308 80.5421C80.2636 77.5726 80.44 77.4653 86.0901 76.6808C95.5569 75.3647 94.3903 76.4227 95.8265 67.8567C97.0582 60.525 97.2908 61.6328 93.2838 55.7885C91.8093 53.638 88.3964 48.66 85.6991 44.7271C78.6907 34.5065 79.0293 35.9222 82.1841 30.0344C85.1816 24.4405 85.2519 24.144 83.748 23.4566C83.2893 23.247 75.3546 23.1499 74.2557 23.3403ZM103.637 99.6762C103.637 99.6915 102.745 100.585 101.654 101.659L99.6712 103.613L101.625 101.63C103.441 99.7874 103.637 99.5957 103.637 99.6762ZM18.3253 101.882C19.3079 102.864 20.086 103.669 20.0554 103.669C20.0247 103.669 19.1954 102.864 18.2141 101.882C17.2316 100.898 16.4534 100.094 16.4841 100.094C16.5148 100.094 17.344 100.898 18.3253 101.882ZM31.1193 111.553C31.1193 111.583 30.9685 111.53 30.7845 111.435C30.6005 111.339 30.4485 111.236 30.4485 111.205C30.4485 111.175 30.6005 111.228 30.7845 111.323C30.9685 111.419 31.1193 111.522 31.1193 111.553ZM32.636 112.358C32.5861 112.409 31.4553 111.845 31.4553 111.77C31.4553 111.741 31.7301 111.852 32.0661 112.017C32.4021 112.181 32.659 112.336 32.636 112.358Z" fill="#541BFC"/>
</g>
<path fill-rule="evenodd" clip-rule="evenodd" d="M29.3599 9.64949C29.0979 9.80538 28.8846 9.95998 28.8846 9.99193C28.8846 10.052 29.6384 9.62394 29.8288 9.45656C30.0205 9.28662 29.8416 9.35945 29.3599 9.64949ZM25.0296 12.5563L24.6948 12.8451L25.0577 12.6049C25.2571 12.472 25.4206 12.343 25.4206 12.3161C25.4206 12.2318 25.3733 12.2612 25.0296 12.5563ZM23.1858 13.9529L22.6837 14.4091L23.214 13.9951C23.679 13.6322 23.817 13.4955 23.7174 13.4968C23.702 13.4968 23.4631 13.7025 23.1858 13.9529ZM19.8305 16.8214L19.2197 17.4629L19.8624 16.8521C20.4592 16.2848 20.555 16.1787 20.4719 16.1787C20.4553 16.1787 20.1665 16.4675 19.8305 16.8214ZM100.733 17.6865C101.067 18.0251 101.364 18.3011 101.395 18.3011C101.426 18.3011 101.178 18.0251 100.844 17.6865C100.511 17.3491 100.212 17.0719 100.181 17.0719C100.15 17.0719 100.398 17.3491 100.733 17.6865ZM102.13 19.083C102.431 19.391 102.705 19.6427 102.735 19.6427C102.766 19.6427 102.544 19.391 102.241 19.083C101.938 18.7764 101.666 18.5247 101.635 18.5247C101.604 18.5247 101.827 18.7764 102.13 19.083ZM16.479 20.1729L15.7558 20.9268L16.5097 20.2049C16.9249 19.8062 17.2635 19.4676 17.2635 19.4497C17.2635 19.368 17.1498 19.4727 16.479 20.1729ZM72.4631 19.543C70.9362 19.7986 70.0711 20.5793 68.7781 22.8677C67.7367 24.7115 67.4773 25.0245 66.6775 25.4181L66.0373 25.7324L52.3502 25.7886L38.6618 25.8461L38.0127 26.0927C36.022 26.8491 35.769 27.0369 29.9566 32.0815C24.3882 36.9139 24.1735 37.1387 24.0087 38.3398C23.8682 39.3697 24.585 41.4038 26.715 46.0229C28.951 50.8693 28.9484 50.8412 27.373 52.7731C25.9713 54.4904 25.8614 54.9146 25.795 58.8066C25.7004 64.3865 25.9253 76.3615 26.14 77.1115C26.2422 77.4692 27.5084 81.0393 28.9548 85.045C30.4012 89.0507 32.2642 94.214 33.096 96.5178C35.2106 102.379 35.3665 102.636 36.9956 103.001C37.7763 103.176 37.8172 103.168 51.3893 100.086C67.37 96.459 65.2873 97.117 69.2227 94.4529C83.2395 84.9632 82.8319 85.2916 83.3085 83.0964C83.78 80.923 83.9257 80.8463 88.9446 80.1512C97.08 79.0255 97.14 79.0076 97.8709 77.5549C98.2657 76.7703 100.486 63.915 100.589 61.8131C100.696 59.6576 101.256 60.6453 93.4857 49.3092C83.6739 34.9947 84.3051 35.9862 84.3102 34.895C84.3128 34.2217 84.5926 33.6377 87.4752 28.2879C88.9357 25.5765 90.2517 23.0619 90.4012 22.7016C90.98 21.2935 90.6785 20.2573 89.5388 19.7436L88.9446 19.474L81.0111 19.4574C76.6144 19.4485 72.8029 19.4868 72.4631 19.543ZM83.748 23.4567C85.2519 24.1441 85.1817 24.4406 82.1841 30.0345C79.0294 35.9223 78.6908 34.5066 85.6992 44.7272C88.3965 48.6601 91.8093 53.6382 93.2838 55.7886C97.2908 61.633 97.0582 60.5252 95.8265 67.8568C94.6663 74.7783 94.6471 74.8409 93.4691 75.4261C92.811 75.7532 93.0359 75.7162 86.0901 76.6809C80.44 77.4654 80.2637 77.5727 79.7308 80.5422C79.4561 82.0704 79.1137 82.8294 78.4237 83.4363C78.0046 83.8055 68.6222 90.2798 65.9262 92.061C63.9214 93.3848 65.1697 93.0462 47.8245 96.9662C46.226 97.3279 43.9133 97.8594 42.6841 98.1469C38.221 99.1921 38.1367 99.1448 36.5318 94.7392C33.7233 87.0229 30.1086 76.9262 29.9285 76.2924C29.7355 75.614 29.7227 74.9534 29.7227 66.0131V56.4594L30.0179 55.901C30.1802 55.5931 30.6517 54.9645 31.0656 54.5032C33.4985 51.7931 33.4882 51.5836 30.6312 45.3699C27.4369 38.4229 27.1839 39.5537 33.0755 34.4453C37.5872 30.5316 37.7712 30.3833 38.6056 29.9872L39.3326 29.6423L53.5232 29.5835C64.7481 29.5362 67.807 29.4928 68.1609 29.3778C69.4348 28.9625 70.2002 28.1933 71.3361 26.1809C73.0521 23.1437 72.8362 23.2242 79.1111 23.2561C82.7322 23.2753 83.4146 23.3047 83.748 23.4567ZM101.625 101.63L99.6712 103.613L101.654 101.659C102.745 100.585 103.637 99.6917 103.637 99.6763C103.637 99.5958 103.441 99.7875 101.625 101.63ZM18.2142 101.882C19.1955 102.864 20.0247 103.669 20.0554 103.669C20.0861 103.669 19.3079 102.864 18.3253 101.882C17.344 100.898 16.5148 100.094 16.4841 100.094C16.4534 100.094 17.2316 100.898 18.2142 101.882ZM30.4485 111.205C30.4485 111.236 30.6006 111.34 30.7845 111.435C30.9685 111.53 31.1193 111.584 31.1193 111.553C31.1193 111.522 30.9685 111.419 30.7845 111.323C30.6006 111.228 30.4485 111.175 30.4485 111.205ZM31.4554 111.77C31.4554 111.845 32.5862 112.409 32.636 112.358C32.659 112.336 32.4022 112.182 32.0661 112.017C31.7301 111.852 31.4554 111.741 31.4554 111.77Z" fill="#F7F5FC"/>
<path d="M22.5508 16.7268C22.2965 16.7268 22.0423 16.7396 21.788 16.7651C21.535 16.7894 21.2833 16.8265 21.0341 16.8763C20.7837 16.9261 20.5371 16.9875 20.2943 17.0616C20.0503 17.1357 19.81 17.2213 19.5749 17.3197C19.3398 17.4168 19.1098 17.5254 18.8862 17.6455C18.6614 17.7656 18.4429 17.8959 18.2308 18.0378C18.0199 18.1796 17.8155 18.3304 17.6187 18.4926C17.422 18.6536 17.2328 18.8249 17.0527 19.005C16.8725 19.1839 16.7026 19.373 16.5403 19.5698C16.3793 19.7665 16.2273 19.971 16.0867 20.1831C15.9449 20.3939 15.8133 20.6124 15.6944 20.8373C15.5743 21.0622 15.4657 21.2909 15.3673 21.5273C15.2702 21.7624 15.1846 22.0013 15.1105 22.2454C15.0364 22.4894 14.9751 22.736 14.9253 22.9852C14.8754 23.2356 14.8384 23.486 14.8128 23.7403C14.7885 23.9933 14.7758 24.2476 14.7758 24.5018C14.7758 24.7561 14.7885 25.0104 14.8128 25.2646C14.8384 25.5176 14.8754 25.7694 14.9253 26.0185C14.9751 26.269 15.0364 26.5156 15.1105 26.7596C15.1846 27.0024 15.2702 27.2426 15.3673 27.4777C15.4657 27.7128 15.5743 27.9428 15.6944 28.1677C15.8133 28.3913 15.9449 28.6098 16.0867 28.8219C16.2273 29.0327 16.3793 29.2371 16.5403 29.4339C16.7026 29.6307 16.8725 29.8198 17.0527 29.9999C17.2328 30.1801 17.422 30.35 17.6187 30.5123C17.8155 30.6733 18.0199 30.8254 18.2308 30.9672C18.4429 31.1077 18.6614 31.2394 18.8862 31.3595C19.1098 31.4783 19.3398 31.5882 19.5749 31.6853C19.81 31.7824 20.0503 31.868 20.2943 31.9421C20.5371 32.0162 20.7837 32.0775 21.0341 32.1274C21.2833 32.1772 21.535 32.2143 21.788 32.2398C22.0423 32.2641 22.2965 32.2769 22.5508 32.2769C22.8051 32.2769 23.0593 32.2641 23.3123 32.2398C23.5666 32.2143 23.8183 32.1772 24.0675 32.1274C24.3166 32.0775 24.5645 32.0162 24.8073 31.9421C25.0513 31.868 25.2903 31.7824 25.5254 31.6853C25.7617 31.5882 25.9917 31.4783 26.2153 31.3595C26.4402 31.2394 26.6587 31.1077 26.8695 30.9672C27.0816 30.8254 27.2861 30.6733 27.4829 30.5123C27.6796 30.35 27.8687 30.1801 28.0489 29.9999C28.2278 29.8198 28.399 29.6307 28.5613 29.4339C28.7223 29.2371 28.8743 29.0327 29.0149 28.8219C29.1567 28.6098 29.287 28.3913 29.4071 28.1677C29.5272 27.9428 29.6358 27.7128 29.7342 27.4777C29.8313 27.2426 29.9169 27.0024 29.9911 26.7596C30.0652 26.5156 30.1265 26.269 30.1763 26.0185C30.2262 25.7694 30.2632 25.5176 30.2875 25.2646C30.313 25.0104 30.3258 24.7561 30.3258 24.5018C30.3258 24.2476 30.313 23.9933 30.2875 23.7403C30.2632 23.486 30.2262 23.2356 30.1763 22.9852C30.1265 22.736 30.0652 22.4894 29.9911 22.2454C29.9169 22.0013 29.8313 21.7624 29.7342 21.5273C29.6358 21.2909 29.5272 21.0622 29.4071 20.8373C29.287 20.6124 29.1567 20.3939 29.0149 20.1831C28.8743 19.971 28.7223 19.7665 28.5613 19.5698C28.399 19.373 28.2278 19.1839 28.0489 19.005C27.8687 18.8249 27.6796 18.6536 27.4829 18.4926C27.2861 18.3304 27.0816 18.1796 26.8695 18.0378C26.6587 17.8959 26.4402 17.7656 26.2153 17.6455C25.9917 17.5254 25.7617 17.4168 25.5254 17.3197C25.2903 17.2213 25.0513 17.1357 24.8073 17.0616C24.5645 16.9875 24.3166 16.9261 24.0675 16.8763C23.8183 16.8265 23.5666 16.7894 23.3123 16.7651C23.0593 16.7396 22.8051 16.7268 22.5508 16.7268Z" fill="#571AFF"/>
<path d="M25.9675 12.7109C25.7132 12.7109 25.4589 12.7224 25.2059 12.748C24.953 12.7723 24.7012 12.8106 24.4508 12.8592C24.2016 12.909 23.955 12.9716 23.711 13.0457C23.4669 13.1185 23.228 13.2041 22.9929 13.3025C22.7578 13.3996 22.5278 13.5082 22.3029 13.6284C22.078 13.7485 21.8596 13.8788 21.6487 14.0206C21.4366 14.1624 21.2322 14.3132 21.0354 14.4755C20.8386 14.6365 20.6508 14.8077 20.4706 14.9879C20.2905 15.168 20.1193 15.3559 19.9583 15.5526C19.796 15.7494 19.6452 15.9538 19.5034 16.1659C19.3616 16.378 19.2312 16.5953 19.1111 16.8201C18.991 17.045 18.8824 17.275 18.7853 17.5101C18.6869 17.7452 18.6013 17.9842 18.5272 18.2282C18.4544 18.4723 18.3918 18.7189 18.3419 18.968C18.2934 19.2185 18.2551 19.4702 18.2308 19.7232C18.2052 19.9762 18.1924 20.2304 18.1924 20.4847C18.1924 20.7402 18.2052 20.9945 18.2308 21.2475C18.2551 21.5005 18.2934 21.7522 18.3419 22.0026C18.3918 22.2518 18.4544 22.4984 18.5272 22.7425C18.6013 22.9852 18.6869 23.2254 18.7853 23.4605C18.8824 23.6956 18.991 23.9256 19.1111 24.1505C19.2312 24.3754 19.3616 24.5926 19.5034 24.8047C19.6452 25.0168 19.796 25.2213 19.9583 25.418C20.1193 25.6148 20.2905 25.8026 20.4706 25.9828C20.6508 26.163 20.8386 26.3342 21.0354 26.4952C21.2322 26.6562 21.4366 26.8082 21.6487 26.95C21.8596 27.0919 22.078 27.2222 22.3029 27.3423C22.5278 27.4624 22.7578 27.571 22.9929 27.6681C23.228 27.7652 23.4669 27.8508 23.711 27.925C23.955 27.9991 24.2016 28.0604 24.4508 28.1102C24.7012 28.1601 24.953 28.1971 25.2059 28.2227C25.4589 28.2482 25.7132 28.2597 25.9675 28.2597C26.223 28.2597 26.476 28.2482 26.7303 28.2227C26.9833 28.1971 27.235 28.1601 27.4842 28.1102C27.7346 28.0604 27.9812 27.9991 28.2252 27.925C28.468 27.8508 28.7082 27.7652 28.9433 27.6681C29.1784 27.571 29.4084 27.4624 29.6333 27.3423C29.8569 27.2222 30.0754 27.0919 30.2875 26.95C30.4996 26.8082 30.7028 26.6562 30.9008 26.4952C31.0976 26.3342 31.2854 26.163 31.4656 25.9828C31.6457 25.8026 31.817 25.6148 31.978 25.418C32.1389 25.2213 32.291 25.0168 32.4328 24.8047C32.5734 24.5926 32.705 24.3754 32.8251 24.1505C32.9452 23.9256 33.0538 23.6956 33.1509 23.4605C33.248 23.2254 33.3336 22.9852 33.4077 22.7425C33.4819 22.4984 33.5432 22.2518 33.593 22.0026C33.6428 21.7522 33.6799 21.5005 33.7055 21.2475C33.7297 20.9945 33.7425 20.7402 33.7425 20.4847C33.7425 20.2304 33.7297 19.9762 33.7055 19.7232C33.6799 19.4702 33.6428 19.2185 33.593 18.968C33.5432 18.7189 33.4819 18.4723 33.4077 18.2282C33.3336 17.9842 33.248 17.7452 33.1509 17.5101C33.0538 17.275 32.9452 17.045 32.8251 16.8201C32.705 16.5953 32.5734 16.378 32.4328 16.1659C32.291 15.9538 32.1389 15.7494 31.978 15.5526C31.817 15.3559 31.6457 15.168 31.4656 14.9879C31.2854 14.8077 31.0976 14.6365 30.9008 14.4755C30.7028 14.3132 30.4996 14.1624 30.2875 14.0206C30.0754 13.8788 29.8569 13.7485 29.6333 13.6284C29.4084 13.5082 29.1784 13.3996 28.9433 13.3025C28.7082 13.2041 28.468 13.1185 28.2252 13.0457C27.9812 12.9716 27.7346 12.909 27.4842 12.8592C27.235 12.8106 26.9833 12.7723 26.7303 12.748C26.476 12.7224 26.223 12.7109 25.9675 12.7109Z" fill="#571AFF"/>
<path d="M30.0805 10.6895C29.825 10.6895 29.572 10.7022 29.3177 10.7265C29.0647 10.7521 28.813 10.7891 28.5638 10.8389C28.3134 10.8888 28.0668 10.9501 27.8228 11.0242C27.58 11.0983 27.3398 11.1839 27.1047 11.281C26.8696 11.3782 26.6396 11.488 26.4147 11.6069C26.1911 11.727 25.9726 11.8586 25.7605 11.9991C25.5484 12.141 25.3452 12.293 25.1484 12.454C24.9517 12.6163 24.7626 12.7862 24.5824 12.9664C24.4022 13.1465 24.2323 13.3356 24.07 13.5324C23.909 13.7292 23.757 13.9336 23.6152 14.1445C23.4746 14.3566 23.343 14.5751 23.2229 14.7987C23.1028 15.0235 22.9942 15.2535 22.8971 15.4886C22.8 15.7237 22.7144 15.964 22.6402 16.208C22.5661 16.4508 22.5048 16.6974 22.455 16.9478C22.4051 17.197 22.3681 17.4487 22.3425 17.7017C22.3183 17.9559 22.3055 18.2102 22.3055 18.4645C22.3055 18.7188 22.3183 18.973 22.3425 19.226C22.3681 19.4803 22.4051 19.7307 22.455 19.9812C22.5048 20.2303 22.5661 20.4769 22.6402 20.721C22.7144 20.965 22.8 21.204 22.8971 21.4391C22.9942 21.6754 23.1028 21.9042 23.2229 22.129C23.343 22.3539 23.4746 22.5724 23.6152 22.7832C23.757 22.9953 23.909 23.1998 24.07 23.3966C24.2323 23.5933 24.4022 23.7824 24.5824 23.9613C24.7626 24.1415 24.9517 24.3127 25.1484 24.4737C25.3452 24.636 25.5484 24.7867 25.7605 24.9286C25.9726 25.0704 26.1911 25.2007 26.4147 25.3208C26.6396 25.4409 26.8696 25.5495 27.1047 25.6479C27.3398 25.745 27.58 25.8306 27.8228 25.9048C28.0668 25.9789 28.3134 26.0402 28.5638 26.09C28.813 26.1399 29.0647 26.1769 29.3177 26.2012C29.572 26.2267 29.825 26.2395 30.0805 26.2395C30.3348 26.2395 30.5891 26.2267 30.842 26.2012C31.0963 26.1769 31.3468 26.1399 31.5972 26.09C31.8463 26.0402 32.093 25.9789 32.337 25.9048C32.581 25.8306 32.82 25.745 33.0551 25.6479C33.2902 25.5495 33.5202 25.4409 33.7451 25.3208C33.9699 25.2007 34.1884 25.0704 34.3993 24.9286C34.6114 24.7867 34.8158 24.636 35.0126 24.4737C35.2094 24.3127 35.3972 24.1415 35.5773 23.9613C35.7575 23.7824 35.9287 23.5933 36.0897 23.3966C36.252 23.1998 36.4028 22.9953 36.5446 22.7832C36.6864 22.5724 36.8167 22.3539 36.9369 22.129C37.057 21.9042 37.1656 21.6754 37.2627 21.4391C37.3611 21.204 37.4467 20.965 37.5208 20.721C37.5936 20.4769 37.6562 20.2303 37.7061 19.9812C37.7559 19.7307 37.7929 19.4803 37.8172 19.226C37.8428 18.973 37.8555 18.7188 37.8555 18.4645C37.8555 18.2102 37.8428 17.9559 37.8172 17.7017C37.7929 17.4487 37.7559 17.197 37.7061 16.9478C37.6562 16.6974 37.5936 16.4508 37.5208 16.208C37.4467 15.964 37.3611 15.7237 37.2627 15.4886C37.1656 15.2535 37.057 15.0235 36.9369 14.7987C36.8167 14.5751 36.6864 14.3566 36.5446 14.1445C36.4028 13.9336 36.252 13.7292 36.0897 13.5324C35.9287 13.3356 35.7575 13.1465 35.5773 12.9664C35.3972 12.7862 35.2094 12.6163 35.0126 12.454C34.8158 12.293 34.6114 12.141 34.3993 11.9991C34.1884 11.8586 33.9699 11.727 33.7451 11.6069C33.5202 11.488 33.2902 11.3782 33.0551 11.281C32.82 11.1839 32.581 11.0983 32.337 11.0242C32.093 10.9501 31.8463 10.8888 31.5972 10.8389C31.3468 10.7891 31.0963 10.7521 30.842 10.7265C30.5891 10.7022 30.3348 10.6895 30.0805 10.6895Z" fill="#571AFF"/>
<path d="M33.7425 7.26147C33.4882 7.26147 33.234 7.27425 32.981 7.29853C32.7267 7.32408 32.4763 7.36114 32.2258 7.41097C31.9767 7.4608 31.7301 7.52213 31.486 7.59624C31.242 7.67035 31.003 7.75596 30.7679 7.85307C30.5315 7.95018 30.3028 8.05878 30.078 8.17889C29.8531 8.299 29.6346 8.4306 29.4237 8.57116C29.2116 8.71298 29.0072 8.86504 28.8104 9.02603C28.6137 9.18703 28.4246 9.35824 28.2457 9.5384C28.0655 9.71856 27.8943 9.90639 27.7333 10.1044C27.571 10.3012 27.4203 10.5044 27.2784 10.7165C27.1366 10.9286 27.0063 11.1471 26.8862 11.3707C26.7661 11.5956 26.6574 11.8256 26.5603 12.0607C26.462 12.2958 26.3763 12.536 26.3022 12.7787C26.2281 13.0228 26.1668 13.2694 26.117 13.5198C26.0671 13.769 26.0301 14.0207 26.0058 14.2737C25.9802 14.528 25.9675 14.781 25.9675 15.0365C25.9675 15.2908 25.9802 15.545 26.0058 15.798C26.0301 16.051 26.0671 16.3027 26.117 16.5532C26.1668 16.8023 26.2281 17.0489 26.3022 17.293C26.3763 17.537 26.462 17.776 26.5603 18.0111C26.6574 18.2462 26.7661 18.4762 26.8862 18.7011C27.0063 18.9259 27.1366 19.1444 27.2784 19.3553C27.4203 19.5674 27.571 19.7718 27.7333 19.9686C27.8943 20.1653 28.0655 20.3532 28.2457 20.5333C28.4246 20.7135 28.6137 20.8847 28.8104 21.0457C29.0072 21.208 29.2116 21.3588 29.4237 21.5006C29.6346 21.6424 29.8531 21.7727 30.078 21.8928C30.3028 22.013 30.5315 22.1216 30.7679 22.2187C31.003 22.3171 31.242 22.4027 31.486 22.4768C31.7301 22.5496 31.9767 22.6122 32.2258 22.662C32.4763 22.7119 32.7267 22.7489 32.981 22.7732C33.234 22.7988 33.4882 22.8115 33.7425 22.8115C33.9968 22.8115 34.251 22.7988 34.5053 22.7732C34.7583 22.7489 35.01 22.7119 35.2592 22.662C35.5096 22.6122 35.7562 22.5496 36.0003 22.4768C36.243 22.4027 36.4832 22.3171 36.7184 22.2187C36.9535 22.1216 37.1834 22.013 37.4083 21.8928C37.6319 21.7727 37.8504 21.6424 38.0625 21.5006C38.2734 21.3588 38.4778 21.208 38.6746 21.0457C38.8713 20.8847 39.0604 20.7135 39.2406 20.5333C39.4208 20.3532 39.5907 20.1653 39.753 19.9686C39.914 19.7718 40.066 19.5674 40.2079 19.3553C40.3484 19.1444 40.48 18.9259 40.6001 18.7011C40.7189 18.4762 40.8288 18.2462 40.9259 18.0111C41.023 17.776 41.1087 17.537 41.1828 17.293C41.2569 17.0489 41.3182 16.8023 41.368 16.5532C41.4179 16.3027 41.4549 16.051 41.4805 15.798C41.5048 15.545 41.5175 15.2908 41.5175 15.0365C41.5175 14.781 41.5048 14.528 41.4805 14.2737C41.4549 14.0207 41.4179 13.769 41.368 13.5198C41.3182 13.2694 41.2569 13.0228 41.1828 12.7787C41.1087 12.536 41.023 12.2958 40.9259 12.0607C40.8288 11.8256 40.7189 11.5956 40.6001 11.3707C40.48 11.1471 40.3484 10.9286 40.2079 10.7165C40.066 10.5044 39.914 10.3012 39.753 10.1044C39.5907 9.90639 39.4208 9.71856 39.2406 9.5384C39.0604 9.35824 38.8713 9.18703 38.6746 9.02603C38.4778 8.86504 38.2734 8.71298 38.0625 8.57116C37.8504 8.4306 37.6319 8.299 37.4083 8.17889C37.1834 8.05878 36.9535 7.95018 36.7184 7.85307C36.4832 7.75596 36.243 7.67035 36.0003 7.59624C35.7562 7.52213 35.5096 7.4608 35.2592 7.41097C35.01 7.36114 34.7583 7.32408 34.5053 7.29853C34.251 7.27425 33.9968 7.26147 33.7425 7.26147Z" fill="#571AFF"/>
<path d="M99.477 16.7268C99.1831 16.7268 98.8931 16.7562 98.6056 16.8124C98.3181 16.8699 98.0395 16.9542 97.7687 17.0667C97.4978 17.1791 97.241 17.3158 96.9982 17.4794C96.7541 17.6417 96.5293 17.8269 96.321 18.0339C96.114 18.2409 95.93 18.4671 95.7664 18.7099C95.6042 18.9539 95.4662 19.2107 95.3537 19.4816C95.2426 19.7525 95.157 20.031 95.1007 20.3185C95.0432 20.606 95.0151 20.8961 95.0151 21.1887C95.0151 21.4813 95.0432 21.7726 95.1007 22.0588C95.157 22.3463 95.2426 22.6261 95.3537 22.8957C95.4662 23.1666 95.6042 23.4247 95.7664 23.6675C95.93 23.9115 96.114 24.1364 96.321 24.3434C96.5293 24.5504 96.7541 24.7357 96.9982 24.8992C97.241 25.0615 97.4978 25.1995 97.7687 25.3106C98.0395 25.4231 98.3181 25.5074 98.6056 25.5649C98.8931 25.6224 99.1831 25.6505 99.477 25.6505C99.7696 25.6505 100.06 25.6224 100.347 25.5649C100.635 25.5074 100.913 25.4231 101.184 25.3106C101.455 25.1995 101.712 25.0615 101.955 24.8992C102.199 24.7357 102.425 24.5504 102.632 24.3434C102.839 24.1364 103.024 23.9115 103.186 23.6675C103.349 23.4247 103.487 23.1666 103.599 22.8957C103.71 22.6261 103.796 22.3463 103.852 22.0588C103.909 21.7726 103.938 21.4813 103.938 21.1887C103.938 20.8961 103.909 20.606 103.852 20.3185C103.796 20.031 103.71 19.7525 103.599 19.4816C103.487 19.2107 103.349 18.9539 103.186 18.7099C103.024 18.4671 102.839 18.2409 102.632 18.0339C102.425 17.8269 102.199 17.6417 101.955 17.4794C101.712 17.3158 101.455 17.1791 101.184 17.0667C100.913 16.9542 100.635 16.8699 100.347 16.8124C100.06 16.7562 99.7696 16.7268 99.477 16.7268Z" fill="#571AFF"/>
<path d="M96.4091 88.5574C96.1536 88.5574 95.8993 88.5689 95.6463 88.5944C95.3933 88.6187 95.1416 88.657 94.8912 88.7056C94.642 88.7554 94.3954 88.818 94.1514 88.8921C93.9073 88.965 93.6684 89.0506 93.4333 89.149C93.1982 89.2461 92.9682 89.3547 92.7433 89.4748C92.5184 89.5949 92.3012 89.7252 92.0891 89.8671C91.877 90.0089 91.6726 90.1597 91.4758 90.3219C91.279 90.4829 91.0912 90.6541 90.911 90.8343C90.7309 91.0145 90.5596 91.2023 90.3987 91.3991C90.2364 91.5958 90.0856 91.8003 89.9438 92.0124C89.8019 92.2245 89.6716 92.4417 89.5515 92.6666C89.4314 92.8915 89.3228 93.1215 89.2257 93.3566C89.1286 93.5917 89.043 93.8306 88.9689 94.0746C88.8948 94.3187 88.8321 94.5653 88.7836 94.8145C88.7338 95.0649 88.6967 95.3166 88.6711 95.5696C88.6456 95.8226 88.6341 96.0769 88.6341 96.3311C88.6341 96.5867 88.6456 96.8409 88.6711 97.0939C88.6967 97.3469 88.7338 97.5986 88.7836 97.8491C88.8321 98.0982 88.8948 98.3448 88.9689 98.5889C89.043 98.8317 89.1286 99.0719 89.2257 99.307C89.3228 99.5421 89.4314 99.7721 89.5515 99.997C89.6716 100.222 89.8019 100.439 89.9438 100.651C90.0856 100.863 90.2364 101.068 90.3987 101.264C90.5596 101.461 90.7309 101.649 90.911 101.829C91.0912 102.009 91.279 102.181 91.4758 102.342C91.6726 102.503 91.877 102.655 92.0891 102.796C92.3012 102.938 92.5184 103.069 92.7433 103.189C92.9682 103.309 93.1982 103.417 93.4333 103.515C93.6684 103.612 93.9073 103.697 94.1514 103.771C94.3954 103.846 94.642 103.907 94.8912 103.957C95.1416 104.006 95.3933 104.044 95.6463 104.069C95.8993 104.095 96.1536 104.106 96.4091 104.106C96.6634 104.106 96.9177 104.095 97.1707 104.069C97.4237 104.044 97.6754 104.006 97.9258 103.957C98.175 103.907 98.4216 103.846 98.6656 103.771C98.9097 103.697 99.1486 103.612 99.3837 103.515C99.6188 103.417 99.8488 103.309 100.074 103.189C100.299 103.069 100.516 102.938 100.728 102.796C100.94 102.655 101.144 102.503 101.341 102.342C101.538 102.181 101.726 102.009 101.906 101.829C102.086 101.649 102.257 101.461 102.418 101.264C102.581 101.068 102.731 100.863 102.873 100.651C103.015 100.439 103.145 100.222 103.265 99.997C103.386 99.7721 103.494 99.5421 103.591 99.307C103.688 99.0719 103.775 98.8317 103.848 98.5889C103.922 98.3448 103.985 98.0982 104.033 97.8491C104.083 97.5986 104.122 97.3469 104.146 97.0939C104.171 96.8409 104.183 96.5867 104.183 96.3311C104.183 96.0769 104.171 95.8226 104.146 95.5696C104.122 95.3166 104.083 95.0649 104.033 94.8145C103.985 94.5653 103.922 94.3187 103.848 94.0746C103.775 93.8306 103.688 93.5917 103.591 93.3566C103.494 93.1215 103.386 92.8915 103.265 92.6666C103.145 92.4417 103.015 92.2245 102.873 92.0124C102.731 91.8003 102.581 91.5958 102.418 91.3991C102.257 91.2023 102.086 91.0145 101.906 90.8343C101.726 90.6541 101.538 90.4829 101.341 90.3219C101.144 90.1597 100.94 90.0089 100.728 89.8671C100.516 89.7252 100.299 89.5949 100.074 89.4748C99.8488 89.3547 99.6188 89.2461 99.3837 89.149C99.1486 89.0506 98.9097 88.965 98.6656 88.8921C98.4216 88.818 98.175 88.7554 97.9258 88.7056C97.6754 88.657 97.4237 88.6187 97.1707 88.5944C96.9177 88.5689 96.6634 88.5574 96.4091 88.5574Z" fill="#571AFF"/>
<path d="M98.1264 86.5464C97.8709 86.5464 97.6166 86.5592 97.3636 86.5834C97.1106 86.609 96.8589 86.6461 96.6085 86.6959C96.3593 86.7457 96.1127 86.807 95.8687 86.8812C95.6246 86.9553 95.3857 87.0409 95.1506 87.138C94.9155 87.2351 94.6855 87.3437 94.4606 87.4638C94.2357 87.5839 94.0185 87.7155 93.8064 87.8561C93.5943 87.9979 93.3898 88.1499 93.1931 88.3109C92.9963 88.4719 92.8085 88.6432 92.6283 88.8233C92.4481 89.0035 92.2769 89.1913 92.1159 89.3881C91.9537 89.5848 91.8029 89.7893 91.6611 90.0014C91.5192 90.2135 91.3889 90.4307 91.2688 90.6556C91.1487 90.8805 91.0401 91.1105 90.943 91.3456C90.8459 91.5807 90.7603 91.8209 90.6861 92.0637C90.612 92.3077 90.5494 92.5543 90.5009 92.8047C90.451 93.0539 90.414 93.3056 90.3884 93.5586C90.3629 93.8129 90.3514 94.0659 90.3514 94.3214C90.3514 94.5757 90.3629 94.83 90.3884 95.083C90.414 95.3359 90.451 95.5877 90.5009 95.8381C90.5494 96.0873 90.612 96.3339 90.6861 96.5779C90.7603 96.822 90.8459 97.0609 90.943 97.296C91.0401 97.5311 91.1487 97.7611 91.2688 97.986C91.3889 98.2109 91.5192 98.4281 91.6611 98.6402C91.8029 98.8523 91.9537 99.0567 92.1159 99.2535C92.2769 99.4503 92.4481 99.6381 92.6283 99.8182C92.8085 99.9984 92.9963 100.17 93.1931 100.331C93.3898 100.493 93.5943 100.644 93.8064 100.785C94.0185 100.927 94.2357 101.058 94.4606 101.178C94.6855 101.298 94.9155 101.406 95.1506 101.504C95.3857 101.602 95.6246 101.688 95.8687 101.76C96.1127 101.835 96.3593 101.897 96.6085 101.947C96.8589 101.996 97.1106 102.034 97.3636 102.058C97.6166 102.084 97.8709 102.095 98.1264 102.095C98.3807 102.095 98.635 102.084 98.8879 102.058C99.1409 102.034 99.3927 101.996 99.6431 101.947C99.8922 101.897 100.139 101.835 100.383 101.76C100.627 101.688 100.866 101.602 101.101 101.504C101.336 101.406 101.566 101.298 101.791 101.178C102.016 101.058 102.233 100.927 102.445 100.785C102.657 100.644 102.862 100.493 103.058 100.331C103.255 100.17 103.443 99.9984 103.623 99.8182C103.803 99.6381 103.975 99.4503 104.136 99.2535C104.298 99.0567 104.449 98.8523 104.59 98.6402C104.732 98.4281 104.863 98.2109 104.983 97.986C105.103 97.7611 105.211 97.5311 105.309 97.296C105.406 97.0609 105.493 96.822 105.565 96.5779C105.64 96.3339 105.702 96.0873 105.751 95.8381C105.801 95.5877 105.839 95.3359 105.863 95.083C105.889 94.83 105.9 94.5757 105.9 94.3214C105.9 94.0659 105.889 93.8129 105.863 93.5586C105.839 93.3056 105.801 93.0539 105.751 92.8047C105.702 92.5543 105.64 92.3077 105.565 92.0637C105.493 91.8209 105.406 91.5807 105.309 91.3456C105.211 91.1105 105.103 90.8805 104.983 90.6556C104.863 90.4307 104.732 90.2135 104.59 90.0014C104.449 89.7893 104.298 89.5848 104.136 89.3881C103.975 89.1913 103.803 89.0035 103.623 88.8233C103.443 88.6432 103.255 88.4719 103.058 88.3109C102.862 88.1499 102.657 87.9979 102.445 87.8561C102.233 87.7155 102.016 87.5839 101.791 87.4638C101.566 87.3437 101.336 87.2351 101.101 87.138C100.866 87.0409 100.627 86.9553 100.383 86.8812C100.139 86.807 99.8922 86.7457 99.6431 86.6959C99.3927 86.6461 99.1409 86.609 98.8879 86.5834C98.635 86.5592 98.3807 86.5464 98.1264 86.5464Z" fill="#571AFF"/>
<path d="M22.5508 93.0308C22.3655 93.0308 22.1803 93.0397 21.9963 93.0576C21.811 93.0768 21.6283 93.1036 21.4469 93.1394C21.2641 93.1764 21.0853 93.2211 20.9076 93.2748C20.73 93.3285 20.5563 93.3911 20.3851 93.4614C20.2138 93.5329 20.0465 93.6121 19.8829 93.699C19.7194 93.7872 19.5596 93.8817 19.4063 93.9852C19.2517 94.0875 19.1035 94.1986 18.9604 94.3162C18.816 94.4337 18.6793 94.5577 18.5477 94.6893C18.4173 94.8196 18.2921 94.9576 18.1746 95.1007C18.057 95.2438 17.9471 95.392 17.8436 95.5466C17.7414 95.7012 17.6456 95.8597 17.5587 96.0232C17.4718 96.1868 17.3926 96.3542 17.321 96.5254C17.2508 96.6966 17.1882 96.8704 17.1345 97.048C17.0795 97.2256 17.0348 97.4057 16.999 97.5872C16.9633 97.7686 16.9352 97.9526 16.9173 98.1366C16.8994 98.3206 16.8904 98.5059 16.8904 98.6911C16.8904 98.8764 16.8994 99.0617 16.9173 99.2457C16.9352 99.4309 16.9633 99.6137 16.999 99.7951C17.0348 99.9778 17.0795 100.157 17.1345 100.334C17.1882 100.512 17.2508 100.686 17.321 100.858C17.3926 101.029 17.4718 101.197 17.5587 101.36C17.6456 101.523 17.7414 101.682 17.8436 101.836C17.9471 101.99 18.057 102.138 18.1746 102.283C18.2921 102.426 18.4173 102.563 18.5477 102.694C18.6793 102.825 18.816 102.95 18.9604 103.067C19.1035 103.185 19.2517 103.295 19.4063 103.398C19.5596 103.501 19.7194 103.596 19.8829 103.683C20.0465 103.771 20.2138 103.851 20.3851 103.921C20.5563 103.992 20.73 104.054 20.9076 104.109C21.0853 104.162 21.2641 104.207 21.4469 104.243C21.6283 104.279 21.811 104.307 21.9963 104.325C22.1803 104.343 22.3655 104.352 22.5508 104.352C22.7361 104.352 22.9214 104.343 23.1054 104.325C23.2906 104.307 23.4733 104.279 23.6548 104.243C23.8362 104.207 24.0164 104.162 24.194 104.109C24.3716 104.054 24.5454 103.992 24.7166 103.921C24.8878 103.851 25.0552 103.771 25.2187 103.683C25.3823 103.596 25.5407 103.501 25.6953 103.398C25.8499 103.295 25.9982 103.185 26.1413 103.067C26.2844 102.95 26.4224 102.825 26.5527 102.694C26.6843 102.563 26.8082 102.426 26.9258 102.283C27.0433 102.138 27.1545 101.99 27.2567 101.836C27.3602 101.682 27.4548 101.523 27.5429 101.36C27.6298 101.197 27.709 101.029 27.7806 100.858C27.8509 100.686 27.9135 100.512 27.9671 100.334C28.0208 100.157 28.0668 99.9778 28.1026 99.7951C28.1384 99.6137 28.1652 99.4309 28.1844 99.2457C28.2023 99.0617 28.2112 98.8764 28.2112 98.6911C28.2112 98.5059 28.2023 98.3206 28.1844 98.1366C28.1652 97.9526 28.1384 97.7686 28.1026 97.5872C28.0668 97.4057 28.0208 97.2256 27.9671 97.048C27.9135 96.8704 27.8509 96.6966 27.7806 96.5254C27.709 96.3542 27.6298 96.1868 27.5429 96.0232C27.4548 95.8597 27.3602 95.7012 27.2567 95.5466C27.1545 95.392 27.0433 95.2438 26.9258 95.1007C26.8082 94.9576 26.6843 94.8196 26.5527 94.6893C26.4224 94.5577 26.2844 94.4337 26.1413 94.3162C25.9982 94.1986 25.8499 94.0875 25.6953 93.9852C25.5407 93.8817 25.3823 93.7872 25.2187 93.699C25.0552 93.6121 24.8878 93.5329 24.7166 93.4614C24.5454 93.3911 24.3716 93.3285 24.194 93.2748C24.0164 93.2211 23.8362 93.1764 23.6548 93.1394C23.4733 93.1036 23.2906 93.0768 23.1054 93.0576C22.9214 93.0397 22.7361 93.0308 22.5508 93.0308Z" fill="#571AFF"/>
<path d="M22.3055 87.2822C22.0512 87.2822 21.7969 87.295 21.5427 87.3193C21.2897 87.3448 21.038 87.3819 20.7888 87.4317C20.5384 87.4816 20.2918 87.5429 20.049 87.617C19.805 87.6911 19.5647 87.7767 19.3296 87.8738C19.0945 87.9709 18.8645 88.0795 18.6409 88.1996C18.4161 88.3197 18.1976 88.4514 17.9855 88.5919C17.7746 88.7337 17.5702 88.8858 17.3734 89.0468C17.1767 89.2078 16.9875 89.379 16.8074 89.5592C16.6272 89.7393 16.4573 89.9271 16.295 90.1239C16.134 90.3207 15.982 90.5251 15.8414 90.7372C15.6996 90.9493 15.568 91.1665 15.4491 91.3914C15.329 91.6163 15.2204 91.8463 15.122 92.0814C15.0249 92.3165 14.9393 92.5567 14.8652 92.7995C14.7911 93.0435 14.7298 93.2901 14.68 93.5406C14.6301 93.7897 14.5931 94.0415 14.5675 94.2945C14.5432 94.5487 14.5305 94.8017 14.5305 95.0573C14.5305 95.3115 14.5432 95.5658 14.5675 95.8188C14.5931 96.0718 14.6301 96.3235 14.68 96.5739C14.7298 96.8231 14.7911 97.0697 14.8652 97.3137C14.9393 97.5578 15.0249 97.7967 15.122 98.0318C15.2204 98.2669 15.329 98.4969 15.4491 98.7218C15.568 98.9467 15.6996 99.1639 15.8414 99.376C15.982 99.5881 16.134 99.7926 16.295 99.9893C16.4573 100.186 16.6272 100.374 16.8074 100.554C16.9875 100.734 17.1767 100.905 17.3734 101.066C17.5702 101.229 17.7746 101.38 17.9855 101.521C18.1976 101.663 18.4161 101.793 18.6409 101.914C18.8645 102.034 19.0945 102.142 19.3296 102.239C19.5647 102.338 19.805 102.423 20.049 102.496C20.2918 102.57 20.5384 102.633 20.7888 102.683C21.038 102.731 21.2897 102.77 21.5427 102.794C21.7969 102.82 22.0512 102.831 22.3055 102.831C22.5598 102.831 22.814 102.82 23.067 102.794C23.3213 102.77 23.573 102.731 23.8222 102.683C24.0713 102.633 24.3192 102.57 24.562 102.496C24.806 102.423 25.045 102.338 25.2801 102.239C25.5164 102.142 25.7464 102.034 25.97 101.914C26.1949 101.793 26.4134 101.663 26.6242 101.521C26.8363 101.38 27.0408 101.229 27.2376 101.066C27.4343 100.905 27.6234 100.734 27.8036 100.554C27.9825 100.374 28.1537 100.186 28.316 99.9893C28.477 99.7926 28.629 99.5881 28.7696 99.376C28.9114 99.1639 29.0417 98.9467 29.1618 98.7218C29.2819 98.4969 29.3905 98.2669 29.4889 98.0318C29.586 97.7967 29.6716 97.5578 29.7458 97.3137C29.8199 97.0697 29.8812 96.8231 29.931 96.5739C29.9809 96.3235 30.0179 96.0718 30.0422 95.8188C30.0677 95.5658 30.0805 95.3115 30.0805 95.0573C30.0805 94.8017 30.0677 94.5487 30.0422 94.2945C30.0179 94.0415 29.9809 93.7897 29.931 93.5406C29.8812 93.2901 29.8199 93.0435 29.7458 92.7995C29.6716 92.5567 29.586 92.3165 29.4889 92.0814C29.3905 91.8463 29.2819 91.6163 29.1618 91.3914C29.0417 91.1665 28.9114 90.9493 28.7696 90.7372C28.629 90.5251 28.477 90.3207 28.316 90.1239C28.1537 89.9271 27.9825 89.7393 27.8036 89.5592C27.6234 89.379 27.4343 89.2078 27.2376 89.0468C27.0408 88.8858 26.8363 88.7337 26.6242 88.5919C26.4134 88.4514 26.1949 88.3197 25.97 88.1996C25.7464 88.0795 25.5164 87.9709 25.2801 87.8738C25.045 87.7767 24.806 87.6911 24.562 87.617C24.3192 87.5429 24.0713 87.4816 23.8222 87.4317C23.573 87.3819 23.3213 87.3448 23.067 87.3193C22.814 87.295 22.5598 87.2822 22.3055 87.2822Z" fill="#571AFF"/>
<path d="M37.3649 106.733C36.8538 106.733 36.3478 106.755 35.8482 106.797C35.3473 106.839 34.8605 106.902 34.389 106.985C33.9175 107.069 33.4691 107.17 33.0448 107.292C32.6206 107.413 32.2271 107.55 31.8668 107.703C31.5052 107.858 31.1832 108.025 30.8995 108.205C30.6159 108.387 30.3769 108.577 30.1814 108.779C29.9859 108.979 29.839 109.186 29.7393 109.4C29.6397 109.613 29.5898 109.829 29.5898 110.046C29.5898 110.264 29.6397 110.479 29.7393 110.693C29.839 110.906 29.9859 111.113 30.1814 111.314C30.3769 111.516 30.6159 111.706 30.8995 111.888C31.1832 112.068 31.5052 112.235 31.8668 112.39C32.2271 112.543 32.6206 112.68 33.0448 112.801C33.4691 112.923 33.9175 113.023 34.389 113.108C34.8605 113.191 35.3473 113.253 35.8482 113.296C36.3478 113.338 36.8538 113.36 37.3649 113.36C37.8747 113.36 38.3807 113.338 38.8816 113.296C39.3824 113.253 39.868 113.191 40.3394 113.108C40.8109 113.023 41.2594 112.923 41.6836 112.801C42.1078 112.68 42.5014 112.543 42.8617 112.39C43.2233 112.235 43.5453 112.068 43.829 111.888C44.1126 111.706 44.3515 111.516 44.547 111.314C44.7425 111.113 44.8908 110.906 44.9904 110.693C45.0888 110.479 45.1386 110.264 45.1386 110.046C45.1386 109.829 45.0888 109.613 44.9904 109.4C44.8908 109.186 44.7425 108.979 44.547 108.779C44.3515 108.577 44.1126 108.387 43.829 108.205C43.5453 108.025 43.2233 107.858 42.8617 107.703C42.5014 107.55 42.1078 107.413 41.6836 107.292C41.2594 107.17 40.8109 107.069 40.3394 106.985C39.868 106.902 39.3824 106.839 38.8816 106.797C38.3807 106.755 37.8747 106.733 37.3649 106.733Z" fill="#571AFF"/>
</svg>
