<svg width="120" height="120" viewBox="0 0 120 120" fill="none" xmlns="http://www.w3.org/2000/svg">
<circle cx="60" cy="60" r="60" fill="#1B2D45"/>
<path fill-rule="evenodd" clip-rule="evenodd" d="M93.9586 55.1338V40.4034L59.9998 20.7542L42.4549 30.9076L56.3435 39.0356L52.8977 41.2452L38.8775 32.9856L26.041 40.4297L26.0936 79.702L43.6912 89.7765V73.8361L47.0581 75.7826V91.6967L60.2102 99.2986L93.9849 79.5705V59.1058L80.3067 67.1285V63.2355L93.9586 55.1338ZM43.586 50.5306L45.4536 49.5047L59.2896 57.5012L74.02 49.268L76.2295 50.5306V52.7401L62.2883 60.8418V77.4135L59.9998 78.9655L58.2111 77.7029V61.8414L43.586 53.2925V50.5306ZM51.0301 69.7182L51.0564 69.7327H51.0301V69.7182ZM51.0301 65.7081V69.7182L36.589 61.7625V77.6239L32.8275 75.4933L32.7486 44.5069L38.5355 41.061L42.0866 43.2706L36.4312 46.6901L36.4575 57.1592L51.0301 65.7081ZM87.1458 71.3635V75.6511L59.8946 91.3285L54.1603 87.9352V83.8581L59.9998 87.1461L69.3641 81.7274V64.8664L72.8889 62.6042L72.9941 79.5705L87.1458 71.3635ZM59.3948 49.4521L73.9411 41.0347L83.2528 46.6112V53.3188L87.0406 51.083V44.5595L59.9998 28.8822L56.3961 30.9865L70.3637 39.0619L56.1594 47.453L59.3948 49.4521Z" fill="#719CD0"/>
</svg>
