<svg width="120" height="114" viewBox="0 0 120 114" fill="none" xmlns="http://www.w3.org/2000/svg">
<path d="M51.5539 91.8679C54.8539 104.052 66.6462 113.352 72.6 112.983C72.8077 112.983 95.1923 108.783 107.446 88.2679C116.977 72.2986 113.746 56.8833 100.777 56.5371C96.1616 56.8833 45.3923 68.6525 51.5539 91.8679Z" fill="url(#paint0_linear_418_505)"/>
<path d="M99.5539 13.5909C91.3911 6.62966 81.4249 2.12068 70.8073 0.585216C60.1897 -0.950246 49.3544 0.550508 39.5539 4.91399C38.3111 5.43184 37.1011 6.02525 35.9308 6.69092C35.1462 7.1063 34.3385 7.54476 33.6231 8.0063H33.8308C31.5032 9.59963 29.4528 11.5642 27.7616 13.8217C11.4924 35.3525 66.1847 51.0909 95.4693 51.1371C108.946 60.8294 112.731 23.8601 99.5539 13.5909Z" fill="url(#paint1_linear_418_505)"/>
<path d="M42.8769 14.0293C35.3539 25.3601 10.2923 33.3447 6.16156 32.0985L6.66925 31.0601C8.07091 28.272 9.68329 25.595 11.4923 23.0524C15.1653 18.1148 19.5607 13.7583 24.5308 10.1293C26.0657 8.96983 27.6602 7.89143 29.3077 6.89851C31.8349 5.45365 34.6821 4.66057 37.5923 4.59082C48.7616 4.79851 42.9231 13.8216 42.8769 13.8216" fill="url(#paint2_linear_418_505)"/>
<path d="M36.6923 94.1062C37.2462 97.6601 36.6923 111.714 35.9539 112.914C35.3308 112.914 34.0385 113.029 30.2539 110.906C28.271 109.779 26.3597 108.531 24.5308 107.168C22.0736 105.347 19.7591 103.341 17.6077 101.168C15.4283 99.0219 13.422 96.707 11.6077 94.2447C7.91197 89.2312 5.03756 83.6616 3.09234 77.7447C2.07295 74.7358 1.30115 71.6486 0.784643 68.5139C-0.261548 62.056 -0.261548 55.4718 0.784643 49.0139C1.30648 45.8804 2.07818 42.7936 3.09234 39.7832C3.27695 39.1832 3.48464 38.5832 3.71541 37.9832C8.0308 43.7524 12.9462 48.9678 17.3077 54.7832C21.6693 60.5985 26.9308 69.3678 28.0616 71.3062C34.9846 83.2832 36.2308 90.6908 36.7616 94.2447" fill="url(#paint3_linear_418_505)"/>
<path d="M119.954 58.6603C119.962 66.2189 118.545 73.7112 115.777 80.7449C108.715 88.3372 61.0616 69.6218 60.6 69.4141C54.0693 66.5526 34.2462 57.8756 32.4462 44.1679C29.9539 24.4833 69.7154 10.7756 87.2308 10.2449C89.3308 10.2449 95.7231 10.2449 99.4385 13.3833C105.895 19.0261 111.067 25.9871 114.605 33.7973C118.144 41.6076 119.968 50.0857 119.954 58.6603Z" fill="url(#paint4_linear_418_505)"/>
<path d="M87.6462 111.968C82.4539 114.414 76.7308 112.637 78.2308 107.56C81.0693 97.8449 105.923 87.8525 111.485 87.3218C112.154 87.3218 112.454 87.7141 112.154 88.2449C106.416 98.3295 97.9121 106.561 87.6462 111.968Z" fill="url(#paint5_linear_418_505)"/>
<defs>
<linearGradient id="paint0_linear_418_505" x1="81.9923" y1="112.983" x2="81.9923" y2="56.5371" gradientUnits="userSpaceOnUse">
<stop stop-color="#4366C2"/>
<stop offset="0.15" stop-color="#3458B8"/>
<stop offset="0.4" stop-color="#2348AC"/>
<stop offset="0.67" stop-color="#193FA5"/>
<stop offset="1" stop-color="#163CA3"/>
</linearGradient>
<linearGradient id="paint1_linear_418_505" x1="66.2539" y1="52.7294" x2="66.2539" y2="-0.0244695" gradientUnits="userSpaceOnUse">
<stop stop-color="#4366C2"/>
<stop offset="0.15" stop-color="#3458B8"/>
<stop offset="0.4" stop-color="#2348AC"/>
<stop offset="0.67" stop-color="#193FA5"/>
<stop offset="1" stop-color="#163CA3"/>
</linearGradient>
<linearGradient id="paint2_linear_418_505" x1="6.13848" y1="18.4831" x2="44.4462" y2="18.4831" gradientUnits="userSpaceOnUse">
<stop stop-color="#58C66B"/>
<stop offset="1" stop-color="#5491F6"/>
</linearGradient>
<linearGradient id="paint3_linear_418_505" x1="-0.0461262" y1="75.3908" x2="36.9231" y2="75.3908" gradientUnits="userSpaceOnUse">
<stop stop-color="#58C66B"/>
<stop offset="1" stop-color="#5491F6"/>
</linearGradient>
<linearGradient id="paint4_linear_418_505" x1="32.3308" y1="46.4064" x2="119.954" y2="46.4064" gradientUnits="userSpaceOnUse">
<stop stop-color="#58C66B"/>
<stop offset="1" stop-color="#5491F6"/>
</linearGradient>
<linearGradient id="paint5_linear_418_505" x1="78.0231" y1="100.176" x2="112.315" y2="100.176" gradientUnits="userSpaceOnUse">
<stop stop-color="#58C66B"/>
<stop offset="1" stop-color="#5491F6"/>
</linearGradient>
</defs>
</svg>
