<svg width="120" height="120" viewBox="0 0 120 120" fill="none" xmlns="http://www.w3.org/2000/svg">
<circle cx="60" cy="60" r="60" fill="#EDF0F4"/>
<path d="M48.4678 89.3482H87.7212L93.4001 79.176H54.2091L48.4678 89.3482Z" fill="#5569FF"/>
<path d="M86.473 66.8818H75.0527L69.3738 76.9916H80.7317L86.473 66.8818Z" fill="#5569FF"/>
<path d="M86.4728 64.6977L66.8773 30H55.457L75.1149 64.6977H86.4728Z" fill="#5C00E9"/>
<path d="M27 78.115L32.6789 88.1623L52.3368 53.4646L46.5955 43.4172L27 78.115Z" fill="#00BFE9"/>
<path d="M46.5955 88.1625L52.3368 78.1151L46.5955 68.0054L40.9165 78.1151L46.5955 88.1625Z" fill="#00BFE9"/>
<path d="M48.53 42.2939L54.209 52.4037H65.6293L59.8879 42.2939H48.53Z" fill="#5C00E9"/>
<path d="M93.4001 76.9917L88.3452 68.0676L83.2903 76.9917H93.4001Z" fill="#243269"/>
<path d="M67.5016 75.8683L73.1806 65.821L67.5016 55.7112L61.7603 65.821L67.5016 75.8683Z" fill="#243269"/>
<path d="M48.4678 66.8818L54.2091 76.9916H55.4572H65.6294L59.8881 66.8818H48.4678Z" fill="#243269"/>
<path d="M54.2091 54.5879L48.4678 64.6977H59.8881L65.567 54.5879H54.2091Z" fill="#243269"/>
<path d="M34.551 89.348H44.7232L39.6683 80.3616L34.551 89.348Z" fill="#243269"/>
<path d="M53.5851 31.1233L48.4678 40.1098H58.64L53.5851 31.1233Z" fill="#243269"/>
</svg>
