<svg width="120" height="120" viewBox="0 0 120 120" fill="none" xmlns="http://www.w3.org/2000/svg">
<path fill-rule="evenodd" clip-rule="evenodd" d="M60 0C93.132 0 120 26.868 120 60C120 93.132 93.132 120 60 120C26.868 120 0 93.132 0 60C0 26.868 26.868 0 60 0Z" fill="#070510"/>
<path fill-rule="evenodd" clip-rule="evenodd" d="M105.6 42.9599C104.436 47.3999 99.6482 53.5079 93.2042 57.4439C93.2282 57.9959 93.2402 58.5479 93.2402 59.0999C93.2402 77.4239 78.3842 92.2799 60.0602 92.2799C50.5922 92.2799 42.0602 88.3199 36.0122 81.9599C32.4362 82.8239 9.81619 87.7679 13.6802 72.8399C15.7562 66.6239 22.7522 61.8839 26.8802 59.5559C26.8802 59.3999 26.8802 59.2439 26.8802 59.0999C26.8802 40.7759 41.7362 25.9199 60.0602 25.9199C69.3602 25.9199 77.7722 29.7479 83.7962 35.9279C89.1842 34.8479 107.34 32.0039 105.6 42.9599ZM60.1802 34.4399C46.5602 34.4399 35.5202 45.4799 35.5202 59.0999C35.5202 60.8279 35.7002 62.5079 36.0362 64.1399L36.0002 64.1999C36.0002 64.1999 30.2762 67.7279 26.3762 70.9319C25.2722 71.8919 24.2162 72.9119 23.3042 73.9799C23.2322 74.0879 23.1722 74.1839 23.1122 74.2799C24.0242 74.2919 25.0202 74.2919 26.1242 74.2319C31.5242 73.7039 41.8802 71.7479 57.3842 65.4479C57.3722 65.2559 57.3722 65.0639 57.3722 64.8599C57.3722 59.0639 62.0762 54.3599 67.8722 54.3599C70.7042 54.3599 73.2842 55.4879 75.1682 57.3119C77.9282 55.9199 80.7962 54.4199 83.7722 52.7999C83.8562 52.7639 83.9402 52.7399 84.0122 52.7159C81.1922 42.1919 71.5922 34.4399 60.1802 34.4399ZM62.6402 64.8599C62.6402 67.7399 64.9802 70.0799 67.8602 70.0799C70.7402 70.0799 73.0802 67.7399 73.0802 64.8599C73.0802 61.9799 70.7402 59.6399 67.8602 59.6399C64.9802 59.6399 62.6402 61.9799 62.6402 64.8599ZM78.2882 66.0719C77.6882 71.3039 73.2482 75.3599 67.8602 75.3599C65.5562 75.3599 63.4322 74.6159 61.7042 73.3679C55.8962 75.7319 50.0522 77.8679 45.5762 78.9719C49.6682 81.9839 54.7202 83.7719 60.1802 83.7719C72.4322 83.7719 82.6082 74.8319 84.5162 63.1079C83.6042 63.5399 81.3482 64.6439 78.2882 66.0719ZM89.7602 43.7999C89.7602 43.7999 90.9962 45.7199 91.4402 47.6399C93.7082 45.4679 95.6402 43.5599 95.6402 43.5599L89.7602 43.7999Z" fill="url(#paint0_linear_204_30772)"/>
<defs>
<linearGradient id="paint0_linear_204_30772" x1="13.2365" y1="92.2804" x2="105.717" y2="92.2804" gradientUnits="userSpaceOnUse">
<stop stop-color="#06D6FE"/>
<stop offset="1" stop-color="#7A61FB"/>
</linearGradient>
</defs>
</svg>
