<svg width="120" height="120" viewBox="0 0 120 120" fill="none" xmlns="http://www.w3.org/2000/svg">
<circle cx="60" cy="60" r="60" fill="#EDF0F4"/>
<path d="M71.2539 70.0001H67.8683C67.2414 70.0001 66.7085 69.4985 66.7085 68.8402V59.9374L60.7837 63.6365C60.2821 63.9499 59.6552 63.9499 59.1536 63.6365L53.2602 59.9374V68.8402C53.2602 69.4672 52.7586 70.0001 52.1003 70.0001H48.7461C48.1191 70.0001 47.5862 69.4985 47.5862 68.8402V51.6615C47.5862 50.8151 48.2759 50.1255 49.1223 50.1255C49.4357 50.1255 49.7179 50.2195 49.9687 50.4076L59.3104 56.834C59.6865 57.1161 60.2194 57.1161 60.5956 56.834L69.9373 50.4076C70.627 49.9374 71.5988 50.1255 72.069 50.8151C72.2571 51.0659 72.3198 51.3794 72.3511 51.6615V68.8402C72.3825 69.4672 71.8809 70.0001 71.2539 70.0001Z" fill="#FF4A4A"/>
<path d="M42.5392 69.9687H21.5361C20.6897 69.9687 20 69.279 20 68.4326V51.1599C20.0313 50.5016 20.5329 50 21.1912 50H24.5768C25.2038 50 25.7367 50.5016 25.7367 51.1599V64.2947H38.4639V51.1599C38.4639 50.5329 38.9655 50 39.6238 50H42.9154C43.5423 50 44.0752 50.5016 44.0752 51.1599V68.4326C44.0752 69.279 43.3856 69.9687 42.5392 69.9687Z" fill="#FF4A4A"/>
<path d="M77.4608 50H98.464C99.3104 50 100 50.6897 100 51.5361V68.8088C100 69.4357 99.4984 69.9687 98.8715 69.9687H95.4859C94.8589 69.9687 94.326 69.4671 94.326 68.8088V56.4263C94.326 56.0188 93.9812 55.674 93.5737 55.674H82.3825C81.9749 55.674 81.6301 56.0188 81.6301 56.4263V68.8088C81.6301 69.4357 81.1285 69.9687 80.4702 69.9687H77.0846C76.4577 69.9687 75.9248 69.4671 75.9248 68.8088V51.5361C75.9248 50.6897 76.6144 50 77.4608 50Z" fill="#FF4A4A"/>
<path d="M86.2696 59.3103H89.6238C90.2508 59.3103 90.7837 59.8119 90.7837 60.4702V63.8871C90.7837 64.5141 90.2821 65.047 89.6238 65.047H86.2696C85.6426 65.047 85.1097 64.5454 85.1097 63.8871V60.4388C85.1097 59.8119 85.6426 59.3103 86.2696 59.3103Z" fill="#FF4A4A"/>
</svg>
