<svg width="120" height="120" viewBox="0 0 120 120" fill="none" xmlns="http://www.w3.org/2000/svg">
<circle cx="60" cy="60" r="60" fill="#EDF0F4"/>
<path d="M93.6791 58.7832H93.6003L91.1068 46.7408C91.5974 46.5598 91.8884 46.0539 91.798 45.5388C91.7077 45.0237 91.2619 44.647 90.739 44.6438C90.5469 44.6439 90.3585 44.6967 90.1944 44.7966L80.3828 33.1937C80.8095 32.7867 80.8255 32.1109 80.4186 31.6842C80.0117 31.2575 79.3358 31.2414 78.9091 31.6484C78.8225 31.7303 78.7506 31.8264 78.6965 31.9326L68.8276 27.4615C68.8663 27.3517 68.8865 27.2363 68.8873 27.1199C68.8855 26.5572 68.4526 26.0898 67.8916 26.0449C67.3307 26.0001 66.829 26.3927 66.7377 26.948H60.7356C60.306 26.5877 59.6797 26.5877 59.25 26.948H53.236C53.1878 26.5558 52.9292 26.2212 52.5618 26.0758C52.1944 25.9304 51.7769 25.9973 51.4733 26.2503C51.1698 26.5033 51.0287 26.9019 51.1055 27.2895C51.1131 27.3481 51.1267 27.4057 51.1461 27.4615L41.2939 31.9326C41.0242 31.4083 40.3804 31.2019 39.8561 31.4716C39.3317 31.7414 39.1254 32.3851 39.3951 32.9095C39.4504 33.0149 39.5222 33.1108 39.6077 33.1937L29.7531 44.7632C29.589 44.6633 29.4006 44.6104 29.2085 44.6103C28.6856 44.6135 28.2398 44.9903 28.1494 45.5053C28.0591 46.0204 28.3501 46.5264 28.8407 46.7074L26.3926 58.7904H26.3137C25.5795 58.821 25 59.4252 25 60.1601C25 60.895 25.5795 61.4992 26.3137 61.5299H26.3926L28.855 73.5866C28.3644 73.7676 28.0734 74.2736 28.1638 74.7886C28.2541 75.3037 28.6999 75.6805 29.2228 75.6837C29.4146 75.6813 29.6024 75.6286 29.7674 75.5308L39.6101 87.1266C39.3032 87.4194 39.1987 87.8661 39.344 88.2646C39.4892 88.6631 39.8566 88.9378 40.2799 88.9645C40.7032 88.9912 41.1022 88.7648 41.2963 88.3877L51.1581 92.8612C51.1203 92.9712 51.1001 93.0864 51.0984 93.2027C51.1002 93.7654 51.5331 94.2328 52.094 94.2777C52.655 94.3226 53.1567 93.93 53.2479 93.3747H59.25C59.6804 93.733 60.3053 93.733 60.7356 93.3747H66.7377C66.829 93.93 67.3307 94.3226 67.8916 94.2777C68.4526 94.2328 68.8855 93.7654 68.8873 93.2027C68.8867 93.0863 68.8665 92.9709 68.8276 92.8612L78.6989 88.3781C78.8931 88.7552 79.292 88.9817 79.7153 88.955C80.1387 88.9283 80.506 88.6535 80.6513 88.255C80.7965 87.8565 80.692 87.4098 80.3852 87.117L90.2039 75.5786C90.3689 75.6764 90.5567 75.7291 90.7485 75.7314C91.2714 75.7282 91.7172 75.3515 91.8076 74.8364C91.8979 74.3213 91.6069 73.8154 91.1163 73.6344L93.6074 61.5156H93.6863C94.4205 61.4849 95 60.8807 95 60.1458C95 59.4109 94.4205 58.8067 93.6863 58.776L93.6791 58.7832Z" fill="#0432A9"/>
<path d="M90.6531 46.8077L91.7565 55.6855L88.2432 48.3148C88.7016 47.9721 88.8812 47.3693 88.685 46.8316L89.8195 46.3062C90.0028 46.5953 90.3117 46.7812 90.6531 46.8077Z" fill="#EDF0F4"/>
<path d="M85.8428 69.8631L85.604 60.9926C85.9524 60.9659 86.2485 60.7277 86.3492 60.3931H88.1214C88.1214 60.4361 88.1405 60.479 88.1524 60.5244C88.1644 60.5698 88.1811 60.6224 88.1978 60.6701V60.6988C88.3354 61.0448 88.6104 61.3182 88.9573 61.4535L88.0354 67.7589L86.3635 70.809L85.8428 69.8631Z" fill="#EDF0F4"/>
<path d="M33.5984 70.804L31.9265 67.754L31.0142 61.4462C31.4651 61.2702 31.7864 60.865 31.8549 60.3857H33.6629C33.6874 60.4397 33.7161 60.4916 33.7489 60.541C33.876 60.7794 34.1095 60.9428 34.3771 60.9805L34.1382 69.8582L33.5984 70.804Z" fill="#EDF0F4"/>
<path d="M34.1453 50.4427L34.3841 59.3205C34.1158 59.3563 33.8816 59.5202 33.7559 59.7599C33.7222 59.8087 33.6934 59.8607 33.67 59.9152H31.8715C31.8044 59.4353 31.4827 59.0295 31.0308 58.8547L31.9527 52.5398L33.6246 49.4897L34.1453 50.4427Z" fill="#EDF0F4"/>
<path d="M86.3824 49.5042L88.0543 52.5542L88.9762 58.8596C88.6283 58.9934 88.3527 59.2673 88.2167 59.6143V59.643C88.1987 59.6906 88.1836 59.7393 88.1713 59.7887C88.1585 59.8318 88.1481 59.8757 88.1403 59.92H86.3824C86.2835 59.5842 85.9864 59.3452 85.6372 59.3206L85.876 50.45L86.3824 49.5042Z" fill="#EDF0F4"/>
<path d="M86.5522 49.2057L86.9535 48.5059C87.1059 48.5651 87.2677 48.5967 87.4312 48.599H87.4718L87.928 51.704L86.5522 49.2057Z" fill="#EDF0F4"/>
<path d="M91.4675 59.9535H90.8251C90.7589 59.5526 90.5171 59.2023 90.1659 58.9981C90.1388 58.9816 90.1109 58.9664 90.0823 58.9528C90.0522 58.9357 90.0211 58.9206 89.9891 58.9074C89.8203 58.8306 89.6371 58.7907 89.4517 58.7903H89.3777L88.6182 53.6099L91.778 59.3803C91.6098 59.5282 91.4963 59.7284 91.4556 59.9487L91.4675 59.9535Z" fill="#EDF0F4"/>
<path d="M91.7802 60.9448L88.6274 66.7152L89.387 61.5347H89.461C89.6463 61.5332 89.8293 61.4934 89.9984 61.4177C90.0294 61.4177 90.0605 61.3867 90.0892 61.3723C90.1178 61.3586 90.1457 61.3435 90.1727 61.3269C90.5231 61.1218 90.7645 60.7719 90.832 60.3716H91.4744C91.5111 60.5897 91.6176 60.79 91.7778 60.9424L91.7802 60.9448Z" fill="#EDF0F4"/>
<path d="M85.8691 49.552L85.8859 48.9215C85.94 48.9168 85.9935 48.9072 86.0459 48.8928L86.1438 49.072L85.8691 49.552Z" fill="#EDF0F4"/>
<path d="M86.1077 47.2662V47.2853C86.0192 47.2519 85.9253 47.2349 85.8306 47.2351C85.7628 47.2351 85.6952 47.2448 85.63 47.2638V47.2208L85.3721 46.6523L86.1531 46.927C86.1164 47.0359 86.0939 47.1491 86.0862 47.2638L86.1077 47.2662Z" fill="#EDF0F4"/>
<path d="M85.5966 48.8928L85.5655 50.087L82.0617 56.1823L78.5938 52.2796C78.7152 52.1304 78.7818 51.9441 78.7824 51.7517C78.7826 51.6708 78.7705 51.5903 78.7466 51.5129L85.0926 48.5178C85.2018 48.695 85.3715 48.8265 85.5703 48.888L85.5966 48.8928Z" fill="#EDF0F4"/>
<path d="M74.1084 78.0696L74.5717 77.9072L74.1561 79.1014C74.1144 79.0938 74.072 79.0898 74.0295 79.0895C73.9742 79.0891 73.9189 79.0947 73.8647 79.1062C74.0896 78.8129 74.1766 78.4367 74.1036 78.0744L74.1084 78.0696Z" fill="#EDF0F4"/>
<path d="M73.965 77.6685C73.8538 77.4619 73.6887 77.2894 73.4873 77.1693L76.8072 68.9054L77.1559 68.8433C77.2279 69.0493 77.3756 69.2201 77.5691 69.3209L74.7317 77.3795L73.965 77.6685Z" fill="#EDF0F4"/>
<path d="M73.1744 79.9447L71.2637 80.2958L72.059 79.4216C72.4171 79.6584 72.8682 79.7057 73.2676 79.5482C73.2105 79.6585 73.1787 79.78 73.1744 79.9041L73.1601 79.9375L73.1744 79.9447Z" fill="#EDF0F4"/>
<path d="M60.8263 82.5097L70.2821 80.7686L64.7887 86.8327L60.6782 83.0113C60.7741 82.8704 60.8257 82.704 60.8263 82.5336C60.818 82.5249 60.8108 82.5153 60.8048 82.5049L60.8263 82.5097Z" fill="#EDF0F4"/>
<path d="M60.774 82.2328C60.7272 82.0952 60.6448 81.9724 60.5352 81.8769L62.5892 78.5188H71.4956C71.5335 78.742 71.628 78.9517 71.7703 79.1278L70.6191 80.4104L60.774 82.2328Z" fill="#EDF0F4"/>
<path d="M59.3406 83.0018L55.2302 86.8232L49.7368 80.759L59.1926 82.5002V82.5145C59.1841 82.6818 59.2248 82.8478 59.3096 82.9922L59.3406 83.0018Z" fill="#EDF0F4"/>
<path d="M59.2475 82.2328L49.4239 80.4199L48.2607 79.1374C48.403 78.9612 48.4976 78.7515 48.5354 78.5283H57.4418L59.4648 81.8721C59.3555 81.9669 59.2732 82.0888 59.226 82.2256L59.2475 82.2328Z" fill="#EDF0F4"/>
<path d="M46.828 79.9017C46.8237 79.7776 46.7919 79.656 46.7349 79.5458C47.1342 79.7032 47.5853 79.656 47.9434 79.4192L48.7387 80.2934L46.828 79.9423V79.9017Z" fill="#EDF0F4"/>
<path d="M46.1474 79.1014C46.0515 79.0799 45.952 79.0799 45.856 79.1014L45.4404 77.9072L45.9038 78.0696C45.8885 78.1484 45.8805 78.2283 45.8799 78.3085C45.8746 78.5898 45.9582 78.8656 46.1187 79.0967L46.1474 79.1014Z" fill="#EDF0F4"/>
<path d="M46.0444 77.6685L45.2587 77.3938L42.4355 69.3114C42.629 69.2106 42.7768 69.0397 42.8487 68.8337L43.1975 68.8958L46.5174 77.1598C46.3104 77.2807 46.1403 77.4557 46.0253 77.6661L46.0444 77.6685Z" fill="#EDF0F4"/>
<path d="M45.9013 42.2433L45.438 42.4058L45.8536 41.2115C45.8957 41.2139 45.938 41.2139 45.9802 41.2115C46.0354 41.2095 46.0904 41.2039 46.145 41.1948C45.936 41.4968 45.8427 41.8639 45.8822 42.229L45.9013 42.2433Z" fill="#EDF0F4"/>
<path d="M46.0446 42.6448C46.157 42.8503 46.3218 43.0225 46.5222 43.144L43.2023 51.4079L42.8536 51.47C42.7832 51.2631 42.635 51.0918 42.4404 50.9923L45.2731 42.9099L46.0446 42.6448Z" fill="#EDF0F4"/>
<path d="M46.8446 40.3589L48.7553 40.0078L47.96 40.882C47.6028 40.6428 47.1505 40.5954 46.7515 40.7554C46.8079 40.6449 46.8397 40.5235 46.8446 40.3995L46.8589 40.3661L46.8446 40.3589Z" fill="#EDF0F4"/>
<path d="M59.1901 37.8033L49.7344 39.5444L55.2277 33.4802L59.3382 37.3017C59.2417 37.4423 59.19 37.6088 59.1901 37.7794C59.1901 37.7794 59.171 37.7961 59.171 37.8009L59.1901 37.8033Z" fill="#EDF0F4"/>
<path d="M59.2428 38.0803C59.2909 38.2173 59.3731 38.3398 59.4817 38.4362L57.4252 41.7919H48.5188C48.4819 41.5684 48.3872 41.3585 48.2441 41.1829L49.4073 39.9003L59.2428 38.0803Z" fill="#EDF0F4"/>
<path d="M60.6761 37.3112L64.7866 33.4897L70.2799 39.5539L60.8266 37.8128V37.7985C60.8271 37.6227 60.7719 37.4513 60.6689 37.3088L60.6761 37.3112Z" fill="#EDF0F4"/>
<path d="M60.7689 38.0803L70.5925 39.8931L71.7556 41.1757C71.6114 41.3533 71.5167 41.5659 71.481 41.7919H62.5745L60.5205 38.4338C60.6279 38.3393 60.71 38.2194 60.7593 38.0851L60.7689 38.0803Z" fill="#EDF0F4"/>
<path d="M73.1891 40.4115C73.194 40.5354 73.2258 40.6569 73.2822 40.7674C72.8832 40.6074 72.4309 40.6548 72.0737 40.8939L71.2783 40.0198L73.1891 40.3709V40.4115Z" fill="#EDF0F4"/>
<path d="M73.8696 41.2117C73.9241 41.2208 73.9792 41.2264 74.0344 41.2284C74.0766 41.2309 74.1189 41.2309 74.161 41.2284L74.5766 42.4226L74.1132 42.2602C74.1869 41.8979 74.0998 41.5214 73.8744 41.2284L73.8696 41.2117Z" fill="#EDF0F4"/>
<path d="M73.9721 42.6447L74.7579 42.9193L77.581 51.0017C77.3864 51.1012 77.2382 51.2726 77.1678 51.4794L76.8191 51.4173L73.4849 43.1534C73.6866 43.0273 73.8514 42.8502 73.9625 42.6399L73.9721 42.6447Z" fill="#EDF0F4"/>
<path d="M80.531 58.8454C80.2913 58.7565 80.0296 58.7457 79.7834 58.8143L78.4626 55.5302L78.1855 52.5662C78.2702 52.5428 78.3507 52.5065 78.4244 52.4587L81.9186 56.4307L80.531 58.8454Z" fill="#EDF0F4"/>
<path d="M82.2288 56.7817L84.8083 59.7052L84.7271 59.8986H81.4192C81.3649 59.568 81.1874 59.2701 80.9224 59.0651L82.2288 56.7817Z" fill="#EDF0F4"/>
<path d="M79.0168 59.3445C78.9519 59.3239 78.8843 59.3127 78.8162 59.3111L78.6084 57.0803L79.3751 58.9911C79.2311 59.0825 79.1068 59.2019 79.0097 59.3422L79.0168 59.3445Z" fill="#EDF0F4"/>
<path d="M79.3726 61.3198L78.606 63.2305L78.8137 60.9997C78.8816 60.996 78.9489 60.9848 79.0144 60.9663C79.1082 61.1051 79.2273 61.225 79.3655 61.3198H79.3726Z" fill="#EDF0F4"/>
<path d="M78.2619 56.206L78.5605 59.3444C78.2951 59.419 78.084 59.6203 77.9968 59.8818H72.0831C72.0541 59.7954 72.0105 59.7146 71.9541 59.643L77.0367 53.168L78.2619 56.206Z" fill="#EDF0F4"/>
<path d="M59.0591 59.1557C58.8613 59.349 58.7293 59.5997 58.6818 59.8722L49.4673 59.8842C49.3909 59.7263 49.2674 59.5961 49.1138 59.5116L52.4838 50.6601C52.6605 50.707 52.8477 50.6944 53.0164 50.6243L59.0591 59.1557Z" fill="#EDF0F4"/>
<path d="M53.377 50.3185C53.458 50.2071 53.5105 50.0776 53.5298 49.9412H66.4703C66.4896 50.0776 66.5421 50.2071 66.6231 50.3185L60.5446 58.893C60.3738 58.8143 60.1881 58.7735 60 58.7735H59.9833C59.7953 58.7735 59.6095 58.8143 59.4388 58.893L53.377 50.3185Z" fill="#EDF0F4"/>
<path d="M49.4624 60.4336H58.6769C58.7249 60.706 58.8568 60.9565 59.0543 61.1501L53.0116 69.6935C52.8434 69.6209 52.6554 69.6083 52.4789 69.6577L49.1089 60.8205C49.2639 60.7312 49.3874 60.596 49.4624 60.4336V60.4336Z" fill="#EDF0F4"/>
<path d="M59.441 61.4128C59.6125 61.4893 59.7978 61.53 59.9855 61.5323H60.0023C60.19 61.53 60.3753 61.4893 60.5468 61.4128L66.611 69.9753C66.5292 70.0863 66.4766 70.2161 66.4582 70.3527H53.5225C53.504 70.2161 53.4514 70.0863 53.3696 69.9753L59.441 61.4128Z" fill="#EDF0F4"/>
<path d="M60.9341 61.1501C61.1315 60.9565 61.2635 60.706 61.3115 60.4336H70.4854C70.5524 60.6193 70.6815 60.7763 70.8508 60.8778L67.507 69.6601C67.3299 69.6095 67.1408 69.6222 66.972 69.6959L60.9341 61.1501Z" fill="#EDF0F4"/>
<path d="M70.4876 59.8699L61.3041 59.858C61.2566 59.5855 61.1246 59.3348 60.9268 59.1415L66.9671 50.5957C67.1402 50.6689 67.3332 50.6807 67.514 50.6291L70.8578 59.4114C70.683 59.5144 70.5514 59.6773 70.4876 59.8699Z" fill="#EDF0F4"/>
<path d="M67.3014 48.9762C67.1983 48.9761 67.0962 48.9955 67.0004 49.0336L62.8374 42.2266H71.4715C71.5184 42.4978 71.6477 42.7479 71.8417 42.9431L67.5426 49.0097C67.4651 48.9867 67.3845 48.9762 67.3037 48.9786L67.3014 48.9762Z" fill="#EDF0F4"/>
<path d="M66.7781 49.1627C66.611 49.2926 66.5 49.4814 66.4676 49.6906H53.5224C53.4901 49.4814 53.379 49.2926 53.2119 49.1627L57.4657 42.2363H62.522L66.7781 49.1627Z" fill="#EDF0F4"/>
<path d="M52.9974 49.0362C52.8244 48.9662 52.6321 48.9603 52.4552 49.0194L48.168 42.9529C48.3628 42.7583 48.4922 42.5078 48.5382 42.2363H57.1723L52.9974 49.0362Z" fill="#EDF0F4"/>
<path d="M52.2544 50.5479L48.8844 59.4066C48.8265 59.393 48.7671 59.3866 48.7076 59.3875C48.5525 59.3874 48.4003 59.4304 48.2682 59.5117L43.0781 52.8838L43.5916 51.6036L51.8914 50.0894C51.9523 50.2787 52.0773 50.4408 52.2449 50.5479H52.2544Z" fill="#EDF0F4"/>
<path d="M48.6982 60.9183C48.7608 60.9174 48.8231 60.911 48.8845 60.8992L52.257 69.7579C52.0872 69.8626 51.9602 70.0243 51.8987 70.2141L43.599 68.6998L43.0854 67.4196L48.2635 60.7917C48.3949 60.8713 48.5448 60.9149 48.6982 60.9183Z" fill="#EDF0F4"/>
<path d="M52.4456 71.2889C52.6229 71.3457 52.8143 71.3398 52.9878 71.2722L57.1508 78.0744H48.5167C48.4718 77.8026 48.3422 77.5518 48.1465 77.3579L52.4456 71.2889Z" fill="#EDF0F4"/>
<path d="M53.2119 71.1433C53.3781 71.0127 53.489 70.8242 53.5224 70.6155H66.4676C66.5011 70.8242 66.612 71.0127 66.7781 71.1433L62.5244 78.0697H57.4633L53.2119 71.1433Z" fill="#EDF0F4"/>
<path d="M67.0029 71.2722C67.1763 71.3398 67.3677 71.3457 67.545 71.2889L71.8442 77.3555C71.6492 77.55 71.5198 77.8005 71.474 78.072H62.8398L67.0029 71.2722Z" fill="#EDF0F4"/>
<path d="M67.7527 69.7604L71.0965 60.9758C71.3317 61.0336 71.5804 60.9856 71.7772 60.8445L76.9266 67.4222L76.4107 68.7L68.1038 70.2142C68.0421 70.0239 67.9141 69.8621 67.7432 69.7581L67.7527 69.7604Z" fill="#EDF0F4"/>
<path d="M71.2902 59.3087C71.2249 59.3084 71.1599 59.3164 71.0967 59.3326L67.7529 50.548C67.9221 50.4426 68.0489 50.2812 68.1112 50.0918L76.4109 51.6061L76.9245 52.8862L71.7679 59.4663C71.6253 59.3636 71.454 59.3085 71.2782 59.3087H71.2902Z" fill="#EDF0F4"/>
<path d="M77.3495 52.3489L77.242 52.4851L76.9268 51.7017L77.1059 51.7351V51.7566C77.1064 51.9767 77.192 52.1881 77.3447 52.3465L77.3495 52.3489Z" fill="#EDF0F4"/>
<path d="M77.3496 52.762L77.5526 52.5017C77.6651 52.5602 77.789 52.5936 77.9157 52.5996L78.1091 54.6561L77.3496 52.762Z" fill="#EDF0F4"/>
<path d="M76.2916 51.3028L68.1543 49.8291C68.1537 49.6193 68.0744 49.4173 67.9321 49.2631L72.2122 43.2061C72.4796 43.3372 72.7837 43.3734 73.0744 43.3088L76.2916 51.3028Z" fill="#EDF0F4"/>
<path d="M62.2592 41.7919H57.7451L59.7203 38.5747C59.9003 38.6517 60.104 38.6517 60.284 38.5747L62.2592 41.7919Z" fill="#EDF0F4"/>
<path d="M46.926 43.3088C47.2167 43.3746 47.5212 43.3383 47.7882 43.2061L52.0683 49.2631C51.926 49.4173 51.8468 49.6193 51.8462 49.8291L43.7017 51.3028L46.926 43.3088Z" fill="#EDF0F4"/>
<path d="M42.8891 51.7327L43.0683 51.6992L42.753 52.4826L42.6455 52.3465C42.8003 52.1874 42.8861 51.9737 42.8843 51.7518C42.8868 51.7457 42.8885 51.7392 42.8891 51.7327Z" fill="#EDF0F4"/>
<path d="M42.4354 52.4968L42.6408 52.7572L41.8789 54.6464L42.0724 52.59C42.1987 52.5857 42.3226 52.5539 42.4354 52.4968V52.4968Z" fill="#EDF0F4"/>
<path d="M42.9562 53.1609L48.065 59.6622C48.0099 59.7228 47.9641 59.7912 47.9288 59.8652H41.9435C41.8632 59.6255 41.6788 59.4349 41.4419 59.3469L41.7381 56.1894L42.9562 53.1609Z" fill="#EDF0F4"/>
<path d="M41.5234 55.5254L40.2026 58.8094C39.9564 58.7408 39.6948 58.7516 39.4551 58.8405L38.0674 56.4258L41.5616 52.4539C41.6356 52.5012 41.716 52.5374 41.8005 52.5613L41.5234 55.5254Z" fill="#EDF0F4"/>
<path d="M41.1698 59.3087H41.1363C41.0753 59.3067 41.0142 59.3132 40.9548 59.3278C40.8626 59.1948 40.7469 59.0799 40.6133 58.9886L41.38 57.0779L41.1698 59.3087Z" fill="#EDF0F4"/>
<path d="M41.3775 63.2257L40.6108 61.315C40.7442 61.2226 40.8605 61.1079 40.9548 60.9758C41.0145 60.9881 41.0753 60.9945 41.1363 60.9949H41.1697L41.3775 63.2257Z" fill="#EDF0F4"/>
<path d="M39.0585 59.0556C38.7935 59.2607 38.616 59.5585 38.5617 59.8891H35.2967C35.2752 59.8141 35.243 59.7425 35.2012 59.6766L37.7639 56.7627L39.0585 59.0556Z" fill="#EDF0F4"/>
<path d="M35.01 59.4949C34.9084 59.4107 34.7879 59.3525 34.6589 59.3253L34.4487 50.9873L37.6206 56.538L35.01 59.4949Z" fill="#EDF0F4"/>
<path d="M34.6589 60.9806C34.7872 60.9512 34.9072 60.8933 35.01 60.811L37.6206 63.7655L34.4487 69.3186L34.6589 60.9806Z" fill="#EDF0F4"/>
<path d="M35.1938 60.6127C35.2348 60.5463 35.267 60.4749 35.2894 60.4001L38.5591 60.4145C38.6145 60.7447 38.7918 61.0422 39.0559 61.248L37.7566 63.5266L35.1938 60.6127Z" fill="#EDF0F4"/>
<path d="M39.4572 61.4629C39.6973 61.5494 39.9582 61.5602 40.2047 61.4939L41.5303 64.7804L41.8074 67.7444C41.7222 67.7663 41.6414 67.8026 41.5685 67.8519L38.0767 63.88L39.4572 61.4629Z" fill="#EDF0F4"/>
<path d="M41.7312 64.0903L41.4351 60.9328C41.6711 60.8433 41.8549 60.6534 41.9366 60.4146H47.9292C47.9657 60.4878 48.0114 60.556 48.0653 60.6176L42.966 67.1451L41.7312 64.0903Z" fill="#EDF0F4"/>
<path d="M42.6436 67.9499L42.751 67.8137L43.0663 68.5971L42.8872 68.5637V68.5422C42.8861 68.3243 42.8004 68.1154 42.6483 67.9594L42.6436 67.9499Z" fill="#EDF0F4"/>
<path d="M42.6432 67.5368L42.4354 67.7972C42.3233 67.7375 42.1992 67.7041 42.0724 67.6993L41.8789 65.6428L42.6432 67.5368Z" fill="#EDF0F4"/>
<path d="M43.7017 68.9841L51.8414 70.453C51.8429 70.6627 51.922 70.8643 52.0635 71.0191L47.7787 77.0976C47.512 76.9641 47.2071 76.9278 46.9165 76.9949L43.7017 68.9841Z" fill="#EDF0F4"/>
<path d="M57.7358 78.5044H62.2595L60.2843 81.7216C60.1046 81.6429 59.9003 81.6429 59.7206 81.7216L57.7358 78.5044Z" fill="#EDF0F4"/>
<path d="M73.0695 76.9877C72.7789 76.9206 72.474 76.957 72.2073 77.0904L67.9272 71.0334C68.0687 70.8786 68.1479 70.677 68.1494 70.4673L76.2867 68.9937L73.0695 76.9877Z" fill="#EDF0F4"/>
<path d="M77.0961 68.5637L76.917 68.5971L77.2347 67.8257L77.3421 67.9618C77.1867 68.1205 77.1007 68.3344 77.1033 68.5565C77.1024 68.5661 77.1024 68.5757 77.1033 68.5852L77.0961 68.5637Z" fill="#EDF0F4"/>
<path d="M77.5477 67.7972L77.3447 67.5368L78.1066 65.6428L77.9132 67.6993C77.7837 67.7048 77.6574 67.7416 77.5454 67.8067L77.5477 67.7972Z" fill="#EDF0F4"/>
<path d="M77.0269 67.1331L71.9468 60.6605C72.0022 60.5882 72.0457 60.5076 72.0758 60.4216H77.9823C78.0709 60.6822 78.2814 60.883 78.546 60.959L78.2618 64.095L77.0269 67.1331Z" fill="#EDF0F4"/>
<path d="M78.4602 64.7685L79.781 61.4844C80.0275 61.5507 80.2884 61.5399 80.5285 61.4534L81.9162 63.8681L78.4219 67.84C78.3493 67.7903 78.2685 67.7539 78.1831 67.7325L78.4602 64.7685Z" fill="#EDF0F4"/>
<path d="M80.9248 61.2385C81.1889 61.0326 81.3662 60.7352 81.4216 60.405L84.7248 60.3906L84.806 60.5841L82.2289 63.5266L80.9248 61.2385Z" fill="#EDF0F4"/>
<path d="M84.9851 60.7727C85.0807 60.8556 85.1932 60.9168 85.3147 60.9518L85.5249 69.3113L82.3555 63.7654L84.9851 60.7727Z" fill="#EDF0F4"/>
<path d="M85.3148 59.3398C85.1924 59.3729 85.0795 59.4342 84.9852 59.5189L82.3579 56.5358L85.5297 50.9851L85.3148 59.3398Z" fill="#EDF0F4"/>
<path d="M85.1882 47.5099L82.1167 45.5037L84.787 46.4423L84.8013 46.471L85.2384 47.4598C85.224 47.4813 85.2049 47.4956 85.1906 47.5147L85.1882 47.5099Z" fill="#EDF0F4"/>
<path d="M85.0282 47.763C84.9639 47.9223 84.9514 48.0977 84.9923 48.2645L78.6487 51.2835C78.4742 51.0008 78.1444 50.8539 77.8175 50.9133L75.0732 43.0315L80.9631 45.0927L85.0282 47.763Z" fill="#EDF0F4"/>
<path d="M74.8942 42.5084L74.4165 41.1064C74.4976 41.0618 74.5716 41.0055 74.6362 40.9392L79.5086 44.1469L74.8942 42.5084Z" fill="#EDF0F4"/>
<path d="M74.2541 39.554C74.0334 39.4823 73.7924 39.5111 73.5949 39.6328L67.4399 32.0377C67.5111 31.9574 67.5677 31.8652 67.6071 31.7654L78.1162 33.2175C78.126 33.4357 78.2103 33.6439 78.355 33.8075L77.9896 34.3234L74.2541 39.554Z" fill="#EDF0F4"/>
<path d="M78.1687 32.8999L67.6596 31.4334C67.66 31.059 67.4333 30.7217 67.0864 30.5807L67.2226 30.0147L67.2751 29.8499L76.5899 32.0257L78.1806 32.8784L78.1687 32.8999Z" fill="#EDF0F4"/>
<path d="M67.1817 32.231L73.3582 39.8262C73.2931 39.9017 73.2422 39.9883 73.2077 40.0818L70.9268 39.6614L65.0513 33.2127L66.169 32.1689C66.4584 32.3988 66.8587 32.4291 67.1794 32.2454L67.1817 32.231Z" fill="#EDF0F4"/>
<path d="M66.7974 30.5234H66.7449C66.4635 30.5256 66.1989 30.6579 66.0283 30.8817L61.7817 28.5745L66.967 29.7878L66.7974 30.5234Z" fill="#EDF0F4"/>
<path d="M64.863 32.9908L63.5947 31.5959H65.8422C65.8625 31.7227 65.9088 31.8439 65.9784 31.9518L64.863 32.9908Z" fill="#EDF0F4"/>
<path d="M64.5764 33.2605L60.4731 37.1082C60.1942 36.8838 59.7966 36.8838 59.5177 37.1082L55.4072 33.2581L56.9119 31.5862H63.0741L64.5764 33.2605Z" fill="#EDF0F4"/>
<path d="M55.1179 32.9906L54.0049 31.9565C54.0744 31.8485 54.1208 31.7274 54.141 31.6006H56.3837L55.1179 32.9906Z" fill="#EDF0F4"/>
<path d="M53.2335 32.3625C53.4381 32.3607 53.6364 32.291 53.7972 32.1643L54.9149 33.208L49.0394 39.6568L46.7633 40.0771C46.7298 39.9832 46.6787 39.8964 46.6128 39.8216L52.7916 32.2383C52.927 32.3161 53.0798 32.3588 53.2359 32.3625H53.2335Z" fill="#EDF0F4"/>
<path d="M53.0093 29.7878L58.1993 28.5745L53.9551 30.8745C53.7845 30.6507 53.52 30.5185 53.2386 30.5162H53.1836L53.0093 29.7878Z" fill="#EDF0F4"/>
<path d="M52.3093 31.4405L41.8003 32.907V32.8736L43.391 32.0209L52.7058 29.8499L52.7464 30.0218L52.8826 30.5879C52.535 30.7303 52.309 31.0697 52.3117 31.4453L52.3093 31.4405Z" fill="#EDF0F4"/>
<path d="M41.8624 33.2295L52.3714 31.7773C52.4117 31.8767 52.4682 31.9687 52.5386 32.0496L46.3836 39.6424C46.1861 39.5207 45.9451 39.4919 45.7244 39.5636L42.0104 34.333L41.645 33.8171C41.784 33.6525 41.8616 33.4449 41.8648 33.2295H41.8624Z" fill="#EDF0F4"/>
<path d="M45.0869 42.5252L40.4653 44.1589L45.3544 40.9561C45.419 41.0223 45.4931 41.0787 45.5742 41.1232L45.0869 42.5252Z" fill="#EDF0F4"/>
<path d="M44.9076 43.0364L42.1633 50.9182C41.8365 50.8595 41.5071 51.0062 41.3321 51.2884L34.9885 48.2694C35.0033 48.2068 35.0113 48.1427 35.0123 48.0783C35.0119 47.972 34.9917 47.8667 34.9526 47.7678L39.0129 45.1047L44.9076 43.0364Z" fill="#EDF0F4"/>
<path d="M34.7928 47.5241L34.7427 47.4739L35.1798 46.4851L35.1941 46.4565L37.8643 45.5178L34.7928 47.5241Z" fill="#EDF0F4"/>
<path d="M34.8786 48.5369L41.2413 51.5224C41.2174 51.5998 41.2053 51.6803 41.2055 51.7613C41.2061 51.9536 41.2727 52.1399 41.3942 52.2891L37.9357 56.1966L34.4319 50.1013L34.4009 48.9071C34.6014 48.8436 34.7715 48.7084 34.8786 48.5273V48.5369Z" fill="#EDF0F4"/>
<path d="M34.3629 47.2257V47.2687C34.2977 47.2497 34.2301 47.24 34.1622 47.24C34.0676 47.2398 33.9737 47.2568 33.8852 47.2902V47.2735C33.8847 47.1549 33.8686 47.0368 33.8374 46.9224L34.6184 46.6477L34.3629 47.2257Z" fill="#EDF0F4"/>
<path d="M34.1238 49.5592L33.8491 49.0815L33.947 48.9023C33.9994 48.9167 34.053 48.9263 34.1071 48.931L34.1238 49.5592Z" fill="#EDF0F4"/>
<path d="M30.5413 58.7784C29.8718 58.7814 29.308 59.2798 29.2229 59.944H28.5351C28.5003 59.719 28.39 59.5126 28.2222 59.3588L31.382 53.5884L30.6225 58.7689C30.5971 58.7718 30.5715 58.7718 30.5461 58.7689L30.5413 58.7784Z" fill="#EDF0F4"/>
<path d="M31.3748 66.7223L28.2197 60.9423C28.3866 60.7878 28.4968 60.5818 28.5326 60.3572H29.2205C29.3023 61.0264 29.8695 61.53 30.5437 61.5323H30.6177L31.3748 66.7223Z" fill="#EDF0F4"/>
<path d="M32.0674 51.7159L32.5236 48.611H32.5642C32.7277 48.6089 32.8895 48.5774 33.0419 48.5178L33.4431 49.2176L32.0674 51.7159Z" fill="#EDF0F4"/>
<path d="M31.4968 52.7453L27.95 59.1941C27.919 59.1797 27.8879 59.1702 27.8545 59.1582L28.0933 56.8893L32.1059 48.5298L31.4968 52.7453Z" fill="#EDF0F4"/>
<path d="M27.9547 61.1143L31.5015 67.563L32.1225 71.7857L28.1099 63.4262L27.8711 61.1572C27.8946 61.1403 27.9203 61.1266 27.9475 61.1166L27.9547 61.1143Z" fill="#EDF0F4"/>
<path d="M32.0698 68.5947L33.4456 71.0954L33.0443 71.7952C32.8926 71.7334 32.7304 71.7018 32.5666 71.7021H32.526L32.0698 68.5947Z" fill="#EDF0F4"/>
<path d="M34.1287 70.7444L34.112 71.3749C34.0576 71.3773 34.0037 71.3869 33.9519 71.4036L33.854 71.2245L34.1287 70.7444Z" fill="#EDF0F4"/>
<path d="M33.8899 73.0372V73.0205C33.9791 73.0516 34.0726 73.0685 34.167 73.0707C34.235 73.0681 34.3024 73.0568 34.3676 73.0372V73.0802L34.6256 73.6487L33.8374 73.374C33.8691 73.2644 33.8868 73.1513 33.8899 73.0372Z" fill="#EDF0F4"/>
<path d="M34.4009 71.4084L34.4319 70.2141L37.9357 64.1189L41.3846 68.0216C41.2141 68.2354 41.1604 68.5198 41.2413 68.7811L34.8857 71.7833C34.7777 71.6062 34.6073 71.4758 34.408 71.4179L34.4009 71.4084Z" fill="#EDF0F4"/>
<path d="M34.7925 72.7983L37.864 74.8046L35.1985 73.866L35.1842 73.8373L34.7471 72.8413C34.7638 72.8246 34.7925 72.7983 34.7925 72.7983Z" fill="#EDF0F4"/>
<path d="M34.9502 72.5453C34.9888 72.4463 35.009 72.3411 35.0099 72.2348C35.0092 72.1704 35.0012 72.1063 34.986 72.0438L41.3344 69.02C41.5108 69.3006 41.8391 69.4468 42.1656 69.3902L44.9099 77.272L39.0224 75.206L34.9502 72.5453Z" fill="#EDF0F4"/>
<path d="M45.0841 77.7999L45.5618 79.2019C45.4797 79.2449 45.4054 79.3014 45.342 79.3691L40.4673 76.1423L45.0841 77.7999Z" fill="#EDF0F4"/>
<path d="M45.7318 80.759C45.9527 80.8282 46.1926 80.7995 46.391 80.6802L52.5459 88.2753C52.4746 88.3555 52.418 88.4477 52.3787 88.5476L41.8697 87.0955C41.862 86.8768 41.7774 86.6679 41.6309 86.5055L42.0011 85.9777L45.7318 80.759Z" fill="#EDF0F4"/>
<path d="M41.8169 87.3916L52.3259 88.8581C52.3269 89.2321 52.5532 89.5687 52.8992 89.7108L52.763 90.2768L52.7224 90.4488L43.4076 88.2729L41.8169 87.4107V87.3916Z" fill="#EDF0F4"/>
<path d="M52.8037 88.0628L46.6177 80.4843C46.6826 80.4088 46.7336 80.3222 46.7681 80.2288L49.0491 80.6491L54.9246 87.0979L53.8068 88.1273C53.5182 87.8955 53.1167 87.8651 52.7965 88.0508L52.8037 88.0628Z" fill="#EDF0F4"/>
<path d="M53.1979 89.7848H53.2505C53.5313 89.7804 53.795 89.6486 53.967 89.4265L58.1993 91.7266L53.0068 90.5156L53.1979 89.7848Z" fill="#EDF0F4"/>
<path d="M55.1322 87.3176L56.4004 88.7125H54.1386C54.1192 88.5855 54.0728 88.4641 54.0024 88.3566L55.1322 87.3176Z" fill="#EDF0F4"/>
<path d="M55.4189 87.0476L59.5246 83.1975C59.8045 83.4193 60.2002 83.4193 60.48 83.1975L64.5857 87.0476L63.081 88.7195H56.9189L55.4189 87.0476Z" fill="#EDF0F4"/>
<path d="M64.8774 87.3176L65.988 88.3614C65.9177 88.4689 65.8712 88.5902 65.8518 88.7172H63.5972L64.8774 87.3176Z" fill="#EDF0F4"/>
<path d="M66.7591 87.9434C66.554 87.943 66.3551 88.0129 66.1954 88.1416L65.0776 87.0979L70.9531 80.6491L73.2341 80.2288C73.2696 80.3218 73.3205 80.4081 73.3846 80.4843L67.2105 88.0723C67.0709 87.9873 66.9105 87.9427 66.7471 87.9434H66.7591Z" fill="#EDF0F4"/>
<path d="M66.9837 90.5181L61.7817 91.7314L66.0188 89.4314C66.1908 89.6535 66.4544 89.7853 66.7353 89.7897H66.7974L66.9837 90.5181Z" fill="#EDF0F4"/>
<path d="M67.6833 88.8654L78.1923 87.3989V87.4324L76.5897 88.285L67.2749 90.4609L67.2343 90.2889L67.0981 89.7229C67.4462 89.5807 67.673 89.2414 67.6714 88.8654H67.6833Z" fill="#EDF0F4"/>
<path d="M78.1328 87.0764L67.6237 88.5286C67.5854 88.4282 67.5287 88.3359 67.4565 88.2563L73.6115 80.6611C73.8099 80.7804 74.0498 80.8091 74.2707 80.74L77.9942 85.9778L78.3597 86.4937C78.2146 86.6542 78.1302 86.8603 78.1208 87.0764H78.1328Z" fill="#EDF0F4"/>
<path d="M74.9084 77.7808L79.5204 76.1423L74.6314 79.3428C74.568 79.2751 74.4937 79.2186 74.4116 79.1756L74.9084 77.7808Z" fill="#EDF0F4"/>
<path d="M75.0879 77.2696L77.8322 69.3878C78.1588 69.4451 78.4875 69.2987 78.6634 69.0176L85.0142 72.0389C84.9734 72.2058 84.9859 72.3812 85.05 72.5405L80.9897 75.2036L75.0879 77.2696Z" fill="#EDF0F4"/>
<path d="M85.1882 72.7983L85.2384 72.8485L84.8013 73.8373L84.787 73.866L82.1167 74.8046L85.1882 72.7983Z" fill="#EDF0F4"/>
<path d="M85.1024 71.7857L78.7564 68.7811C78.8372 68.516 78.7798 68.2282 78.6035 68.0144L82.05 64.1069L85.5538 70.2141L85.5849 71.4083C85.385 71.4691 85.2147 71.6018 85.1072 71.7809L85.1024 71.7857Z" fill="#EDF0F4"/>
<path d="M85.6204 73.0971V73.0374C85.686 73.054 85.7533 73.0636 85.821 73.066C85.9154 73.0639 86.0089 73.047 86.098 73.0159V73.0326C86.1005 73.1481 86.1174 73.2628 86.1482 73.3741L85.3672 73.6488L85.6204 73.0971Z" fill="#EDF0F4"/>
<path d="M85.8594 70.7634L86.134 71.2411L86.0361 71.4202C85.9843 71.4036 85.9305 71.3939 85.8761 71.3916L85.8594 70.7634Z" fill="#EDF0F4"/>
<path d="M87.9182 68.614L87.462 71.719H87.4214C87.2577 71.7189 87.0955 71.7505 86.9437 71.8121L86.5425 71.1123L87.9182 68.614Z" fill="#EDF0F4"/>
<path d="M88.4865 67.582L92.0333 61.1333C92.0643 61.1476 92.0954 61.1572 92.1288 61.1691L91.89 63.4381L87.8774 71.7976L88.4865 67.582Z" fill="#EDF0F4"/>
<path d="M92.0383 59.1844L88.4915 52.7357L87.8682 48.5154L91.8807 56.8748L92.1195 59.1438C92.0987 59.1673 92.0696 59.1819 92.0383 59.1844Z" fill="#EDF0F4"/>
<path d="M89.7934 45.0307L89.8172 45.0522L89.8579 45.1C89.6741 45.3507 89.6112 45.6701 89.6859 45.9718L88.5179 46.4853C88.2699 46.1304 87.8642 45.9191 87.4312 45.9192C87.3103 45.919 87.1901 45.9384 87.0753 45.9765L81.7778 36.2366L88.7496 43.5857L89.7934 45.0307Z" fill="#EDF0F4"/>
<path d="M84.7464 38.8926L81.1996 35.1666L80.5547 33.9724L84.7464 38.8926Z" fill="#EDF0F4"/>
<path d="M79.9339 33.5925L80.2253 34.149L79.8384 33.743C79.874 33.6954 79.906 33.6451 79.9339 33.5925V33.5925Z" fill="#EDF0F4"/>
<path d="M80.784 35.1857L86.6523 46.1725C86.5131 46.273 86.3947 46.3995 86.3036 46.545L85.6229 46.3062L85.1452 46.1342L79.6519 33.9724L80.784 35.1857Z" fill="#EDF0F4"/>
<path d="M79.0668 34.1491C79.1601 34.1472 79.2526 34.132 79.3415 34.1037L84.565 45.936H84.5315L80.6718 44.5722L74.7844 40.7268C74.9275 40.4102 74.861 40.0381 74.6172 39.7906L78.6775 34.0583C78.7994 34.1157 78.9321 34.1466 79.0668 34.1491Z" fill="#EDF0F4"/>
<path d="M78.4768 32.4772C78.4238 32.5186 78.3758 32.5659 78.3335 32.6182L77.7603 32.3101L78.4768 32.4772Z" fill="#EDF0F4"/>
<path d="M77.7198 31.9301L76.5471 31.6555L73.8481 30.2009L77.7198 31.9301Z" fill="#EDF0F4"/>
<path d="M67.6765 28.178C68.0205 28.2332 68.3683 28.1045 68.5936 27.8389L69.7879 28.3739L75.36 31.3666L67.3564 29.4917L67.6765 28.178Z" fill="#EDF0F4"/>
<path d="M66.7642 27.3945C66.8264 27.6142 66.9559 27.8088 67.1345 27.951L67.2013 28.0107H67.2204C67.2653 28.0385 67.3115 28.064 67.359 28.0872L67.0532 29.4151L62.3122 28.3117L61.1777 28.0107V27.9749L66.7642 27.3945Z" fill="#EDF0F4"/>
<path d="M63.6088 27.2895L61.1249 27.5045C61.1012 27.4314 61.07 27.3609 61.0317 27.2943L63.6088 27.2895Z" fill="#EDF0F4"/>
<path d="M61.0081 28.5171L65.8781 31.1444C65.8613 31.1891 65.8493 31.2356 65.8423 31.2829H63.3201L60.9126 28.6556C60.9473 28.6156 60.9792 28.5733 61.0081 28.529V28.5171Z" fill="#EDF0F4"/>
<path d="M59.3528 28.8945C59.7419 29.148 60.2439 29.148 60.633 28.8945L62.7993 31.2829H57.1865L59.3528 28.8945Z" fill="#EDF0F4"/>
<path d="M59.0733 28.6558L56.6658 31.2831H54.1389C54.132 31.2349 54.12 31.1877 54.103 31.1422L58.973 28.5149C59.0019 28.5578 59.033 28.5993 59.0662 28.6391L59.0733 28.6558Z" fill="#EDF0F4"/>
<path d="M58.9565 27.3038C58.9182 27.3705 58.887 27.4409 58.8633 27.514L56.3794 27.2991L58.9565 27.3038Z" fill="#EDF0F4"/>
<path d="M52.7678 28.0203H52.7869L52.8538 27.9606C53.0324 27.8183 53.1618 27.6237 53.224 27.4041L58.8057 27.9821V28.0179L57.6712 28.3188L52.9302 29.4199L52.6245 28.0919C52.6704 28.0696 52.715 28.0449 52.7583 28.0179L52.7678 28.0203Z" fill="#EDF0F4"/>
<path d="M51.3947 27.8435C51.6211 28.1074 51.9687 28.2342 52.3119 28.1779L52.6271 29.4915L44.6235 31.3616L50.1957 28.3737L51.3947 27.8435Z" fill="#EDF0F4"/>
<path d="M46.1402 30.1914L43.4437 31.6436L42.271 31.9182L46.1402 30.1914Z" fill="#EDF0F4"/>
<path d="M42.2278 32.2932L41.6545 32.6013C41.6123 32.5491 41.5642 32.5018 41.5112 32.4604L42.2278 32.2932Z" fill="#EDF0F4"/>
<path d="M40.9214 34.1492C41.0575 34.1475 41.1917 34.1174 41.3155 34.0608L45.3758 39.793C45.1319 40.0405 45.0655 40.4126 45.2086 40.7293L39.3116 44.5674L35.4519 45.9312H35.4185L40.6443 34.1062C40.7332 34.1344 40.8257 34.1497 40.919 34.1516L40.9214 34.1492Z" fill="#EDF0F4"/>
<path d="M40.0593 33.5901C40.0846 33.6441 40.1141 33.696 40.1477 33.7453L39.7607 34.149L40.0593 33.5901Z" fill="#EDF0F4"/>
<path d="M40.3383 33.9819L34.845 46.1438L34.3673 46.3157L33.6866 46.5546C33.5955 46.409 33.4771 46.2825 33.3379 46.182L39.2062 35.1953L40.3383 33.9819Z" fill="#EDF0F4"/>
<path d="M39.4212 33.9819L38.7763 35.1761L35.2295 38.8997L39.4212 33.9819Z" fill="#EDF0F4"/>
<path d="M30.1064 45.0164L30.1303 44.9949L31.2218 43.5881L38.1936 36.2366L32.8985 45.9837C32.7837 45.9456 32.6635 45.9262 32.5426 45.9264C32.1071 45.9239 31.6982 46.1355 31.4487 46.4924L30.2545 45.9383C30.273 45.86 30.2834 45.78 30.2855 45.6995C30.2856 45.4747 30.2145 45.2557 30.0825 45.0737L30.1064 45.0164Z" fill="#EDF0F4"/>
<path d="M29.2995 46.7647C29.6413 46.7376 29.9503 46.5508 30.1331 46.2607L31.3129 46.8268C31.1168 47.3645 31.2963 47.9673 31.7548 48.31L28.2295 55.6854L29.2995 46.7647Z" fill="#EDF0F4"/>
<path d="M28.5088 49.8171L27.7923 56.6194L26.7915 58.7188L28.5088 49.8171Z" fill="#EDF0F4"/>
<path d="M27.6585 57.7944L27.5224 59.0818C27.4224 59.0809 27.3231 59.0971 27.2286 59.1296C27.1818 59.0842 27.1315 59.0427 27.0781 59.0054L27.6585 57.7944Z" fill="#EDF0F4"/>
<path d="M27.2285 61.1526C27.3236 61.1828 27.4226 61.1989 27.5223 61.2004L27.6585 62.4877L27.0757 61.2816C27.1279 61.2452 27.1781 61.2062 27.2262 61.1645L27.2285 61.1526Z" fill="#EDF0F4"/>
<path d="M26.7817 61.5657L27.7825 63.6651L28.499 70.4673L26.7817 61.5657Z" fill="#EDF0F4"/>
<path d="M29.2995 73.5078L28.2271 64.6157L31.7404 71.9864C31.282 72.3291 31.1024 72.9319 31.2986 73.4696L30.1306 74.0094C29.9486 73.7211 29.6397 73.5373 29.2995 73.515V73.5078Z" fill="#EDF0F4"/>
<path d="M30.1592 75.2825L30.1353 75.261L30.0947 75.2132C30.2261 75.031 30.2971 74.8121 30.2977 74.5874C30.296 74.5069 30.2855 74.4269 30.2667 74.3486L31.4609 73.8184C31.7103 74.1716 32.1152 74.3825 32.5476 74.3844C32.6684 74.3823 32.7882 74.363 32.9035 74.3271L38.1986 84.0742L31.2268 76.7322L30.1592 75.2825Z" fill="#EDF0F4"/>
<path d="M35.2393 81.4062L38.7861 85.1322L39.4309 86.3264L35.2393 81.4062Z" fill="#EDF0F4"/>
<path d="M40.0471 86.7183L39.7485 86.157L40.1355 86.563C40.1005 86.6097 40.0708 86.6602 40.0471 86.7135V86.7183Z" fill="#EDF0F4"/>
<path d="M39.197 85.1252L33.3286 74.1385C33.4667 74.0367 33.5849 73.9104 33.6773 73.7659L34.358 74.0047L34.8357 74.1767L40.3291 86.3385L39.197 85.1252Z" fill="#EDF0F4"/>
<path d="M40.9119 86.1592C40.8184 86.1587 40.7255 86.174 40.6372 86.2045L35.4209 74.3723H35.4543L39.314 75.7361L45.2015 79.5815C45.0584 79.8981 45.1248 80.2702 45.3687 80.5177L41.3084 86.2499C41.1872 86.1898 41.0543 86.1571 40.919 86.1544L40.9119 86.1592Z" fill="#EDF0F4"/>
<path d="M41.5015 87.8455C41.5533 87.8028 41.6012 87.7557 41.6448 87.7046L42.218 88.0127L41.5015 87.8455Z" fill="#EDF0F4"/>
<path d="M42.2588 88.3923L43.4315 88.667L46.1304 90.1215L42.2588 88.3923Z" fill="#EDF0F4"/>
<path d="M52.3024 92.1326C51.9582 92.0755 51.6094 92.2045 51.3852 92.4718L50.191 91.9368L44.626 88.9441L52.6296 90.819L52.3024 92.1326Z" fill="#EDF0F4"/>
<path d="M53.2143 92.9161C53.1534 92.6959 53.0237 92.5009 52.8441 92.3596L52.7773 92.2999H52.7582C52.7147 92.2698 52.6683 92.2442 52.6196 92.2235L52.9253 90.8955L57.6664 92.0061L58.8009 92.3071V92.3429L53.2143 92.9161Z" fill="#EDF0F4"/>
<path d="M56.3696 93.0211L58.8536 92.8061C58.8777 92.8791 58.9089 92.9495 58.9467 93.0163L56.3696 93.0211Z" fill="#EDF0F4"/>
<path d="M58.9608 91.7865L54.0908 89.1592C54.1072 89.1135 54.1192 89.0663 54.1266 89.0183H56.6464L59.0659 91.6671C59.0303 91.7043 58.9975 91.7443 58.968 91.7865H58.9608Z" fill="#EDF0F4"/>
<path d="M60.6164 91.4043C60.2279 91.149 59.7248 91.149 59.3362 91.4043L57.1699 89.0159H62.7827L60.6164 91.4043Z" fill="#EDF0F4"/>
<path d="M60.8955 91.6574L63.303 89.0134H65.8419C65.8493 89.0614 65.8613 89.1086 65.8777 89.1543L61.0078 91.7816C60.9826 91.7415 60.9547 91.7032 60.9242 91.667L60.8955 91.6574Z" fill="#EDF0F4"/>
<path d="M61.0127 93.0092C61.0505 92.9424 61.0817 92.872 61.1058 92.7991L63.5898 93.014L61.0127 93.0092Z" fill="#EDF0F4"/>
<path d="M67.201 92.2927H67.1819L67.115 92.3524C66.9355 92.4937 66.8058 92.6887 66.7448 92.9089L61.1631 92.3309V92.2951L62.2976 91.9942L67.0362 90.8835L67.3419 92.2115C67.2963 92.2338 67.2524 92.2593 67.2106 92.2879L67.201 92.2927Z" fill="#EDF0F4"/>
<path d="M68.5742 92.4693C68.35 92.2021 68.0013 92.0731 67.6571 92.1302L67.3418 90.8166L75.3454 88.9417L69.7828 91.9296L68.5742 92.4693Z" fill="#EDF0F4"/>
<path d="M73.8291 90.1215L76.528 88.667L77.7007 88.3923L73.8291 90.1215Z" fill="#EDF0F4"/>
<path d="M77.7412 88.0103L78.3144 87.7021C78.358 87.7532 78.4059 87.8004 78.4577 87.8431L77.7412 88.0103Z" fill="#EDF0F4"/>
<path d="M79.0477 86.1568C78.9113 86.1562 78.7766 86.1864 78.6536 86.2452L74.5933 80.513C74.8371 80.2654 74.9036 79.8934 74.7605 79.5767L80.6503 75.7314L84.5195 74.3748H84.553L79.3367 86.1998C79.248 86.1705 79.1554 86.1552 79.062 86.1544L79.0477 86.1568Z" fill="#EDF0F4"/>
<path d="M79.9097 86.7158C79.8854 86.6613 79.8558 86.6093 79.8213 86.5606L80.2082 86.1545L79.9097 86.7158Z" fill="#EDF0F4"/>
<path d="M79.6162 86.3265L85.1096 74.1647L85.5873 73.9927L86.268 73.7539C86.3603 73.8985 86.4785 74.0248 86.6167 74.1265L80.7483 85.1132L79.6162 86.3265Z" fill="#EDF0F4"/>
<path d="M80.5332 86.3264L81.1781 85.1322L84.7249 81.4062L80.5332 86.3264Z" fill="#EDF0F4"/>
<path d="M89.7958 75.3205L89.7719 75.342L88.7234 76.7201L81.7778 84.0669L87.073 74.3198C87.1883 74.3556 87.3081 74.3749 87.4288 74.3771C87.8613 74.3752 88.2661 74.1643 88.5156 73.811L89.6859 74.3962C89.6115 74.6979 89.6745 75.0171 89.8579 75.268L89.7958 75.3205Z" fill="#EDF0F4"/>
<path d="M90.634 73.5723C90.2915 73.5971 89.9816 73.7845 89.8004 74.0762L88.6635 73.4815C88.8597 72.9438 88.6801 72.341 88.2217 71.9983L91.735 64.6252L90.634 73.5723Z" fill="#EDF0F4"/>
<path d="M91.4556 70.4888L92.1721 63.6866L93.1728 61.5872L91.4556 70.4888Z" fill="#EDF0F4"/>
<path d="M92.4442 61.217C92.544 61.2155 92.643 61.1994 92.738 61.1692C92.786 61.2132 92.8362 61.2546 92.8885 61.2934L92.3081 62.5067L92.4442 61.217Z" fill="#EDF0F4"/>
<path d="M92.3081 57.8088L92.8885 59.0222C92.8351 59.0595 92.7848 59.101 92.738 59.1464C92.6435 59.1139 92.5442 59.0977 92.4442 59.0986L92.3081 57.8088Z" fill="#EDF0F4"/>
<path d="M92.1814 56.6264L91.4648 49.8242L93.1917 58.7259L92.1814 56.6264Z" fill="#EDF0F4"/>
</svg>
