<svg width="120" height="120" viewBox="0 0 120 120" fill="none" xmlns="http://www.w3.org/2000/svg">
<g clip-path="url(#clip0_421_423)">
<path d="M60 0C26.8667 0 0 26.8667 0 60C0 63.5867 0.333333 67.0933 0.933333 70.5H14.2567C15.96 70.5 16.98 69.9467 17.64 68.88L22.32 61.1267L28.3067 79.7167C28.8967 81.5867 30.2867 82.56 32.16 82.5733C34.08 82.5833 35.6633 81.4067 36.0367 79.4867L40.38 59.0167L45.1067 91.6567C45.3967 93.8033 46.44 94.8833 48.6 94.8833H48.6233C50.7733 94.8833 51.8033 93.72 52.1033 91.5833L61.74 28.0567C61.8702 27.1101 61.6198 26.1505 61.0437 25.3882C60.4676 24.6259 59.6128 24.1231 58.6667 23.99C57.7212 23.8634 56.7639 24.1147 56.0026 24.6894C55.2412 25.2642 54.7372 26.116 54.6 27.06L48.66 67.7867L44.6633 40.6067C44.4 38.52 42.8167 37.2233 41.0867 37.1867C39.1333 37.14 37.68 38.3633 37.2733 40.44L31.5333 67.0333L26.95 52.7667C26.7609 52.0145 26.3492 51.3369 25.7688 50.8224C25.1883 50.308 24.4661 49.9807 23.6967 49.8833C21.61 49.6333 20.42 50.7133 19.5433 52.14L12.4567 63.3H8.22C8.14384 62.2016 8.10382 61.101 8.1 60C8.1 31.3333 31.3333 8.1 60 8.1C83.1133 8.1 102.697 23.22 109.403 44.1H117.853C110.88 18.6833 87.6333 0 60 0Z" fill="url(#paint0_linear_421_423)"/>
<path d="M119.067 49.5H105.72C104.017 49.5 102.997 50.0534 102.337 51.12L97.6567 58.8734L91.6667 40.2834C91.08 38.4134 89.6867 37.44 87.8167 37.4267C85.8967 37.4167 84.3133 38.5934 83.94 40.5134L79.5967 60.9834L74.8667 28.3434C74.58 26.1967 73.5333 25.1167 71.3767 25.1167H71.3533C69.2033 25.1167 68.1733 26.28 67.8733 28.4167L58.2333 91.9434C57.9567 93.91 59.3367 95.7367 61.3033 96.01C62.2488 96.1367 63.2061 95.8854 63.9675 95.3106C64.7288 94.7358 65.2328 93.884 65.37 92.94L71.3133 52.2134L75.31 79.3934C75.5733 81.48 77.1567 82.7767 78.8833 82.8134C80.84 82.86 82.2933 81.6367 82.7 79.56L88.4367 52.9667L93.02 67.2334C93.38 68.7834 94.76 69.9334 96.2733 70.1167C98.36 70.3667 99.55 69.2867 100.423 67.86L107.517 56.7H111.777C111.85 57.7934 111.897 58.8967 111.897 60C111.897 88.6667 88.6633 111.9 59.9967 111.9C36.8833 111.9 17.3 96.78 10.5933 75.9H2.14667C9.12 101.317 32.3767 120 60 120C93.1333 120 120 93.1334 120 60C120 56.4134 119.667 52.9067 119.067 49.5Z" fill="url(#paint1_linear_421_423)"/>
</g>
<defs>
<linearGradient id="paint0_linear_421_423" x1="0" y1="0" x2="120" y2="120" gradientUnits="userSpaceOnUse">
<stop stop-color="#FC829F"/>
<stop offset="0.337" stop-color="#FF1C53"/>
<stop offset="0.436" stop-color="#EA49F8"/>
<stop offset="0.53" stop-color="#B250FF"/>
<stop offset="0.634" stop-color="#5E5FF5"/>
<stop offset="1" stop-color="#323CFF"/>
</linearGradient>
<linearGradient id="paint1_linear_421_423" x1="-1.86511e-06" y1="3.49669e-05" x2="120" y2="120" gradientUnits="userSpaceOnUse">
<stop stop-color="#FC829F"/>
<stop offset="0.337" stop-color="#FF1C53"/>
<stop offset="0.436" stop-color="#EA49F8"/>
<stop offset="0.53" stop-color="#B250FF"/>
<stop offset="0.634" stop-color="#5E5FF5"/>
<stop offset="1" stop-color="#323CFF"/>
</linearGradient>
<clipPath id="clip0_421_423">
<rect width="120" height="120" fill="white"/>
</clipPath>
</defs>
</svg>
