<svg width="120" height="120" viewBox="0 0 120 120" fill="none" xmlns="http://www.w3.org/2000/svg">
<circle cx="60" cy="60" r="60" fill="#EDF0F4"/>
<path d="M73.3713 54.3428V58.7999H85.7142C85.5428 57.5999 85.5428 55.5428 85.0285 54.3428H73.3713Z" fill="#40506B"/>
<path d="M85.7143 61.7141H71.1428V66.1713H85.0285C85.5428 64.7998 85.5428 62.9141 85.7143 61.7141Z" fill="#40506B"/>
<path d="M33.9428 65.9999H47.8285V61.5427H33.2571C33.4285 62.9142 33.4285 64.7999 33.9428 65.9999Z" fill="#40506B"/>
<path d="M33.9428 54.3428C33.7714 55.5428 33.4285 57.4285 33.2571 58.7999H45.5999V54.3428H33.9428Z" fill="#40506B"/>
<path d="M59.3143 59.4856C58.6286 62.057 57.7715 64.6285 57.0858 67.1999C56.4001 69.7713 55.5429 72.3427 54.6858 74.9142H48.6858C48.0001 73.3713 47.3143 71.8285 46.6286 69.7713C45.9429 67.8856 45.0858 65.657 44.4001 63.257C43.7143 61.0285 42.8572 58.457 42.0001 55.7142C41.1429 52.9713 40.4572 50.5713 39.7715 47.657H47.8286C48.0001 48.857 48.5143 50.2285 48.6858 51.5999C49.0286 53.1427 49.3715 54.5142 49.7143 56.057C50.0572 57.5999 50.4001 59.1427 50.7429 60.6856C51.0858 62.2285 51.6001 63.7713 51.9429 65.1427C52.4572 63.5999 52.8001 62.057 53.3143 60.5142C53.8286 58.9713 54.1715 57.4285 54.5143 55.8856C54.8572 54.3427 55.2001 52.7999 55.5429 51.4285C55.8858 49.8856 56.2286 48.6856 56.5715 47.4856H62.2286C62.4001 48.6856 62.9143 50.057 63.2572 51.4285C63.6001 52.9713 63.9429 54.3427 64.2858 55.8856C64.6286 57.4285 64.9715 58.9713 65.4858 60.5142C65.8286 62.057 66.3429 63.5999 66.8572 65.1427C67.2001 63.5999 67.7143 62.2285 68.0572 60.6856C68.4001 59.1427 68.9143 57.5999 69.2572 56.057C69.6001 54.5142 69.9429 52.9713 70.2858 51.5999C70.6286 50.057 70.9715 48.857 71.1429 47.657H79.2001C78.5143 50.3999 77.6572 52.9713 76.9715 55.7142C76.1143 58.457 75.4286 60.857 74.5715 63.257C73.8858 65.4856 73.0286 67.7142 72.3429 69.7713C71.6572 71.657 70.9715 73.5427 70.2858 74.9142H64.2858C63.4286 72.3427 62.5715 69.7713 61.7143 67.1999C60.8572 64.6285 60.1715 62.2285 59.3143 59.4856Z" fill="#40506B"/>
<path fill-rule="evenodd" clip-rule="evenodd" d="M24 60C24 79.8857 40.1143 96 60 96C79.8857 96 96 79.8857 96 60C96 40.1143 79.8857 24 60 24C40.1143 24 24 40.1143 24 60ZM29.1429 60C29.1429 43.0286 43.0286 29.1429 60 29.1429C76.9714 29.1429 90.8571 43.0286 90.8571 60C90.8571 76.9714 76.9714 90.8571 60 90.8571C43.0286 90.8571 29.1429 76.9714 29.1429 60Z" fill="#40506B"/>
</svg>
