<svg width="120" height="130" viewBox="0 0 120 130" fill="none" xmlns="http://www.w3.org/2000/svg">
<path d="M115.2 28.9215L64.4308 1.14268C63.0743 0.393156 61.5498 0 60 0C58.4502 0 56.9257 0.393156 55.5692 1.14268L4.8 28.9331C3.35013 29.7264 2.13983 30.8944 1.29549 32.3151C0.451155 33.7359 0.00375149 35.3573 0 37.01V92.1869C0.00375149 93.8396 0.451155 95.461 1.29549 96.8818C2.13983 98.3025 3.35013 99.4705 4.8 100.264L55.5692 128.054C56.9257 128.804 58.4502 129.197 60 129.197C61.5498 129.197 63.0743 128.804 64.4308 128.054L115.2 100.264C116.65 99.4705 117.86 98.3025 118.705 96.8818C119.549 95.461 119.996 93.8396 120 92.1869V37.0158C119.999 35.3601 119.553 33.7351 118.709 32.311C117.864 30.887 116.652 29.7162 115.2 28.9215ZM60 9.2196L106.35 34.6042L60 59.9888L13.65 34.6042L60 9.2196ZM9.23077 42.6811L55.3846 67.9388V117.433L9.23077 92.1927V42.6811ZM64.6154 117.433V67.9619L110.769 42.6811V92.1696L64.6154 117.433Z" fill="#CCCCCC"/>
</svg>
