<svg width="120" height="120" viewBox="0 0 120 120" fill="none" xmlns="http://www.w3.org/2000/svg">
<path fill-rule="evenodd" clip-rule="evenodd" d="M81.4291 0H38.5709C17.1433 0 0 17.0351 0 38.3269V80.9188C0 102.208 17.1433 119.243 38.5737 119.243H81.4291C102.857 119.243 120 102.208 120 80.916V38.3241C120 17.0351 102.857 0 81.4291 0Z" fill="url(#paint0_linear_495_569)"/>
<path fill-rule="evenodd" clip-rule="evenodd" d="M27.7359 53.4819C23.8259 57.3642 22.2452 62.9687 23.5874 68.1848C24.9295 73.401 28.9894 77.4359 34.236 78.767C39.4855 80.1008 45.126 78.5285 49.0333 74.6461L75.1197 48.7261C78.8052 45.0656 84.6952 44.9879 88.2808 48.5513C91.8664 52.1148 91.7916 57.9715 88.1061 61.632L79.7009 69.9846L74.9423 65.2565L71.7227 82.042L88.6164 78.8446L83.8578 74.1137L92.263 65.7612C96.1703 61.8788 97.7537 56.2744 96.4088 51.0582C95.0694 45.842 91.0096 41.8072 85.7601 40.4761C80.5106 39.1422 74.8702 40.7146 70.9629 44.5969L44.8792 70.517C41.1937 74.1775 35.3009 74.2551 31.7153 70.6917C28.1297 67.1283 28.2073 61.2715 31.89 57.611L39.5992 49.9518L44.3578 54.6799L47.5718 37.8999L30.6837 41.0945L35.4423 45.8226L27.7359 53.4819Z" fill="white"/>
<defs>
<linearGradient id="paint0_linear_495_569" x1="12000" y1="74.8843" x2="74.9898" y2="11924.9" gradientUnits="userSpaceOnUse">
<stop stop-color="#5F6BFB"/>
<stop offset="1" stop-color="#724DE4"/>
</linearGradient>
</defs>
</svg>
