<svg width="120" height="120" viewBox="0 0 120 120" fill="none" xmlns="http://www.w3.org/2000/svg">
<path d="M0 60C0 26.8629 26.8629 0 60 0V0C93.1371 0 120 26.8629 120 60V60C120 93.1371 93.1371 120 60 120V120C26.8629 120 0 93.1371 0 60V60Z" fill="black"/>
<path d="M89.1523 36.3251V33H79.6355C75.7944 33 72.2973 34.4333 69.6028 36.7265C66.9083 34.4333 63.4111 33 59.57 33H49.9959V36.3251C46.4414 39.1343 44.2056 43.4914 44.2056 48.3644C44.2056 53.1228 46.3841 57.4226 49.8239 60.2318L25 82.8771C31.077 85.6863 38.1286 87.2915 45.6961 87.2915C52.4611 87.2915 58.8247 85.973 64.4431 83.6797H76.1957V76.6282C80.8395 72.6151 84.3366 67.6847 86.2285 62.2383C91.3882 59.7731 95 54.4988 95 48.3644C94.9427 43.4914 92.7068 39.1343 89.1523 36.3251ZM79.6355 60.1171C76.8264 60.1171 74.2465 59.1425 72.24 57.4799L69.6028 63.4422L66.9656 57.5373C64.959 59.1425 62.3792 60.1171 59.57 60.1171C53.0344 60.1171 47.76 54.8427 47.76 48.3071C47.76 41.7715 53.0344 36.4971 59.57 36.4971C63.8124 36.4971 67.5389 38.733 69.6028 42.0581C71.6667 38.733 75.3931 36.4971 79.6355 36.4971C86.1712 36.4971 91.4455 41.7715 91.4455 48.3071C91.3882 54.8427 86.1138 60.1171 79.6355 60.1171Z" fill="#F8F8FB"/>
<path d="M59.3224 40.6667C54.736 40.6667 51.0669 44.3932 51.0669 48.9223C51.0669 53.4513 54.7933 57.1778 59.3224 57.1778C63.9088 57.1778 67.5779 53.4513 67.5779 48.9223C67.5779 44.3932 63.8515 40.6667 59.3224 40.6667ZM59.3224 53.6233C56.7426 53.6233 54.6214 51.5021 54.6214 48.9223C54.6214 46.3424 56.7426 44.2212 59.3224 44.2212C61.9023 44.2212 64.0235 46.3424 64.0235 48.9223C64.0235 51.5021 61.9023 53.6233 59.3224 53.6233ZM79.3879 40.6667C74.8015 40.6667 71.1324 44.3932 71.1324 48.9223C71.1324 53.4513 74.8589 57.1778 79.3879 57.1778C83.9743 57.1778 87.6435 53.4513 87.6435 48.9223C87.6435 44.3932 83.917 40.6667 79.3879 40.6667ZM79.3879 53.6233C76.8081 53.6233 74.6869 51.5021 74.6869 48.9223C74.6869 46.3424 76.8081 44.2212 79.3879 44.2212C81.9678 44.2212 84.089 46.3424 84.089 48.9223C84.089 51.5021 81.9678 53.6233 79.3879 53.6233Z" fill="#F8F8FB"/>
</svg>
