<svg width="120" height="120" viewBox="0 0 120 120" fill="none" xmlns="http://www.w3.org/2000/svg">
<path fill-rule="evenodd" clip-rule="evenodd" d="M40.4994 3.24996C46.7493 1.24998 53.2492 0 60.2491 0C93.4986 0 120.248 26.7496 119.998 59.9991C119.998 92.9987 92.9987 119.998 59.9991 119.998C26.9996 119.998 0 93.2487 0 59.9991C0 44.1721 6.13469 29.9808 15.9998 19.2751V62.2491C16.4998 86.4988 35.9995 105.748 60.2491 105.748C84.7488 105.748 104.498 85.9988 104.498 61.4991C104.498 36.9995 84.7488 17.2498 60.2491 17.2498H50.2493V24.2497H60.9991C81.4988 24.4996 97.7486 41.2494 97.7486 61.4991C97.7486 81.9988 80.9988 98.7486 60.4991 98.7486C39.9994 98.7486 23.2497 81.9988 23.2497 61.4991V12.7498C26.4996 10.2499 29.9996 7.99989 33.7495 6.24991V61.7491C33.9995 76.4989 45.7493 88.2487 60.4991 88.2487C75.2489 88.2487 87.2487 76.2489 87.2487 61.4991C87.2487 46.7493 75.2489 34.7495 60.4991 34.7495H50.4993V41.7494H60.9991C71.749 41.9994 80.4988 50.9993 80.4988 61.7491C80.4988 72.749 71.499 81.7488 60.4991 81.7488C49.4993 81.7488 40.4994 72.749 40.4994 61.7491V3.24996ZM15.9998 19.2751C17.0424 18.1437 18.1266 17.0512 19.2497 15.9998C18.4054 16.6752 17.6752 17.4647 16.982 18.2142C16.6489 18.5743 16.3243 18.9252 15.9998 19.2497V19.2751ZM60.2491 50.9993H50.2493V61.2491C50.2493 66.499 54.7492 70.999 60.2491 70.999C65.749 70.999 70.249 66.499 70.249 60.9991C70.249 55.4992 65.749 50.9993 60.2491 50.9993Z" fill="black"/>
</svg>
