<svg width="120" height="120" viewBox="0 0 120 120" fill="none" xmlns="http://www.w3.org/2000/svg">
<rect width="120" height="120" rx="60" fill="#EDF0F4"/>
<path d="M62.9665 59.9994L37 85.9637L44.0834 93.0449C45.3354 94.2969 47.0335 95.0002 48.8042 95.0002C50.5748 95.0002 52.2729 94.2969 53.5249 93.0449L81.8497 64.7202C83.1016 63.4681 83.805 61.77 83.805 59.9994C83.805 58.2288 83.1016 56.5307 81.8497 55.2786L65.3269 38.7559L53.5249 50.5578L62.9665 59.9994Z" fill="#31007A"/>
<path d="M37.002 34.0321L44.0831 26.9553C45.3352 25.7033 47.0333 25 48.8039 25C50.5745 25 52.2726 25.7033 53.5247 26.9553L60.6059 34.0365L48.8017 45.8363L37.002 34.0321Z" fill="#8700B8"/>
</svg>
