<svg width="120" height="120" viewBox="0 0 120 120" fill="none" xmlns="http://www.w3.org/2000/svg">
<rect width="120" height="120" rx="60" fill="#EDF0F4"/>
<g clip-path="url(#clip0_495_598)">
<path opacity="0.6" d="M34.3438 39.1039C34.3438 36.4749 36.4749 34.3438 39.1039 34.3438H80.1601C82.7891 34.3438 84.9203 36.4749 84.9203 39.1039V80.1601C84.9203 82.7891 82.7891 84.9203 80.1601 84.9203H39.1039C36.4749 84.9203 34.3438 82.7891 34.3438 80.1601V39.1039Z" fill="#FF0093"/>
<path opacity="0.5" d="M43.687 48.4466C43.687 45.8177 45.8182 43.6865 48.4471 43.6865H89.5034C92.1323 43.6865 94.2635 45.8177 94.2635 48.4466V89.5029C94.2635 92.1318 92.1323 94.263 89.5034 94.263H48.4471C45.8182 94.263 43.687 92.1318 43.687 89.5029V48.4466Z" fill="#FF0093"/>
<path opacity="0.9" d="M25 29.7601C25 27.1312 27.1312 25 29.7601 25H70.8164C73.4454 25 75.5765 27.1312 75.5765 29.7601V70.8164C75.5765 73.4454 73.4454 75.5765 70.8164 75.5765H29.7601C27.1312 75.5765 25 73.4454 25 70.8164V29.7601Z" fill="#FF0093"/>
</g>
<defs>
<clipPath id="clip0_495_598">
<rect width="70" height="70" fill="white" transform="translate(25 25)"/>
</clipPath>
</defs>
</svg>
