<svg width="120" height="120" viewBox="0 0 120 120" fill="none" xmlns="http://www.w3.org/2000/svg">
<rect width="120" height="120" rx="60" fill="#EDF0F4"/>
<path d="M57.1295 72.4571L36.3861 77.2594C35.6295 77.4488 35.062 78.207 35.062 78.9652V93.2452C35.062 94.446 36.0078 95.2041 37.2057 94.9513L66.1455 88.2536C67.3436 88.0009 67.8481 86.8636 67.3436 85.7893L62.1105 74.9846C61.2908 73.2786 62.1105 71.5093 63.9388 71.1302L82.8539 66.5809C84.178 66.265 85.3129 64.8748 85.3129 63.4847V50.2789C85.3129 49.0784 84.367 48.257 83.1692 48.5729L55.8684 55.0811C54.1661 55.4602 53.4095 57.103 54.1661 58.6826L58.9578 68.6028C59.7775 70.3088 58.9578 72.0148 57.1295 72.4571Z" fill="black"/>
<path d="M43.4487 36.7574L48.871 47.878C49.5646 49.3314 48.871 50.8478 47.2947 51.1639L37.2698 53.5017C36.0088 53.8175 35 55.0813 35 56.345V68.2872C35 70.3092 36.6393 71.5729 38.5939 71.1306L47.9253 68.9822C49.1862 68.7296 50.1951 67.4026 50.1951 66.1389L50.2581 53.8808C50.2581 52.1747 51.6452 50.4687 53.2845 50.0896L83.8636 42.7601C84.6203 42.5705 85.1877 41.8123 85.1877 41.054V26.774C85.1877 25.5735 84.2421 24.7521 83.044 25.068L44.6466 34.2932C43.4487 34.5459 42.9443 35.6832 43.4487 36.7574Z" fill="black"/>
</svg>
