<svg width="121" height="121" viewBox="0 0 121 121" fill="none" xmlns="http://www.w3.org/2000/svg">
<path d="M53.7993 0.968272C49.4274 1.48084 45.4475 2.32506 41.5882 3.56124C38.3319 4.61652 32.5128 7.20947 30.2817 8.59641C29.4676 9.10897 28.1711 9.89289 27.4174 10.3452C23.1963 12.908 16.4726 19.0587 12.8847 23.7321C6.16107 32.4457 1.87967 42.8778 0.583185 53.5813C0.161074 57.1391 0.161074 63.9834 0.583185 67.7522C2.54298 85.3301 12.6435 101.461 27.8093 111.32C30.5832 113.129 37.1862 116.385 40.2314 117.441C53.4073 122.084 68.9048 121.843 81.8395 116.838C99.3269 110.054 112.382 95.8527 118.02 77.5512C120.704 68.8376 121.005 56.3251 118.804 46.9482C116.272 36.1542 109.548 24.3954 101.829 17.2497C95.3169 11.1894 88.744 7.17932 80.1812 3.98334C72.8545 1.23962 62.0606 0.0034479 53.7993 0.968272ZM47.5581 38.0236C48.4324 38.2648 49.7591 38.8075 50.5128 39.2597C52.0204 40.1643 57.5681 45.32 57.5681 45.8627C57.5681 46.0437 56.4827 47.2798 55.1561 48.6065L52.744 50.9884L51.8395 50.114C46.4425 44.8979 46.352 44.8376 44.151 44.8376C42.5832 44.8376 41.3169 45.7723 37.3671 49.8125C34.4425 52.8276 33.5078 53.4004 32.0606 53.1291C29.95 52.7371 28.6234 50.8075 29.0757 48.7572C29.3169 47.6416 36.8847 39.9834 38.6636 39.0487C41.4676 37.6316 44.6636 37.2698 47.5581 38.0236ZM79.2164 38.0236C81.6887 38.6869 83.0757 39.6818 86.935 43.6014L90.5229 47.2195L90.3721 48.7874C90.1309 51.1994 88.1711 52.5562 85.7892 51.9532C85.3671 51.8628 83.5581 50.3251 81.7792 48.5763C79.9701 46.8276 78.2214 45.2597 77.8294 45.109C76.8948 44.7472 75.2968 44.7773 74.2415 45.1693C73.7892 45.32 65.2566 53.5813 55.3068 63.5009C35.8596 82.8879 36.1912 82.6165 32.2113 83.4607C29.8294 83.9733 25.5179 83.6417 23.4978 82.7974C19.9098 81.32 17.4073 78.9381 15.8093 75.5009C13.1561 69.9231 14.0003 64.1341 18.1611 59.2497L19.8194 57.2899L18.4927 55.9633C17.7691 55.2396 17.1661 54.5462 17.1661 54.4256C17.1661 54.305 19.6083 54.1844 22.5932 54.1844H28.0204V59.6115C28.0204 62.5964 27.9299 65.0386 27.8093 65.0386C27.6887 65.0386 26.9952 64.4658 26.2716 63.7422L24.9751 62.4758L23.7691 63.8326C22.141 65.6416 21.6284 66.9381 21.5983 69.109C21.5983 71.1291 22.0807 72.5462 23.3772 74.0537C25.337 76.3753 29.4676 77.1894 32.1812 75.7723C33.0254 75.3502 39.6887 68.9281 51.1762 57.4406C69.5078 39.1391 70.0505 38.6567 73.1561 37.9331C74.9048 37.511 77.4375 37.5713 79.2164 38.0236ZM102.191 53.1894C102.191 53.31 101.588 54.0336 100.865 54.7874L99.5078 56.1442L101.196 57.9532C104.784 61.8125 106.111 64.7974 106.111 69.1391C106.111 72.1844 105.357 74.8075 103.759 77.2798C102.282 79.5713 100.503 81.0788 97.6686 82.4658C95.4375 83.5814 95.3772 83.5814 91.6385 83.5814C87.5983 83.5512 86.0606 83.1592 83.5581 81.4708C82.6837 80.8678 67.7892 66.2447 63.749 62.0537L62.8746 61.119L65.2566 58.707C66.5832 57.3803 67.7892 56.2949 67.9701 56.2949C68.1209 56.2949 72.4927 60.516 77.6184 65.6718C84.0706 72.1241 87.4174 75.2597 88.3822 75.7723C92.9953 78.1241 98.7842 74.717 98.9651 69.5311C99.0556 67.1492 98.3621 65.6115 96.3118 63.3502L94.3822 61.2698L92.8747 62.7773L91.337 64.2547V58.6165V52.9783H96.7641C99.749 52.9783 102.191 53.0688 102.191 53.1894Z" fill="black"/>
</svg>
