<svg width="120" height="120" viewBox="0 0 120 120" fill="none" xmlns="http://www.w3.org/2000/svg">
<rect width="120" height="120" rx="60" fill="#EDF0F4"/>
<g clip-path="url(#clip0_495_580)">
<path d="M95 67.5149C94.9983 62.5797 94.0163 57.694 92.1111 53.1414C90.2058 48.5888 87.4153 44.46 83.9014 40.9947C76.7692 33.9425 67.1411 29.9912 57.111 30H53.1413V45.4008L37.6158 30H26.4341L45.4305 48.851H25V52.8622C25.0154 57.7799 26.0041 62.6459 27.9089 67.1797C29.8138 71.7135 32.5971 75.8255 36.0986 79.2785C43.2372 86.3339 52.8729 90.2852 62.9097 90.2732H66.8587V74.8723L82.1972 90.0653H93.3996L74.6942 71.3599H95.1039L95 67.5149ZM61.1015 63.5867H50.959C49.9103 63.5863 48.9031 63.9966 48.1532 64.7298C47.7851 65.0944 47.4928 65.5281 47.2931 66.0061C47.0933 66.4841 46.9901 66.9968 46.9893 67.5149C46.9882 68.0301 47.0907 68.5403 47.2906 69.0151C47.4906 69.49 47.7839 69.9198 48.1532 70.2791C48.9031 71.0123 49.9103 71.4226 50.959 71.4222H58.94V82.1675C52.3879 81.3118 46.3017 78.3162 41.6271 73.6461C36.9817 69.0627 33.9852 63.0697 33.1057 56.6033H69.0618C69.5875 56.6188 70.1108 56.5269 70.5998 56.3331C71.0938 56.1468 71.5459 55.8642 71.9299 55.5018C72.3069 55.1329 72.6102 54.6955 72.8236 54.2132C73.0289 53.73 73.1346 53.2105 73.1346 52.6856C73.1346 52.1607 73.0289 51.6411 72.8236 51.158C72.6102 50.6756 72.3069 50.2383 71.9299 49.8694C71.5459 49.507 71.0938 49.2244 70.5998 49.038C70.1108 48.8443 69.5875 48.7523 69.0618 48.7678H61.06V38.1057C67.5826 38.9789 73.637 41.9732 78.2898 46.6271C82.9453 51.2057 85.9498 57.1999 86.832 63.6698L61.1015 63.5867ZM65.5077 52.6336C65.5044 52.0164 65.6932 51.4135 66.0481 50.9086C66.3884 50.3928 66.8726 49.9881 67.4406 49.7447C68.0212 49.513 68.6567 49.4552 69.2696 49.5784C69.8729 49.693 70.4293 49.982 70.87 50.4098C71.3099 50.8473 71.6132 51.4033 71.7429 52.0101C71.8693 52.6108 71.8038 53.236 71.5558 53.7975C71.327 54.3737 70.9283 54.8666 70.4127 55.2108C69.8924 55.5473 69.2865 55.7276 68.6669 55.7304C67.8397 55.7306 67.0455 55.4063 66.4548 54.8273C65.8641 54.2482 65.524 53.4606 65.5077 52.6336Z" fill="#64A119"/>
<path d="M70.1008 54.0469C70.0984 53.7646 70.0116 53.4895 69.8514 53.2571C69.6974 53.0198 69.4717 52.8377 69.2071 52.7375C68.946 52.6271 68.6577 52.5978 68.3798 52.6534C68.1018 52.709 67.8469 52.8469 67.6484 53.0492C67.439 53.2407 67.3 53.4968 67.2535 53.7767C67.1616 54.0462 67.1616 54.3385 67.2535 54.608C67.3609 54.8628 67.5418 55.0799 67.7731 55.2315C68.0119 55.3945 68.2945 55.4814 68.5836 55.4809C68.9644 55.481 69.33 55.3318 69.602 55.0653C69.751 54.9392 69.8722 54.7836 69.9581 54.6083C70.0439 54.433 70.0925 54.2419 70.1008 54.0469Z" fill="#64A119"/>
</g>
<defs>
<clipPath id="clip0_495_580">
<rect width="70" height="60.2732" fill="white" transform="translate(25 30)"/>
</clipPath>
</defs>
</svg>
