<svg width="120" height="120" viewBox="0 0 120 120" fill="none" xmlns="http://www.w3.org/2000/svg">
<rect width="120" height="120" rx="60" fill="black"/>
<path fill-rule="evenodd" clip-rule="evenodd" d="M52.0237 57.0284C53.0132 56.8587 53.6775 56.7457 54.0167 56.6891C54.3184 56.6369 54.6228 56.6015 54.9284 56.5831C55.197 56.569 55.5716 56.5548 56.0522 56.5407C56.5327 56.5266 57.395 56.463 58.6388 56.3499C59.0629 56.2934 59.4021 56.2722 59.6565 56.2863C59.911 56.3004 60.024 56.4064 59.9958 56.6043C59.9675 56.8022 59.8403 56.9436 59.6141 57.0284C59.388 57.1132 59.1618 57.1838 58.9357 57.2404C58.2855 57.5231 57.6918 57.7563 57.1547 57.9401C56.6087 58.1265 56.0572 58.2962 55.5009 58.4489C54.9355 58.6044 54.3206 58.774 53.6563 58.9578C52.8681 59.1783 52.0835 59.4115 51.3029 59.6574C50.741 61.885 50.1473 64.1044 49.5219 66.3149C48.8985 68.5094 48.2624 70.7004 47.6137 72.8876C47.3875 73.2551 47.2038 73.4176 47.0624 73.3752C46.9211 73.3328 46.808 73.2056 46.7232 72.9936C46.637 72.7776 46.5592 72.5583 46.49 72.3363C46.4193 72.1102 46.3416 71.9971 46.2568 71.9971C46.2285 71.1773 46.2992 70.3857 46.4688 69.6224C46.635 68.8756 46.7905 68.1264 46.9352 67.375C47.1614 66.1029 47.4229 64.8944 47.7197 63.7494C48.0152 62.6094 48.3191 61.4715 48.6314 60.3359C46.6806 60.76 44.7494 61.2693 42.8432 61.8625C40.9543 62.45 39.0673 63.0437 37.1822 63.6434C36.9561 63.7282 36.6027 63.8413 36.1221 63.9827C35.6415 64.124 35.3164 64.2512 35.1468 64.3643C35.0337 64.4208 34.85 64.5269 34.5956 64.6823C34.3411 64.8378 34.1433 64.9862 34.0019 65.1276C33.1456 66.229 32.3595 67.3832 31.6485 68.5835C30.9344 69.7903 30.1777 70.9713 29.3798 72.1243C28.5382 73.3157 27.7322 74.5318 26.9628 75.7711C26.2278 76.9584 25.5634 78.2729 24.9698 79.7147C24.8553 79.9726 24.7492 80.2343 24.6518 80.4992C24.5604 80.7546 24.424 80.9916 24.2489 81.1988C24.0793 81.3967 23.8673 81.5593 23.6128 81.6865C23.3584 81.8137 23.0475 81.8773 22.68 81.8773C22.1146 81.9056 21.634 81.7218 21.2382 81.326C20.8424 80.9303 20.5739 80.5345 20.4325 80.1387C20.376 79.9408 20.376 79.7712 20.4325 79.6299C20.4891 79.4885 20.5739 79.3542 20.687 79.227C20.8005 79.0994 20.9286 78.9856 21.0686 78.8878C21.2099 78.7888 21.323 78.697 21.4078 78.6122C21.7289 78.2028 22.04 77.7857 22.3407 77.3612C22.6517 76.9231 22.9485 76.4778 23.2312 76.0255C24.3131 74.2324 25.4372 72.4651 26.6024 70.725C27.7777 68.969 28.958 67.2163 30.1431 65.4668C29.6625 65.6364 29.288 65.7495 29.0194 65.8061C28.7508 65.8626 28.5105 65.905 28.2985 65.9333C28.0865 65.9615 27.8674 65.9898 27.6413 66.0181C27.4151 66.0463 27.09 66.117 26.666 66.2301C26.4115 66.3149 26.1712 66.4068 25.9451 66.5057C25.7178 66.6049 25.4722 66.6555 25.2242 66.6541C24.2913 66.7955 23.4927 66.958 22.8284 67.1418C22.164 67.3255 21.4644 67.5164 20.7294 67.7143C20.3619 67.8273 20.1357 67.8344 20.0509 67.7355C19.9661 67.6365 19.9873 67.4952 20.1145 67.3114C20.2417 67.1277 20.4467 66.9227 20.7294 66.6965C21.012 66.4704 21.3513 66.2725 21.7471 66.1029C22.4869 65.7902 23.2444 65.5212 24.0157 65.2972C24.7931 65.071 25.5493 64.8308 26.2843 64.5763C27.2769 64.1794 28.2809 63.8118 29.295 63.4738C30.3047 63.137 31.3227 62.826 32.3481 62.5409C33.7616 60.6469 35.1963 58.7599 36.6522 56.8799C38.1137 54.9931 39.6195 53.1409 41.1682 51.325C42.7169 49.5084 44.322 47.7407 45.9811 46.0244C47.6372 44.312 49.3854 42.6912 51.2181 41.1691C51.7269 40.7168 52.3488 40.2645 53.0839 39.8122C53.8189 39.3599 54.5963 39.0913 55.4161 39.0065C55.7836 38.9783 56.0875 39.0419 56.3278 39.1973C56.573 39.3577 56.7823 39.567 56.9426 39.8122C56.9992 39.8687 57.0275 39.9253 57.0275 39.9818C57.0275 40.0384 57.0557 40.109 57.1123 40.1938C57.2253 40.42 57.3243 40.5684 57.4091 40.6391C57.4939 40.7098 57.508 40.9289 57.4515 41.2964C57.3918 41.6483 57.3068 41.9955 57.1971 42.3353C57.0861 42.6822 56.973 43.0286 56.8578 43.3742C56.5237 44.5459 56.1489 45.7056 55.7341 46.8513C55.3242 47.9821 54.9072 49.1129 54.4832 50.2437C54.0592 51.3745 53.6351 52.4982 53.2111 53.6148C52.7836 54.7414 52.3876 55.8797 52.0237 57.0284ZM51.7693 50.0741C52.2499 48.8585 52.7022 47.5581 53.1263 46.1729C53.5405 44.8214 53.9363 43.4643 54.3136 42.102H54.2712C54.1864 42.102 54.144 42.1303 54.144 42.1868C53.3717 42.8992 52.5942 43.606 51.8117 44.3071C50.9849 45.0485 50.165 45.7977 49.3523 46.5545C48.5363 47.3141 47.7306 48.0845 46.9352 48.8655C46.1818 49.6037 45.4466 50.3601 44.7302 51.1342C43.4015 52.6042 42.0799 54.0954 40.7654 55.6078C39.4509 57.1202 38.2565 58.7669 37.1822 60.5479C39.0198 59.9825 41.0128 59.4454 43.1612 58.9366C45.2303 58.445 47.3085 57.9926 49.3947 57.5796C49.7811 56.311 50.1557 55.0388 50.5184 53.7632C50.8718 52.5194 51.2887 51.2896 51.7693 50.0741Z" fill="white"/>
<path fill-rule="evenodd" clip-rule="evenodd" d="M88.0237 57.0284C89.0132 56.8587 89.6775 56.7457 90.0167 56.6891C90.3184 56.6369 90.6228 56.6015 90.9284 56.5831C91.197 56.569 91.5716 56.5548 92.0522 56.5407C92.5327 56.5266 93.395 56.463 94.6388 56.3499C95.0629 56.2934 95.4021 56.2722 95.6565 56.2863C95.911 56.3004 96.024 56.4064 95.9958 56.6043C95.9675 56.8022 95.8403 56.9436 95.6141 57.0284C95.388 57.1132 95.1618 57.1838 94.9357 57.2404C94.2855 57.5231 93.6918 57.7563 93.1547 57.9401C92.6087 58.1265 92.0572 58.2962 91.5009 58.4489C90.9355 58.6044 90.3206 58.774 89.6563 58.9578C88.8681 59.1783 88.0835 59.4115 87.3029 59.6574C86.741 61.885 86.1473 64.1044 85.5219 66.3149C84.8985 68.5094 84.2624 70.7004 83.6137 72.8876C83.3875 73.2551 83.2038 73.4176 83.0624 73.3752C82.9211 73.3328 82.808 73.2056 82.7232 72.9936C82.637 72.7776 82.5592 72.5583 82.49 72.3363C82.4193 72.1102 82.3416 71.9971 82.2568 71.9971C82.2285 71.1773 82.2992 70.3857 82.4688 69.6224C82.635 68.8756 82.7905 68.1264 82.9352 67.375C83.1614 66.1029 83.4229 64.8944 83.7197 63.7494C84.0152 62.6094 84.3191 61.4715 84.6314 60.3359C82.6806 60.76 80.7494 61.2693 78.8432 61.8625C76.9543 62.45 75.0673 63.0437 73.1822 63.6434C72.9561 63.7282 72.6027 63.8413 72.1221 63.9827C71.6415 64.124 71.3164 64.2512 71.1468 64.3643C71.0337 64.4208 70.85 64.5269 70.5956 64.6823C70.3411 64.8378 70.1433 64.9862 70.0019 65.1276C69.1456 66.229 68.3595 67.3832 67.6485 68.5835C66.9344 69.7903 66.1777 70.9713 65.3798 72.1243C64.5382 73.3157 63.7322 74.5318 62.9628 75.7711C62.2278 76.9584 61.5634 78.2729 60.9698 79.7147C60.8553 79.9726 60.7492 80.2343 60.6518 80.4992C60.5604 80.7546 60.424 80.9916 60.2489 81.1988C60.0793 81.3967 59.8673 81.5593 59.6128 81.6865C59.3584 81.8137 59.0475 81.8773 58.68 81.8773C58.1146 81.9056 57.634 81.7218 57.2382 81.326C56.8424 80.9303 56.5739 80.5345 56.4325 80.1387C56.376 79.9408 56.376 79.7712 56.4325 79.6299C56.4891 79.4885 56.5739 79.3542 56.687 79.227C56.8005 79.0994 56.9286 78.9856 57.0686 78.8878C57.2099 78.7888 57.323 78.697 57.4078 78.6122C57.7289 78.2028 58.04 77.7857 58.3407 77.3612C58.6517 76.9231 58.9485 76.4778 59.2312 76.0255C60.3131 74.2324 61.4372 72.4651 62.6024 70.725C63.7777 68.969 64.958 67.2163 66.1431 65.4668C65.6625 65.6364 65.288 65.7495 65.0194 65.8061C64.7508 65.8626 64.5105 65.905 64.2985 65.9333C64.0865 65.9615 63.8674 65.9898 63.6413 66.0181C63.4151 66.0463 63.09 66.117 62.666 66.2301C62.4115 66.3149 62.1712 66.4068 61.9451 66.5057C61.7178 66.6049 61.4722 66.6555 61.2242 66.6541C60.2913 66.7955 59.4927 66.958 58.8284 67.1418C58.164 67.3255 57.4644 67.5164 56.7294 67.7143C56.3619 67.8273 56.1357 67.8344 56.0509 67.7355C55.9661 67.6365 55.9873 67.4952 56.1145 67.3114C56.2417 67.1277 56.4467 66.9227 56.7294 66.6965C57.012 66.4704 57.3513 66.2725 57.7471 66.1029C58.4869 65.7902 59.2444 65.5212 60.0157 65.2972C60.7931 65.071 61.5493 64.8308 62.2843 64.5763C63.2769 64.1794 64.2809 63.8118 65.295 63.4738C66.3047 63.137 67.3227 62.826 68.3481 62.5409C69.7616 60.6469 71.1963 58.7599 72.6522 56.8799C74.1137 54.9931 75.6195 53.1409 77.1682 51.325C78.7169 49.5084 80.322 47.7407 81.9811 46.0244C83.6372 44.312 85.3854 42.6912 87.2181 41.1691C87.7269 40.7168 88.3488 40.2645 89.0839 39.8122C89.8189 39.3599 90.5963 39.0913 91.4161 39.0065C91.7836 38.9783 92.0875 39.0419 92.3278 39.1973C92.573 39.3577 92.7823 39.567 92.9426 39.8122C92.9992 39.8687 93.0275 39.9253 93.0275 39.9818C93.0275 40.0384 93.0557 40.109 93.1123 40.1938C93.2253 40.42 93.3243 40.5684 93.4091 40.6391C93.4939 40.7098 93.508 40.9289 93.4515 41.2964C93.3918 41.6483 93.3068 41.9955 93.1971 42.3353C93.0861 42.6822 92.973 43.0286 92.8578 43.3742C92.5237 44.5459 92.1489 45.7056 91.7341 46.8513C91.3242 47.9821 90.9072 49.1129 90.4832 50.2437C90.0592 51.3745 89.6351 52.4982 89.2111 53.6148C88.7836 54.7414 88.3876 55.8797 88.0237 57.0284ZM87.7693 50.0741C88.2499 48.8585 88.7022 47.5581 89.1263 46.1729C89.5405 44.8214 89.9363 43.4643 90.3136 42.102H90.2712C90.1864 42.102 90.144 42.1303 90.144 42.1868C89.3717 42.8992 88.5942 43.606 87.8117 44.3071C86.9849 45.0485 86.165 45.7977 85.3523 46.5545C84.5363 47.3141 83.7306 48.0845 82.9352 48.8655C82.1818 49.6037 81.4466 50.3601 80.7302 51.1342C79.4015 52.6042 78.0799 54.0954 76.7654 55.6078C75.4509 57.1202 74.2565 58.7669 73.1822 60.5479C75.0198 59.9825 77.0128 59.4454 79.1612 58.9366C81.2303 58.445 83.3085 57.9926 85.3947 57.5796C85.7811 56.311 86.1557 55.0388 86.5184 53.7632C86.8718 52.5194 87.2887 51.2896 87.7693 50.0741Z" fill="white"/>
</svg>
