<svg width="120" height="120" viewBox="0 0 120 120" fill="none" xmlns="http://www.w3.org/2000/svg">
<rect width="120" height="120" rx="60" fill="#DD621B"/>
<path d="M67.2727 85.2277C72.419 85.2277 76.5909 81.0558 76.5909 75.9095C76.5909 70.7632 72.419 66.5913 67.2727 66.5913C62.1264 66.5913 57.9545 70.7632 57.9545 75.9095C57.9545 81.0558 62.1264 85.2277 67.2727 85.2277Z" fill="white"/>
<path d="M49 32.8183C37.0454 37.9093 31.4545 51.7274 36.5454 63.7274C37.6227 66.2593 39.1318 68.5911 41.0091 70.5911C40.4864 60.7274 46.1909 51.5456 55.3273 47.682C64.4182 43.8093 75.0091 46.0456 81.7364 53.2729C81.5914 50.5274 80.9682 47.8183 79.8909 45.3183C74.8 33.3638 60.9818 27.7729 48.9818 32.8638L49 32.8183Z" fill="white" stroke="white" stroke-width="0.3" stroke-linecap="round" stroke-linejoin="round"/>
</svg>
