<svg width="120" height="120" viewBox="0 0 120 120" fill="none" xmlns="http://www.w3.org/2000/svg">
<rect width="120" height="120" rx="60" fill="#EDF0F4"/>
<g clip-path="url(#clip0_507_510)">
<path d="M93.4872 90.3294C92.2292 86.2441 90.1719 78.548 88.9664 75.6177C87.9922 73.2533 87.0822 70.8772 85.9642 69.7572C84.8461 68.6391 82.9444 68.7266 81.7972 69.8699C81.7972 69.8699 76.9964 73.1269 75.2756 75.2813C73.1211 76.9963 69.8603 81.8088 69.8603 81.8088C68.7131 82.956 68.6256 84.8558 69.7436 85.9758C70.8636 87.0938 73.2397 88.0038 75.6061 88.978C78.5344 90.1836 86.2325 92.2369 90.3178 93.4988C91.0158 93.7127 93.7011 91.0274 93.4872 90.3294Z" fill="#D99E82"/>
<path d="M51.528 35.3211C53.7661 37.5591 53.7661 41.1855 51.528 43.4236L43.4255 51.528C41.1875 53.7641 37.5572 53.7641 35.323 51.528L27.2186 43.4236C24.9825 41.1855 24.9825 37.5591 27.2186 35.3211L35.3211 27.2186C37.5572 24.9805 41.1855 24.9805 43.4236 27.2186L51.528 35.3211Z" fill="#EA596E"/>
<path d="M85.9642 69.7574L77.8559 77.8658L69.7611 85.9644L39.3734 55.5785L55.5803 39.3735L85.9642 69.7574Z" fill="#FFCC4D"/>
<path d="M87.3739 92.5949C87.3739 92.5949 92.6414 95.4902 94.0647 94.0669C95.4881 92.6435 92.5772 87.3877 92.5772 87.3877C92.5772 87.3877 87.5878 87.481 87.3739 92.5949Z" fill="#292F33"/>
<path d="M29.2448 45.4496L45.4517 29.2427L55.5784 39.3713L39.3734 55.5782L29.2448 45.4496Z" fill="#CCD6DD"/>
<path d="M31.2708 47.474L47.4758 31.269L49.5019 33.2952L33.2969 49.5002L31.2708 47.474ZM35.3211 51.5302L51.528 35.3232L53.5541 37.3493L37.3472 53.5543L35.3211 51.5302Z" fill="#99AAB5"/>
</g>
<defs>
<clipPath id="clip0_507_510">
<rect width="70" height="70" fill="white" transform="translate(25 25)"/>
</clipPath>
</defs>
</svg>
