<svg width="120" height="120" viewBox="0 0 120 120" fill="none" xmlns="http://www.w3.org/2000/svg">
<g clip-path="url(#clip0_428_579)">
<path d="M60 0C93.14 0 120 26.8656 120 60C120 93.14 93.14 120 60 120C26.8656 120 0 93.1377 0 60C0 26.8656 26.8656 0 60 0Z" fill="#7524F9"/>
<path fill-rule="evenodd" clip-rule="evenodd" d="M93.3334 43.9389V47.6209C93.3341 47.9769 93.2381 48.3269 93.0551 48.6356C92.8721 48.9443 92.6088 49.2003 92.2918 49.3783L80.0808 56.2286L90.9898 62.3316C91.7028 62.7319 92.2948 63.3079 92.7061 64.0016C93.1178 64.6949 93.3341 65.4816 93.3334 66.2823V76.1006C93.3344 76.9016 93.1184 77.6886 92.7068 78.3826C92.2954 79.0766 91.7031 79.6529 90.9898 80.0536L62.2994 96.0559C61.5871 96.4559 60.7788 96.6666 59.9558 96.6666C59.1331 96.6666 58.3248 96.4559 57.6121 96.0559L48.2241 90.7833C48.0654 90.6946 47.9341 90.5666 47.8424 90.4126C47.7511 90.2586 47.7028 90.0839 47.7028 89.9059C47.7028 89.7279 47.7511 89.5533 47.8424 89.3993C47.9341 89.2453 48.0654 89.1173 48.2241 89.0286L79.2138 71.6839C79.2924 71.6393 79.3581 71.5756 79.4038 71.4986C79.4491 71.4216 79.4731 71.3346 79.4731 71.2459C79.4731 71.1573 79.4491 71.0699 79.4038 70.9929C79.3581 70.9163 79.2924 70.8523 79.2138 70.8076L67.7084 64.3449C67.3918 64.1673 67.0324 64.0736 66.6668 64.0736C66.3011 64.0736 65.9418 64.1673 65.6251 64.3449L34.1484 81.9756C33.9111 82.1089 33.6414 82.1793 33.3674 82.1793C33.093 82.1793 32.8236 82.1089 32.586 81.9756L29.0209 79.9929C28.3044 79.5929 27.7093 79.0159 27.2959 78.3203C26.8825 77.6249 26.6655 76.8356 26.6668 76.0319V72.0183C26.6666 71.7513 26.7387 71.4893 26.8759 71.2579C27.013 71.0269 27.2103 70.8349 27.448 70.7013L72.5781 45.4809C72.6571 45.4366 72.7228 45.3726 72.7681 45.2956C72.8138 45.2189 72.8378 45.1316 72.8378 45.0429C72.8378 44.9543 72.8138 44.8669 72.7681 44.7903C72.7228 44.7133 72.6571 44.6493 72.5781 44.6049L61.0548 38.1193C60.7381 37.9416 60.3788 37.8479 60.0131 37.8479C59.6474 37.8479 59.2881 37.9416 58.9714 38.1193L28.2293 55.3119C28.071 55.4006 27.8915 55.4476 27.7087 55.4476C27.5259 55.4476 27.3464 55.4009 27.1881 55.3123C27.0297 55.2233 26.8982 55.0956 26.8067 54.9419C26.7152 54.7879 26.667 54.6133 26.6668 54.4356V43.8906C26.6658 43.0896 26.8819 42.3023 27.2934 41.6083C27.7048 40.9143 28.2971 40.3383 29.0105 39.9376L57.6954 23.9403C58.4064 23.5426 59.2124 23.3333 60.0328 23.3333C60.8528 23.3333 61.6588 23.5426 62.3698 23.9403L90.9898 39.9933C91.7021 40.3933 92.2934 40.9683 92.7048 41.6609C93.1164 42.3533 93.3331 43.1389 93.3334 43.9389Z" fill="white"/>
</g>
<defs>
<clipPath id="clip0_428_579">
<rect width="120" height="120" fill="white"/>
</clipPath>
</defs>
</svg>
