<svg width="120" height="118" viewBox="0 0 120 118" fill="none" xmlns="http://www.w3.org/2000/svg">
<path d="M98.0884 0H21.9146C9.75847 0 0 9.57879 0 21.514V96.3063C0 108.242 9.75847 117.82 21.9146 117.82H98.0854C110.071 117.82 120 108.242 120 96.3063V21.514C120 9.57879 110.244 0 98.0884 0ZM79.6024 29.4138C88.5037 29.4138 95.6937 36.4713 95.6937 45.2135C95.6937 47.8999 95.0074 50.4212 93.8085 52.7747C91.7555 51.2636 89.5317 49.9175 87.134 49.0781C87.8174 47.8999 88.162 46.5567 88.162 45.2135C88.162 40.6745 84.3947 36.9779 79.7732 36.9779C75.1487 36.9779 71.3844 40.6745 71.3844 45.2135C71.3844 46.5567 71.7261 47.8999 72.4124 49.0781C70.0147 49.9175 67.6171 51.0957 65.7349 52.7747C64.3652 50.4212 63.8498 47.8999 63.8498 45.2106C63.511 36.4713 70.701 29.4138 79.6024 29.4138ZM40.3976 88.4065C31.4993 88.4065 24.3093 81.349 24.3093 72.6097H32.0118C32.0118 77.1458 35.7791 80.8454 40.4006 80.8454C45.0221 80.8454 48.7894 77.1458 48.7894 72.6097H56.4919C56.4919 81.349 49.299 88.4065 40.3976 88.4065ZM40.3976 66.2209C30.1296 66.2209 21.7408 57.9853 21.7408 47.8998C21.7408 37.8174 30.1296 29.4138 40.4006 29.4138C50.6716 29.4138 59.2312 37.6495 59.2312 47.8998C59.0604 57.9853 50.6686 66.2209 40.3976 66.2209ZM79.6024 88.4065C69.3314 88.4065 60.7717 80.1708 60.7717 70.0854C60.7717 59.8351 69.1605 51.5994 79.6024 51.5994C89.8733 51.5994 98.2621 59.835 98.2621 70.0884C98.2621 80.1708 89.8733 88.4065 79.6024 88.4065ZM90.7275 69.9205C90.7275 75.9705 85.7644 80.6745 79.6024 80.6745C73.4403 80.6745 68.4742 75.8027 68.4742 69.9205C68.4742 63.8675 73.4403 58.9926 79.6024 58.9926C85.7644 59.1635 90.7275 64.0353 90.7275 69.9205ZM51.3549 47.8998C51.3549 53.9529 46.3918 58.8277 40.2297 58.8277C34.0648 58.8277 29.1016 53.9529 29.1016 47.8998C29.1016 41.8498 34.0648 36.975 40.2297 36.975C46.5626 36.975 51.3549 41.8498 51.3549 47.9028V47.8998Z" fill="#D9B432"/>
</svg>
