<svg width="120" height="120" viewBox="0 0 120 120" fill="none" xmlns="http://www.w3.org/2000/svg">
<path d="M0 60C0 26.8629 26.8629 0 60 0V0C93.1371 0 120 26.8629 120 60V60C120 93.1371 93.1371 120 60 120V120C26.8629 120 0 93.1371 0 60V60Z" fill="url(#paint0_linear_427_476)"/>
<path d="M98.2388 34.8746C100.793 69.4685 78.558 85.8195 58.6256 87.5632C40.094 89.1842 22.6506 77.7959 21.1203 60.2987C19.8579 45.8431 28.7911 39.6889 35.8098 39.0754C43.0287 38.4425 49.095 43.4214 49.6213 49.4497C50.1281 55.2455 46.5123 57.8835 43.9972 58.1031C42.0085 58.2774 39.5064 57.0698 39.2805 54.477C39.0867 52.2491 39.9326 51.9456 39.726 49.5789C39.3579 45.3652 35.6839 44.8744 33.6726 45.0488C31.2383 45.2619 26.8218 48.1033 27.4416 55.1809C28.0647 62.32 34.9091 67.9609 43.881 67.1762C53.5632 66.3303 60.3043 58.7908 60.8112 48.2163C60.8065 47.6562 60.9246 47.1019 61.1565 46.5922L61.1597 46.5792C61.2642 46.3578 61.3862 46.145 61.5246 45.9432C61.7312 45.6332 61.996 45.2909 62.3382 44.9164C62.3413 44.9067 62.3413 44.9067 62.348 44.9067C62.5964 44.6258 62.8967 44.3223 63.2357 43.9962C67.4649 40.0053 82.697 30.5932 97.1025 33.5734C97.4069 33.6387 97.6822 33.8007 97.8868 34.0352C98.0918 34.2697 98.2151 34.5642 98.2388 34.8746Z" fill="white"/>
<defs>
<linearGradient id="paint0_linear_427_476" x1="106" y1="16" x2="29" y2="106" gradientUnits="userSpaceOnUse">
<stop stop-color="#11C4D1"/>
<stop offset="1" stop-color="#0062AD"/>
</linearGradient>
</defs>
</svg>
