<svg width="120" height="120" viewBox="0 0 120 120" fill="none" xmlns="http://www.w3.org/2000/svg">
<rect width="120" height="120" rx="60" fill="black"/>
<path d="M82.1672 55.7293C80.2871 53.8491 80.2871 50.8009 82.1672 48.9207C84.0474 47.0406 87.0957 47.0406 88.9758 48.9207C90.8559 50.8009 90.8559 53.8491 88.9758 55.7293C87.0957 57.6094 84.0474 57.6094 82.1672 55.7293ZM65.997 71.8995C64.5869 70.4894 64.5869 68.2032 65.997 66.7931C67.4071 65.383 69.6933 65.383 71.1034 66.7931C72.5135 68.2032 72.5135 70.4894 71.1034 71.8995C69.6933 73.3096 67.4071 73.3096 65.997 71.8995ZM91.529 63.3888C90.1189 61.9788 90.1189 59.6925 91.529 58.2825C92.9391 56.8724 95.2253 56.8724 96.6354 58.2825C98.0454 59.6925 98.0454 61.9788 96.6354 63.3888C95.2253 64.7989 92.9391 64.7989 91.529 63.3888ZM83.0183 71.8995C81.6082 70.4894 81.6082 68.2032 83.0183 66.7931C84.4284 65.383 86.7146 65.383 88.1247 66.7931C89.5348 68.2032 89.5348 70.4894 88.1247 71.8995C86.7146 73.3096 84.4284 73.3096 83.0183 71.8995ZM100.891 71.0484C99.9506 70.1084 99.9506 68.5842 100.891 67.6442C101.831 66.7041 103.355 66.7041 104.295 67.6442C105.235 68.5842 105.235 70.1084 104.295 71.0484C103.355 71.9885 101.831 71.9885 100.891 71.0484ZM92.38 79.5591C91.44 78.619 91.44 77.0949 92.38 76.1548C93.3201 75.2148 94.8442 75.2148 95.7843 76.1548C96.7244 77.0949 96.7244 78.619 95.7843 79.5591C94.8442 80.4991 93.3201 80.4991 92.38 79.5591ZM73.6566 64.2399C71.7765 62.3598 71.7765 59.3115 73.6566 57.4314C75.5367 55.5513 78.585 55.5513 80.4651 57.4314C82.3452 59.3115 82.3452 62.3598 80.4651 64.2399C78.585 66.12 75.5367 66.12 73.6566 64.2399ZM73.6566 47.2186C71.7765 45.3385 71.7765 42.2902 73.6566 40.4101C75.5367 38.53 78.585 38.53 80.4651 40.4101C82.3452 42.2902 82.3452 45.3385 80.4651 47.2186C78.585 49.0987 75.5367 49.0987 73.6566 47.2186ZM65.1459 55.7293C63.2658 53.8491 63.2658 50.8009 65.1459 48.9207C67.0261 47.0406 70.0743 47.0406 71.9545 48.9207C73.8346 50.8009 73.8346 53.8491 71.9545 55.7293C70.0743 57.6094 67.0261 57.6094 65.1459 55.7293ZM48.0455 55.7293C46.1654 53.8491 46.1654 50.8009 48.0455 48.9207C49.9256 47.0406 52.9739 47.0406 54.854 48.9207C56.7342 50.8009 56.7342 53.8491 54.854 55.7293C52.9739 57.6094 49.9256 57.6094 48.0455 55.7293ZM31.8753 71.8995C30.4652 70.4894 30.4652 68.2032 31.8753 66.7931C33.2854 65.383 35.5716 65.383 36.9817 66.7931C38.3918 68.2032 38.3918 70.4894 36.9817 71.8995C35.5716 73.3096 33.2854 73.3096 31.8753 71.8995ZM57.4072 63.3888C55.9972 61.9788 55.9972 59.6925 57.4072 58.2825C58.8173 56.8724 61.1035 56.8724 62.5136 58.2825C63.9237 59.6925 63.9237 61.9788 62.5136 63.3888C61.1035 64.7989 58.8173 64.7989 57.4072 63.3888ZM48.8966 71.8995C47.4865 70.4894 47.4865 68.2032 48.8966 66.7931C50.3067 65.383 52.5929 65.383 54.003 66.7931C55.4131 68.2032 55.4131 70.4894 54.003 71.8995C52.5929 73.3096 50.3067 73.3096 48.8966 71.8995ZM15.705 71.0484C14.765 70.1084 14.765 68.5842 15.705 67.6442C16.6451 66.7041 18.1692 66.7041 19.1093 67.6442C20.0494 68.5842 20.0494 70.1084 19.1093 71.0484C18.1692 71.9885 16.6451 71.9885 15.705 71.0484ZM24.2157 79.5591C23.2756 78.619 23.2756 77.0949 24.2157 76.1548C25.1558 75.2148 26.6799 75.2148 27.62 76.1548C28.56 77.0949 28.56 78.619 27.62 79.5591C26.6799 80.4991 25.1558 80.4991 24.2157 79.5591ZM58.2583 79.5591C57.3182 78.619 57.3182 77.0949 58.2583 76.1548C59.1984 75.2148 60.7225 75.2148 61.6626 76.1548C62.6026 77.0949 62.6026 78.619 61.6626 79.5591C60.7225 80.4991 59.1984 80.4991 58.2583 79.5591ZM23.3646 63.3888C21.9545 61.9788 21.9545 59.6925 23.3646 58.2825C24.7747 56.8724 27.0609 56.8724 28.471 58.2825C29.8811 59.6925 29.8811 61.9788 28.471 63.3888C27.0609 64.7989 24.7747 64.7989 23.3646 63.3888ZM39.5349 64.2399C37.6548 62.3598 37.6548 59.3115 39.5349 57.4314C41.415 55.5513 44.4633 55.5513 46.3434 57.4314C48.2235 59.3115 48.2235 62.3598 46.3434 64.2399C44.4633 66.12 41.415 66.12 39.5349 64.2399ZM39.5349 47.2186C37.6548 45.3385 37.6548 42.2902 39.5349 40.4101C41.415 38.53 44.4633 38.53 46.3434 40.4101C48.2235 42.2902 48.2235 45.3385 46.3434 47.2186C44.4633 49.0987 41.415 49.0987 39.5349 47.2186ZM31.0242 55.7293C29.1441 53.8491 29.1441 50.8009 31.0242 48.9207C32.9043 47.0406 35.9526 47.0406 37.8327 48.9207C39.7129 50.8009 39.7129 53.8491 37.8327 55.7293C35.9526 57.6094 32.9043 57.6094 31.0242 55.7293Z" fill="white"/>
</svg>
