<svg width="122" height="113" viewBox="0 0 122 113" fill="none" xmlns="http://www.w3.org/2000/svg">
<path d="M115.398 1L68.3646 35.792L77.1342 15.2819L115.398 1Z" fill="#E17726" stroke="#E17726" stroke-width="0.25" stroke-linecap="round" stroke-linejoin="round"/>
<path d="M6.94183 1L53.5459 36.0783L45.2059 15.3177L6.94183 1ZM98.4677 81.6443L85.9397 100.758L112.75 108.132L120.41 82.0738L98.4677 81.6443ZM1.96643 82.0738L9.5906 108.132L36.3289 100.758L23.8725 81.6443L1.96643 82.0738Z" fill="#E27625" stroke="#E27625" stroke-width="0.25" stroke-linecap="round" stroke-linejoin="round"/>
<path d="M34.8971 49.358L27.4519 60.5974L53.9396 61.8144L53.0805 33.2864L34.8971 49.3938V49.358ZM87.443 49.3938L68.9732 32.9285L68.3647 61.8144L94.8524 60.5974L87.443 49.3938ZM36.3289 100.758L52.4005 93.0269L38.5839 82.2886L36.3289 100.758ZM69.9754 92.9911L85.9396 100.758L83.792 82.2528L69.9754 92.9911Z" fill="#E27625" stroke="#E27625" stroke-width="0.25" stroke-linecap="round" stroke-linejoin="round"/>
<path d="M85.9398 100.758L69.9756 93.0269L71.2641 103.407L71.121 107.81L85.9398 100.758ZM36.329 100.758L51.2194 107.81L51.112 103.407L52.4006 93.0269L36.329 100.758Z" fill="#D5BFB2" stroke="#D5BFB2" stroke-width="0.25" stroke-linecap="round" stroke-linejoin="round"/>
<path d="M51.4699 75.3802L38.2261 71.5144L47.6042 67.2191L51.5057 75.3802H51.4699ZM70.8346 75.3802L74.772 67.1833L84.1858 71.4787L70.8346 75.416V75.3802Z" fill="#233447" stroke="#233447" stroke-width="0.25" stroke-linecap="round" stroke-linejoin="round"/>
<path d="M36.3288 100.759L38.6555 81.6444L23.8724 82.0739L36.3288 100.759ZM83.6846 81.6444L85.9396 100.759L98.4676 82.0739L83.6846 81.6444ZM94.8882 60.5974L68.4004 61.8144L70.8345 75.4162L74.7718 67.1835L84.1857 71.4789L94.8882 60.5974ZM38.2259 71.5147L47.604 67.2193L51.5056 75.3804L53.9754 61.7786L27.4877 60.5974L38.2259 71.5147Z" fill="#CC6228" stroke="#CC6228" stroke-width="0.25" stroke-linecap="round" stroke-linejoin="round"/>
<path d="M27.4877 60.5974L38.5839 82.2529L38.2259 71.5146L27.4877 60.5974ZM84.1857 71.5146L83.7562 82.2529L94.8524 60.5974L84.1857 71.5146ZM53.9754 61.8144L51.4698 75.4162L54.6197 91.452L55.3356 70.2976L53.9754 61.8144ZM68.3647 61.8144L67.0761 70.2618L67.7204 91.452L70.8345 75.3804L68.3647 61.7786V61.8144Z" fill="#E27525" stroke="#E27525" stroke-width="0.25" stroke-linecap="round" stroke-linejoin="round"/>
<path d="M70.8345 75.3804L67.7204 91.452L69.9755 93.027L83.7562 82.2887L84.1858 71.5146L70.8345 75.3804ZM38.226 71.5146L38.5839 82.2529L52.4005 92.9912L54.6197 91.452L51.5056 75.3804L38.1902 71.5146H38.226Z" fill="#F5841F" stroke="#F5841F" stroke-width="0.25" stroke-linecap="round" stroke-linejoin="round"/>
<path d="M71.1568 107.81L71.2641 103.407L70.0471 102.405H52.2932L51.112 103.407L51.2194 107.81L36.329 100.759L41.5549 105.054L52.1142 112.32H70.1903L80.7854 105.018L85.9398 100.759L71.121 107.81H71.1568Z" fill="#C0AC9D" stroke="#C0AC9D" stroke-width="0.25" stroke-linecap="round" stroke-linejoin="round"/>
<path d="M69.9755 92.9911L67.7205 91.4519H54.6198L52.4005 93.0268L51.1119 103.407L52.2931 102.405H70.0471L71.2641 103.407L69.9755 93.0268V92.9911Z" fill="#161616" stroke="#161616" stroke-width="0.25" stroke-linecap="round" stroke-linejoin="round"/>
<path d="M117.403 38.047L121.34 18.8971L115.398 1L69.9397 34.6465L87.4431 49.3579L112.141 56.5526L117.582 50.217L115.219 48.4989L118.978 45.0626L116.114 42.8434L119.873 39.9799L117.367 38.047H117.403ZM1 18.8613L5.00895 38.047L2.43177 39.9441L6.26175 42.8076L3.39821 45.0626L7.12081 48.4989L4.75839 50.217L10.1991 56.5526L34.8971 49.3937L52.4005 34.6107L6.94184 1L1 18.8613Z" fill="#763E1A" stroke="#763E1A" stroke-width="0.25" stroke-linecap="round" stroke-linejoin="round"/>
<path d="M112.141 56.5525L87.4431 49.3936L94.8883 60.5972L83.7921 82.2527L98.4677 82.0737H120.41L112.141 56.5525ZM34.8971 49.3578L10.1991 56.5525L1.96643 82.0737H23.9083L38.5839 82.2527L27.4877 60.5972L34.9329 49.3578H34.8971ZM68.3647 61.8142L69.9755 34.6106L77.1343 15.2817H45.2059L52.3647 34.6106L53.9755 61.8142L54.584 70.3332V91.4518H67.7204L67.792 70.3332L68.3647 61.8142Z" fill="#F5841F" stroke="#F5841F" stroke-width="0.25" stroke-linecap="round" stroke-linejoin="round"/>
</svg>
