<svg width="120" height="120" viewBox="0 0 120 120" fill="none" xmlns="http://www.w3.org/2000/svg">
<path d="M60 120C93.1371 120 120 93.1371 120 60C120 26.8629 93.1371 0 60 0C26.8629 0 0 26.8629 0 60C0 93.1371 26.8629 120 60 120Z" fill="url(#paint0_linear_428_620)"/>
<path d="M102.954 60.731H92.3764C92.3764 39.1755 74.8412 21.7021 53.2087 21.7021C31.8443 21.7021 14.4748 38.7477 14.0496 59.934C13.6098 81.834 34.2291 100.851 56.2098 100.851H58.9747C78.3533 100.851 104.327 85.7351 108.385 67.3172C109.134 63.9223 106.443 60.731 102.954 60.731ZM37.4905 61.6913C37.4905 64.5738 35.1245 66.9315 32.2316 66.9315C29.3388 66.9315 26.9729 64.5728 26.9729 61.6913V53.214C26.9729 50.3316 29.3388 47.9739 32.2316 47.9739C35.1245 47.9739 37.4905 50.3316 37.4905 53.214V61.6913ZM55.751 61.6913C55.751 64.5738 53.3852 66.9315 50.4925 66.9315C47.5994 66.9315 45.2337 64.5728 45.2337 61.6913V53.214C45.2337 50.3316 47.6005 47.9739 50.4925 47.9739C53.3852 47.9739 55.751 50.3316 55.751 53.214V61.6913Z" fill="url(#paint1_linear_428_620)"/>
<defs>
<linearGradient id="paint0_linear_428_620" x1="60" y1="0" x2="60" y2="120" gradientUnits="userSpaceOnUse">
<stop stop-color="#534BB1"/>
<stop offset="1" stop-color="#551BF9"/>
</linearGradient>
<linearGradient id="paint1_linear_428_620" x1="61.2766" y1="21.7021" x2="61.2766" y2="100.851" gradientUnits="userSpaceOnUse">
<stop stop-color="white"/>
<stop offset="1" stop-color="white" stop-opacity="0.82"/>
</linearGradient>
</defs>
</svg>
