<svg width="120" height="120" viewBox="0 0 120 120" fill="none" xmlns="http://www.w3.org/2000/svg">
<rect width="120" height="120" rx="60" fill="#4A21EF"/>
<g clip-path="url(#clip0_428_586)">
<path d="M55.6876 25C53.5572 25 51.5141 25.8463 50.0077 27.3528L26.3444 51.0165C25.4481 51.9127 25 53.0875 25 54.2623C25 55.4369 25.4481 56.6116 26.3444 57.508L41.8517 73.0153V45.5616C41.8517 43.5129 43.4996 41.852 45.5483 41.852C54.2042 41.852 75.2736 41.852 78.1477 41.852L94.9993 25.0002L55.6876 25Z" fill="white"/>
<path d="M41.8524 78.1481H74.4387C76.4874 78.1481 78.1484 76.4872 78.1484 74.4383V46.9846L93.6556 62.4921C94.5518 63.3884 95 64.563 95 65.7378C95 66.9126 94.5518 68.0872 93.6556 68.9835L69.9923 92.6472C68.4859 94.1536 66.4428 95.0001 64.3124 95.0001L25.0007 94.9997L41.8524 78.1481Z" fill="white"/>
</g>
<defs>
<clipPath id="clip0_428_586">
<rect width="70" height="70" fill="white" transform="translate(25 25)"/>
</clipPath>
</defs>
</svg>
