<svg width="120" height="120" viewBox="0 0 120 120" fill="none" xmlns="http://www.w3.org/2000/svg">
<rect width="120" height="120" rx="60" fill="#2980FE"/>
<mask id="mask0_428_571" style="mask-type:luminance" maskUnits="userSpaceOnUse" x="17" y="32" width="86" height="56">
<path d="M102.365 32H17V87.0781H102.365V32Z" fill="white"/>
</mask>
<g mask="url(#mask0_428_571)">
<path d="M44.9839 50.9426H44.9992C44.9839 50.8505 44.9839 50.743 44.9839 50.6509V50.9426Z" fill="#29AEFF"/>
<path d="M75.5471 53.8594H58.6307V84.3918C58.6307 85.8347 59.7973 87.0014 61.2403 87.0014H72.9375C74.3805 87.0014 75.5471 85.8347 75.5471 84.3918V53.8594Z" fill="white"/>
<path d="M50.4644 32H49.8964H19.6096C18.1666 32 17 33.1666 17 34.6096V45.2015C17 46.6446 18.1666 47.8112 19.6096 47.8112H26.717H29.5415V50.9427V84.4685C29.5415 85.9115 30.7081 87.0781 32.1511 87.0781H43.265C44.7079 87.0781 45.8745 85.9115 45.8745 84.4685V50.9427V50.6511V47.8112H48.6991H49.8504H50.4184C54.778 47.8112 58.3239 44.2652 58.3239 39.9056C58.37 35.546 54.824 32 50.4644 32Z" fill="white"/>
<path d="M75.5626 53.8594V75.1661C76.146 75.3042 76.7446 75.4117 77.3586 75.5038C78.2183 75.6266 79.1086 75.7034 79.999 75.7187C80.045 75.7187 80.0911 75.7187 80.1525 75.7187V58.7715C77.5889 58.6027 75.5626 56.4689 75.5626 53.8594Z" fill="url(#paint0_linear_428_571)"/>
<path d="M80.49 32C68.4244 32 58.6307 41.7937 58.6307 53.8593C58.6307 64.2364 65.8608 72.9248 75.5625 75.166V53.8593C75.5625 51.1422 77.773 48.9317 80.49 48.9317C83.2071 48.9317 85.4176 51.1422 85.4176 53.8593C85.4176 56.1466 83.8672 58.0654 81.7488 58.618C81.3496 58.7254 80.9198 58.7868 80.49 58.7868V75.7187C80.9198 75.7187 81.3343 75.7033 81.7488 75.688C93.2311 75.0279 102.349 65.5105 102.349 53.8593C102.365 41.7937 92.5709 32 80.49 32Z" fill="white"/>
<path d="M80.4898 75.7187V58.7868C80.3671 58.7868 80.2597 58.7868 80.1368 58.7715V75.7187C80.2597 75.7187 80.3825 75.7187 80.4898 75.7187Z" fill="white"/>
</g>
<defs>
<linearGradient id="paint0_linear_428_571" x1="80.4973" y1="64.7923" x2="75.5647" y2="64.7923" gradientUnits="userSpaceOnUse">
<stop stop-color="white"/>
<stop offset="0.9667" stop-color="white" stop-opacity="0.3233"/>
<stop offset="1" stop-color="white" stop-opacity="0.3"/>
</linearGradient>
</defs>
</svg>
