<svg width="120" height="120" viewBox="0 0 120 120" fill="none" xmlns="http://www.w3.org/2000/svg">
<mask id="mask0_428_572" style="mask-type:luminance" maskUnits="userSpaceOnUse" x="0" y="0" width="120" height="120">
<path d="M120 0H0V120H120V0Z" fill="white"/>
</mask>
<g mask="url(#mask0_428_572)">
<path fill-rule="evenodd" clip-rule="evenodd" d="M4.08752 20.475C0 28.5 0 39 0 60C0 81 0 91.5 4.08752 99.5252C7.68752 106.575 13.425 112.312 20.475 115.912C28.5 120 39 120 60 120C81 120 91.5 120 99.5252 115.912C106.575 112.312 112.312 106.575 115.912 99.5252C120 91.5 120 81 120 60C120 39 120 28.5 115.912 20.475C112.312 13.425 106.575 7.68752 99.5252 4.08752C91.5 0 81 0 60 0C39 0 28.5 0 20.475 4.08752C13.425 7.68752 7.68752 13.425 4.08752 20.475ZM89.9438 32.3624C90.9938 32.3624 91.9876 32.7938 92.719 33.5252C93.45 34.2752 93.8627 35.2876 93.8438 36.3186C93.6565 47.4938 93.2252 56.0438 92.419 62.8124C91.6314 69.5814 90.45 74.6062 88.669 78.6752C87.469 81.3938 85.9876 83.6438 84.2438 85.5562C81.9 88.0876 79.219 89.9252 76.2938 91.6689C75.0433 92.4167 73.7432 93.1551 72.3793 93.9297C69.4693 95.5822 66.2697 97.3993 62.6438 99.8252C61.3314 100.706 59.6252 100.706 58.3127 99.8252C54.6313 97.3708 51.3894 95.5314 48.4528 93.8656C47.7998 93.4952 47.1619 93.1333 46.5376 92.7752C43.1065 90.7876 40.0127 88.8938 37.3127 86.1562C35.5127 84.3562 33.9565 82.1624 32.7189 79.5562C31.0314 76.0686 29.8876 71.85 29.0439 66.3938C27.9189 59.1 27.3564 49.5562 27.1502 36.3186C27.1314 35.2876 27.5252 34.2752 28.2564 33.5252C28.9876 32.7938 30.0002 32.3624 31.0502 32.3624H32.6627C37.6314 32.3814 48.6 31.8938 58.0876 24.5063C59.4938 23.4188 61.4627 23.4188 62.869 24.5063C72.3565 31.8938 83.3252 32.3814 88.3127 32.3624H89.9438ZM81.2252 76.1814C82.4438 73.6686 83.4565 70.2 84.2252 65.2124C85.1438 59.25 85.7065 51.15 85.9689 40.1252C80.1189 39.9562 70.0689 38.8314 60.4876 32.3814C50.9065 38.8124 40.8565 39.9376 35.0252 40.1252C35.2314 49.2376 35.6438 56.3252 36.3 61.8938C37.05 68.2314 38.1189 72.5252 39.45 75.5438C40.3314 77.55 41.3065 78.9938 42.4689 80.2686C44.0252 81.9752 45.9938 83.3814 48.6752 84.9938C49.7874 85.6611 51.0136 86.3552 52.3484 87.1108C54.7266 88.4567 57.4494 89.9978 60.4876 91.9314C63.4699 90.0294 66.1535 88.5041 68.5039 87.168C69.2125 86.7654 69.8905 86.3798 70.5376 86.0062C73.8376 84.1124 76.2752 82.5376 78.0938 80.7C79.3127 79.4438 80.3065 78.0752 81.2252 76.1814Z" fill="#3375BB"/>
</g>
</svg>
